  0
SECTION
  2
HEADER
  9
$ACADVER
  1
AC1032
  9
$ACADMAINTVER
 90
4
  9
$DWGCODEPAGE
  3
ANSI_1252
  9
$LASTSAVEDBY
  1
ezdxf
  9
$REQUIREDVERSIONS
160
0
  9
$INSBASE
 10
0.0
 20
0.0
 30
0.0
  9
$EXTMIN
 10
1e+20
 20
1e+20
 30
1e+20
  9
$EXTMAX
 10
-1e+20
 20
-1e+20
 30
-1e+20
  9
$LIMMIN
 10
0.0
 20
0.0
  9
$LIMMAX
 10
420.0
 20
297.0
  9
$ORTHOMODE
 70
0
  9
$REGENMODE
 70
1
  9
$FILLMODE
 70
1
  9
$QTEXTMODE
 70
0
  9
$MIRRTEXT
 70
1
  9
$LTSCALE
 40
1.0
  9
$ATTMODE
 70
1
  9
$TEXTSIZE
 40
2.5
  9
$TRACEWID
 40
1.0
  9
$TEXTSTYLE
  7
Standard
  9
$CLAYER
  8
0
  9
$CELTYPE
  6
ByLayer
  9
$CECOLOR
 62
256
  9
$CELTSCALE
 40
1.0
  9
$DISPSILH
 70
0
  9
$DIMSCALE
 40
1.0
  9
$DIMASZ
 40
2.5
  9
$DIMEXO
 40
0.625
  9
$DIMDLI
 40
3.75
  9
$DIMRND
 40
0.0
  9
$DIMDLE
 40
0.0
  9
$DIMEXE
 40
1.25
  9
$DIMTP
 40
0.0
  9
$DIMTM
 40
0.0
  9
$DIMTXT
 40
2.5
  9
$DIMCEN
 40
2.5
  9
$DIMTSZ
 40
0.0
  9
$DIMTOL
 70
0
  9
$DIMLIM
 70
0
  9
$DIMTIH
 70
0
  9
$DIMTOH
 70
0
  9
$DIMSE1
 70
0
  9
$DIMSE2
 70
0
  9
$DIMTAD
 70
1
  9
$DIMZIN
 70
8
  9
$DIMBLK
  1

  9
$DIMASO
 70
1
  9
$DIMSHO
 70
1
  9
$DIMPOST
  1

  9
$DIMAPOST
  1

  9
$DIMALT
 70
0
  9
$DIMALTD
 70
3
  9
$DIMALTF
 40
0.03937007874
  9
$DIMLFAC
 40
1.0
  9
$DIMTOFL
 70
1
  9
$DIMTVP
 40
0.0
  9
$DIMTIX
 70
0
  9
$DIMSOXD
 70
0
  9
$DIMSAH
 70
0
  9
$DIMBLK1
  1

  9
$DIMBLK2
  1

  9
$DIMSTYLE
  2
ISO-25
  9
$DIMCLRD
 70
0
  9
$DIMCLRE
 70
0
  9
$DIMCLRT
 70
0
  9
$DIMTFAC
 40
1.0
  9
$DIMGAP
 40
0.625
  9
$DIMJUST
 70
0
  9
$DIMSD1
 70
0
  9
$DIMSD2
 70
0
  9
$DIMTOLJ
 70
0
  9
$DIMTZIN
 70
8
  9
$DIMALTZ
 70
0
  9
$DIMALTTZ
 70
0
  9
$DIMUPT
 70
0
  9
$DIMDEC
 70
2
  9
$DIMTDEC
 70
2
  9
$DIMALTU
 70
2
  9
$DIMALTTD
 70
3
  9
$DIMTXSTY
  7
Standard
  9
$DIMAUNIT
 70
0
  9
$DIMADEC
 70
0
  9
$DIMALTRND
 40
0.0
  9
$DIMAZIN
 70
0
  9
$DIMDSEP
 70
44
  9
$DIMATFIT
 70
3
  9
$DIMFRAC
 70
0
  9
$DIMLDRBLK
  1

  9
$DIMLUNIT
 70
2
  9
$DIMLWD
 70
-2
  9
$DIMLWE
 70
-2
  9
$DIMTMOVE
 70
0
  9
$DIMFXL
 40
1.0
  9
$DIMFXLON
 70
0
  9
$DIMJOGANG
 40
0.785398163397
  9
$DIMTFILL
 70
0
  9
$DIMTFILLCLR
 70
0
  9
$DIMARCSYM
 70
0
  9
$DIMLTYPE
  6

  9
$DIMLTEX1
  6

  9
$DIMLTEX2
  6

  9
$DIMTXTDIRECTION
 70
0
  9
$LUNITS
 70
2
  9
$LUPREC
 70
4
  9
$SKETCHINC
 40
1.0
  9
$FILLETRAD
 40
10.0
  9
$AUNITS
 70
0
  9
$AUPREC
 70
2
  9
$MENU
  1
.
  9
$ELEVATION
 40
0.0
  9
$PELEVATION
 40
0.0
  9
$THICKNESS
 40
0.0
  9
$LIMCHECK
 70
0
  9
$CHAMFERA
 40
0.0
  9
$CHAMFERB
 40
0.0
  9
$CHAMFERC
 40
0.0
  9
$CHAMFERD
 40
0.0
  9
$SKPOLY
 70
0
  9
$TDCREATE
 40
2461298.8842939814
  9
$TDUCREATE
 40
2458532.153996898
  9
$TDUPDATE
 40
2461298.8842939814
  9
$TDUUPDATE
 40
2458532.1544311
  9
$TDINDWG
 40
0.0
  9
$TDUSRTIMER
 40
0.0
  9
$USRTIMER
 70
1
  9
$ANGBASE
 50
0.0
  9
$ANGDIR
 70
0
  9
$PDMODE
 70
0
  9
$PDSIZE
 40
0.0
  9
$PLINEWID
 40
0.0
  9
$SPLFRAME
 70
0
  9
$SPLINETYPE
 70
6
  9
$SPLINESEGS
 70
8
  9
$HANDSEED
  5
DA
  9
$SURFTAB1
 70
6
  9
$SURFTAB2
 70
6
  9
$SURFTYPE
 70
6
  9
$SURFU
 70
6
  9
$SURFV
 70
6
  9
$UCSBASE
  2

  9
$UCSNAME
  2

  9
$UCSORG
 10
0.0
 20
0.0
 30
0.0
  9
$UCSXDIR
 10
1.0
 20
0.0
 30
0.0
  9
$UCSYDIR
 10
0.0
 20
1.0
 30
0.0
  9
$UCSORTHOREF
  2

  9
$UCSORTHOVIEW
 70
0
  9
$UCSORGTOP
 10
0.0
 20
0.0
 30
0.0
  9
$UCSORGBOTTOM
 10
0.0
 20
0.0
 30
0.0
  9
$UCSORGLEFT
 10
0.0
 20
0.0
 30
0.0
  9
$UCSORGRIGHT
 10
0.0
 20
0.0
 30
0.0
  9
$UCSORGFRONT
 10
0.0
 20
0.0
 30
0.0
  9
$UCSORGBACK
 10
0.0
 20
0.0
 30
0.0
  9
$PUCSBASE
  2

  9
$PUCSNAME
  2

  9
$PUCSORG
 10
0.0
 20
0.0
 30
0.0
  9
$PUCSXDIR
 10
1.0
 20
0.0
 30
0.0
  9
$PUCSYDIR
 10
0.0
 20
1.0
 30
0.0
  9
$PUCSORTHOREF
  2

  9
$PUCSORTHOVIEW
 70
0
  9
$PUCSORGTOP
 10
0.0
 20
0.0
 30
0.0
  9
$PUCSORGBOTTOM
 10
0.0
 20
0.0
 30
0.0
  9
$PUCSORGLEFT
 10
0.0
 20
0.0
 30
0.0
  9
$PUCSORGRIGHT
 10
0.0
 20
0.0
 30
0.0
  9
$PUCSORGFRONT
 10
0.0
 20
0.0
 30
0.0
  9
$PUCSORGBACK
 10
0.0
 20
0.0
 30
0.0
  9
$USERI1
 70
0
  9
$USERI2
 70
0
  9
$USERI3
 70
0
  9
$USERI4
 70
0
  9
$USERI5
 70
0
  9
$USERR1
 40
0.0
  9
$USERR2
 40
0.0
  9
$USERR3
 40
0.0
  9
$USERR4
 40
0.0
  9
$USERR5
 40
0.0
  9
$WORLDVIEW
 70
1
  9
$SHADEDGE
 70
3
  9
$SHADEDIF
 70
70
  9
$TILEMODE
 70
1
  9
$MAXACTVP
 70
64
  9
$PINSBASE
 10
0.0
 20
0.0
 30
0.0
  9
$PLIMCHECK
 70
0
  9
$PEXTMIN
 10
1e+20
 20
1e+20
 30
1e+20
  9
$PEXTMAX
 10
-1e+20
 20
-1e+20
 30
-1e+20
  9
$PLIMMIN
 10
0.0
 20
0.0
  9
$PLIMMAX
 10
420.0
 20
297.0
  9
$UNITMODE
 70
0
  9
$VISRETAIN
 70
1
  9
$PLINEGEN
 70
0
  9
$PSLTSCALE
 70
1
  9
$TREEDEPTH
 70
3020
  9
$CMLSTYLE
  2
Standard
  9
$CMLJUST
 70
0
  9
$CMLSCALE
 40
20.0
  9
$PROXYGRAPHICS
 70
1
  9
$MEASUREMENT
 70
1
  9
$CELWEIGHT
370
-1
  9
$ENDCAPS
280
0
  9
$JOINSTYLE
280
0
  9
$LWDISPLAY
290
0
  9
$INSUNITS
 70
4
  9
$HYPERLINKBASE
  1

  9
$STYLESHEET
  1

  9
$XEDIT
290
1
  9
$CEPSNTYPE
380
0
  9
$PSTYLEMODE
290
1
  9
$FINGERPRINTGUID
  2
{C6BF2E28-91F0-4400-AF62-09F10CCB7B8B}
  9
$VERSIONGUID
  2
{12D332FA-F252-4CFD-A026-B203F2EA1EAD}
  9
$EXTNAMES
290
1
  9
$PSVPSCALE
 40
0.0
  9
$OLESTARTUP
290
0
  9
$SORTENTS
280
127
  9
$INDEXCTL
280
0
  9
$HIDETEXT
280
1
  9
$XCLIPFRAME
280
1
  9
$HALOGAP
280
0
  9
$OBSCOLOR
 70
257
  9
$OBSLTYPE
280
0
  9
$INTERSECTIONDISPLAY
280
0
  9
$INTERSECTIONCOLOR
 70
257
  9
$DIMASSOC
280
2
  9
$PROJECTNAME
  1

  9
$CAMERADISPLAY
290
0
  9
$LENSLENGTH
 40
50.0
  9
$CAMERAHEIGHT
 40
0.0
  9
$STEPSPERSEC
 40
24.0
  9
$STEPSIZE
 40
100.0
  9
$3DDWFPREC
 40
2.0
  9
$PSOLWIDTH
 40
0.005
  9
$PSOLHEIGHT
 40
0.08
  9
$LOFTANG1
 40
1.570796326795
  9
$LOFTANG2
 40
1.570796326795
  9
$LOFTMAG1
 40
0.0
  9
$LOFTMAG2
 40
0.0
  9
$LOFTPARAM
 70
7
  9
$LOFTNORMALS
280
1
  9
$LATITUDE
 40
37.795
  9
$LONGITUDE
 40
-122.394
  9
$NORTHDIRECTION
 40
0.0
  9
$TIMEZONE
 70
-8000
  9
$LIGHTGLYPHDISPLAY
280
1
  9
$TILEMODELIGHTSYNCH
280
1
  9
$CMATERIAL
347
20
  9
$SOLIDHIST
280
0
  9
$SHOWHIST
280
1
  9
$DWFFRAME
280
2
  9
$DGNFRAME
280
2
  9
$REALWORLDSCALE
290
1
  9
$INTERFERECOLOR
 62
256
  9
$CSHADOW
280
0
  9
$SHADOWPLANELOCATION
 40
0.0
  0
ENDSEC
  0
SECTION
  2
CLASSES
  0
CLASS
  1
ACDBDICTIONARYWDFLT
  2
AcDbDictionaryWithDefault
  3
ObjectDBX Classes
 90
0
 91
0
280
0
281
0
  0
CLASS
  1
SUN
  2
AcDbSun
  3
SCENEOE
 90
1153
 91
0
280
0
281
0
  0
CLASS
  1
VISUALSTYLE
  2
AcDbVisualStyle
  3
ObjectDBX Classes
 90
4095
 91
0
280
0
281
0
  0
CLASS
  1
MATERIAL
  2
AcDbMaterial
  3
ObjectDBX Classes
 90
1153
 91
0
280
0
281
0
  0
CLASS
  1
SCALE
  2
AcDbScale
  3
ObjectDBX Classes
 90
1153
 91
0
280
0
281
0
  0
CLASS
  1
TABLESTYLE
  2
AcDbTableStyle
  3
ObjectDBX Classes
 90
4095
 91
0
280
0
281
0
  0
CLASS
  1
MLEADERSTYLE
  2
AcDbMLeaderStyle
  3
ACDB_MLEADERSTYLE_CLASS
 90
4095
 91
0
280
0
281
0
  0
CLASS
  1
DICTIONARYVAR
  2
AcDbDictionaryVar
  3
ObjectDBX Classes
 90
0
 91
0
280
0
281
0
  0
CLASS
  1
CELLSTYLEMAP
  2
AcDbCellStyleMap
  3
ObjectDBX Classes
 90
1152
 91
0
280
0
281
0
  0
CLASS
  1
MENTALRAYRENDERSETTINGS
  2
AcDbMentalRayRenderSettings
  3
SCENEOE
 90
1024
 91
0
280
0
281
0
  0
CLASS
  1
ACDBDETAILVIEWSTYLE
  2
AcDbDetailViewStyle
  3
ObjectDBX Classes
 90
1025
 91
0
280
0
281
0
  0
CLASS
  1
ACDBSECTIONVIEWSTYLE
  2
AcDbSectionViewStyle
  3
ObjectDBX Classes
 90
1025
 91
0
280
0
281
0
  0
CLASS
  1
RASTERVARIABLES
  2
AcDbRasterVariables
  3
ISM
 90
0
 91
0
280
0
281
0
  0
CLASS
  1
LAYOUT
  2
AcDbLayout
  3
ObjectDBX Classes
 90
0
 91
0
280
0
281
0
  0
CLASS
  1
ACDBPLACEHOLDER
  2
AcDbPlaceHolder
  3
ObjectDBX Classes
 90
0
 91
0
280
0
281
0
  0
ENDSEC
  0
SECTION
  2
TABLES
  0
TABLE
  2
VPORT
  5
8
330
0
100
AcDbSymbolTable
 70
1
  0
VPORT
  5
23
330
8
100
AcDbSymbolTableRecord
100
AcDbViewportTableRecord
  2
*Active
 70
0
 10
0.0
 20
0.0
 11
1.0
 21
1.0
 12
0.0
 22
0.0
 13
0.0
 23
0.0
 14
0.5
 24
0.5
 15
0.5
 25
0.5
 16
0.0
 26
0.0
 36
1.0
 17
0.0
 27
0.0
 37
0.0
 40
1000.0
 41
1.34
 42
50.0
 43
0.0
 44
0.0
 50
0.0
 51
0.0
 71
0
 72
1000
 73
1
 74
3
 75
0
 76
0
 77
0
 78
0
281
0
 65
0
146
0.0
  0
ENDTAB
  0
TABLE
  2
LTYPE
  5
2
330
0
100
AcDbSymbolTable
 70
3
  0
LTYPE
  5
24
330
2
100
AcDbSymbolTableRecord
100
AcDbLinetypeTableRecord
  2
ByBlock
 70
0
  3

 72
65
 73
0
 40
0.0
  0
LTYPE
  5
25
330
2
100
AcDbSymbolTableRecord
100
AcDbLinetypeTableRecord
  2
ByLayer
 70
0
  3

 72
65
 73
0
 40
0.0
  0
LTYPE
  5
26
330
2
100
AcDbSymbolTableRecord
100
AcDbLinetypeTableRecord
  2
Continuous
 70
0
  3

 72
65
 73
0
 40
0.0
  0
ENDTAB
  0
TABLE
  2
LAYER
  5
1
330
0
100
AcDbSymbolTable
 70
15
  0
LAYER
  5
27
330
1
100
AcDbSymbolTableRecord
100
AcDbLayerTableRecord
  2
0
 70
0
 62
7
  6
Continuous
370
-3
390
13
347
21
  0
LAYER
  5
28
330
1
100
AcDbSymbolTableRecord
100
AcDbLayerTableRecord
  2
Defpoints
 70
0
 62
7
  6
Continuous
290
0
370
-3
390
13
347
21
  0
LAYER
  5
2F
330
1
100
AcDbSymbolTableRecord
100
AcDbLayerTableRecord
  2
A-WALL
 70
0
 62
7
  6
Continuous
370
-3
390
13
347
21
  0
LAYER
  5
30
330
1
100
AcDbSymbolTableRecord
100
AcDbLayerTableRecord
  2
A-WINDOW
 70
0
 62
4
  6
Continuous
370
-3
390
13
347
21
  0
LAYER
  5
31
330
1
100
AcDbSymbolTableRecord
100
AcDbLayerTableRecord
  2
A-DOOR
 70
0
 62
3
  6
Continuous
370
-3
390
13
347
21
  0
LAYER
  5
32
330
1
100
AcDbSymbolTableRecord
100
AcDbLayerTableRecord
  2
A-FURN
 70
0
 62
30
  6
Continuous
370
-3
390
13
347
21
  0
LAYER
  5
33
330
1
100
AcDbSymbolTableRecord
100
AcDbLayerTableRecord
  2
A-FIXT
 70
0
 62
6
  6
Continuous
370
-3
390
13
347
21
  0
LAYER
  5
34
330
1
100
AcDbSymbolTableRecord
100
AcDbLayerTableRecord
  2
A-DIMS
 70
0
 62
1
  6
Continuous
370
-3
390
13
347
21
  0
LAYER
  5
35
330
1
100
AcDbSymbolTableRecord
100
AcDbLayerTableRecord
  2
A-TEXT
 70
0
 62
7
  6
Continuous
370
-3
390
13
347
21
  0
LAYER
  5
36
330
1
100
AcDbSymbolTableRecord
100
AcDbLayerTableRecord
  2
A-HATCH
 70
0
 62
8
  6
Continuous
370
-3
390
13
347
21
  0
LAYER
  5
37
330
1
100
AcDbSymbolTableRecord
100
AcDbLayerTableRecord
  2
A-FRAME
 70
0
 62
7
  6
Continuous
370
-3
390
13
347
21
  0
LAYER
  5
38
330
1
100
AcDbSymbolTableRecord
100
AcDbLayerTableRecord
  2
A-FLOR
 70
0
 62
2
  6
Continuous
370
-3
390
13
347
21
  0
LAYER
  5
39
330
1
100
AcDbSymbolTableRecord
100
AcDbLayerTableRecord
  2
A-CEIL
 70
0
 62
5
  6
Continuous
370
-3
390
13
347
21
  0
LAYER
  5
3A
330
1
100
AcDbSymbolTableRecord
100
AcDbLayerTableRecord
  2
A-ELEC
 70
0
 62
1
  6
Continuous
370
-3
390
13
347
21
  0
LAYER
  5
3B
330
1
100
AcDbSymbolTableRecord
100
AcDbLayerTableRecord
  2
A-PLUM
 70
0
 62
140
  6
Continuous
370
-3
390
13
347
21
  0
ENDTAB
  0
TABLE
  2
STYLE
  5
5
330
0
100
AcDbSymbolTable
 70
2
  0
STYLE
  5
29
330
5
100
AcDbSymbolTableRecord
100
AcDbTextStyleTableRecord
  2
Standard
 70
0
 40
0.0
 41
1.0
 50
0.0
 71
0
 42
2.5
  3
txt
  4

  0
STYLE
  5
3C
330
5
100
AcDbSymbolTableRecord
100
AcDbTextStyleTableRecord
  2
CN
 70
0
 40
0.0
 41
1.0
 50
0.0
 71
0
 42
2.5
  3
PingFang SC
  4

  0
ENDTAB
  0
TABLE
  2
VIEW
  5
7
330
0
100
AcDbSymbolTable
 70
0
  0
ENDTAB
  0
TABLE
  2
UCS
  5
6
330
0
100
AcDbSymbolTable
 70
0
  0
ENDTAB
  0
TABLE
  2
APPID
  5
3
330
0
100
AcDbSymbolTable
 70
3
  0
APPID
  5
2A
330
3
100
AcDbSymbolTableRecord
100
AcDbRegAppTableRecord
  2
ACAD
 70
0
  0
APPID
  5
D7
330
3
100
AcDbSymbolTableRecord
100
AcDbRegAppTableRecord
  2
HATCHBACKGROUNDCOLOR
 70
0
  0
APPID
  5
D8
330
3
100
AcDbSymbolTableRecord
100
AcDbRegAppTableRecord
  2
EZDXF
 70
0
  0
ENDTAB
  0
TABLE
  2
DIMSTYLE
  5
4
330
0
100
AcDbSymbolTable
 70
2
100
AcDbDimStyleTable
  0
DIMSTYLE
105
2B
330
4
100
AcDbSymbolTableRecord
100
AcDbDimStyleTableRecord
  2
Standard
 70
0
 40
1.0
 41
2.5
 42
0.625
 43
3.75
 44
1.25
 45
0.0
 46
0.0
 47
0.0
 48
0.0
 49
2.5
140
2.5
141
2.5
142
0.0
143
0.03937007874
144
1.0
145
0.0
146
1.0
147
0.625
148
0.0
 69
0
 70
0
 71
0
 72
0
 73
0
 74
0
 75
0
 76
0
 77
1
 78
8
 79
3
170
0
171
3
172
1
173
0
174
0
175
0
176
0
177
0
178
0
179
2
271
2
272
2
273
2
274
3
275
0
276
0
277
2
278
44
279
0
280
0
281
0
282
0
283
0
284
8
285
0
286
0
288
0
289
3
290
0
371
-2
372
-2
  0
DIMSTYLE
105
3D
330
4
100
AcDbSymbolTableRecord
100
AcDbDimStyleTableRecord
  2
ARCH
 70
0
 40
1.0
 41
140.0
 42
60.0
 43
3.75
 44
120.0
 45
0.0
 46
0.0
 47
0.0
 48
0.0
 49
2.5
140
200.0
141
2.5
142
0.0
143
0.03937007874
144
1.0
145
0.0
146
1.0
147
60.0
148
0.0
 69
0
 70
0
 71
0
 72
0
 73
0
 74
0
 75
0
 76
0
 77
1
 78
8
 79
3
170
0
171
3
172
1
173
0
174
0
175
0
176
0
177
0
178
0
179
2
271
0
272
2
273
2
274
3
275
0
276
0
277
2
278
44
279
0
280
0
281
0
282
0
283
0
284
8
285
0
286
0
288
0
289
3
290
0
340
3C
342
B0
371
-2
372
-2
  0
ENDTAB
  0
TABLE
  2
BLOCK_RECORD
  5
9
330
0
100
AcDbSymbolTable
 70
5
  0
BLOCK_RECORD
  5
17
330
9
100
AcDbSymbolTableRecord
100
AcDbBlockTableRecord
  2
*Model_Space
340
1A
 70
0
280
1
281
0
  0
BLOCK_RECORD
  5
1B
330
9
100
AcDbSymbolTableRecord
100
AcDbBlockTableRecord
  2
*Paper_Space
340
1E
 70
0
280
1
281
0
  0
BLOCK_RECORD
  5
AB
330
9
100
AcDbSymbolTableRecord
100
AcDbBlockTableRecord
  2
*D1
340
0
 70
0
280
1
281
0
  0
BLOCK_RECORD
  5
B0
330
9
100
AcDbSymbolTableRecord
100
AcDbBlockTableRecord
  2
_ARCHTICK
340
0
 70
0
280
1
281
0
  0
BLOCK_RECORD
  5
BF
330
9
100
AcDbSymbolTableRecord
100
AcDbBlockTableRecord
  2
*D2
340
0
 70
0
280
1
281
0
  0
ENDTAB
  0
ENDSEC
  0
SECTION
  2
BLOCKS
  0
BLOCK
  5
18
330
17
100
AcDbEntity
  8
0
100
AcDbBlockBegin
  2
*Model_Space
 70
0
 10
0.0
 20
0.0
 30
0.0
  3
*Model_Space
  1

  0
ENDBLK
  5
19
330
17
100
AcDbEntity
  8
0
100
AcDbBlockEnd
  0
BLOCK
  5
1C
330
1B
100
AcDbEntity
  8
0
100
AcDbBlockBegin
  2
*Paper_Space
 70
0
 10
0.0
 20
0.0
 30
0.0
  3
*Paper_Space
  1

  0
ENDBLK
  5
1D
330
1B
100
AcDbEntity
  8
0
100
AcDbBlockEnd
  0
BLOCK
  5
AC
330
AB
100
AcDbEntity
  8
0
100
AcDbBlockBegin
  2
*D1
 70
1
 10
0.0
 20
0.0
 30
0.0
  3
*D1
  1

  0
LINE
  5
AE
330
AB
100
AcDbEntity
  8
0
100
AcDbLine
 10
0.0
 20
11765.44
 30
0.0
 11
0.0
 21
12325.44
 31
0.0
  0
LINE
  5
AF
330
AB
100
AcDbEntity
  8
0
100
AcDbLine
 10
12618.7
 20
11765.44
 30
0.0
 11
12618.7
 21
12325.44
 31
0.0
  0
INSERT
  5
B4
330
AB
100
AcDbEntity
  8
A-DIMS
100
AcDbBlockReference
  2
_ARCHTICK
 10
0.0
 20
12205.44
 30
0.0
 41
140.0
 42
140.0
 50
180.0
  0
INSERT
  5
B6
330
AB
100
AcDbEntity
  8
A-DIMS
100
AcDbBlockReference
  2
_ARCHTICK
 10
12618.7
 20
12205.44
 30
0.0
 41
140.0
 42
140.0
  0
LINE
  5
B8
330
AB
100
AcDbEntity
  8
0
100
AcDbLine
 10
0.0
 20
12205.44
 30
0.0
 11
5809.35
 21
12205.44
 31
0.0
  0
LINE
  5
B9
330
AB
100
AcDbEntity
  8
0
100
AcDbLine
 10
6809.35
 20
12205.44
 30
0.0
 11
12618.7
 21
12205.44
 31
0.0
  0
MTEXT
  5
BA
330
AB
100
AcDbEntity
  8
A-DIMS
100
AcDbMText
 10
6309.35
 20
12205.44
 30
0.0
 40
200.0
 71
5
  1
12619
  7
CN
  0
POINT
  5
BB
330
AB
100
AcDbEntity
  8
Defpoints
100
AcDbPoint
 10
0.0
 20
12205.44
 30
0.0
  0
POINT
  5
BC
330
AB
100
AcDbEntity
  8
Defpoints
100
AcDbPoint
 10
0.0
 20
11705.44
 30
0.0
  0
POINT
  5
BD
330
AB
100
AcDbEntity
  8
Defpoints
100
AcDbPoint
 10
12618.7
 20
11705.44
 30
0.0
  0
ENDBLK
  5
AD
330
AB
100
AcDbEntity
  8
0
100
AcDbBlockEnd
  0
BLOCK
  5
B1
330
B0
100
AcDbEntity
  8
0
100
AcDbBlockBegin
  2
_ARCHTICK
 70
0
 10
0.0
 20
0.0
 30
0.0
  3
_ARCHTICK
  1

  0
LWPOLYLINE
  5
B3
330
B0
100
AcDbEntity
  8
0
  6
BYBLOCK
 62
0
100
AcDbPolyline
 90
2
 70
0
 43
0.15
 10
-0.5
 20
-0.5
 10
0.5
 20
0.5
  0
ENDBLK
  5
B2
330
B0
100
AcDbEntity
  8
0
100
AcDbBlockEnd
  0
BLOCK
  5
C0
330
BF
100
AcDbEntity
  8
0
100
AcDbBlockBegin
  2
*D2
 70
1
 10
0.0
 20
0.0
 30
0.0
  3
*D2
  1

  0
LINE
  5
C2
330
BF
100
AcDbEntity
  8
0
100
AcDbLine
 10
-60.0
 20
0.0
 30
0.0
 11
-620.0
 21
0.0
 31
0.0
  0
LINE
  5
C3
330
BF
100
AcDbEntity
  8
0
100
AcDbLine
 10
-60.0
 20
11705.44
 30
0.0
 11
-620.0
 21
11705.44
 31
0.0
  0
INSERT
  5
C4
330
BF
100
AcDbEntity
  8
A-DIMS
100
AcDbBlockReference
  2
_ARCHTICK
 10
-500.0
 20
0.0
 30
0.0
 41
140.0
 42
140.0
 50
270.0
  0
INSERT
  5
C6
330
BF
100
AcDbEntity
  8
A-DIMS
100
AcDbBlockReference
  2
_ARCHTICK
 10
-500.0
 20
11705.44
 30
0.0
 41
140.0
 42
140.0
 50
90.0
  0
LINE
  5
C8
330
BF
100
AcDbEntity
  8
0
100
AcDbLine
 10
-500.0
 20
0.0
 30
0.0
 11
-500.0
 21
5352.72
 31
0.0
  0
LINE
  5
C9
330
BF
100
AcDbEntity
  8
0
100
AcDbLine
 10
-500.0
 20
6352.72
 30
0.0
 11
-500.0
 21
11705.44
 31
0.0
  0
MTEXT
  5
CA
330
BF
100
AcDbEntity
  8
A-DIMS
100
AcDbMText
 10
-500.0
 20
5852.72
 30
0.0
 40
200.0
 71
5
  1
11705
  7
CN
 50
90.0
  0
POINT
  5
CB
330
BF
100
AcDbEntity
  8
Defpoints
100
AcDbPoint
 10
-500.0
 20
0.0
 30
0.0
  0
POINT
  5
CC
330
BF
100
AcDbEntity
  8
Defpoints
100
AcDbPoint
 10
0.0
 20
0.0
 30
0.0
  0
POINT
  5
CD
330
BF
100
AcDbEntity
  8
Defpoints
100
AcDbPoint
 10
0.0
 20
11705.44
 30
0.0
  0
ENDBLK
  5
C1
330
BF
100
AcDbEntity
  8
0
100
AcDbBlockEnd
  0
ENDSEC
  0
SECTION
  2
ENTITIES
  0
LWPOLYLINE
  5
3E
330
17
100
AcDbEntity
  8
A-WALL
370
50
100
AcDbPolyline
 90
6
 70
1
 10
1993.46
 20
11705.44
 10
3093.3
 20
11705.44
 10
3093.3
 20
11587.6
 10
2111.3
 20
11587.6
 10
2111.3
 20
10085.14
 10
1993.46
 20
10085.14
  0
HATCH
  5
3F
330
17
100
AcDbEntity
  8
A-WALL
 62
8
100
AcDbHatch
 10
0.0
 20
0.0
 30
0.0
210
0.0
220
0.0
230
1.0
  2
SOLID
 70
1
 71
0
 91
1
 92
3
 72
0
 73
1
 93
6
 10
1993.46
 20
11705.44
 10
3093.3
 20
11705.44
 10
3093.3
 20
11587.6
 10
2111.3
 20
11587.6
 10
2111.3
 20
10085.14
 10
1993.46
 20
10085.14
 97
0
 75
0
 76
1
 98
0
  0
LWPOLYLINE
  5
40
330
17
100
AcDbEntity
  8
A-WALL
370
50
100
AcDbPolyline
 90
6
 70
1
 10
1993.46
 20
10085.14
 10
3849.44
 20
10085.14
 10
3849.44
 20
9849.460000000001
 10
2238.96
 20
9849.460000000001
 10
2238.96
 20
9643.24
 10
1993.46
 20
9643.24
  0
HATCH
  5
41
330
17
100
AcDbEntity
  8
A-WALL
 62
8
100
AcDbHatch
 10
0.0
 20
0.0
 30
0.0
210
0.0
220
0.0
230
1.0
  2
SOLID
 70
1
 71
0
 91
1
 92
3
 72
0
 73
1
 93
6
 10
1993.46
 20
10085.14
 10
3849.44
 20
10085.14
 10
3849.44
 20
9849.460000000001
 10
2238.96
 20
9849.460000000001
 10
2238.96
 20
9643.24
 10
1993.46
 20
9643.24
 97
0
 75
0
 76
1
 98
0
  0
LWPOLYLINE
  5
42
330
17
100
AcDbEntity
  8
A-WALL
370
50
100
AcDbPolyline
 90
6
 70
1
 10
5567.9400000000005
 20
10085.14
 10
6913.280000000001
 20
10085.14
 10
6913.280000000001
 20
9849.460000000001
 10
5793.8
 20
9849.460000000001
 10
5793.8
 20
7649.780000000001
 10
5567.9400000000005
 20
7649.780000000001
  0
HATCH
  5
43
330
17
100
AcDbEntity
  8
A-WALL
 62
8
100
AcDbHatch
 10
0.0
 20
0.0
 30
0.0
210
0.0
220
0.0
230
1.0
  2
SOLID
 70
1
 71
0
 91
1
 92
3
 72
0
 73
1
 93
6
 10
5567.9400000000005
 20
10085.14
 10
6913.280000000001
 20
10085.14
 10
6913.280000000001
 20
9849.460000000001
 10
5793.8
 20
9849.460000000001
 10
5793.8
 20
7649.780000000001
 10
5567.9400000000005
 20
7649.780000000001
 97
0
 75
0
 76
1
 98
0
  0
LWPOLYLINE
  5
44
330
17
100
AcDbEntity
  8
A-WALL
370
50
100
AcDbPolyline
 90
6
 70
1
 10
8317.54
 20
10085.14
 10
9662.880000000001
 20
10085.14
 10
9662.880000000001
 20
6510.66
 10
9427.2
 20
6510.66
 10
9427.2
 20
9849.460000000001
 10
8317.54
 20
9849.460000000001
  0
HATCH
  5
45
330
17
100
AcDbEntity
  8
A-WALL
 62
8
100
AcDbHatch
 10
0.0
 20
0.0
 30
0.0
210
0.0
220
0.0
230
1.0
  2
SOLID
 70
1
 71
0
 91
1
 92
3
 72
0
 73
1
 93
6
 10
8317.54
 20
10085.14
 10
9662.880000000001
 20
10085.14
 10
9662.880000000001
 20
6510.66
 10
9427.2
 20
6510.66
 10
9427.2
 20
9849.460000000001
 10
8317.54
 20
9849.460000000001
 97
0
 75
0
 76
1
 98
0
  0
LWPOLYLINE
  5
46
330
17
100
AcDbEntity
  8
A-WALL
370
50
100
AcDbPolyline
 90
4
 70
1
 10
6667.78
 20
6824.900000000001
 10
9427.2
 20
6824.900000000001
 10
9427.2
 20
6589.22
 10
6667.78
 20
6589.22
  0
HATCH
  5
47
330
17
100
AcDbEntity
  8
A-WALL
 62
8
100
AcDbHatch
 10
0.0
 20
0.0
 30
0.0
210
0.0
220
0.0
230
1.0
  2
SOLID
 70
1
 71
0
 91
1
 92
3
 72
0
 73
1
 93
4
 10
6667.78
 20
6824.900000000001
 10
9427.2
 20
6824.900000000001
 10
9427.2
 20
6589.22
 10
6667.78
 20
6589.22
 97
0
 75
0
 76
1
 98
0
  0
LWPOLYLINE
  5
48
330
17
100
AcDbEntity
  8
A-WALL
370
50
100
AcDbPolyline
 90
4
 70
1
 10
5567.9400000000005
 20
6874.0
 10
5793.8
 20
6874.0
 10
5793.8
 20
6589.22
 10
5567.9400000000005
 20
6589.22
  0
HATCH
  5
49
330
17
100
AcDbEntity
  8
A-WALL
 62
8
100
AcDbHatch
 10
0.0
 20
0.0
 30
0.0
210
0.0
220
0.0
230
1.0
  2
SOLID
 70
1
 71
0
 91
1
 92
3
 72
0
 73
1
 93
4
 10
5567.9400000000005
 20
6874.0
 10
5793.8
 20
6874.0
 10
5793.8
 20
6589.22
 10
5567.9400000000005
 20
6589.22
 97
0
 75
0
 76
1
 98
0
  0
LWPOLYLINE
  5
4A
330
17
100
AcDbEntity
  8
A-WALL
370
50
100
AcDbPolyline
 90
8
 70
1
 10
1993.46
 20
9024.58
 10
2238.96
 20
9024.58
 10
2238.96
 20
6815.08
 10
1993.46
 20
6815.08
 10
1993.46
 20
7649.780000000001
 10
1797.06
 20
7649.780000000001
 10
1797.06
 20
7885.46
 10
1993.46
 20
7885.46
  0
HATCH
  5
4B
330
17
100
AcDbEntity
  8
A-WALL
 62
8
100
AcDbHatch
 10
0.0
 20
0.0
 30
0.0
210
0.0
220
0.0
230
1.0
  2
SOLID
 70
1
 71
0
 91
1
 92
3
 72
0
 73
1
 93
8
 10
1993.46
 20
9024.58
 10
2238.96
 20
9024.58
 10
2238.96
 20
6815.08
 10
1993.46
 20
6815.08
 10
1993.46
 20
7649.780000000001
 10
1797.06
 20
7649.780000000001
 10
1797.06
 20
7885.46
 10
1993.46
 20
7885.46
 97
0
 75
0
 76
1
 98
0
  0
LWPOLYLINE
  5
4C
330
17
100
AcDbEntity
  8
A-WALL
370
50
100
AcDbPolyline
 90
8
 70
1
 10
0.0
 20
7885.46
 10
1198.04
 20
7885.46
 10
1198.04
 20
7649.780000000001
 10
235.68
 20
7649.780000000001
 10
235.68
 20
2297.88
 10
392.8
 20
2297.88
 10
392.8
 20
2052.38
 10
0.0
 20
2052.38
  0
HATCH
  5
4D
330
17
100
AcDbEntity
  8
A-WALL
 62
8
100
AcDbHatch
 10
0.0
 20
0.0
 30
0.0
210
0.0
220
0.0
230
1.0
  2
SOLID
 70
1
 71
0
 91
1
 92
3
 72
0
 73
1
 93
8
 10
0.0
 20
7885.46
 10
1198.04
 20
7885.46
 10
1198.04
 20
7649.780000000001
 10
235.68
 20
7649.780000000001
 10
235.68
 20
2297.88
 10
392.8
 20
2297.88
 10
392.8
 20
2052.38
 10
0.0
 20
2052.38
 97
0
 75
0
 76
1
 98
0
  0
LWPOLYLINE
  5
4E
330
17
100
AcDbEntity
  8
A-WALL
370
50
100
AcDbPolyline
 90
4
 70
1
 10
1993.46
 20
6815.08
 10
4566.3
 20
6815.08
 10
4566.3
 20
6579.400000000001
 10
1993.46
 20
6579.400000000001
  0
HATCH
  5
4F
330
17
100
AcDbEntity
  8
A-WALL
 62
8
100
AcDbHatch
 10
0.0
 20
0.0
 30
0.0
210
0.0
220
0.0
230
1.0
  2
SOLID
 70
1
 71
0
 91
1
 92
3
 72
0
 73
1
 93
4
 10
1993.46
 20
6815.08
 10
4566.3
 20
6815.08
 10
4566.3
 20
6579.400000000001
 10
1993.46
 20
6579.400000000001
 97
0
 75
0
 76
1
 98
0
  0
LWPOLYLINE
  5
50
330
17
100
AcDbEntity
  8
A-WALL
370
50
100
AcDbPolyline
 90
4
 70
1
 10
1993.46
 20
6579.400000000001
 10
2238.96
 20
6579.400000000001
 10
2238.96
 20
3279.88
 10
1993.46
 20
3279.88
  0
HATCH
  5
51
330
17
100
AcDbEntity
  8
A-WALL
 62
8
100
AcDbHatch
 10
0.0
 20
0.0
 30
0.0
210
0.0
220
0.0
230
1.0
  2
SOLID
 70
1
 71
0
 91
1
 92
3
 72
0
 73
1
 93
4
 10
1993.46
 20
6579.400000000001
 10
2238.96
 20
6579.400000000001
 10
2238.96
 20
3279.88
 10
1993.46
 20
3279.88
 97
0
 75
0
 76
1
 98
0
  0
LWPOLYLINE
  5
52
330
17
100
AcDbEntity
  8
A-WALL
370
50
100
AcDbPolyline
 90
6
 70
1
 10
4438.64
 20
6579.400000000001
 10
4566.3
 20
6579.400000000001
 10
4566.3
 20
5587.58
 10
4664.5
 20
5587.58
 10
4664.5
 20
5459.92
 10
4438.64
 20
5459.92
  0
HATCH
  5
53
330
17
100
AcDbEntity
  8
A-WALL
 62
8
100
AcDbHatch
 10
0.0
 20
0.0
 30
0.0
210
0.0
220
0.0
230
1.0
  2
SOLID
 70
1
 71
0
 91
1
 92
3
 72
0
 73
1
 93
6
 10
4438.64
 20
6579.400000000001
 10
4566.3
 20
6579.400000000001
 10
4566.3
 20
5587.58
 10
4664.5
 20
5587.58
 10
4664.5
 20
5459.92
 10
4438.64
 20
5459.92
 97
0
 75
0
 76
1
 98
0
  0
LWPOLYLINE
  5
54
330
17
100
AcDbEntity
  8
A-WALL
370
50
100
AcDbPolyline
 90
8
 70
1
 10
5558.12
 20
5567.9400000000005
 10
5793.8
 20
5567.9400000000005
 10
5793.8
 20
225.86
 10
5548.3
 20
225.86
 10
5548.3
 20
1826.52
 10
4959.1
 20
1826.52
 10
4959.1
 20
2052.38
 10
5558.12
 20
2052.38
  0
HATCH
  5
55
330
17
100
AcDbEntity
  8
A-WALL
 62
8
100
AcDbHatch
 10
0.0
 20
0.0
 30
0.0
210
0.0
220
0.0
230
1.0
  2
SOLID
 70
1
 71
0
 91
1
 92
3
 72
0
 73
1
 93
8
 10
5558.12
 20
5567.9400000000005
 10
5793.8
 20
5567.9400000000005
 10
5793.8
 20
225.86
 10
5548.3
 20
225.86
 10
5548.3
 20
1826.52
 10
4959.1
 20
1826.52
 10
4959.1
 20
2052.38
 10
5558.12
 20
2052.38
 97
0
 75
0
 76
1
 98
0
  0
LWPOLYLINE
  5
56
330
17
100
AcDbEntity
  8
A-WALL
370
50
100
AcDbPolyline
 90
8
 70
1
 10
1993.46
 20
2415.7200000000003
 10
2238.96
 20
2415.7200000000003
 10
2238.96
 20
2052.38
 10
2837.98
 20
2052.38
 10
2837.98
 20
1826.52
 10
2238.96
 20
1826.52
 10
2238.96
 20
225.86
 10
1993.46
 20
225.86
  0
HATCH
  5
57
330
17
100
AcDbEntity
  8
A-WALL
 62
8
100
AcDbHatch
 10
0.0
 20
0.0
 30
0.0
210
0.0
220
0.0
230
1.0
  2
SOLID
 70
1
 71
0
 91
1
 92
3
 72
0
 73
1
 93
8
 10
1993.46
 20
2415.7200000000003
 10
2238.96
 20
2415.7200000000003
 10
2238.96
 20
2052.38
 10
2837.98
 20
2052.38
 10
2837.98
 20
1826.52
 10
2238.96
 20
1826.52
 10
2238.96
 20
225.86
 10
1993.46
 20
225.86
 97
0
 75
0
 76
1
 98
0
  0
LWPOLYLINE
  5
58
330
17
100
AcDbEntity
  8
A-WALL
370
50
100
AcDbPolyline
 90
4
 70
1
 10
1993.46
 20
225.86
 10
2238.96
 20
225.86
 10
2238.96
 20
0.0
 10
1993.46
 20
0.0
  0
HATCH
  5
59
330
17
100
AcDbEntity
  8
A-WALL
 62
8
100
AcDbHatch
 10
0.0
 20
0.0
 30
0.0
210
0.0
220
0.0
230
1.0
  2
SOLID
 70
1
 71
0
 91
1
 92
3
 72
0
 73
1
 93
4
 10
1993.46
 20
225.86
 10
2238.96
 20
225.86
 10
2238.96
 20
0.0
 10
1993.46
 20
0.0
 97
0
 75
0
 76
1
 98
0
  0
LWPOLYLINE
  5
5A
330
17
100
AcDbEntity
  8
A-WALL
370
50
100
AcDbPolyline
 90
4
 70
1
 10
5401.0
 20
225.86
 10
5970.56
 20
225.86
 10
5970.56
 20
0.0
 10
5401.0
 20
0.0
  0
HATCH
  5
5B
330
17
100
AcDbEntity
  8
A-WALL
 62
8
100
AcDbHatch
 10
0.0
 20
0.0
 30
0.0
210
0.0
220
0.0
230
1.0
  2
SOLID
 70
1
 71
0
 91
1
 92
3
 72
0
 73
1
 93
4
 10
5401.0
 20
225.86
 10
5970.56
 20
225.86
 10
5970.56
 20
0.0
 10
5401.0
 20
0.0
 97
0
 75
0
 76
1
 98
0
  0
LWPOLYLINE
  5
5C
330
17
100
AcDbEntity
  8
A-WALL
370
50
100
AcDbPolyline
 90
4
 70
1
 10
8965.66
 20
225.86
 10
9427.2
 20
225.86
 10
9427.2
 20
0.0
 10
8965.66
 20
0.0
  0
HATCH
  5
5D
330
17
100
AcDbEntity
  8
A-WALL
 62
8
100
AcDbHatch
 10
0.0
 20
0.0
 30
0.0
210
0.0
220
0.0
230
1.0
  2
SOLID
 70
1
 71
0
 91
1
 92
3
 72
0
 73
1
 93
4
 10
8965.66
 20
225.86
 10
9427.2
 20
225.86
 10
9427.2
 20
0.0
 10
8965.66
 20
0.0
 97
0
 75
0
 76
1
 98
0
  0
LWPOLYLINE
  5
5E
330
17
100
AcDbEntity
  8
A-WALL
370
50
100
AcDbPolyline
 90
8
 70
1
 10
9112.960000000001
 20
5666.14
 10
12618.7
 20
5666.14
 10
12618.7
 20
0.0
 10
12353.56
 20
0.0
 10
12353.56
 20
5420.64
 10
9348.64
 20
5420.64
 10
9348.64
 20
5302.8
 10
9112.960000000001
 20
5302.8
  0
HATCH
  5
5F
330
17
100
AcDbEntity
  8
A-WALL
 62
8
100
AcDbHatch
 10
0.0
 20
0.0
 30
0.0
210
0.0
220
0.0
230
1.0
  2
SOLID
 70
1
 71
0
 91
1
 92
3
 72
0
 73
1
 93
8
 10
9112.960000000001
 20
5666.14
 10
12618.7
 20
5666.14
 10
12618.7
 20
0.0
 10
12353.56
 20
0.0
 10
12353.56
 20
5420.64
 10
9348.64
 20
5420.64
 10
9348.64
 20
5302.8
 10
9112.960000000001
 20
5302.8
 97
0
 75
0
 76
1
 98
0
  0
LWPOLYLINE
  5
60
330
17
100
AcDbEntity
  8
A-WALL
370
50
100
AcDbPolyline
 90
10
 70
1
 10
9112.960000000001
 20
4507.38
 10
9348.64
 20
4507.38
 10
9348.64
 20
2052.38
 10
10163.7
 20
2052.38
 10
10163.7
 20
1826.52
 10
9112.960000000001
 20
1826.52
 10
9112.960000000001
 20
2445.1800000000003
 10
8720.16
 20
2445.1800000000003
 10
8720.16
 20
2680.86
 10
9112.960000000001
 20
2680.86
  0
HATCH
  5
61
330
17
100
AcDbEntity
  8
A-WALL
 62
8
100
AcDbHatch
 10
0.0
 20
0.0
 30
0.0
210
0.0
220
0.0
230
1.0
  2
SOLID
 70
1
 71
0
 91
1
 92
3
 72
0
 73
1
 93
10
 10
9112.960000000001
 20
4507.38
 10
9348.64
 20
4507.38
 10
9348.64
 20
2052.38
 10
10163.7
 20
2052.38
 10
10163.7
 20
1826.52
 10
9112.960000000001
 20
1826.52
 10
9112.960000000001
 20
2445.1800000000003
 10
8720.16
 20
2445.1800000000003
 10
8720.16
 20
2680.86
 10
9112.960000000001
 20
2680.86
 97
0
 75
0
 76
1
 98
0
  0
LWPOLYLINE
  5
62
330
17
100
AcDbEntity
  8
A-WALL
370
50
100
AcDbPolyline
 90
4
 70
1
 10
11567.960000000001
 20
2052.38
 10
12353.56
 20
2052.38
 10
12353.56
 20
1826.52
 10
11567.960000000001
 20
1826.52
  0
HATCH
  5
63
330
17
100
AcDbEntity
  8
A-WALL
 62
8
100
AcDbHatch
 10
0.0
 20
0.0
 30
0.0
210
0.0
220
0.0
230
1.0
  2
SOLID
 70
1
 71
0
 91
1
 92
3
 72
0
 73
1
 93
4
 10
11567.960000000001
 20
2052.38
 10
12353.56
 20
2052.38
 10
12353.56
 20
1826.52
 10
11567.960000000001
 20
1826.52
 97
0
 75
0
 76
1
 98
0
  0
LWPOLYLINE
  5
64
330
17
100
AcDbEntity
  8
A-WALL
370
50
100
AcDbPolyline
 90
4
 70
1
 10
235.68
 20
4851.08
 10
1109.66
 20
4851.08
 10
1109.66
 20
4723.42
 10
235.68
 20
4723.42
  0
HATCH
  5
65
330
17
100
AcDbEntity
  8
A-WALL
 62
8
100
AcDbHatch
 10
0.0
 20
0.0
 30
0.0
210
0.0
220
0.0
230
1.0
  2
SOLID
 70
1
 71
0
 91
1
 92
3
 72
0
 73
1
 93
4
 10
235.68
 20
4851.08
 10
1109.66
 20
4851.08
 10
1109.66
 20
4723.42
 10
235.68
 20
4723.42
 97
0
 75
0
 76
1
 98
0
  0
LWPOLYLINE
  5
66
330
17
100
AcDbEntity
  8
A-WALL
370
50
100
AcDbPolyline
 90
4
 70
1
 10
1855.98
 20
4851.08
 10
1993.46
 20
4851.08
 10
1993.46
 20
4723.42
 10
1855.98
 20
4723.42
  0
HATCH
  5
67
330
17
100
AcDbEntity
  8
A-WALL
 62
8
100
AcDbHatch
 10
0.0
 20
0.0
 30
0.0
210
0.0
220
0.0
230
1.0
  2
SOLID
 70
1
 71
0
 91
1
 92
3
 72
0
 73
1
 93
4
 10
1855.98
 20
4851.08
 10
1993.46
 20
4851.08
 10
1993.46
 20
4723.42
 10
1855.98
 20
4723.42
 97
0
 75
0
 76
1
 98
0
  0
LWPOLYLINE
  5
68
330
17
100
AcDbEntity
  8
A-WALL
370
50
100
AcDbPolyline
 90
4
 70
1
 10
3731.6
 20
8955.84
 10
3849.44
 20
8955.84
 10
3849.44
 20
7610.5
 10
3731.6
 20
7610.5
  0
HATCH
  5
69
330
17
100
AcDbEntity
  8
A-WALL
 62
8
100
AcDbHatch
 10
0.0
 20
0.0
 30
0.0
210
0.0
220
0.0
230
1.0
  2
SOLID
 70
1
 71
0
 91
1
 92
3
 72
0
 73
1
 93
4
 10
3731.6
 20
8955.84
 10
3849.44
 20
8955.84
 10
3849.44
 20
7610.5
 10
3731.6
 20
7610.5
 97
0
 75
0
 76
1
 98
0
  0
LWPOLYLINE
  5
6A
330
17
100
AcDbEntity
  8
A-WALL
370
50
100
AcDbPolyline
 90
6
 70
1
 10
1855.98
 20
2297.88
 10
1993.46
 20
2297.88
 10
1993.46
 20
2415.7200000000003
 10
2238.96
 20
2415.7200000000003
 10
2238.96
 20
2052.38
 10
1855.98
 20
2052.38
  0
HATCH
  5
6B
330
17
100
AcDbEntity
  8
A-WALL
 62
8
100
AcDbHatch
 10
0.0
 20
0.0
 30
0.0
210
0.0
220
0.0
230
1.0
  2
SOLID
 70
1
 71
0
 91
1
 92
3
 72
0
 73
1
 93
6
 10
1855.98
 20
2297.88
 10
1993.46
 20
2297.88
 10
1993.46
 20
2415.7200000000003
 10
2238.96
 20
2415.7200000000003
 10
2238.96
 20
2052.38
 10
1855.98
 20
2052.38
 97
0
 75
0
 76
1
 98
0
  0
LWPOLYLINE
  5
6C
330
17
100
AcDbEntity
  8
A-WALL
370
70
100
AcDbPolyline
 90
14
 70
1
 10
1993.46
 20
11705.44
 10
5793.8
 20
11705.44
 10
5793.8
 20
10085.14
 10
9662.880000000001
 20
10085.14
 10
9662.880000000001
 20
6510.66
 10
9427.2
 20
6510.66
 10
9427.2
 20
5666.14
 10
12618.7
 20
5666.14
 10
12618.7
 20
0.0
 10
1993.46
 20
0.0
 10
1993.46
 20
2052.38
 10
0.0
 20
2052.38
 10
0.0
 20
7885.46
 10
1993.46
 20
7885.46
  0
LINE
  5
6D
330
17
100
AcDbEntity
  8
A-WINDOW
370
25
100
AcDbLine
 10
3093.3
 20
11646.52
 30
0.0
 11
5793.8
 21
11646.52
 31
0.0
  0
LINE
  5
6E
330
17
100
AcDbEntity
  8
A-WINDOW
100
AcDbLine
 10
3093.3
 20
11691.52
 30
0.0
 11
5793.8
 21
11691.52
 31
0.0
  0
LINE
  5
6F
330
17
100
AcDbEntity
  8
A-WINDOW
100
AcDbLine
 10
3093.3
 20
11601.52
 30
0.0
 11
5793.8
 21
11601.52
 31
0.0
  0
LINE
  5
70
330
17
100
AcDbEntity
  8
A-WINDOW
370
25
100
AcDbLine
 10
5734.88
 20
11587.6
 30
0.0
 11
5734.88
 21
10085.14
 31
0.0
  0
LINE
  5
71
330
17
100
AcDbEntity
  8
A-WINDOW
100
AcDbLine
 10
5779.88
 20
11587.6
 30
0.0
 11
5779.88
 21
10085.14
 31
0.0
  0
LINE
  5
72
330
17
100
AcDbEntity
  8
A-WINDOW
100
AcDbLine
 10
5689.88
 20
11587.6
 30
0.0
 11
5689.88
 21
10085.14
 31
0.0
  0
LINE
  5
73
330
17
100
AcDbEntity
  8
A-WINDOW
370
25
100
AcDbLine
 10
6913.280000000001
 20
9967.300000000001
 30
0.0
 11
8317.54
 21
9967.300000000001
 31
0.0
  0
LINE
  5
74
330
17
100
AcDbEntity
  8
A-WINDOW
100
AcDbLine
 10
6913.280000000001
 20
10012.300000000001
 30
0.0
 11
8317.54
 21
10012.300000000001
 31
0.0
  0
LINE
  5
75
330
17
100
AcDbEntity
  8
A-WINDOW
100
AcDbLine
 10
6913.280000000001
 20
9922.300000000001
 30
0.0
 11
8317.54
 21
9922.300000000001
 31
0.0
  0
LINE
  5
76
330
17
100
AcDbEntity
  8
A-WINDOW
370
25
100
AcDbLine
 10
2111.3
 20
9643.24
 30
0.0
 11
2111.3
 21
9024.58
 31
0.0
  0
LINE
  5
77
330
17
100
AcDbEntity
  8
A-WINDOW
100
AcDbLine
 10
2156.3
 20
9643.24
 30
0.0
 11
2156.3
 21
9024.58
 31
0.0
  0
LINE
  5
78
330
17
100
AcDbEntity
  8
A-WINDOW
100
AcDbLine
 10
2066.3
 20
9643.24
 30
0.0
 11
2066.3
 21
9024.58
 31
0.0
  0
LINE
  5
79
330
17
100
AcDbEntity
  8
A-WINDOW
370
25
100
AcDbLine
 10
1198.04
 20
7767.62
 30
0.0
 11
1797.06
 21
7767.62
 31
0.0
  0
LINE
  5
7A
330
17
100
AcDbEntity
  8
A-WINDOW
100
AcDbLine
 10
1198.04
 20
7812.62
 30
0.0
 11
1797.06
 21
7812.62
 31
0.0
  0
LINE
  5
7B
330
17
100
AcDbEntity
  8
A-WINDOW
100
AcDbLine
 10
1198.04
 20
7722.62
 30
0.0
 11
1797.06
 21
7722.62
 31
0.0
  0
LINE
  5
7C
330
17
100
AcDbEntity
  8
A-WINDOW
370
25
100
AcDbLine
 10
235.68
 20
2180.04
 30
0.0
 11
1855.98
 21
2180.04
 31
0.0
  0
LINE
  5
7D
330
17
100
AcDbEntity
  8
A-WINDOW
100
AcDbLine
 10
235.68
 20
2225.04
 30
0.0
 11
1855.98
 21
2225.04
 31
0.0
  0
LINE
  5
7E
330
17
100
AcDbEntity
  8
A-WINDOW
100
AcDbLine
 10
235.68
 20
2135.04
 30
0.0
 11
1855.98
 21
2135.04
 31
0.0
  0
LINE
  5
7F
330
17
100
AcDbEntity
  8
A-WINDOW
370
25
100
AcDbLine
 10
2238.96
 20
117.84
 30
0.0
 11
5401.0
 21
117.84
 31
0.0
  0
LINE
  5
80
330
17
100
AcDbEntity
  8
A-WINDOW
100
AcDbLine
 10
2238.96
 20
162.84
 30
0.0
 11
5401.0
 21
162.84
 31
0.0
  0
LINE
  5
81
330
17
100
AcDbEntity
  8
A-WINDOW
100
AcDbLine
 10
2238.96
 20
72.84
 30
0.0
 11
5401.0
 21
72.84
 31
0.0
  0
LINE
  5
82
330
17
100
AcDbEntity
  8
A-WINDOW
370
25
100
AcDbLine
 10
5970.56
 20
117.84
 30
0.0
 11
8965.66
 21
117.84
 31
0.0
  0
LINE
  5
83
330
17
100
AcDbEntity
  8
A-WINDOW
100
AcDbLine
 10
5970.56
 20
162.84
 30
0.0
 11
8965.66
 21
162.84
 31
0.0
  0
LINE
  5
84
330
17
100
AcDbEntity
  8
A-WINDOW
100
AcDbLine
 10
5970.56
 20
72.84
 30
0.0
 11
8965.66
 21
72.84
 31
0.0
  0
LINE
  5
85
330
17
100
AcDbEntity
  8
A-WINDOW
370
25
100
AcDbLine
 10
9427.2
 20
117.84
 30
0.0
 11
12353.56
 21
117.84
 31
0.0
  0
LINE
  5
86
330
17
100
AcDbEntity
  8
A-WINDOW
100
AcDbLine
 10
9427.2
 20
162.84
 30
0.0
 11
12353.56
 21
162.84
 31
0.0
  0
LINE
  5
87
330
17
100
AcDbEntity
  8
A-WINDOW
100
AcDbLine
 10
9427.2
 20
72.84
 30
0.0
 11
12353.56
 21
72.84
 31
0.0
  0
LINE
  5
88
330
17
100
AcDbEntity
  8
A-WINDOW
370
25
100
AcDbLine
 10
10163.7
 20
1934.54
 30
0.0
 11
11567.960000000001
 21
1934.54
 31
0.0
  0
LINE
  5
89
330
17
100
AcDbEntity
  8
A-WINDOW
100
AcDbLine
 10
10163.7
 20
1979.54
 30
0.0
 11
11567.960000000001
 21
1979.54
 31
0.0
  0
LINE
  5
8A
330
17
100
AcDbEntity
  8
A-WINDOW
100
AcDbLine
 10
10163.7
 20
1889.54
 30
0.0
 11
11567.960000000001
 21
1889.54
 31
0.0
  0
LINE
  5
8B
330
17
100
AcDbEntity
  8
A-WINDOW
370
25
100
AcDbLine
 10
9171.880000000001
 20
1826.52
 30
0.0
 11
9171.880000000001
 21
225.86
 31
0.0
  0
LINE
  5
8C
330
17
100
AcDbEntity
  8
A-WINDOW
100
AcDbLine
 10
9216.880000000001
 20
1826.52
 30
0.0
 11
9216.880000000001
 21
225.86
 31
0.0
  0
LINE
  5
8D
330
17
100
AcDbEntity
  8
A-WINDOW
100
AcDbLine
 10
9126.880000000001
 20
1826.52
 30
0.0
 11
9126.880000000001
 21
225.86
 31
0.0
  0
LINE
  5
8E
330
17
100
AcDbEntity
  8
A-WINDOW
370
25
100
AcDbLine
 10
3849.44
 20
10026.220000000001
 30
0.0
 11
5567.9400000000005
 21
10026.220000000001
 31
0.0
  0
LINE
  5
8F
330
17
100
AcDbEntity
  8
A-WINDOW
100
AcDbLine
 10
3849.44
 20
10071.220000000001
 30
0.0
 11
5567.9400000000005
 21
10071.220000000001
 31
0.0
  0
LINE
  5
90
330
17
100
AcDbEntity
  8
A-WINDOW
100
AcDbLine
 10
3849.44
 20
9981.220000000001
 30
0.0
 11
5567.9400000000005
 21
9981.220000000001
 31
0.0
  0
LINE
  5
91
330
17
100
AcDbEntity
  8
A-DOOR
370
35
100
AcDbLine
 10
9427.2
 20
6510.66
 30
0.0
 11
8631.78
 21
6510.66
 31
0.0
  0
ARC
  5
92
330
17
100
AcDbEntity
  8
A-DOOR
100
AcDbCircle
 10
9427.2
 20
6510.66
 30
0.0
 40
795.4200000000001
100
AcDbArc
 50
180.0
 51
-90.0
  0
LINE
  5
93
330
17
100
AcDbEntity
  8
A-DOOR
370
35
100
AcDbLine
 10
5882.18
 20
6824.900000000001
 30
0.0
 11
5882.18
 21
7620.320000000001
 31
0.0
  0
ARC
  5
94
330
17
100
AcDbEntity
  8
A-DOOR
100
AcDbCircle
 10
5882.18
 20
6824.900000000001
 30
0.0
 40
795.4200000000001
100
AcDbArc
 50
0.0
 51
90.0
  0
LINE
  5
95
330
17
100
AcDbEntity
  8
A-DOOR
370
35
100
AcDbLine
 10
9348.64
 20
5302.8
 30
0.0
 11
10163.7
 21
5302.8
 31
0.0
  0
ARC
  5
96
330
17
100
AcDbEntity
  8
A-DOOR
100
AcDbCircle
 10
9348.64
 20
5302.8
 30
0.0
 40
815.0600000000013
100
AcDbArc
 50
-90.0
 51
0.0
  0
LINE
  5
97
330
17
100
AcDbEntity
  8
A-DOOR
370
35
100
AcDbLine
 10
5410.82
 20
5459.92
 30
0.0
 11
5410.82
 21
4644.860000000001
 31
0.0
  0
ARC
  5
98
330
17
100
AcDbEntity
  8
A-DOOR
100
AcDbCircle
 10
5410.82
 20
5459.92
 30
0.0
 40
815.0599999999995
100
AcDbArc
 50
180.0
 51
-90.0
  0
LINE
  5
99
330
17
100
AcDbEntity
  8
A-DOOR
370
35
100
AcDbLine
 10
2238.96
 20
2415.7200000000003
 30
0.0
 11
2238.96
 21
3279.88
 31
0.0
  0
ARC
  5
9A
330
17
100
AcDbEntity
  8
A-DOOR
100
AcDbCircle
 10
2238.96
 20
2415.7200000000003
 30
0.0
 40
864.1599999999999
100
AcDbArc
 50
90.0
 51
180.0
  0
LINE
  5
9B
330
17
100
AcDbEntity
  8
A-DOOR
370
35
100
AcDbLine
 10
1855.98
 20
4851.08
 30
0.0
 11
1855.98
 21
5577.76
 31
0.0
  0
ARC
  5
9C
330
17
100
AcDbEntity
  8
A-DOOR
100
AcDbCircle
 10
1855.98
 20
4851.08
 30
0.0
 40
726.6800000000003
100
AcDbArc
 50
90.0
 51
180.0
  0
LINE
  5
9D
330
17
100
AcDbEntity
  8
A-DOOR
370
35
100
AcDbLine
 10
3731.6
 20
6874.0
 30
0.0
 11
2985.28
 21
6874.0
 31
0.0
  0
ARC
  5
9E
330
17
100
AcDbEntity
  8
A-DOOR
100
AcDbCircle
 10
3731.6
 20
6874.0
 30
0.0
 40
746.3199999999997
100
AcDbArc
 50
90.0
 51
180.0
  0
TEXT
  5
9F
330
17
100
AcDbEntity
  8
A-TEXT
420
1184274
100
AcDbText
 10
3928.0
 20
10487.76
 30
0.0
 40
200.0
  1
厨房
  7
CN
 72
1
 11
3928.0
 21
10487.76
 31
0.0
100
AcDbText
 73
2
  0
TEXT
  5
A0
330
17
100
AcDbEntity
  8
A-TEXT
420
1184274
100
AcDbText
 10
3044.2000000000003
 20
7954.2
 30
0.0
 40
200.0
  1
次卫
  7
CN
 72
1
 11
3044.2000000000003
 21
7954.2
 31
0.0
100
AcDbText
 73
2
  0
TEXT
  5
A1
330
17
100
AcDbEntity
  8
A-TEXT
420
1184274
100
AcDbText
 10
1551.56
 20
6147.320000000001
 30
0.0
 40
200.0
  1
主卫
  7
CN
 72
1
 11
1551.56
 21
6147.320000000001
 31
0.0
100
AcDbText
 73
2
  0
TEXT
  5
A2
330
17
100
AcDbEntity
  8
A-TEXT
420
1184274
100
AcDbText
 10
1453.3600000000001
 20
3810.1600000000003
 30
0.0
 40
200.0
  1
衣帽区
  7
CN
 72
1
 11
1453.3600000000001
 21
3810.1600000000003
 31
0.0
100
AcDbText
 73
2
  0
TEXT
  5
A3
330
17
100
AcDbEntity
  8
A-TEXT
420
1184274
100
AcDbText
 10
3662.86
 20
4919.82
 30
0.0
 40
200.0
  1
夫妻主卧
  7
CN
 72
1
 11
3662.86
 21
4919.82
 31
0.0
100
AcDbText
 73
2
  0
TEXT
  5
A4
330
17
100
AcDbEntity
  8
A-TEXT
420
1184274
100
AcDbText
 10
7296.26
 20
7198.06
 30
0.0
 40
200.0
  1
老人房
  7
CN
 72
1
 11
7296.26
 21
7198.06
 31
0.0
100
AcDbText
 73
2
  0
TEXT
  5
A5
330
17
100
AcDbEntity
  8
A-TEXT
420
1184274
100
AcDbText
 10
10458.300000000001
 20
4320.8
 30
0.0
 40
200.0
  1
儿童房
  7
CN
 72
1
 11
10458.300000000001
 21
4320.8
 31
0.0
100
AcDbText
 73
2
  0
TEXT
  5
A6
330
17
100
AcDbEntity
  8
A-TEXT
420
1184274
100
AcDbText
 10
7365.0
 20
3427.1800000000003
 30
0.0
 40
200.0
  1
餐区
  7
CN
 72
1
 11
7365.0
 21
3427.1800000000003
 31
0.0
100
AcDbText
 73
2
  0
TEXT
  5
A7
330
17
100
AcDbEntity
  8
A-TEXT
420
1184274
100
AcDbText
 10
7168.6
 20
2474.64
 30
0.0
 40
200.0
  1
客厅
  7
CN
 72
1
 11
7168.6
 21
2474.64
 31
0.0
100
AcDbText
 73
2
  0
TEXT
  5
A8
330
17
100
AcDbEntity
  8
A-TEXT
420
1184274
100
AcDbText
 10
3751.2400000000002
 20
1561.38
 30
0.0
 40
200.0
  1
主卧窗边区
  7
CN
 72
1
 11
3751.2400000000002
 21
1561.38
 31
0.0
100
AcDbText
 73
2
  0
TEXT
  5
A9
330
17
100
AcDbEntity
  8
A-TEXT
420
1184274
100
AcDbText
 10
10477.94
 20
1522.1000000000001
 30
0.0
 40
200.0
  1
儿童窗边区
  7
CN
 72
1
 11
10477.94
 21
1522.1000000000001
 31
0.0
100
AcDbText
 73
2
  0
DIMENSION
  5
AA
330
17
100
AcDbEntity
  8
A-DIMS
420
1184274
100
AcDbDimension
280
0
  2
*D1
  3
ARCH
 10
0.0
 20
12205.44
 30
0.0
 11
6309.35
 21
12205.44
 31
0.0
 70
32
 71
5
  1
<>
100
AcDbAlignedDimension
 13
0.0
 23
11705.44
 33
0.0
 14
12618.7
 24
11705.44
 34
0.0
 50
0.0
100
AcDbRotatedDimension
  0
DIMENSION
  5
BE
330
17
100
AcDbEntity
  8
A-DIMS
420
1184274
100
AcDbDimension
280
0
  2
*D2
  3
ARCH
 10
-500.0
 20
0.0
 30
0.0
 11
-500.0
 21
5852.72
 31
0.0
 70
32
 71
5
  1
<>
100
AcDbAlignedDimension
 13
0.0
 23
0.0
 33
0.0
 14
0.0
 24
11705.44
 34
0.0
 50
90.0
100
AcDbRotatedDimension
  0
LWPOLYLINE
  5
CE
330
17
100
AcDbEntity
  8
A-FRAME
370
70
420
1184274
100
AcDbPolyline
 90
4
 70
1
 10
-1500.0
 20
-5200.0
 10
14118.7
 20
-5200.0
 10
14118.7
 20
13205.44
 10
-1500.0
 20
13205.44
  0
LWPOLYLINE
  5
CF
330
17
100
AcDbEntity
  8
A-FRAME
420
1184274
100
AcDbPolyline
 90
4
 70
1
 10
7918.700000000001
 20
-5200.0
 10
14118.7
 20
-5200.0
 10
14118.7
 20
-2800.0
 10
7918.700000000001
 20
-2800.0
  0
TEXT
  5
D0
330
17
100
AcDbEntity
  8
A-TEXT
420
1184274
100
AcDbText
 10
8168.700000000001
 20
-3150.0
 30
0.0
 40
300.0
  1
学道街44号室内设计
  7
CN
 11
8168.700000000001
 21
-3150.0
 31
0.0
100
AcDbText
  0
TEXT
  5
D1
330
17
100
AcDbEntity
  8
A-TEXT
420
1184274
100
AcDbText
 10
8168.700000000001
 20
-3550.0
 30
0.0
 40
240.0
  1
原始结构暨拆改说明图
  7
CN
 11
8168.700000000001
 21
-3550.0
 31
0.0
100
AcDbText
  0
TEXT
  5
D2
330
17
100
AcDbEntity
  8
A-TEXT
420
1184274
100
AcDbText
 10
8168.700000000001
 20
-3950.0
 30
0.0
 40
180.0
  1
图号 A102   建议比例 1:50   版本 v1
  7
CN
 11
8168.700000000001
 21
-3950.0
 31
0.0
100
AcDbText
  0
TEXT
  5
D3
330
17
100
AcDbEntity
  8
A-TEXT
420
1184274
100
AcDbText
 10
8168.700000000001
 20
-4300.0
 30
0.0
 40
150.0
  1
几何：A7 PNG 锁定平面，9.82mm/px 标定
  7
CN
 11
8168.700000000001
 21
-4300.0
 31
0.0
100
AcDbText
  0
TEXT
  5
D4
330
17
100
AcDbEntity
  8
A-TEXT
420
1184274
100
AcDbText
 10
8168.700000000001
 20
-4650.0
 30
0.0
 40
150.0
  1
无拆改；尺寸为图像标定，施工前现场复尺
  7
CN
 11
8168.700000000001
 21
-4650.0
 31
0.0
100
AcDbText
  0
TEXT
  5
D5
330
17
100
AcDbEntity
  8
A-TEXT
420
1184274
100
AcDbText
 10
8168.700000000001
 20
-5000.0
 30
0.0
 40
150.0
  1
门洞/窗洞均维持原状。图示为原始结构确认。
  7
CN
 11
8168.700000000001
 21
-5000.0
 31
0.0
100
AcDbText
  0
TEXT
  5
D6
330
17
100
AcDbEntity
  8
A-TEXT
420
1184274
100
AcDbText
 10
-1250.0
 20
-5000.0
 30
0.0
 40
150.0
  1
本设计完全无拆改：不拆除任何墙体，不新建墙体，
  7
CN
 11
-1250.0
 21
-5000.0
 31
0.0
100
AcDbText
  0
ENDSEC
  0
SECTION
  2
OBJECTS
  0
DICTIONARY
  5
A
330
0
100
AcDbDictionary
281
1
  3
ACAD_COLOR
350
B
  3
ACAD_GROUP
350
C
  3
ACAD_LAYOUT
350
D
  3
ACAD_MATERIAL
350
E
  3
ACAD_MLEADERSTYLE
350
F
  3
ACAD_MLINESTYLE
350
10
  3
ACAD_PLOTSETTINGS
350
11
  3
ACAD_PLOTSTYLENAME
350
12
  3
ACAD_SCALELIST
350
14
  3
ACAD_TABLESTYLE
350
15
  3
ACAD_VISUALSTYLE
350
16
  3
EZDXF_META
350
2D
  0
DICTIONARY
  5
B
330
A
100
AcDbDictionary
281
1
  0
DICTIONARY
  5
C
330
A
100
AcDbDictionary
281
1
  0
DICTIONARY
  5
D
330
A
100
AcDbDictionary
281
1
  3
Model
350
1A
  3
Layout1
350
1E
  0
DICTIONARY
  5
E
330
A
100
AcDbDictionary
281
1
  3
ByBlock
350
1F
  3
ByLayer
350
20
  3
Global
350
21
  0
DICTIONARY
  5
F
330
A
100
AcDbDictionary
281
1
  3
Standard
350
2C
  0
DICTIONARY
  5
10
330
A
100
AcDbDictionary
281
1
  3
Standard
350
22
  0
DICTIONARY
  5
11
330
A
100
AcDbDictionary
281
1
  0
ACDBDICTIONARYWDFLT
  5
12
330
A
100
AcDbDictionary
281
1
  3
Normal
350
13
100
AcDbDictionaryWithDefault
340
13
  0
ACDBPLACEHOLDER
  5
13
330
12
  0
DICTIONARY
  5
14
330
A
100
AcDbDictionary
281
1
  0
DICTIONARY
  5
15
330
A
100
AcDbDictionary
281
1
  0
DICTIONARY
  5
16
330
A
100
AcDbDictionary
281
1
  0
LAYOUT
  5
1A
330
D
100
AcDbPlotSettings
  1

  4
A3
  6

 40
7.5
 41
20.0
 42
7.5
 43
20.0
 44
420.0
 45
297.0
 46
0.0
 47
0.0
 48
0.0
 49
0.0
140
0.0
141
0.0
142
1.0
143
1.0
 70
1024
 72
1
 73
0
 74
5
  7

 75
16
 76
0
 77
2
 78
300
147
1.0
148
0.0
149
0.0
100
AcDbLayout
  1
Model
 70
1
 71
0
 10
0.0
 20
0.0
 11
420.0
 21
297.0
 12
0.0
 22
0.0
 32
0.0
 14
1e+20
 24
1e+20
 34
1e+20
 15
-1e+20
 25
-1e+20
 35
-1e+20
146
0.0
 13
0.0
 23
0.0
 33
0.0
 16
1.0
 26
0.0
 36
0.0
 17
0.0
 27
1.0
 37
0.0
 76
1
330
17
  0
LAYOUT
  5
1E
330
D
100
AcDbPlotSettings
  1

  4
A3
  6

 40
7.5
 41
20.0
 42
7.5
 43
20.0
 44
420.0
 45
297.0
 46
0.0
 47
0.0
 48
0.0
 49
0.0
140
0.0
141
0.0
142
1.0
143
1.0
 70
0
 72
1
 73
0
 74
5
  7

 75
16
 76
0
 77
2
 78
300
147
1.0
148
0.0
149
0.0
100
AcDbLayout
  1
Layout1
 70
1
 71
1
 10
0.0
 20
0.0
 11
420.0
 21
297.0
 12
0.0
 22
0.0
 32
0.0
 14
1e+20
 24
1e+20
 34
1e+20
 15
-1e+20
 25
-1e+20
 35
-1e+20
146
0.0
 13
0.0
 23
0.0
 33
0.0
 16
1.0
 26
0.0
 36
0.0
 17
0.0
 27
1.0
 37
0.0
 76
1
330
1B
  0
MATERIAL
  5
1F
102
{ACAD_REACTORS
330
E
102
}
330
E
100
AcDbMaterial
  1
ByBlock
  2

 70
0
 40
1.0
 71
1
 41
1.0
 91
-1023410177
 42
1.0
 72
1
  3

 73
1
 74
1
 75
1
 44
0.5
 73
0
 45
1.0
 46
1.0
 77
1
  4

 78
1
 79
1
170
1
 48
1.0
171
1
  6

172
1
173
1
174
1
140
1.0
141
1.0
175
1
  7

176
1
177
1
178
1
143
1.0
179
1
  8

270
1
271
1
272
1
145
1.0
146
1.0
273
1
  9

274
1
275
1
276
1
 42
1.0
 72
1
  3

 73
1
 74
1
 75
1
 94
63
  0
MATERIAL
  5
20
102
{ACAD_REACTORS
330
E
102
}
330
E
100
AcDbMaterial
  1
ByLayer
  2

 70
0
 40
1.0
 71
1
 41
1.0
 91
-1023410177
 42
1.0
 72
1
  3

 73
1
 74
1
 75
1
 44
0.5
 73
0
 45
1.0
 46
1.0
 77
1
  4

 78
1
 79
1
170
1
 48
1.0
171
1
  6

172
1
173
1
174
1
140
1.0
141
1.0
175
1
  7

176
1
177
1
178
1
143
1.0
179
1
  8

270
1
271
1
272
1
145
1.0
146
1.0
273
1
  9

274
1
275
1
276
1
 42
1.0
 72
1
  3

 73
1
 74
1
 75
1
 94
63
  0
MATERIAL
  5
21
102
{ACAD_REACTORS
330
E
102
}
330
E
100
AcDbMaterial
  1
Global
  2

 70
0
 40
1.0
 71
1
 41
1.0
 91
-1023410177
 42
1.0
 72
1
  3

 73
1
 74
1
 75
1
 44
0.5
 73
0
 45
1.0
 46
1.0
 77
1
  4

 78
1
 79
1
170
1
 48
1.0
171
1
  6

172
1
173
1
174
1
140
1.0
141
1.0
175
1
  7

176
1
177
1
178
1
143
1.0
179
1
  8

270
1
271
1
272
1
145
1.0
146
1.0
273
1
  9

274
1
275
1
276
1
 42
1.0
 72
1
  3

 73
1
 74
1
 75
1
 94
63
  0
MLINESTYLE
  5
22
102
{ACAD_REACTORS
330
10
102
}
330
10
100
AcDbMlineStyle
  2
Standard
 70
0
  3

 62
256
 51
90.0
 52
90.0
 71
2
 49
0.5
 62
256
  6
BYLAYER
 49
-0.5
 62
256
  6
BYLAYER
  0
MLEADERSTYLE
  5
2C
102
{ACAD_REACTORS
330
F
102
}
330
F
100
AcDbMLeaderStyle
179
2
170
2
171
1
172
0
 90
2
 40
0.0
 41
0.0
173
1
 91
-1056964608
 92
-2
290
1
 42
2.0
291
1
 43
8.0
  3
Standard
 44
4.0
300

342
29
174
1
175
1
176
0
178
1
 93
-1056964608
 45
4.0
292
0
297
0
 46
4.0
 94
-1056964608
 47
1.0
 49
1.0
140
1.0
294
1
141
0.0
177
0
142
1.0
295
0
296
0
143
3.75
271
0
272
9
273
9
  0
DICTIONARY
  5
2D
330
A
100
AcDbDictionary
280
1
281
1
  3
CREATED_BY_EZDXF
350
2E
  3
WRITTEN_BY_EZDXF
350
D9
  0
DICTIONARYVAR
  5
2E
330
2D
100
DictionaryVariables
280
0
  1
1.4.4 @ 2026-09-14T13:13:23.423730+00:00
  0
DICTIONARYVAR
  5
D9
330
2D
100
DictionaryVariables
280
0
  1
1.4.4 @ 2026-09-14T13:13:23.426863+00:00
  0
ENDSEC
  0
EOF
