  0
SECTION
  2
HEADER
  9
$ACADVER
  1
AC1032
  9
$ACADMAINTVER
 90
4
  9
$DWGCODEPAGE
  3
ANSI_1252
  9
$LASTSAVEDBY
  1
ezdxf
  9
$REQUIREDVERSIONS
160
0
  9
$INSBASE
 10
0.0
 20
0.0
 30
0.0
  9
$EXTMIN
 10
1e+20
 20
1e+20
 30
1e+20
  9
$EXTMAX
 10
-1e+20
 20
-1e+20
 30
-1e+20
  9
$LIMMIN
 10
0.0
 20
0.0
  9
$LIMMAX
 10
420.0
 20
297.0
  9
$ORTHOMODE
 70
0
  9
$REGENMODE
 70
1
  9
$FILLMODE
 70
1
  9
$QTEXTMODE
 70
0
  9
$MIRRTEXT
 70
1
  9
$LTSCALE
 40
1.0
  9
$ATTMODE
 70
1
  9
$TEXTSIZE
 40
2.5
  9
$TRACEWID
 40
1.0
  9
$TEXTSTYLE
  7
Standard
  9
$CLAYER
  8
0
  9
$CELTYPE
  6
ByLayer
  9
$CECOLOR
 62
256
  9
$CELTSCALE
 40
1.0
  9
$DISPSILH
 70
0
  9
$DIMSCALE
 40
1.0
  9
$DIMASZ
 40
2.5
  9
$DIMEXO
 40
0.625
  9
$DIMDLI
 40
3.75
  9
$DIMRND
 40
0.0
  9
$DIMDLE
 40
0.0
  9
$DIMEXE
 40
1.25
  9
$DIMTP
 40
0.0
  9
$DIMTM
 40
0.0
  9
$DIMTXT
 40
2.5
  9
$DIMCEN
 40
2.5
  9
$DIMTSZ
 40
0.0
  9
$DIMTOL
 70
0
  9
$DIMLIM
 70
0
  9
$DIMTIH
 70
0
  9
$DIMTOH
 70
0
  9
$DIMSE1
 70
0
  9
$DIMSE2
 70
0
  9
$DIMTAD
 70
1
  9
$DIMZIN
 70
8
  9
$DIMBLK
  1

  9
$DIMASO
 70
1
  9
$DIMSHO
 70
1
  9
$DIMPOST
  1

  9
$DIMAPOST
  1

  9
$DIMALT
 70
0
  9
$DIMALTD
 70
3
  9
$DIMALTF
 40
0.03937007874
  9
$DIMLFAC
 40
1.0
  9
$DIMTOFL
 70
1
  9
$DIMTVP
 40
0.0
  9
$DIMTIX
 70
0
  9
$DIMSOXD
 70
0
  9
$DIMSAH
 70
0
  9
$DIMBLK1
  1

  9
$DIMBLK2
  1

  9
$DIMSTYLE
  2
ISO-25
  9
$DIMCLRD
 70
0
  9
$DIMCLRE
 70
0
  9
$DIMCLRT
 70
0
  9
$DIMTFAC
 40
1.0
  9
$DIMGAP
 40
0.625
  9
$DIMJUST
 70
0
  9
$DIMSD1
 70
0
  9
$DIMSD2
 70
0
  9
$DIMTOLJ
 70
0
  9
$DIMTZIN
 70
8
  9
$DIMALTZ
 70
0
  9
$DIMALTTZ
 70
0
  9
$DIMUPT
 70
0
  9
$DIMDEC
 70
2
  9
$DIMTDEC
 70
2
  9
$DIMALTU
 70
2
  9
$DIMALTTD
 70
3
  9
$DIMTXSTY
  7
Standard
  9
$DIMAUNIT
 70
0
  9
$DIMADEC
 70
0
  9
$DIMALTRND
 40
0.0
  9
$DIMAZIN
 70
0
  9
$DIMDSEP
 70
44
  9
$DIMATFIT
 70
3
  9
$DIMFRAC
 70
0
  9
$DIMLDRBLK
  1

  9
$DIMLUNIT
 70
2
  9
$DIMLWD
 70
-2
  9
$DIMLWE
 70
-2
  9
$DIMTMOVE
 70
0
  9
$DIMFXL
 40
1.0
  9
$DIMFXLON
 70
0
  9
$DIMJOGANG
 40
0.785398163397
  9
$DIMTFILL
 70
0
  9
$DIMTFILLCLR
 70
0
  9
$DIMARCSYM
 70
0
  9
$DIMLTYPE
  6

  9
$DIMLTEX1
  6

  9
$DIMLTEX2
  6

  9
$DIMTXTDIRECTION
 70
0
  9
$LUNITS
 70
2
  9
$LUPREC
 70
4
  9
$SKETCHINC
 40
1.0
  9
$FILLETRAD
 40
10.0
  9
$AUNITS
 70
0
  9
$AUPREC
 70
2
  9
$MENU
  1
.
  9
$ELEVATION
 40
0.0
  9
$PELEVATION
 40
0.0
  9
$THICKNESS
 40
0.0
  9
$LIMCHECK
 70
0
  9
$CHAMFERA
 40
0.0
  9
$CHAMFERB
 40
0.0
  9
$CHAMFERC
 40
0.0
  9
$CHAMFERD
 40
0.0
  9
$SKPOLY
 70
0
  9
$TDCREATE
 40
2461298.927407407
  9
$TDUCREATE
 40
2458532.153996898
  9
$TDUPDATE
 40
2461298.927407407
  9
$TDUUPDATE
 40
2458532.1544311
  9
$TDINDWG
 40
0.0
  9
$TDUSRTIMER
 40
0.0
  9
$USRTIMER
 70
1
  9
$ANGBASE
 50
0.0
  9
$ANGDIR
 70
0
  9
$PDMODE
 70
0
  9
$PDSIZE
 40
0.0
  9
$PLINEWID
 40
0.0
  9
$SPLFRAME
 70
0
  9
$SPLINETYPE
 70
6
  9
$SPLINESEGS
 70
8
  9
$HANDSEED
  5
82
  9
$SURFTAB1
 70
6
  9
$SURFTAB2
 70
6
  9
$SURFTYPE
 70
6
  9
$SURFU
 70
6
  9
$SURFV
 70
6
  9
$UCSBASE
  2

  9
$UCSNAME
  2

  9
$UCSORG
 10
0.0
 20
0.0
 30
0.0
  9
$UCSXDIR
 10
1.0
 20
0.0
 30
0.0
  9
$UCSYDIR
 10
0.0
 20
1.0
 30
0.0
  9
$UCSORTHOREF
  2

  9
$UCSORTHOVIEW
 70
0
  9
$UCSORGTOP
 10
0.0
 20
0.0
 30
0.0
  9
$UCSORGBOTTOM
 10
0.0
 20
0.0
 30
0.0
  9
$UCSORGLEFT
 10
0.0
 20
0.0
 30
0.0
  9
$UCSORGRIGHT
 10
0.0
 20
0.0
 30
0.0
  9
$UCSORGFRONT
 10
0.0
 20
0.0
 30
0.0
  9
$UCSORGBACK
 10
0.0
 20
0.0
 30
0.0
  9
$PUCSBASE
  2

  9
$PUCSNAME
  2

  9
$PUCSORG
 10
0.0
 20
0.0
 30
0.0
  9
$PUCSXDIR
 10
1.0
 20
0.0
 30
0.0
  9
$PUCSYDIR
 10
0.0
 20
1.0
 30
0.0
  9
$PUCSORTHOREF
  2

  9
$PUCSORTHOVIEW
 70
0
  9
$PUCSORGTOP
 10
0.0
 20
0.0
 30
0.0
  9
$PUCSORGBOTTOM
 10
0.0
 20
0.0
 30
0.0
  9
$PUCSORGLEFT
 10
0.0
 20
0.0
 30
0.0
  9
$PUCSORGRIGHT
 10
0.0
 20
0.0
 30
0.0
  9
$PUCSORGFRONT
 10
0.0
 20
0.0
 30
0.0
  9
$PUCSORGBACK
 10
0.0
 20
0.0
 30
0.0
  9
$USERI1
 70
0
  9
$USERI2
 70
0
  9
$USERI3
 70
0
  9
$USERI4
 70
0
  9
$USERI5
 70
0
  9
$USERR1
 40
0.0
  9
$USERR2
 40
0.0
  9
$USERR3
 40
0.0
  9
$USERR4
 40
0.0
  9
$USERR5
 40
0.0
  9
$WORLDVIEW
 70
1
  9
$SHADEDGE
 70
3
  9
$SHADEDIF
 70
70
  9
$TILEMODE
 70
1
  9
$MAXACTVP
 70
64
  9
$PINSBASE
 10
0.0
 20
0.0
 30
0.0
  9
$PLIMCHECK
 70
0
  9
$PEXTMIN
 10
1e+20
 20
1e+20
 30
1e+20
  9
$PEXTMAX
 10
-1e+20
 20
-1e+20
 30
-1e+20
  9
$PLIMMIN
 10
0.0
 20
0.0
  9
$PLIMMAX
 10
420.0
 20
297.0
  9
$UNITMODE
 70
0
  9
$VISRETAIN
 70
1
  9
$PLINEGEN
 70
0
  9
$PSLTSCALE
 70
1
  9
$TREEDEPTH
 70
3020
  9
$CMLSTYLE
  2
Standard
  9
$CMLJUST
 70
0
  9
$CMLSCALE
 40
20.0
  9
$PROXYGRAPHICS
 70
1
  9
$MEASUREMENT
 70
1
  9
$CELWEIGHT
370
-1
  9
$ENDCAPS
280
0
  9
$JOINSTYLE
280
0
  9
$LWDISPLAY
290
0
  9
$INSUNITS
 70
4
  9
$HYPERLINKBASE
  1

  9
$STYLESHEET
  1

  9
$XEDIT
290
1
  9
$CEPSNTYPE
380
0
  9
$PSTYLEMODE
290
1
  9
$FINGERPRINTGUID
  2
{14CC7C00-41ED-4107-AA5A-4C27CDB9B1A9}
  9
$VERSIONGUID
  2
{221BC8D8-EE26-40C7-8595-1B9EC4BF5C4B}
  9
$EXTNAMES
290
1
  9
$PSVPSCALE
 40
0.0
  9
$OLESTARTUP
290
0
  9
$SORTENTS
280
127
  9
$INDEXCTL
280
0
  9
$HIDETEXT
280
1
  9
$XCLIPFRAME
280
1
  9
$HALOGAP
280
0
  9
$OBSCOLOR
 70
257
  9
$OBSLTYPE
280
0
  9
$INTERSECTIONDISPLAY
280
0
  9
$INTERSECTIONCOLOR
 70
257
  9
$DIMASSOC
280
2
  9
$PROJECTNAME
  1

  9
$CAMERADISPLAY
290
0
  9
$LENSLENGTH
 40
50.0
  9
$CAMERAHEIGHT
 40
0.0
  9
$STEPSPERSEC
 40
24.0
  9
$STEPSIZE
 40
100.0
  9
$3DDWFPREC
 40
2.0
  9
$PSOLWIDTH
 40
0.005
  9
$PSOLHEIGHT
 40
0.08
  9
$LOFTANG1
 40
1.570796326795
  9
$LOFTANG2
 40
1.570796326795
  9
$LOFTMAG1
 40
0.0
  9
$LOFTMAG2
 40
0.0
  9
$LOFTPARAM
 70
7
  9
$LOFTNORMALS
280
1
  9
$LATITUDE
 40
37.795
  9
$LONGITUDE
 40
-122.394
  9
$NORTHDIRECTION
 40
0.0
  9
$TIMEZONE
 70
-8000
  9
$LIGHTGLYPHDISPLAY
280
1
  9
$TILEMODELIGHTSYNCH
280
1
  9
$CMATERIAL
347
20
  9
$SOLIDHIST
280
0
  9
$SHOWHIST
280
1
  9
$DWFFRAME
280
2
  9
$DGNFRAME
280
2
  9
$REALWORLDSCALE
290
1
  9
$INTERFERECOLOR
 62
256
  9
$CSHADOW
280
0
  9
$SHADOWPLANELOCATION
 40
0.0
  0
ENDSEC
  0
SECTION
  2
CLASSES
  0
CLASS
  1
ACDBDICTIONARYWDFLT
  2
AcDbDictionaryWithDefault
  3
ObjectDBX Classes
 90
0
 91
0
280
0
281
0
  0
CLASS
  1
SUN
  2
AcDbSun
  3
SCENEOE
 90
1153
 91
0
280
0
281
0
  0
CLASS
  1
VISUALSTYLE
  2
AcDbVisualStyle
  3
ObjectDBX Classes
 90
4095
 91
0
280
0
281
0
  0
CLASS
  1
MATERIAL
  2
AcDbMaterial
  3
ObjectDBX Classes
 90
1153
 91
0
280
0
281
0
  0
CLASS
  1
SCALE
  2
AcDbScale
  3
ObjectDBX Classes
 90
1153
 91
0
280
0
281
0
  0
CLASS
  1
TABLESTYLE
  2
AcDbTableStyle
  3
ObjectDBX Classes
 90
4095
 91
0
280
0
281
0
  0
CLASS
  1
MLEADERSTYLE
  2
AcDbMLeaderStyle
  3
ACDB_MLEADERSTYLE_CLASS
 90
4095
 91
0
280
0
281
0
  0
CLASS
  1
DICTIONARYVAR
  2
AcDbDictionaryVar
  3
ObjectDBX Classes
 90
0
 91
0
280
0
281
0
  0
CLASS
  1
CELLSTYLEMAP
  2
AcDbCellStyleMap
  3
ObjectDBX Classes
 90
1152
 91
0
280
0
281
0
  0
CLASS
  1
MENTALRAYRENDERSETTINGS
  2
AcDbMentalRayRenderSettings
  3
SCENEOE
 90
1024
 91
0
280
0
281
0
  0
CLASS
  1
ACDBDETAILVIEWSTYLE
  2
AcDbDetailViewStyle
  3
ObjectDBX Classes
 90
1025
 91
0
280
0
281
0
  0
CLASS
  1
ACDBSECTIONVIEWSTYLE
  2
AcDbSectionViewStyle
  3
ObjectDBX Classes
 90
1025
 91
0
280
0
281
0
  0
CLASS
  1
RASTERVARIABLES
  2
AcDbRasterVariables
  3
ISM
 90
0
 91
0
280
0
281
0
  0
CLASS
  1
ACDBPLACEHOLDER
  2
AcDbPlaceHolder
  3
ObjectDBX Classes
 90
0
 91
0
280
0
281
0
  0
CLASS
  1
LAYOUT
  2
AcDbLayout
  3
ObjectDBX Classes
 90
0
 91
0
280
0
281
0
  0
ENDSEC
  0
SECTION
  2
TABLES
  0
TABLE
  2
VPORT
  5
8
330
0
100
AcDbSymbolTable
 70
1
  0
VPORT
  5
23
330
8
100
AcDbSymbolTableRecord
100
AcDbViewportTableRecord
  2
*Active
 70
0
 10
0.0
 20
0.0
 11
1.0
 21
1.0
 12
0.0
 22
0.0
 13
0.0
 23
0.0
 14
0.5
 24
0.5
 15
0.5
 25
0.5
 16
0.0
 26
0.0
 36
1.0
 17
0.0
 27
0.0
 37
0.0
 40
1000.0
 41
1.34
 42
50.0
 43
0.0
 44
0.0
 50
0.0
 51
0.0
 71
0
 72
1000
 73
1
 74
3
 75
0
 76
0
 77
0
 78
0
281
0
 65
0
146
0.0
  0
ENDTAB
  0
TABLE
  2
LTYPE
  5
2
330
0
100
AcDbSymbolTable
 70
3
  0
LTYPE
  5
24
330
2
100
AcDbSymbolTableRecord
100
AcDbLinetypeTableRecord
  2
ByBlock
 70
0
  3

 72
65
 73
0
 40
0.0
  0
LTYPE
  5
25
330
2
100
AcDbSymbolTableRecord
100
AcDbLinetypeTableRecord
  2
ByLayer
 70
0
  3

 72
65
 73
0
 40
0.0
  0
LTYPE
  5
26
330
2
100
AcDbSymbolTableRecord
100
AcDbLinetypeTableRecord
  2
Continuous
 70
0
  3

 72
65
 73
0
 40
0.0
  0
ENDTAB
  0
TABLE
  2
LAYER
  5
1
330
0
100
AcDbSymbolTable
 70
15
  0
LAYER
  5
27
330
1
100
AcDbSymbolTableRecord
100
AcDbLayerTableRecord
  2
0
 70
0
 62
7
  6
Continuous
370
-3
390
13
347
21
  0
LAYER
  5
28
330
1
100
AcDbSymbolTableRecord
100
AcDbLayerTableRecord
  2
Defpoints
 70
0
 62
7
  6
Continuous
290
0
370
-3
390
13
347
21
  0
LAYER
  5
2F
330
1
100
AcDbSymbolTableRecord
100
AcDbLayerTableRecord
  2
A-WALL
 70
0
 62
7
  6
Continuous
370
-3
390
13
347
21
  0
LAYER
  5
30
330
1
100
AcDbSymbolTableRecord
100
AcDbLayerTableRecord
  2
A-WINDOW
 70
0
 62
4
  6
Continuous
370
-3
390
13
347
21
  0
LAYER
  5
31
330
1
100
AcDbSymbolTableRecord
100
AcDbLayerTableRecord
  2
A-DOOR
 70
0
 62
3
  6
Continuous
370
-3
390
13
347
21
  0
LAYER
  5
32
330
1
100
AcDbSymbolTableRecord
100
AcDbLayerTableRecord
  2
A-FURN
 70
0
 62
30
  6
Continuous
370
-3
390
13
347
21
  0
LAYER
  5
33
330
1
100
AcDbSymbolTableRecord
100
AcDbLayerTableRecord
  2
A-FIXT
 70
0
 62
6
  6
Continuous
370
-3
390
13
347
21
  0
LAYER
  5
34
330
1
100
AcDbSymbolTableRecord
100
AcDbLayerTableRecord
  2
A-DIMS
 70
0
 62
1
  6
Continuous
370
-3
390
13
347
21
  0
LAYER
  5
35
330
1
100
AcDbSymbolTableRecord
100
AcDbLayerTableRecord
  2
A-TEXT
 70
0
 62
7
  6
Continuous
370
-3
390
13
347
21
  0
LAYER
  5
36
330
1
100
AcDbSymbolTableRecord
100
AcDbLayerTableRecord
  2
A-HATCH
 70
0
 62
8
  6
Continuous
370
-3
390
13
347
21
  0
LAYER
  5
37
330
1
100
AcDbSymbolTableRecord
100
AcDbLayerTableRecord
  2
A-FRAME
 70
0
 62
7
  6
Continuous
370
-3
390
13
347
21
  0
LAYER
  5
38
330
1
100
AcDbSymbolTableRecord
100
AcDbLayerTableRecord
  2
A-FLOR
 70
0
 62
2
  6
Continuous
370
-3
390
13
347
21
  0
LAYER
  5
39
330
1
100
AcDbSymbolTableRecord
100
AcDbLayerTableRecord
  2
A-CEIL
 70
0
 62
5
  6
Continuous
370
-3
390
13
347
21
  0
LAYER
  5
3A
330
1
100
AcDbSymbolTableRecord
100
AcDbLayerTableRecord
  2
A-ELEC
 70
0
 62
1
  6
Continuous
370
-3
390
13
347
21
  0
LAYER
  5
3B
330
1
100
AcDbSymbolTableRecord
100
AcDbLayerTableRecord
  2
A-PLUM
 70
0
 62
140
  6
Continuous
370
-3
390
13
347
21
  0
ENDTAB
  0
TABLE
  2
STYLE
  5
5
330
0
100
AcDbSymbolTable
 70
2
  0
STYLE
  5
29
330
5
100
AcDbSymbolTableRecord
100
AcDbTextStyleTableRecord
  2
Standard
 70
0
 40
0.0
 41
1.0
 50
0.0
 71
0
 42
2.5
  3
txt
  4

  0
STYLE
  5
3C
330
5
100
AcDbSymbolTableRecord
100
AcDbTextStyleTableRecord
  2
CN
 70
0
 40
0.0
 41
1.0
 50
0.0
 71
0
 42
2.5
  3
PingFang SC
  4

  0
ENDTAB
  0
TABLE
  2
VIEW
  5
7
330
0
100
AcDbSymbolTable
 70
0
  0
ENDTAB
  0
TABLE
  2
UCS
  5
6
330
0
100
AcDbSymbolTable
 70
0
  0
ENDTAB
  0
TABLE
  2
APPID
  5
3
330
0
100
AcDbSymbolTable
 70
3
  0
APPID
  5
2A
330
3
100
AcDbSymbolTableRecord
100
AcDbRegAppTableRecord
  2
ACAD
 70
0
  0
APPID
  5
7F
330
3
100
AcDbSymbolTableRecord
100
AcDbRegAppTableRecord
  2
HATCHBACKGROUNDCOLOR
 70
0
  0
APPID
  5
80
330
3
100
AcDbSymbolTableRecord
100
AcDbRegAppTableRecord
  2
EZDXF
 70
0
  0
ENDTAB
  0
TABLE
  2
DIMSTYLE
  5
4
330
0
100
AcDbSymbolTable
 70
2
100
AcDbDimStyleTable
  0
DIMSTYLE
105
2B
330
4
100
AcDbSymbolTableRecord
100
AcDbDimStyleTableRecord
  2
Standard
 70
0
 40
1.0
 41
2.5
 42
0.625
 43
3.75
 44
1.25
 45
0.0
 46
0.0
 47
0.0
 48
0.0
 49
2.5
140
2.5
141
2.5
142
0.0
143
0.03937007874
144
1.0
145
0.0
146
1.0
147
0.625
148
0.0
 69
0
 70
0
 71
0
 72
0
 73
0
 74
0
 75
0
 76
0
 77
1
 78
8
 79
3
170
0
171
3
172
1
173
0
174
0
175
0
176
0
177
0
178
0
179
2
271
2
272
2
273
2
274
3
275
0
276
0
277
2
278
44
279
0
280
0
281
0
282
0
283
0
284
8
285
0
286
0
288
0
289
3
290
0
371
-2
372
-2
  0
DIMSTYLE
105
3D
330
4
100
AcDbSymbolTableRecord
100
AcDbDimStyleTableRecord
  2
ARCH
 70
0
 40
1.0
 41
140.0
 42
60.0
 43
3.75
 44
120.0
 45
0.0
 46
0.0
 47
0.0
 48
0.0
 49
2.5
140
200.0
141
2.5
142
0.0
143
0.03937007874
144
1.0
145
0.0
146
1.0
147
60.0
148
0.0
 69
0
 70
0
 71
0
 72
0
 73
0
 74
0
 75
0
 76
0
 77
1
 78
8
 79
3
170
0
171
3
172
1
173
0
174
0
175
0
176
0
177
0
178
0
179
2
271
0
272
2
273
2
274
3
275
0
276
0
277
2
278
44
279
0
280
0
281
0
282
0
283
0
284
8
285
0
286
0
288
0
289
3
290
0
340
3C
342
82
371
-2
372
-2
  0
ENDTAB
  0
TABLE
  2
BLOCK_RECORD
  5
9
330
0
100
AcDbSymbolTable
 70
3
  0
BLOCK_RECORD
  5
17
330
9
100
AcDbSymbolTableRecord
100
AcDbBlockTableRecord
  2
*Model_Space
340
1A
 70
0
280
1
281
0
  0
BLOCK_RECORD
  5
1B
330
9
100
AcDbSymbolTableRecord
100
AcDbBlockTableRecord
  2
*Paper_Space
340
1E
 70
0
280
1
281
0
  0
BLOCK_RECORD
  5
82
330
9
100
AcDbSymbolTableRecord
100
AcDbBlockTableRecord
  2
_ARCHTICK
340
0
 70
0
280
1
281
0
  0
ENDTAB
  0
ENDSEC
  0
SECTION
  2
BLOCKS
  0
BLOCK
  5
18
330
17
100
AcDbEntity
  8
0
100
AcDbBlockBegin
  2
*Model_Space
 70
0
 10
0.0
 20
0.0
 30
0.0
  3
*Model_Space
  1

  0
ENDBLK
  5
19
330
17
100
AcDbEntity
  8
0
100
AcDbBlockEnd
  0
BLOCK
  5
1C
330
1B
100
AcDbEntity
  8
0
100
AcDbBlockBegin
  2
*Paper_Space
 70
0
 10
0.0
 20
0.0
 30
0.0
  3
*Paper_Space
  1

  0
ENDBLK
  5
1D
330
1B
100
AcDbEntity
  8
0
100
AcDbBlockEnd
  0
BLOCK
  5
83
330
82
100
AcDbEntity
  8
0
100
AcDbBlockBegin
  2
_ARCHTICK
 70
0
 10
0.0
 20
0.0
 30
0.0
  3
_ARCHTICK
  1

  0
LWPOLYLINE
  5
85
330
82
100
AcDbEntity
  8
0
  6
BYBLOCK
 62
0
100
AcDbPolyline
 90
2
 70
0
 43
0.15
 10
-0.5
 20
-0.5
 10
0.5
 20
0.5
  0
ENDBLK
  5
84
330
82
100
AcDbEntity
  8
0
100
AcDbBlockEnd
  0
ENDSEC
  0
SECTION
  2
ENTITIES
  0
LWPOLYLINE
  5
3E
330
17
100
AcDbEntity
  8
A-FURN
370
25
100
AcDbPolyline
 90
4
 70
1
 10
0.0
 20
0.0
 10
900.0
 20
0.0
 10
900.0
 20
100.0
 10
0.0
 20
100.0
  0
TEXT
  5
3F
330
17
100
AcDbEntity
  8
A-TEXT
420
1184274
100
AcDbText
 10
450.0
 20
50.0
 30
0.0
 40
85.0
  1
卫浴地砖
  7
CN
 72
1
 11
450.0
 21
50.0
 31
0.0
100
AcDbText
 73
2
  0
LWPOLYLINE
  5
40
330
17
100
AcDbEntity
  8
A-FURN
370
25
100
AcDbPolyline
 90
4
 70
1
 10
900.0
 20
0.0
 10
1200.0
 20
0.0
 10
1200.0
 20
130.0
 10
900.0
 20
130.0
  0
TEXT
  5
41
330
17
100
AcDbEntity
  8
A-TEXT
420
1184274
100
AcDbText
 10
1050.0
 20
65.0
 30
0.0
 40
85.0
  1
门槛石
  7
CN
 72
1
 11
1050.0
 21
65.0
 31
0.0
100
AcDbText
 73
2
  0
LWPOLYLINE
  5
42
330
17
100
AcDbEntity
  8
A-FURN
370
25
100
AcDbPolyline
 90
4
 70
1
 10
1200.0
 20
0.0
 10
1800.0
 20
0.0
 10
1800.0
 20
80.0
 10
1200.0
 20
80.0
  0
TEXT
  5
43
330
17
100
AcDbEntity
  8
A-TEXT
420
1184274
100
AcDbText
 10
1500.0
 20
40.0
 30
0.0
 40
85.0
  1
木地板
  7
CN
 72
1
 11
1500.0
 21
40.0
 31
0.0
100
AcDbText
 73
2
  0
LWPOLYLINE
  5
44
330
17
100
AcDbEntity
  8
A-FURN
370
25
100
AcDbPolyline
 90
4
 70
1
 10
0.0
 20
-60.0
 10
1800.0
 20
-60.0
 10
1800.0
 20
60.0
 10
0.0
 20
60.0
  0
TEXT
  5
45
330
17
100
AcDbEntity
  8
A-TEXT
420
1184274
100
AcDbText
 10
900.0
 20
-30.0
 30
0.0
 40
85.0
  1
结构楼板
  7
CN
 72
1
 11
900.0
 21
-30.0
 31
0.0
100
AcDbText
 73
2
  0
LWPOLYLINE
  5
46
330
17
100
AcDbEntity
  8
A-PLUM
370
25
100
AcDbPolyline
 90
4
 70
1
 10
0.0
 20
100.0
 10
900.0
 20
100.0
 10
900.0
 20
40.0
 10
0.0
 20
40.0
  0
TEXT
  5
47
330
17
100
AcDbEntity
  8
A-TEXT
420
1184274
100
AcDbText
 10
450.0
 20
120.0
 30
0.0
 40
85.0
  1
防水层
  7
CN
 72
1
 11
450.0
 21
120.0
 31
0.0
100
AcDbText
 73
2
  0
LWPOLYLINE
  5
48
330
17
100
AcDbEntity
  8
A-PLUM
  6
DASHED
370
25
100
AcDbPolyline
 90
4
 70
1
 10
0.0
 20
140.0
 10
60.0
 20
140.0
 10
60.0
 20
300.0
 10
0.0
 20
300.0
  0
TEXT
  5
49
330
17
100
AcDbEntity
  8
A-TEXT
420
1184274
100
AcDbText
 10
30.0
 20
290.0
 30
0.0
 40
85.0
  1
防水翻边≥300
  7
CN
 72
1
 11
30.0
 21
290.0
 31
0.0
100
AcDbText
 73
2
  0
LWPOLYLINE
  5
4A
330
17
100
AcDbEntity
  8
A-FIXT
370
25
100
AcDbPolyline
 90
4
 70
1
 10
1170.0
 20
80.0
 10
1230.0
 20
80.0
 10
1230.0
 20
50.0
 10
1170.0
 20
50.0
  0
TEXT
  5
4B
330
17
100
AcDbEntity
  8
A-TEXT
420
1184274
100
AcDbText
 10
1200.0
 20
105.0
 30
0.0
 40
85.0
  1
扣条
  7
CN
 72
1
 11
1200.0
 21
105.0
 31
0.0
100
AcDbText
 73
2
  0
TEXT
  5
4C
330
17
100
AcDbEntity
  8
A-TEXT
420
1184274
100
AcDbText
 10
900.0
 20
520.0
 30
0.0
 40
90.0
  1
卫浴侧防水层上翻≥300（湿区墙面1800，待确认）
  7
CN
 72
1
 11
900.0
 21
520.0
 31
0.0
100
AcDbText
 73
2
  0
TEXT
  5
4D
330
17
100
AcDbEntity
  8
A-TEXT
420
1184274
100
AcDbText
 10
900.0
 20
-250.0
 30
0.0
 40
150.0
  1
D1 卫浴门槛防水节点
  7
CN
 72
1
 11
900.0
 21
-250.0
 31
0.0
100
AcDbText
 73
2
  0
LWPOLYLINE
  5
4E
330
17
100
AcDbEntity
  8
A-FURN
370
25
100
AcDbPolyline
 90
4
 70
1
 10
3200.0
 20
0.0
 10
4800.0
 20
0.0
 10
4800.0
 20
100.0
 10
3200.0
 20
100.0
  0
TEXT
  5
4F
330
17
100
AcDbEntity
  8
A-TEXT
420
1184274
100
AcDbText
 10
4000.0
 20
50.0
 30
0.0
 40
85.0
  1
地砖+防水层(湿区)
  7
CN
 72
1
 11
4000.0
 21
50.0
 31
0.0
100
AcDbText
 73
2
  0
LWPOLYLINE
  5
50
330
17
100
AcDbEntity
  8
A-FURN
370
25
100
AcDbPolyline
 90
4
 70
1
 10
3950.0
 20
100.0
 10
4050.0
 20
100.0
 10
4050.0
 20
60.0
 10
3950.0
 20
60.0
  0
TEXT
  5
51
330
17
100
AcDbEntity
  8
A-TEXT
420
1184274
100
AcDbText
 10
4000.0
 20
130.0
 30
0.0
 40
85.0
  1
U型槽/夹件
  7
CN
 72
1
 11
4000.0
 21
130.0
 31
0.0
100
AcDbText
 73
2
  0
LWPOLYLINE
  5
52
330
17
100
AcDbEntity
  8
A-FURN
370
25
100
AcDbPolyline
 90
4
 70
1
 10
3990.0
 20
160.0
 10
4010.0
 20
160.0
 10
4010.0
 20
900.0
 10
3990.0
 20
900.0
  0
TEXT
  5
53
330
17
100
AcDbEntity
  8
A-TEXT
420
1184274
100
AcDbText
 10
4000.0
 20
610.0
 30
0.0
 40
85.0
  1
玻璃10mm(钢化)
  7
CN
 72
1
 11
4000.0
 21
610.0
 31
0.0
100
AcDbText
 73
2
  0
LWPOLYLINE
  5
54
330
17
100
AcDbEntity
  8
A-FURN
370
25
100
AcDbPolyline
 90
4
 70
1
 10
3900.0
 20
100.0
 10
3940.0
 20
100.0
 10
3940.0
 20
60.0
 10
3900.0
 20
60.0
  0
TEXT
  5
55
330
17
100
AcDbEntity
  8
A-TEXT
420
1184274
100
AcDbText
 10
3920.0
 20
130.0
 30
0.0
 40
85.0
  1
密封胶
  7
CN
 72
1
 11
3920.0
 21
130.0
 31
0.0
100
AcDbText
 73
2
  0
LWPOLYLINE
  5
56
330
17
100
AcDbEntity
  8
A-FURN
370
25
100
AcDbPolyline
 90
4
 70
1
 10
4060.0
 20
100.0
 10
4100.0
 20
100.0
 10
4100.0
 20
60.0
 10
4060.0
 20
60.0
  0
TEXT
  5
57
330
17
100
AcDbEntity
  8
A-TEXT
420
1184274
100
AcDbText
 10
4080.0
 20
130.0
 30
0.0
 40
85.0
  1
密封胶
  7
CN
 72
1
 11
4080.0
 21
130.0
 31
0.0
100
AcDbText
 73
2
  0
TEXT
  5
58
330
17
100
AcDbEntity
  8
A-TEXT
420
1184274
100
AcDbText
 10
4000.0
 20
1150.0
 30
0.0
 40
90.0
  1
玻璃固定方式（预埋槽/夹件/胶）待确认；建议贴防爆膜
  7
CN
 72
1
 11
4000.0
 21
1150.0
 31
0.0
100
AcDbText
 73
2
  0
TEXT
  5
59
330
17
100
AcDbEntity
  8
A-TEXT
420
1184274
100
AcDbText
 10
4000.0
 20
-250.0
 30
0.0
 40
150.0
  1
D2 淋浴玻璃隔断固定
  7
CN
 72
1
 11
4000.0
 21
-250.0
 31
0.0
100
AcDbText
 73
2
  0
LWPOLYLINE
  5
5A
330
17
100
AcDbEntity
  8
A-FURN
370
25
100
AcDbPolyline
 90
4
 70
1
 10
6400.0
 20
0.0
 10
6700.0
 20
0.0
 10
6700.0
 20
800.0
 10
6400.0
 20
800.0
  0
TEXT
  5
5B
330
17
100
AcDbEntity
  8
A-TEXT
420
1184274
100
AcDbText
 10
6550.0
 20
400.0
 30
0.0
 40
85.0
  1
墙体/墙砖
  7
CN
 72
1
 11
6550.0
 21
400.0
 31
0.0
100
AcDbText
 73
2
  0
LWPOLYLINE
  5
5C
330
17
100
AcDbEntity
  8
A-FURN
370
25
100
AcDbPolyline
 90
4
 70
1
 10
6700.0
 20
0.0
 10
7800.0
 20
0.0
 10
7800.0
 20
40.0
 10
6700.0
 20
40.0
  0
TEXT
  5
5D
330
17
100
AcDbEntity
  8
A-TEXT
420
1184274
100
AcDbText
 10
7250.0
 20
20.0
 30
0.0
 40
85.0
  1
台面
  7
CN
 72
1
 11
7250.0
 21
20.0
 31
0.0
100
AcDbText
 73
2
  0
LWPOLYLINE
  5
5E
330
17
100
AcDbEntity
  8
A-FURN
370
25
100
AcDbPolyline
 90
4
 70
1
 10
6700.0
 20
40.0
 10
6740.0
 20
40.0
 10
6740.0
 20
120.0
 10
6700.0
 20
120.0
  0
TEXT
  5
5F
330
17
100
AcDbEntity
  8
A-TEXT
420
1184274
100
AcDbText
 10
6720.0
 20
100.0
 30
0.0
 40
85.0
  1
后挡水条(一体/胶粘 待确认)
  7
CN
 72
1
 11
6720.0
 21
100.0
 31
0.0
100
AcDbText
 73
2
  0
LWPOLYLINE
  5
60
330
17
100
AcDbEntity
  8
A-FURN
370
25
100
AcDbPolyline
 90
4
 70
1
 10
6700.0
 20
-500.0
 10
6740.0
 20
-500.0
 10
6740.0
 20
500.0
 10
6700.0
 20
500.0
  0
TEXT
  5
61
330
17
100
AcDbEntity
  8
A-TEXT
420
1184274
100
AcDbText
 10
6720.0
 20
-250.0
 30
0.0
 40
85.0
  1
柜门
  7
CN
 72
1
 11
6720.0
 21
-250.0
 31
0.0
100
AcDbText
 73
2
  0
TEXT
  5
62
330
17
100
AcDbEntity
  8
A-TEXT
420
1184274
100
AcDbText
 10
7100.0
 20
400.0
 30
0.0
 40
90.0
  1
防霉胶收口；挡水高度/一体成型待确认
  7
CN
 72
1
 11
7100.0
 21
400.0
 31
0.0
100
AcDbText
 73
2
  0
TEXT
  5
63
330
17
100
AcDbEntity
  8
A-TEXT
420
1184274
100
AcDbText
 10
7100.0
 20
-250.0
 30
0.0
 40
150.0
  1
D3 台面挡水节点
  7
CN
 72
1
 11
7100.0
 21
-250.0
 31
0.0
100
AcDbText
 73
2
  0
LWPOLYLINE
  5
64
330
17
100
AcDbEntity
  8
A-FURN
370
25
100
AcDbPolyline
 90
4
 70
1
 10
0.0
 20
-2200.0
 10
900.0
 20
-2200.0
 10
900.0
 20
-2120.0
 10
0.0
 20
-2120.0
  0
TEXT
  5
65
330
17
100
AcDbEntity
  8
A-TEXT
420
1184274
100
AcDbText
 10
450.0
 20
-2160.0
 30
0.0
 40
85.0
  1
橡木地板
  7
CN
 72
1
 11
450.0
 21
-2160.0
 31
0.0
100
AcDbText
 73
2
  0
LWPOLYLINE
  5
66
330
17
100
AcDbEntity
  8
A-FURN
370
25
100
AcDbPolyline
 90
4
 70
1
 10
900.0
 20
-2200.0
 10
1100.0
 20
-2200.0
 10
1100.0
 20
-2110.0
 10
900.0
 20
-2110.0
  0
TEXT
  5
67
330
17
100
AcDbEntity
  8
A-TEXT
420
1184274
100
AcDbText
 10
1000.0
 20
-2155.0
 30
0.0
 40
85.0
  1
收边条
  7
CN
 72
1
 11
1000.0
 21
-2155.0
 31
0.0
100
AcDbText
 73
2
  0
LWPOLYLINE
  5
68
330
17
100
AcDbEntity
  8
A-FURN
370
25
100
AcDbPolyline
 90
4
 70
1
 10
1100.0
 20
-2200.0
 10
1800.0
 20
-2200.0
 10
1800.0
 20
-2100.0
 10
1100.0
 20
-2100.0
  0
TEXT
  5
69
330
17
100
AcDbEntity
  8
A-TEXT
420
1184274
100
AcDbText
 10
1450.0
 20
-2150.0
 30
0.0
 40
85.0
  1
瓷砖
  7
CN
 72
1
 11
1450.0
 21
-2150.0
 31
0.0
100
AcDbText
 73
2
  0
LWPOLYLINE
  5
6A
330
17
100
AcDbEntity
  8
A-FURN
370
25
100
AcDbPolyline
 90
4
 70
1
 10
0.0
 20
-2260.0
 10
1800.0
 20
-2260.0
 10
1800.0
 20
-2140.0
 10
0.0
 20
-2140.0
  0
TEXT
  5
6B
330
17
100
AcDbEntity
  8
A-TEXT
420
1184274
100
AcDbText
 10
900.0
 20
-2230.0
 30
0.0
 40
85.0
  1
找平层/楼板
  7
CN
 72
1
 11
900.0
 21
-2230.0
 31
0.0
100
AcDbText
 73
2
  0
TEXT
  5
6C
330
17
100
AcDbEntity
  8
A-TEXT
420
1184274
100
AcDbText
 10
900.0
 20
-1850.0
 30
0.0
 40
90.0
  1
T型扣条/极窄收口 待确认；两饰面完成面齐平
  7
CN
 72
1
 11
900.0
 21
-1850.0
 31
0.0
100
AcDbText
 73
2
  0
TEXT
  5
6D
330
17
100
AcDbEntity
  8
A-TEXT
420
1184274
100
AcDbText
 10
900.0
 20
-2450.0
 30
0.0
 40
150.0
  1
D4 木地板-瓷砖收边
  7
CN
 72
1
 11
900.0
 21
-2450.0
 31
0.0
100
AcDbText
 73
2
  0
LWPOLYLINE
  5
6E
330
17
100
AcDbEntity
  8
A-FURN
370
25
100
AcDbPolyline
 90
4
 70
1
 10
3200.0
 20
-2200.0
 10
4100.0
 20
-2200.0
 10
4100.0
 20
-800.0
 10
3200.0
 20
-800.0
  0
TEXT
  5
6F
330
17
100
AcDbEntity
  8
A-TEXT
420
1184274
100
AcDbText
 10
3650.0
 20
-1500.0
 30
0.0
 40
85.0
  1
吊顶(2600)
  7
CN
 72
1
 11
3650.0
 21
-1500.0
 31
0.0
100
AcDbText
 73
2
  0
LWPOLYLINE
  5
70
330
17
100
AcDbEntity
  8
A-WALL
370
25
100
AcDbPolyline
 90
4
 70
1
 10
3500.0
 20
-2200.0
 10
3540.0
 20
-2200.0
 10
3540.0
 20
-800.0
 10
3500.0
 20
-800.0
  0
LWPOLYLINE
  5
71
330
17
100
AcDbEntity
  8
A-FURN
370
25
100
AcDbPolyline
 90
4
 70
1
 10
3540.0
 20
-3000.0
 10
3940.0
 20
-3000.0
 10
3940.0
 20
-1400.0
 10
3540.0
 20
-1400.0
  0
TEXT
  5
72
330
17
100
AcDbEntity
  8
A-TEXT
420
1184274
100
AcDbText
 10
3740.0
 20
-2600.0
 30
0.0
 40
85.0
  1
衣柜顶封板
  7
CN
 72
1
 11
3740.0
 21
-2600.0
 31
0.0
100
AcDbText
 73
2
  0
LWPOLYLINE
  5
73
330
17
100
AcDbEntity
  8
A-FURN
370
25
100
AcDbPolyline
 90
4
 70
1
 10
3540.0
 20
-3600.0
 10
3940.0
 20
-3600.0
 10
3940.0
 20
-1600.0
 10
3540.0
 20
-1600.0
  0
TEXT
  5
74
330
17
100
AcDbEntity
  8
A-TEXT
420
1184274
100
AcDbText
 10
3740.0
 20
-3300.0
 30
0.0
 40
85.0
  1
衣柜柜体
  7
CN
 72
1
 11
3740.0
 21
-3300.0
 31
0.0
100
AcDbText
 73
2
  0
TEXT
  5
75
330
17
100
AcDbEntity
  8
A-TEXT
420
1184274
100
AcDbText
 10
3900.0
 20
-600.0
 30
0.0
 40
90.0
  1
顶封板与吊顶留缝/打胶 待确认；侧封板同
  7
CN
 72
1
 11
3900.0
 21
-600.0
 31
0.0
100
AcDbText
 73
2
  0
TEXT
  5
76
330
17
100
AcDbEntity
  8
A-TEXT
420
1184274
100
AcDbText
 10
3900.0
 20
-2450.0
 30
0.0
 40
150.0
  1
D5 通顶衣柜顶部收口
  7
CN
 72
1
 11
3900.0
 21
-2450.0
 31
0.0
100
AcDbText
 73
2
  0
LWPOLYLINE
  5
77
330
17
100
AcDbEntity
  8
A-FRAME
370
70
420
1184274
100
AcDbPolyline
 90
4
 70
1
 10
-1500.0
 20
-4700.0
 10
11800.0
 20
-4700.0
 10
11800.0
 20
2200.0
 10
-1500.0
 20
2200.0
  0
LWPOLYLINE
  5
78
330
17
100
AcDbEntity
  8
A-FRAME
420
1184274
100
AcDbPolyline
 90
4
 70
1
 10
5600.0
 20
-4700.0
 10
11800.0
 20
-4700.0
 10
11800.0
 20
-2300.0
 10
5600.0
 20
-2300.0
  0
TEXT
  5
79
330
17
100
AcDbEntity
  8
A-TEXT
420
1184274
100
AcDbText
 10
5850.0
 20
-2650.0
 30
0.0
 40
300.0
  1
学道街44号室内设计
  7
CN
 11
5850.0
 21
-2650.0
 31
0.0
100
AcDbText
  0
TEXT
  5
7A
330
17
100
AcDbEntity
  8
A-TEXT
420
1184274
100
AcDbText
 10
5850.0
 20
-3050.0
 30
0.0
 40
240.0
  1
节点详图（示意）
  7
CN
 11
5850.0
 21
-3050.0
 31
0.0
100
AcDbText
  0
TEXT
  5
7B
330
17
100
AcDbEntity
  8
A-TEXT
420
1184274
100
AcDbText
 10
5850.0
 20
-3450.0
 30
0.0
 40
180.0
  1
图号 A402   版本 v1
  7
CN
 11
5850.0
 21
-3450.0
 31
0.0
100
AcDbText
  0
TEXT
  5
7C
330
17
100
AcDbEntity
  8
A-TEXT
420
1184274
100
AcDbText
 10
5850.0
 20
-3800.0
 30
0.0
 40
150.0
  1
常规做法示意，最终以深化设计/现场为准
  7
CN
 11
5850.0
 21
-3800.0
 31
0.0
100
AcDbText
  0
TEXT
  5
7D
330
17
100
AcDbEntity
  8
A-TEXT
420
1184274
100
AcDbText
 10
-1250.0
 20
-4500.0
 30
0.0
 40
150.0
  1
· 防水高度、玻璃固定、挡水做法、收边形式、封板留缝全部待确认
  7
CN
 11
-1250.0
 21
-4500.0
 31
0.0
100
AcDbText
  0
TEXT
  5
7E
330
17
100
AcDbEntity
  8
A-TEXT
420
1184274
100
AcDbText
 10
-1250.0
 20
-4100.0
 30
0.0
 40
150.0
  1
· 详图比例为示意，不以图示量取尺寸
  7
CN
 11
-1250.0
 21
-4100.0
 31
0.0
100
AcDbText
  0
ENDSEC
  0
SECTION
  2
OBJECTS
  0
DICTIONARY
  5
A
330
0
100
AcDbDictionary
281
1
  3
ACAD_COLOR
350
B
  3
ACAD_GROUP
350
C
  3
ACAD_LAYOUT
350
D
  3
ACAD_MATERIAL
350
E
  3
ACAD_MLEADERSTYLE
350
F
  3
ACAD_MLINESTYLE
350
10
  3
ACAD_PLOTSETTINGS
350
11
  3
ACAD_PLOTSTYLENAME
350
12
  3
ACAD_SCALELIST
350
14
  3
ACAD_TABLESTYLE
350
15
  3
ACAD_VISUALSTYLE
350
16
  3
EZDXF_META
350
2D
  0
DICTIONARY
  5
B
330
A
100
AcDbDictionary
281
1
  0
DICTIONARY
  5
C
330
A
100
AcDbDictionary
281
1
  0
DICTIONARY
  5
D
330
A
100
AcDbDictionary
281
1
  3
Model
350
1A
  3
Layout1
350
1E
  0
DICTIONARY
  5
E
330
A
100
AcDbDictionary
281
1
  3
ByBlock
350
1F
  3
ByLayer
350
20
  3
Global
350
21
  0
DICTIONARY
  5
F
330
A
100
AcDbDictionary
281
1
  3
Standard
350
2C
  0
DICTIONARY
  5
10
330
A
100
AcDbDictionary
281
1
  3
Standard
350
22
  0
DICTIONARY
  5
11
330
A
100
AcDbDictionary
281
1
  0
ACDBDICTIONARYWDFLT
  5
12
330
A
100
AcDbDictionary
281
1
  3
Normal
350
13
100
AcDbDictionaryWithDefault
340
13
  0
ACDBPLACEHOLDER
  5
13
330
12
  0
DICTIONARY
  5
14
330
A
100
AcDbDictionary
281
1
  0
DICTIONARY
  5
15
330
A
100
AcDbDictionary
281
1
  0
DICTIONARY
  5
16
330
A
100
AcDbDictionary
281
1
  0
LAYOUT
  5
1A
330
D
100
AcDbPlotSettings
  1

  4
A3
  6

 40
7.5
 41
20.0
 42
7.5
 43
20.0
 44
420.0
 45
297.0
 46
0.0
 47
0.0
 48
0.0
 49
0.0
140
0.0
141
0.0
142
1.0
143
1.0
 70
1024
 72
1
 73
0
 74
5
  7

 75
16
 76
0
 77
2
 78
300
147
1.0
148
0.0
149
0.0
100
AcDbLayout
  1
Model
 70
1
 71
0
 10
0.0
 20
0.0
 11
420.0
 21
297.0
 12
0.0
 22
0.0
 32
0.0
 14
1e+20
 24
1e+20
 34
1e+20
 15
-1e+20
 25
-1e+20
 35
-1e+20
146
0.0
 13
0.0
 23
0.0
 33
0.0
 16
1.0
 26
0.0
 36
0.0
 17
0.0
 27
1.0
 37
0.0
 76
1
330
17
  0
LAYOUT
  5
1E
330
D
100
AcDbPlotSettings
  1

  4
A3
  6

 40
7.5
 41
20.0
 42
7.5
 43
20.0
 44
420.0
 45
297.0
 46
0.0
 47
0.0
 48
0.0
 49
0.0
140
0.0
141
0.0
142
1.0
143
1.0
 70
0
 72
1
 73
0
 74
5
  7

 75
16
 76
0
 77
2
 78
300
147
1.0
148
0.0
149
0.0
100
AcDbLayout
  1
Layout1
 70
1
 71
1
 10
0.0
 20
0.0
 11
420.0
 21
297.0
 12
0.0
 22
0.0
 32
0.0
 14
1e+20
 24
1e+20
 34
1e+20
 15
-1e+20
 25
-1e+20
 35
-1e+20
146
0.0
 13
0.0
 23
0.0
 33
0.0
 16
1.0
 26
0.0
 36
0.0
 17
0.0
 27
1.0
 37
0.0
 76
1
330
1B
  0
MATERIAL
  5
1F
102
{ACAD_REACTORS
330
E
102
}
330
E
100
AcDbMaterial
  1
ByBlock
  2

 70
0
 40
1.0
 71
1
 41
1.0
 91
-1023410177
 42
1.0
 72
1
  3

 73
1
 74
1
 75
1
 44
0.5
 73
0
 45
1.0
 46
1.0
 77
1
  4

 78
1
 79
1
170
1
 48
1.0
171
1
  6

172
1
173
1
174
1
140
1.0
141
1.0
175
1
  7

176
1
177
1
178
1
143
1.0
179
1
  8

270
1
271
1
272
1
145
1.0
146
1.0
273
1
  9

274
1
275
1
276
1
 42
1.0
 72
1
  3

 73
1
 74
1
 75
1
 94
63
  0
MATERIAL
  5
20
102
{ACAD_REACTORS
330
E
102
}
330
E
100
AcDbMaterial
  1
ByLayer
  2

 70
0
 40
1.0
 71
1
 41
1.0
 91
-1023410177
 42
1.0
 72
1
  3

 73
1
 74
1
 75
1
 44
0.5
 73
0
 45
1.0
 46
1.0
 77
1
  4

 78
1
 79
1
170
1
 48
1.0
171
1
  6

172
1
173
1
174
1
140
1.0
141
1.0
175
1
  7

176
1
177
1
178
1
143
1.0
179
1
  8

270
1
271
1
272
1
145
1.0
146
1.0
273
1
  9

274
1
275
1
276
1
 42
1.0
 72
1
  3

 73
1
 74
1
 75
1
 94
63
  0
MATERIAL
  5
21
102
{ACAD_REACTORS
330
E
102
}
330
E
100
AcDbMaterial
  1
Global
  2

 70
0
 40
1.0
 71
1
 41
1.0
 91
-1023410177
 42
1.0
 72
1
  3

 73
1
 74
1
 75
1
 44
0.5
 73
0
 45
1.0
 46
1.0
 77
1
  4

 78
1
 79
1
170
1
 48
1.0
171
1
  6

172
1
173
1
174
1
140
1.0
141
1.0
175
1
  7

176
1
177
1
178
1
143
1.0
179
1
  8

270
1
271
1
272
1
145
1.0
146
1.0
273
1
  9

274
1
275
1
276
1
 42
1.0
 72
1
  3

 73
1
 74
1
 75
1
 94
63
  0
MLINESTYLE
  5
22
102
{ACAD_REACTORS
330
10
102
}
330
10
100
AcDbMlineStyle
  2
Standard
 70
0
  3

 62
256
 51
90.0
 52
90.0
 71
2
 49
0.5
 62
256
  6
BYLAYER
 49
-0.5
 62
256
  6
BYLAYER
  0
MLEADERSTYLE
  5
2C
102
{ACAD_REACTORS
330
F
102
}
330
F
100
AcDbMLeaderStyle
179
2
170
2
171
1
172
0
 90
2
 40
0.0
 41
0.0
173
1
 91
-1056964608
 92
-2
290
1
 42
2.0
291
1
 43
8.0
  3
Standard
 44
4.0
300

342
29
174
1
175
1
176
0
178
1
 93
-1056964608
 45
4.0
292
0
297
0
 46
4.0
 94
-1056964608
 47
1.0
 49
1.0
140
1.0
294
1
141
0.0
177
0
142
1.0
295
0
296
0
143
3.75
271
0
272
9
273
9
  0
DICTIONARY
  5
2D
330
A
100
AcDbDictionary
280
1
281
1
  3
CREATED_BY_EZDXF
350
2E
  3
WRITTEN_BY_EZDXF
350
81
  0
DICTIONARYVAR
  5
2E
330
2D
100
DictionaryVariables
280
0
  1
1.4.4 @ 2026-09-14T14:15:28.927697+00:00
  0
DICTIONARYVAR
  5
81
330
2D
100
DictionaryVariables
280
0
  1
1.4.4 @ 2026-09-14T14:15:28.929537+00:00
  0
ENDSEC
  0
EOF
