  0
SECTION
  2
HEADER
  9
$ACADVER
  1
AC1032
  9
$ACADMAINTVER
 90
4
  9
$DWGCODEPAGE
  3
ANSI_1252
  9
$LASTSAVEDBY
  1
ezdxf
  9
$REQUIREDVERSIONS
160
0
  9
$INSBASE
 10
0.0
 20
0.0
 30
0.0
  9
$EXTMIN
 10
1e+20
 20
1e+20
 30
1e+20
  9
$EXTMAX
 10
-1e+20
 20
-1e+20
 30
-1e+20
  9
$LIMMIN
 10
0.0
 20
0.0
  9
$LIMMAX
 10
420.0
 20
297.0
  9
$ORTHOMODE
 70
0
  9
$REGENMODE
 70
1
  9
$FILLMODE
 70
1
  9
$QTEXTMODE
 70
0
  9
$MIRRTEXT
 70
1
  9
$LTSCALE
 40
1.0
  9
$ATTMODE
 70
1
  9
$TEXTSIZE
 40
2.5
  9
$TRACEWID
 40
1.0
  9
$TEXTSTYLE
  7
Standard
  9
$CLAYER
  8
0
  9
$CELTYPE
  6
ByLayer
  9
$CECOLOR
 62
256
  9
$CELTSCALE
 40
1.0
  9
$DISPSILH
 70
0
  9
$DIMSCALE
 40
1.0
  9
$DIMASZ
 40
2.5
  9
$DIMEXO
 40
0.625
  9
$DIMDLI
 40
3.75
  9
$DIMRND
 40
0.0
  9
$DIMDLE
 40
0.0
  9
$DIMEXE
 40
1.25
  9
$DIMTP
 40
0.0
  9
$DIMTM
 40
0.0
  9
$DIMTXT
 40
2.5
  9
$DIMCEN
 40
2.5
  9
$DIMTSZ
 40
0.0
  9
$DIMTOL
 70
0
  9
$DIMLIM
 70
0
  9
$DIMTIH
 70
0
  9
$DIMTOH
 70
0
  9
$DIMSE1
 70
0
  9
$DIMSE2
 70
0
  9
$DIMTAD
 70
1
  9
$DIMZIN
 70
8
  9
$DIMBLK
  1

  9
$DIMASO
 70
1
  9
$DIMSHO
 70
1
  9
$DIMPOST
  1

  9
$DIMAPOST
  1

  9
$DIMALT
 70
0
  9
$DIMALTD
 70
3
  9
$DIMALTF
 40
0.03937007874
  9
$DIMLFAC
 40
1.0
  9
$DIMTOFL
 70
1
  9
$DIMTVP
 40
0.0
  9
$DIMTIX
 70
0
  9
$DIMSOXD
 70
0
  9
$DIMSAH
 70
0
  9
$DIMBLK1
  1

  9
$DIMBLK2
  1

  9
$DIMSTYLE
  2
ISO-25
  9
$DIMCLRD
 70
0
  9
$DIMCLRE
 70
0
  9
$DIMCLRT
 70
0
  9
$DIMTFAC
 40
1.0
  9
$DIMGAP
 40
0.625
  9
$DIMJUST
 70
0
  9
$DIMSD1
 70
0
  9
$DIMSD2
 70
0
  9
$DIMTOLJ
 70
0
  9
$DIMTZIN
 70
8
  9
$DIMALTZ
 70
0
  9
$DIMALTTZ
 70
0
  9
$DIMUPT
 70
0
  9
$DIMDEC
 70
2
  9
$DIMTDEC
 70
2
  9
$DIMALTU
 70
2
  9
$DIMALTTD
 70
3
  9
$DIMTXSTY
  7
Standard
  9
$DIMAUNIT
 70
0
  9
$DIMADEC
 70
0
  9
$DIMALTRND
 40
0.0
  9
$DIMAZIN
 70
0
  9
$DIMDSEP
 70
44
  9
$DIMATFIT
 70
3
  9
$DIMFRAC
 70
0
  9
$DIMLDRBLK
  1

  9
$DIMLUNIT
 70
2
  9
$DIMLWD
 70
-2
  9
$DIMLWE
 70
-2
  9
$DIMTMOVE
 70
0
  9
$DIMFXL
 40
1.0
  9
$DIMFXLON
 70
0
  9
$DIMJOGANG
 40
0.785398163397
  9
$DIMTFILL
 70
0
  9
$DIMTFILLCLR
 70
0
  9
$DIMARCSYM
 70
0
  9
$DIMLTYPE
  6

  9
$DIMLTEX1
  6

  9
$DIMLTEX2
  6

  9
$DIMTXTDIRECTION
 70
0
  9
$LUNITS
 70
2
  9
$LUPREC
 70
4
  9
$SKETCHINC
 40
1.0
  9
$FILLETRAD
 40
10.0
  9
$AUNITS
 70
0
  9
$AUPREC
 70
2
  9
$MENU
  1
.
  9
$ELEVATION
 40
0.0
  9
$PELEVATION
 40
0.0
  9
$THICKNESS
 40
0.0
  9
$LIMCHECK
 70
0
  9
$CHAMFERA
 40
0.0
  9
$CHAMFERB
 40
0.0
  9
$CHAMFERC
 40
0.0
  9
$CHAMFERD
 40
0.0
  9
$SKPOLY
 70
0
  9
$TDCREATE
 40
2461298.9255671296
  9
$TDUCREATE
 40
2458532.153996898
  9
$TDUPDATE
 40
2461298.9255671296
  9
$TDUUPDATE
 40
2458532.1544311
  9
$TDINDWG
 40
0.0
  9
$TDUSRTIMER
 40
0.0
  9
$USRTIMER
 70
1
  9
$ANGBASE
 50
0.0
  9
$ANGDIR
 70
0
  9
$PDMODE
 70
0
  9
$PDSIZE
 40
0.0
  9
$PLINEWID
 40
0.0
  9
$SPLFRAME
 70
0
  9
$SPLINETYPE
 70
6
  9
$SPLINESEGS
 70
8
  9
$HANDSEED
  5
F5
  9
$SURFTAB1
 70
6
  9
$SURFTAB2
 70
6
  9
$SURFTYPE
 70
6
  9
$SURFU
 70
6
  9
$SURFV
 70
6
  9
$UCSBASE
  2

  9
$UCSNAME
  2

  9
$UCSORG
 10
0.0
 20
0.0
 30
0.0
  9
$UCSXDIR
 10
1.0
 20
0.0
 30
0.0
  9
$UCSYDIR
 10
0.0
 20
1.0
 30
0.0
  9
$UCSORTHOREF
  2

  9
$UCSORTHOVIEW
 70
0
  9
$UCSORGTOP
 10
0.0
 20
0.0
 30
0.0
  9
$UCSORGBOTTOM
 10
0.0
 20
0.0
 30
0.0
  9
$UCSORGLEFT
 10
0.0
 20
0.0
 30
0.0
  9
$UCSORGRIGHT
 10
0.0
 20
0.0
 30
0.0
  9
$UCSORGFRONT
 10
0.0
 20
0.0
 30
0.0
  9
$UCSORGBACK
 10
0.0
 20
0.0
 30
0.0
  9
$PUCSBASE
  2

  9
$PUCSNAME
  2

  9
$PUCSORG
 10
0.0
 20
0.0
 30
0.0
  9
$PUCSXDIR
 10
1.0
 20
0.0
 30
0.0
  9
$PUCSYDIR
 10
0.0
 20
1.0
 30
0.0
  9
$PUCSORTHOREF
  2

  9
$PUCSORTHOVIEW
 70
0
  9
$PUCSORGTOP
 10
0.0
 20
0.0
 30
0.0
  9
$PUCSORGBOTTOM
 10
0.0
 20
0.0
 30
0.0
  9
$PUCSORGLEFT
 10
0.0
 20
0.0
 30
0.0
  9
$PUCSORGRIGHT
 10
0.0
 20
0.0
 30
0.0
  9
$PUCSORGFRONT
 10
0.0
 20
0.0
 30
0.0
  9
$PUCSORGBACK
 10
0.0
 20
0.0
 30
0.0
  9
$USERI1
 70
0
  9
$USERI2
 70
0
  9
$USERI3
 70
0
  9
$USERI4
 70
0
  9
$USERI5
 70
0
  9
$USERR1
 40
0.0
  9
$USERR2
 40
0.0
  9
$USERR3
 40
0.0
  9
$USERR4
 40
0.0
  9
$USERR5
 40
0.0
  9
$WORLDVIEW
 70
1
  9
$SHADEDGE
 70
3
  9
$SHADEDIF
 70
70
  9
$TILEMODE
 70
1
  9
$MAXACTVP
 70
64
  9
$PINSBASE
 10
0.0
 20
0.0
 30
0.0
  9
$PLIMCHECK
 70
0
  9
$PEXTMIN
 10
1e+20
 20
1e+20
 30
1e+20
  9
$PEXTMAX
 10
-1e+20
 20
-1e+20
 30
-1e+20
  9
$PLIMMIN
 10
0.0
 20
0.0
  9
$PLIMMAX
 10
420.0
 20
297.0
  9
$UNITMODE
 70
0
  9
$VISRETAIN
 70
1
  9
$PLINEGEN
 70
0
  9
$PSLTSCALE
 70
1
  9
$TREEDEPTH
 70
3020
  9
$CMLSTYLE
  2
Standard
  9
$CMLJUST
 70
0
  9
$CMLSCALE
 40
20.0
  9
$PROXYGRAPHICS
 70
1
  9
$MEASUREMENT
 70
1
  9
$CELWEIGHT
370
-1
  9
$ENDCAPS
280
0
  9
$JOINSTYLE
280
0
  9
$LWDISPLAY
290
0
  9
$INSUNITS
 70
4
  9
$HYPERLINKBASE
  1

  9
$STYLESHEET
  1

  9
$XEDIT
290
1
  9
$CEPSNTYPE
380
0
  9
$PSTYLEMODE
290
1
  9
$FINGERPRINTGUID
  2
{677C447C-B3F5-4F9C-896B-58E90E9C4EDB}
  9
$VERSIONGUID
  2
{9EE53770-012B-47F3-9CF9-40F5430C424D}
  9
$EXTNAMES
290
1
  9
$PSVPSCALE
 40
0.0
  9
$OLESTARTUP
290
0
  9
$SORTENTS
280
127
  9
$INDEXCTL
280
0
  9
$HIDETEXT
280
1
  9
$XCLIPFRAME
280
1
  9
$HALOGAP
280
0
  9
$OBSCOLOR
 70
257
  9
$OBSLTYPE
280
0
  9
$INTERSECTIONDISPLAY
280
0
  9
$INTERSECTIONCOLOR
 70
257
  9
$DIMASSOC
280
2
  9
$PROJECTNAME
  1

  9
$CAMERADISPLAY
290
0
  9
$LENSLENGTH
 40
50.0
  9
$CAMERAHEIGHT
 40
0.0
  9
$STEPSPERSEC
 40
24.0
  9
$STEPSIZE
 40
100.0
  9
$3DDWFPREC
 40
2.0
  9
$PSOLWIDTH
 40
0.005
  9
$PSOLHEIGHT
 40
0.08
  9
$LOFTANG1
 40
1.570796326795
  9
$LOFTANG2
 40
1.570796326795
  9
$LOFTMAG1
 40
0.0
  9
$LOFTMAG2
 40
0.0
  9
$LOFTPARAM
 70
7
  9
$LOFTNORMALS
280
1
  9
$LATITUDE
 40
37.795
  9
$LONGITUDE
 40
-122.394
  9
$NORTHDIRECTION
 40
0.0
  9
$TIMEZONE
 70
-8000
  9
$LIGHTGLYPHDISPLAY
280
1
  9
$TILEMODELIGHTSYNCH
280
1
  9
$CMATERIAL
347
20
  9
$SOLIDHIST
280
0
  9
$SHOWHIST
280
1
  9
$DWFFRAME
280
2
  9
$DGNFRAME
280
2
  9
$REALWORLDSCALE
290
1
  9
$INTERFERECOLOR
 62
256
  9
$CSHADOW
280
0
  9
$SHADOWPLANELOCATION
 40
0.0
  0
ENDSEC
  0
SECTION
  2
CLASSES
  0
CLASS
  1
ACDBDICTIONARYWDFLT
  2
AcDbDictionaryWithDefault
  3
ObjectDBX Classes
 90
0
 91
0
280
0
281
0
  0
CLASS
  1
SUN
  2
AcDbSun
  3
SCENEOE
 90
1153
 91
0
280
0
281
0
  0
CLASS
  1
VISUALSTYLE
  2
AcDbVisualStyle
  3
ObjectDBX Classes
 90
4095
 91
0
280
0
281
0
  0
CLASS
  1
MATERIAL
  2
AcDbMaterial
  3
ObjectDBX Classes
 90
1153
 91
0
280
0
281
0
  0
CLASS
  1
SCALE
  2
AcDbScale
  3
ObjectDBX Classes
 90
1153
 91
0
280
0
281
0
  0
CLASS
  1
TABLESTYLE
  2
AcDbTableStyle
  3
ObjectDBX Classes
 90
4095
 91
0
280
0
281
0
  0
CLASS
  1
MLEADERSTYLE
  2
AcDbMLeaderStyle
  3
ACDB_MLEADERSTYLE_CLASS
 90
4095
 91
0
280
0
281
0
  0
CLASS
  1
DICTIONARYVAR
  2
AcDbDictionaryVar
  3
ObjectDBX Classes
 90
0
 91
0
280
0
281
0
  0
CLASS
  1
CELLSTYLEMAP
  2
AcDbCellStyleMap
  3
ObjectDBX Classes
 90
1152
 91
0
280
0
281
0
  0
CLASS
  1
MENTALRAYRENDERSETTINGS
  2
AcDbMentalRayRenderSettings
  3
SCENEOE
 90
1024
 91
0
280
0
281
0
  0
CLASS
  1
ACDBDETAILVIEWSTYLE
  2
AcDbDetailViewStyle
  3
ObjectDBX Classes
 90
1025
 91
0
280
0
281
0
  0
CLASS
  1
ACDBSECTIONVIEWSTYLE
  2
AcDbSectionViewStyle
  3
ObjectDBX Classes
 90
1025
 91
0
280
0
281
0
  0
CLASS
  1
RASTERVARIABLES
  2
AcDbRasterVariables
  3
ISM
 90
0
 91
0
280
0
281
0
  0
CLASS
  1
LAYOUT
  2
AcDbLayout
  3
ObjectDBX Classes
 90
0
 91
0
280
0
281
0
  0
CLASS
  1
ACDBPLACEHOLDER
  2
AcDbPlaceHolder
  3
ObjectDBX Classes
 90
0
 91
0
280
0
281
0
  0
ENDSEC
  0
SECTION
  2
TABLES
  0
TABLE
  2
VPORT
  5
8
330
0
100
AcDbSymbolTable
 70
1
  0
VPORT
  5
23
330
8
100
AcDbSymbolTableRecord
100
AcDbViewportTableRecord
  2
*Active
 70
0
 10
0.0
 20
0.0
 11
1.0
 21
1.0
 12
0.0
 22
0.0
 13
0.0
 23
0.0
 14
0.5
 24
0.5
 15
0.5
 25
0.5
 16
0.0
 26
0.0
 36
1.0
 17
0.0
 27
0.0
 37
0.0
 40
1000.0
 41
1.34
 42
50.0
 43
0.0
 44
0.0
 50
0.0
 51
0.0
 71
0
 72
1000
 73
1
 74
3
 75
0
 76
0
 77
0
 78
0
281
0
 65
0
146
0.0
  0
ENDTAB
  0
TABLE
  2
LTYPE
  5
2
330
0
100
AcDbSymbolTable
 70
3
  0
LTYPE
  5
24
330
2
100
AcDbSymbolTableRecord
100
AcDbLinetypeTableRecord
  2
ByBlock
 70
0
  3

 72
65
 73
0
 40
0.0
  0
LTYPE
  5
25
330
2
100
AcDbSymbolTableRecord
100
AcDbLinetypeTableRecord
  2
ByLayer
 70
0
  3

 72
65
 73
0
 40
0.0
  0
LTYPE
  5
26
330
2
100
AcDbSymbolTableRecord
100
AcDbLinetypeTableRecord
  2
Continuous
 70
0
  3

 72
65
 73
0
 40
0.0
  0
ENDTAB
  0
TABLE
  2
LAYER
  5
1
330
0
100
AcDbSymbolTable
 70
15
  0
LAYER
  5
27
330
1
100
AcDbSymbolTableRecord
100
AcDbLayerTableRecord
  2
0
 70
0
 62
7
  6
Continuous
370
-3
390
13
347
21
  0
LAYER
  5
28
330
1
100
AcDbSymbolTableRecord
100
AcDbLayerTableRecord
  2
Defpoints
 70
0
 62
7
  6
Continuous
290
0
370
-3
390
13
347
21
  0
LAYER
  5
2F
330
1
100
AcDbSymbolTableRecord
100
AcDbLayerTableRecord
  2
A-WALL
 70
0
 62
7
  6
Continuous
370
-3
390
13
347
21
  0
LAYER
  5
30
330
1
100
AcDbSymbolTableRecord
100
AcDbLayerTableRecord
  2
A-WINDOW
 70
0
 62
4
  6
Continuous
370
-3
390
13
347
21
  0
LAYER
  5
31
330
1
100
AcDbSymbolTableRecord
100
AcDbLayerTableRecord
  2
A-DOOR
 70
0
 62
3
  6
Continuous
370
-3
390
13
347
21
  0
LAYER
  5
32
330
1
100
AcDbSymbolTableRecord
100
AcDbLayerTableRecord
  2
A-FURN
 70
0
 62
30
  6
Continuous
370
-3
390
13
347
21
  0
LAYER
  5
33
330
1
100
AcDbSymbolTableRecord
100
AcDbLayerTableRecord
  2
A-FIXT
 70
0
 62
6
  6
Continuous
370
-3
390
13
347
21
  0
LAYER
  5
34
330
1
100
AcDbSymbolTableRecord
100
AcDbLayerTableRecord
  2
A-DIMS
 70
0
 62
1
  6
Continuous
370
-3
390
13
347
21
  0
LAYER
  5
35
330
1
100
AcDbSymbolTableRecord
100
AcDbLayerTableRecord
  2
A-TEXT
 70
0
 62
7
  6
Continuous
370
-3
390
13
347
21
  0
LAYER
  5
36
330
1
100
AcDbSymbolTableRecord
100
AcDbLayerTableRecord
  2
A-HATCH
 70
0
 62
8
  6
Continuous
370
-3
390
13
347
21
  0
LAYER
  5
37
330
1
100
AcDbSymbolTableRecord
100
AcDbLayerTableRecord
  2
A-FRAME
 70
0
 62
7
  6
Continuous
370
-3
390
13
347
21
  0
LAYER
  5
38
330
1
100
AcDbSymbolTableRecord
100
AcDbLayerTableRecord
  2
A-FLOR
 70
0
 62
2
  6
Continuous
370
-3
390
13
347
21
  0
LAYER
  5
39
330
1
100
AcDbSymbolTableRecord
100
AcDbLayerTableRecord
  2
A-CEIL
 70
0
 62
5
  6
Continuous
370
-3
390
13
347
21
  0
LAYER
  5
3A
330
1
100
AcDbSymbolTableRecord
100
AcDbLayerTableRecord
  2
A-ELEC
 70
0
 62
1
  6
Continuous
370
-3
390
13
347
21
  0
LAYER
  5
3B
330
1
100
AcDbSymbolTableRecord
100
AcDbLayerTableRecord
  2
A-PLUM
 70
0
 62
140
  6
Continuous
370
-3
390
13
347
21
  0
ENDTAB
  0
TABLE
  2
STYLE
  5
5
330
0
100
AcDbSymbolTable
 70
2
  0
STYLE
  5
29
330
5
100
AcDbSymbolTableRecord
100
AcDbTextStyleTableRecord
  2
Standard
 70
0
 40
0.0
 41
1.0
 50
0.0
 71
0
 42
2.5
  3
txt
  4

  0
STYLE
  5
3C
330
5
100
AcDbSymbolTableRecord
100
AcDbTextStyleTableRecord
  2
CN
 70
0
 40
0.0
 41
1.0
 50
0.0
 71
0
 42
2.5
  3
PingFang SC
  4

  0
ENDTAB
  0
TABLE
  2
VIEW
  5
7
330
0
100
AcDbSymbolTable
 70
0
  0
ENDTAB
  0
TABLE
  2
UCS
  5
6
330
0
100
AcDbSymbolTable
 70
0
  0
ENDTAB
  0
TABLE
  2
APPID
  5
3
330
0
100
AcDbSymbolTable
 70
3
  0
APPID
  5
2A
330
3
100
AcDbSymbolTableRecord
100
AcDbRegAppTableRecord
  2
ACAD
 70
0
  0
APPID
  5
F2
330
3
100
AcDbSymbolTableRecord
100
AcDbRegAppTableRecord
  2
HATCHBACKGROUNDCOLOR
 70
0
  0
APPID
  5
F3
330
3
100
AcDbSymbolTableRecord
100
AcDbRegAppTableRecord
  2
EZDXF
 70
0
  0
ENDTAB
  0
TABLE
  2
DIMSTYLE
  5
4
330
0
100
AcDbSymbolTable
 70
2
100
AcDbDimStyleTable
  0
DIMSTYLE
105
2B
330
4
100
AcDbSymbolTableRecord
100
AcDbDimStyleTableRecord
  2
Standard
 70
0
 40
1.0
 41
2.5
 42
0.625
 43
3.75
 44
1.25
 45
0.0
 46
0.0
 47
0.0
 48
0.0
 49
2.5
140
2.5
141
2.5
142
0.0
143
0.03937007874
144
1.0
145
0.0
146
1.0
147
0.625
148
0.0
 69
0
 70
0
 71
0
 72
0
 73
0
 74
0
 75
0
 76
0
 77
1
 78
8
 79
3
170
0
171
3
172
1
173
0
174
0
175
0
176
0
177
0
178
0
179
2
271
2
272
2
273
2
274
3
275
0
276
0
277
2
278
44
279
0
280
0
281
0
282
0
283
0
284
8
285
0
286
0
288
0
289
3
290
0
371
-2
372
-2
  0
DIMSTYLE
105
3D
330
4
100
AcDbSymbolTableRecord
100
AcDbDimStyleTableRecord
  2
ARCH
 70
0
 40
1.0
 41
140.0
 42
60.0
 43
3.75
 44
120.0
 45
0.0
 46
0.0
 47
0.0
 48
0.0
 49
2.5
140
200.0
141
2.5
142
0.0
143
0.03937007874
144
1.0
145
0.0
146
1.0
147
60.0
148
0.0
 69
0
 70
0
 71
0
 72
0
 73
0
 74
0
 75
0
 76
0
 77
1
 78
8
 79
3
170
0
171
3
172
1
173
0
174
0
175
0
176
0
177
0
178
0
179
2
271
0
272
2
273
2
274
3
275
0
276
0
277
2
278
44
279
0
280
0
281
0
282
0
283
0
284
8
285
0
286
0
288
0
289
3
290
0
340
3C
342
F5
371
-2
372
-2
  0
ENDTAB
  0
TABLE
  2
BLOCK_RECORD
  5
9
330
0
100
AcDbSymbolTable
 70
3
  0
BLOCK_RECORD
  5
17
330
9
100
AcDbSymbolTableRecord
100
AcDbBlockTableRecord
  2
*Model_Space
340
1A
 70
0
280
1
281
0
  0
BLOCK_RECORD
  5
1B
330
9
100
AcDbSymbolTableRecord
100
AcDbBlockTableRecord
  2
*Paper_Space
340
1E
 70
0
280
1
281
0
  0
BLOCK_RECORD
  5
F5
330
9
100
AcDbSymbolTableRecord
100
AcDbBlockTableRecord
  2
_ARCHTICK
340
0
 70
0
280
1
281
0
  0
ENDTAB
  0
ENDSEC
  0
SECTION
  2
BLOCKS
  0
BLOCK
  5
18
330
17
100
AcDbEntity
  8
0
100
AcDbBlockBegin
  2
*Model_Space
 70
0
 10
0.0
 20
0.0
 30
0.0
  3
*Model_Space
  1

  0
ENDBLK
  5
19
330
17
100
AcDbEntity
  8
0
100
AcDbBlockEnd
  0
BLOCK
  5
1C
330
1B
100
AcDbEntity
  8
0
100
AcDbBlockBegin
  2
*Paper_Space
 70
0
 10
0.0
 20
0.0
 30
0.0
  3
*Paper_Space
  1

  0
ENDBLK
  5
1D
330
1B
100
AcDbEntity
  8
0
100
AcDbBlockEnd
  0
BLOCK
  5
F6
330
F5
100
AcDbEntity
  8
0
100
AcDbBlockBegin
  2
_ARCHTICK
 70
0
 10
0.0
 20
0.0
 30
0.0
  3
_ARCHTICK
  1

  0
LWPOLYLINE
  5
F8
330
F5
100
AcDbEntity
  8
0
  6
BYBLOCK
 62
0
100
AcDbPolyline
 90
2
 70
0
 43
0.15
 10
-0.5
 20
-0.5
 10
0.5
 20
0.5
  0
ENDBLK
  5
F7
330
F5
100
AcDbEntity
  8
0
100
AcDbBlockEnd
  0
ENDSEC
  0
SECTION
  2
ENTITIES
  0
TEXT
  5
3E
330
17
100
AcDbEntity
  8
A-TEXT
420
1184274
100
AcDbText
 10
0.0
 20
600.0
 30
0.0
 40
180.0
  1
门表（门扇高 H2100 常规，待确认）
  7
CN
 11
0.0
 21
600.0
 31
0.0
100
AcDbText
  0
LWPOLYLINE
  5
3F
330
17
100
AcDbEntity
  8
A-FRAME
420
1184274
100
AcDbPolyline
 90
4
 70
1
 10
0.0
 20
0.0
 10
9000.0
 20
0.0
 10
9000.0
 20
-2640.0
 10
0.0
 20
-2640.0
  0
LINE
  5
40
330
17
100
AcDbEntity
  8
A-FRAME
100
AcDbLine
 10
0.0
 20
-330.0
 30
0.0
 11
9000.0
 21
-330.0
 31
0.0
  0
LINE
  5
41
330
17
100
AcDbEntity
  8
A-FRAME
100
AcDbLine
 10
0.0
 20
-660.0
 30
0.0
 11
9000.0
 21
-660.0
 31
0.0
  0
LINE
  5
42
330
17
100
AcDbEntity
  8
A-FRAME
100
AcDbLine
 10
0.0
 20
-990.0
 30
0.0
 11
9000.0
 21
-990.0
 31
0.0
  0
LINE
  5
43
330
17
100
AcDbEntity
  8
A-FRAME
100
AcDbLine
 10
0.0
 20
-1320.0
 30
0.0
 11
9000.0
 21
-1320.0
 31
0.0
  0
LINE
  5
44
330
17
100
AcDbEntity
  8
A-FRAME
100
AcDbLine
 10
0.0
 20
-1650.0
 30
0.0
 11
9000.0
 21
-1650.0
 31
0.0
  0
LINE
  5
45
330
17
100
AcDbEntity
  8
A-FRAME
100
AcDbLine
 10
0.0
 20
-1980.0
 30
0.0
 11
9000.0
 21
-1980.0
 31
0.0
  0
LINE
  5
46
330
17
100
AcDbEntity
  8
A-FRAME
100
AcDbLine
 10
0.0
 20
-2310.0
 30
0.0
 11
9000.0
 21
-2310.0
 31
0.0
  0
LINE
  5
47
330
17
100
AcDbEntity
  8
A-FRAME
100
AcDbLine
 10
700.0
 20
0.0
 30
0.0
 11
700.0
 21
-2640.0
 31
0.0
  0
LINE
  5
48
330
17
100
AcDbEntity
  8
A-FRAME
100
AcDbLine
 10
2300.0
 20
0.0
 30
0.0
 11
2300.0
 21
-2640.0
 31
0.0
  0
LINE
  5
49
330
17
100
AcDbEntity
  8
A-FRAME
100
AcDbLine
 10
3400.0
 20
0.0
 30
0.0
 11
3400.0
 21
-2640.0
 31
0.0
  0
LINE
  5
4A
330
17
100
AcDbEntity
  8
A-FRAME
100
AcDbLine
 10
5600.0
 20
0.0
 30
0.0
 11
5600.0
 21
-2640.0
 31
0.0
  0
TEXT
  5
4B
330
17
100
AcDbEntity
  8
A-TEXT
420
1184274
100
AcDbText
 10
350.0
 20
-165.0
 30
0.0
 40
120.0
  1
编号
  7
CN
 72
1
 11
350.0
 21
-165.0
 31
0.0
100
AcDbText
 73
2
  0
TEXT
  5
4C
330
17
100
AcDbEntity
  8
A-TEXT
420
1184274
100
AcDbText
 10
1500.0
 20
-165.0
 30
0.0
 40
120.0
  1
位置
  7
CN
 72
1
 11
1500.0
 21
-165.0
 31
0.0
100
AcDbText
 73
2
  0
TEXT
  5
4D
330
17
100
AcDbEntity
  8
A-TEXT
420
1184274
100
AcDbText
 10
2850.0
 20
-165.0
 30
0.0
 40
120.0
  1
洞宽mm
  7
CN
 72
1
 11
2850.0
 21
-165.0
 31
0.0
100
AcDbText
 73
2
  0
TEXT
  5
4E
330
17
100
AcDbEntity
  8
A-TEXT
420
1184274
100
AcDbText
 10
4500.0
 20
-165.0
 30
0.0
 40
120.0
  1
形式
  7
CN
 72
1
 11
4500.0
 21
-165.0
 31
0.0
100
AcDbText
 73
2
  0
TEXT
  5
4F
330
17
100
AcDbEntity
  8
A-TEXT
420
1184274
100
AcDbText
 10
7300.0
 20
-165.0
 30
0.0
 40
120.0
  1
备注
  7
CN
 72
1
 11
7300.0
 21
-165.0
 31
0.0
100
AcDbText
 73
2
  0
TEXT
  5
50
330
17
100
AcDbEntity
  8
A-TEXT
420
1184274
100
AcDbText
 10
350.0
 20
-495.0
 30
0.0
 40
105.0
  1
D1
  7
CN
 72
1
 11
350.0
 21
-495.0
 31
0.0
100
AcDbText
 73
2
  0
TEXT
  5
51
330
17
100
AcDbEntity
  8
A-TEXT
420
1184274
100
AcDbText
 10
1500.0
 20
-495.0
 30
0.0
 40
105.0
  1
入户门
  7
CN
 72
1
 11
1500.0
 21
-495.0
 31
0.0
100
AcDbText
 73
2
  0
TEXT
  5
52
330
17
100
AcDbEntity
  8
A-TEXT
420
1184274
100
AcDbText
 10
2850.0
 20
-495.0
 30
0.0
 40
105.0
  1
795
  7
CN
 72
1
 11
2850.0
 21
-495.0
 31
0.0
100
AcDbText
 73
2
  0
TEXT
  5
53
330
17
100
AcDbEntity
  8
A-TEXT
420
1184274
100
AcDbText
 10
4500.0
 20
-495.0
 30
0.0
 40
105.0
  1
平开木门
  7
CN
 72
1
 11
4500.0
 21
-495.0
 31
0.0
100
AcDbText
 73
2
  0
TEXT
  5
54
330
17
100
AcDbEntity
  8
A-TEXT
420
1184274
100
AcDbText
 10
7300.0
 20
-495.0
 30
0.0
 40
105.0
  1
洞宽按平面图，现场复尺
  7
CN
 72
1
 11
7300.0
 21
-495.0
 31
0.0
100
AcDbText
 73
2
  0
TEXT
  5
55
330
17
100
AcDbEntity
  8
A-TEXT
420
1184274
100
AcDbText
 10
350.0
 20
-825.0
 30
0.0
 40
105.0
  1
D2
  7
CN
 72
1
 11
350.0
 21
-825.0
 31
0.0
100
AcDbText
 73
2
  0
TEXT
  5
56
330
17
100
AcDbEntity
  8
A-TEXT
420
1184274
100
AcDbText
 10
1500.0
 20
-825.0
 30
0.0
 40
105.0
  1
次卧一门
  7
CN
 72
1
 11
1500.0
 21
-825.0
 31
0.0
100
AcDbText
 73
2
  0
TEXT
  5
57
330
17
100
AcDbEntity
  8
A-TEXT
420
1184274
100
AcDbText
 10
2850.0
 20
-825.0
 30
0.0
 40
105.0
  1
795
  7
CN
 72
1
 11
2850.0
 21
-825.0
 31
0.0
100
AcDbText
 73
2
  0
TEXT
  5
58
330
17
100
AcDbEntity
  8
A-TEXT
420
1184274
100
AcDbText
 10
4500.0
 20
-825.0
 30
0.0
 40
105.0
  1
平开木门
  7
CN
 72
1
 11
4500.0
 21
-825.0
 31
0.0
100
AcDbText
 73
2
  0
TEXT
  5
59
330
17
100
AcDbEntity
  8
A-TEXT
420
1184274
100
AcDbText
 10
7300.0
 20
-825.0
 30
0.0
 40
105.0
  1
洞宽按平面图，现场复尺
  7
CN
 72
1
 11
7300.0
 21
-825.0
 31
0.0
100
AcDbText
 73
2
  0
TEXT
  5
5A
330
17
100
AcDbEntity
  8
A-TEXT
420
1184274
100
AcDbText
 10
350.0
 20
-1155.0
 30
0.0
 40
105.0
  1
D3
  7
CN
 72
1
 11
350.0
 21
-1155.0
 31
0.0
100
AcDbText
 73
2
  0
TEXT
  5
5B
330
17
100
AcDbEntity
  8
A-TEXT
420
1184274
100
AcDbText
 10
1500.0
 20
-1155.0
 30
0.0
 40
105.0
  1
次卧二门
  7
CN
 72
1
 11
1500.0
 21
-1155.0
 31
0.0
100
AcDbText
 73
2
  0
TEXT
  5
5C
330
17
100
AcDbEntity
  8
A-TEXT
420
1184274
100
AcDbText
 10
2850.0
 20
-1155.0
 30
0.0
 40
105.0
  1
815
  7
CN
 72
1
 11
2850.0
 21
-1155.0
 31
0.0
100
AcDbText
 73
2
  0
TEXT
  5
5D
330
17
100
AcDbEntity
  8
A-TEXT
420
1184274
100
AcDbText
 10
4500.0
 20
-1155.0
 30
0.0
 40
105.0
  1
平开木门
  7
CN
 72
1
 11
4500.0
 21
-1155.0
 31
0.0
100
AcDbText
 73
2
  0
TEXT
  5
5E
330
17
100
AcDbEntity
  8
A-TEXT
420
1184274
100
AcDbText
 10
7300.0
 20
-1155.0
 30
0.0
 40
105.0
  1
洞宽按平面图，现场复尺
  7
CN
 72
1
 11
7300.0
 21
-1155.0
 31
0.0
100
AcDbText
 73
2
  0
TEXT
  5
5F
330
17
100
AcDbEntity
  8
A-TEXT
420
1184274
100
AcDbText
 10
350.0
 20
-1485.0
 30
0.0
 40
105.0
  1
D4
  7
CN
 72
1
 11
350.0
 21
-1485.0
 31
0.0
100
AcDbText
 73
2
  0
TEXT
  5
60
330
17
100
AcDbEntity
  8
A-TEXT
420
1184274
100
AcDbText
 10
1500.0
 20
-1485.0
 30
0.0
 40
105.0
  1
主卧门
  7
CN
 72
1
 11
1500.0
 21
-1485.0
 31
0.0
100
AcDbText
 73
2
  0
TEXT
  5
61
330
17
100
AcDbEntity
  8
A-TEXT
420
1184274
100
AcDbText
 10
2850.0
 20
-1485.0
 30
0.0
 40
105.0
  1
815
  7
CN
 72
1
 11
2850.0
 21
-1485.0
 31
0.0
100
AcDbText
 73
2
  0
TEXT
  5
62
330
17
100
AcDbEntity
  8
A-TEXT
420
1184274
100
AcDbText
 10
4500.0
 20
-1485.0
 30
0.0
 40
105.0
  1
平开木门
  7
CN
 72
1
 11
4500.0
 21
-1485.0
 31
0.0
100
AcDbText
 73
2
  0
TEXT
  5
63
330
17
100
AcDbEntity
  8
A-TEXT
420
1184274
100
AcDbText
 10
7300.0
 20
-1485.0
 30
0.0
 40
105.0
  1
洞宽按平面图，现场复尺
  7
CN
 72
1
 11
7300.0
 21
-1485.0
 31
0.0
100
AcDbText
 73
2
  0
TEXT
  5
64
330
17
100
AcDbEntity
  8
A-TEXT
420
1184274
100
AcDbText
 10
350.0
 20
-1815.0
 30
0.0
 40
105.0
  1
D5
  7
CN
 72
1
 11
350.0
 21
-1815.0
 31
0.0
100
AcDbText
 73
2
  0
TEXT
  5
65
330
17
100
AcDbEntity
  8
A-TEXT
420
1184274
100
AcDbText
 10
1500.0
 20
-1815.0
 30
0.0
 40
105.0
  1
衣帽区门
  7
CN
 72
1
 11
1500.0
 21
-1815.0
 31
0.0
100
AcDbText
 73
2
  0
TEXT
  5
66
330
17
100
AcDbEntity
  8
A-TEXT
420
1184274
100
AcDbText
 10
2850.0
 20
-1815.0
 30
0.0
 40
105.0
  1
864
  7
CN
 72
1
 11
2850.0
 21
-1815.0
 31
0.0
100
AcDbText
 73
2
  0
TEXT
  5
67
330
17
100
AcDbEntity
  8
A-TEXT
420
1184274
100
AcDbText
 10
4500.0
 20
-1815.0
 30
0.0
 40
105.0
  1
平开木门
  7
CN
 72
1
 11
4500.0
 21
-1815.0
 31
0.0
100
AcDbText
 73
2
  0
TEXT
  5
68
330
17
100
AcDbEntity
  8
A-TEXT
420
1184274
100
AcDbText
 10
7300.0
 20
-1815.0
 30
0.0
 40
105.0
  1
哑光木饰面
  7
CN
 72
1
 11
7300.0
 21
-1815.0
 31
0.0
100
AcDbText
 73
2
  0
TEXT
  5
69
330
17
100
AcDbEntity
  8
A-TEXT
420
1184274
100
AcDbText
 10
350.0
 20
-2145.0
 30
0.0
 40
105.0
  1
D6
  7
CN
 72
1
 11
350.0
 21
-2145.0
 31
0.0
100
AcDbText
 73
2
  0
TEXT
  5
6A
330
17
100
AcDbEntity
  8
A-TEXT
420
1184274
100
AcDbText
 10
1500.0
 20
-2145.0
 30
0.0
 40
105.0
  1
主卫门
  7
CN
 72
1
 11
1500.0
 21
-2145.0
 31
0.0
100
AcDbText
 73
2
  0
TEXT
  5
6B
330
17
100
AcDbEntity
  8
A-TEXT
420
1184274
100
AcDbText
 10
2850.0
 20
-2145.0
 30
0.0
 40
105.0
  1
727
  7
CN
 72
1
 11
2850.0
 21
-2145.0
 31
0.0
100
AcDbText
 73
2
  0
TEXT
  5
6C
330
17
100
AcDbEntity
  8
A-TEXT
420
1184274
100
AcDbText
 10
4500.0
 20
-2145.0
 30
0.0
 40
105.0
  1
平开门(防潮)
  7
CN
 72
1
 11
4500.0
 21
-2145.0
 31
0.0
100
AcDbText
 73
2
  0
TEXT
  5
6D
330
17
100
AcDbEntity
  8
A-TEXT
420
1184274
100
AcDbText
 10
7300.0
 20
-2145.0
 30
0.0
 40
105.0
  1
洞宽按平面图，现场复尺
  7
CN
 72
1
 11
7300.0
 21
-2145.0
 31
0.0
100
AcDbText
 73
2
  0
TEXT
  5
6E
330
17
100
AcDbEntity
  8
A-TEXT
420
1184274
100
AcDbText
 10
350.0
 20
-2475.0
 30
0.0
 40
105.0
  1
D7
  7
CN
 72
1
 11
350.0
 21
-2475.0
 31
0.0
100
AcDbText
 73
2
  0
TEXT
  5
6F
330
17
100
AcDbEntity
  8
A-TEXT
420
1184274
100
AcDbText
 10
1500.0
 20
-2475.0
 30
0.0
 40
105.0
  1
次卫门
  7
CN
 72
1
 11
1500.0
 21
-2475.0
 31
0.0
100
AcDbText
 73
2
  0
TEXT
  5
70
330
17
100
AcDbEntity
  8
A-TEXT
420
1184274
100
AcDbText
 10
2850.0
 20
-2475.0
 30
0.0
 40
105.0
  1
746
  7
CN
 72
1
 11
2850.0
 21
-2475.0
 31
0.0
100
AcDbText
 73
2
  0
TEXT
  5
71
330
17
100
AcDbEntity
  8
A-TEXT
420
1184274
100
AcDbText
 10
4500.0
 20
-2475.0
 30
0.0
 40
105.0
  1
平开门(防潮)
  7
CN
 72
1
 11
4500.0
 21
-2475.0
 31
0.0
100
AcDbText
 73
2
  0
TEXT
  5
72
330
17
100
AcDbEntity
  8
A-TEXT
420
1184274
100
AcDbText
 10
7300.0
 20
-2475.0
 30
0.0
 40
105.0
  1
洞宽按平面图，现场复尺
  7
CN
 72
1
 11
7300.0
 21
-2475.0
 31
0.0
100
AcDbText
 73
2
  0
TEXT
  5
73
330
17
100
AcDbEntity
  8
A-TEXT
420
1184274
100
AcDbText
 10
0.0
 20
-3540.0
 30
0.0
 40
180.0
  1
窗表
  7
CN
 11
0.0
 21
-3540.0
 31
0.0
100
AcDbText
  0
LWPOLYLINE
  5
74
330
17
100
AcDbEntity
  8
A-FRAME
420
1184274
100
AcDbPolyline
 90
4
 70
1
 10
0.0
 20
-4040.0
 10
8400.0
 20
-4040.0
 10
8400.0
 20
-8330.0
 10
0.0
 20
-8330.0
  0
LINE
  5
75
330
17
100
AcDbEntity
  8
A-FRAME
100
AcDbLine
 10
0.0
 20
-4370.0
 30
0.0
 11
8400.0
 21
-4370.0
 31
0.0
  0
LINE
  5
76
330
17
100
AcDbEntity
  8
A-FRAME
100
AcDbLine
 10
0.0
 20
-4700.0
 30
0.0
 11
8400.0
 21
-4700.0
 31
0.0
  0
LINE
  5
77
330
17
100
AcDbEntity
  8
A-FRAME
100
AcDbLine
 10
0.0
 20
-5030.0
 30
0.0
 11
8400.0
 21
-5030.0
 31
0.0
  0
LINE
  5
78
330
17
100
AcDbEntity
  8
A-FRAME
100
AcDbLine
 10
0.0
 20
-5360.0
 30
0.0
 11
8400.0
 21
-5360.0
 31
0.0
  0
LINE
  5
79
330
17
100
AcDbEntity
  8
A-FRAME
100
AcDbLine
 10
0.0
 20
-5690.0
 30
0.0
 11
8400.0
 21
-5690.0
 31
0.0
  0
LINE
  5
7A
330
17
100
AcDbEntity
  8
A-FRAME
100
AcDbLine
 10
0.0
 20
-6020.0
 30
0.0
 11
8400.0
 21
-6020.0
 31
0.0
  0
LINE
  5
7B
330
17
100
AcDbEntity
  8
A-FRAME
100
AcDbLine
 10
0.0
 20
-6350.0
 30
0.0
 11
8400.0
 21
-6350.0
 31
0.0
  0
LINE
  5
7C
330
17
100
AcDbEntity
  8
A-FRAME
100
AcDbLine
 10
0.0
 20
-6680.0
 30
0.0
 11
8400.0
 21
-6680.0
 31
0.0
  0
LINE
  5
7D
330
17
100
AcDbEntity
  8
A-FRAME
100
AcDbLine
 10
0.0
 20
-7010.0
 30
0.0
 11
8400.0
 21
-7010.0
 31
0.0
  0
LINE
  5
7E
330
17
100
AcDbEntity
  8
A-FRAME
100
AcDbLine
 10
0.0
 20
-7340.0
 30
0.0
 11
8400.0
 21
-7340.0
 31
0.0
  0
LINE
  5
7F
330
17
100
AcDbEntity
  8
A-FRAME
100
AcDbLine
 10
0.0
 20
-7670.0
 30
0.0
 11
8400.0
 21
-7670.0
 31
0.0
  0
LINE
  5
80
330
17
100
AcDbEntity
  8
A-FRAME
100
AcDbLine
 10
0.0
 20
-8000.0
 30
0.0
 11
8400.0
 21
-8000.0
 31
0.0
  0
LINE
  5
81
330
17
100
AcDbEntity
  8
A-FRAME
100
AcDbLine
 10
700.0
 20
-4040.0
 30
0.0
 11
700.0
 21
-8330.0
 31
0.0
  0
LINE
  5
82
330
17
100
AcDbEntity
  8
A-FRAME
100
AcDbLine
 10
2300.0
 20
-4040.0
 30
0.0
 11
2300.0
 21
-8330.0
 31
0.0
  0
LINE
  5
83
330
17
100
AcDbEntity
  8
A-FRAME
100
AcDbLine
 10
3400.0
 20
-4040.0
 30
0.0
 11
3400.0
 21
-8330.0
 31
0.0
  0
TEXT
  5
84
330
17
100
AcDbEntity
  8
A-TEXT
420
1184274
100
AcDbText
 10
350.0
 20
-4205.0
 30
0.0
 40
120.0
  1
编号
  7
CN
 72
1
 11
350.0
 21
-4205.0
 31
0.0
100
AcDbText
 73
2
  0
TEXT
  5
85
330
17
100
AcDbEntity
  8
A-TEXT
420
1184274
100
AcDbText
 10
1500.0
 20
-4205.0
 30
0.0
 40
120.0
  1
位置
  7
CN
 72
1
 11
1500.0
 21
-4205.0
 31
0.0
100
AcDbText
 73
2
  0
TEXT
  5
86
330
17
100
AcDbEntity
  8
A-TEXT
420
1184274
100
AcDbText
 10
2850.0
 20
-4205.0
 30
0.0
 40
120.0
  1
洞宽mm
  7
CN
 72
1
 11
2850.0
 21
-4205.0
 31
0.0
100
AcDbText
 73
2
  0
TEXT
  5
87
330
17
100
AcDbEntity
  8
A-TEXT
420
1184274
100
AcDbText
 10
5900.0
 20
-4205.0
 30
0.0
 40
120.0
  1
备注
  7
CN
 72
1
 11
5900.0
 21
-4205.0
 31
0.0
100
AcDbText
 73
2
  0
TEXT
  5
88
330
17
100
AcDbEntity
  8
A-TEXT
420
1184274
100
AcDbText
 10
350.0
 20
-4535.0
 30
0.0
 40
105.0
  1
W1
  7
CN
 72
1
 11
350.0
 21
-4535.0
 31
0.0
100
AcDbText
 73
2
  0
TEXT
  5
89
330
17
100
AcDbEntity
  8
A-TEXT
420
1184274
100
AcDbText
 10
1500.0
 20
-4535.0
 30
0.0
 40
105.0
  1
厨房北窗
  7
CN
 72
1
 11
1500.0
 21
-4535.0
 31
0.0
100
AcDbText
 73
2
  0
TEXT
  5
8A
330
17
100
AcDbEntity
  8
A-TEXT
420
1184274
100
AcDbText
 10
2850.0
 20
-4535.0
 30
0.0
 40
105.0
  1
2700
  7
CN
 72
1
 11
2850.0
 21
-4535.0
 31
0.0
100
AcDbText
 73
2
  0
TEXT
  5
8B
330
17
100
AcDbEntity
  8
A-TEXT
420
1184274
100
AcDbText
 10
5900.0
 20
-4535.0
 30
0.0
 40
105.0
  1
原窗保留；高度/型材待确认
  7
CN
 72
1
 11
5900.0
 21
-4535.0
 31
0.0
100
AcDbText
 73
2
  0
TEXT
  5
8C
330
17
100
AcDbEntity
  8
A-TEXT
420
1184274
100
AcDbText
 10
350.0
 20
-4865.0
 30
0.0
 40
105.0
  1
W2
  7
CN
 72
1
 11
350.0
 21
-4865.0
 31
0.0
100
AcDbText
 73
2
  0
TEXT
  5
8D
330
17
100
AcDbEntity
  8
A-TEXT
420
1184274
100
AcDbText
 10
1500.0
 20
-4865.0
 30
0.0
 40
105.0
  1
厨房东窗
  7
CN
 72
1
 11
1500.0
 21
-4865.0
 31
0.0
100
AcDbText
 73
2
  0
TEXT
  5
8E
330
17
100
AcDbEntity
  8
A-TEXT
420
1184274
100
AcDbText
 10
2850.0
 20
-4865.0
 30
0.0
 40
105.0
  1
1502
  7
CN
 72
1
 11
2850.0
 21
-4865.0
 31
0.0
100
AcDbText
 73
2
  0
TEXT
  5
8F
330
17
100
AcDbEntity
  8
A-TEXT
420
1184274
100
AcDbText
 10
5900.0
 20
-4865.0
 30
0.0
 40
105.0
  1
原窗保留；高度/型材待确认
  7
CN
 72
1
 11
5900.0
 21
-4865.0
 31
0.0
100
AcDbText
 73
2
  0
TEXT
  5
90
330
17
100
AcDbEntity
  8
A-TEXT
420
1184274
100
AcDbText
 10
350.0
 20
-5195.0
 30
0.0
 40
105.0
  1
W3
  7
CN
 72
1
 11
350.0
 21
-5195.0
 31
0.0
100
AcDbText
 73
2
  0
TEXT
  5
91
330
17
100
AcDbEntity
  8
A-TEXT
420
1184274
100
AcDbText
 10
1500.0
 20
-5195.0
 30
0.0
 40
105.0
  1
次卧一北窗
  7
CN
 72
1
 11
1500.0
 21
-5195.0
 31
0.0
100
AcDbText
 73
2
  0
TEXT
  5
92
330
17
100
AcDbEntity
  8
A-TEXT
420
1184274
100
AcDbText
 10
2850.0
 20
-5195.0
 30
0.0
 40
105.0
  1
1404
  7
CN
 72
1
 11
2850.0
 21
-5195.0
 31
0.0
100
AcDbText
 73
2
  0
TEXT
  5
93
330
17
100
AcDbEntity
  8
A-TEXT
420
1184274
100
AcDbText
 10
5900.0
 20
-5195.0
 30
0.0
 40
105.0
  1
原窗保留；高度/型材待确认
  7
CN
 72
1
 11
5900.0
 21
-5195.0
 31
0.0
100
AcDbText
 73
2
  0
TEXT
  5
94
330
17
100
AcDbEntity
  8
A-TEXT
420
1184274
100
AcDbText
 10
350.0
 20
-5525.0
 30
0.0
 40
105.0
  1
W4
  7
CN
 72
1
 11
350.0
 21
-5525.0
 31
0.0
100
AcDbText
 73
2
  0
TEXT
  5
95
330
17
100
AcDbEntity
  8
A-TEXT
420
1184274
100
AcDbText
 10
1500.0
 20
-5525.0
 30
0.0
 40
105.0
  1
次卫西窗
  7
CN
 72
1
 11
1500.0
 21
-5525.0
 31
0.0
100
AcDbText
 73
2
  0
TEXT
  5
96
330
17
100
AcDbEntity
  8
A-TEXT
420
1184274
100
AcDbText
 10
2850.0
 20
-5525.0
 30
0.0
 40
105.0
  1
619
  7
CN
 72
1
 11
2850.0
 21
-5525.0
 31
0.0
100
AcDbText
 73
2
  0
TEXT
  5
97
330
17
100
AcDbEntity
  8
A-TEXT
420
1184274
100
AcDbText
 10
5900.0
 20
-5525.0
 30
0.0
 40
105.0
  1
原窗保留；高度/型材待确认
  7
CN
 72
1
 11
5900.0
 21
-5525.0
 31
0.0
100
AcDbText
 73
2
  0
TEXT
  5
98
330
17
100
AcDbEntity
  8
A-TEXT
420
1184274
100
AcDbText
 10
350.0
 20
-5855.0
 30
0.0
 40
105.0
  1
W5
  7
CN
 72
1
 11
350.0
 21
-5855.0
 31
0.0
100
AcDbText
 73
2
  0
TEXT
  5
99
330
17
100
AcDbEntity
  8
A-TEXT
420
1184274
100
AcDbText
 10
1500.0
 20
-5855.0
 30
0.0
 40
105.0
  1
主卫北窗
  7
CN
 72
1
 11
1500.0
 21
-5855.0
 31
0.0
100
AcDbText
 73
2
  0
TEXT
  5
9A
330
17
100
AcDbEntity
  8
A-TEXT
420
1184274
100
AcDbText
 10
2850.0
 20
-5855.0
 30
0.0
 40
105.0
  1
599
  7
CN
 72
1
 11
2850.0
 21
-5855.0
 31
0.0
100
AcDbText
 73
2
  0
TEXT
  5
9B
330
17
100
AcDbEntity
  8
A-TEXT
420
1184274
100
AcDbText
 10
5900.0
 20
-5855.0
 30
0.0
 40
105.0
  1
原窗保留；高度/型材待确认
  7
CN
 72
1
 11
5900.0
 21
-5855.0
 31
0.0
100
AcDbText
 73
2
  0
TEXT
  5
9C
330
17
100
AcDbEntity
  8
A-TEXT
420
1184274
100
AcDbText
 10
350.0
 20
-6185.0
 30
0.0
 40
105.0
  1
W6
  7
CN
 72
1
 11
350.0
 21
-6185.0
 31
0.0
100
AcDbText
 73
2
  0
TEXT
  5
9D
330
17
100
AcDbEntity
  8
A-TEXT
420
1184274
100
AcDbText
 10
1500.0
 20
-6185.0
 30
0.0
 40
105.0
  1
衣帽区南窗
  7
CN
 72
1
 11
1500.0
 21
-6185.0
 31
0.0
100
AcDbText
 73
2
  0
TEXT
  5
9E
330
17
100
AcDbEntity
  8
A-TEXT
420
1184274
100
AcDbText
 10
2850.0
 20
-6185.0
 30
0.0
 40
105.0
  1
1620
  7
CN
 72
1
 11
2850.0
 21
-6185.0
 31
0.0
100
AcDbText
 73
2
  0
TEXT
  5
9F
330
17
100
AcDbEntity
  8
A-TEXT
420
1184274
100
AcDbText
 10
5900.0
 20
-6185.0
 30
0.0
 40
105.0
  1
原窗保留；高度/型材待确认
  7
CN
 72
1
 11
5900.0
 21
-6185.0
 31
0.0
100
AcDbText
 73
2
  0
TEXT
  5
A0
330
17
100
AcDbEntity
  8
A-TEXT
420
1184274
100
AcDbText
 10
350.0
 20
-6515.0
 30
0.0
 40
105.0
  1
W7
  7
CN
 72
1
 11
350.0
 21
-6515.0
 31
0.0
100
AcDbText
 73
2
  0
TEXT
  5
A1
330
17
100
AcDbEntity
  8
A-TEXT
420
1184274
100
AcDbText
 10
1500.0
 20
-6515.0
 30
0.0
 40
105.0
  1
主卧南窗
  7
CN
 72
1
 11
1500.0
 21
-6515.0
 31
0.0
100
AcDbText
 73
2
  0
TEXT
  5
A2
330
17
100
AcDbEntity
  8
A-TEXT
420
1184274
100
AcDbText
 10
2850.0
 20
-6515.0
 30
0.0
 40
105.0
  1
3162
  7
CN
 72
1
 11
2850.0
 21
-6515.0
 31
0.0
100
AcDbText
 73
2
  0
TEXT
  5
A3
330
17
100
AcDbEntity
  8
A-TEXT
420
1184274
100
AcDbText
 10
5900.0
 20
-6515.0
 30
0.0
 40
105.0
  1
原窗保留；高度/型材待确认
  7
CN
 72
1
 11
5900.0
 21
-6515.0
 31
0.0
100
AcDbText
 73
2
  0
TEXT
  5
A4
330
17
100
AcDbEntity
  8
A-TEXT
420
1184274
100
AcDbText
 10
350.0
 20
-6845.0
 30
0.0
 40
105.0
  1
W8
  7
CN
 72
1
 11
350.0
 21
-6845.0
 31
0.0
100
AcDbText
 73
2
  0
TEXT
  5
A5
330
17
100
AcDbEntity
  8
A-TEXT
420
1184274
100
AcDbText
 10
1500.0
 20
-6845.0
 30
0.0
 40
105.0
  1
客厅南窗
  7
CN
 72
1
 11
1500.0
 21
-6845.0
 31
0.0
100
AcDbText
 73
2
  0
TEXT
  5
A6
330
17
100
AcDbEntity
  8
A-TEXT
420
1184274
100
AcDbText
 10
2850.0
 20
-6845.0
 30
0.0
 40
105.0
  1
2995
  7
CN
 72
1
 11
2850.0
 21
-6845.0
 31
0.0
100
AcDbText
 73
2
  0
TEXT
  5
A7
330
17
100
AcDbEntity
  8
A-TEXT
420
1184274
100
AcDbText
 10
5900.0
 20
-6845.0
 30
0.0
 40
105.0
  1
原窗保留；高度/型材待确认
  7
CN
 72
1
 11
5900.0
 21
-6845.0
 31
0.0
100
AcDbText
 73
2
  0
TEXT
  5
A8
330
17
100
AcDbEntity
  8
A-TEXT
420
1184274
100
AcDbText
 10
350.0
 20
-7175.0
 30
0.0
 40
105.0
  1
W9
  7
CN
 72
1
 11
350.0
 21
-7175.0
 31
0.0
100
AcDbText
 73
2
  0
TEXT
  5
A9
330
17
100
AcDbEntity
  8
A-TEXT
420
1184274
100
AcDbText
 10
1500.0
 20
-7175.0
 30
0.0
 40
105.0
  1
次卧二窗边南窗
  7
CN
 72
1
 11
1500.0
 21
-7175.0
 31
0.0
100
AcDbText
 73
2
  0
TEXT
  5
AA
330
17
100
AcDbEntity
  8
A-TEXT
420
1184274
100
AcDbText
 10
2850.0
 20
-7175.0
 30
0.0
 40
105.0
  1
2926
  7
CN
 72
1
 11
2850.0
 21
-7175.0
 31
0.0
100
AcDbText
 73
2
  0
TEXT
  5
AB
330
17
100
AcDbEntity
  8
A-TEXT
420
1184274
100
AcDbText
 10
5900.0
 20
-7175.0
 30
0.0
 40
105.0
  1
原窗保留；高度/型材待确认
  7
CN
 72
1
 11
5900.0
 21
-7175.0
 31
0.0
100
AcDbText
 73
2
  0
TEXT
  5
AC
330
17
100
AcDbEntity
  8
A-TEXT
420
1184274
100
AcDbText
 10
350.0
 20
-7505.0
 30
0.0
 40
105.0
  1
W10
  7
CN
 72
1
 11
350.0
 21
-7505.0
 31
0.0
100
AcDbText
 73
2
  0
TEXT
  5
AD
330
17
100
AcDbEntity
  8
A-TEXT
420
1184274
100
AcDbText
 10
1500.0
 20
-7505.0
 30
0.0
 40
105.0
  1
次卧二窗边移门
  7
CN
 72
1
 11
1500.0
 21
-7505.0
 31
0.0
100
AcDbText
 73
2
  0
TEXT
  5
AE
330
17
100
AcDbEntity
  8
A-TEXT
420
1184274
100
AcDbText
 10
2850.0
 20
-7505.0
 30
0.0
 40
105.0
  1
1404
  7
CN
 72
1
 11
2850.0
 21
-7505.0
 31
0.0
100
AcDbText
 73
2
  0
TEXT
  5
AF
330
17
100
AcDbEntity
  8
A-TEXT
420
1184274
100
AcDbText
 10
5900.0
 20
-7505.0
 30
0.0
 40
105.0
  1
原窗保留；高度/型材待确认
  7
CN
 72
1
 11
5900.0
 21
-7505.0
 31
0.0
100
AcDbText
 73
2
  0
TEXT
  5
B0
330
17
100
AcDbEntity
  8
A-TEXT
420
1184274
100
AcDbText
 10
350.0
 20
-7835.0
 30
0.0
 40
105.0
  1
W11
  7
CN
 72
1
 11
350.0
 21
-7835.0
 31
0.0
100
AcDbText
 73
2
  0
TEXT
  5
B1
330
17
100
AcDbEntity
  8
A-TEXT
420
1184274
100
AcDbText
 10
1500.0
 20
-7835.0
 30
0.0
 40
105.0
  1
客厅窗边移门
  7
CN
 72
1
 11
1500.0
 21
-7835.0
 31
0.0
100
AcDbText
 73
2
  0
TEXT
  5
B2
330
17
100
AcDbEntity
  8
A-TEXT
420
1184274
100
AcDbText
 10
2850.0
 20
-7835.0
 30
0.0
 40
105.0
  1
1601
  7
CN
 72
1
 11
2850.0
 21
-7835.0
 31
0.0
100
AcDbText
 73
2
  0
TEXT
  5
B3
330
17
100
AcDbEntity
  8
A-TEXT
420
1184274
100
AcDbText
 10
5900.0
 20
-7835.0
 30
0.0
 40
105.0
  1
原窗保留；高度/型材待确认
  7
CN
 72
1
 11
5900.0
 21
-7835.0
 31
0.0
100
AcDbText
 73
2
  0
TEXT
  5
B4
330
17
100
AcDbEntity
  8
A-TEXT
420
1184274
100
AcDbText
 10
350.0
 20
-8165.0
 30
0.0
 40
105.0
  1
W12
  7
CN
 72
1
 11
350.0
 21
-8165.0
 31
0.0
100
AcDbText
 73
2
  0
TEXT
  5
B5
330
17
100
AcDbEntity
  8
A-TEXT
420
1184274
100
AcDbText
 10
1500.0
 20
-8165.0
 30
0.0
 40
105.0
  1
厨房移门
  7
CN
 72
1
 11
1500.0
 21
-8165.0
 31
0.0
100
AcDbText
 73
2
  0
TEXT
  5
B6
330
17
100
AcDbEntity
  8
A-TEXT
420
1184274
100
AcDbText
 10
2850.0
 20
-8165.0
 30
0.0
 40
105.0
  1
1718
  7
CN
 72
1
 11
2850.0
 21
-8165.0
 31
0.0
100
AcDbText
 73
2
  0
TEXT
  5
B7
330
17
100
AcDbEntity
  8
A-TEXT
420
1184274
100
AcDbText
 10
5900.0
 20
-8165.0
 30
0.0
 40
105.0
  1
原窗保留；高度/型材待确认
  7
CN
 72
1
 11
5900.0
 21
-8165.0
 31
0.0
100
AcDbText
 73
2
  0
TEXT
  5
B8
330
17
100
AcDbEntity
  8
A-TEXT
420
1184274
100
AcDbText
 10
10500.0
 20
600.0
 30
0.0
 40
180.0
  1
主要材料表
  7
CN
 11
10500.0
 21
600.0
 31
0.0
100
AcDbText
  0
LWPOLYLINE
  5
B9
330
17
100
AcDbEntity
  8
A-FRAME
420
1184274
100
AcDbPolyline
 90
4
 70
1
 10
10500.0
 20
0.0
 10
20100.0
 20
0.0
 10
20100.0
 20
-3960.0
 10
10500.0
 20
-3960.0
  0
LINE
  5
BA
330
17
100
AcDbEntity
  8
A-FRAME
100
AcDbLine
 10
10500.0
 20
-330.0
 30
0.0
 11
20100.0
 21
-330.0
 31
0.0
  0
LINE
  5
BB
330
17
100
AcDbEntity
  8
A-FRAME
100
AcDbLine
 10
10500.0
 20
-660.0
 30
0.0
 11
20100.0
 21
-660.0
 31
0.0
  0
LINE
  5
BC
330
17
100
AcDbEntity
  8
A-FRAME
100
AcDbLine
 10
10500.0
 20
-990.0
 30
0.0
 11
20100.0
 21
-990.0
 31
0.0
  0
LINE
  5
BD
330
17
100
AcDbEntity
  8
A-FRAME
100
AcDbLine
 10
10500.0
 20
-1320.0
 30
0.0
 11
20100.0
 21
-1320.0
 31
0.0
  0
LINE
  5
BE
330
17
100
AcDbEntity
  8
A-FRAME
100
AcDbLine
 10
10500.0
 20
-1650.0
 30
0.0
 11
20100.0
 21
-1650.0
 31
0.0
  0
LINE
  5
BF
330
17
100
AcDbEntity
  8
A-FRAME
100
AcDbLine
 10
10500.0
 20
-1980.0
 30
0.0
 11
20100.0
 21
-1980.0
 31
0.0
  0
LINE
  5
C0
330
17
100
AcDbEntity
  8
A-FRAME
100
AcDbLine
 10
10500.0
 20
-2310.0
 30
0.0
 11
20100.0
 21
-2310.0
 31
0.0
  0
LINE
  5
C1
330
17
100
AcDbEntity
  8
A-FRAME
100
AcDbLine
 10
10500.0
 20
-2640.0
 30
0.0
 11
20100.0
 21
-2640.0
 31
0.0
  0
LINE
  5
C2
330
17
100
AcDbEntity
  8
A-FRAME
100
AcDbLine
 10
10500.0
 20
-2970.0
 30
0.0
 11
20100.0
 21
-2970.0
 31
0.0
  0
LINE
  5
C3
330
17
100
AcDbEntity
  8
A-FRAME
100
AcDbLine
 10
10500.0
 20
-3300.0
 30
0.0
 11
20100.0
 21
-3300.0
 31
0.0
  0
LINE
  5
C4
330
17
100
AcDbEntity
  8
A-FRAME
100
AcDbLine
 10
10500.0
 20
-3630.0
 30
0.0
 11
20100.0
 21
-3630.0
 31
0.0
  0
LINE
  5
C5
330
17
100
AcDbEntity
  8
A-FRAME
100
AcDbLine
 10
12400.0
 20
0.0
 30
0.0
 11
12400.0
 21
-3960.0
 31
0.0
  0
LINE
  5
C6
330
17
100
AcDbEntity
  8
A-FRAME
100
AcDbLine
 10
17000.0
 20
0.0
 30
0.0
 11
17000.0
 21
-3960.0
 31
0.0
  0
TEXT
  5
C7
330
17
100
AcDbEntity
  8
A-TEXT
420
1184274
100
AcDbText
 10
11450.0
 20
-165.0
 30
0.0
 40
120.0
  1
部位
  7
CN
 72
1
 11
11450.0
 21
-165.0
 31
0.0
100
AcDbText
 73
2
  0
TEXT
  5
C8
330
17
100
AcDbEntity
  8
A-TEXT
420
1184274
100
AcDbText
 10
14700.0
 20
-165.0
 30
0.0
 40
120.0
  1
材料
  7
CN
 72
1
 11
14700.0
 21
-165.0
 31
0.0
100
AcDbText
 73
2
  0
TEXT
  5
C9
330
17
100
AcDbEntity
  8
A-TEXT
420
1184274
100
AcDbText
 10
18550.0
 20
-165.0
 30
0.0
 40
120.0
  1
备注
  7
CN
 72
1
 11
18550.0
 21
-165.0
 31
0.0
100
AcDbText
 73
2
  0
TEXT
  5
CA
330
17
100
AcDbEntity
  8
A-TEXT
420
1184274
100
AcDbText
 10
11450.0
 20
-495.0
 30
0.0
 40
105.0
  1
地面·干区
  7
CN
 72
1
 11
11450.0
 21
-495.0
 31
0.0
100
AcDbText
 73
2
  0
TEXT
  5
CB
330
17
100
AcDbEntity
  8
A-TEXT
420
1184274
100
AcDbText
 10
14700.0
 20
-495.0
 30
0.0
 40
105.0
  1
橡木复合地板(白蜡木色系)
  7
CN
 72
1
 11
14700.0
 21
-495.0
 31
0.0
100
AcDbText
 73
2
  0
TEXT
  5
CC
330
17
100
AcDbEntity
  8
A-TEXT
420
1184274
100
AcDbText
 10
18550.0
 20
-495.0
 30
0.0
 40
105.0
  1
规格/铺法待确认
  7
CN
 72
1
 11
18550.0
 21
-495.0
 31
0.0
100
AcDbText
 73
2
  0
TEXT
  5
CD
330
17
100
AcDbEntity
  8
A-TEXT
420
1184274
100
AcDbText
 10
11450.0
 20
-825.0
 30
0.0
 40
105.0
  1
地面·厨房
  7
CN
 72
1
 11
11450.0
 21
-825.0
 31
0.0
100
AcDbText
 73
2
  0
TEXT
  5
CE
330
17
100
AcDbEntity
  8
A-TEXT
420
1184274
100
AcDbText
 10
14700.0
 20
-825.0
 30
0.0
 40
105.0
  1
暖灰瓷砖
  7
CN
 72
1
 11
14700.0
 21
-825.0
 31
0.0
100
AcDbText
 73
2
  0
TEXT
  5
CF
330
17
100
AcDbEntity
  8
A-TEXT
420
1184274
100
AcDbText
 10
18550.0
 20
-825.0
 30
0.0
 40
105.0
  1
规格/排版待确认
  7
CN
 72
1
 11
18550.0
 21
-825.0
 31
0.0
100
AcDbText
 73
2
  0
TEXT
  5
D0
330
17
100
AcDbEntity
  8
A-TEXT
420
1184274
100
AcDbText
 10
11450.0
 20
-1155.0
 30
0.0
 40
105.0
  1
地面·卫浴
  7
CN
 72
1
 11
11450.0
 21
-1155.0
 31
0.0
100
AcDbText
 73
2
  0
TEXT
  5
D1
330
17
100
AcDbEntity
  8
A-TEXT
420
1184274
100
AcDbText
 10
14700.0
 20
-1155.0
 30
0.0
 40
105.0
  1
暖灰防滑砖+防水
  7
CN
 72
1
 11
14700.0
 21
-1155.0
 31
0.0
100
AcDbText
 73
2
  0
TEXT
  5
D2
330
17
100
AcDbEntity
  8
A-TEXT
420
1184274
100
AcDbText
 10
18550.0
 20
-1155.0
 30
0.0
 40
105.0
  1
翻边高度待确认
  7
CN
 72
1
 11
18550.0
 21
-1155.0
 31
0.0
100
AcDbText
 73
2
  0
TEXT
  5
D3
330
17
100
AcDbEntity
  8
A-TEXT
420
1184274
100
AcDbText
 10
11450.0
 20
-1485.0
 30
0.0
 40
105.0
  1
墙面
  7
CN
 72
1
 11
11450.0
 21
-1485.0
 31
0.0
100
AcDbText
 73
2
  0
TEXT
  5
D4
330
17
100
AcDbEntity
  8
A-TEXT
420
1184274
100
AcDbText
 10
14700.0
 20
-1485.0
 30
0.0
 40
105.0
  1
乳胶漆
  7
CN
 72
1
 11
14700.0
 21
-1485.0
 31
0.0
100
AcDbText
 73
2
  0
TEXT
  5
D5
330
17
100
AcDbEntity
  8
A-TEXT
420
1184274
100
AcDbText
 10
18550.0
 20
-1485.0
 30
0.0
 40
105.0
  1
色号待确认
  7
CN
 72
1
 11
18550.0
 21
-1485.0
 31
0.0
100
AcDbText
 73
2
  0
TEXT
  5
D6
330
17
100
AcDbEntity
  8
A-TEXT
420
1184274
100
AcDbText
 10
11450.0
 20
-1815.0
 30
0.0
 40
105.0
  1
墙面·厨卫
  7
CN
 72
1
 11
11450.0
 21
-1815.0
 31
0.0
100
AcDbText
 73
2
  0
TEXT
  5
D7
330
17
100
AcDbEntity
  8
A-TEXT
420
1184274
100
AcDbText
 10
14700.0
 20
-1815.0
 30
0.0
 40
105.0
  1
墙砖
  7
CN
 72
1
 11
14700.0
 21
-1815.0
 31
0.0
100
AcDbText
 73
2
  0
TEXT
  5
D8
330
17
100
AcDbEntity
  8
A-TEXT
420
1184274
100
AcDbText
 10
18550.0
 20
-1815.0
 30
0.0
 40
105.0
  1
规格待确认
  7
CN
 72
1
 11
18550.0
 21
-1815.0
 31
0.0
100
AcDbText
 73
2
  0
TEXT
  5
D9
330
17
100
AcDbEntity
  8
A-TEXT
420
1184274
100
AcDbText
 10
11450.0
 20
-2145.0
 30
0.0
 40
105.0
  1
天花·干区
  7
CN
 72
1
 11
11450.0
 21
-2145.0
 31
0.0
100
AcDbText
 73
2
  0
TEXT
  5
DA
330
17
100
AcDbEntity
  8
A-TEXT
420
1184274
100
AcDbText
 10
14700.0
 20
-2145.0
 30
0.0
 40
105.0
  1
石膏板平吊+乳胶漆 H2600
  7
CN
 72
1
 11
14700.0
 21
-2145.0
 31
0.0
100
AcDbText
 73
2
  0
TEXT
  5
DB
330
17
100
AcDbEntity
  8
A-TEXT
420
1184274
100
AcDbText
 10
18550.0
 20
-2145.0
 30
0.0
 40
105.0
  1
见A301
  7
CN
 72
1
 11
18550.0
 21
-2145.0
 31
0.0
100
AcDbText
 73
2
  0
TEXT
  5
DC
330
17
100
AcDbEntity
  8
A-TEXT
420
1184274
100
AcDbText
 10
11450.0
 20
-2475.0
 30
0.0
 40
105.0
  1
天花·厨卫
  7
CN
 72
1
 11
11450.0
 21
-2475.0
 31
0.0
100
AcDbText
 73
2
  0
TEXT
  5
DD
330
17
100
AcDbEntity
  8
A-TEXT
420
1184274
100
AcDbText
 10
14700.0
 20
-2475.0
 30
0.0
 40
105.0
  1
铝扣板 H2400
  7
CN
 72
1
 11
14700.0
 21
-2475.0
 31
0.0
100
AcDbText
 73
2
  0
TEXT
  5
DE
330
17
100
AcDbEntity
  8
A-TEXT
420
1184274
100
AcDbText
 10
18550.0
 20
-2475.0
 30
0.0
 40
105.0
  1
规格待确认
  7
CN
 72
1
 11
18550.0
 21
-2475.0
 31
0.0
100
AcDbText
 73
2
  0
TEXT
  5
DF
330
17
100
AcDbEntity
  8
A-TEXT
420
1184274
100
AcDbText
 10
11450.0
 20
-2805.0
 30
0.0
 40
105.0
  1
柜体/门
  7
CN
 72
1
 11
11450.0
 21
-2805.0
 31
0.0
100
AcDbText
 73
2
  0
TEXT
  5
E0
330
17
100
AcDbEntity
  8
A-TEXT
420
1184274
100
AcDbText
 10
14700.0
 20
-2805.0
 30
0.0
 40
105.0
  1
哑光木饰面(白蜡木色系)
  7
CN
 72
1
 11
14700.0
 21
-2805.0
 31
0.0
100
AcDbText
 73
2
  0
TEXT
  5
E1
330
17
100
AcDbEntity
  8
A-TEXT
420
1184274
100
AcDbText
 10
18550.0
 20
-2805.0
 30
0.0
 40
105.0
  1
门板形式待确认
  7
CN
 72
1
 11
18550.0
 21
-2805.0
 31
0.0
100
AcDbText
 73
2
  0
TEXT
  5
E2
330
17
100
AcDbEntity
  8
A-TEXT
420
1184274
100
AcDbText
 10
11450.0
 20
-3135.0
 30
0.0
 40
105.0
  1
洁具
  7
CN
 72
1
 11
11450.0
 21
-3135.0
 31
0.0
100
AcDbText
 73
2
  0
TEXT
  5
E3
330
17
100
AcDbEntity
  8
A-TEXT
420
1184274
100
AcDbText
 10
14700.0
 20
-3135.0
 30
0.0
 40
105.0
  1
智能马桶×2/台盆×2/浴缸1500×700
  7
CN
 72
1
 11
14700.0
 21
-3135.0
 31
0.0
100
AcDbText
 73
2
  0
TEXT
  5
E4
330
17
100
AcDbEntity
  8
A-TEXT
420
1184274
100
AcDbText
 10
18550.0
 20
-3135.0
 30
0.0
 40
105.0
  1
品牌型号待确认
  7
CN
 72
1
 11
18550.0
 21
-3135.0
 31
0.0
100
AcDbText
 73
2
  0
TEXT
  5
E5
330
17
100
AcDbEntity
  8
A-TEXT
420
1184274
100
AcDbText
 10
11450.0
 20
-3465.0
 30
0.0
 40
105.0
  1
设备
  7
CN
 72
1
 11
11450.0
 21
-3465.0
 31
0.0
100
AcDbText
 73
2
  0
TEXT
  5
E6
330
17
100
AcDbEntity
  8
A-TEXT
420
1184274
100
AcDbText
 10
14700.0
 20
-3465.0
 30
0.0
 40
105.0
  1
多联机内机×4/洗烘/蒸烤/冰箱
  7
CN
 72
1
 11
14700.0
 21
-3465.0
 31
0.0
100
AcDbText
 73
2
  0
TEXT
  5
E7
330
17
100
AcDbEntity
  8
A-TEXT
420
1184274
100
AcDbText
 10
18550.0
 20
-3465.0
 30
0.0
 40
105.0
  1
型号待确认
  7
CN
 72
1
 11
18550.0
 21
-3465.0
 31
0.0
100
AcDbText
 73
2
  0
TEXT
  5
E8
330
17
100
AcDbEntity
  8
A-TEXT
420
1184274
100
AcDbText
 10
11450.0
 20
-3795.0
 30
0.0
 40
105.0
  1
五金
  7
CN
 72
1
 11
11450.0
 21
-3795.0
 31
0.0
100
AcDbText
 73
2
  0
TEXT
  5
E9
330
17
100
AcDbEntity
  8
A-TEXT
420
1184274
100
AcDbText
 10
14700.0
 20
-3795.0
 30
0.0
 40
105.0
  1
门锁/合页/地漏/挂件
  7
CN
 72
1
 11
14700.0
 21
-3795.0
 31
0.0
100
AcDbText
 73
2
  0
TEXT
  5
EA
330
17
100
AcDbEntity
  8
A-TEXT
420
1184274
100
AcDbText
 10
18550.0
 20
-3795.0
 30
0.0
 40
105.0
  1
待确认
  7
CN
 72
1
 11
18550.0
 21
-3795.0
 31
0.0
100
AcDbText
 73
2
  0
LWPOLYLINE
  5
EB
330
17
100
AcDbEntity
  8
A-FRAME
370
70
420
1184274
100
AcDbPolyline
 90
4
 70
1
 10
-1500.0
 20
-9830.0
 10
21000.0
 20
-9830.0
 10
21000.0
 20
1500.0
 10
-1500.0
 20
1500.0
  0
LWPOLYLINE
  5
EC
330
17
100
AcDbEntity
  8
A-FRAME
420
1184274
100
AcDbPolyline
 90
4
 70
1
 10
14800.0
 20
-9830.0
 10
21000.0
 20
-9830.0
 10
21000.0
 20
-7430.0
 10
14800.0
 20
-7430.0
  0
TEXT
  5
ED
330
17
100
AcDbEntity
  8
A-TEXT
420
1184274
100
AcDbText
 10
15050.0
 20
-7780.0
 30
0.0
 40
300.0
  1
学道街44号室内设计
  7
CN
 11
15050.0
 21
-7780.0
 31
0.0
100
AcDbText
  0
TEXT
  5
EE
330
17
100
AcDbEntity
  8
A-TEXT
420
1184274
100
AcDbText
 10
15050.0
 20
-8180.0
 30
0.0
 40
240.0
  1
门窗表·主要材料表
  7
CN
 11
15050.0
 21
-8180.0
 31
0.0
100
AcDbText
  0
TEXT
  5
EF
330
17
100
AcDbEntity
  8
A-TEXT
420
1184274
100
AcDbText
 10
15050.0
 20
-8580.0
 30
0.0
 40
180.0
  1
图号 A501   版本 v1
  7
CN
 11
15050.0
 21
-8580.0
 31
0.0
100
AcDbText
  0
TEXT
  5
F0
330
17
100
AcDbEntity
  8
A-TEXT
420
1184274
100
AcDbText
 10
15050.0
 20
-8930.0
 30
0.0
 40
150.0
  1
洞口宽按A7平面图换算，现场复尺
  7
CN
 11
15050.0
 21
-8930.0
 31
0.0
100
AcDbText
  0
TEXT
  5
F1
330
17
100
AcDbEntity
  8
A-TEXT
420
1184274
100
AcDbText
 10
15050.0
 20
-9280.0
 30
0.0
 40
150.0
  1
全部选型待确认
  7
CN
 11
15050.0
 21
-9280.0
 31
0.0
100
AcDbText
  0
ENDSEC
  0
SECTION
  2
OBJECTS
  0
DICTIONARY
  5
A
330
0
100
AcDbDictionary
281
1
  3
ACAD_COLOR
350
B
  3
ACAD_GROUP
350
C
  3
ACAD_LAYOUT
350
D
  3
ACAD_MATERIAL
350
E
  3
ACAD_MLEADERSTYLE
350
F
  3
ACAD_MLINESTYLE
350
10
  3
ACAD_PLOTSETTINGS
350
11
  3
ACAD_PLOTSTYLENAME
350
12
  3
ACAD_SCALELIST
350
14
  3
ACAD_TABLESTYLE
350
15
  3
ACAD_VISUALSTYLE
350
16
  3
EZDXF_META
350
2D
  0
DICTIONARY
  5
B
330
A
100
AcDbDictionary
281
1
  0
DICTIONARY
  5
C
330
A
100
AcDbDictionary
281
1
  0
DICTIONARY
  5
D
330
A
100
AcDbDictionary
281
1
  3
Model
350
1A
  3
Layout1
350
1E
  0
DICTIONARY
  5
E
330
A
100
AcDbDictionary
281
1
  3
ByBlock
350
1F
  3
ByLayer
350
20
  3
Global
350
21
  0
DICTIONARY
  5
F
330
A
100
AcDbDictionary
281
1
  3
Standard
350
2C
  0
DICTIONARY
  5
10
330
A
100
AcDbDictionary
281
1
  3
Standard
350
22
  0
DICTIONARY
  5
11
330
A
100
AcDbDictionary
281
1
  0
ACDBDICTIONARYWDFLT
  5
12
330
A
100
AcDbDictionary
281
1
  3
Normal
350
13
100
AcDbDictionaryWithDefault
340
13
  0
ACDBPLACEHOLDER
  5
13
330
12
  0
DICTIONARY
  5
14
330
A
100
AcDbDictionary
281
1
  0
DICTIONARY
  5
15
330
A
100
AcDbDictionary
281
1
  0
DICTIONARY
  5
16
330
A
100
AcDbDictionary
281
1
  0
LAYOUT
  5
1A
330
D
100
AcDbPlotSettings
  1

  4
A3
  6

 40
7.5
 41
20.0
 42
7.5
 43
20.0
 44
420.0
 45
297.0
 46
0.0
 47
0.0
 48
0.0
 49
0.0
140
0.0
141
0.0
142
1.0
143
1.0
 70
1024
 72
1
 73
0
 74
5
  7

 75
16
 76
0
 77
2
 78
300
147
1.0
148
0.0
149
0.0
100
AcDbLayout
  1
Model
 70
1
 71
0
 10
0.0
 20
0.0
 11
420.0
 21
297.0
 12
0.0
 22
0.0
 32
0.0
 14
1e+20
 24
1e+20
 34
1e+20
 15
-1e+20
 25
-1e+20
 35
-1e+20
146
0.0
 13
0.0
 23
0.0
 33
0.0
 16
1.0
 26
0.0
 36
0.0
 17
0.0
 27
1.0
 37
0.0
 76
1
330
17
  0
LAYOUT
  5
1E
330
D
100
AcDbPlotSettings
  1

  4
A3
  6

 40
7.5
 41
20.0
 42
7.5
 43
20.0
 44
420.0
 45
297.0
 46
0.0
 47
0.0
 48
0.0
 49
0.0
140
0.0
141
0.0
142
1.0
143
1.0
 70
0
 72
1
 73
0
 74
5
  7

 75
16
 76
0
 77
2
 78
300
147
1.0
148
0.0
149
0.0
100
AcDbLayout
  1
Layout1
 70
1
 71
1
 10
0.0
 20
0.0
 11
420.0
 21
297.0
 12
0.0
 22
0.0
 32
0.0
 14
1e+20
 24
1e+20
 34
1e+20
 15
-1e+20
 25
-1e+20
 35
-1e+20
146
0.0
 13
0.0
 23
0.0
 33
0.0
 16
1.0
 26
0.0
 36
0.0
 17
0.0
 27
1.0
 37
0.0
 76
1
330
1B
  0
MATERIAL
  5
1F
102
{ACAD_REACTORS
330
E
102
}
330
E
100
AcDbMaterial
  1
ByBlock
  2

 70
0
 40
1.0
 71
1
 41
1.0
 91
-1023410177
 42
1.0
 72
1
  3

 73
1
 74
1
 75
1
 44
0.5
 73
0
 45
1.0
 46
1.0
 77
1
  4

 78
1
 79
1
170
1
 48
1.0
171
1
  6

172
1
173
1
174
1
140
1.0
141
1.0
175
1
  7

176
1
177
1
178
1
143
1.0
179
1
  8

270
1
271
1
272
1
145
1.0
146
1.0
273
1
  9

274
1
275
1
276
1
 42
1.0
 72
1
  3

 73
1
 74
1
 75
1
 94
63
  0
MATERIAL
  5
20
102
{ACAD_REACTORS
330
E
102
}
330
E
100
AcDbMaterial
  1
ByLayer
  2

 70
0
 40
1.0
 71
1
 41
1.0
 91
-1023410177
 42
1.0
 72
1
  3

 73
1
 74
1
 75
1
 44
0.5
 73
0
 45
1.0
 46
1.0
 77
1
  4

 78
1
 79
1
170
1
 48
1.0
171
1
  6

172
1
173
1
174
1
140
1.0
141
1.0
175
1
  7

176
1
177
1
178
1
143
1.0
179
1
  8

270
1
271
1
272
1
145
1.0
146
1.0
273
1
  9

274
1
275
1
276
1
 42
1.0
 72
1
  3

 73
1
 74
1
 75
1
 94
63
  0
MATERIAL
  5
21
102
{ACAD_REACTORS
330
E
102
}
330
E
100
AcDbMaterial
  1
Global
  2

 70
0
 40
1.0
 71
1
 41
1.0
 91
-1023410177
 42
1.0
 72
1
  3

 73
1
 74
1
 75
1
 44
0.5
 73
0
 45
1.0
 46
1.0
 77
1
  4

 78
1
 79
1
170
1
 48
1.0
171
1
  6

172
1
173
1
174
1
140
1.0
141
1.0
175
1
  7

176
1
177
1
178
1
143
1.0
179
1
  8

270
1
271
1
272
1
145
1.0
146
1.0
273
1
  9

274
1
275
1
276
1
 42
1.0
 72
1
  3

 73
1
 74
1
 75
1
 94
63
  0
MLINESTYLE
  5
22
102
{ACAD_REACTORS
330
10
102
}
330
10
100
AcDbMlineStyle
  2
Standard
 70
0
  3

 62
256
 51
90.0
 52
90.0
 71
2
 49
0.5
 62
256
  6
BYLAYER
 49
-0.5
 62
256
  6
BYLAYER
  0
MLEADERSTYLE
  5
2C
102
{ACAD_REACTORS
330
F
102
}
330
F
100
AcDbMLeaderStyle
179
2
170
2
171
1
172
0
 90
2
 40
0.0
 41
0.0
173
1
 91
-1056964608
 92
-2
290
1
 42
2.0
291
1
 43
8.0
  3
Standard
 44
4.0
300

342
29
174
1
175
1
176
0
178
1
 93
-1056964608
 45
4.0
292
0
297
0
 46
4.0
 94
-1056964608
 47
1.0
 49
1.0
140
1.0
294
1
141
0.0
177
0
142
1.0
295
0
296
0
143
3.75
271
0
272
9
273
9
  0
DICTIONARY
  5
2D
330
A
100
AcDbDictionary
280
1
281
1
  3
CREATED_BY_EZDXF
350
2E
  3
WRITTEN_BY_EZDXF
350
F4
  0
DICTIONARYVAR
  5
2E
330
2D
100
DictionaryVariables
280
0
  1
1.4.4 @ 2026-09-14T14:12:49.952573+00:00
  0
DICTIONARYVAR
  5
F4
330
2D
100
DictionaryVariables
280
0
  1
1.4.4 @ 2026-09-14T14:12:49.955513+00:00
  0
ENDSEC
  0
EOF
