# Created by FreeCAD <https://www.freecad.org>
v 5793.799805 11705.440430 0.000000
v 1993.459961 11705.440430 0.000000
v 1993.459961 11705.440430 35.000000
v 5793.799805 11705.440430 35.000000
v 5793.799805 10085.139648 0.000000
v 5793.799805 10085.139648 35.000000
v 9662.879883 10085.139648 0.000000
v 9662.879883 10085.139648 35.000000
v 9662.879883 6510.660156 0.000000
v 9662.879883 6510.660156 35.000000
v 9427.200195 6510.660156 0.000000
v 9427.200195 6510.660156 35.000000
v 9427.200195 5666.140137 35.000000
v 9427.200195 5666.140137 0.000000
v 12618.700195 5666.140137 0.000000
v 12618.700195 5666.140137 35.000000
v 12618.700195 0.000000 0.000000
v 12618.700195 0.000000 35.000000
v 1993.459961 0.000000 0.000000
v 1993.459961 0.000000 35.000000
v 1993.459961 2052.379883 0.000000
v 1993.459961 2052.379883 35.000000
v 0.000000 2052.379883 0.000000
v 0.000000 2052.379883 35.000000
v 0.000000 7885.459961 35.000000
v 0.000000 7885.459961 0.000000
v 1993.459961 7885.459961 0.000000
v 1993.459961 7885.459961 35.000000
v 5685.779785 11587.599609 35.000000
v 2111.300049 11587.599609 35.000000
v 2111.300049 11587.599609 60.000000
v 5685.779785 11587.599609 60.000000
v 5685.779785 10085.139648 35.000000
v 5685.779785 10085.139648 60.000000
v 2111.300049 10085.139648 35.000000
v 2111.300049 10085.139648 60.000000
v 3731.600098 9849.459961 35.000000
v 2238.959961 9849.459961 35.000000
v 2238.959961 9849.459961 60.000000
v 3731.600098 9849.459961 60.000000
v 3731.600098 6815.080078 35.000000
v 3731.600098 6815.080078 60.000000
v 2238.959961 6815.080078 35.000000
v 2238.959961 6815.080078 60.000000
v 1993.459961 7649.779785 60.000000
v 235.679993 7649.779785 35.000000
v 235.679993 7649.779785 60.000000
v 1993.459961 7649.779785 35.000000
v 1993.459961 4851.080078 60.000000
v 1993.459961 4851.080078 35.000000
v 235.679993 4851.080078 60.000000
v 235.679993 4851.080078 35.000000
v 1993.459961 4723.419922 60.000000
v 235.679993 4723.419922 35.000000
v 235.679993 4723.419922 60.000000
v 1993.459961 4723.419922 35.000000
v 1993.459961 2297.879883 35.000000
v 1993.459961 2297.879883 60.000000
v 235.679993 2297.879883 60.000000
v 235.679993 2297.879883 35.000000
v 5558.120117 6579.399902 35.000000
v 2238.959961 6579.399902 35.000000
v 2238.959961 6579.399902 60.000000
v 5558.120117 6579.399902 60.000000
v 5558.120117 225.860001 60.000000
v 5558.120117 225.860001 35.000000
v 2238.959961 225.860001 60.000000
v 2238.959961 225.860001 35.000000
v 9427.200195 9849.459961 35.000000
v 5793.799805 9849.459961 35.000000
v 5793.799805 9849.459961 60.000000
v 9427.200195 9849.459961 60.000000
v 9427.200195 6707.060059 35.000000
v 9427.200195 6707.060059 60.000000
v 5793.799805 6707.060059 35.000000
v 5793.799805 6707.060059 60.000000
v 12353.559570 5420.640137 35.000000
v 9348.639648 5420.640137 35.000000
v 9348.639648 5420.640137 60.000000
v 12353.559570 5420.640137 60.000000
v 12353.559570 2052.379883 35.000000
v 12353.559570 2052.379883 60.000000
v 9348.639648 2052.379883 35.000000
v 9348.639648 2052.379883 60.000000
v 12353.559570 1826.520020 35.000000
v 9230.799805 1826.520020 35.000000
v 9230.799805 1826.520020 60.000000
v 12353.559570 1826.520020 60.000000
v 12353.559570 225.860001 60.000000
v 12353.559570 225.860001 35.000000
v 9230.799805 225.860001 35.000000
v 9230.799805 225.860001 60.000000
vn 0.000000 1.000000 0.000000
vn 0.000000 1.000000 -0.000000
vn 1.000000 0.000000 0.000000
vn 1.000000 0.000000 0.000000
vn 0.000000 1.000000 0.000000
vn 0.000000 1.000000 -0.000000
vn 1.000000 0.000000 0.000000
vn 1.000000 0.000000 0.000000
vn 0.000000 -1.000000 0.000000
vn 0.000000 -1.000000 0.000000
vn 1.000000 -0.000000 0.000000
vn 1.000000 0.000000 0.000000
vn 0.000000 1.000000 0.000000
vn 0.000000 1.000000 -0.000000
vn 1.000000 0.000000 0.000000
vn 1.000000 0.000000 0.000000
vn 0.000000 -1.000000 0.000000
vn 0.000000 -1.000000 0.000000
vn -1.000000 0.000000 0.000000
vn -1.000000 0.000000 0.000000
vn 0.000000 -1.000000 0.000000
vn 0.000000 -1.000000 0.000000
vn -1.000000 -0.000000 0.000000
vn -1.000000 0.000000 0.000000
vn 0.000000 1.000000 0.000000
vn 0.000000 1.000000 -0.000000
vn -1.000000 -0.000000 0.000000
vn -1.000000 0.000000 0.000000
vn 0.000000 0.000000 -1.000000
vn 0.000000 0.000000 -1.000000
vn 0.000000 0.000000 -1.000000
vn 0.000000 -0.000000 -1.000000
vn 0.000000 0.000000 -1.000000
vn 0.000000 0.000000 -1.000000
vn 0.000000 0.000000 -1.000000
vn 0.000000 0.000000 -1.000000
vn 0.000000 0.000000 -1.000000
vn 0.000000 0.000000 -1.000000
vn 0.000000 0.000000 -1.000000
vn 0.000000 0.000000 -1.000000
vn 0.000000 0.000000 1.000000
vn 0.000000 0.000000 1.000000
vn 0.000000 0.000000 1.000000
vn 0.000000 -0.000000 1.000000
vn 0.000000 0.000000 1.000000
vn 0.000000 0.000000 1.000000
vn 0.000000 0.000000 1.000000
vn 0.000000 0.000000 1.000000
vn 0.000000 0.000000 1.000000
vn 0.000000 0.000000 1.000000
vn 0.000000 0.000000 1.000000
vn 0.000000 0.000000 1.000000
vn 0.000000 1.000000 0.000000
vn 0.000000 1.000000 -0.000000
vn 1.000000 0.000000 0.000000
vn 1.000000 0.000000 0.000000
vn 0.000000 -1.000000 0.000000
vn 0.000000 -1.000000 0.000000
vn -1.000000 0.000000 0.000000
vn -1.000000 0.000000 0.000000
vn 0.000000 0.000000 -1.000000
vn 0.000000 0.000000 -1.000000
vn 0.000000 0.000000 1.000000
vn 0.000000 0.000000 1.000000
vn 0.000000 1.000000 0.000000
vn 0.000000 1.000000 -0.000000
vn 1.000000 0.000000 0.000000
vn 1.000000 0.000000 0.000000
vn 0.000000 -1.000000 0.000000
vn 0.000000 -1.000000 0.000000
vn -1.000000 0.000000 0.000000
vn -1.000000 0.000000 0.000000
vn 0.000000 0.000000 -1.000000
vn 0.000000 0.000000 -1.000000
vn 0.000000 0.000000 1.000000
vn 0.000000 0.000000 1.000000
vn 0.000000 1.000000 0.000000
vn 0.000000 1.000000 -0.000000
vn 1.000000 -0.000000 0.000000
vn 1.000000 0.000000 0.000000
vn 0.000000 -1.000000 0.000000
vn 0.000000 -1.000000 0.000000
vn -1.000000 -0.000000 0.000000
vn -1.000000 0.000000 0.000000
vn 0.000000 -0.000000 -1.000000
vn 0.000000 0.000000 -1.000000
vn 0.000000 -0.000000 1.000000
vn 0.000000 0.000000 1.000000
vn 0.000000 1.000000 0.000000
vn 0.000000 1.000000 -0.000000
vn 1.000000 0.000000 0.000000
vn 1.000000 0.000000 0.000000
vn 0.000000 -1.000000 0.000000
vn 0.000000 -1.000000 0.000000
vn -1.000000 -0.000000 0.000000
vn -1.000000 0.000000 0.000000
vn 0.000000 0.000000 -1.000000
vn 0.000000 0.000000 -1.000000
vn 0.000000 0.000000 1.000000
vn 0.000000 0.000000 1.000000
vn 0.000000 1.000000 0.000000
vn 0.000000 1.000000 -0.000000
vn 1.000000 -0.000000 0.000000
vn 1.000000 0.000000 0.000000
vn 0.000000 -1.000000 0.000000
vn 0.000000 -1.000000 0.000000
vn -1.000000 -0.000000 0.000000
vn -1.000000 0.000000 0.000000
vn 0.000000 0.000000 -1.000000
vn 0.000000 0.000000 -1.000000
vn 0.000000 0.000000 1.000000
vn 0.000000 0.000000 1.000000
vn 0.000000 1.000000 0.000000
vn 0.000000 1.000000 -0.000000
vn 1.000000 0.000000 0.000000
vn 1.000000 0.000000 0.000000
vn 0.000000 -1.000000 0.000000
vn 0.000000 -1.000000 0.000000
vn -1.000000 -0.000000 0.000000
vn -1.000000 0.000000 0.000000
vn 0.000000 0.000000 -1.000000
vn 0.000000 0.000000 -1.000000
vn 0.000000 0.000000 1.000000
vn 0.000000 0.000000 1.000000
vn 0.000000 1.000000 0.000000
vn 0.000000 1.000000 -0.000000
vn 1.000000 0.000000 0.000000
vn 1.000000 0.000000 0.000000
vn 0.000000 -1.000000 0.000000
vn 0.000000 -1.000000 0.000000
vn -1.000000 0.000000 0.000000
vn -1.000000 0.000000 0.000000
vn 0.000000 0.000000 -1.000000
vn 0.000000 0.000000 -1.000000
vn 0.000000 0.000000 1.000000
vn 0.000000 0.000000 1.000000
vn 0.000000 1.000000 0.000000
vn 0.000000 1.000000 -0.000000
vn 1.000000 -0.000000 0.000000
vn 1.000000 0.000000 0.000000
vn 0.000000 -1.000000 0.000000
vn 0.000000 -1.000000 0.000000
vn -1.000000 -0.000000 0.000000
vn -1.000000 0.000000 0.000000
vn 0.000000 0.000000 -1.000000
vn 0.000000 0.000000 -1.000000
vn 0.000000 0.000000 1.000000
vn 0.000000 0.000000 1.000000
g \u5168\u5c4b\u5730\u9762\xb7A7 \u5916\u8f6e\u5ed3
f 1//1 2//1 3//1
f 1//2 3//2 4//2
f 5//3 1//3 4//3
f 5//4 4//4 6//4
f 7//5 5//5 6//5
f 7//6 6//6 8//6
f 9//7 7//7 8//7
f 9//8 8//8 10//8
f 11//9 9//9 10//9
f 11//10 10//10 12//10
f 13//11 11//11 12//11
f 14//12 11//12 13//12
f 15//13 14//13 13//13
f 15//14 13//14 16//14
f 17//15 15//15 16//15
f 17//16 16//16 18//16
f 19//17 17//17 18//17
f 19//18 18//18 20//18
f 21//19 19//19 20//19
f 21//20 20//20 22//20
f 23//21 21//21 22//21
f 23//22 22//22 24//22
f 25//23 23//23 24//23
f 26//24 23//24 25//24
f 27//25 26//25 25//25
f 27//26 25//26 28//26
f 3//27 27//27 28//27
f 2//28 27//28 3//28
f 14//29 15//29 17//29
f 19//30 14//30 17//30
f 21//31 14//31 19//31
f 7//32 9//32 11//32
f 5//33 7//33 11//33
f 27//34 11//34 14//34
f 27//35 14//35 21//35
f 27//36 5//36 11//36
f 26//37 21//37 23//37
f 26//38 27//38 21//38
f 2//39 1//39 5//39
f 2//40 5//40 27//40
f 16//41 13//41 18//41
f 13//42 20//42 18//42
f 13//43 22//43 20//43
f 10//44 8//44 12//44
f 8//45 6//45 12//45
f 12//46 28//46 13//46
f 13//47 28//47 22//47
f 6//48 28//48 12//48
f 22//49 25//49 24//49
f 28//50 25//50 22//50
f 4//51 3//51 6//51
f 6//52 3//52 28//52
g \u53a8\u623f\xb7\u5730\u9762
f 29//53 30//53 31//53
f 29//54 31//54 32//54
f 33//55 29//55 32//55
f 33//56 32//56 34//56
f 35//57 33//57 34//57
f 35//58 34//58 36//58
f 30//59 35//59 36//59
f 30//60 36//60 31//60
f 35//61 29//61 33//61
f 30//62 29//62 35//62
f 32//63 36//63 34//63
f 32//64 31//64 36//64
g \u6b21\u536b\xb7\u5730\u9762
f 37//65 38//65 39//65
f 37//66 39//66 40//66
f 41//67 37//67 40//67
f 41//68 40//68 42//68
f 43//69 41//69 42//69
f 43//70 42//70 44//70
f 38//71 43//71 44//71
f 38//72 44//72 39//72
f 38//73 37//73 41//73
f 38//74 41//74 43//74
f 40//75 39//75 42//75
f 42//76 39//76 44//76
g \u4e3b\u536b\xb7\u5730\u9762
f 45//77 46//77 47//77
f 48//78 46//78 45//78
f 49//79 48//79 45//79
f 50//80 48//80 49//80
f 51//81 50//81 49//81
f 52//82 50//82 51//82
f 47//83 52//83 51//83
f 46//84 52//84 47//84
f 48//85 50//85 52//85
f 46//86 48//86 52//86
f 49//87 45//87 51//87
f 45//88 47//88 51//88
g \u8863\u5e3d\u533a\xb7\u5730\u9762
f 53//89 54//89 55//89
f 56//90 54//90 53//90
f 57//91 56//91 53//91
f 57//92 53//92 58//92
f 59//93 57//93 58//93
f 60//94 57//94 59//94
f 55//95 60//95 59//95
f 54//96 60//96 55//96
f 54//97 56//97 57//97
f 54//98 57//98 60//98
f 53//99 55//99 58//99
f 58//100 55//100 59//100
g \u4e3b\u5367\xb7\u5730\u9762
f 61//101 62//101 63//101
f 61//102 63//102 64//102
f 65//103 61//103 64//103
f 66//104 61//104 65//104
f 67//105 66//105 65//105
f 68//106 66//106 67//106
f 63//107 68//107 67//107
f 62//108 68//108 63//108
f 62//109 61//109 66//109
f 62//110 66//110 68//110
f 64//111 63//111 65//111
f 65//112 63//112 67//112
g \u6b21\u5367\u4e00\xb7\u5730\u9762
f 69//113 70//113 71//113
f 69//114 71//114 72//114
f 73//115 69//115 72//115
f 73//116 72//116 74//116
f 75//117 73//117 74//117
f 75//118 74//118 76//118
f 71//119 75//119 76//119
f 70//120 75//120 71//120
f 70//121 69//121 73//121
f 70//122 73//122 75//122
f 72//123 71//123 74//123
f 74//124 71//124 76//124
g \u6b21\u5367\u4e8c\xb7\u5730\u9762
f 77//125 78//125 79//125
f 77//126 79//126 80//126
f 81//127 77//127 80//127
f 81//128 80//128 82//128
f 83//129 81//129 82//129
f 83//130 82//130 84//130
f 78//131 83//131 84//131
f 78//132 84//132 79//132
f 78//133 77//133 81//133
f 78//134 81//134 83//134
f 80//135 79//135 82//135
f 82//136 79//136 84//136
g \u6b21\u5367\u4e8c\u7a97\u8fb9\u533a\xb7\u5730\u9762
f 85//137 86//137 87//137
f 85//138 87//138 88//138
f 89//139 85//139 88//139
f 90//140 85//140 89//140
f 91//141 90//141 89//141
f 91//142 89//142 92//142
f 87//143 91//143 92//143
f 86//144 91//144 87//144
f 86//145 85//145 90//145
f 86//146 90//146 91//146
f 88//147 87//147 89//147
f 89//148 87//148 92//148
