# Created by FreeCAD <https://www.freecad.org>
v 8631.780273 6166.959961 0.000000
v 8631.780273 6166.959961 2100.000000
v 8631.780273 6510.660156 0.000000
v 8631.780273 6510.660156 2100.000000
v 9427.200195 6166.959961 2100.000000
v 9427.200195 6166.959961 0.000000
v 9427.200195 6510.660156 0.000000
v 9427.200195 6510.660156 2100.000000
v 5882.180176 6824.899902 0.000000
v 5882.180176 7620.319824 2100.000000
v 5882.180176 7620.319824 0.000000
v 5882.180176 6824.899902 2100.000000
v 6225.879883 7620.319824 2100.000000
v 6225.879883 6824.899902 0.000000
v 6225.879883 7620.319824 0.000000
v 6225.879883 6824.899902 2100.000000
v 9348.639648 4959.100098 0.000000
v 9348.639648 4959.100098 2100.000000
v 9348.639648 5302.799805 0.000000
v 9348.639648 5302.799805 2100.000000
v 10163.700195 4959.100098 2100.000000
v 10163.700195 4959.100098 0.000000
v 10163.700195 5302.799805 0.000000
v 10163.700195 5302.799805 2100.000000
v 5410.819824 4644.859863 0.000000
v 5410.819824 4644.859863 2100.000000
v 5410.819824 5459.919922 0.000000
v 5410.819824 5459.919922 2100.000000
v 5754.520020 4644.859863 2100.000000
v 5754.520020 4644.859863 0.000000
v 5754.520020 5459.919922 0.000000
v 5754.520020 5459.919922 2100.000000
v 2238.959961 2415.719971 0.000000
v 2238.959961 3279.879883 2100.000000
v 2238.959961 3279.879883 0.000000
v 2238.959961 2415.719971 2100.000000
v 2582.659912 3279.879883 2100.000000
v 2582.659912 2415.719971 0.000000
v 2582.659912 3279.879883 0.000000
v 2582.659912 2415.719971 2100.000000
v 1855.979980 4851.080078 0.000000
v 1855.979980 5577.759766 2100.000000
v 1855.979980 5577.759766 0.000000
v 1855.979980 4851.080078 2100.000000
v 2199.679932 5577.759766 2100.000000
v 2199.679932 4851.080078 0.000000
v 2199.679932 5577.759766 0.000000
v 2199.679932 4851.080078 2100.000000
v 2985.280029 6530.299805 0.000000
v 2985.280029 6530.299805 2100.000000
v 2985.280029 6874.000000 0.000000
v 2985.280029 6874.000000 2100.000000
v 3731.600098 6530.299805 2100.000000
v 3731.600098 6530.299805 0.000000
v 3731.600098 6874.000000 0.000000
v 3731.600098 6874.000000 2100.000000
vn -1.000000 0.000000 0.000000
vn -1.000000 0.000000 0.000000
vn 1.000000 0.000000 0.000000
vn 1.000000 -0.000000 0.000000
vn 0.000000 -1.000000 0.000000
vn 0.000000 -1.000000 0.000000
vn 0.000000 1.000000 0.000000
vn 0.000000 1.000000 0.000000
vn 0.000000 0.000000 -1.000000
vn 0.000000 0.000000 -1.000000
vn 0.000000 0.000000 1.000000
vn 0.000000 0.000000 1.000000
vn -1.000000 0.000000 0.000000
vn -1.000000 0.000000 0.000000
vn 1.000000 0.000000 0.000000
vn 1.000000 -0.000000 0.000000
vn 0.000000 -1.000000 0.000000
vn 0.000000 -1.000000 0.000000
vn 0.000000 1.000000 0.000000
vn 0.000000 1.000000 0.000000
vn 0.000000 0.000000 -1.000000
vn 0.000000 0.000000 -1.000000
vn 0.000000 0.000000 1.000000
vn 0.000000 0.000000 1.000000
vn -1.000000 0.000000 0.000000
vn -1.000000 0.000000 0.000000
vn 1.000000 0.000000 0.000000
vn 1.000000 -0.000000 0.000000
vn 0.000000 -1.000000 0.000000
vn 0.000000 -1.000000 0.000000
vn 0.000000 1.000000 0.000000
vn 0.000000 1.000000 0.000000
vn 0.000000 0.000000 -1.000000
vn 0.000000 0.000000 -1.000000
vn 0.000000 0.000000 1.000000
vn 0.000000 0.000000 1.000000
vn -1.000000 0.000000 0.000000
vn -1.000000 0.000000 0.000000
vn 1.000000 0.000000 0.000000
vn 1.000000 -0.000000 0.000000
vn 0.000000 -1.000000 0.000000
vn 0.000000 -1.000000 0.000000
vn 0.000000 1.000000 0.000000
vn 0.000000 1.000000 0.000000
vn 0.000000 0.000000 -1.000000
vn 0.000000 0.000000 -1.000000
vn 0.000000 0.000000 1.000000
vn 0.000000 0.000000 1.000000
vn -1.000000 0.000000 0.000000
vn -1.000000 0.000000 0.000000
vn 1.000000 0.000000 0.000000
vn 1.000000 -0.000000 0.000000
vn 0.000000 -1.000000 0.000000
vn 0.000000 -1.000000 0.000000
vn 0.000000 1.000000 0.000000
vn 0.000000 1.000000 0.000000
vn 0.000000 0.000000 -1.000000
vn 0.000000 0.000000 -1.000000
vn 0.000000 0.000000 1.000000
vn 0.000000 0.000000 1.000000
vn -1.000000 0.000000 0.000000
vn -1.000000 0.000000 0.000000
vn 1.000000 0.000000 0.000000
vn 1.000000 -0.000000 0.000000
vn 0.000000 -1.000000 0.000000
vn 0.000000 -1.000000 0.000000
vn 0.000000 1.000000 0.000000
vn 0.000000 1.000000 0.000000
vn 0.000000 0.000000 -1.000000
vn 0.000000 0.000000 -1.000000
vn 0.000000 0.000000 1.000000
vn 0.000000 0.000000 1.000000
vn -1.000000 0.000000 0.000000
vn -1.000000 0.000000 0.000000
vn 1.000000 0.000000 0.000000
vn 1.000000 -0.000000 0.000000
vn 0.000000 -1.000000 0.000000
vn 0.000000 -1.000000 0.000000
vn 0.000000 1.000000 0.000000
vn 0.000000 1.000000 0.000000
vn 0.000000 0.000000 -1.000000
vn 0.000000 0.000000 -1.000000
vn 0.000000 0.000000 1.000000
vn 0.000000 0.000000 1.000000
g \u5165\u6237\u95e8
f 1//1 2//1 3//1
f 3//2 2//2 4//2
f 5//3 6//3 7//3
f 5//4 7//4 8//4
f 6//5 2//5 1//5
f 6//6 5//6 2//6
f 4//7 7//7 3//7
f 8//8 7//8 4//8
f 3//9 7//9 1//9
f 1//10 7//10 6//10
f 8//11 4//11 2//11
f 8//12 2//12 5//12
g \u6b21\u5367\u4e00\u95e8
f 9//13 10//13 11//13
f 9//14 12//14 10//14
f 13//15 14//15 15//15
f 16//16 14//16 13//16
f 14//17 16//17 9//17
f 9//18 16//18 12//18
f 13//19 15//19 11//19
f 13//20 11//20 10//20
f 11//21 15//21 9//21
f 9//22 15//22 14//22
f 13//23 10//23 12//23
f 13//24 12//24 16//24
g \u6b21\u5367\u4e8c\u95e8
f 17//25 18//25 19//25
f 19//26 18//26 20//26
f 21//27 22//27 23//27
f 21//28 23//28 24//28
f 22//29 18//29 17//29
f 22//30 21//30 18//30
f 20//31 23//31 19//31
f 24//32 23//32 20//32
f 19//33 23//33 17//33
f 17//34 23//34 22//34
f 24//35 20//35 18//35
f 24//36 18//36 21//36
g \u4e3b\u5367\u95e8
f 25//37 26//37 27//37
f 27//38 26//38 28//38
f 29//39 30//39 31//39
f 29//40 31//40 32//40
f 30//41 29//41 25//41
f 25//42 29//42 26//42
f 32//43 31//43 27//43
f 32//44 27//44 28//44
f 27//45 31//45 25//45
f 25//46 31//46 30//46
f 32//47 28//47 26//47
f 32//48 26//48 29//48
g \u8863\u5e3d\u533a\u95e8
f 33//49 34//49 35//49
f 33//50 36//50 34//50
f 37//51 38//51 39//51
f 40//52 38//52 37//52
f 38//53 40//53 33//53
f 33//54 40//54 36//54
f 37//55 39//55 35//55
f 37//56 35//56 34//56
f 35//57 39//57 33//57
f 33//58 39//58 38//58
f 37//59 34//59 36//59
f 37//60 36//60 40//60
g \u4e3b\u536b\u95e8
f 41//61 42//61 43//61
f 41//62 44//62 42//62
f 45//63 46//63 47//63
f 48//64 46//64 45//64
f 46//65 48//65 41//65
f 41//66 48//66 44//66
f 45//67 47//67 43//67
f 45//68 43//68 42//68
f 43//69 47//69 41//69
f 41//70 47//70 46//70
f 45//71 42//71 44//71
f 45//72 44//72 48//72
g \u6b21\u536b\u95e8
f 49//73 50//73 51//73
f 51//74 50//74 52//74
f 53//75 54//75 55//75
f 53//76 55//76 56//76
f 54//77 53//77 49//77
f 49//78 53//78 50//78
f 56//79 55//79 51//79
f 56//80 51//80 52//80
f 51//81 55//81 49//81
f 49//82 55//82 54//82
f 56//83 52//83 50//83
f 56//84 50//84 53//84
