# Created by FreeCAD <https://www.freecad.org>
v 1993.459961 11705.440430 0.000000
v 1993.459961 11705.440430 2700.000000
v 3093.300049 11705.440430 2700.000000
v 3093.300049 11705.440430 0.000000
v 3093.300049 11587.599609 2700.000000
v 3093.300049 11587.599609 0.000000
v 2111.300049 11587.599609 0.000000
v 2111.300049 11587.599609 2700.000000
v 2111.300049 10085.139648 2700.000000
v 2111.300049 10085.139648 0.000000
v 1993.459961 10085.139648 2700.000000
v 1993.459961 10085.139648 0.000000
v 1993.459961 10085.139648 0.000000
v 1993.459961 10085.139648 2700.000000
v 3849.439941 10085.139648 2700.000000
v 3849.439941 10085.139648 0.000000
v 3849.439941 9849.459961 0.000000
v 3849.439941 9849.459961 2700.000000
v 2238.959961 9849.459961 0.000000
v 2238.959961 9849.459961 2700.000000
v 2238.959961 9643.240234 2700.000000
v 2238.959961 9643.240234 0.000000
v 1993.459961 9643.240234 0.000000
v 1993.459961 9643.240234 2700.000000
v 6913.279785 10085.139648 0.000000
v 5567.939941 10085.139648 0.000000
v 5567.939941 10085.139648 2700.000000
v 6913.279785 10085.139648 2700.000000
v 6913.279785 9849.459961 0.000000
v 6913.279785 9849.459961 2700.000000
v 5793.799805 9849.459961 0.000000
v 5793.799805 9849.459961 2700.000000
v 5793.799805 7649.779785 0.000000
v 5793.799805 7649.779785 2700.000000
v 5567.939941 7649.779785 0.000000
v 5567.939941 7649.779785 2700.000000
v 9662.879883 10085.139648 0.000000
v 8317.540039 10085.139648 0.000000
v 8317.540039 10085.139648 2700.000000
v 9662.879883 10085.139648 2700.000000
v 9662.879883 6510.660156 0.000000
v 9662.879883 6510.660156 2700.000000
v 9427.200195 6510.660156 2700.000000
v 9427.200195 6510.660156 0.000000
v 9427.200195 9849.459961 2700.000000
v 9427.200195 9849.459961 0.000000
v 8317.540039 9849.459961 0.000000
v 8317.540039 9849.459961 2700.000000
v 9427.200195 6824.899902 0.000000
v 6667.779785 6824.899902 0.000000
v 6667.779785 6824.899902 2700.000000
v 9427.200195 6824.899902 2700.000000
v 9427.200195 6589.220215 2700.000000
v 9427.200195 6589.220215 0.000000
v 6667.779785 6589.220215 0.000000
v 6667.779785 6589.220215 2700.000000
v 5793.799805 6874.000000 0.000000
v 5567.939941 6874.000000 0.000000
v 5567.939941 6874.000000 2700.000000
v 5793.799805 6874.000000 2700.000000
v 5793.799805 6589.220215 0.000000
v 5793.799805 6589.220215 2700.000000
v 5567.939941 6589.220215 0.000000
v 5567.939941 6589.220215 2700.000000
v 2238.959961 9024.580078 0.000000
v 1993.459961 9024.580078 0.000000
v 1993.459961 9024.580078 2700.000000
v 2238.959961 9024.580078 2700.000000
v 2238.959961 6815.080078 0.000000
v 2238.959961 6815.080078 2700.000000
v 1993.459961 6815.080078 0.000000
v 1993.459961 6815.080078 2700.000000
v 1993.459961 7649.779785 0.000000
v 1993.459961 7649.779785 2700.000000
v 1797.060059 7649.779785 2700.000000
v 1797.060059 7649.779785 0.000000
v 1797.060059 7885.459961 2700.000000
v 1797.060059 7885.459961 0.000000
v 1993.459961 7885.459961 2700.000000
v 1993.459961 7885.459961 0.000000
v 1198.040039 7885.459961 0.000000
v 0.000000 7885.459961 0.000000
v 0.000000 7885.459961 2700.000000
v 1198.040039 7885.459961 2700.000000
v 1198.040039 7649.779785 2700.000000
v 1198.040039 7649.779785 0.000000
v 235.679993 7649.779785 0.000000
v 235.679993 7649.779785 2700.000000
v 235.679993 2297.879883 2700.000000
v 235.679993 2297.879883 0.000000
v 392.799988 2297.879883 0.000000
v 392.799988 2297.879883 2700.000000
v 392.799988 2052.379883 0.000000
v 392.799988 2052.379883 2700.000000
v 0.000000 2052.379883 0.000000
v 0.000000 2052.379883 2700.000000
v 1993.459961 6815.080078 0.000000
v 1993.459961 6815.080078 2700.000000
v 4566.299805 6815.080078 2700.000000
v 4566.299805 6815.080078 0.000000
v 4566.299805 6579.399902 2700.000000
v 4566.299805 6579.399902 0.000000
v 1993.459961 6579.399902 0.000000
v 1993.459961 6579.399902 2700.000000
v 2238.959961 6579.399902 0.000000
v 1993.459961 6579.399902 0.000000
v 1993.459961 6579.399902 2700.000000
v 2238.959961 6579.399902 2700.000000
v 2238.959961 3279.879883 0.000000
v 2238.959961 3279.879883 2700.000000
v 1993.459961 3279.879883 0.000000
v 1993.459961 3279.879883 2700.000000
v 4438.640137 6579.399902 0.000000
v 4438.640137 6579.399902 2700.000000
v 4566.299805 6579.399902 2700.000000
v 4566.299805 6579.399902 0.000000
v 4566.299805 5587.580078 0.000000
v 4566.299805 5587.580078 2700.000000
v 4664.500000 5587.580078 0.000000
v 4664.500000 5587.580078 2700.000000
v 4664.500000 5459.919922 2700.000000
v 4664.500000 5459.919922 0.000000
v 4438.640137 5459.919922 0.000000
v 4438.640137 5459.919922 2700.000000
v 5558.120117 5567.939941 0.000000
v 5558.120117 5567.939941 2700.000000
v 5793.799805 5567.939941 2700.000000
v 5793.799805 5567.939941 0.000000
v 5793.799805 225.860001 0.000000
v 5793.799805 225.860001 2700.000000
v 5548.299805 225.860001 0.000000
v 5548.299805 225.860001 2700.000000
v 5548.299805 1826.520020 2700.000000
v 5548.299805 1826.520020 0.000000
v 4959.100098 1826.520020 0.000000
v 4959.100098 1826.520020 2700.000000
v 4959.100098 2052.379883 0.000000
v 4959.100098 2052.379883 2700.000000
v 5558.120117 2052.379883 0.000000
v 5558.120117 2052.379883 2700.000000
v 2238.959961 2415.719971 0.000000
v 1993.459961 2415.719971 0.000000
v 1993.459961 2415.719971 2700.000000
v 2238.959961 2415.719971 2700.000000
v 2238.959961 2052.379883 0.000000
v 2238.959961 2052.379883 2700.000000
v 2837.979980 2052.379883 0.000000
v 2837.979980 2052.379883 2700.000000
v 2837.979980 1826.520020 0.000000
v 2837.979980 1826.520020 2700.000000
v 2238.959961 1826.520020 0.000000
v 2238.959961 1826.520020 2700.000000
v 2238.959961 225.860001 2700.000000
v 2238.959961 225.860001 0.000000
v 1993.459961 225.860001 0.000000
v 1993.459961 225.860001 2700.000000
v 2238.959961 225.860001 0.000000
v 1993.459961 225.860001 0.000000
v 1993.459961 225.860001 2700.000000
v 2238.959961 225.860001 2700.000000
v 2238.959961 0.000000 0.000000
v 2238.959961 0.000000 2700.000000
v 1993.459961 0.000000 0.000000
v 1993.459961 0.000000 2700.000000
v 5970.560059 225.860001 0.000000
v 5401.000000 225.860001 0.000000
v 5401.000000 225.860001 2700.000000
v 5970.560059 225.860001 2700.000000
v 5970.560059 0.000000 0.000000
v 5970.560059 0.000000 2700.000000
v 5401.000000 0.000000 0.000000
v 5401.000000 0.000000 2700.000000
v 9427.200195 225.860001 0.000000
v 8965.660156 225.860001 0.000000
v 8965.660156 225.860001 2700.000000
v 9427.200195 225.860001 2700.000000
v 9427.200195 0.000000 0.000000
v 9427.200195 0.000000 2700.000000
v 8965.660156 0.000000 0.000000
v 8965.660156 0.000000 2700.000000
v 12618.700195 5666.140137 0.000000
v 9112.959961 5666.140137 0.000000
v 9112.959961 5666.140137 2700.000000
v 12618.700195 5666.140137 2700.000000
v 12618.700195 0.000000 0.000000
v 12618.700195 0.000000 2700.000000
v 12353.559570 0.000000 0.000000
v 12353.559570 0.000000 2700.000000
v 12353.559570 5420.640137 2700.000000
v 12353.559570 5420.640137 0.000000
v 9348.639648 5420.640137 2700.000000
v 9348.639648 5420.640137 0.000000
v 9348.639648 5302.799805 2700.000000
v 9348.639648 5302.799805 0.000000
v 9112.959961 5302.799805 0.000000
v 9112.959961 5302.799805 2700.000000
v 9348.639648 4507.379883 0.000000
v 9112.959961 4507.379883 0.000000
v 9112.959961 4507.379883 2700.000000
v 9348.639648 4507.379883 2700.000000
v 9348.639648 2052.379883 2700.000000
v 9348.639648 2052.379883 0.000000
v 10163.700195 2052.379883 2700.000000
v 10163.700195 2052.379883 0.000000
v 10163.700195 1826.520020 0.000000
v 10163.700195 1826.520020 2700.000000
v 9112.959961 1826.520020 0.000000
v 9112.959961 1826.520020 2700.000000
v 9112.959961 2445.179932 2700.000000
v 9112.959961 2445.179932 0.000000
v 8720.160156 2445.179932 2700.000000
v 8720.160156 2445.179932 0.000000
v 8720.160156 2680.860107 2700.000000
v 8720.160156 2680.860107 0.000000
v 9112.959961 2680.860107 2700.000000
v 9112.959961 2680.860107 0.000000
v 11567.959961 2052.379883 0.000000
v 11567.959961 2052.379883 2700.000000
v 12353.559570 2052.379883 2700.000000
v 12353.559570 2052.379883 0.000000
v 12353.559570 1826.520020 0.000000
v 12353.559570 1826.520020 2700.000000
v 11567.959961 1826.520020 2700.000000
v 11567.959961 1826.520020 0.000000
v 1109.660034 4851.080078 0.000000
v 235.679993 4851.080078 0.000000
v 235.679993 4851.080078 2700.000000
v 1109.660034 4851.080078 2700.000000
v 1109.660034 4723.419922 2700.000000
v 1109.660034 4723.419922 0.000000
v 235.679993 4723.419922 0.000000
v 235.679993 4723.419922 2700.000000
v 1855.979980 4851.080078 0.000000
v 1855.979980 4851.080078 2700.000000
v 1993.459961 4851.080078 2700.000000
v 1993.459961 4851.080078 0.000000
v 1993.459961 4723.419922 2700.000000
v 1993.459961 4723.419922 0.000000
v 1855.979980 4723.419922 2700.000000
v 1855.979980 4723.419922 0.000000
v 3731.600098 8955.839844 0.000000
v 3731.600098 8955.839844 2700.000000
v 3849.439941 8955.839844 2700.000000
v 3849.439941 8955.839844 0.000000
v 3849.439941 7610.500000 0.000000
v 3849.439941 7610.500000 2700.000000
v 3731.600098 7610.500000 2700.000000
v 3731.600098 7610.500000 0.000000
v 1855.979980 2297.879883 0.000000
v 1855.979980 2297.879883 2700.000000
v 1993.459961 2297.879883 2700.000000
v 1993.459961 2297.879883 0.000000
v 1993.459961 2415.719971 2700.000000
v 1993.459961 2415.719971 0.000000
v 2238.959961 2415.719971 0.000000
v 2238.959961 2415.719971 2700.000000
v 2238.959961 2052.379883 0.000000
v 2238.959961 2052.379883 2700.000000
v 1855.979980 2052.379883 0.000000
v 1855.979980 2052.379883 2700.000000
vn 0.000000 1.000000 0.000000
vn 0.000000 1.000000 -0.000000
vn 1.000000 0.000000 -0.000000
vn 1.000000 0.000000 0.000000
vn 0.000000 -1.000000 0.000000
vn 0.000000 -1.000000 0.000000
vn 1.000000 0.000000 -0.000000
vn 1.000000 0.000000 0.000000
vn 0.000000 -1.000000 0.000000
vn 0.000000 -1.000000 0.000000
vn -1.000000 0.000000 0.000000
vn -1.000000 0.000000 0.000000
vn 0.000000 0.000000 -1.000000
vn 0.000000 -0.000000 -1.000000
vn 0.000000 0.000000 -1.000000
vn 0.000000 0.000000 -1.000000
vn 0.000000 0.000000 1.000000
vn 0.000000 -0.000000 1.000000
vn 0.000000 0.000000 1.000000
vn 0.000000 0.000000 1.000000
vn 0.000000 1.000000 0.000000
vn 0.000000 1.000000 -0.000000
vn 1.000000 0.000000 0.000000
vn 1.000000 0.000000 0.000000
vn 0.000000 -1.000000 0.000000
vn 0.000000 -1.000000 0.000000
vn 1.000000 0.000000 -0.000000
vn 1.000000 0.000000 0.000000
vn 0.000000 -1.000000 0.000000
vn 0.000000 -1.000000 0.000000
vn -1.000000 0.000000 0.000000
vn -1.000000 0.000000 0.000000
vn 0.000000 0.000000 -1.000000
vn 0.000000 0.000000 -1.000000
vn 0.000000 0.000000 -1.000000
vn 0.000000 0.000000 -1.000000
vn 0.000000 0.000000 1.000000
vn 0.000000 0.000000 1.000000
vn 0.000000 0.000000 1.000000
vn 0.000000 0.000000 1.000000
vn 0.000000 1.000000 0.000000
vn 0.000000 1.000000 -0.000000
vn 1.000000 0.000000 0.000000
vn 1.000000 0.000000 0.000000
vn 0.000000 -1.000000 0.000000
vn 0.000000 -1.000000 0.000000
vn 1.000000 0.000000 0.000000
vn 1.000000 0.000000 0.000000
vn 0.000000 -1.000000 0.000000
vn 0.000000 -1.000000 0.000000
vn -1.000000 0.000000 0.000000
vn -1.000000 0.000000 0.000000
vn 0.000000 0.000000 -1.000000
vn 0.000000 -0.000000 -1.000000
vn 0.000000 0.000000 -1.000000
vn 0.000000 0.000000 -1.000000
vn 0.000000 0.000000 1.000000
vn 0.000000 -0.000000 1.000000
vn 0.000000 0.000000 1.000000
vn 0.000000 0.000000 1.000000
vn 0.000000 1.000000 0.000000
vn 0.000000 1.000000 -0.000000
vn 1.000000 0.000000 0.000000
vn 1.000000 0.000000 0.000000
vn 0.000000 -1.000000 0.000000
vn 0.000000 -1.000000 0.000000
vn -1.000000 -0.000000 0.000000
vn -1.000000 0.000000 0.000000
vn 0.000000 -1.000000 0.000000
vn 0.000000 -1.000000 0.000000
vn -1.000000 0.000000 0.000000
vn -1.000000 0.000000 0.000000
vn 0.000000 0.000000 -1.000000
vn 0.000000 0.000000 -1.000000
vn 0.000000 0.000000 -1.000000
vn 0.000000 0.000000 -1.000000
vn 0.000000 0.000000 1.000000
vn 0.000000 0.000000 1.000000
vn 0.000000 0.000000 1.000000
vn 0.000000 0.000000 1.000000
vn 0.000000 1.000000 0.000000
vn 0.000000 1.000000 -0.000000
vn 1.000000 0.000000 -0.000000
vn 1.000000 0.000000 0.000000
vn 0.000000 -1.000000 0.000000
vn 0.000000 -1.000000 0.000000
vn -1.000000 0.000000 0.000000
vn -1.000000 0.000000 0.000000
vn 0.000000 0.000000 -1.000000
vn 0.000000 0.000000 -1.000000
vn 0.000000 0.000000 1.000000
vn 0.000000 0.000000 1.000000
vn 0.000000 1.000000 0.000000
vn 0.000000 1.000000 -0.000000
vn 1.000000 0.000000 0.000000
vn 1.000000 0.000000 0.000000
vn 0.000000 -1.000000 0.000000
vn 0.000000 -1.000000 0.000000
vn -1.000000 0.000000 0.000000
vn -1.000000 0.000000 0.000000
vn 0.000000 0.000000 -1.000000
vn 0.000000 0.000000 -1.000000
vn 0.000000 0.000000 1.000000
vn 0.000000 0.000000 1.000000
vn 0.000000 1.000000 0.000000
vn 0.000000 1.000000 -0.000000
vn 1.000000 0.000000 0.000000
vn 1.000000 0.000000 0.000000
vn 0.000000 -1.000000 0.000000
vn 0.000000 -1.000000 0.000000
vn -1.000000 0.000000 0.000000
vn -1.000000 0.000000 0.000000
vn 0.000000 -1.000000 0.000000
vn 0.000000 -1.000000 0.000000
vn -1.000000 0.000000 0.000000
vn -1.000000 0.000000 0.000000
vn 0.000000 1.000000 0.000000
vn 0.000000 1.000000 -0.000000
vn -1.000000 0.000000 0.000000
vn -1.000000 0.000000 0.000000
vn 0.000000 0.000000 -1.000000
vn 0.000000 0.000000 -1.000000
vn 0.000000 0.000000 -1.000000
vn 0.000000 0.000000 -1.000000
vn 0.000000 -0.000000 -1.000000
vn 0.000000 0.000000 -1.000000
vn 0.000000 0.000000 1.000000
vn 0.000000 0.000000 1.000000
vn 0.000000 0.000000 1.000000
vn 0.000000 0.000000 1.000000
vn 0.000000 -0.000000 1.000000
vn 0.000000 0.000000 1.000000
vn 0.000000 1.000000 0.000000
vn 0.000000 1.000000 -0.000000
vn 1.000000 0.000000 -0.000000
vn 1.000000 0.000000 0.000000
vn 0.000000 -1.000000 0.000000
vn 0.000000 -1.000000 0.000000
vn 1.000000 -0.000000 0.000000
vn 1.000000 0.000000 0.000000
vn 0.000000 1.000000 0.000000
vn 0.000000 1.000000 -0.000000
vn 1.000000 0.000000 0.000000
vn 1.000000 0.000000 0.000000
vn 0.000000 -1.000000 0.000000
vn 0.000000 -1.000000 0.000000
vn -1.000000 -0.000000 0.000000
vn -1.000000 0.000000 0.000000
vn 0.000000 0.000000 -1.000000
vn 0.000000 -0.000000 -1.000000
vn 0.000000 0.000000 -1.000000
vn 0.000000 0.000000 -1.000000
vn 0.000000 0.000000 -1.000000
vn 0.000000 0.000000 -1.000000
vn 0.000000 0.000000 1.000000
vn 0.000000 0.000000 1.000000
vn 0.000000 0.000000 1.000000
vn 0.000000 0.000000 1.000000
vn 0.000000 0.000000 1.000000
vn 0.000000 0.000000 1.000000
vn 0.000000 1.000000 0.000000
vn 0.000000 1.000000 -0.000000
vn 1.000000 0.000000 -0.000000
vn 1.000000 0.000000 0.000000
vn 0.000000 -1.000000 0.000000
vn 0.000000 -1.000000 0.000000
vn -1.000000 0.000000 0.000000
vn -1.000000 0.000000 0.000000
vn 0.000000 0.000000 -1.000000
vn 0.000000 0.000000 -1.000000
vn 0.000000 0.000000 1.000000
vn 0.000000 0.000000 1.000000
vn 0.000000 1.000000 0.000000
vn 0.000000 1.000000 -0.000000
vn 1.000000 0.000000 0.000000
vn 1.000000 0.000000 0.000000
vn 0.000000 -1.000000 0.000000
vn 0.000000 -1.000000 0.000000
vn -1.000000 0.000000 0.000000
vn -1.000000 0.000000 0.000000
vn 0.000000 0.000000 -1.000000
vn 0.000000 0.000000 -1.000000
vn 0.000000 0.000000 1.000000
vn 0.000000 0.000000 1.000000
vn 0.000000 1.000000 0.000000
vn 0.000000 1.000000 -0.000000
vn 1.000000 0.000000 0.000000
vn 1.000000 0.000000 0.000000
vn 0.000000 1.000000 0.000000
vn 0.000000 1.000000 -0.000000
vn 1.000000 0.000000 -0.000000
vn 1.000000 0.000000 0.000000
vn 0.000000 -1.000000 0.000000
vn 0.000000 -1.000000 0.000000
vn -1.000000 0.000000 0.000000
vn -1.000000 0.000000 0.000000
vn 0.000000 0.000000 -1.000000
vn 0.000000 -0.000000 -1.000000
vn 0.000000 0.000000 -1.000000
vn 0.000000 0.000000 -1.000000
vn 0.000000 0.000000 1.000000
vn 0.000000 0.000000 1.000000
vn 0.000000 0.000000 1.000000
vn 0.000000 0.000000 1.000000
vn 0.000000 1.000000 0.000000
vn 0.000000 1.000000 -0.000000
vn 1.000000 0.000000 0.000000
vn 1.000000 0.000000 0.000000
vn 0.000000 -1.000000 0.000000
vn 0.000000 -1.000000 0.000000
vn -1.000000 0.000000 0.000000
vn -1.000000 0.000000 0.000000
vn 0.000000 -1.000000 0.000000
vn 0.000000 -1.000000 0.000000
vn -1.000000 0.000000 0.000000
vn -1.000000 0.000000 0.000000
vn 0.000000 1.000000 0.000000
vn 0.000000 1.000000 -0.000000
vn -1.000000 -0.000000 0.000000
vn -1.000000 0.000000 0.000000
vn 0.000000 0.000000 -1.000000
vn 0.000000 0.000000 -1.000000
vn 0.000000 0.000000 -1.000000
vn 0.000000 0.000000 -1.000000
vn 0.000000 -0.000000 -1.000000
vn 0.000000 -0.000000 -1.000000
vn 0.000000 0.000000 1.000000
vn 0.000000 0.000000 1.000000
vn 0.000000 0.000000 1.000000
vn 0.000000 0.000000 1.000000
vn 0.000000 -0.000000 1.000000
vn 0.000000 0.000000 1.000000
vn 0.000000 1.000000 0.000000
vn 0.000000 1.000000 -0.000000
vn 1.000000 0.000000 0.000000
vn 1.000000 0.000000 0.000000
vn 0.000000 1.000000 0.000000
vn 0.000000 1.000000 -0.000000
vn 1.000000 0.000000 0.000000
vn 1.000000 0.000000 0.000000
vn 0.000000 -1.000000 0.000000
vn 0.000000 -1.000000 0.000000
vn 1.000000 0.000000 -0.000000
vn 1.000000 0.000000 0.000000
vn 0.000000 -1.000000 0.000000
vn 0.000000 -1.000000 0.000000
vn -1.000000 0.000000 0.000000
vn -1.000000 0.000000 0.000000
vn 0.000000 -0.000000 -1.000000
vn 0.000000 0.000000 -1.000000
vn 0.000000 0.000000 -1.000000
vn 0.000000 0.000000 -1.000000
vn 0.000000 0.000000 -1.000000
vn 0.000000 0.000000 -1.000000
vn 0.000000 -0.000000 1.000000
vn 0.000000 0.000000 1.000000
vn 0.000000 0.000000 1.000000
vn 0.000000 0.000000 1.000000
vn 0.000000 0.000000 1.000000
vn 0.000000 0.000000 1.000000
vn 0.000000 1.000000 0.000000
vn 0.000000 1.000000 -0.000000
vn 1.000000 0.000000 0.000000
vn 1.000000 0.000000 0.000000
vn 0.000000 -1.000000 0.000000
vn 0.000000 -1.000000 0.000000
vn -1.000000 0.000000 0.000000
vn -1.000000 0.000000 0.000000
vn 0.000000 0.000000 -1.000000
vn 0.000000 0.000000 -1.000000
vn 0.000000 0.000000 1.000000
vn 0.000000 0.000000 1.000000
vn 0.000000 1.000000 0.000000
vn 0.000000 1.000000 -0.000000
vn 1.000000 0.000000 0.000000
vn 1.000000 0.000000 0.000000
vn 0.000000 -1.000000 0.000000
vn 0.000000 -1.000000 0.000000
vn -1.000000 0.000000 0.000000
vn -1.000000 0.000000 0.000000
vn 0.000000 0.000000 -1.000000
vn 0.000000 0.000000 -1.000000
vn 0.000000 0.000000 1.000000
vn 0.000000 0.000000 1.000000
vn 0.000000 1.000000 0.000000
vn 0.000000 1.000000 -0.000000
vn 1.000000 0.000000 0.000000
vn 1.000000 0.000000 0.000000
vn 0.000000 -1.000000 0.000000
vn 0.000000 -1.000000 0.000000
vn -1.000000 0.000000 0.000000
vn -1.000000 0.000000 0.000000
vn 0.000000 0.000000 -1.000000
vn 0.000000 0.000000 -1.000000
vn 0.000000 0.000000 1.000000
vn 0.000000 0.000000 1.000000
vn 0.000000 1.000000 0.000000
vn 0.000000 1.000000 -0.000000
vn 1.000000 0.000000 0.000000
vn 1.000000 0.000000 0.000000
vn 0.000000 -1.000000 0.000000
vn 0.000000 -1.000000 0.000000
vn -1.000000 -0.000000 0.000000
vn -1.000000 0.000000 0.000000
vn 0.000000 -1.000000 0.000000
vn 0.000000 -1.000000 0.000000
vn 1.000000 0.000000 -0.000000
vn 1.000000 0.000000 0.000000
vn 0.000000 -1.000000 0.000000
vn 0.000000 -1.000000 0.000000
vn -1.000000 0.000000 0.000000
vn -1.000000 0.000000 0.000000
vn 0.000000 0.000000 -1.000000
vn 0.000000 0.000000 -1.000000
vn 0.000000 0.000000 -1.000000
vn 0.000000 0.000000 -1.000000
vn 0.000000 0.000000 -1.000000
vn 0.000000 0.000000 -1.000000
vn 0.000000 0.000000 1.000000
vn 0.000000 0.000000 1.000000
vn 0.000000 0.000000 1.000000
vn 0.000000 0.000000 1.000000
vn 0.000000 0.000000 1.000000
vn 0.000000 0.000000 1.000000
vn 0.000000 1.000000 0.000000
vn 0.000000 1.000000 -0.000000
vn 1.000000 0.000000 -0.000000
vn 1.000000 0.000000 0.000000
vn 0.000000 1.000000 0.000000
vn 0.000000 1.000000 -0.000000
vn 1.000000 0.000000 0.000000
vn 1.000000 0.000000 0.000000
vn 0.000000 -1.000000 0.000000
vn 0.000000 -1.000000 0.000000
vn -1.000000 0.000000 0.000000
vn -1.000000 0.000000 0.000000
vn 0.000000 -1.000000 0.000000
vn 0.000000 -1.000000 0.000000
vn -1.000000 0.000000 0.000000
vn -1.000000 0.000000 0.000000
vn 0.000000 1.000000 0.000000
vn 0.000000 1.000000 -0.000000
vn -1.000000 0.000000 0.000000
vn -1.000000 0.000000 0.000000
vn 0.000000 0.000000 -1.000000
vn 0.000000 0.000000 -1.000000
vn 0.000000 0.000000 -1.000000
vn 0.000000 0.000000 -1.000000
vn 0.000000 0.000000 -1.000000
vn 0.000000 0.000000 -1.000000
vn 0.000000 0.000000 -1.000000
vn 0.000000 -0.000000 -1.000000
vn 0.000000 0.000000 1.000000
vn 0.000000 0.000000 1.000000
vn 0.000000 0.000000 1.000000
vn 0.000000 0.000000 1.000000
vn 0.000000 0.000000 1.000000
vn 0.000000 0.000000 1.000000
vn 0.000000 0.000000 1.000000
vn 0.000000 -0.000000 1.000000
vn 0.000000 1.000000 0.000000
vn 0.000000 1.000000 -0.000000
vn 1.000000 0.000000 0.000000
vn 1.000000 0.000000 0.000000
vn 0.000000 -1.000000 0.000000
vn 0.000000 -1.000000 0.000000
vn -1.000000 0.000000 0.000000
vn -1.000000 0.000000 0.000000
vn 0.000000 0.000000 -1.000000
vn 0.000000 0.000000 -1.000000
vn 0.000000 0.000000 1.000000
vn 0.000000 0.000000 1.000000
vn 0.000000 1.000000 0.000000
vn 0.000000 1.000000 -0.000000
vn 1.000000 0.000000 -0.000000
vn 1.000000 0.000000 0.000000
vn 0.000000 -1.000000 0.000000
vn 0.000000 -1.000000 0.000000
vn -1.000000 0.000000 0.000000
vn -1.000000 0.000000 0.000000
vn 0.000000 0.000000 -1.000000
vn 0.000000 0.000000 -1.000000
vn 0.000000 0.000000 1.000000
vn 0.000000 0.000000 1.000000
vn 0.000000 1.000000 0.000000
vn 0.000000 1.000000 -0.000000
vn 1.000000 0.000000 -0.000000
vn 1.000000 0.000000 0.000000
vn 0.000000 -1.000000 0.000000
vn 0.000000 -1.000000 0.000000
vn -1.000000 0.000000 0.000000
vn -1.000000 0.000000 0.000000
vn 0.000000 0.000000 -1.000000
vn 0.000000 0.000000 -1.000000
vn 0.000000 0.000000 1.000000
vn 0.000000 0.000000 1.000000
vn 0.000000 1.000000 0.000000
vn 0.000000 1.000000 -0.000000
vn 1.000000 0.000000 0.000000
vn 1.000000 0.000000 0.000000
vn 0.000000 -1.000000 0.000000
vn 0.000000 -1.000000 0.000000
vn -1.000000 0.000000 0.000000
vn -1.000000 0.000000 0.000000
vn 0.000000 0.000000 -1.000000
vn 0.000000 0.000000 -1.000000
vn 0.000000 0.000000 1.000000
vn 0.000000 0.000000 1.000000
vn 0.000000 1.000000 0.000000
vn 0.000000 1.000000 -0.000000
vn -1.000000 0.000000 0.000000
vn -1.000000 0.000000 0.000000
vn 0.000000 1.000000 0.000000
vn 0.000000 1.000000 -0.000000
vn 1.000000 0.000000 0.000000
vn 1.000000 0.000000 0.000000
vn 0.000000 -1.000000 0.000000
vn 0.000000 -1.000000 0.000000
vn -1.000000 0.000000 0.000000
vn -1.000000 0.000000 0.000000
vn 0.000000 0.000000 -1.000000
vn 0.000000 -0.000000 -1.000000
vn 0.000000 0.000000 -1.000000
vn 0.000000 0.000000 -1.000000
vn 0.000000 0.000000 1.000000
vn 0.000000 0.000000 1.000000
vn 0.000000 0.000000 1.000000
vn 0.000000 0.000000 1.000000
g \u53a8\u623f\u897f\u5317\u5899
f 1//1 2//1 3//1
f 4//2 1//2 3//2
f 4//3 3//3 5//3
f 6//4 4//4 5//4
f 7//5 6//5 5//5
f 7//6 5//6 8//6
f 7//7 8//7 9//7
f 10//8 7//8 9//8
f 10//9 9//9 11//9
f 12//10 10//10 11//10
f 12//11 11//11 2//11
f 1//12 12//12 2//12
f 7//13 4//13 6//13
f 7//14 10//14 12//14
f 1//15 4//15 7//15
f 1//16 7//16 12//16
f 3//17 8//17 5//17
f 9//18 8//18 11//18
f 3//19 2//19 8//19
f 8//20 2//20 11//20
g \u53a8\u623f\u5357\u5899
f 13//21 14//21 15//21
f 16//22 13//22 15//22
f 17//23 16//23 15//23
f 17//24 15//24 18//24
f 19//25 17//25 18//25
f 19//26 18//26 20//26
f 19//27 20//27 21//27
f 22//28 19//28 21//28
f 23//29 22//29 21//29
f 23//30 21//30 24//30
f 23//31 24//31 14//31
f 13//32 23//32 14//32
f 19//33 16//33 17//33
f 23//34 19//34 22//34
f 13//35 19//35 23//35
f 13//36 16//36 19//36
f 15//37 20//37 18//37
f 20//38 24//38 21//38
f 20//39 14//39 24//39
f 15//40 14//40 20//40
g \u6b21\u5367\u4e00\u897f\u5317\u5899
f 25//41 26//41 27//41
f 25//42 27//42 28//42
f 29//43 25//43 28//43
f 29//44 28//44 30//44
f 31//45 29//45 30//45
f 31//46 30//46 32//46
f 33//47 31//47 32//47
f 33//48 32//48 34//48
f 35//49 33//49 34//49
f 35//50 34//50 36//50
f 35//51 36//51 27//51
f 26//52 35//52 27//52
f 31//53 25//53 29//53
f 31//54 33//54 35//54
f 26//55 25//55 31//55
f 26//56 31//56 35//56
f 28//57 32//57 30//57
f 34//58 32//58 36//58
f 28//59 27//59 32//59
f 32//60 27//60 36//60
g \u6b21\u5367\u4e00\u4e1c\u5317\u5899
f 37//61 38//61 39//61
f 37//62 39//62 40//62
f 41//63 37//63 40//63
f 41//64 40//64 42//64
f 41//65 42//65 43//65
f 44//66 41//66 43//66
f 45//67 44//67 43//67
f 46//68 44//68 45//68
f 47//69 46//69 45//69
f 47//70 45//70 48//70
f 38//71 47//71 48//71
f 38//72 48//72 39//72
f 46//73 37//73 41//73
f 46//74 41//74 44//74
f 38//75 46//75 47//75
f 38//76 37//76 46//76
f 40//77 45//77 42//77
f 42//78 45//78 43//78
f 45//79 39//79 48//79
f 40//80 39//80 45//80
g \u6b21\u5367\u4e00\u5357\u5899
f 49//81 50//81 51//81
f 49//82 51//82 52//82
f 49//83 52//83 53//83
f 54//84 49//84 53//84
f 55//85 54//85 53//85
f 55//86 53//86 56//86
f 55//87 56//87 51//87
f 50//88 55//88 51//88
f 50//89 49//89 54//89
f 50//90 54//90 55//90
f 52//91 51//91 53//91
f 53//92 51//92 56//92
g \u6b21\u5367\u4e00\u95e8\u8fb9
f 57//93 58//93 59//93
f 57//94 59//94 60//94
f 61//95 57//95 60//95
f 61//96 60//96 62//96
f 63//97 61//97 62//97
f 63//98 62//98 64//98
f 58//99 63//99 64//99
f 58//100 64//100 59//100
f 58//101 57//101 61//101
f 58//102 61//102 63//102
f 60//103 59//103 62//103
f 62//104 59//104 64//104
g \u6b21\u536b\u897f\u5899
f 65//105 66//105 67//105
f 65//106 67//106 68//106
f 69//107 65//107 68//107
f 69//108 68//108 70//108
f 71//109 69//109 70//109
f 71//110 70//110 72//110
f 73//111 71//111 72//111
f 73//112 72//112 74//112
f 73//113 74//113 75//113
f 76//114 73//114 75//114
f 76//115 75//115 77//115
f 78//116 76//116 77//116
f 78//117 77//117 79//117
f 80//118 78//118 79//118
f 66//119 80//119 79//119
f 66//120 79//120 67//120
f 73//121 69//121 71//121
f 78//122 73//122 76//122
f 78//123 80//123 73//123
f 66//124 65//124 80//124
f 65//125 69//125 73//125
f 65//126 73//126 80//126
f 70//127 74//127 72//127
f 74//128 77//128 75//128
f 79//129 77//129 74//129
f 68//130 67//130 79//130
f 70//131 68//131 74//131
f 74//132 68//132 79//132
g \u897f\u7ffc\u5916\u5899
f 81//133 82//133 83//133
f 81//134 83//134 84//134
f 81//135 84//135 85//135
f 86//136 81//136 85//136
f 87//137 86//137 85//137
f 87//138 85//138 88//138
f 89//139 87//139 88//139
f 90//140 87//140 89//140
f 91//141 90//141 89//141
f 91//142 89//142 92//142
f 93//143 91//143 92//143
f 93//144 92//144 94//144
f 95//145 93//145 94//145
f 95//146 94//146 96//146
f 83//147 95//147 96//147
f 82//148 95//148 83//148
f 90//149 91//149 93//149
f 90//150 93//150 95//150
f 87//151 81//151 86//151
f 82//152 87//152 90//152
f 82//153 90//153 95//153
f 82//154 81//154 87//154
f 92//155 89//155 94//155
f 94//156 89//156 96//156
f 84//157 88//157 85//157
f 88//158 83//158 89//158
f 89//159 83//159 96//159
f 84//160 83//160 88//160
g \u4e3b\u5367\u5317\u5899
f 97//161 98//161 99//161
f 100//162 97//162 99//162
f 100//163 99//163 101//163
f 102//164 100//164 101//164
f 103//165 102//165 101//165
f 103//166 101//166 104//166
f 103//167 104//167 98//167
f 97//168 103//168 98//168
f 97//169 100//169 102//169
f 97//170 102//170 103//170
f 99//171 98//171 101//171
f 101//172 98//172 104//172
g \u4e3b\u5367\u8863\u5e3d\u533a\u4e1c\u5899
f 105//173 106//173 107//173
f 105//174 107//174 108//174
f 109//175 105//175 108//175
f 109//176 108//176 110//176
f 111//177 109//177 110//177
f 111//178 110//178 112//178
f 106//179 111//179 112//179
f 106//180 112//180 107//180
f 106//181 105//181 109//181
f 106//182 109//182 111//182
f 108//183 107//183 110//183
f 110//184 107//184 112//184
g \u4e3b\u5367\u5317\u5899\u8f6c\u89d2
f 113//185 114//185 115//185
f 116//186 113//186 115//186
f 117//187 116//187 115//187
f 117//188 115//188 118//188
f 119//189 117//189 118//189
f 119//190 118//190 120//190
f 119//191 120//191 121//191
f 122//192 119//192 121//192
f 123//193 122//193 121//193
f 123//194 121//194 124//194
f 113//195 123//195 124//195
f 113//196 124//196 114//196
f 117//197 119//197 122//197
f 117//198 122//198 123//198
f 113//199 116//199 117//199
f 113//200 117//200 123//200
f 120//201 118//201 121//201
f 121//202 118//202 124//202
f 115//203 114//203 118//203
f 118//204 114//204 124//204
g \u4e3b\u5367\u4e1c\u5899
f 125//205 126//205 127//205
f 128//206 125//206 127//206
f 129//207 128//207 127//207
f 129//208 127//208 130//208
f 131//209 129//209 130//209
f 131//210 130//210 132//210
f 131//211 132//211 133//211
f 134//212 131//212 133//212
f 135//213 134//213 133//213
f 135//214 133//214 136//214
f 137//215 135//215 136//215
f 137//216 136//216 138//216
f 139//217 137//217 138//217
f 139//218 138//218 140//218
f 126//219 139//219 140//219
f 125//220 139//220 126//220
f 134//221 129//221 131//221
f 137//222 134//222 135//222
f 137//223 139//223 134//223
f 125//224 128//224 139//224
f 128//225 129//225 139//225
f 139//226 129//226 134//226
f 130//227 133//227 132//227
f 133//228 138//228 136//228
f 140//229 138//229 133//229
f 127//230 126//230 140//230
f 130//231 127//231 140//231
f 130//232 140//232 133//232
g \u4e3b\u5367\u897f\u5357\u8f6c\u89d2
f 141//233 142//233 143//233
f 141//234 143//234 144//234
f 145//235 141//235 144//235
f 145//236 144//236 146//236
f 147//237 145//237 146//237
f 147//238 146//238 148//238
f 149//239 147//239 148//239
f 149//240 148//240 150//240
f 151//241 149//241 150//241
f 151//242 150//242 152//242
f 151//243 152//243 153//243
f 154//244 151//244 153//244
f 155//245 154//245 153//245
f 155//246 153//246 156//246
f 142//247 155//247 156//247
f 142//248 156//248 143//248
f 151//249 154//249 155//249
f 145//250 147//250 149//250
f 145//251 149//251 151//251
f 142//252 141//252 145//252
f 142//253 145//253 151//253
f 142//254 151//254 155//254
f 153//255 152//255 156//255
f 148//256 146//256 150//256
f 150//257 146//257 152//257
f 144//258 143//258 146//258
f 146//259 143//259 152//259
f 152//260 143//260 156//260
g \u4e3b\u5367\u897f\u5357\u7aef\u67f1
f 157//261 158//261 159//261
f 157//262 159//262 160//262
f 161//263 157//263 160//263
f 161//264 160//264 162//264
f 163//265 161//265 162//265
f 163//266 162//266 164//266
f 158//267 163//267 164//267
f 158//268 164//268 159//268
f 163//269 157//269 161//269
f 158//270 157//270 163//270
f 160//271 164//271 162//271
f 160//272 159//272 164//272
g \u4e3b\u5367\u5ba2\u5385\u5357\u7aef\u67f1
f 165//273 166//273 167//273
f 165//274 167//274 168//274
f 169//275 165//275 168//275
f 169//276 168//276 170//276
f 171//277 169//277 170//277
f 171//278 170//278 172//278
f 166//279 171//279 172//279
f 166//280 172//280 167//280
f 166//281 165//281 169//281
f 166//282 169//282 171//282
f 168//283 167//283 170//283
f 170//284 167//284 172//284
g \u5ba2\u5385\u6b21\u5367\u4e8c\u5357\u7aef\u67f1
f 173//285 174//285 175//285
f 173//286 175//286 176//286
f 177//287 173//287 176//287
f 177//288 176//288 178//288
f 179//289 177//289 178//289
f 179//290 178//290 180//290
f 174//291 179//291 180//291
f 174//292 180//292 175//292
f 174//293 173//293 177//293
f 174//294 177//294 179//294
f 176//295 175//295 178//295
f 178//296 175//296 180//296
g \u6b21\u5367\u4e8c\u4e1c\u5317\u5916\u5899
f 181//297 182//297 183//297
f 181//298 183//298 184//298
f 185//299 181//299 184//299
f 185//300 184//300 186//300
f 187//301 185//301 186//301
f 187//302 186//302 188//302
f 189//303 187//303 188//303
f 190//304 187//304 189//304
f 191//305 190//305 189//305
f 192//306 190//306 191//306
f 192//307 191//307 193//307
f 194//308 192//308 193//308
f 195//309 194//309 193//309
f 195//310 193//310 196//310
f 182//311 195//311 196//311
f 182//312 196//312 183//312
f 190//313 181//313 185//313
f 190//314 185//314 187//314
f 195//315 192//315 194//315
f 182//316 190//316 192//316
f 182//317 181//317 190//317
f 182//318 192//318 195//318
f 184//319 189//319 186//319
f 186//320 189//320 188//320
f 191//321 196//321 193//321
f 189//322 183//322 191//322
f 184//323 183//323 189//323
f 191//324 183//324 196//324
g \u6b21\u5367\u4e8c\u897f\u5899\u8f6c\u89d2
f 197//325 198//325 199//325
f 197//326 199//326 200//326
f 197//327 200//327 201//327
f 202//328 197//328 201//328
f 202//329 201//329 203//329
f 204//330 202//330 203//330
f 205//331 204//331 203//331
f 205//332 203//332 206//332
f 207//333 205//333 206//333
f 207//334 206//334 208//334
f 207//335 208//335 209//335
f 210//336 207//336 209//336
f 210//337 209//337 211//337
f 212//338 210//338 211//338
f 212//339 211//339 213//339
f 214//340 212//340 213//340
f 214//341 213//341 215//341
f 216//342 214//342 215//342
f 198//343 216//343 215//343
f 198//344 215//344 199//344
f 202//345 204//345 205//345
f 207//346 202//346 205//346
f 210//347 202//347 207//347
f 216//348 202//348 210//348
f 214//349 210//349 212//349
f 214//350 216//350 210//350
f 198//351 197//351 216//351
f 197//352 202//352 216//352
f 203//353 201//353 206//353
f 201//354 208//354 206//354
f 201//355 209//355 208//355
f 201//356 215//356 209//356
f 209//357 213//357 211//357
f 215//358 213//358 209//358
f 200//359 199//359 215//359
f 201//360 200//360 215//360
g \u6b21\u5367\u4e8c\u4e1c\u5357\u95e8\u8fb9
f 217//361 218//361 219//361
f 220//362 217//362 219//362
f 221//363 220//363 219//363
f 221//364 219//364 222//364
f 221//365 222//365 223//365
f 224//366 221//366 223//366
f 217//367 224//367 223//367
f 217//368 223//368 218//368
f 217//369 220//369 221//369
f 217//370 221//370 224//370
f 219//371 218//371 222//371
f 222//372 218//372 223//372
g \u4e3b\u536b\u8863\u5e3d\u533a\u9694\u5899\u897f
f 225//373 226//373 227//373
f 225//374 227//374 228//374
f 225//375 228//375 229//375
f 230//376 225//376 229//376
f 231//377 230//377 229//377
f 231//378 229//378 232//378
f 231//379 232//379 227//379
f 226//380 231//380 227//380
f 226//381 225//381 230//381
f 226//382 230//382 231//382
f 228//383 227//383 229//383
f 229//384 227//384 232//384
g \u4e3b\u536b\u8863\u5e3d\u533a\u9694\u5899\u4e1c
f 233//385 234//385 235//385
f 236//386 233//386 235//386
f 236//387 235//387 237//387
f 238//388 236//388 237//388
f 238//389 237//389 239//389
f 240//390 238//390 239//390
f 240//391 239//391 234//391
f 233//392 240//392 234//392
f 240//393 236//393 238//393
f 233//394 236//394 240//394
f 235//395 239//395 237//395
f 235//396 234//396 239//396
g \u6b21\u536b\u5bb6\u653f\u9694\u5899
f 241//397 242//397 243//397
f 244//398 241//398 243//398
f 245//399 244//399 243//399
f 245//400 243//400 246//400
f 245//401 246//401 247//401
f 248//402 245//402 247//402
f 241//403 248//403 247//403
f 241//404 247//404 242//404
f 241//405 244//405 245//405
f 241//406 245//406 248//406
f 243//407 242//407 246//407
f 246//408 242//408 247//408
g \u897f\u7ffc\u5357\u7a97\u95e8\u8fb9
f 249//409 250//409 251//409
f 252//410 249//410 251//410
f 252//411 251//411 253//411
f 254//412 252//412 253//412
f 255//413 254//413 253//413
f 255//414 253//414 256//414
f 257//415 255//415 256//415
f 257//416 256//416 258//416
f 259//417 257//417 258//417
f 259//418 258//418 260//418
f 249//419 259//419 260//419
f 249//420 260//420 250//420
f 252//421 255//421 257//421
f 252//422 257//422 259//422
f 254//423 255//423 252//423
f 249//424 252//424 259//424
f 256//425 251//425 258//425
f 258//426 251//426 260//426
f 256//427 253//427 251//427
f 251//428 250//428 260//428
