# Created by FreeCAD <https://www.freecad.org>
v 3093.300049 11646.519531 850.000000
v 3093.300049 11646.519531 2100.000000
v 3093.300049 11656.339844 850.000000
v 3093.300049 11656.339844 2100.000000
v 5793.799805 11646.519531 2100.000000
v 5793.799805 11646.519531 850.000000
v 5793.799805 11656.339844 850.000000
v 5793.799805 11656.339844 2100.000000
v 5725.060059 10085.139648 850.000000
v 5725.060059 10085.139648 2100.000000
v 5725.060059 11587.599609 850.000000
v 5725.060059 11587.599609 2100.000000
v 5734.879883 10085.139648 2100.000000
v 5734.879883 10085.139648 850.000000
v 5734.879883 11587.599609 850.000000
v 5734.879883 11587.599609 2100.000000
v 6913.279785 9967.299805 850.000000
v 6913.279785 9967.299805 2100.000000
v 6913.279785 9977.120117 850.000000
v 6913.279785 9977.120117 2100.000000
v 8317.540039 9967.299805 2100.000000
v 8317.540039 9967.299805 850.000000
v 8317.540039 9977.120117 850.000000
v 8317.540039 9977.120117 2100.000000
v 2101.479980 9024.580078 850.000000
v 2101.479980 9024.580078 2100.000000
v 2101.479980 9643.240234 850.000000
v 2101.479980 9643.240234 2100.000000
v 2111.300049 9024.580078 2100.000000
v 2111.300049 9024.580078 850.000000
v 2111.300049 9643.240234 850.000000
v 2111.300049 9643.240234 2100.000000
v 1198.040039 7767.620117 850.000000
v 1198.040039 7767.620117 2100.000000
v 1198.040039 7777.439941 850.000000
v 1198.040039 7777.439941 2100.000000
v 1797.060059 7767.620117 2100.000000
v 1797.060059 7767.620117 850.000000
v 1797.060059 7777.439941 850.000000
v 1797.060059 7777.439941 2100.000000
v 235.679993 2180.040039 850.000000
v 235.679993 2180.040039 2100.000000
v 235.679993 2189.860107 850.000000
v 235.679993 2189.860107 2100.000000
v 1855.979980 2180.040039 2100.000000
v 1855.979980 2180.040039 850.000000
v 1855.979980 2189.860107 850.000000
v 1855.979980 2189.860107 2100.000000
v 2238.959961 117.839996 850.000000
v 2238.959961 117.839996 2100.000000
v 2238.959961 127.660004 850.000000
v 2238.959961 127.660004 2100.000000
v 5401.000000 117.839996 2100.000000
v 5401.000000 117.839996 850.000000
v 5401.000000 127.660004 850.000000
v 5401.000000 127.660004 2100.000000
v 5970.560059 117.839996 850.000000
v 5970.560059 117.839996 2100.000000
v 5970.560059 127.660004 850.000000
v 5970.560059 127.660004 2100.000000
v 8965.660156 117.839996 2100.000000
v 8965.660156 117.839996 850.000000
v 8965.660156 127.660004 850.000000
v 8965.660156 127.660004 2100.000000
v 9427.200195 117.839996 850.000000
v 9427.200195 117.839996 2100.000000
v 9427.200195 127.660004 850.000000
v 9427.200195 127.660004 2100.000000
v 12353.559570 117.839996 2100.000000
v 12353.559570 117.839996 850.000000
v 12353.559570 127.660004 850.000000
v 12353.559570 127.660004 2100.000000
v 10163.700195 1934.540039 850.000000
v 10163.700195 1934.540039 2100.000000
v 10163.700195 1944.359985 850.000000
v 10163.700195 1944.359985 2100.000000
v 11567.959961 1934.540039 2100.000000
v 11567.959961 1934.540039 850.000000
v 11567.959961 1944.359985 850.000000
v 11567.959961 1944.359985 2100.000000
v 9162.059570 1826.520020 850.000000
v 9162.059570 225.860001 850.000000
v 9162.059570 1826.520020 2100.000000
v 9162.059570 225.860001 2100.000000
v 9171.879883 225.860001 850.000000
v 9171.879883 1826.520020 850.000000
v 9171.879883 1826.520020 2100.000000
v 9171.879883 225.860001 2100.000000
v 3849.439941 10026.219727 850.000000
v 3849.439941 10026.219727 2100.000000
v 3849.439941 10036.040039 850.000000
v 3849.439941 10036.040039 2100.000000
v 5567.939941 10026.219727 2100.000000
v 5567.939941 10026.219727 850.000000
v 5567.939941 10036.040039 850.000000
v 5567.939941 10036.040039 2100.000000
v 235.679993 6628.500000 0.000000
v 235.679993 6628.500000 2100.000000
v 235.679993 6824.899902 0.000000
v 235.679993 6824.899902 2100.000000
v 1993.459961 6628.500000 2100.000000
v 1993.459961 6628.500000 0.000000
v 1993.459961 6824.899902 0.000000
v 1993.459961 6824.899902 2100.000000
v 2238.959961 8838.000000 0.000000
v 2238.959961 8838.000000 2100.000000
v 2238.959961 9034.400391 0.000000
v 2238.959961 9034.400391 2100.000000
v 3731.600098 8838.000000 2100.000000
v 3731.600098 8838.000000 0.000000
v 3731.600098 9034.400391 0.000000
v 3731.600098 9034.400391 2100.000000
vn -1.000000 0.000000 0.000000
vn -1.000000 0.000000 0.000000
vn 1.000000 0.000000 0.000000
vn 1.000000 -0.000000 0.000000
vn 0.000000 -1.000000 0.000000
vn 0.000000 -1.000000 0.000000
vn 0.000000 1.000000 0.000000
vn 0.000000 1.000000 0.000000
vn 0.000000 0.000000 -1.000000
vn 0.000000 0.000000 -1.000000
vn 0.000000 0.000000 1.000000
vn 0.000000 0.000000 1.000000
vn -1.000000 0.000000 0.000000
vn -1.000000 0.000000 0.000000
vn 1.000000 0.000000 0.000000
vn 1.000000 -0.000000 0.000000
vn 0.000000 -1.000000 0.000000
vn 0.000000 -1.000000 0.000000
vn 0.000000 1.000000 0.000000
vn 0.000000 1.000000 0.000000
vn 0.000000 0.000000 -1.000000
vn 0.000000 0.000000 -1.000000
vn 0.000000 0.000000 1.000000
vn 0.000000 0.000000 1.000000
vn -1.000000 0.000000 0.000000
vn -1.000000 0.000000 0.000000
vn 1.000000 0.000000 0.000000
vn 1.000000 -0.000000 0.000000
vn 0.000000 -1.000000 0.000000
vn 0.000000 -1.000000 0.000000
vn 0.000000 1.000000 0.000000
vn 0.000000 1.000000 0.000000
vn 0.000000 0.000000 -1.000000
vn 0.000000 0.000000 -1.000000
vn 0.000000 0.000000 1.000000
vn 0.000000 0.000000 1.000000
vn -1.000000 0.000000 0.000000
vn -1.000000 0.000000 0.000000
vn 1.000000 0.000000 0.000000
vn 1.000000 -0.000000 0.000000
vn 0.000000 -1.000000 0.000000
vn 0.000000 -1.000000 0.000000
vn 0.000000 1.000000 0.000000
vn 0.000000 1.000000 0.000000
vn 0.000000 0.000000 -1.000000
vn 0.000000 0.000000 -1.000000
vn 0.000000 0.000000 1.000000
vn 0.000000 0.000000 1.000000
vn -1.000000 0.000000 0.000000
vn -1.000000 0.000000 0.000000
vn 1.000000 0.000000 0.000000
vn 1.000000 -0.000000 0.000000
vn 0.000000 -1.000000 0.000000
vn 0.000000 -1.000000 0.000000
vn 0.000000 1.000000 0.000000
vn 0.000000 1.000000 0.000000
vn 0.000000 0.000000 -1.000000
vn 0.000000 0.000000 -1.000000
vn 0.000000 0.000000 1.000000
vn 0.000000 0.000000 1.000000
vn -1.000000 0.000000 0.000000
vn -1.000000 0.000000 0.000000
vn 1.000000 0.000000 0.000000
vn 1.000000 -0.000000 0.000000
vn 0.000000 -1.000000 0.000000
vn 0.000000 -1.000000 0.000000
vn 0.000000 1.000000 0.000000
vn 0.000000 1.000000 0.000000
vn 0.000000 0.000000 -1.000000
vn 0.000000 0.000000 -1.000000
vn 0.000000 0.000000 1.000000
vn 0.000000 0.000000 1.000000
vn -1.000000 0.000000 0.000000
vn -1.000000 0.000000 0.000000
vn 1.000000 0.000000 0.000000
vn 1.000000 -0.000000 0.000000
vn 0.000000 -1.000000 0.000000
vn 0.000000 -1.000000 0.000000
vn 0.000000 1.000000 0.000000
vn 0.000000 1.000000 0.000000
vn 0.000000 0.000000 -1.000000
vn 0.000000 0.000000 -1.000000
vn 0.000000 0.000000 1.000000
vn 0.000000 0.000000 1.000000
vn -1.000000 0.000000 0.000000
vn -1.000000 0.000000 0.000000
vn 1.000000 0.000000 0.000000
vn 1.000000 -0.000000 0.000000
vn 0.000000 -1.000000 0.000000
vn 0.000000 -1.000000 0.000000
vn 0.000000 1.000000 0.000000
vn 0.000000 1.000000 0.000000
vn 0.000000 0.000000 -1.000000
vn 0.000000 0.000000 -1.000000
vn 0.000000 0.000000 1.000000
vn 0.000000 0.000000 1.000000
vn -1.000000 0.000000 0.000000
vn -1.000000 0.000000 0.000000
vn 1.000000 0.000000 0.000000
vn 1.000000 -0.000000 0.000000
vn 0.000000 -1.000000 0.000000
vn 0.000000 -1.000000 0.000000
vn 0.000000 1.000000 0.000000
vn 0.000000 1.000000 0.000000
vn 0.000000 0.000000 -1.000000
vn 0.000000 0.000000 -1.000000
vn 0.000000 0.000000 1.000000
vn 0.000000 0.000000 1.000000
vn -1.000000 0.000000 0.000000
vn -1.000000 0.000000 0.000000
vn 1.000000 0.000000 0.000000
vn 1.000000 -0.000000 0.000000
vn 0.000000 -1.000000 0.000000
vn 0.000000 -1.000000 0.000000
vn 0.000000 1.000000 0.000000
vn 0.000000 1.000000 0.000000
vn 0.000000 0.000000 -1.000000
vn 0.000000 0.000000 -1.000000
vn 0.000000 0.000000 1.000000
vn 0.000000 0.000000 1.000000
vn -1.000000 0.000000 0.000000
vn -1.000000 0.000000 0.000000
vn 1.000000 0.000000 0.000000
vn 1.000000 -0.000000 0.000000
vn 0.000000 -1.000000 0.000000
vn 0.000000 -1.000000 0.000000
vn 0.000000 1.000000 0.000000
vn 0.000000 1.000000 0.000000
vn 0.000000 0.000000 -1.000000
vn 0.000000 0.000000 -1.000000
vn 0.000000 0.000000 1.000000
vn 0.000000 0.000000 1.000000
vn -1.000000 0.000000 0.000000
vn -1.000000 0.000000 0.000000
vn 1.000000 0.000000 0.000000
vn 1.000000 -0.000000 0.000000
vn 0.000000 -1.000000 0.000000
vn 0.000000 -1.000000 0.000000
vn 0.000000 1.000000 0.000000
vn 0.000000 1.000000 0.000000
vn 0.000000 0.000000 -1.000000
vn 0.000000 0.000000 -1.000000
vn 0.000000 0.000000 1.000000
vn 0.000000 0.000000 1.000000
vn -1.000000 0.000000 0.000000
vn -1.000000 0.000000 0.000000
vn 1.000000 0.000000 0.000000
vn 1.000000 -0.000000 0.000000
vn 0.000000 -1.000000 0.000000
vn 0.000000 -1.000000 0.000000
vn 0.000000 1.000000 0.000000
vn 0.000000 1.000000 0.000000
vn 0.000000 0.000000 -1.000000
vn 0.000000 0.000000 -1.000000
vn 0.000000 0.000000 1.000000
vn 0.000000 0.000000 1.000000
vn -1.000000 0.000000 0.000000
vn -1.000000 0.000000 0.000000
vn 1.000000 0.000000 0.000000
vn 1.000000 -0.000000 0.000000
vn 0.000000 -1.000000 0.000000
vn 0.000000 -1.000000 0.000000
vn 0.000000 1.000000 0.000000
vn 0.000000 1.000000 0.000000
vn 0.000000 0.000000 -1.000000
vn 0.000000 0.000000 -1.000000
vn 0.000000 0.000000 1.000000
vn 0.000000 0.000000 1.000000
g \u53a8\u623f\u5317\u7a97
f 1//1 2//1 3//1
f 3//2 2//2 4//2
f 5//3 6//3 7//3
f 5//4 7//4 8//4
f 1//5 6//5 2//5
f 6//6 5//6 2//6
f 7//7 3//7 4//7
f 8//8 7//8 4//8
f 3//9 6//9 1//9
f 3//10 7//10 6//10
f 5//11 4//11 2//11
f 8//12 4//12 5//12
g \u53a8\u623f\u4e1c\u7a97
f 9//13 10//13 11//13
f 11//14 10//14 12//14
f 13//15 14//15 15//15
f 13//16 15//16 16//16
f 14//17 13//17 9//17
f 9//18 13//18 10//18
f 16//19 15//19 11//19
f 16//20 11//20 12//20
f 11//21 15//21 9//21
f 9//22 15//22 14//22
f 16//23 12//23 10//23
f 16//24 10//24 13//24
g \u6b21\u5367\u4e00\u5317\u7a97
f 17//25 18//25 19//25
f 19//26 18//26 20//26
f 21//27 22//27 23//27
f 21//28 23//28 24//28
f 22//29 21//29 17//29
f 17//30 21//30 18//30
f 24//31 23//31 19//31
f 24//32 19//32 20//32
f 19//33 22//33 17//33
f 19//34 23//34 22//34
f 21//35 20//35 18//35
f 24//36 20//36 21//36
g \u6b21\u536b\u897f\u7a97
f 25//37 26//37 27//37
f 27//38 26//38 28//38
f 29//39 30//39 31//39
f 29//40 31//40 32//40
f 30//41 29//41 25//41
f 25//42 29//42 26//42
f 32//43 31//43 27//43
f 32//44 27//44 28//44
f 27//45 31//45 25//45
f 25//46 31//46 30//46
f 32//47 28//47 26//47
f 32//48 26//48 29//48
g \u4e3b\u536b\u5317\u7a97
f 33//49 34//49 35//49
f 35//50 34//50 36//50
f 37//51 38//51 39//51
f 37//52 39//52 40//52
f 38//53 37//53 33//53
f 33//54 37//54 34//54
f 40//55 39//55 35//55
f 40//56 35//56 36//56
f 35//57 39//57 33//57
f 33//58 39//58 38//58
f 40//59 36//59 34//59
f 40//60 34//60 37//60
g \u8863\u5e3d\u533a\u5357\u7a97
f 41//61 42//61 43//61
f 43//62 42//62 44//62
f 45//63 46//63 47//63
f 45//64 47//64 48//64
f 41//65 46//65 42//65
f 46//66 45//66 42//66
f 47//67 43//67 44//67
f 48//68 47//68 44//68
f 43//69 47//69 41//69
f 41//70 47//70 46//70
f 48//71 44//71 42//71
f 48//72 42//72 45//72
g \u4e3b\u5367\u5357\u7a97
f 49//73 50//73 51//73
f 51//74 50//74 52//74
f 53//75 54//75 55//75
f 53//76 55//76 56//76
f 54//77 53//77 49//77
f 49//78 53//78 50//78
f 56//79 55//79 51//79
f 56//80 51//80 52//80
f 51//81 55//81 49//81
f 49//82 55//82 54//82
f 56//83 52//83 50//83
f 56//84 50//84 53//84
g \u5ba2\u5385\u5357\u7a97
f 57//85 58//85 59//85
f 59//86 58//86 60//86
f 61//87 62//87 63//87
f 61//88 63//88 64//88
f 57//89 62//89 58//89
f 62//90 61//90 58//90
f 63//91 59//91 60//91
f 64//92 63//92 60//92
f 59//93 63//93 57//93
f 57//94 63//94 62//94
f 64//95 60//95 58//95
f 64//96 58//96 61//96
g \u6b21\u5367\u4e8c\u7a97\u8fb9\u5357\u7a97
f 65//97 66//97 67//97
f 67//98 66//98 68//98
f 69//99 70//99 71//99
f 69//100 71//100 72//100
f 70//101 69//101 65//101
f 65//102 69//102 66//102
f 72//103 71//103 67//103
f 72//104 67//104 68//104
f 67//105 71//105 65//105
f 65//106 71//106 70//106
f 72//107 68//107 66//107
f 72//108 66//108 69//108
g \u6b21\u5367\u4e8c\u7a97\u8fb9\u79fb\u95e8
f 73//109 74//109 75//109
f 75//110 74//110 76//110
f 77//111 78//111 79//111
f 77//112 79//112 80//112
f 78//113 77//113 73//113
f 73//114 77//114 74//114
f 80//115 79//115 75//115
f 80//116 75//116 76//116
f 75//117 78//117 73//117
f 75//118 79//118 78//118
f 77//119 76//119 74//119
f 80//120 76//120 77//120
g \u5ba2\u5385\u7a97\u8fb9\u79fb\u95e8
f 81//121 82//121 83//121
f 82//122 84//122 83//122
f 85//123 86//123 87//123
f 88//124 85//124 87//124
f 85//125 88//125 82//125
f 82//126 88//126 84//126
f 87//127 86//127 81//127
f 87//128 81//128 83//128
f 81//129 86//129 82//129
f 82//130 86//130 85//130
f 87//131 83//131 84//131
f 87//132 84//132 88//132
g \u53a8\u623f\u79fb\u95e8
f 89//133 90//133 91//133
f 91//134 90//134 92//134
f 93//135 94//135 95//135
f 93//136 95//136 96//136
f 94//137 93//137 89//137
f 89//138 93//138 90//138
f 96//139 95//139 91//139
f 96//140 91//140 92//140
f 91//141 94//141 89//141
f 91//142 95//142 94//142
f 93//143 92//143 90//143
f 96//144 92//144 93//144
g \u4e3b\u536b\xb7\u6dcb\u6d74\xb7\u900f\u660e\u73bb\u7483\u5c4f
f 97//145 98//145 99//145
f 99//146 98//146 100//146
f 101//147 102//147 103//147
f 101//148 103//148 104//148
f 102//149 98//149 97//149
f 102//150 101//150 98//150
f 100//151 103//151 99//151
f 104//152 103//152 100//152
f 99//153 102//153 97//153
f 99//154 103//154 102//154
f 101//155 100//155 98//155
f 104//156 100//156 101//156
g \u6b21\u536b\xb7\u6dcb\u6d74\xb7\u900f\u660e\u73bb\u7483\u5c4f
f 105//157 106//157 107//157
f 107//158 106//158 108//158
f 109//159 110//159 111//159
f 109//160 111//160 112//160
f 110//161 109//161 105//161
f 105//162 109//162 106//162
f 112//163 111//163 107//163
f 112//164 107//164 108//164
f 107//165 111//165 105//165
f 105//166 111//166 110//166
f 112//167 108//167 106//167
f 112//168 106//168 109//168
