# Created by FreeCAD <https://www.freecad.org>
v 3446.820068 2396.080078 80.000000
v 3446.820068 2396.080078 300.000000
v 3446.820068 4232.419922 80.000000
v 3446.820068 4232.419922 300.000000
v 5548.299805 2396.080078 300.000000
v 5548.299805 2396.080078 80.000000
v 5548.299805 4232.419922 80.000000
v 5548.299805 4232.419922 300.000000
v 3515.560059 2464.820068 300.000000
v 3515.560059 2464.820068 560.000000
v 3515.560059 4163.680176 300.000000
v 3515.560059 4163.680176 560.000000
v 5479.560059 2464.820068 560.000000
v 5479.560059 2464.820068 300.000000
v 5479.560059 4163.680176 300.000000
v 5479.560059 4163.680176 560.000000
v 5450.100098 2396.080078 300.000000
v 5450.100098 2396.080078 920.000000
v 5450.100098 4232.419922 300.000000
v 5450.100098 4232.419922 920.000000
v 5548.299805 2396.080078 920.000000
v 5548.299805 2396.080078 300.000000
v 5548.299805 4232.419922 300.000000
v 5548.299805 4232.419922 920.000000
v 3614.938477 3754.971680 560.000000
v 3614.938477 2873.528320 560.000000
v 3614.938477 3754.971680 615.000000
v 3614.938477 2873.528320 615.000000
v 5380.181641 2873.528320 560.000000
v 5380.181641 3754.971680 560.000000
v 5380.181641 3754.971680 615.000000
v 5380.181641 2873.528320 615.000000
v 4623.648926 4048.785889 615.000000
v 4623.648926 3773.334961 615.000000
v 4623.648926 4048.785889 705.000000
v 4623.648926 3773.334961 705.000000
v 4959.885742 3773.334961 615.000000
v 4959.885742 4048.785889 615.000000
v 4959.885742 4048.785889 705.000000
v 4959.885742 3773.334961 705.000000
v 5064.959473 4048.785889 615.000000
v 5064.959473 3773.334961 615.000000
v 5064.959473 4048.785889 705.000000
v 5064.959473 3773.334961 705.000000
v 5401.196289 3773.334961 615.000000
v 5401.196289 4048.785889 615.000000
v 5401.196289 4048.785889 705.000000
v 5401.196289 3773.334961 705.000000
v 7315.899902 9299.540039 80.000000
v 7315.899902 7482.839844 80.000000
v 7315.899902 9299.540039 300.000000
v 7315.899902 7482.839844 300.000000
v 9427.200195 7482.839844 80.000000
v 9427.200195 9299.540039 80.000000
v 9427.200195 9299.540039 300.000000
v 9427.200195 7482.839844 300.000000
v 7384.640137 7551.580078 300.000000
v 7384.640137 7551.580078 560.000000
v 7384.640137 9230.799805 300.000000
v 7384.640137 9230.799805 560.000000
v 9358.459961 7551.580078 560.000000
v 9358.459961 7551.580078 300.000000
v 9358.459961 9230.799805 300.000000
v 9358.459961 9230.799805 560.000000
v 9329.000000 9299.540039 300.000000
v 9329.000000 7482.839844 300.000000
v 9329.000000 9299.540039 920.000000
v 9329.000000 7482.839844 920.000000
v 9427.200195 7482.839844 300.000000
v 9427.200195 9299.540039 300.000000
v 9427.200195 9299.540039 920.000000
v 9427.200195 7482.839844 920.000000
v 7484.804199 7955.182129 560.000000
v 7484.804199 7955.182129 615.000000
v 7484.804199 8827.198242 560.000000
v 7484.804199 8827.198242 615.000000
v 9258.295898 7955.182129 615.000000
v 9258.295898 7955.182129 560.000000
v 9258.295898 8827.198242 560.000000
v 9258.295898 8827.198242 615.000000
v 8498.227539 9117.870117 615.000000
v 8498.227539 8845.365234 615.000000
v 8498.227539 9117.870117 705.000000
v 8498.227539 8845.365234 705.000000
v 8836.036133 8845.365234 615.000000
v 8836.036133 9117.870117 615.000000
v 8836.036133 9117.870117 705.000000
v 8836.036133 8845.365234 705.000000
v 8941.600586 9117.870117 615.000000
v 8941.600586 8845.365234 615.000000
v 8941.600586 9117.870117 705.000000
v 8941.600586 8845.365234 705.000000
v 9279.409180 8845.365234 615.000000
v 9279.409180 9117.870117 615.000000
v 9279.409180 9117.870117 705.000000
v 9279.409180 8845.365234 705.000000
v 10252.080078 4124.399902 80.000000
v 10252.080078 2572.840088 80.000000
v 10252.080078 4124.399902 300.000000
v 10252.080078 2572.840088 300.000000
v 12353.559570 2572.840088 80.000000
v 12353.559570 4124.399902 80.000000
v 12353.559570 4124.399902 300.000000
v 12353.559570 2572.840088 300.000000
v 10320.820312 2641.580078 300.000000
v 10320.820312 2641.580078 560.000000
v 10320.820312 4055.659912 300.000000
v 10320.820312 4055.659912 560.000000
v 12284.820312 2641.580078 560.000000
v 12284.820312 2641.580078 300.000000
v 12284.820312 4055.659912 300.000000
v 12284.820312 4055.659912 560.000000
v 12255.360352 2572.840088 300.000000
v 12255.360352 2572.840088 920.000000
v 12255.360352 4124.399902 300.000000
v 12255.360352 4124.399902 920.000000
v 12353.559570 2572.840088 920.000000
v 12353.559570 2572.840088 300.000000
v 12353.559570 4124.399902 300.000000
v 12353.559570 4124.399902 920.000000
v 10420.198242 2976.245605 560.000000
v 10420.198242 2976.245605 615.000000
v 10420.198242 3720.994385 560.000000
v 10420.198242 3720.994385 615.000000
v 12185.441406 2976.245605 615.000000
v 12185.441406 2976.245605 560.000000
v 12185.441406 3720.994385 560.000000
v 12185.441406 3720.994385 615.000000
v 11428.909180 3736.510010 615.000000
v 11428.909180 3736.510010 705.000000
v 11428.909180 3969.243896 615.000000
v 11428.909180 3969.243896 705.000000
v 11765.145508 3736.510010 705.000000
v 11765.145508 3736.510010 615.000000
v 11765.145508 3969.243896 615.000000
v 11765.145508 3969.243896 705.000000
v 11870.219727 3736.510010 615.000000
v 11870.219727 3736.510010 705.000000
v 11870.219727 3969.243896 615.000000
v 11870.219727 3969.243896 705.000000
v 12206.456055 3736.510010 705.000000
v 12206.456055 3736.510010 615.000000
v 12206.456055 3969.243896 615.000000
v 12206.456055 3969.243896 705.000000
v 235.679993 2415.719971 0.000000
v 235.679993 2415.719971 2300.000000
v 235.679993 4723.419922 0.000000
v 235.679993 4723.419922 2300.000000
v 824.880005 2415.719971 2300.000000
v 824.880005 2415.719971 0.000000
v 824.880005 4723.419922 0.000000
v 824.880005 4723.419922 2300.000000
v 402.619995 2415.719971 0.000000
v 402.619995 2415.719971 2250.000000
v 402.619995 4723.419922 0.000000
v 402.619995 4723.419922 2250.000000
v 461.540009 2415.719971 2250.000000
v 461.540009 2415.719971 0.000000
v 461.540009 4723.419922 0.000000
v 461.540009 4723.419922 2250.000000
v 599.020020 2415.719971 0.000000
v 599.020020 2415.719971 2250.000000
v 599.020020 4723.419922 0.000000
v 599.020020 4723.419922 2250.000000
v 657.940002 2415.719971 2250.000000
v 657.940002 2415.719971 0.000000
v 657.940002 4723.419922 0.000000
v 657.940002 4723.419922 2250.000000
v 2238.959961 5990.200195 0.000000
v 2238.959961 5990.200195 2300.000000
v 2238.959961 6579.399902 0.000000
v 2238.959961 6579.399902 2300.000000
v 4438.640137 5990.200195 2300.000000
v 4438.640137 5990.200195 0.000000
v 4438.640137 6579.399902 0.000000
v 4438.640137 6579.399902 2300.000000
v 2942.726562 5990.200195 0.000000
v 2942.726562 5990.200195 2250.000000
v 2942.726562 6579.399902 0.000000
v 2942.726562 6579.399902 2250.000000
v 3001.646729 5990.200195 2250.000000
v 3001.646729 5990.200195 0.000000
v 3001.646729 6579.399902 0.000000
v 3001.646729 6579.399902 2250.000000
v 3675.953369 5990.200195 0.000000
v 3675.953369 5990.200195 2250.000000
v 3675.953369 6579.399902 0.000000
v 3675.953369 6579.399902 2250.000000
v 3734.873291 5990.200195 2250.000000
v 3734.873291 5990.200195 0.000000
v 3734.873291 6579.399902 0.000000
v 3734.873291 6579.399902 2250.000000
v 2238.959961 4566.299805 0.000000
v 2238.959961 5990.200195 2300.000000
v 2238.959961 5990.200195 0.000000
v 2238.959961 4566.299805 2300.000000
v 2828.159912 5990.200195 2300.000000
v 2828.159912 4566.299805 0.000000
v 2828.159912 5990.200195 0.000000
v 2828.159912 4566.299805 2300.000000
v 2405.899902 4566.299805 0.000000
v 2405.899902 5990.200195 2250.000000
v 2405.899902 5990.200195 0.000000
v 2405.899902 4566.299805 2250.000000
v 2464.820068 5990.200195 2250.000000
v 2464.820068 4566.299805 0.000000
v 2464.820068 5990.200195 0.000000
v 2464.820068 4566.299805 2250.000000
v 2602.300049 4566.299805 0.000000
v 2602.300049 5990.200195 2250.000000
v 2602.300049 5990.200195 0.000000
v 2602.300049 4566.299805 2250.000000
v 2661.219971 5990.200195 2250.000000
v 2661.219971 4566.299805 0.000000
v 2661.219971 5990.200195 0.000000
v 2661.219971 4566.299805 2250.000000
v 5882.180176 7836.359863 0.000000
v 5882.180176 7836.359863 2300.000000
v 5882.180176 9849.459961 0.000000
v 5882.180176 9849.459961 2300.000000
v 6392.819824 7836.359863 2300.000000
v 6392.819824 7836.359863 0.000000
v 6392.819824 9849.459961 0.000000
v 6392.819824 9849.459961 2300.000000
v 6022.933105 7836.359863 0.000000
v 6022.933105 7836.359863 2250.000000
v 6022.933105 9849.459961 0.000000
v 6022.933105 9849.459961 2250.000000
v 6081.853516 7836.359863 2250.000000
v 6081.853516 7836.359863 0.000000
v 6081.853516 9849.459961 0.000000
v 6081.853516 9849.459961 2250.000000
v 6193.146484 7836.359863 0.000000
v 6193.146484 7836.359863 2250.000000
v 6193.146484 9849.459961 0.000000
v 6193.146484 9849.459961 2250.000000
v 6252.066895 7836.359863 2250.000000
v 6252.066895 7836.359863 0.000000
v 6252.066895 9849.459961 0.000000
v 6252.066895 9849.459961 2250.000000
v 10360.099609 4801.979980 0.000000
v 10360.099609 5420.640137 2300.000000
v 10360.099609 5420.640137 0.000000
v 10360.099609 4801.979980 2300.000000
v 12353.559570 5420.640137 2300.000000
v 12353.559570 4801.979980 0.000000
v 12353.559570 5420.640137 0.000000
v 12353.559570 4801.979980 2300.000000
v 10995.126953 4801.979980 0.000000
v 10995.126953 4801.979980 2250.000000
v 10995.126953 5420.640137 0.000000
v 10995.126953 5420.640137 2250.000000
v 11054.046875 4801.979980 2250.000000
v 11054.046875 4801.979980 0.000000
v 11054.046875 5420.640137 0.000000
v 11054.046875 5420.640137 2250.000000
v 11659.613281 4801.979980 0.000000
v 11659.613281 4801.979980 2250.000000
v 11659.613281 5420.640137 0.000000
v 11659.613281 5420.640137 2250.000000
v 11718.533203 4801.979980 2250.000000
v 11718.533203 4801.979980 0.000000
v 11718.533203 5420.640137 0.000000
v 11718.533203 5420.640137 2250.000000
v 12049.139648 1826.520020 0.000000
v 12049.139648 225.860001 0.000000
v 12049.139648 1826.520020 1100.000000
v 12049.139648 225.860001 1100.000000
v 12353.559570 225.860001 0.000000
v 12353.559570 1826.520020 0.000000
v 12353.559570 1826.520020 1100.000000
v 12353.559570 225.860001 1100.000000
v 2837.979980 225.860001 0.000000
v 2837.979980 677.580017 750.000000
v 2837.979980 677.580017 0.000000
v 2837.979980 225.860001 750.000000
v 4036.020020 677.580017 750.000000
v 4036.020020 225.860001 0.000000
v 4036.020020 677.580017 0.000000
v 4036.020020 225.860001 750.000000
v 9820.000000 235.679993 0.000000
v 9820.000000 834.700012 750.000000
v 9820.000000 834.700012 0.000000
v 9820.000000 235.679993 750.000000
v 11617.059570 834.700012 750.000000
v 11617.059570 235.679993 0.000000
v 11617.059570 834.700012 0.000000
v 11617.059570 235.679993 750.000000
v 6579.399902 5037.660156 0.000000
v 6579.399902 4232.419922 0.000000
v 6579.399902 5037.660156 760.000000
v 6579.399902 4232.419922 760.000000
v 8003.299805 4232.419922 0.000000
v 8003.299805 5037.660156 0.000000
v 8003.299805 5037.660156 760.000000
v 8003.299805 4232.419922 760.000000
v 6785.620117 5106.399902 420.000000
v 6785.620117 5106.399902 510.000000
v 6785.620117 5420.640137 420.000000
v 6785.620117 5420.640137 510.000000
v 7099.859863 5106.399902 510.000000
v 7099.859863 5106.399902 420.000000
v 7099.859863 5420.640137 420.000000
v 7099.859863 5420.640137 510.000000
v 6785.620117 5371.540039 510.000000
v 6785.620117 5450.100098 890.000000
v 6785.620117 5450.100098 510.000000
v 6785.620117 5371.540039 890.000000
v 7099.859863 5450.100098 890.000000
v 7099.859863 5371.540039 510.000000
v 7099.859863 5450.100098 510.000000
v 7099.859863 5371.540039 890.000000
v 7423.919922 5106.399902 420.000000
v 7423.919922 5106.399902 510.000000
v 7423.919922 5420.640137 420.000000
v 7423.919922 5420.640137 510.000000
v 7738.160156 5106.399902 510.000000
v 7738.160156 5106.399902 420.000000
v 7738.160156 5420.640137 420.000000
v 7738.160156 5420.640137 510.000000
v 7423.919922 5371.540039 510.000000
v 7423.919922 5450.100098 890.000000
v 7423.919922 5450.100098 510.000000
v 7423.919922 5371.540039 890.000000
v 7738.160156 5450.100098 890.000000
v 7738.160156 5371.540039 510.000000
v 7738.160156 5450.100098 510.000000
v 7738.160156 5371.540039 890.000000
v 6785.620117 3800.340088 420.000000
v 6785.620117 3800.340088 510.000000
v 6785.620117 4114.580078 420.000000
v 6785.620117 4114.580078 510.000000
v 7099.859863 3800.340088 510.000000
v 7099.859863 3800.340088 420.000000
v 7099.859863 4114.580078 420.000000
v 7099.859863 4114.580078 510.000000
v 6785.620117 3770.879883 510.000000
v 6785.620117 3770.879883 890.000000
v 6785.620117 3849.439941 510.000000
v 6785.620117 3849.439941 890.000000
v 7099.859863 3770.879883 890.000000
v 7099.859863 3770.879883 510.000000
v 7099.859863 3849.439941 510.000000
v 7099.859863 3849.439941 890.000000
v 7423.919922 3800.340088 420.000000
v 7423.919922 3800.340088 510.000000
v 7423.919922 4114.580078 420.000000
v 7423.919922 4114.580078 510.000000
v 7738.160156 3800.340088 510.000000
v 7738.160156 3800.340088 420.000000
v 7738.160156 4114.580078 420.000000
v 7738.160156 4114.580078 510.000000
v 7423.919922 3770.879883 510.000000
v 7423.919922 3770.879883 890.000000
v 7423.919922 3849.439941 510.000000
v 7423.919922 3849.439941 890.000000
v 7738.160156 3770.879883 890.000000
v 7738.160156 3770.879883 510.000000
v 7738.160156 3849.439941 510.000000
v 7738.160156 3849.439941 890.000000
v 8052.399902 225.860001 80.000000
v 8052.399902 225.860001 440.000000
v 8052.399902 2425.540039 80.000000
v 8052.399902 2425.540039 440.000000
v 8955.839844 225.860001 440.000000
v 8955.839844 225.860001 80.000000
v 8955.839844 2425.540039 80.000000
v 8955.839844 2425.540039 440.000000
v 8130.959961 343.700012 440.000000
v 8130.959961 343.700012 610.000000
v 8130.959961 2307.699951 440.000000
v 8130.959961 2307.699951 610.000000
v 8877.280273 343.700012 610.000000
v 8877.280273 343.700012 440.000000
v 8877.280273 2307.699951 440.000000
v 8877.280273 2307.699951 610.000000
v 8818.360352 343.700012 600.000000
v 8818.360352 343.700012 870.000000
v 8818.360352 2307.699951 600.000000
v 8818.360352 2307.699951 870.000000
v 8955.839844 343.700012 870.000000
v 8955.839844 343.700012 600.000000
v 8955.839844 2307.699951 600.000000
v 8955.839844 2307.699951 870.000000
v 8091.680176 2189.860107 500.000000
v 8091.680176 2189.860107 730.000000
v 8091.680176 2327.340088 500.000000
v 8091.680176 2327.340088 730.000000
v 8818.360352 2189.860107 730.000000
v 8818.360352 2189.860107 500.000000
v 8818.360352 2327.340088 500.000000
v 8818.360352 2327.340088 730.000000
v 8091.680176 324.059998 500.000000
v 8091.680176 461.540009 730.000000
v 8091.680176 461.540009 500.000000
v 8091.680176 324.059998 730.000000
v 8818.360352 461.540009 730.000000
v 8818.360352 324.059998 500.000000
v 8818.360352 461.540009 500.000000
v 8818.360352 324.059998 730.000000
v 5813.439941 422.260010 0.000000
v 5813.439941 422.260010 500.000000
v 5813.439941 2229.139893 0.000000
v 5813.439941 2229.139893 500.000000
v 6157.140137 422.260010 500.000000
v 6157.140137 422.260010 0.000000
v 6157.140137 2229.139893 0.000000
v 6157.140137 2229.139893 500.000000
v 5754.520020 707.039978 650.000000
v 5754.520020 707.039978 1550.000000
v 5754.520020 1934.540039 650.000000
v 5754.520020 1934.540039 1550.000000
v 5872.359863 707.039978 1550.000000
v 5872.359863 707.039978 650.000000
v 5872.359863 1934.540039 650.000000
v 5872.359863 1934.540039 1550.000000
v 7070.399902 500.820007 0.000000
v 7070.399902 500.820007 450.000000
v 7070.399902 1394.439941 0.000000
v 7070.399902 1394.439941 450.000000
v 7620.319824 500.820007 450.000000
v 7620.319824 500.820007 0.000000
v 7620.319824 1394.439941 0.000000
v 7620.319824 1394.439941 450.000000
v 8317.540039 2523.739990 0.000000
v 8317.540039 2936.179932 500.000000
v 8317.540039 2936.179932 0.000000
v 8317.540039 2523.739990 500.000000
v 8729.980469 2936.179932 500.000000
v 8729.980469 2523.739990 0.000000
v 8729.980469 2936.179932 0.000000
v 8729.980469 2523.739990 500.000000
v 5793.799805 3584.300049 0.000000
v 5793.799805 3584.300049 2300.000000
v 5793.799805 5567.939941 0.000000
v 5793.799805 5567.939941 2300.000000
v 6196.419922 3584.300049 2300.000000
v 6196.419922 3584.300049 0.000000
v 6196.419922 5567.939941 0.000000
v 6196.419922 5567.939941 2300.000000
v 5793.799805 3584.300049 0.000000
v 5793.799805 2680.860107 0.000000
v 5793.799805 3584.300049 850.000000
v 5793.799805 2680.860107 850.000000
v 6196.419922 2680.860107 0.000000
v 6196.419922 3584.300049 0.000000
v 6196.419922 3584.300049 850.000000
v 6196.419922 2680.860107 850.000000
vn -1.000000 0.000000 0.000000
vn -1.000000 0.000000 0.000000
vn 1.000000 0.000000 0.000000
vn 1.000000 -0.000000 0.000000
vn 0.000000 -1.000000 0.000000
vn 0.000000 -1.000000 0.000000
vn 0.000000 1.000000 0.000000
vn 0.000000 1.000000 0.000000
vn 0.000000 0.000000 -1.000000
vn 0.000000 0.000000 -1.000000
vn 0.000000 0.000000 1.000000
vn 0.000000 0.000000 1.000000
vn -1.000000 0.000000 0.000000
vn -1.000000 0.000000 0.000000
vn 1.000000 0.000000 0.000000
vn 1.000000 -0.000000 0.000000
vn 0.000000 -1.000000 0.000000
vn 0.000000 -1.000000 0.000000
vn 0.000000 1.000000 0.000000
vn 0.000000 1.000000 0.000000
vn 0.000000 0.000000 -1.000000
vn 0.000000 0.000000 -1.000000
vn 0.000000 0.000000 1.000000
vn 0.000000 0.000000 1.000000
vn -1.000000 0.000000 0.000000
vn -1.000000 0.000000 0.000000
vn 1.000000 0.000000 0.000000
vn 1.000000 -0.000000 0.000000
vn 0.000000 -1.000000 0.000000
vn 0.000000 -1.000000 0.000000
vn 0.000000 1.000000 0.000000
vn 0.000000 1.000000 0.000000
vn 0.000000 0.000000 -1.000000
vn 0.000000 0.000000 -1.000000
vn 0.000000 0.000000 1.000000
vn 0.000000 0.000000 1.000000
vn -1.000000 0.000000 0.000000
vn -1.000000 0.000000 0.000000
vn 1.000000 0.000000 0.000000
vn 1.000000 -0.000000 0.000000
vn 0.000000 -1.000000 0.000000
vn 0.000000 -1.000000 0.000000
vn 0.000000 1.000000 0.000000
vn 0.000000 1.000000 0.000000
vn 0.000000 0.000000 -1.000000
vn 0.000000 0.000000 -1.000000
vn 0.000000 0.000000 1.000000
vn 0.000000 0.000000 1.000000
vn -1.000000 0.000000 0.000000
vn -1.000000 0.000000 0.000000
vn 1.000000 0.000000 0.000000
vn 1.000000 -0.000000 0.000000
vn 0.000000 -1.000000 0.000000
vn 0.000000 -1.000000 0.000000
vn 0.000000 1.000000 0.000000
vn 0.000000 1.000000 0.000000
vn 0.000000 0.000000 -1.000000
vn 0.000000 0.000000 -1.000000
vn 0.000000 0.000000 1.000000
vn 0.000000 0.000000 1.000000
vn -1.000000 0.000000 0.000000
vn -1.000000 0.000000 0.000000
vn 1.000000 0.000000 0.000000
vn 1.000000 -0.000000 0.000000
vn 0.000000 -1.000000 0.000000
vn 0.000000 -1.000000 0.000000
vn 0.000000 1.000000 0.000000
vn 0.000000 1.000000 0.000000
vn 0.000000 0.000000 -1.000000
vn 0.000000 0.000000 -1.000000
vn 0.000000 0.000000 1.000000
vn 0.000000 0.000000 1.000000
vn -1.000000 0.000000 0.000000
vn -1.000000 0.000000 0.000000
vn 1.000000 0.000000 0.000000
vn 1.000000 -0.000000 0.000000
vn 0.000000 -1.000000 0.000000
vn 0.000000 -1.000000 0.000000
vn 0.000000 1.000000 0.000000
vn 0.000000 1.000000 0.000000
vn 0.000000 0.000000 -1.000000
vn 0.000000 0.000000 -1.000000
vn 0.000000 0.000000 1.000000
vn 0.000000 0.000000 1.000000
vn -1.000000 0.000000 0.000000
vn -1.000000 0.000000 0.000000
vn 1.000000 0.000000 0.000000
vn 1.000000 -0.000000 0.000000
vn 0.000000 -1.000000 0.000000
vn 0.000000 -1.000000 0.000000
vn 0.000000 1.000000 0.000000
vn 0.000000 1.000000 0.000000
vn 0.000000 0.000000 -1.000000
vn 0.000000 0.000000 -1.000000
vn 0.000000 0.000000 1.000000
vn 0.000000 0.000000 1.000000
vn -1.000000 0.000000 0.000000
vn -1.000000 0.000000 0.000000
vn 1.000000 0.000000 0.000000
vn 1.000000 -0.000000 0.000000
vn 0.000000 -1.000000 0.000000
vn 0.000000 -1.000000 0.000000
vn 0.000000 1.000000 0.000000
vn 0.000000 1.000000 0.000000
vn 0.000000 0.000000 -1.000000
vn 0.000000 0.000000 -1.000000
vn 0.000000 0.000000 1.000000
vn 0.000000 0.000000 1.000000
vn -1.000000 0.000000 0.000000
vn -1.000000 0.000000 0.000000
vn 1.000000 0.000000 0.000000
vn 1.000000 -0.000000 0.000000
vn 0.000000 -1.000000 0.000000
vn 0.000000 -1.000000 0.000000
vn 0.000000 1.000000 0.000000
vn 0.000000 1.000000 0.000000
vn 0.000000 0.000000 -1.000000
vn 0.000000 0.000000 -1.000000
vn 0.000000 0.000000 1.000000
vn 0.000000 0.000000 1.000000
vn -1.000000 0.000000 0.000000
vn -1.000000 0.000000 0.000000
vn 1.000000 0.000000 0.000000
vn 1.000000 -0.000000 0.000000
vn 0.000000 -1.000000 0.000000
vn 0.000000 -1.000000 0.000000
vn 0.000000 1.000000 0.000000
vn 0.000000 1.000000 0.000000
vn 0.000000 0.000000 -1.000000
vn 0.000000 0.000000 -1.000000
vn 0.000000 0.000000 1.000000
vn 0.000000 0.000000 1.000000
vn -1.000000 0.000000 0.000000
vn -1.000000 0.000000 0.000000
vn 1.000000 0.000000 0.000000
vn 1.000000 -0.000000 0.000000
vn 0.000000 -1.000000 0.000000
vn 0.000000 -1.000000 0.000000
vn 0.000000 1.000000 0.000000
vn 0.000000 1.000000 0.000000
vn 0.000000 0.000000 -1.000000
vn 0.000000 0.000000 -1.000000
vn 0.000000 0.000000 1.000000
vn 0.000000 0.000000 1.000000
vn -1.000000 0.000000 0.000000
vn -1.000000 0.000000 0.000000
vn 1.000000 0.000000 0.000000
vn 1.000000 -0.000000 0.000000
vn 0.000000 -1.000000 0.000000
vn 0.000000 -1.000000 0.000000
vn 0.000000 1.000000 0.000000
vn 0.000000 1.000000 0.000000
vn 0.000000 0.000000 -1.000000
vn 0.000000 0.000000 -1.000000
vn 0.000000 0.000000 1.000000
vn 0.000000 0.000000 1.000000
vn -1.000000 0.000000 0.000000
vn -1.000000 0.000000 0.000000
vn 1.000000 0.000000 0.000000
vn 1.000000 -0.000000 0.000000
vn 0.000000 -1.000000 0.000000
vn 0.000000 -1.000000 0.000000
vn 0.000000 1.000000 0.000000
vn 0.000000 1.000000 0.000000
vn 0.000000 0.000000 -1.000000
vn 0.000000 0.000000 -1.000000
vn 0.000000 0.000000 1.000000
vn 0.000000 0.000000 1.000000
vn -1.000000 0.000000 0.000000
vn -1.000000 0.000000 0.000000
vn 1.000000 0.000000 0.000000
vn 1.000000 -0.000000 0.000000
vn 0.000000 -1.000000 0.000000
vn 0.000000 -1.000000 0.000000
vn 0.000000 1.000000 0.000000
vn 0.000000 1.000000 0.000000
vn 0.000000 0.000000 -1.000000
vn 0.000000 0.000000 -1.000000
vn 0.000000 0.000000 1.000000
vn 0.000000 0.000000 1.000000
vn -1.000000 0.000000 0.000000
vn -1.000000 0.000000 0.000000
vn 1.000000 0.000000 0.000000
vn 1.000000 -0.000000 0.000000
vn 0.000000 -1.000000 0.000000
vn 0.000000 -1.000000 0.000000
vn 0.000000 1.000000 0.000000
vn 0.000000 1.000000 0.000000
vn 0.000000 0.000000 -1.000000
vn 0.000000 0.000000 -1.000000
vn 0.000000 0.000000 1.000000
vn 0.000000 0.000000 1.000000
vn -1.000000 0.000000 0.000000
vn -1.000000 0.000000 0.000000
vn 1.000000 0.000000 0.000000
vn 1.000000 -0.000000 0.000000
vn 0.000000 -1.000000 0.000000
vn 0.000000 -1.000000 0.000000
vn 0.000000 1.000000 0.000000
vn 0.000000 1.000000 0.000000
vn 0.000000 0.000000 -1.000000
vn 0.000000 0.000000 -1.000000
vn 0.000000 0.000000 1.000000
vn 0.000000 0.000000 1.000000
vn -1.000000 0.000000 0.000000
vn -1.000000 0.000000 0.000000
vn 1.000000 0.000000 0.000000
vn 1.000000 -0.000000 0.000000
vn 0.000000 -1.000000 0.000000
vn 0.000000 -1.000000 0.000000
vn 0.000000 1.000000 0.000000
vn 0.000000 1.000000 0.000000
vn 0.000000 0.000000 -1.000000
vn 0.000000 0.000000 -1.000000
vn 0.000000 0.000000 1.000000
vn 0.000000 0.000000 1.000000
vn -1.000000 0.000000 0.000000
vn -1.000000 0.000000 0.000000
vn 1.000000 0.000000 0.000000
vn 1.000000 -0.000000 0.000000
vn 0.000000 -1.000000 0.000000
vn 0.000000 -1.000000 0.000000
vn 0.000000 1.000000 0.000000
vn 0.000000 1.000000 0.000000
vn 0.000000 0.000000 -1.000000
vn 0.000000 0.000000 -1.000000
vn 0.000000 0.000000 1.000000
vn 0.000000 0.000000 1.000000
vn -1.000000 0.000000 0.000000
vn -1.000000 0.000000 0.000000
vn 1.000000 0.000000 0.000000
vn 1.000000 -0.000000 0.000000
vn 0.000000 -1.000000 0.000000
vn 0.000000 -1.000000 0.000000
vn 0.000000 1.000000 0.000000
vn 0.000000 1.000000 0.000000
vn 0.000000 0.000000 -1.000000
vn 0.000000 0.000000 -1.000000
vn 0.000000 0.000000 1.000000
vn 0.000000 0.000000 1.000000
vn -1.000000 0.000000 0.000000
vn -1.000000 0.000000 0.000000
vn 1.000000 0.000000 0.000000
vn 1.000000 -0.000000 0.000000
vn 0.000000 -1.000000 0.000000
vn 0.000000 -1.000000 0.000000
vn 0.000000 1.000000 0.000000
vn 0.000000 1.000000 0.000000
vn 0.000000 0.000000 -1.000000
vn 0.000000 0.000000 -1.000000
vn 0.000000 0.000000 1.000000
vn 0.000000 0.000000 1.000000
vn -1.000000 0.000000 0.000000
vn -1.000000 0.000000 0.000000
vn 1.000000 0.000000 0.000000
vn 1.000000 -0.000000 0.000000
vn 0.000000 -1.000000 0.000000
vn 0.000000 -1.000000 0.000000
vn 0.000000 1.000000 0.000000
vn 0.000000 1.000000 0.000000
vn 0.000000 0.000000 -1.000000
vn 0.000000 0.000000 -1.000000
vn 0.000000 0.000000 1.000000
vn 0.000000 0.000000 1.000000
vn -1.000000 0.000000 0.000000
vn -1.000000 0.000000 0.000000
vn 1.000000 0.000000 0.000000
vn 1.000000 -0.000000 0.000000
vn 0.000000 -1.000000 0.000000
vn 0.000000 -1.000000 0.000000
vn 0.000000 1.000000 0.000000
vn 0.000000 1.000000 0.000000
vn 0.000000 0.000000 -1.000000
vn 0.000000 0.000000 -1.000000
vn 0.000000 0.000000 1.000000
vn 0.000000 0.000000 1.000000
vn -1.000000 0.000000 0.000000
vn -1.000000 0.000000 0.000000
vn 1.000000 0.000000 0.000000
vn 1.000000 -0.000000 0.000000
vn 0.000000 -1.000000 0.000000
vn 0.000000 -1.000000 0.000000
vn 0.000000 1.000000 0.000000
vn 0.000000 1.000000 0.000000
vn 0.000000 0.000000 -1.000000
vn 0.000000 0.000000 -1.000000
vn 0.000000 0.000000 1.000000
vn 0.000000 0.000000 1.000000
vn -1.000000 0.000000 0.000000
vn -1.000000 0.000000 0.000000
vn 1.000000 0.000000 0.000000
vn 1.000000 -0.000000 0.000000
vn 0.000000 -1.000000 0.000000
vn 0.000000 -1.000000 0.000000
vn 0.000000 1.000000 0.000000
vn 0.000000 1.000000 0.000000
vn 0.000000 0.000000 -1.000000
vn 0.000000 0.000000 -1.000000
vn 0.000000 0.000000 1.000000
vn 0.000000 0.000000 1.000000
vn -1.000000 0.000000 0.000000
vn -1.000000 0.000000 0.000000
vn 1.000000 0.000000 0.000000
vn 1.000000 -0.000000 0.000000
vn 0.000000 -1.000000 0.000000
vn 0.000000 -1.000000 0.000000
vn 0.000000 1.000000 0.000000
vn 0.000000 1.000000 0.000000
vn 0.000000 0.000000 -1.000000
vn 0.000000 0.000000 -1.000000
vn 0.000000 0.000000 1.000000
vn 0.000000 0.000000 1.000000
vn -1.000000 0.000000 0.000000
vn -1.000000 0.000000 0.000000
vn 1.000000 0.000000 0.000000
vn 1.000000 -0.000000 0.000000
vn 0.000000 -1.000000 0.000000
vn 0.000000 -1.000000 0.000000
vn 0.000000 1.000000 0.000000
vn 0.000000 1.000000 0.000000
vn 0.000000 0.000000 -1.000000
vn 0.000000 0.000000 -1.000000
vn 0.000000 0.000000 1.000000
vn 0.000000 0.000000 1.000000
vn -1.000000 0.000000 0.000000
vn -1.000000 0.000000 0.000000
vn 1.000000 0.000000 0.000000
vn 1.000000 -0.000000 0.000000
vn 0.000000 -1.000000 0.000000
vn 0.000000 -1.000000 0.000000
vn 0.000000 1.000000 0.000000
vn 0.000000 1.000000 0.000000
vn 0.000000 0.000000 -1.000000
vn 0.000000 0.000000 -1.000000
vn 0.000000 0.000000 1.000000
vn 0.000000 0.000000 1.000000
vn -1.000000 0.000000 0.000000
vn -1.000000 0.000000 0.000000
vn 1.000000 0.000000 0.000000
vn 1.000000 -0.000000 0.000000
vn 0.000000 -1.000000 0.000000
vn 0.000000 -1.000000 0.000000
vn 0.000000 1.000000 0.000000
vn 0.000000 1.000000 0.000000
vn 0.000000 0.000000 -1.000000
vn 0.000000 0.000000 -1.000000
vn 0.000000 0.000000 1.000000
vn 0.000000 0.000000 1.000000
vn -1.000000 0.000000 0.000000
vn -1.000000 0.000000 0.000000
vn 1.000000 0.000000 0.000000
vn 1.000000 -0.000000 0.000000
vn 0.000000 -1.000000 0.000000
vn 0.000000 -1.000000 0.000000
vn 0.000000 1.000000 0.000000
vn 0.000000 1.000000 0.000000
vn 0.000000 0.000000 -1.000000
vn 0.000000 0.000000 -1.000000
vn 0.000000 0.000000 1.000000
vn 0.000000 0.000000 1.000000
vn -1.000000 0.000000 0.000000
vn -1.000000 0.000000 0.000000
vn 1.000000 0.000000 0.000000
vn 1.000000 -0.000000 0.000000
vn 0.000000 -1.000000 0.000000
vn 0.000000 -1.000000 0.000000
vn 0.000000 1.000000 0.000000
vn 0.000000 1.000000 0.000000
vn 0.000000 0.000000 -1.000000
vn 0.000000 0.000000 -1.000000
vn 0.000000 0.000000 1.000000
vn 0.000000 0.000000 1.000000
vn -1.000000 0.000000 0.000000
vn -1.000000 0.000000 0.000000
vn 1.000000 0.000000 0.000000
vn 1.000000 -0.000000 0.000000
vn 0.000000 -1.000000 0.000000
vn 0.000000 -1.000000 0.000000
vn 0.000000 1.000000 0.000000
vn 0.000000 1.000000 0.000000
vn 0.000000 0.000000 -1.000000
vn 0.000000 0.000000 -1.000000
vn 0.000000 0.000000 1.000000
vn 0.000000 0.000000 1.000000
vn -1.000000 0.000000 0.000000
vn -1.000000 0.000000 0.000000
vn 1.000000 0.000000 0.000000
vn 1.000000 -0.000000 0.000000
vn 0.000000 -1.000000 0.000000
vn 0.000000 -1.000000 0.000000
vn 0.000000 1.000000 0.000000
vn 0.000000 1.000000 0.000000
vn 0.000000 0.000000 -1.000000
vn 0.000000 0.000000 -1.000000
vn 0.000000 0.000000 1.000000
vn 0.000000 0.000000 1.000000
vn -1.000000 0.000000 0.000000
vn -1.000000 0.000000 0.000000
vn 1.000000 0.000000 0.000000
vn 1.000000 -0.000000 0.000000
vn 0.000000 -1.000000 0.000000
vn 0.000000 -1.000000 0.000000
vn 0.000000 1.000000 0.000000
vn 0.000000 1.000000 0.000000
vn 0.000000 0.000000 -1.000000
vn 0.000000 0.000000 -1.000000
vn 0.000000 0.000000 1.000000
vn 0.000000 0.000000 1.000000
vn -1.000000 0.000000 0.000000
vn -1.000000 0.000000 0.000000
vn 1.000000 0.000000 0.000000
vn 1.000000 -0.000000 0.000000
vn 0.000000 -1.000000 0.000000
vn 0.000000 -1.000000 0.000000
vn 0.000000 1.000000 0.000000
vn 0.000000 1.000000 0.000000
vn 0.000000 0.000000 -1.000000
vn 0.000000 0.000000 -1.000000
vn 0.000000 0.000000 1.000000
vn 0.000000 0.000000 1.000000
vn -1.000000 0.000000 0.000000
vn -1.000000 0.000000 0.000000
vn 1.000000 0.000000 0.000000
vn 1.000000 -0.000000 0.000000
vn 0.000000 -1.000000 0.000000
vn 0.000000 -1.000000 0.000000
vn 0.000000 1.000000 0.000000
vn 0.000000 1.000000 0.000000
vn 0.000000 0.000000 -1.000000
vn 0.000000 0.000000 -1.000000
vn 0.000000 0.000000 1.000000
vn 0.000000 0.000000 1.000000
vn -1.000000 0.000000 0.000000
vn -1.000000 0.000000 0.000000
vn 1.000000 0.000000 0.000000
vn 1.000000 -0.000000 0.000000
vn 0.000000 -1.000000 0.000000
vn 0.000000 -1.000000 0.000000
vn 0.000000 1.000000 0.000000
vn 0.000000 1.000000 0.000000
vn 0.000000 0.000000 -1.000000
vn 0.000000 0.000000 -1.000000
vn 0.000000 0.000000 1.000000
vn 0.000000 0.000000 1.000000
vn -1.000000 0.000000 0.000000
vn -1.000000 0.000000 0.000000
vn 1.000000 0.000000 0.000000
vn 1.000000 -0.000000 0.000000
vn 0.000000 -1.000000 0.000000
vn 0.000000 -1.000000 0.000000
vn 0.000000 1.000000 0.000000
vn 0.000000 1.000000 0.000000
vn 0.000000 0.000000 -1.000000
vn 0.000000 0.000000 -1.000000
vn 0.000000 0.000000 1.000000
vn 0.000000 0.000000 1.000000
vn -1.000000 0.000000 0.000000
vn -1.000000 0.000000 0.000000
vn 1.000000 0.000000 0.000000
vn 1.000000 -0.000000 0.000000
vn 0.000000 -1.000000 0.000000
vn 0.000000 -1.000000 0.000000
vn 0.000000 1.000000 0.000000
vn 0.000000 1.000000 0.000000
vn 0.000000 0.000000 -1.000000
vn 0.000000 0.000000 -1.000000
vn 0.000000 0.000000 1.000000
vn 0.000000 0.000000 1.000000
vn -1.000000 0.000000 0.000000
vn -1.000000 0.000000 0.000000
vn 1.000000 0.000000 0.000000
vn 1.000000 -0.000000 0.000000
vn 0.000000 -1.000000 0.000000
vn 0.000000 -1.000000 0.000000
vn 0.000000 1.000000 0.000000
vn 0.000000 1.000000 0.000000
vn 0.000000 0.000000 -1.000000
vn 0.000000 0.000000 -1.000000
vn 0.000000 0.000000 1.000000
vn 0.000000 0.000000 1.000000
vn -1.000000 0.000000 0.000000
vn -1.000000 0.000000 0.000000
vn 1.000000 0.000000 0.000000
vn 1.000000 -0.000000 0.000000
vn 0.000000 -1.000000 0.000000
vn 0.000000 -1.000000 0.000000
vn 0.000000 1.000000 0.000000
vn 0.000000 1.000000 0.000000
vn 0.000000 0.000000 -1.000000
vn 0.000000 0.000000 -1.000000
vn 0.000000 0.000000 1.000000
vn 0.000000 0.000000 1.000000
vn -1.000000 0.000000 0.000000
vn -1.000000 0.000000 0.000000
vn 1.000000 0.000000 0.000000
vn 1.000000 -0.000000 0.000000
vn 0.000000 -1.000000 0.000000
vn 0.000000 -1.000000 0.000000
vn 0.000000 1.000000 0.000000
vn 0.000000 1.000000 0.000000
vn 0.000000 0.000000 -1.000000
vn 0.000000 0.000000 -1.000000
vn 0.000000 0.000000 1.000000
vn 0.000000 0.000000 1.000000
vn -1.000000 0.000000 0.000000
vn -1.000000 0.000000 0.000000
vn 1.000000 0.000000 0.000000
vn 1.000000 -0.000000 0.000000
vn 0.000000 -1.000000 0.000000
vn 0.000000 -1.000000 0.000000
vn 0.000000 1.000000 0.000000
vn 0.000000 1.000000 0.000000
vn 0.000000 0.000000 -1.000000
vn 0.000000 0.000000 -1.000000
vn 0.000000 0.000000 1.000000
vn 0.000000 0.000000 1.000000
vn -1.000000 0.000000 0.000000
vn -1.000000 0.000000 0.000000
vn 1.000000 0.000000 0.000000
vn 1.000000 -0.000000 0.000000
vn 0.000000 -1.000000 0.000000
vn 0.000000 -1.000000 0.000000
vn 0.000000 1.000000 0.000000
vn 0.000000 1.000000 0.000000
vn 0.000000 0.000000 -1.000000
vn 0.000000 0.000000 -1.000000
vn 0.000000 0.000000 1.000000
vn 0.000000 0.000000 1.000000
vn -1.000000 0.000000 0.000000
vn -1.000000 0.000000 0.000000
vn 1.000000 0.000000 0.000000
vn 1.000000 -0.000000 0.000000
vn 0.000000 -1.000000 0.000000
vn 0.000000 -1.000000 0.000000
vn 0.000000 1.000000 0.000000
vn 0.000000 1.000000 0.000000
vn 0.000000 0.000000 -1.000000
vn 0.000000 0.000000 -1.000000
vn 0.000000 0.000000 1.000000
vn 0.000000 0.000000 1.000000
vn -1.000000 0.000000 0.000000
vn -1.000000 0.000000 0.000000
vn 1.000000 0.000000 0.000000
vn 1.000000 -0.000000 0.000000
vn 0.000000 -1.000000 0.000000
vn 0.000000 -1.000000 0.000000
vn 0.000000 1.000000 0.000000
vn 0.000000 1.000000 0.000000
vn 0.000000 0.000000 -1.000000
vn 0.000000 0.000000 -1.000000
vn 0.000000 0.000000 1.000000
vn 0.000000 0.000000 1.000000
vn -1.000000 0.000000 0.000000
vn -1.000000 0.000000 0.000000
vn 1.000000 0.000000 0.000000
vn 1.000000 -0.000000 0.000000
vn 0.000000 -1.000000 0.000000
vn 0.000000 -1.000000 0.000000
vn 0.000000 1.000000 0.000000
vn 0.000000 1.000000 0.000000
vn 0.000000 0.000000 -1.000000
vn 0.000000 0.000000 -1.000000
vn 0.000000 0.000000 1.000000
vn 0.000000 0.000000 1.000000
vn -1.000000 0.000000 0.000000
vn -1.000000 0.000000 0.000000
vn 1.000000 0.000000 0.000000
vn 1.000000 -0.000000 0.000000
vn 0.000000 -1.000000 0.000000
vn 0.000000 -1.000000 0.000000
vn 0.000000 1.000000 0.000000
vn 0.000000 1.000000 0.000000
vn 0.000000 0.000000 -1.000000
vn 0.000000 0.000000 -1.000000
vn 0.000000 0.000000 1.000000
vn 0.000000 0.000000 1.000000
vn -1.000000 0.000000 0.000000
vn -1.000000 0.000000 0.000000
vn 1.000000 0.000000 0.000000
vn 1.000000 -0.000000 0.000000
vn 0.000000 -1.000000 0.000000
vn 0.000000 -1.000000 0.000000
vn 0.000000 1.000000 0.000000
vn 0.000000 1.000000 0.000000
vn 0.000000 0.000000 -1.000000
vn 0.000000 0.000000 -1.000000
vn 0.000000 0.000000 1.000000
vn 0.000000 0.000000 1.000000
vn -1.000000 0.000000 0.000000
vn -1.000000 0.000000 0.000000
vn 1.000000 0.000000 0.000000
vn 1.000000 -0.000000 0.000000
vn 0.000000 -1.000000 0.000000
vn 0.000000 -1.000000 0.000000
vn 0.000000 1.000000 0.000000
vn 0.000000 1.000000 0.000000
vn 0.000000 0.000000 -1.000000
vn 0.000000 0.000000 -1.000000
vn 0.000000 0.000000 1.000000
vn 0.000000 0.000000 1.000000
vn -1.000000 0.000000 0.000000
vn -1.000000 0.000000 0.000000
vn 1.000000 0.000000 0.000000
vn 1.000000 -0.000000 0.000000
vn 0.000000 -1.000000 0.000000
vn 0.000000 -1.000000 0.000000
vn 0.000000 1.000000 0.000000
vn 0.000000 1.000000 0.000000
vn 0.000000 0.000000 -1.000000
vn 0.000000 0.000000 -1.000000
vn 0.000000 0.000000 1.000000
vn 0.000000 0.000000 1.000000
vn -1.000000 0.000000 0.000000
vn -1.000000 0.000000 0.000000
vn 1.000000 0.000000 0.000000
vn 1.000000 -0.000000 0.000000
vn 0.000000 -1.000000 0.000000
vn 0.000000 -1.000000 0.000000
vn 0.000000 1.000000 0.000000
vn 0.000000 1.000000 0.000000
vn 0.000000 0.000000 -1.000000
vn 0.000000 0.000000 -1.000000
vn 0.000000 0.000000 1.000000
vn 0.000000 0.000000 1.000000
vn -1.000000 0.000000 0.000000
vn -1.000000 0.000000 0.000000
vn 1.000000 0.000000 0.000000
vn 1.000000 -0.000000 0.000000
vn 0.000000 -1.000000 0.000000
vn 0.000000 -1.000000 0.000000
vn 0.000000 1.000000 0.000000
vn 0.000000 1.000000 0.000000
vn 0.000000 0.000000 -1.000000
vn 0.000000 0.000000 -1.000000
vn 0.000000 0.000000 1.000000
vn 0.000000 0.000000 1.000000
vn -1.000000 0.000000 0.000000
vn -1.000000 0.000000 0.000000
vn 1.000000 0.000000 0.000000
vn 1.000000 -0.000000 0.000000
vn 0.000000 -1.000000 0.000000
vn 0.000000 -1.000000 0.000000
vn 0.000000 1.000000 0.000000
vn 0.000000 1.000000 0.000000
vn 0.000000 0.000000 -1.000000
vn 0.000000 0.000000 -1.000000
vn 0.000000 0.000000 1.000000
vn 0.000000 0.000000 1.000000
vn -1.000000 0.000000 0.000000
vn -1.000000 0.000000 0.000000
vn 1.000000 0.000000 0.000000
vn 1.000000 -0.000000 0.000000
vn 0.000000 -1.000000 0.000000
vn 0.000000 -1.000000 0.000000
vn 0.000000 1.000000 0.000000
vn 0.000000 1.000000 0.000000
vn 0.000000 0.000000 -1.000000
vn 0.000000 0.000000 -1.000000
vn 0.000000 0.000000 1.000000
vn 0.000000 0.000000 1.000000
vn -1.000000 0.000000 0.000000
vn -1.000000 0.000000 0.000000
vn 1.000000 0.000000 0.000000
vn 1.000000 -0.000000 0.000000
vn 0.000000 -1.000000 0.000000
vn 0.000000 -1.000000 0.000000
vn 0.000000 1.000000 0.000000
vn 0.000000 1.000000 0.000000
vn 0.000000 0.000000 -1.000000
vn 0.000000 0.000000 -1.000000
vn 0.000000 0.000000 1.000000
vn 0.000000 0.000000 1.000000
g \u592b\u59bb\u4e3b\u5367\u5e8a\xb7\u5e8a\u67b6
f 1//1 2//1 3//1
f 3//2 2//2 4//2
f 5//3 6//3 7//3
f 5//4 7//4 8//4
f 6//5 5//5 1//5
f 1//6 5//6 2//6
f 8//7 7//7 3//7
f 8//8 3//8 4//8
f 3//9 7//9 1//9
f 1//10 7//10 6//10
f 8//11 4//11 2//11
f 8//12 2//12 5//12
g \u592b\u59bb\u4e3b\u5367\u5e8a\xb7\u5e8a\u57ab
f 9//13 10//13 11//13
f 11//14 10//14 12//14
f 13//15 14//15 15//15
f 13//16 15//16 16//16
f 14//17 13//17 9//17
f 9//18 13//18 10//18
f 16//19 15//19 11//19
f 16//20 11//20 12//20
f 11//21 15//21 9//21
f 9//22 15//22 14//22
f 16//23 12//23 10//23
f 16//24 10//24 13//24
g \u592b\u59bb\u4e3b\u5367\u5e8a\xb7\u8584\u578b\u5e8a\u5934\u677f
f 17//25 18//25 19//25
f 19//26 18//26 20//26
f 21//27 22//27 23//27
f 21//28 23//28 24//28
f 22//29 21//29 17//29
f 17//30 21//30 18//30
f 24//31 23//31 19//31
f 24//32 19//32 20//32
f 19//33 23//33 17//33
f 17//34 23//34 22//34
f 24//35 20//35 18//35
f 24//36 18//36 21//36
g \u592b\u59bb\u4e3b\u5367\u5e8a\xb7\u88ab\u8925
f 25//37 26//37 27//37
f 26//38 28//38 27//38
f 29//39 30//39 31//39
f 32//40 29//40 31//40
f 29//41 32//41 26//41
f 26//42 32//42 28//42
f 31//43 30//43 25//43
f 31//44 25//44 27//44
f 25//45 29//45 26//45
f 25//46 30//46 29//46
f 32//47 27//47 28//47
f 31//48 27//48 32//48
g \u592b\u59bb\u4e3b\u5367\u5e8a\xb7\u6795\u59341
f 33//49 34//49 35//49
f 34//50 36//50 35//50
f 37//51 38//51 39//51
f 40//52 37//52 39//52
f 34//53 37//53 36//53
f 37//54 40//54 36//54
f 38//55 33//55 35//55
f 39//56 38//56 35//56
f 33//57 38//57 34//57
f 34//58 38//58 37//58
f 39//59 35//59 36//59
f 39//60 36//60 40//60
g \u592b\u59bb\u4e3b\u5367\u5e8a\xb7\u6795\u59342
f 41//61 42//61 43//61
f 42//62 44//62 43//62
f 45//63 46//63 47//63
f 48//64 45//64 47//64
f 42//65 45//65 44//65
f 45//66 48//66 44//66
f 46//67 41//67 43//67
f 47//68 46//68 43//68
f 41//69 46//69 42//69
f 42//70 46//70 45//70
f 47//71 43//71 44//71
f 47//72 44//72 48//72
g \u8001\u4eba\u5e8a\xb7\u5e8a\u67b6
f 49//73 50//73 51//73
f 50//74 52//74 51//74
f 53//75 54//75 55//75
f 56//76 53//76 55//76
f 53//77 56//77 50//77
f 50//78 56//78 52//78
f 55//79 54//79 49//79
f 55//80 49//80 51//80
f 49//81 53//81 50//81
f 49//82 54//82 53//82
f 56//83 51//83 52//83
f 55//84 51//84 56//84
g \u8001\u4eba\u5e8a\xb7\u5e8a\u57ab
f 57//85 58//85 59//85
f 59//86 58//86 60//86
f 61//87 62//87 63//87
f 61//88 63//88 64//88
f 62//89 61//89 57//89
f 57//90 61//90 58//90
f 64//91 63//91 59//91
f 64//92 59//92 60//92
f 59//93 63//93 57//93
f 57//94 63//94 62//94
f 64//95 60//95 58//95
f 64//96 58//96 61//96
g \u8001\u4eba\u5e8a\xb7\u8584\u578b\u5e8a\u5934\u677f
f 65//97 66//97 67//97
f 66//98 68//98 67//98
f 69//99 70//99 71//99
f 72//100 69//100 71//100
f 69//101 72//101 66//101
f 66//102 72//102 68//102
f 71//103 70//103 65//103
f 71//104 65//104 67//104
f 65//105 70//105 66//105
f 66//106 70//106 69//106
f 71//107 67//107 68//107
f 71//108 68//108 72//108
g \u8001\u4eba\u5e8a\xb7\u88ab\u8925
f 73//109 74//109 75//109
f 75//110 74//110 76//110
f 77//111 78//111 79//111
f 77//112 79//112 80//112
f 78//113 77//113 73//113
f 73//114 77//114 74//114
f 80//115 79//115 75//115
f 80//116 75//116 76//116
f 75//117 79//117 73//117
f 73//118 79//118 78//118
f 80//119 76//119 74//119
f 80//120 74//120 77//120
g \u8001\u4eba\u5e8a\xb7\u6795\u59341
f 81//121 82//121 83//121
f 82//122 84//122 83//122
f 85//123 86//123 87//123
f 88//124 85//124 87//124
f 85//125 88//125 82//125
f 82//126 88//126 84//126
f 87//127 86//127 81//127
f 87//128 81//128 83//128
f 81//129 86//129 82//129
f 82//130 86//130 85//130
f 87//131 83//131 84//131
f 87//132 84//132 88//132
g \u8001\u4eba\u5e8a\xb7\u6795\u59342
f 89//133 90//133 91//133
f 90//134 92//134 91//134
f 93//135 94//135 95//135
f 96//136 93//136 95//136
f 93//137 96//137 90//137
f 90//138 96//138 92//138
f 95//139 94//139 89//139
f 95//140 89//140 91//140
f 89//141 94//141 90//141
f 90//142 94//142 93//142
f 95//143 91//143 92//143
f 95//144 92//144 96//144
g \u513f\u7ae5\u5e8a\xb7\u5e8a\u67b6
f 97//145 98//145 99//145
f 98//146 100//146 99//146
f 101//147 102//147 103//147
f 104//148 101//148 103//148
f 101//149 104//149 98//149
f 98//150 104//150 100//150
f 103//151 102//151 97//151
f 103//152 97//152 99//152
f 97//153 101//153 98//153
f 97//154 102//154 101//154
f 104//155 99//155 100//155
f 103//156 99//156 104//156
g \u513f\u7ae5\u5e8a\xb7\u5e8a\u57ab
f 105//157 106//157 107//157
f 107//158 106//158 108//158
f 109//159 110//159 111//159
f 109//160 111//160 112//160
f 110//161 109//161 105//161
f 105//162 109//162 106//162
f 112//163 111//163 107//163
f 112//164 107//164 108//164
f 107//165 111//165 105//165
f 105//166 111//166 110//166
f 112//167 108//167 106//167
f 112//168 106//168 109//168
g \u513f\u7ae5\u5e8a\xb7\u8584\u578b\u5e8a\u5934\u677f
f 113//169 114//169 115//169
f 115//170 114//170 116//170
f 117//171 118//171 119//171
f 117//172 119//172 120//172
f 118//173 117//173 113//173
f 113//174 117//174 114//174
f 120//175 119//175 115//175
f 120//176 115//176 116//176
f 115//177 119//177 113//177
f 113//178 119//178 118//178
f 120//179 116//179 114//179
f 120//180 114//180 117//180
g \u513f\u7ae5\u5e8a\xb7\u88ab\u8925
f 121//181 122//181 123//181
f 123//182 122//182 124//182
f 125//183 126//183 127//183
f 125//184 127//184 128//184
f 126//185 125//185 121//185
f 121//186 125//186 122//186
f 128//187 127//187 123//187
f 128//188 123//188 124//188
f 123//189 126//189 121//189
f 123//190 127//190 126//190
f 125//191 124//191 122//191
f 128//192 124//192 125//192
g \u513f\u7ae5\u5e8a\xb7\u6795\u59341
f 129//193 130//193 131//193
f 131//194 130//194 132//194
f 133//195 134//195 135//195
f 133//196 135//196 136//196
f 134//197 133//197 129//197
f 129//198 133//198 130//198
f 136//199 135//199 131//199
f 136//200 131//200 132//200
f 131//201 135//201 129//201
f 129//202 135//202 134//202
f 136//203 132//203 130//203
f 136//204 130//204 133//204
g \u513f\u7ae5\u5e8a\xb7\u6795\u59342
f 137//205 138//205 139//205
f 139//206 138//206 140//206
f 141//207 142//207 143//207
f 141//208 143//208 144//208
f 142//209 141//209 137//209
f 137//210 141//210 138//210
f 144//211 143//211 139//211
f 144//212 139//212 140//212
f 139//213 143//213 137//213
f 137//214 143//214 142//214
f 144//215 140//215 138//215
f 144//216 138//216 141//216
g \u8863\u5e3d\u533a\u957f\u67dc
f 145//217 146//217 147//217
f 147//218 146//218 148//218
f 149//219 150//219 151//219
f 149//220 151//220 152//220
f 150//221 149//221 145//221
f 145//222 149//222 146//222
f 152//223 151//223 147//223
f 152//224 147//224 148//224
f 147//225 151//225 145//225
f 145//226 151//226 150//226
f 152//227 148//227 146//227
f 152//228 146//228 149//228
g \u8863\u5e3d\u533a\u957f\u67dc\xb7\u5206\u7f1d1
f 153//229 154//229 155//229
f 155//230 154//230 156//230
f 157//231 158//231 159//231
f 157//232 159//232 160//232
f 158//233 157//233 153//233
f 153//234 157//234 154//234
f 160//235 159//235 155//235
f 160//236 155//236 156//236
f 155//237 159//237 153//237
f 153//238 159//238 158//238
f 160//239 156//239 154//239
f 160//240 154//240 157//240
g \u8863\u5e3d\u533a\u957f\u67dc\xb7\u5206\u7f1d2
f 161//241 162//241 163//241
f 163//242 162//242 164//242
f 165//243 166//243 167//243
f 165//244 167//244 168//244
f 166//245 165//245 161//245
f 161//246 165//246 162//246
f 168//247 167//247 163//247
f 168//248 163//248 164//248
f 163//249 167//249 161//249
f 161//250 167//250 166//250
f 168//251 164//251 162//251
f 168//252 162//252 165//252
g \u4e3b\u5367\u5317\u8863\u67dc
f 169//253 170//253 171//253
f 171//254 170//254 172//254
f 173//255 174//255 175//255
f 173//256 175//256 176//256
f 174//257 173//257 169//257
f 169//258 173//258 170//258
f 176//259 175//259 171//259
f 176//260 171//260 172//260
f 171//261 175//261 169//261
f 169//262 175//262 174//262
f 176//263 172//263 170//263
f 176//264 170//264 173//264
g \u4e3b\u5367\u5317\u8863\u67dc\xb7\u5206\u7f1d1
f 177//265 178//265 179//265
f 179//266 178//266 180//266
f 181//267 182//267 183//267
f 181//268 183//268 184//268
f 182//269 181//269 177//269
f 177//270 181//270 178//270
f 184//271 183//271 179//271
f 184//272 179//272 180//272
f 179//273 183//273 177//273
f 177//274 183//274 182//274
f 184//275 180//275 178//275
f 184//276 178//276 181//276
g \u4e3b\u5367\u5317\u8863\u67dc\xb7\u5206\u7f1d2
f 185//277 186//277 187//277
f 187//278 186//278 188//278
f 189//279 190//279 191//279
f 189//280 191//280 192//280
f 190//281 189//281 185//281
f 185//282 189//282 186//282
f 192//283 191//283 187//283
f 192//284 187//284 188//284
f 187//285 191//285 185//285
f 185//286 191//286 190//286
f 192//287 188//287 186//287
f 192//288 186//288 189//288
g \u4e3b\u5367\u897f\u8863\u67dc
f 193//289 194//289 195//289
f 193//290 196//290 194//290
f 197//291 198//291 199//291
f 200//292 198//292 197//292
f 198//293 200//293 193//293
f 193//294 200//294 196//294
f 197//295 199//295 195//295
f 197//296 195//296 194//296
f 195//297 199//297 193//297
f 193//298 199//298 198//298
f 197//299 194//299 196//299
f 197//300 196//300 200//300
g \u4e3b\u5367\u897f\u8863\u67dc\xb7\u5206\u7f1d1
f 201//301 202//301 203//301
f 201//302 204//302 202//302
f 205//303 206//303 207//303
f 208//304 206//304 205//304
f 206//305 208//305 201//305
f 201//306 208//306 204//306
f 205//307 207//307 203//307
f 205//308 203//308 202//308
f 203//309 207//309 201//309
f 201//310 207//310 206//310
f 205//311 202//311 204//311
f 205//312 204//312 208//312
g \u4e3b\u5367\u897f\u8863\u67dc\xb7\u5206\u7f1d2
f 209//313 210//313 211//313
f 209//314 212//314 210//314
f 213//315 214//315 215//315
f 216//316 214//316 213//316
f 214//317 216//317 209//317
f 209//318 216//318 212//318
f 213//319 215//319 211//319
f 213//320 211//320 210//320
f 211//321 215//321 209//321
f 209//322 215//322 214//322
f 213//323 210//323 212//323
f 213//324 212//324 216//324
g \u8001\u4eba\u623f\u8863\u67dc
f 217//325 218//325 219//325
f 219//326 218//326 220//326
f 221//327 222//327 223//327
f 221//328 223//328 224//328
f 222//329 221//329 217//329
f 217//330 221//330 218//330
f 224//331 223//331 219//331
f 224//332 219//332 220//332
f 217//333 219//333 222//333
f 219//334 223//334 222//334
f 220//335 218//335 221//335
f 224//336 220//336 221//336
g \u8001\u4eba\u623f\u8863\u67dc\xb7\u5206\u7f1d1
f 225//337 226//337 227//337
f 227//338 226//338 228//338
f 229//339 230//339 231//339
f 229//340 231//340 232//340
f 230//341 229//341 225//341
f 225//342 229//342 226//342
f 232//343 231//343 227//343
f 232//344 227//344 228//344
f 225//345 227//345 230//345
f 227//346 231//346 230//346
f 228//347 226//347 229//347
f 232//348 228//348 229//348
g \u8001\u4eba\u623f\u8863\u67dc\xb7\u5206\u7f1d2
f 233//349 234//349 235//349
f 235//350 234//350 236//350
f 237//351 238//351 239//351
f 237//352 239//352 240//352
f 238//353 237//353 233//353
f 233//354 237//354 234//354
f 240//355 239//355 235//355
f 240//356 235//356 236//356
f 233//357 235//357 238//357
f 235//358 239//358 238//358
f 236//359 234//359 237//359
f 240//360 236//360 237//360
g \u513f\u7ae5\u623f\u8863\u67dc
f 241//361 242//361 243//361
f 241//362 244//362 242//362
f 245//363 246//363 247//363
f 248//364 246//364 245//364
f 246//365 248//365 241//365
f 241//366 248//366 244//366
f 245//367 247//367 243//367
f 245//368 243//368 242//368
f 243//369 246//369 241//369
f 243//370 247//370 246//370
f 248//371 242//371 244//371
f 245//372 242//372 248//372
g \u513f\u7ae5\u623f\u8863\u67dc\xb7\u5206\u7f1d1
f 249//373 250//373 251//373
f 251//374 250//374 252//374
f 253//375 254//375 255//375
f 253//376 255//376 256//376
f 254//377 253//377 249//377
f 249//378 253//378 250//378
f 256//379 255//379 251//379
f 256//380 251//380 252//380
f 249//381 251//381 254//381
f 251//382 255//382 254//382
f 252//383 250//383 253//383
f 256//384 252//384 253//384
g \u513f\u7ae5\u623f\u8863\u67dc\xb7\u5206\u7f1d2
f 257//385 258//385 259//385
f 259//386 258//386 260//386
f 261//387 262//387 263//387
f 261//388 263//388 264//388
f 262//389 261//389 257//389
f 257//390 261//390 258//390
f 264//391 263//391 259//391
f 264//392 259//392 260//392
f 257//393 259//393 262//393
f 259//394 263//394 262//394
f 260//395 258//395 261//395
f 264//396 260//396 261//396
g \u513f\u7ae5\u7a97\u8fb9\u4f4e\u4e66\u67dc
f 265//397 266//397 267//397
f 266//398 268//398 267//398
f 269//399 270//399 271//399
f 272//400 269//400 271//400
f 269//401 268//401 266//401
f 269//402 272//402 268//402
f 267//403 270//403 265//403
f 271//404 270//404 267//404
f 266//405 265//405 269//405
f 265//406 270//406 269//406
f 267//407 268//407 272//407
f 271//408 267//408 272//408
g \u4e3b\u5367\u7a97\u8fb9\u68b3\u5986/\u9605\u8bfb\u53f0
f 273//409 274//409 275//409
f 273//410 276//410 274//410
f 277//411 278//411 279//411
f 280//412 278//412 277//412
f 273//413 278//413 276//413
f 278//414 280//414 276//414
f 279//415 275//415 274//415
f 277//416 279//416 274//416
f 275//417 279//417 273//417
f 273//418 279//418 278//418
f 277//419 274//419 276//419
f 277//420 276//420 280//420
g \u513f\u7ae5\u7a97\u8fb9\u5b66\u4e60\u684c
f 281//421 282//421 283//421
f 281//422 284//422 282//422
f 285//423 286//423 287//423
f 288//424 286//424 285//424
f 286//425 288//425 281//425
f 281//426 288//426 284//426
f 285//427 287//427 283//427
f 285//428 283//428 282//428
f 283//429 286//429 281//429
f 283//430 287//430 286//430
f 288//431 282//431 284//431
f 285//432 282//432 288//432
g \u9910\u684c
f 289//433 290//433 291//433
f 290//434 292//434 291//434
f 293//435 294//435 295//435
f 296//436 293//436 295//436
f 293//437 296//437 290//437
f 290//438 296//438 292//438
f 295//439 294//439 289//439
f 295//440 289//440 291//440
f 289//441 294//441 290//441
f 290//442 294//442 293//442
f 295//443 291//443 292//443
f 295//444 292//444 296//444
g \u9910\u6905\xb7\u5ea7\u9762
f 297//445 298//445 299//445
f 299//446 298//446 300//446
f 301//447 302//447 303//447
f 301//448 303//448 304//448
f 302//449 301//449 297//449
f 297//450 301//450 298//450
f 304//451 303//451 299//451
f 304//452 299//452 300//452
f 297//453 299//453 302//453
f 299//454 303//454 302//454
f 300//455 298//455 301//455
f 304//456 300//456 301//456
g \u9910\u6905\xb7\u9760\u80cc
f 305//457 306//457 307//457
f 305//458 308//458 306//458
f 309//459 310//459 311//459
f 312//460 310//460 309//460
f 310//461 308//461 305//461
f 310//462 312//462 308//462
f 306//463 311//463 307//463
f 309//464 311//464 306//464
f 307//465 310//465 305//465
f 307//466 311//466 310//466
f 312//467 306//467 308//467
f 309//468 306//468 312//468
g \u9910\u6905\xb7\u5ea7\u9762001
f 313//469 314//469 315//469
f 315//470 314//470 316//470
f 317//471 318//471 319//471
f 317//472 319//472 320//472
f 318//473 317//473 313//473
f 313//474 317//474 314//474
f 320//475 319//475 315//475
f 320//476 315//476 316//476
f 313//477 315//477 318//477
f 315//478 319//478 318//478
f 316//479 314//479 317//479
f 320//480 316//480 317//480
g \u9910\u6905\xb7\u9760\u80cc001
f 321//481 322//481 323//481
f 321//482 324//482 322//482
f 325//483 326//483 327//483
f 328//484 326//484 325//484
f 326//485 324//485 321//485
f 326//486 328//486 324//486
f 322//487 327//487 323//487
f 325//488 327//488 322//488
f 323//489 326//489 321//489
f 323//490 327//490 326//490
f 328//491 322//491 324//491
f 325//492 322//492 328//492
g \u9910\u6905\xb7\u5ea7\u9762002
f 329//493 330//493 331//493
f 331//494 330//494 332//494
f 333//495 334//495 335//495
f 333//496 335//496 336//496
f 334//497 333//497 329//497
f 329//498 333//498 330//498
f 336//499 335//499 331//499
f 336//500 331//500 332//500
f 329//501 331//501 334//501
f 331//502 335//502 334//502
f 332//503 330//503 333//503
f 336//504 332//504 333//504
g \u9910\u6905\xb7\u9760\u80cc002
f 337//505 338//505 339//505
f 339//506 338//506 340//506
f 341//507 342//507 343//507
f 341//508 343//508 344//508
f 342//509 338//509 337//509
f 342//510 341//510 338//510
f 340//511 343//511 339//511
f 344//512 343//512 340//512
f 339//513 342//513 337//513
f 339//514 343//514 342//514
f 341//515 340//515 338//515
f 344//516 340//516 341//516
g \u9910\u6905\xb7\u5ea7\u9762003
f 345//517 346//517 347//517
f 347//518 346//518 348//518
f 349//519 350//519 351//519
f 349//520 351//520 352//520
f 350//521 349//521 345//521
f 345//522 349//522 346//522
f 352//523 351//523 347//523
f 352//524 347//524 348//524
f 345//525 347//525 350//525
f 347//526 351//526 350//526
f 348//527 346//527 349//527
f 352//528 348//528 349//528
g \u9910\u6905\xb7\u9760\u80cc003
f 353//529 354//529 355//529
f 355//530 354//530 356//530
f 357//531 358//531 359//531
f 357//532 359//532 360//532
f 358//533 354//533 353//533
f 358//534 357//534 354//534
f 356//535 359//535 355//535
f 360//536 359//536 356//536
f 355//537 358//537 353//537
f 355//538 359//538 358//538
f 357//539 356//539 354//539
f 360//540 356//540 357//540
g \u5ba2\u5385\u6c99\u53d1\xb7\u5e95\u5ea7
f 361//541 362//541 363//541
f 363//542 362//542 364//542
f 365//543 366//543 367//543
f 365//544 367//544 368//544
f 366//545 365//545 361//545
f 361//546 365//546 362//546
f 368//547 367//547 363//547
f 368//548 363//548 364//548
f 363//549 367//549 361//549
f 361//550 367//550 366//550
f 368//551 364//551 362//551
f 368//552 362//552 365//552
g \u5ba2\u5385\u6c99\u53d1\xb7\u5750\u57ab
f 369//553 370//553 371//553
f 371//554 370//554 372//554
f 373//555 374//555 375//555
f 373//556 375//556 376//556
f 374//557 373//557 369//557
f 369//558 373//558 370//558
f 376//559 375//559 371//559
f 376//560 371//560 372//560
f 371//561 375//561 369//561
f 369//562 375//562 374//562
f 376//563 372//563 370//563
f 376//564 370//564 373//564
g \u5ba2\u5385\u6c99\u53d1\xb7\u9760\u80cc
f 377//565 378//565 379//565
f 379//566 378//566 380//566
f 381//567 382//567 383//567
f 381//568 383//568 384//568
f 382//569 378//569 377//569
f 382//570 381//570 378//570
f 380//571 383//571 379//571
f 384//572 383//572 380//572
f 377//573 379//573 382//573
f 379//574 383//574 382//574
f 380//575 378//575 381//575
f 384//576 380//576 381//576
g \u5ba2\u5385\u6c99\u53d1\xb7\u6276\u624b
f 385//577 386//577 387//577
f 387//578 386//578 388//578
f 389//579 390//579 391//579
f 389//580 391//580 392//580
f 385//581 390//581 386//581
f 390//582 389//582 386//582
f 391//583 387//583 388//583
f 392//584 391//584 388//584
f 387//585 390//585 385//585
f 387//586 391//586 390//586
f 389//587 388//587 386//587
f 392//588 388//588 389//588
g \u5ba2\u5385\u6c99\u53d1\xb7\u6276\u624b001
f 393//589 394//589 395//589
f 393//590 396//590 394//590
f 397//591 398//591 399//591
f 400//592 398//592 397//592
f 393//593 398//593 396//593
f 398//594 400//594 396//594
f 399//595 395//595 394//595
f 397//596 399//596 394//596
f 395//597 398//597 393//597
f 395//598 399//598 398//598
f 400//599 394//599 396//599
f 397//600 394//600 400//600
g \u7535\u89c6\u5f71\u97f3\u77ee\u67dc
f 401//601 402//601 403//601
f 403//602 402//602 404//602
f 405//603 406//603 407//603
f 405//604 407//604 408//604
f 406//605 405//605 401//605
f 401//606 405//606 402//606
f 408//607 407//607 403//607
f 408//608 403//608 404//608
f 403//609 407//609 401//609
f 401//610 407//610 406//610
f 408//611 404//611 402//611
f 408//612 402//612 405//612
g \u5ba2\u5385\xb755\u201365\u5bf8\u7535\u89c6
f 409//613 410//613 411//613
f 411//614 410//614 412//614
f 413//615 414//615 415//615
f 413//616 415//616 416//616
f 414//617 410//617 409//617
f 414//618 413//618 410//618
f 412//619 415//619 411//619
f 416//620 415//620 412//620
f 411//621 415//621 409//621
f 409//622 415//622 414//622
f 416//623 412//623 410//623
f 416//624 410//624 413//624
g \u5ba2\u5385\u8336\u51e0
f 417//625 418//625 419//625
f 419//626 418//626 420//626
f 421//627 422//627 423//627
f 421//628 423//628 424//628
f 417//629 422//629 418//629
f 422//630 421//630 418//630
f 423//631 419//631 420//631
f 424//632 423//632 420//632
f 419//633 423//633 417//633
f 417//634 423//634 422//634
f 424//635 420//635 418//635
f 424//636 418//636 421//636
g \u5ba2\u5385\u6c99\u53d1\u8fb9\u51e0
f 425//637 426//637 427//637
f 425//638 428//638 426//638
f 429//639 430//639 431//639
f 432//640 430//640 429//640
f 430//641 432//641 425//641
f 425//642 432//642 428//642
f 429//643 431//643 427//643
f 429//644 427//644 426//644
f 427//645 431//645 425//645
f 425//646 431//646 430//646
f 429//647 426//647 428//647
f 429//648 428//648 432//648
g \u9910\u8fb9\u98df\u54c1/\u4e66\u7c4d\u9ad8\u67dc
f 433//649 434//649 435//649
f 435//650 434//650 436//650
f 437//651 438//651 439//651
f 437//652 439//652 440//652
f 438//653 437//653 433//653
f 433//654 437//654 434//654
f 440//655 439//655 435//655
f 440//656 435//656 436//656
f 435//657 439//657 433//657
f 433//658 439//658 438//658
f 440//659 436//659 434//659
f 440//660 434//660 437//660
g \u9910\u8fb9\u67dc/\u5145\u7535\u6536\u7eb3
f 441//661 442//661 443//661
f 442//662 444//662 443//662
f 445//663 446//663 447//663
f 448//664 445//664 447//664
f 445//665 448//665 442//665
f 442//666 448//666 444//666
f 447//667 446//667 441//667
f 447//668 441//668 443//668
f 442//669 441//669 445//669
f 441//670 446//670 445//670
f 443//671 444//671 448//671
f 447//672 443//672 448//672
