  0
SECTION
  2
HEADER
  9
$ACADVER
  1
AC1032
  9
$ACADMAINTVER
 90
4
  9
$DWGCODEPAGE
  3
ANSI_1252
  9
$LASTSAVEDBY
  1
ezdxf
  9
$REQUIREDVERSIONS
160
0
  9
$INSBASE
 10
0.0
 20
0.0
 30
0.0
  9
$EXTMIN
 10
1e+20
 20
1e+20
 30
1e+20
  9
$EXTMAX
 10
-1e+20
 20
-1e+20
 30
-1e+20
  9
$LIMMIN
 10
0.0
 20
0.0
  9
$LIMMAX
 10
420.0
 20
297.0
  9
$ORTHOMODE
 70
0
  9
$REGENMODE
 70
1
  9
$FILLMODE
 70
1
  9
$QTEXTMODE
 70
0
  9
$MIRRTEXT
 70
1
  9
$LTSCALE
 40
1.0
  9
$ATTMODE
 70
1
  9
$TEXTSIZE
 40
2.5
  9
$TRACEWID
 40
1.0
  9
$TEXTSTYLE
  7
OpenSans
  9
$CLAYER
  8
0
  9
$CELTYPE
  6
ByLayer
  9
$CECOLOR
 62
256
  9
$CELTSCALE
 40
1.0
  9
$DISPSILH
 70
0
  9
$DIMSCALE
 40
1.0
  9
$DIMASZ
 40
0.175
  9
$DIMEXO
 40
0.125
  9
$DIMDLI
 40
3.75
  9
$DIMRND
 40
0.0
  9
$DIMDLE
 40
0.0
  9
$DIMEXE
 40
0.375
  9
$DIMTP
 40
0.0
  9
$DIMTM
 40
0.0
  9
$DIMTXT
 40
0.25
  9
$DIMCEN
 40
2.5
  9
$DIMTSZ
 40
0.0
  9
$DIMTOL
 70
0
  9
$DIMLIM
 70
0
  9
$DIMTIH
 70
0
  9
$DIMTOH
 70
0
  9
$DIMSE1
 70
0
  9
$DIMSE2
 70
0
  9
$DIMTAD
 70
1
  9
$DIMZIN
 70
12
  9
$DIMBLK
  1
ARCHTICK
  9
$DIMASO
 70
1
  9
$DIMSHO
 70
1
  9
$DIMPOST
  1

  9
$DIMAPOST
  1

  9
$DIMALT
 70
0
  9
$DIMALTD
 70
3
  9
$DIMALTF
 40
0.03937007874
  9
$DIMLFAC
 40
100.0
  9
$DIMTOFL
 70
1
  9
$DIMTVP
 40
0.0
  9
$DIMTIX
 70
0
  9
$DIMSOXD
 70
0
  9
$DIMSAH
 70
0
  9
$DIMBLK1
  1

  9
$DIMBLK2
  1

  9
$DIMSTYLE
  2
EZDXF
  9
$DIMCLRD
 70
0
  9
$DIMCLRE
 70
0
  9
$DIMCLRT
 70
0
  9
$DIMTFAC
 40
0.5
  9
$DIMGAP
 40
0.1
  9
$DIMJUST
 70
0
  9
$DIMSD1
 70
0
  9
$DIMSD2
 70
0
  9
$DIMTOLJ
 70
0
  9
$DIMTZIN
 70
8
  9
$DIMALTZ
 70
0
  9
$DIMALTTZ
 70
0
  9
$DIMUPT
 70
1
  9
$DIMDEC
 70
2
  9
$DIMTDEC
 70
2
  9
$DIMALTU
 70
2
  9
$DIMALTTD
 70
3
  9
$DIMTXSTY
  7
OpenSansCondensed-Light
  9
$DIMAUNIT
 70
0
  9
$DIMADEC
 70
2
  9
$DIMALTRND
 40
0.0
  9
$DIMAZIN
 70
3
  9
$DIMDSEP
 70
46
  9
$DIMATFIT
 70
3
  9
$DIMFRAC
 70
0
  9
$DIMLDRBLK
  1

  9
$DIMLUNIT
 70
2
  9
$DIMLWD
 70
-2
  9
$DIMLWE
 70
-2
  9
$DIMTMOVE
 70
2
  9
$DIMFXL
 40
1.0
  9
$DIMFXLON
 70
0
  9
$DIMJOGANG
 40
0.785398163397
  9
$DIMTFILL
 70
0
  9
$DIMTFILLCLR
 70
0
  9
$DIMARCSYM
 70
0
  9
$DIMLTYPE
  6

  9
$DIMLTEX1
  6

  9
$DIMLTEX2
  6

  9
$DIMTXTDIRECTION
 70
0
  9
$LUNITS
 70
2
  9
$LUPREC
 70
4
  9
$SKETCHINC
 40
1.0
  9
$FILLETRAD
 40
10.0
  9
$AUNITS
 70
0
  9
$AUPREC
 70
2
  9
$MENU
  1
.
  9
$ELEVATION
 40
0.0
  9
$PELEVATION
 40
0.0
  9
$THICKNESS
 40
0.0
  9
$LIMCHECK
 70
0
  9
$CHAMFERA
 40
0.0
  9
$CHAMFERB
 40
0.0
  9
$CHAMFERC
 40
0.0
  9
$CHAMFERD
 40
0.0
  9
$SKPOLY
 70
0
  9
$TDCREATE
 40
2461310.6935416665
  9
$TDUCREATE
 40
2458532.153996898
  9
$TDUPDATE
 40
2461310.6935416665
  9
$TDUUPDATE
 40
2458532.1544311
  9
$TDINDWG
 40
0.0
  9
$TDUSRTIMER
 40
0.0
  9
$USRTIMER
 70
1
  9
$ANGBASE
 50
0.0
  9
$ANGDIR
 70
0
  9
$PDMODE
 70
0
  9
$PDSIZE
 40
0.0
  9
$PLINEWID
 40
0.0
  9
$SPLFRAME
 70
0
  9
$SPLINETYPE
 70
6
  9
$SPLINESEGS
 70
8
  9
$HANDSEED
  5
21B
  9
$SURFTAB1
 70
6
  9
$SURFTAB2
 70
6
  9
$SURFTYPE
 70
6
  9
$SURFU
 70
6
  9
$SURFV
 70
6
  9
$UCSBASE
  2

  9
$UCSNAME
  2

  9
$UCSORG
 10
0.0
 20
0.0
 30
0.0
  9
$UCSXDIR
 10
1.0
 20
0.0
 30
0.0
  9
$UCSYDIR
 10
0.0
 20
1.0
 30
0.0
  9
$UCSORTHOREF
  2

  9
$UCSORTHOVIEW
 70
0
  9
$UCSORGTOP
 10
0.0
 20
0.0
 30
0.0
  9
$UCSORGBOTTOM
 10
0.0
 20
0.0
 30
0.0
  9
$UCSORGLEFT
 10
0.0
 20
0.0
 30
0.0
  9
$UCSORGRIGHT
 10
0.0
 20
0.0
 30
0.0
  9
$UCSORGFRONT
 10
0.0
 20
0.0
 30
0.0
  9
$UCSORGBACK
 10
0.0
 20
0.0
 30
0.0
  9
$PUCSBASE
  2

  9
$PUCSNAME
  2

  9
$PUCSORG
 10
0.0
 20
0.0
 30
0.0
  9
$PUCSXDIR
 10
1.0
 20
0.0
 30
0.0
  9
$PUCSYDIR
 10
0.0
 20
1.0
 30
0.0
  9
$PUCSORTHOREF
  2

  9
$PUCSORTHOVIEW
 70
0
  9
$PUCSORGTOP
 10
0.0
 20
0.0
 30
0.0
  9
$PUCSORGBOTTOM
 10
0.0
 20
0.0
 30
0.0
  9
$PUCSORGLEFT
 10
0.0
 20
0.0
 30
0.0
  9
$PUCSORGRIGHT
 10
0.0
 20
0.0
 30
0.0
  9
$PUCSORGFRONT
 10
0.0
 20
0.0
 30
0.0
  9
$PUCSORGBACK
 10
0.0
 20
0.0
 30
0.0
  9
$USERI1
 70
0
  9
$USERI2
 70
0
  9
$USERI3
 70
0
  9
$USERI4
 70
0
  9
$USERI5
 70
0
  9
$USERR1
 40
0.0
  9
$USERR2
 40
0.0
  9
$USERR3
 40
0.0
  9
$USERR4
 40
0.0
  9
$USERR5
 40
0.0
  9
$WORLDVIEW
 70
1
  9
$SHADEDGE
 70
3
  9
$SHADEDIF
 70
70
  9
$TILEMODE
 70
1
  9
$MAXACTVP
 70
64
  9
$PINSBASE
 10
0.0
 20
0.0
 30
0.0
  9
$PLIMCHECK
 70
0
  9
$PEXTMIN
 10
1e+20
 20
1e+20
 30
1e+20
  9
$PEXTMAX
 10
-1e+20
 20
-1e+20
 30
-1e+20
  9
$PLIMMIN
 10
0.0
 20
0.0
  9
$PLIMMAX
 10
420.0
 20
297.0
  9
$UNITMODE
 70
0
  9
$VISRETAIN
 70
1
  9
$PLINEGEN
 70
0
  9
$PSLTSCALE
 70
1
  9
$TREEDEPTH
 70
3020
  9
$CMLSTYLE
  2
Standard
  9
$CMLJUST
 70
0
  9
$CMLSCALE
 40
20.0
  9
$PROXYGRAPHICS
 70
1
  9
$MEASUREMENT
 70
1
  9
$CELWEIGHT
370
-1
  9
$ENDCAPS
280
0
  9
$JOINSTYLE
280
0
  9
$LWDISPLAY
290
0
  9
$INSUNITS
 70
4
  9
$HYPERLINKBASE
  1

  9
$STYLESHEET
  1

  9
$XEDIT
290
1
  9
$CEPSNTYPE
380
0
  9
$PSTYLEMODE
290
1
  9
$FINGERPRINTGUID
  2
{94A08F19-4DEC-40D2-8CC4-EFF6D47F262B}
  9
$VERSIONGUID
  2
{B606F3FB-6AA2-4EFA-A184-243817026354}
  9
$EXTNAMES
290
1
  9
$PSVPSCALE
 40
0.0
  9
$OLESTARTUP
290
0
  9
$SORTENTS
280
127
  9
$INDEXCTL
280
0
  9
$HIDETEXT
280
1
  9
$XCLIPFRAME
280
1
  9
$HALOGAP
280
0
  9
$OBSCOLOR
 70
257
  9
$OBSLTYPE
280
0
  9
$INTERSECTIONDISPLAY
280
0
  9
$INTERSECTIONCOLOR
 70
257
  9
$DIMASSOC
280
2
  9
$PROJECTNAME
  1

  9
$CAMERADISPLAY
290
0
  9
$LENSLENGTH
 40
50.0
  9
$CAMERAHEIGHT
 40
0.0
  9
$STEPSPERSEC
 40
24.0
  9
$STEPSIZE
 40
100.0
  9
$3DDWFPREC
 40
2.0
  9
$PSOLWIDTH
 40
0.005
  9
$PSOLHEIGHT
 40
0.08
  9
$LOFTANG1
 40
1.570796326795
  9
$LOFTANG2
 40
1.570796326795
  9
$LOFTMAG1
 40
0.0
  9
$LOFTMAG2
 40
0.0
  9
$LOFTPARAM
 70
7
  9
$LOFTNORMALS
280
1
  9
$LATITUDE
 40
37.795
  9
$LONGITUDE
 40
-122.394
  9
$NORTHDIRECTION
 40
0.0
  9
$TIMEZONE
 70
-8000
  9
$LIGHTGLYPHDISPLAY
280
1
  9
$TILEMODELIGHTSYNCH
280
1
  9
$CMATERIAL
347
20
  9
$SOLIDHIST
280
0
  9
$SHOWHIST
280
1
  9
$DWFFRAME
280
2
  9
$DGNFRAME
280
2
  9
$REALWORLDSCALE
290
1
  9
$INTERFERECOLOR
 62
256
  9
$CSHADOW
280
0
  9
$SHADOWPLANELOCATION
 40
0.0
  0
ENDSEC
  0
SECTION
  2
CLASSES
  0
CLASS
  1
ACDBDICTIONARYWDFLT
  2
AcDbDictionaryWithDefault
  3
ObjectDBX Classes
 90
0
 91
0
280
0
281
0
  0
CLASS
  1
SUN
  2
AcDbSun
  3
SCENEOE
 90
1153
 91
0
280
0
281
0
  0
CLASS
  1
VISUALSTYLE
  2
AcDbVisualStyle
  3
ObjectDBX Classes
 90
4095
 91
0
280
0
281
0
  0
CLASS
  1
MATERIAL
  2
AcDbMaterial
  3
ObjectDBX Classes
 90
1153
 91
0
280
0
281
0
  0
CLASS
  1
SCALE
  2
AcDbScale
  3
ObjectDBX Classes
 90
1153
 91
0
280
0
281
0
  0
CLASS
  1
TABLESTYLE
  2
AcDbTableStyle
  3
ObjectDBX Classes
 90
4095
 91
0
280
0
281
0
  0
CLASS
  1
MLEADERSTYLE
  2
AcDbMLeaderStyle
  3
ACDB_MLEADERSTYLE_CLASS
 90
4095
 91
0
280
0
281
0
  0
CLASS
  1
DICTIONARYVAR
  2
AcDbDictionaryVar
  3
ObjectDBX Classes
 90
0
 91
0
280
0
281
0
  0
CLASS
  1
CELLSTYLEMAP
  2
AcDbCellStyleMap
  3
ObjectDBX Classes
 90
1152
 91
0
280
0
281
0
  0
CLASS
  1
MENTALRAYRENDERSETTINGS
  2
AcDbMentalRayRenderSettings
  3
SCENEOE
 90
1024
 91
0
280
0
281
0
  0
CLASS
  1
ACDBDETAILVIEWSTYLE
  2
AcDbDetailViewStyle
  3
ObjectDBX Classes
 90
1025
 91
0
280
0
281
0
  0
CLASS
  1
ACDBSECTIONVIEWSTYLE
  2
AcDbSectionViewStyle
  3
ObjectDBX Classes
 90
1025
 91
0
280
0
281
0
  0
CLASS
  1
RASTERVARIABLES
  2
AcDbRasterVariables
  3
ISM
 90
0
 91
0
280
0
281
0
  0
CLASS
  1
ACDBPLACEHOLDER
  2
AcDbPlaceHolder
  3
ObjectDBX Classes
 90
0
 91
0
280
0
281
0
  0
CLASS
  1
LAYOUT
  2
AcDbLayout
  3
ObjectDBX Classes
 90
0
 91
0
280
0
281
0
  0
ENDSEC
  0
SECTION
  2
TABLES
  0
TABLE
  2
VPORT
  5
8
330
0
100
AcDbSymbolTable
 70
1
  0
VPORT
  5
23
330
8
100
AcDbSymbolTableRecord
100
AcDbViewportTableRecord
  2
*Active
 70
0
 10
0.0
 20
0.0
 11
1.0
 21
1.0
 12
0.0
 22
0.0
 13
0.0
 23
0.0
 14
0.5
 24
0.5
 15
0.5
 25
0.5
 16
0.0
 26
0.0
 36
1.0
 17
0.0
 27
0.0
 37
0.0
 40
1000.0
 41
1.34
 42
50.0
 43
0.0
 44
0.0
 50
0.0
 51
0.0
 71
0
 72
1000
 73
1
 74
3
 75
0
 76
0
 77
0
 78
0
281
0
 65
0
146
0.0
  0
ENDTAB
  0
TABLE
  2
LTYPE
  5
2
330
0
100
AcDbSymbolTable
 70
21
  0
LTYPE
  5
24
330
2
100
AcDbSymbolTableRecord
100
AcDbLinetypeTableRecord
  2
ByBlock
 70
0
  3

 72
65
 73
0
 40
0.0
  0
LTYPE
  5
25
330
2
100
AcDbSymbolTableRecord
100
AcDbLinetypeTableRecord
  2
ByLayer
 70
0
  3

 72
65
 73
0
 40
0.0
  0
LTYPE
  5
26
330
2
100
AcDbSymbolTableRecord
100
AcDbLinetypeTableRecord
  2
Continuous
 70
0
  3

 72
65
 73
0
 40
0.0
  0
LTYPE
  5
2F
330
2
100
AcDbSymbolTableRecord
100
AcDbLinetypeTableRecord
  2
CENTER
 70
0
  3
Center ____ _ ____ _ ____ _ ____ _ ____ _ ____
 72
65
 73
4
 40
5.08
 49
3.175
 74
0
 49
-0.635
 74
0
 49
0.635
 74
0
 49
-0.635
 74
0
  0
LTYPE
  5
30
330
2
100
AcDbSymbolTableRecord
100
AcDbLinetypeTableRecord
  2
CENTERX2
 70
0
  3
Center (2x) ________  __  ________  __  ________
 72
65
 73
4
 40
8.89
 49
6.35
 74
0
 49
-0.635
 74
0
 49
1.27
 74
0
 49
-0.635
 74
0
  0
LTYPE
  5
31
330
2
100
AcDbSymbolTableRecord
100
AcDbLinetypeTableRecord
  2
CENTER2
 70
0
  3
Center (.5x) ____ _ ____ _ ____ _ ____ _ ____
 72
65
 73
4
 40
2.54
 49
1.587
 74
0
 49
-0.318
 74
0
 49
0.318
 74
0
 49
-0.318
 74
0
  0
LTYPE
  5
32
330
2
100
AcDbSymbolTableRecord
100
AcDbLinetypeTableRecord
  2
DASHED
 70
0
  3
Dashed __ __ __ __ __ __ __ __ __ __ __ __ __ _
 72
65
 73
2
 40
1.524
 49
1.27
 74
0
 49
-0.254
 74
0
  0
LTYPE
  5
33
330
2
100
AcDbSymbolTableRecord
100
AcDbLinetypeTableRecord
  2
DASHEDX2
 70
0
  3
Dashed (2x) ____  ____  ____  ____  ____  ____
 72
65
 73
2
 40
3.048
 49
2.54
 74
0
 49
-0.508
 74
0
  0
LTYPE
  5
34
330
2
100
AcDbSymbolTableRecord
100
AcDbLinetypeTableRecord
  2
DASHED2
 70
0
  3
Dashed (.5x) _ _ _ _ _ _ _ _ _ _ _ _ _ _
 72
65
 73
2
 40
0.762
 49
0.635
 74
0
 49
-0.127
 74
0
  0
LTYPE
  5
35
330
2
100
AcDbSymbolTableRecord
100
AcDbLinetypeTableRecord
  2
PHANTOM
 70
0
  3
Phantom ______  __  __  ______  __  __  ______
 72
65
 73
6
 40
6.35
 49
3.175
 74
0
 49
-0.635
 74
0
 49
0.635
 74
0
 49
-0.635
 74
0
 49
0.635
 74
0
 49
-0.635
 74
0
  0
LTYPE
  5
36
330
2
100
AcDbSymbolTableRecord
100
AcDbLinetypeTableRecord
  2
PHANTOMX2
 70
0
  3
Phantom (2x)____________    ____    ____    ____________
 72
65
 73
6
 40
10.795
 49
6.35
 74
0
 49
-0.635
 74
0
 49
1.27
 74
0
 49
-0.635
 74
0
 49
1.27
 74
0
 49
-0.635
 74
0
  0
LTYPE
  5
37
330
2
100
AcDbSymbolTableRecord
100
AcDbLinetypeTableRecord
  2
PHANTOM2
 70
0
  3
Phantom (.5x) ___ _ _ ___ _ _ ___ _ _ ___ _ _ ___
 72
65
 73
6
 40
3.175
 49
1.587
 74
0
 49
-0.318
 74
0
 49
0.318
 74
0
 49
-0.318
 74
0
 49
0.318
 74
0
 49
-0.318
 74
0
  0
LTYPE
  5
38
330
2
100
AcDbSymbolTableRecord
100
AcDbLinetypeTableRecord
  2
DASHDOT
 70
0
  3
Dash dot __ . __ . __ . __ . __ . __ . __ . __
 72
65
 73
4
 40
3.556
 49
2.54
 74
0
 49
-0.508
 74
0
 49
0.0
 74
0
 49
-0.508
 74
0
  0
LTYPE
  5
39
330
2
100
AcDbSymbolTableRecord
100
AcDbLinetypeTableRecord
  2
DASHDOTX2
 70
0
  3
Dash dot (2x) ____  .  ____  .  ____  .  ____
 72
65
 73
4
 40
6.096
 49
5.08
 74
0
 49
-0.508
 74
0
 49
0.0
 74
0
 49
-0.508
 74
0
  0
LTYPE
  5
3A
330
2
100
AcDbSymbolTableRecord
100
AcDbLinetypeTableRecord
  2
DASHDOT2
 70
0
  3
Dash dot (.5x) _ . _ . _ . _ . _ . _ . _ . _
 72
65
 73
4
 40
1.778
 49
1.27
 74
0
 49
-0.254
 74
0
 49
0.0
 74
0
 49
-0.254
 74
0
  0
LTYPE
  5
3B
330
2
100
AcDbSymbolTableRecord
100
AcDbLinetypeTableRecord
  2
DOT
 70
0
  3
Dot .  .  .  .  .  .  .  .  .  .  .  .  .  .  .  .
 72
65
 73
2
 40
0.508
 49
0.0
 74
0
 49
-0.508
 74
0
  0
LTYPE
  5
3C
330
2
100
AcDbSymbolTableRecord
100
AcDbLinetypeTableRecord
  2
DOTX2
 70
0
  3
Dot (2x) .    .    .    .    .    .    .    . 
 72
65
 73
2
 40
1.016
 49
0.0
 74
0
 49
-1.016
 74
0
  0
LTYPE
  5
3D
330
2
100
AcDbSymbolTableRecord
100
AcDbLinetypeTableRecord
  2
DOT2
 70
0
  3
Dot (.5) . . . . . . . . . . . . . . . . . . . 
 72
65
 73
2
 40
0.254
 49
0.0
 74
0
 49
-0.254
 74
0
  0
LTYPE
  5
3E
330
2
100
AcDbSymbolTableRecord
100
AcDbLinetypeTableRecord
  2
DIVIDE
 70
0
  3
Divide __ . . __ . . __ . . __ . . __ . . __
 72
65
 73
6
 40
4.064
 49
2.54
 74
0
 49
-0.508
 74
0
 49
0.0
 74
0
 49
-0.508
 74
0
 49
0.0
 74
0
 49
-0.508
 74
0
  0
LTYPE
  5
3F
330
2
100
AcDbSymbolTableRecord
100
AcDbLinetypeTableRecord
  2
DIVIDEX2
 70
0
  3
Divide (2x) ____  . .  ____  . .  ____  . .  ____
 72
65
 73
6
 40
6.604
 49
5.08
 74
0
 49
-0.508
 74
0
 49
0.0
 74
0
 49
-0.508
 74
0
 49
0.0
 74
0
 49
-0.508
 74
0
  0
LTYPE
  5
40
330
2
100
AcDbSymbolTableRecord
100
AcDbLinetypeTableRecord
  2
DIVIDE2
 70
0
  3
Divide(.5x) _ . _ . _ . _ . _ . _ . _ . _
 72
65
 73
6
 40
2.032
 49
1.27
 74
0
 49
-0.254
 74
0
 49
0.0
 74
0
 49
-0.254
 74
0
 49
0.0
 74
0
 49
-0.254
 74
0
  0
ENDTAB
  0
TABLE
  2
LAYER
  5
1
330
0
100
AcDbSymbolTable
 70
4
  0
LAYER
  5
27
330
1
100
AcDbSymbolTableRecord
100
AcDbLayerTableRecord
  2
0
 70
0
 62
7
  6
Continuous
370
-3
390
13
347
21
  0
LAYER
  5
28
330
1
100
AcDbSymbolTableRecord
100
AcDbLayerTableRecord
  2
Defpoints
 70
0
 62
7
  6
Continuous
290
0
370
-3
390
13
347
21
  0
LAYER
  5
8A
330
1
100
AcDbSymbolTableRecord
100
AcDbLayerTableRecord
  2
LIB-PLAN
 70
0
 62
7
  6
Continuous
370
-3
390
13
347
21
  0
LAYER
  5
8B
330
1
100
AcDbSymbolTableRecord
100
AcDbLayerTableRecord
  2
LIB-ANNOTATION
 70
0
 62
8
  6
Continuous
370
-3
390
13
347
21
  0
ENDTAB
  0
TABLE
  2
STYLE
  5
5
330
0
100
AcDbSymbolTable
 70
26
  0
STYLE
  5
29
330
5
100
AcDbSymbolTableRecord
100
AcDbTextStyleTableRecord
  2
Standard
 70
0
 40
0.0
 41
1.0
 50
0.0
 71
0
 42
2.5
  3
txt
  4

  0
STYLE
  5
41
330
5
100
AcDbSymbolTableRecord
100
AcDbTextStyleTableRecord
  2
OpenSans-Light
 70
0
 40
0.0
 41
1.0
 50
0.0
 71
0
 42
2.5
  3
OpenSans-Light.ttf
  4

  0
STYLE
  5
42
330
5
100
AcDbSymbolTableRecord
100
AcDbTextStyleTableRecord
  2
OpenSans-Light-Italic
 70
0
 40
0.0
 41
1.0
 50
0.0
 71
0
 42
2.5
  3
OpenSans-LightItalic.ttf
  4

  0
STYLE
  5
43
330
5
100
AcDbSymbolTableRecord
100
AcDbTextStyleTableRecord
  2
OpenSans
 70
0
 40
0.0
 41
1.0
 50
0.0
 71
0
 42
2.5
  3
OpenSans-Regular.ttf
  4

  0
STYLE
  5
44
330
5
100
AcDbSymbolTableRecord
100
AcDbTextStyleTableRecord
  2
OpenSans-Italic
 70
0
 40
0.0
 41
1.0
 50
0.0
 71
0
 42
2.5
  3
OpenSans-Italic.ttf
  4

  0
STYLE
  5
45
330
5
100
AcDbSymbolTableRecord
100
AcDbTextStyleTableRecord
  2
OpenSans-SemiBold
 70
0
 40
0.0
 41
1.0
 50
0.0
 71
0
 42
2.5
  3
OpenSans-SemiBold.ttf
  4

  0
STYLE
  5
46
330
5
100
AcDbSymbolTableRecord
100
AcDbTextStyleTableRecord
  2
OpenSans-SemiBoldItalic
 70
0
 40
0.0
 41
1.0
 50
0.0
 71
0
 42
2.5
  3
OpenSans-SemiBoldItalic.ttf
  4

  0
STYLE
  5
47
330
5
100
AcDbSymbolTableRecord
100
AcDbTextStyleTableRecord
  2
OpenSans-Bold
 70
0
 40
0.0
 41
1.0
 50
0.0
 71
0
 42
2.5
  3
OpenSans-Bold.ttf
  4

  0
STYLE
  5
48
330
5
100
AcDbSymbolTableRecord
100
AcDbTextStyleTableRecord
  2
OpenSans-BoldItalic
 70
0
 40
0.0
 41
1.0
 50
0.0
 71
0
 42
2.5
  3
OpenSans-BoldItalic.ttf
  4

  0
STYLE
  5
49
330
5
100
AcDbSymbolTableRecord
100
AcDbTextStyleTableRecord
  2
OpenSans-ExtraBold
 70
0
 40
0.0
 41
1.0
 50
0.0
 71
0
 42
2.5
  3
OpenSans-ExtraBold.ttf
  4

  0
STYLE
  5
4A
330
5
100
AcDbSymbolTableRecord
100
AcDbTextStyleTableRecord
  2
OpenSans-ExtraBoldItalic
 70
0
 40
0.0
 41
1.0
 50
0.0
 71
0
 42
2.5
  3
OpenSans-ExtraBoldItalic.ttf
  4

  0
STYLE
  5
4B
330
5
100
AcDbSymbolTableRecord
100
AcDbTextStyleTableRecord
  2
OpenSansCondensed-Bold
 70
0
 40
0.0
 41
1.0
 50
0.0
 71
0
 42
2.5
  3
OpenSansCondensed-Bold.ttf
  4

  0
STYLE
  5
4C
330
5
100
AcDbSymbolTableRecord
100
AcDbTextStyleTableRecord
  2
OpenSansCondensed-Light
 70
0
 40
0.0
 41
1.0
 50
0.0
 71
0
 42
2.5
  3
OpenSansCondensed-Light.ttf
  4

  0
STYLE
  5
4D
330
5
100
AcDbSymbolTableRecord
100
AcDbTextStyleTableRecord
  2
OpenSansCondensed-Italic
 70
0
 40
0.0
 41
1.0
 50
0.0
 71
0
 42
2.5
  3
OpenSansCondensed-LightItalic.ttf
  4

  0
STYLE
  5
4E
330
5
100
AcDbSymbolTableRecord
100
AcDbTextStyleTableRecord
  2
LiberationSans
 70
0
 40
0.0
 41
1.0
 50
0.0
 71
0
 42
2.5
  3
LiberationSans-Regular.ttf
  4

  0
STYLE
  5
4F
330
5
100
AcDbSymbolTableRecord
100
AcDbTextStyleTableRecord
  2
LiberationSans-Bold
 70
0
 40
0.0
 41
1.0
 50
0.0
 71
0
 42
2.5
  3
LiberationSans-Bold.ttf
  4

  0
STYLE
  5
50
330
5
100
AcDbSymbolTableRecord
100
AcDbTextStyleTableRecord
  2
LiberationSans-BoldItalic
 70
0
 40
0.0
 41
1.0
 50
0.0
 71
0
 42
2.5
  3
LiberationSans-BoldItalic.ttf
  4

  0
STYLE
  5
51
330
5
100
AcDbSymbolTableRecord
100
AcDbTextStyleTableRecord
  2
LiberationSans-Italic
 70
0
 40
0.0
 41
1.0
 50
0.0
 71
0
 42
2.5
  3
LiberationSans-Italic.ttf
  4

  0
STYLE
  5
52
330
5
100
AcDbSymbolTableRecord
100
AcDbTextStyleTableRecord
  2
LiberationSerif
 70
0
 40
0.0
 41
1.0
 50
0.0
 71
0
 42
2.5
  3
LiberationSerif-Regular.ttf
  4

  0
STYLE
  5
53
330
5
100
AcDbSymbolTableRecord
100
AcDbTextStyleTableRecord
  2
LiberationSerif-Bold
 70
0
 40
0.0
 41
1.0
 50
0.0
 71
0
 42
2.5
  3
LiberationSerif-Bold.ttf
  4

  0
STYLE
  5
54
330
5
100
AcDbSymbolTableRecord
100
AcDbTextStyleTableRecord
  2
LiberationSerif-BoldItalic
 70
0
 40
0.0
 41
1.0
 50
0.0
 71
0
 42
2.5
  3
LiberationSerif-BoldItalic.ttf
  4

  0
STYLE
  5
55
330
5
100
AcDbSymbolTableRecord
100
AcDbTextStyleTableRecord
  2
LiberationSerif-Italic
 70
0
 40
0.0
 41
1.0
 50
0.0
 71
0
 42
2.5
  3
LiberationSerif-Italic.ttf
  4

  0
STYLE
  5
56
330
5
100
AcDbSymbolTableRecord
100
AcDbTextStyleTableRecord
  2
LiberationMono
 70
0
 40
0.0
 41
1.0
 50
0.0
 71
0
 42
2.5
  3
LiberationMono-Regular.ttf
  4

  0
STYLE
  5
57
330
5
100
AcDbSymbolTableRecord
100
AcDbTextStyleTableRecord
  2
LiberationMono-Bold
 70
0
 40
0.0
 41
1.0
 50
0.0
 71
0
 42
2.5
  3
LiberationMono-Bold.ttf
  4

  0
STYLE
  5
58
330
5
100
AcDbSymbolTableRecord
100
AcDbTextStyleTableRecord
  2
LiberationMono-BoldItalic
 70
0
 40
0.0
 41
1.0
 50
0.0
 71
0
 42
2.5
  3
LiberationMono-BoldItalic.ttf
  4

  0
STYLE
  5
59
330
5
100
AcDbSymbolTableRecord
100
AcDbTextStyleTableRecord
  2
LiberationMono-Italic
 70
0
 40
0.0
 41
1.0
 50
0.0
 71
0
 42
2.5
  3
LiberationMono-Italic.ttf
  4

  0
ENDTAB
  0
TABLE
  2
VIEW
  5
7
330
0
100
AcDbSymbolTable
 70
0
  0
ENDTAB
  0
TABLE
  2
UCS
  5
6
330
0
100
AcDbSymbolTable
 70
0
  0
ENDTAB
  0
TABLE
  2
APPID
  5
3
330
0
100
AcDbSymbolTable
 70
3
  0
APPID
  5
2A
330
3
100
AcDbSymbolTableRecord
100
AcDbRegAppTableRecord
  2
ACAD
 70
0
  0
APPID
  5
218
330
3
100
AcDbSymbolTableRecord
100
AcDbRegAppTableRecord
  2
HATCHBACKGROUNDCOLOR
 70
0
  0
APPID
  5
219
330
3
100
AcDbSymbolTableRecord
100
AcDbRegAppTableRecord
  2
EZDXF
 70
0
  0
ENDTAB
  0
TABLE
  2
DIMSTYLE
  5
4
330
0
100
AcDbSymbolTable
 70
12
100
AcDbDimStyleTable
  0
DIMSTYLE
105
2B
330
4
100
AcDbSymbolTableRecord
100
AcDbDimStyleTableRecord
  2
Standard
 70
0
 40
1.0
 41
2.5
 42
0.625
 43
3.75
 44
1.25
 45
0.0
 46
0.0
 47
0.0
 48
0.0
 49
2.5
140
2.5
141
2.5
142
0.0
143
0.03937007874
144
1.0
145
0.0
146
1.0
147
0.625
148
0.0
 69
0
 70
0
 71
0
 72
0
 73
0
 74
0
 75
0
 76
0
 77
1
 78
8
 79
3
170
0
171
3
172
1
173
0
174
0
175
0
176
0
177
0
178
0
179
2
271
2
272
2
273
2
274
3
275
0
276
0
277
2
278
44
279
0
280
0
281
0
282
0
283
0
284
8
285
0
286
0
288
0
289
3
290
0
371
-2
372
-2
  0
DIMSTYLE
105
73
330
4
100
AcDbSymbolTableRecord
100
AcDbDimStyleTableRecord
  2
EZDXF
 70
0
 40
1.0
 41
0.175
 42
0.125
 43
3.75
 44
0.375
 45
0.0
 46
0.0
 47
0.0
 48
0.0
 49
2.5
140
0.25
141
2.5
142
0.0
143
0.03937007874
144
100.0
145
0.0
146
0.5
147
0.1
148
0.0
 69
0
 70
0
 71
0
 72
0
 73
0
 74
0
 75
0
 76
0
 77
1
 78
12
 79
3
170
0
171
3
172
1
173
0
174
0
175
0
176
0
177
0
178
0
179
2
271
2
272
2
273
2
274
3
275
0
276
0
277
2
278
46
279
2
280
0
281
0
282
0
283
0
284
8
285
0
286
0
288
1
289
3
290
0
340
4C
342
74
371
-2
372
-2
  0
DIMSTYLE
105
7C
330
4
100
AcDbSymbolTableRecord
100
AcDbDimStyleTableRecord
  2
EZ_M_100_H25_CM
 70
0
 40
1.0
 41
0.25
 42
0.125
 43
3.75
 44
0.375
 45
0.0
 46
0.0
 47
0.0
 48
0.0
 49
2.5
140
0.25
141
2.5
142
0.125
143
0.03937007874
144
100.0
145
0.0
146
0.5
147
0.1
148
0.0
 69
0
 70
0
 71
0
 72
0
 73
0
 74
0
 75
0
 76
0
 77
1
 78
12
 79
3
170
0
171
3
172
1
173
0
174
0
175
0
176
0
177
0
178
0
179
2
271
2
272
2
273
2
274
3
275
0
276
0
277
2
278
46
279
2
280
0
281
0
282
0
283
0
284
8
285
0
286
0
288
1
289
3
290
0
340
4C
371
-2
372
-2
  0
DIMSTYLE
105
7D
330
4
100
AcDbSymbolTableRecord
100
AcDbDimStyleTableRecord
  2
EZ_M_50_H25_CM
 70
0
 40
1.0
 41
0.125
 42
0.0625
 43
3.75
 44
0.1875
 45
0.0
 46
0.0
 47
0.0
 48
0.0
 49
2.5
140
0.125
141
2.5
142
0.0625
143
0.03937007874
144
100.0
145
0.0
146
0.5
147
0.05
148
0.0
 69
0
 70
0
 71
0
 72
0
 73
0
 74
0
 75
0
 76
0
 77
1
 78
12
 79
3
170
0
171
3
172
1
173
0
174
0
175
0
176
0
177
0
178
0
179
2
271
2
272
2
273
2
274
3
275
0
276
0
277
2
278
46
279
2
280
0
281
0
282
0
283
0
284
8
285
0
286
0
288
1
289
3
290
0
340
4C
371
-2
372
-2
  0
DIMSTYLE
105
7E
330
4
100
AcDbSymbolTableRecord
100
AcDbDimStyleTableRecord
  2
EZ_M_25_H25_CM
 70
0
 40
1.0
 41
0.0625
 42
0.03125
 43
3.75
 44
0.09375
 45
0.0
 46
0.0
 47
0.0
 48
0.0
 49
2.5
140
0.0625
141
2.5
142
0.03125
143
0.03937007874
144
100.0
145
0.0
146
0.5
147
0.025
148
0.0
 69
0
 70
0
 71
0
 72
0
 73
0
 74
0
 75
0
 76
0
 77
1
 78
12
 79
3
170
0
171
3
172
1
173
0
174
0
175
0
176
0
177
0
178
0
179
2
271
2
272
2
273
2
274
3
275
0
276
0
277
2
278
46
279
2
280
0
281
0
282
0
283
0
284
8
285
0
286
0
288
1
289
3
290
0
340
4C
371
-2
372
-2
  0
DIMSTYLE
105
7F
330
4
100
AcDbSymbolTableRecord
100
AcDbDimStyleTableRecord
  2
EZ_M_20_H25_CM
 70
0
 40
1.0
 41
0.05
 42
0.025
 43
3.75
 44
0.07500000000000001
 45
0.0
 46
0.0
 47
0.0
 48
0.0
 49
2.5
140
0.05
141
2.5
142
0.025
143
0.03937007874
144
100.0
145
0.0
146
0.5
147
0.020000000000000004
148
0.0
 69
0
 70
0
 71
0
 72
0
 73
0
 74
0
 75
0
 76
0
 77
1
 78
12
 79
3
170
0
171
3
172
1
173
0
174
0
175
0
176
0
177
0
178
0
179
2
271
2
272
2
273
2
274
3
275
0
276
0
277
2
278
46
279
2
280
0
281
0
282
0
283
0
284
8
285
0
286
0
288
1
289
3
290
0
340
4C
371
-2
372
-2
  0
DIMSTYLE
105
80
330
4
100
AcDbSymbolTableRecord
100
AcDbDimStyleTableRecord
  2
EZ_M_10_H25_CM
 70
0
 40
1.0
 41
0.025
 42
0.0125
 43
3.75
 44
0.037500000000000006
 45
0.0
 46
0.0
 47
0.0
 48
0.0
 49
2.5
140
0.025
141
2.5
142
0.0125
143
0.03937007874
144
100.0
145
0.0
146
0.5
147
0.010000000000000002
148
0.0
 69
0
 70
0
 71
0
 72
0
 73
0
 74
0
 75
0
 76
0
 77
1
 78
12
 79
3
170
0
171
3
172
1
173
0
174
0
175
0
176
0
177
0
178
0
179
2
271
2
272
2
273
2
274
3
275
0
276
0
277
2
278
46
279
2
280
0
281
0
282
0
283
0
284
8
285
0
286
0
288
1
289
3
290
0
340
4C
371
-2
372
-2
  0
DIMSTYLE
105
81
330
4
100
AcDbSymbolTableRecord
100
AcDbDimStyleTableRecord
  2
EZ_M_5_H25_CM
 70
0
 40
1.0
 41
0.0125
 42
0.00625
 43
3.75
 44
0.018750000000000003
 45
0.0
 46
0.0
 47
0.0
 48
0.0
 49
2.5
140
0.0125
141
2.5
142
0.00625
143
0.03937007874
144
100.0
145
0.0
146
0.5
147
0.005000000000000001
148
0.0
 69
0
 70
0
 71
0
 72
0
 73
0
 74
0
 75
0
 76
0
 77
1
 78
12
 79
3
170
0
171
3
172
1
173
0
174
0
175
0
176
0
177
0
178
0
179
2
271
2
272
2
273
2
274
3
275
0
276
0
277
2
278
46
279
2
280
0
281
0
282
0
283
0
284
8
285
0
286
0
288
1
289
3
290
0
340
4C
371
-2
372
-2
  0
DIMSTYLE
105
82
330
4
100
AcDbSymbolTableRecord
100
AcDbDimStyleTableRecord
  2
EZ_M_1_H25_CM
 70
0
 40
1.0
 41
0.0025
 42
0.00125
 43
3.75
 44
0.00375
 45
0.0
 46
0.0
 47
0.0
 48
0.0
 49
2.5
140
0.0025
141
2.5
142
0.00125
143
0.03937007874
144
100.0
145
0.0
146
0.5
147
0.001
148
0.0
 69
0
 70
0
 71
0
 72
0
 73
0
 74
0
 75
0
 76
0
 77
1
 78
12
 79
3
170
0
171
3
172
1
173
0
174
0
175
0
176
0
177
0
178
0
179
2
271
2
272
2
273
2
274
3
275
0
276
0
277
2
278
46
279
2
280
0
281
0
282
0
283
0
284
8
285
0
286
0
288
1
289
3
290
0
340
4C
371
-2
372
-2
  0
DIMSTYLE
105
83
330
4
100
AcDbSymbolTableRecord
100
AcDbDimStyleTableRecord
  2
EZ_RADIUS
 70
0
 40
1.0
 41
0.25
 42
0.125
 43
3.75
 44
0.375
 45
0.0
 46
0.0
 47
0.0
 48
0.0
 49
2.5
140
0.25
141
0.0
142
0.0
143
0.03937007874
144
100.0
145
0.0
146
0.5
147
0.1
148
0.0
 69
0
 70
0
 71
0
 72
0
 73
0
 74
0
 75
0
 76
0
 77
1
 78
12
 79
3
170
0
171
3
172
0
173
0
174
0
175
0
176
0
177
0
178
0
179
2
271
2
272
2
273
2
274
3
275
0
276
0
277
2
278
46
279
1
280
0
281
0
282
0
283
0
284
8
285
0
286
0
288
1
289
3
290
0
340
4C
342
84
371
-2
372
-2
  0
DIMSTYLE
105
88
330
4
100
AcDbSymbolTableRecord
100
AcDbDimStyleTableRecord
  2
EZ_RADIUS_INSIDE
 70
0
 40
1.0
 41
0.25
 42
0.125
 43
3.75
 44
0.375
 45
0.0
 46
0.0
 47
0.0
 48
0.0
 49
2.5
140
0.25
141
0.0
142
0.0
143
0.03937007874
144
100.0
145
0.0
146
0.5
147
0.1
148
0.0
 69
0
 70
0
 71
0
 72
0
 73
0
 74
0
 75
0
 76
0
 77
0
 78
12
 79
3
170
0
171
3
172
0
173
0
174
1
175
0
176
0
177
0
178
0
179
2
271
2
272
2
273
2
274
3
275
0
276
0
277
2
278
46
279
0
280
0
281
0
282
0
283
0
284
8
285
0
286
0
288
1
289
0
290
0
340
4C
342
84
371
-2
372
-2
  0
DIMSTYLE
105
89
330
4
100
AcDbSymbolTableRecord
100
AcDbDimStyleTableRecord
  2
EZ_CURVED
 70
0
 40
1.0
 41
0.25
 42
0.125
 43
3.75
 44
0.375
 45
0.0
 46
0.0
 47
0.0
 48
0.0
 49
2.5
140
0.25
141
2.5
142
0.0
143
0.03937007874
144
100.0
145
0.0
146
0.5
147
0.1
148
0.0
 69
0
 70
0
 71
0
 72
0
 73
0
 74
0
 75
0
 76
0
 77
1
 78
12
 79
2
 90
2
170
0
171
3
172
1
173
0
174
0
175
0
176
0
177
0
178
0
179
2
271
2
272
2
273
2
274
3
275
0
276
0
277
2
278
46
279
2
280
0
281
0
282
0
283
0
284
8
285
0
286
0
288
1
289
3
290
0
340
4C
371
-2
372
-2
  0
ENDTAB
  0
TABLE
  2
BLOCK_RECORD
  5
9
330
0
100
AcDbSymbolTable
 70
6
  0
BLOCK_RECORD
  5
17
330
9
100
AcDbSymbolTableRecord
100
AcDbBlockTableRecord
  2
*Model_Space
340
1A
 70
0
280
1
281
0
  0
BLOCK_RECORD
  5
1B
330
9
100
AcDbSymbolTableRecord
100
AcDbBlockTableRecord
  2
*Paper_Space
340
1E
 70
0
280
1
281
0
  0
BLOCK_RECORD
  5
74
330
9
100
AcDbSymbolTableRecord
100
AcDbBlockTableRecord
  2
_ARCHTICK
340
0
 70
0
280
1
281
0
  0
BLOCK_RECORD
  5
78
330
9
100
AcDbSymbolTableRecord
100
AcDbBlockTableRecord
  2
_CLOSEDFILLED
340
0
 70
0
280
1
281
0
  0
BLOCK_RECORD
  5
84
330
9
100
AcDbSymbolTableRecord
100
AcDbBlockTableRecord
  2
_CLOSEDBLANK
340
0
 70
0
280
1
281
0
  0
BLOCK_RECORD
  5
8C
330
9
100
AcDbSymbolTableRecord
100
AcDbBlockTableRecord
  2
SRC_UNC_BED_DOUBLE_PLAN
340
0
 70
0
280
1
281
0
  0
ENDTAB
  0
ENDSEC
  0
SECTION
  2
BLOCKS
  0
BLOCK
  5
18
330
17
100
AcDbEntity
  8
0
100
AcDbBlockBegin
  2
*Model_Space
 70
0
 10
0.0
 20
0.0
 30
0.0
  3
*Model_Space
  1

  0
ENDBLK
  5
19
330
17
100
AcDbEntity
  8
0
100
AcDbBlockEnd
  0
BLOCK
  5
1C
330
1B
100
AcDbEntity
  8
0
100
AcDbBlockBegin
  2
*Paper_Space
 70
0
 10
0.0
 20
0.0
 30
0.0
  3
*Paper_Space
  1

  0
ENDBLK
  5
1D
330
1B
100
AcDbEntity
  8
0
100
AcDbBlockEnd
  0
BLOCK
  5
75
330
74
100
AcDbEntity
  8
0
100
AcDbBlockBegin
  2
_ARCHTICK
 70
0
 10
0.0
 20
0.0
 30
0.0
  3
_ARCHTICK
  1

  0
LWPOLYLINE
  5
77
330
74
100
AcDbEntity
  8
0
  6
BYBLOCK
 62
0
100
AcDbPolyline
 90
2
 70
0
 43
0.15
 10
-0.5
 20
-0.5
 10
0.5
 20
0.5
  0
ENDBLK
  5
76
330
74
100
AcDbEntity
  8
0
100
AcDbBlockEnd
  0
BLOCK
  5
79
330
78
100
AcDbEntity
  8
0
100
AcDbBlockBegin
  2
_CLOSEDFILLED
 70
0
 10
0.0
 20
0.0
 30
0.0
  3
_CLOSEDFILLED
  1

  0
SOLID
  5
7B
330
78
100
AcDbEntity
  8
0
  6
BYBLOCK
 62
0
100
AcDbTrace
 10
-1.0
 20
0.16439898372402537
 30
0.0
 11
0.0
 21
0.0
 31
0.0
 12
-1.0
 22
-0.16439898372402537
 32
0.0
 13
-1.0
 23
-0.16439898372402537
 33
0.0
  0
ENDBLK
  5
7A
330
78
100
AcDbEntity
  8
0
100
AcDbBlockEnd
  0
BLOCK
  5
85
330
84
100
AcDbEntity
  8
0
100
AcDbBlockBegin
  2
_CLOSEDBLANK
 70
0
 10
0.0
 20
0.0
 30
0.0
  3
_CLOSEDBLANK
  1

  0
LWPOLYLINE
  5
87
330
84
100
AcDbEntity
  8
0
  6
BYBLOCK
 62
0
100
AcDbPolyline
 90
3
 70
1
 10
-1.0
 20
0.16439898372402537
 10
0.0
 20
0.0
 10
-1.0
 20
-0.16439898372402537
  0
ENDBLK
  5
86
330
84
100
AcDbEntity
  8
0
100
AcDbBlockEnd
  0
BLOCK
  5
8D
330
8C
100
AcDbEntity
  8
0
100
AcDbBlockBegin
  2
SRC_UNC_BED_DOUBLE_PLAN
 70
0
 10
0.0
 20
0.0
 30
0.0
  3
SRC_UNC_BED_DOUBLE_PLAN
  1

  0
LINE
  5
8F
330
8C
100
AcDbEntity
  8
LIB-PLAN
  6
Continuous
100
AcDbLine
 10
-839.2489061449954
 20
-2133.696041043832
 30
0.0
 11
-841.5699874979935
 21
-2111.756838340987
 31
0.0
  0
LINE
  5
90
330
8C
100
AcDbEntity
  8
LIB-PLAN
  6
Continuous
100
AcDbLine
 10
-836.2955793191561
 20
-2147.725055454712
 30
0.0
 11
-839.2489061449954
 21
-2133.696041043832
 31
0.0
  0
LINE
  5
91
330
8C
100
AcDbEntity
  8
LIB-PLAN
  6
Continuous
100
AcDbLine
 10
-830.1781771765313
 20
-2165.8679373679306
 30
0.0
 11
-836.2955793191561
 21
-2147.725055454712
 31
0.0
  0
LINE
  5
92
330
8C
100
AcDbEntity
  8
LIB-PLAN
  6
Continuous
100
AcDbLine
 10
-881.8628206050038
 20
-2114.6047909213526
 30
0.0
 11
-902.8009679758505
 21
-2116.028767211535
 31
0.0
  0
LINE
  5
93
330
8C
100
AcDbEntity
  8
LIB-PLAN
  6
Continuous
100
AcDbLine
 10
-861.558342683287
 20
-2113.1808146311696
 30
0.0
 11
-881.8628206050038
 21
-2114.6047909213526
 31
0.0
  0
LINE
  5
94
330
8C
100
AcDbEntity
  8
LIB-PLAN
  6
Continuous
100
AcDbLine
 10
-841.5699874979935
 20
-2111.756838340987
 30
0.0
 11
-861.558342683287
 21
-2113.1808146311696
 31
0.0
  0
LINE
  5
95
330
8C
100
AcDbEntity
  8
LIB-PLAN
  6
Continuous
100
AcDbLine
 10
774.5904147366672
 20
-2134.4877718611738
 30
0.0
 11
766.0992441183083
 21
-2123.1486486624485
 31
0.0
  0
LINE
  5
96
330
8C
100
AcDbEntity
  8
LIB-PLAN
  6
Continuous
100
AcDbLine
 10
782.7654626186064
 20
-2145.5107723234782
 30
0.0
 11
774.5904147366672
 21
-2134.4877718611738
 31
0.0
  0
LINE
  5
97
330
8C
100
AcDbEntity
  8
LIB-PLAN
  6
Continuous
100
AcDbLine
 10
790.3068410514144
 20
-2155.9001033366512
 30
0.0
 11
782.7654626186064
 21
-2145.5107723234782
 31
0.0
  0
LINE
  5
98
330
8C
100
AcDbEntity
  8
LIB-PLAN
  6
Continuous
100
AcDbLine
 10
760.4033389575762
 20
-2087.4965542851437
 30
0.0
 11
757.5553863772114
 21
-2069.037549635505
 31
0.0
  0
LINE
  5
99
330
8C
100
AcDbEntity
  8
LIB-PLAN
  6
Continuous
100
AcDbLine
 10
763.2512915379433
 20
-2105.6394361983616
 30
0.0
 11
760.4033389575762
 21
-2087.4965542851437
 31
0.0
  0
LINE
  5
9A
330
8C
100
AcDbEntity
  8
LIB-PLAN
  6
Continuous
100
AcDbLine
 10
766.0992441183083
 20
-2123.1486486624485
 30
0.0
 11
763.2512915379433
 21
-2105.6394361983616
 31
0.0
  0
LINE
  5
9B
330
8C
100
AcDbEntity
  8
LIB-PLAN
  6
Continuous
100
AcDbLine
 10
726.2279079931913
 20
-2072.306999197764
 30
0.0
 11
710.5641688011814
 21
-2074.7334547962355
 31
0.0
  0
LINE
  5
9C
330
8C
100
AcDbEntity
  8
LIB-PLAN
  6
Continuous
100
AcDbLine
 10
741.8916471852023
 20
-2070.514213048424
 30
0.0
 11
726.2279079931913
 21
-2072.306999197764
 31
0.0
  0
LINE
  5
9D
330
8C
100
AcDbEntity
  8
LIB-PLAN
  6
Continuous
100
AcDbLine
 10
757.5553863772114
 20
-2069.037549635505
 30
0.0
 11
741.8916471852023
 21
-2070.514213048424
 31
0.0
  0
LINE
  5
9E
330
8C
100
AcDbEntity
  8
LIB-PLAN
  6
Continuous
100
AcDbLine
 10
-5.3000397520601155
 20
-2060.6104579502035
 30
0.0
 11
-59.80700418767424
 21
-2060.4936918944086
 31
0.0
  0
LINE
  5
9F
330
8C
100
AcDbEntity
  8
LIB-PLAN
  6
Continuous
100
AcDbLine
 10
43.04253132335339
 20
-2060.9550602124277
 30
0.0
 11
-5.3000397520601155
 21
-2060.6104579502035
 31
0.0
  0
LINE
  5
A0
330
8C
100
AcDbEntity
  8
LIB-PLAN
  6
Continuous
100
AcDbLine
 10
87.59732546688099
 20
-2061.51753084705
 30
0.0
 11
43.04253132335339
 21
-2060.9550602124277
 31
0.0
  0
LINE
  5
A1
330
8C
100
AcDbEntity
  8
LIB-PLAN
  6
Continuous
100
AcDbLine
 10
130.74238308312704
 20
-2062.2864780437485
 30
0.0
 11
87.59732546688099
 21
-2061.51753084705
 31
0.0
  0
LINE
  5
A2
330
8C
100
AcDbEntity
  8
LIB-PLAN
  6
Continuous
100
AcDbLine
 10
174.85716855298722
 20
-2063.254781921073
 30
0.0
 11
130.74238308312704
 21
-2062.2864780437485
 31
0.0
  0
LINE
  5
A3
330
8C
100
AcDbEntity
  8
LIB-PLAN
  6
Continuous
100
AcDbLine
 10
222.3182983047792
 20
-2064.409626692411
 30
0.0
 11
174.85716855298722
 21
-2063.254781921073
 31
0.0
  0
LINE
  5
A4
330
8C
100
AcDbEntity
  8
LIB-PLAN
  6
Continuous
100
AcDbLine
 10
275.50523671939334
 20
-2065.742468500022
 30
0.0
 11
222.3182983047792
 21
-2064.409626692411
 31
0.0
  0
LINE
  5
A5
330
8C
100
AcDbEntity
  8
LIB-PLAN
  6
Continuous
100
AcDbLine
 10
336.7974481777293
 20
-2067.2447634861646
 30
0.0
 11
275.50523671939334
 21
-2065.742468500022
 31
0.0
  0
LINE
  5
A6
330
8C
100
AcDbEntity
  8
LIB-PLAN
  6
Continuous
100
AcDbLine
 10
408.57012513180814
 20
-2068.9036958642278
 30
0.0
 11
336.7974481777293
 21
-2067.2447634861646
 31
0.0
  0
LINE
  5
A7
330
8C
100
AcDbEntity
  8
LIB-PLAN
  6
Continuous
100
AcDbLine
 10
493.2027319625305
 20
-2070.71214575276
 30
0.0
 11
408.57012513180814
 21
-2068.9036958642278
 31
0.0
  0
LINE
  5
A8
330
8C
100
AcDbEntity
  8
LIB-PLAN
  6
Continuous
100
AcDbLine
 10
593.0747330507862
 20
-2072.6587213414396
 30
0.0
 11
493.2027319625305
 21
-2070.71214575276
 31
0.0
  0
LINE
  5
A9
330
8C
100
AcDbEntity
  8
LIB-PLAN
  6
Continuous
100
AcDbLine
 10
710.5641688011814
 20
-2074.7334547962355
 30
0.0
 11
593.0747330507862
 21
-2072.6587213414396
 31
0.0
  0
LINE
  5
AA
330
8C
100
AcDbEntity
  8
LIB-PLAN
  6
Continuous
100
AcDbLine
 10
-233.53211158996726
 20
-2069.4590466173986
 30
0.0
 11
-320.39466529111326
 21
-2074.7334547962355
 31
0.0
  0
LINE
  5
AB
330
8C
100
AcDbEntity
  8
LIB-PLAN
  6
Continuous
100
AcDbLine
 10
-146.6695578888208
 20
-2064.818307887693
 30
0.0
 11
-233.53211158996726
 21
-2069.4590466173986
 31
0.0
  0
LINE
  5
AC
330
8C
100
AcDbEntity
  8
LIB-PLAN
  6
Continuous
100
AcDbLine
 10
-59.80700418767424
 20
-2060.4936918944086
 30
0.0
 11
-146.6695578888208
 21
-2064.818307887693
 31
0.0
  0
LINE
  5
AD
330
8C
100
AcDbEntity
  8
LIB-PLAN
  6
Continuous
100
AcDbLine
 10
-417.2250530235397
 20
-2087.6019285306174
 30
0.0
 11
-465.64024688975235
 21
-2094.6691228587943
 31
0.0
  0
LINE
  5
AE
330
8C
100
AcDbEntity
  8
LIB-PLAN
  6
Continuous
100
AcDbLine
 10
-368.8098591573276
 20
-2080.850856938861
 30
0.0
 11
-417.2250530235397
 21
-2087.6019285306174
 31
0.0
  0
LINE
  5
AF
330
8C
100
AcDbEntity
  8
LIB-PLAN
  6
Continuous
100
AcDbLine
 10
-320.39466529111326
 20
-2074.7334547962355
 30
0.0
 11
-368.8098591573276
 21
-2080.850856938861
 31
0.0
  0
LINE
  5
B0
330
8C
100
AcDbEntity
  8
LIB-PLAN
  6
Continuous
100
AcDbLine
 10
-761.5539118000451
 20
-2103.5091676682487
 30
0.0
 11
-835.8740823372614
 21
-2106.060933180256
 31
0.0
  0
LINE
  5
B1
330
8C
100
AcDbEntity
  8
LIB-PLAN
  6
Continuous
100
AcDbLine
 10
-687.3020921247564
 20
-2101.0257530181693
 30
0.0
 11
-761.5539118000451
 21
-2103.5091676682487
 31
0.0
  0
LINE
  5
B2
330
8C
100
AcDbEntity
  8
LIB-PLAN
  6
Continuous
100
AcDbLine
 10
-613.1869741733268
 20
-2098.6790400919485
 30
0.0
 11
-687.3020921247564
 21
-2101.0257530181693
 31
0.0
  0
LINE
  5
B3
330
8C
100
AcDbEntity
  8
LIB-PLAN
  6
Continuous
100
AcDbLine
 10
-539.2769088076823
 20
-2096.537379751514
 30
0.0
 11
-613.1869741733268
 21
-2098.6790400919485
 31
0.0
  0
LINE
  5
B4
330
8C
100
AcDbEntity
  8
LIB-PLAN
  6
Continuous
100
AcDbLine
 10
-465.64024688975235
 20
-2094.6691228587943
 30
0.0
 11
-539.2769088076823
 21
-2096.537379751514
 31
0.0
  0
LINE
  5
B5
330
8C
100
AcDbEntity
  8
LIB-PLAN
  6
Continuous
100
AcDbLine
 10
-831.1806564848193
 20
-2054.745099610941
 30
0.0
 11
-830.1781771765313
 21
-2030.5901898005714
 31
0.0
  0
LINE
  5
B6
330
8C
100
AcDbEntity
  8
LIB-PLAN
  6
Continuous
100
AcDbLine
 10
-831.5494663439783
 20
-2078.58388668489
 30
0.0
 11
-831.1806564848193
 21
-2054.745099610941
 31
0.0
  0
LINE
  5
B7
330
8C
100
AcDbEntity
  8
LIB-PLAN
  6
Continuous
100
AcDbLine
 10
-831.6021534667129
 20
-2101.7890043097077
 30
0.0
 11
-831.5494663439783
 21
-2078.58388668489
 31
0.0
  0
LINE
  5
B8
330
8C
100
AcDbEntity
  8
LIB-PLAN
  6
Continuous
100
AcDbLine
 10
-817.6258261785706
 20
-1961.817830889906
 30
0.0
 11
-810.2425091139726
 21
-1875.3767741706536
 31
0.0
  0
LINE
  5
B9
330
8C
100
AcDbEntity
  8
LIB-PLAN
  6
Continuous
100
AcDbLine
 10
-822.7948601119334
 20
-2002.05797687418
 30
0.0
 11
-817.6258261785706
 21
-1961.817830889906
 31
0.0
  0
LINE
  5
BA
330
8C
100
AcDbEntity
  8
LIB-PLAN
  6
Continuous
100
AcDbLine
 10
-830.1781771765313
 20
-2030.5901898005714
 30
0.0
 11
-822.7948601119334
 21
-2002.05797687418
 31
0.0
  0
LINE
  5
BB
330
8C
100
AcDbEntity
  8
LIB-PLAN
  6
Continuous
100
AcDbLine
 10
-810.2425091139726
 20
-1821.2656751437103
 30
0.0
 11
-810.2425091139726
 21
-1794.2101256302383
 31
0.0
  0
LINE
  5
BC
330
8C
100
AcDbEntity
  8
LIB-PLAN
  6
Continuous
100
AcDbLine
 10
-810.2425091139726
 20
-1848.321224657182
 30
0.0
 11
-810.2425091139726
 21
-1821.2656751437103
 31
0.0
  0
LINE
  5
BD
330
8C
100
AcDbEntity
  8
LIB-PLAN
  6
Continuous
100
AcDbLine
 10
-810.2425091139726
 20
-1875.3767741706536
 30
0.0
 11
-810.2425091139726
 21
-1848.321224657182
 31
0.0
  0
LINE
  5
BE
330
8C
100
AcDbEntity
  8
LIB-PLAN
  6
Continuous
100
AcDbLine
 10
-833.0261297568965
 20
-1734.4031214425634
 30
0.0
 11
-844.4179400783584
 21
-1704.4996193487264
 31
0.0
  0
LINE
  5
BF
330
8C
100
AcDbEntity
  8
LIB-PLAN
  6
Continuous
100
AcDbLine
 10
-821.6343194354343
 20
-1764.3066235364006
 30
0.0
 11
-833.0261297568965
 21
-1734.4031214425634
 31
0.0
  0
LINE
  5
C0
330
8C
100
AcDbEntity
  8
LIB-PLAN
  6
Continuous
100
AcDbLine
 10
-810.2425091139726
 20
-1794.2101256302383
 30
0.0
 11
-821.6343194354343
 21
-1764.3066235364006
 31
0.0
  0
LINE
  5
C1
330
8C
100
AcDbEntity
  8
LIB-PLAN
  6
Continuous
100
AcDbLine
 10
-844.4179400783584
 20
-1663.1516198106904
 30
0.0
 11
-844.4179400783584
 21
-1641.8446625806866
 31
0.0
  0
LINE
  5
C2
330
8C
100
AcDbEntity
  8
LIB-PLAN
  6
Continuous
100
AcDbLine
 10
-844.4179400783584
 20
-1684.1424543042742
 30
0.0
 11
-844.4179400783584
 21
-1663.1516198106904
 31
0.0
  0
LINE
  5
C3
330
8C
100
AcDbEntity
  8
LIB-PLAN
  6
Continuous
100
AcDbLine
 10
-844.4179400783584
 20
-1704.4996193487264
 30
0.0
 11
-844.4179400783584
 21
-1684.1424543042742
 31
0.0
  0
LINE
  5
C4
330
8C
100
AcDbEntity
  8
LIB-PLAN
  6
Continuous
100
AcDbLine
 10
-838.3005379357328
 20
-1613.365136777032
 30
0.0
 11
-834.4501060470801
 21
-1599.1253738752043
 31
0.0
  0
LINE
  5
C5
330
8C
100
AcDbEntity
  8
LIB-PLAN
  6
Continuous
100
AcDbLine
 10
-841.5173003752567
 20
-1627.604899678859
 30
0.0
 11
-838.3005379357328
 21
-1613.365136777032
 31
0.0
  0
LINE
  5
C6
330
8C
100
AcDbEntity
  8
LIB-PLAN
  6
Continuous
100
AcDbLine
 10
-844.4179400783584
 20
-1641.8446625806866
 30
0.0
 11
-841.5173003752567
 21
-1627.604899678859
 31
0.0
  0
LINE
  5
C7
330
8C
100
AcDbEntity
  8
LIB-PLAN
  6
Continuous
100
AcDbLine
 10
-836.9221288868357
 20
-1193.2266282637784
 30
0.0
 11
-838.7220349176284
 21
-1151.9968187578274
 31
0.0
  0
LINE
  5
C8
330
8C
100
AcDbEntity
  8
LIB-PLAN
  6
Continuous
100
AcDbLine
 10
-835.7160209690522
 20
-1231.2126197806926
 30
0.0
 11
-836.9221288868357
 21
-1193.2266282637784
 31
0.0
  0
LINE
  5
C9
330
8C
100
AcDbEntity
  8
LIB-PLAN
  6
Continuous
100
AcDbLine
 10
-834.9840971558983
 20
-1278.3747145115444
 30
0.0
 11
-835.7160209690522
 21
-1231.2126197806926
 31
0.0
  0
LINE
  5
CA
330
8C
100
AcDbEntity
  8
LIB-PLAN
  6
Continuous
100
AcDbLine
 10
-834.6081674152891
 20
-1347.1342576355983
 30
0.0
 11
-834.9840971558983
 21
-1278.3747145115444
 31
0.0
  0
LINE
  5
CB
330
8C
100
AcDbEntity
  8
LIB-PLAN
  6
Continuous
100
AcDbLine
 10
-834.4700417151425
 20
-1449.911170355827
 30
0.0
 11
-834.6081674152891
 21
-1347.1342576355983
 31
0.0
  0
LINE
  5
CC
330
8C
100
AcDbEntity
  8
LIB-PLAN
  6
Continuous
100
AcDbLine
 10
-834.4501060470801
 20
-1599.1253738752043
 30
0.0
 11
-834.4700417151425
 21
-1449.911170355827
 31
0.0
  0
LINE
  5
CD
330
8C
100
AcDbEntity
  8
LIB-PLAN
  6
Continuous
100
AcDbLine
 10
-844.2071915874127
 20
-1112.3362311236583
 30
0.0
 11
-844.4179400783584
 21
-1069.4061939272287
 31
0.0
  0
LINE
  5
CE
330
8C
100
AcDbEntity
  8
LIB-PLAN
  6
Continuous
100
AcDbLine
 10
-842.7305281744925
 20
-1133.7485625991358
 30
0.0
 11
-844.2071915874127
 21
-1112.3362311236583
 31
0.0
  0
LINE
  5
CF
330
8C
100
AcDbEntity
  8
LIB-PLAN
  6
Continuous
100
AcDbLine
 10
-838.7220349176284
 20
-1151.9968187578274
 30
0.0
 11
-842.7305281744925
 21
-1133.7485625991358
 31
0.0
  0
LINE
  5
D0
330
8C
100
AcDbEntity
  8
LIB-PLAN
  6
Continuous
100
AcDbLine
 10
-831.5494663439783
 20
-878.1718740608487
 30
0.0
 11
-824.4822720158004
 21
-781.7629833103178
 31
0.0
  0
LINE
  5
D1
330
8C
100
AcDbEntity
  8
LIB-PLAN
  6
Continuous
100
AcDbLine
 10
-838.3005379357328
 20
-973.9470953622499
 30
0.0
 11
-831.5494663439783
 21
-878.1718740608487
 31
0.0
  0
LINE
  5
D2
330
8C
100
AcDbEntity
  8
LIB-PLAN
  6
Continuous
100
AcDbLine
 10
-844.4179400783584
 20
-1069.4061939272287
 30
0.0
 11
-838.3005379357328
 21
-973.9470953622499
 31
0.0
  0
LINE
  5
D3
330
8C
100
AcDbEntity
  8
LIB-PLAN
  6
Continuous
100
AcDbLine
 10
-830.599674158425
 20
-709.0875053882619
 30
0.0
 11
-834.4501060470801
 21
-672.1168089662478
 31
0.0
  0
LINE
  5
D4
330
8C
100
AcDbEntity
  8
LIB-PLAN
  6
Continuous
100
AcDbLine
 10
-827.382911718902
 20
-745.7420790738549
 30
0.0
 11
-830.599674158425
 21
-709.0875053882619
 31
0.0
  0
LINE
  5
D5
330
8C
100
AcDbEntity
  8
LIB-PLAN
  6
Continuous
100
AcDbLine
 10
-824.4822720158004
 20
-781.7629833103178
 30
0.0
 11
-827.382911718902
 21
-745.7420790738549
 31
0.0
  0
LINE
  5
D6
330
8C
100
AcDbEntity
  8
LIB-PLAN
  6
Continuous
100
AcDbLine
 10
-828.6815780955487
 20
-313.65071358080877
 30
0.0
 11
-824.4822720158004
 21
-206.47656207649584
 31
0.0
  0
LINE
  5
D7
330
8C
100
AcDbEntity
  8
LIB-PLAN
  6
Continuous
100
AcDbLine
 10
-831.4967792212406
 20
-391.7515411684608
 30
0.0
 11
-828.6815780955487
 21
-313.65071358080877
 31
0.0
  0
LINE
  5
D8
330
8C
100
AcDbEntity
  8
LIB-PLAN
  6
Continuous
100
AcDbLine
 10
-833.2041267931693
 20
-453.7144454594718
 30
0.0
 11
-831.4967792212406
 21
-391.7515411684608
 31
0.0
  0
LINE
  5
D9
330
8C
100
AcDbEntity
  8
LIB-PLAN
  6
Continuous
100
AcDbLine
 10
-834.081296187923
 20
-512.4734030975719
 30
0.0
 11
-833.2041267931693
 21
-453.7144454594718
 31
0.0
  0
LINE
  5
DA
330
8C
100
AcDbEntity
  8
LIB-PLAN
  6
Continuous
100
AcDbLine
 10
-834.4045388057926
 20
-580.9623907264897
 30
0.0
 11
-834.081296187923
 21
-512.4734030975719
 31
0.0
  0
LINE
  5
DB
330
8C
100
AcDbEntity
  8
LIB-PLAN
  6
Continuous
100
AcDbLine
 10
-834.4501060470801
 20
-672.1168089662478
 30
0.0
 11
-834.4045388057926
 21
-580.9623907264897
 31
0.0
  0
LINE
  5
DC
330
8C
100
AcDbEntity
  8
LIB-PLAN
  6
Continuous
100
AcDbLine
 10
-828.8068880090848
 20
-154.79191864802283
 30
0.0
 11
-831.6021534667129
 21
-128.15786611644603
 31
0.0
  0
LINE
  5
DD
330
8C
100
AcDbEntity
  8
LIB-PLAN
  6
Continuous
100
AcDbLine
 10
-826.3277452878776
 20
-180.79230173046994
 30
0.0
 11
-828.8068880090848
 21
-154.79191864802283
 31
0.0
  0
LINE
  5
DE
330
8C
100
AcDbEntity
  8
LIB-PLAN
  6
Continuous
100
AcDbLine
 10
-824.4822720158004
 20
-206.47656207649584
 30
0.0
 11
-826.3277452878776
 21
-180.79230173046994
 31
0.0
  0
LINE
  5
DF
330
8C
100
AcDbEntity
  8
LIB-PLAN
  6
Continuous
100
AcDbLine
 10
-840.5675081897044
 20
-120.9852975427957
 30
0.0
 11
-845.8419163685398
 21
-116.76605579498391
 31
0.0
  0
LINE
  5
E0
330
8C
100
AcDbEntity
  8
LIB-PLAN
  6
Continuous
100
AcDbLine
 10
-835.926769459999
 20
-124.88841655418582
 30
0.0
 11
-840.5675081897044
 21
-120.9852975427957
 31
0.0
  0
LINE
  5
E1
330
8C
100
AcDbEntity
  8
LIB-PLAN
  6
Continuous
100
AcDbLine
 10
-831.6021534667129
 20
-128.15786611644603
 30
0.0
 11
-835.926769459999
 21
-124.88841655418582
 31
0.0
  0
LINE
  5
E2
330
8C
100
AcDbEntity
  8
LIB-PLAN
  6
Continuous
100
AcDbLine
 10
-915.6694417102308
 20
-115.28939238206385
 30
0.0
 11
-951.2161618420632
 21
-113.91810321461685
 31
0.0
  0
LINE
  5
E3
330
8C
100
AcDbEntity
  8
LIB-PLAN
  6
Continuous
100
AcDbLine
 10
-880.4388443148202
 20
-116.34455881308986
 30
0.0
 11
-915.6694417102308
 21
-115.28939238206385
 31
0.0
  0
LINE
  5
E4
330
8C
100
AcDbEntity
  8
LIB-PLAN
  6
Continuous
100
AcDbLine
 10
-845.8419163685398
 20
-116.76605579498391
 30
0.0
 11
-880.4388443148202
 21
-116.34455881308986
 31
0.0
  0
LINE
  5
E5
330
8C
100
AcDbEntity
  8
LIB-PLAN
  6
Continuous
100
AcDbLine
 10
780.3916941428714
 20
-2032.0141660907539
 30
0.0
 11
787.4588884710494
 21
-2013.5024743183785
 31
0.0
  0
LINE
  5
E6
330
8C
100
AcDbEntity
  8
LIB-PLAN
  6
Continuous
100
AcDbLine
 10
773.6406225511154
 20
-2050.525857863129
 30
0.0
 11
780.3916941428714
 21
-2032.0141660907539
 31
0.0
  0
LINE
  5
E7
330
8C
100
AcDbEntity
  8
LIB-PLAN
  6
Continuous
100
AcDbLine
 10
767.5232204084904
 20
-2069.037549635505
 30
0.0
 11
773.6406225511154
 21
-2050.525857863129
 31
0.0
  0
LINE
  5
E8
330
8C
100
AcDbEntity
  8
LIB-PLAN
  6
Continuous
100
AcDbLine
 10
783.2538864861393
 20
-1797.0352945899606
 30
0.0
 11
777.4910544397702
 21
-1690.2598564468994
 31
0.0
  0
LINE
  5
E9
330
8C
100
AcDbEntity
  8
LIB-PLAN
  6
Continuous
100
AcDbLine
 10
786.2129092171393
 20
-1866.2989253207386
 30
0.0
 11
783.2538864861393
 21
-1797.0352945899606
 31
0.0
  0
LINE
  5
EA
330
8C
100
AcDbEntity
  8
LIB-PLAN
  6
Continuous
100
AcDbLine
 10
787.3036750554194
 20
-1928.3529640943214
 30
0.0
 11
786.2129092171393
 21
-1866.2989253207386
 31
0.0
  0
LINE
  5
EB
330
8C
100
AcDbEntity
  8
LIB-PLAN
  6
Continuous
100
AcDbLine
 10
787.4588884710494
 20
-2013.5024743183785
 30
0.0
 11
787.3036750554194
 21
-1928.3529640943214
 31
0.0
  0
LINE
  5
EC
330
8C
100
AcDbEntity
  8
LIB-PLAN
  6
Continuous
100
AcDbLine
 10
773.6933096738525
 20
-1610.9386811785603
 30
0.0
 11
777.4910544397702
 21
-1580.613682102829
 31
0.0
  0
LINE
  5
ED
330
8C
100
AcDbEntity
  8
LIB-PLAN
  6
Continuous
100
AcDbLine
 10
773.6933096738525
 20
-1653.289160024885
 30
0.0
 11
773.6933096738525
 21
-1610.9386811785603
 31
0.0
  0
LINE
  5
EE
330
8C
100
AcDbEntity
  8
LIB-PLAN
  6
Continuous
100
AcDbLine
 10
777.4910544397702
 20
-1690.2598564468994
 30
0.0
 11
773.6933096738525
 21
-1653.289160024885
 31
0.0
  0
LINE
  5
EF
330
8C
100
AcDbEntity
  8
LIB-PLAN
  6
Continuous
100
AcDbLine
 10
761.7746281250235
 20
-1425.3475793501743
 30
0.0
 11
753.2834575066632
 21
-1347.0815705128616
 31
0.0
  0
LINE
  5
F0
330
8C
100
AcDbEntity
  8
LIB-PLAN
  6
Continuous
100
AcDbLine
 10
769.9496760069622
 20
-1503.2974654510676
 30
0.0
 11
761.7746281250235
 21
-1425.3475793501743
 31
0.0
  0
LINE
  5
F1
330
8C
100
AcDbEntity
  8
LIB-PLAN
  6
Continuous
100
AcDbLine
 10
777.4910544397702
 20
-1580.613682102829
 30
0.0
 11
769.9496760069622
 21
-1503.2974654510676
 31
0.0
  0
LINE
  5
F2
330
8C
100
AcDbEntity
  8
LIB-PLAN
  6
Continuous
100
AcDbLine
 10
747.4821781004583
 20
-1197.4059986754646
 30
0.0
 11
743.3156234753843
 21
-1171.9324868203857
 31
0.0
  0
LINE
  5
F3
330
8C
100
AcDbEntity
  8
LIB-PLAN
  6
Continuous
100
AcDbLine
 10
750.0666950671415
 20
-1242.8151785931013
 30
0.0
 11
747.4821781004583
 21
-1197.4059986754646
 31
0.0
  0
LINE
  5
F4
330
8C
100
AcDbEntity
  8
LIB-PLAN
  6
Continuous
100
AcDbLine
 10
753.2834575066632
 20
-1347.0815705128616
 30
0.0
 11
750.0666950671415
 21
-1242.8151785931013
 31
0.0
  0
LINE
  5
F5
330
8C
100
AcDbEntity
  8
LIB-PLAN
  6
Continuous
100
AcDbLine
 10
746.0496579525353
 20
-926.9629976676708
 30
0.0
 11
743.3156234753843
 21
-800.2746750826939
 31
0.0
  0
LINE
  5
F6
330
8C
100
AcDbEntity
  8
LIB-PLAN
  6
Continuous
100
AcDbLine
 10
747.4166751911104
 20
-1009.6333651705188
 30
0.0
 11
746.0496579525353
 21
-926.9629976676708
 31
0.0
  0
LINE
  5
F7
330
8C
100
AcDbEntity
  8
LIB-PLAN
  6
Continuous
100
AcDbLine
 10
747.4166751911104
 20
-1066.1253525546479
 30
0.0
 11
747.4166751911104
 21
-1009.6333651705188
 31
0.0
  0
LINE
  5
F8
330
8C
100
AcDbEntity
  8
LIB-PLAN
  6
Continuous
100
AcDbLine
 10
746.0496579525353
 20
-1114.2785347834674
 30
0.0
 11
747.4166751911104
 21
-1066.1253525546479
 31
0.0
  0
LINE
  5
F9
330
8C
100
AcDbEntity
  8
LIB-PLAN
  6
Continuous
100
AcDbLine
 10
743.3156234753843
 20
-1171.9324868203857
 30
0.0
 11
746.0496579525353
 21
-1114.2785347834674
 31
0.0
  0
LINE
  5
FA
330
8C
100
AcDbEntity
  8
LIB-PLAN
  6
Continuous
100
AcDbLine
 10
740.0461739131243
 20
-790.2541539286769
 30
0.0
 11
737.6197183146531
 21
-784.6109358906838
 31
0.0
  0
LINE
  5
FB
330
8C
100
AcDbEntity
  8
LIB-PLAN
  6
Continuous
100
AcDbLine
 10
741.8389600624654
 20
-795.5812492302509
 30
0.0
 11
740.0461739131243
 21
-790.2541539286769
 31
0.0
  0
LINE
  5
FC
330
8C
100
AcDbEntity
  8
LIB-PLAN
  6
Continuous
100
AcDbLine
 10
743.3156234753843
 20
-800.2746750826939
 30
0.0
 11
741.8389600624654
 21
-795.5812492302509
 31
0.0
  0
LINE
  5
FD
330
8C
100
AcDbEntity
  8
LIB-PLAN
  6
Continuous
100
AcDbLine
 10
703.0227903683741
 20
-776.0670781495878
 30
0.0
 11
684.9325955778924
 21
-771.7951492790389
 31
0.0
  0
LINE
  5
FE
330
8C
100
AcDbEntity
  8
LIB-PLAN
  6
Continuous
100
AcDbLine
 10
720.4793157097232
 20
-780.3390070201347
 30
0.0
 11
703.0227903683741
 21
-776.0670781495878
 31
0.0
  0
LINE
  5
FF
330
8C
100
AcDbEntity
  8
LIB-PLAN
  6
Continuous
100
AcDbLine
 10
737.6197183146531
 20
-784.6109358906838
 30
0.0
 11
720.4793157097232
 21
-780.3390070201347
 31
0.0
  0
LINE
  5
100
330
8C
100
AcDbEntity
  8
LIB-PLAN
  6
Continuous
100
AcDbLine
 10
682.0846429975273
 20
-766.0992441183078
 30
0.0
 11
680.6606667073444
 21
-763.2512915379427
 31
0.0
  0
LINE
  5
101
330
8C
100
AcDbEntity
  8
LIB-PLAN
  6
Continuous
100
AcDbLine
 10
683.5086192877092
 20
-768.9471966986737
 30
0.0
 11
682.0846429975273
 21
-766.0992441183078
 31
0.0
  0
LINE
  5
102
330
8C
100
AcDbEntity
  8
LIB-PLAN
  6
Continuous
100
AcDbLine
 10
684.9325955778924
 20
-771.7951492790389
 30
0.0
 11
683.5086192877092
 21
-768.9471966986737
 31
0.0
  0
LINE
  5
103
330
8C
100
AcDbEntity
  8
LIB-PLAN
  6
Continuous
100
AcDbLine
 10
370.87889670696234
 20
-770.4594595188478
 30
0.0
 11
337.4823807733072
 21
-774.6431018594049
 31
0.0
  0
LINE
  5
104
330
8C
100
AcDbEntity
  8
LIB-PLAN
  6
Continuous
100
AcDbLine
 10
417.7590441323583
 20
-767.8792144810368
 30
0.0
 11
370.87889670696234
 21
-770.4594595188478
 31
0.0
  0
LINE
  5
105
330
8C
100
AcDbEntity
  8
LIB-PLAN
  6
Continuous
100
AcDbLine
 10
510.29471937359233
 20
-765.8329605520428
 30
0.0
 11
417.7590441323583
 21
-767.8792144810368
 31
0.0
  0
LINE
  5
106
330
8C
100
AcDbEntity
  8
LIB-PLAN
  6
Continuous
100
AcDbLine
 10
680.6606667073444
 20
-763.2512915379427
 30
0.0
 11
510.29471937359233
 21
-765.8329605520428
 31
0.0
  0
LINE
  5
107
330
8C
100
AcDbEntity
  8
LIB-PLAN
  6
Continuous
100
AcDbLine
 10
308.2638112750475
 20
-786.9847043664179
 30
0.0
 11
254.89175594270944
 21
-800.2746750826939
 31
0.0
  0
LINE
  5
108
330
8C
100
AcDbEntity
  8
LIB-PLAN
  6
Continuous
100
AcDbLine
 10
329.67756672681537
 20
-780.3390070201347
 30
0.0
 11
308.2638112750475
 21
-786.9847043664179
 31
0.0
  0
LINE
  5
109
330
8C
100
AcDbEntity
  8
LIB-PLAN
  6
Continuous
100
AcDbLine
 10
337.4823807733072
 20
-774.6431018594049
 30
0.0
 11
329.67756672681537
 21
-780.3390070201347
 31
0.0
  0
LINE
  5
10A
330
8C
100
AcDbEntity
  8
LIB-PLAN
  6
Continuous
100
AcDbLine
 10
167.97651511882543
 20
-837.7195556093379
 30
0.0
 11
123.8859372458968
 21
-857.2337266900017
 31
0.0
  0
LINE
  5
10B
330
8C
100
AcDbEntity
  8
LIB-PLAN
  6
Continuous
100
AcDbLine
 10
211.7509702553324
 20
-818.8390539778059
 30
0.0
 11
167.97651511882543
 21
-837.7195556093379
 31
0.0
  0
LINE
  5
10C
330
8C
100
AcDbEntity
  8
LIB-PLAN
  6
Continuous
100
AcDbLine
 10
254.89175594270944
 20
-800.2746750826939
 30
0.0
 11
211.7509702553324
 21
-818.8390539778059
 31
0.0
  0
LINE
  5
10D
330
8C
100
AcDbEntity
  8
LIB-PLAN
  6
Continuous
100
AcDbLine
 10
-164.7369690586603
 20
-915.0585558817429
 30
0.0
 11
-244.92392191143017
 21
-934.1284463598697
 31
0.0
  0
LINE
  5
10E
330
8C
100
AcDbEntity
  8
LIB-PLAN
  6
Continuous
100
AcDbLine
 10
-105.46537995609356
 20
-901.525085219846
 30
0.0
 11
-164.7369690586603
 21
-915.0585558817429
 31
0.0
  0
LINE
  5
10F
330
8C
100
AcDbEntity
  8
LIB-PLAN
  6
Continuous
100
AcDbLine
 10
-49.40628136418036
 20
-889.8370878300259
 30
0.0
 11
-105.46537995609356
 21
-901.525085219846
 31
0.0
  0
LINE
  5
110
330
8C
100
AcDbEntity
  8
LIB-PLAN
  6
Continuous
100
AcDbLine
 10
21.143199956634135
 20
-876.3036171681299
 30
0.0
 11
-49.40628136418036
 21
-889.8370878300259
 31
0.0
  0
LINE
  5
111
330
8C
100
AcDbEntity
  8
LIB-PLAN
  6
Continuous
100
AcDbLine
 10
123.8859372458968
 20
-857.2337266900017
 30
0.0
 11
21.143199956634135
 21
-876.3036171681299
 31
0.0
  0
LINE
  5
112
330
8C
100
AcDbEntity
  8
LIB-PLAN
  6
Continuous
100
AcDbLine
 10
-333.6319488846534
 20
-973.9997824849868
 30
0.0
 11
-378.7776931886059
 21
-993.9354505475449
 31
0.0
  0
LINE
  5
113
330
8C
100
AcDbEntity
  8
LIB-PLAN
  6
Continuous
100
AcDbLine
 10
-289.1198740298312
 20
-954.064114422428
 30
0.0
 11
-333.6319488846534
 21
-973.9997824849868
 31
0.0
  0
LINE
  5
114
330
8C
100
AcDbEntity
  8
LIB-PLAN
  6
Continuous
100
AcDbLine
 10
-244.92392191143017
 20
-934.1284463598697
 30
0.0
 11
-289.1198740298312
 21
-954.064114422428
 31
0.0
  0
LINE
  5
115
330
8C
100
AcDbEntity
  8
LIB-PLAN
  6
Continuous
100
AcDbLine
 10
-417.27774014627647
 20
-1032.4354975052147
 30
0.0
 11
-437.1607210860981
 21
-1052.318478445036
 31
0.0
  0
LINE
  5
116
330
8C
100
AcDbEntity
  8
LIB-PLAN
  6
Continuous
100
AcDbLine
 10
-397.710881942876
 20
-1012.8686393018138
 30
0.0
 11
-417.27774014627647
 21
-1032.4354975052147
 31
0.0
  0
LINE
  5
117
330
8C
100
AcDbEntity
  8
LIB-PLAN
  6
Continuous
100
AcDbLine
 10
-378.7776931886059
 20
-993.9354505475449
 30
0.0
 11
-397.710881942876
 21
-1012.8686393018138
 31
0.0
  0
LINE
  5
118
330
8C
100
AcDbEntity
  8
LIB-PLAN
  6
Continuous
100
AcDbLine
 10
-438.6373844990178
 20
-1065.1869521794179
 30
0.0
 11
-440.00867366646355
 21
-1072.254146507595
 31
0.0
  0
LINE
  5
119
330
8C
100
AcDbEntity
  8
LIB-PLAN
  6
Continuous
100
AcDbLine
 10
-437.5822180679917
 20
-1058.4358805876607
 30
0.0
 11
-438.6373844990178
 21
-1065.1869521794179
 31
0.0
  0
LINE
  5
11A
330
8C
100
AcDbEntity
  8
LIB-PLAN
  6
Continuous
100
AcDbLine
 10
-437.1607210860981
 20
-1052.318478445036
 30
0.0
 11
-437.5822180679917
 21
-1058.4358805876607
 31
0.0
  0
LINE
  5
11B
330
8C
100
AcDbEntity
  8
LIB-PLAN
  6
Continuous
100
AcDbLine
 10
-431.46481592536657
 20
-1092.6113115520468
 30
0.0
 11
-427.1928870548186
 21
-1103.5816248916144
 31
0.0
  0
LINE
  5
11C
330
8C
100
AcDbEntity
  8
LIB-PLAN
  6
Continuous
100
AcDbLine
 10
-435.7367447959152
 20
-1082.2746676616107
 30
0.0
 11
-431.46481592536657
 21
-1092.6113115520468
 31
0.0
  0
LINE
  5
11D
330
8C
100
AcDbEntity
  8
LIB-PLAN
  6
Continuous
100
AcDbLine
 10
-440.00867366646355
 20
-1072.254146507595
 30
0.0
 11
-435.7367447959152
 21
-1082.2746676616107
 31
0.0
  0
LINE
  5
11E
330
8C
100
AcDbEntity
  8
LIB-PLAN
  6
Continuous
100
AcDbLine
 10
891.8306546362822
 20
-2062.92014749288
 30
0.0
 11
951.2161618420633
 21
-2059.0697156042256
 31
0.0
  0
LINE
  5
11F
330
8C
100
AcDbEntity
  8
LIB-PLAN
  6
Continuous
100
AcDbLine
 10
833.0788168796333
 20
-2066.1369099324024
 30
0.0
 11
891.8306546362822
 21
-2062.92014749288
 31
0.0
  0
LINE
  5
120
330
8C
100
AcDbEntity
  8
LIB-PLAN
  6
Continuous
100
AcDbLine
 10
774.6431018594054
 20
-2069.037549635505
 30
0.0
 11
833.0788168796333
 21
-2066.1369099324024
 31
0.0
  0
LINE
  5
121
330
8C
100
AcDbEntity
  8
LIB-PLAN
  6
Continuous
100
AcDbLine
 10
-600.9179944571123
 20
-1838.3007035031662
 30
0.0
 11
-612.3098047785732
 21
-1835.5054380455376
 31
0.0
  0
LINE
  5
122
330
8C
100
AcDbEntity
  8
LIB-PLAN
  6
Continuous
100
AcDbLine
 10
-589.5261841356493
 20
-1840.7798462243745
 30
0.0
 11
-600.9179944571123
 21
-1838.3007035031662
 31
0.0
  0
LINE
  5
123
330
8C
100
AcDbEntity
  8
LIB-PLAN
  6
Continuous
100
AcDbLine
 10
-578.1343738141883
 20
-1842.625319496451
 30
0.0
 11
-589.5261841356493
 21
-1840.7798462243745
 31
0.0
  0
LINE
  5
124
330
8C
100
AcDbEntity
  8
LIB-PLAN
  6
Continuous
100
AcDbLine
 10
-43.519563380564136
 20
-1810.4064319547767
 30
0.0
 11
52.687122736760784
 21
-1802.7539833713345
 31
0.0
  0
LINE
  5
125
330
8C
100
AcDbEntity
  8
LIB-PLAN
  6
Continuous
100
AcDbLine
 10
-121.01092911601836
 20
-1816.5138662633703
 30
0.0
 11
-43.519563380564136
 21
-1810.4064319547767
 31
0.0
  0
LINE
  5
126
330
8C
100
AcDbEntity
  8
LIB-PLAN
  6
Continuous
100
AcDbLine
 10
-184.9061692328072
 20
-1821.42373651192
 30
0.0
 11
-121.01092911601836
 21
-1816.5138662633703
 31
0.0
  0
LINE
  5
127
330
8C
100
AcDbEntity
  8
LIB-PLAN
  6
Continuous
100
AcDbLine
 10
-240.32732644672058
 20
-1825.490612796682
 30
0.0
 11
-184.9061692328072
 21
-1821.42373651192
 31
0.0
  0
LINE
  5
128
330
8C
100
AcDbEntity
  8
LIB-PLAN
  6
Continuous
100
AcDbLine
 10
-292.3978674498321
 20
-1829.0647932850407
 30
0.0
 11
-240.32732644672058
 21
-1825.490612796682
 31
0.0
  0
LINE
  5
129
330
8C
100
AcDbEntity
  8
LIB-PLAN
  6
Continuous
100
AcDbLine
 10
-346.23698700535
 20
-1832.4994240969613
 30
0.0
 11
-292.3978674498321
 21
-1829.0647932850407
 31
0.0
  0
LINE
  5
12A
330
8C
100
AcDbEntity
  8
LIB-PLAN
  6
Continuous
100
AcDbLine
 10
-406.9681518053542
 20
-1836.1448033998292
 30
0.0
 11
-346.23698700535
 21
-1832.4994240969613
 31
0.0
  0
LINE
  5
12B
330
8C
100
AcDbEntity
  8
LIB-PLAN
  6
Continuous
100
AcDbLine
 10
-479.7119805893379
 20
-1840.3512293610293
 30
0.0
 11
-406.9681518053542
 21
-1836.1448033998292
 31
0.0
  0
LINE
  5
12C
330
8C
100
AcDbEntity
  8
LIB-PLAN
  6
Continuous
100
AcDbLine
 10
-569.5905160730924
 20
-1845.4732720768163
 30
0.0
 11
-479.7119805893379
 21
-1840.3512293610293
 31
0.0
  0
LINE
  5
12D
330
8C
100
AcDbEntity
  8
LIB-PLAN
  6
Continuous
100
AcDbLine
 10
-489.8478438228579
 20
-1718.7393822505537
 30
0.0
 11
-454.24843656829046
 21
-1713.0434770898225
 31
0.0
  0
LINE
  5
12E
330
8C
100
AcDbEntity
  8
LIB-PLAN
  6
Continuous
100
AcDbLine
 10
-525.4472510774272
 20
-1724.4352874112847
 30
0.0
 11
-489.8478438228579
 21
-1718.7393822505537
 31
0.0
  0
LINE
  5
12F
330
8C
100
AcDbEntity
  8
LIB-PLAN
  6
Continuous
100
AcDbLine
 10
-561.0466583319953
 20
-1730.1311925720156
 30
0.0
 11
-525.4472510774272
 21
-1724.4352874112847
 31
0.0
  0
LINE
  5
130
330
8C
100
AcDbEntity
  8
LIB-PLAN
  6
Continuous
100
AcDbLine
 10
110.92775300523476
 20
-1559.2540377500882
 30
0.0
 11
173.72510740229245
 21
-1542.1663222678949
 31
0.0
  0
LINE
  5
131
330
8C
100
AcDbEntity
  8
LIB-PLAN
  6
Continuous
100
AcDbLine
 10
48.13039860817548
 20
-1576.3417532322806
 30
0.0
 11
110.92775300523476
 21
-1559.2540377500882
 31
0.0
  0
LINE
  5
132
330
8C
100
AcDbEntity
  8
LIB-PLAN
  6
Continuous
100
AcDbLine
 10
-14.666955788881978
 20
-1593.4294687144734
 30
0.0
 11
48.13039860817548
 21
-1576.3417532322806
 31
0.0
  0
LINE
  5
133
330
8C
100
AcDbEntity
  8
LIB-PLAN
  6
Continuous
100
AcDbLine
 10
-77.46431018594103
 20
-1610.517184196666
 30
0.0
 11
-14.666955788881978
 21
-1593.4294687144734
 31
0.0
  0
LINE
  5
134
330
8C
100
AcDbEntity
  8
LIB-PLAN
  6
Continuous
100
AcDbLine
 10
-140.26166458299804
 20
-1627.604899678859
 30
0.0
 11
-77.46431018594103
 21
-1610.517184196666
 31
0.0
  0
LINE
  5
135
330
8C
100
AcDbEntity
  8
LIB-PLAN
  6
Continuous
100
AcDbLine
 10
-203.0590189800571
 20
-1644.6926151610514
 30
0.0
 11
-140.26166458299804
 21
-1627.604899678859
 31
0.0
  0
LINE
  5
136
330
8C
100
AcDbEntity
  8
LIB-PLAN
  6
Continuous
100
AcDbLine
 10
-265.85637337711546
 20
-1661.7803306432445
 30
0.0
 11
-203.0590189800571
 21
-1644.6926151610514
 31
0.0
  0
LINE
  5
137
330
8C
100
AcDbEntity
  8
LIB-PLAN
  6
Continuous
100
AcDbLine
 10
-328.65372777417446
 20
-1678.8680461254373
 30
0.0
 11
-265.85637337711546
 21
-1661.7803306432445
 31
0.0
  0
LINE
  5
138
330
8C
100
AcDbEntity
  8
LIB-PLAN
  6
Continuous
100
AcDbLine
 10
-391.4510821712331
 20
-1695.95576160763
 30
0.0
 11
-328.65372777417446
 21
-1678.8680461254373
 31
0.0
  0
LINE
  5
139
330
8C
100
AcDbEntity
  8
LIB-PLAN
  6
Continuous
100
AcDbLine
 10
-454.24843656829046
 20
-1713.0434770898225
 30
0.0
 11
-391.4510821712331
 21
-1695.95576160763
 31
0.0
  0
LINE
  5
13A
330
8C
100
AcDbEntity
  8
LIB-PLAN
  6
Continuous
100
AcDbLine
 10
203.68129661886735
 20
-1527.926559366068
 30
0.0
 11
219.29234868814035
 21
-1520.806677915154
 31
0.0
  0
LINE
  5
13B
330
8C
100
AcDbEntity
  8
LIB-PLAN
  6
Continuous
100
AcDbLine
 10
188.38636728601432
 20
-1535.0464408169814
 30
0.0
 11
203.68129661886735
 21
-1527.926559366068
 31
0.0
  0
LINE
  5
13C
330
8C
100
AcDbEntity
  8
LIB-PLAN
  6
Continuous
100
AcDbLine
 10
173.72510740229245
 20
-1542.1663222678949
 30
0.0
 11
188.38636728601432
 21
-1535.0464408169814
 31
0.0
  0
LINE
  5
13D
330
8C
100
AcDbEntity
  8
LIB-PLAN
  6
Continuous
100
AcDbLine
 10
216.44439610777533
 20
-1515.1107727544231
 30
0.0
 11
215.02041981759123
 21
-1512.2628201740577
 31
0.0
  0
LINE
  5
13E
330
8C
100
AcDbEntity
  8
LIB-PLAN
  6
Continuous
100
AcDbLine
 10
217.8683723979583
 20
-1517.9587253347888
 30
0.0
 11
216.44439610777533
 21
-1515.1107727544231
 31
0.0
  0
LINE
  5
13F
330
8C
100
AcDbEntity
  8
LIB-PLAN
  6
Continuous
100
AcDbLine
 10
219.29234868814035
 20
-1520.806677915154
 30
0.0
 11
217.8683723979583
 21
-1517.9587253347888
 31
0.0
  0
LINE
  5
140
330
8C
100
AcDbEntity
  8
LIB-PLAN
  6
Continuous
100
AcDbLine
 10
-568.1665397829089
 20
-1587.3120665718484
 30
0.0
 11
-561.0466583319953
 21
-1559.2540377500882
 31
0.0
  0
LINE
  5
141
330
8C
100
AcDbEntity
  8
LIB-PLAN
  6
Continuous
100
AcDbLine
 10
-575.2864212338225
 20
-1614.7364259444776
 30
0.0
 11
-568.1665397829089
 21
-1587.3120665718484
 31
0.0
  0
LINE
  5
142
330
8C
100
AcDbEntity
  8
LIB-PLAN
  6
Continuous
100
AcDbLine
 10
-582.4063026847358
 20
-1641.8446625806866
 30
0.0
 11
-575.2864212338225
 21
-1614.7364259444776
 31
0.0
  0
LINE
  5
143
330
8C
100
AcDbEntity
  8
LIB-PLAN
  6
Continuous
100
AcDbLine
 10
239.2807038734353
 20
-1516.5347490446063
 30
0.0
 11
247.7718744917944
 21
-1516.5347490446063
 31
0.0
  0
LINE
  5
144
330
8C
100
AcDbEntity
  8
LIB-PLAN
  6
Continuous
100
AcDbLine
 10
231.1056559914963
 20
-1516.5347490446063
 30
0.0
 11
239.2807038734353
 21
-1516.5347490446063
 31
0.0
  0
LINE
  5
145
330
8C
100
AcDbEntity
  8
LIB-PLAN
  6
Continuous
100
AcDbLine
 10
223.56427755868833
 20
-1516.5347490446063
 30
0.0
 11
231.1056559914963
 21
-1516.5347490446063
 31
0.0
  0
LINE
  5
146
330
8C
100
AcDbEntity
  8
LIB-PLAN
  6
Continuous
100
AcDbLine
 10
-482.7279623719453
 20
-993.882763424808
 30
0.0
 11
-498.3917015639549
 21
-962.6079721635249
 31
0.0
  0
LINE
  5
147
330
8C
100
AcDbEntity
  8
LIB-PLAN
  6
Continuous
100
AcDbLine
 10
-467.06422317993383
 20
-1024.8414319496708
 30
0.0
 11
-482.7279623719453
 21
-993.882763424808
 31
0.0
  0
LINE
  5
148
330
8C
100
AcDbEntity
  8
LIB-PLAN
  6
Continuous
100
AcDbLine
 10
-451.40048398792567
 20
-1055.1664310254018
 30
0.0
 11
-467.06422317993383
 21
-1024.8414319496708
 31
0.0
  0
LINE
  5
149
330
8C
100
AcDbEntity
  8
LIB-PLAN
  6
Continuous
100
AcDbLine
 10
-518.7488666084063
 20
-939.4028545387068
 30
0.0
 11
-529.7191799479747
 21
-927.0085649089558
 31
0.0
  0
LINE
  5
14A
330
8C
100
AcDbEntity
  8
LIB-PLAN
  6
Continuous
100
AcDbLine
 10
-508.412222717971
 20
-951.1634747193257
 30
0.0
 11
-518.7488666084063
 21
-939.4028545387068
 31
0.0
  0
LINE
  5
14B
330
8C
100
AcDbEntity
  8
LIB-PLAN
  6
Continuous
100
AcDbLine
 10
-498.3917015639549
 20
-962.6079721635249
 30
0.0
 11
-508.412222717971
 21
-951.1634747193257
 31
0.0
  0
LINE
  5
14C
330
8C
100
AcDbEntity
  8
LIB-PLAN
  6
Continuous
100
AcDbLine
 10
-637.9413780018629
 20
-863.9321111590218
 30
0.0
 11
-692.0524770288067
 21
-831.6021534667138
 31
0.0
  0
LINE
  5
14D
330
8C
100
AcDbEntity
  8
LIB-PLAN
  6
Continuous
100
AcDbLine
 10
-583.8302789749193
 20
-895.6283994021999
 30
0.0
 11
-637.9413780018629
 21
-863.9321111590218
 31
0.0
  0
LINE
  5
14E
330
8C
100
AcDbEntity
  8
LIB-PLAN
  6
Continuous
100
AcDbLine
 10
-529.7191799479747
 20
-927.0085649089558
 30
0.0
 11
-583.8302789749193
 21
-895.6283994021999
 31
0.0
  0
LINE
  5
14F
330
8C
100
AcDbEntity
  8
LIB-PLAN
  6
Continuous
100
AcDbLine
 10
-729.4973575554512
 20
-820.2103431452517
 30
0.0
 11
-749.0115286361153
 21
-814.5144379845208
 31
0.0
  0
LINE
  5
150
330
8C
100
AcDbEntity
  8
LIB-PLAN
  6
Continuous
100
AcDbLine
 10
-710.6168559239178
 20
-825.9062483059829
 30
0.0
 11
-729.4973575554512
 21
-820.2103431452517
 31
0.0
  0
LINE
  5
151
330
8C
100
AcDbEntity
  8
LIB-PLAN
  6
Continuous
100
AcDbLine
 10
-692.0524770288067
 20
-831.6021534667138
 30
0.0
 11
-710.6168559239178
 21
-825.9062483059829
 31
0.0
  0
LINE
  5
152
330
8C
100
AcDbEntity
  8
LIB-PLAN
  6
Continuous
100
AcDbLine
 10
-770.4238601115935
 20
-799.8531781007998
 30
0.0
 11
-781.7629833103177
 21
-791.7308173415968
 31
0.0
  0
LINE
  5
153
330
8C
100
AcDbEntity
  8
LIB-PLAN
  6
Continuous
100
AcDbLine
 10
-759.4008596492883
 20
-807.3418694108709
 30
0.0
 11
-770.4238601115935
 21
-799.8531781007998
 31
0.0
  0
LINE
  5
154
330
8C
100
AcDbEntity
  8
LIB-PLAN
  6
Continuous
100
AcDbLine
 10
-749.0115286361153
 20
-814.5144379845208
 30
0.0
 11
-759.4008596492883
 21
-807.3418694108709
 31
0.0
  0
LINE
  5
155
330
8C
100
AcDbEntity
  8
LIB-PLAN
  6
Continuous
100
AcDbLine
 10
-804.9681009351362
 20
-790.2541539286769
 30
0.0
 11
-817.362390564886
 21
-788.8828647612318
 31
0.0
  0
LINE
  5
156
330
8C
100
AcDbEntity
  8
LIB-PLAN
  6
Continuous
100
AcDbLine
 10
-793.2074807545174
 20
-791.3093203597027
 30
0.0
 11
-804.9681009351362
 21
-790.2541539286769
 31
0.0
  0
LINE
  5
157
330
8C
100
AcDbEntity
  8
LIB-PLAN
  6
Continuous
100
AcDbLine
 10
-781.7629833103177
 20
-791.7308173415968
 30
0.0
 11
-793.2074807545174
 21
-791.3093203597027
 31
0.0
  0
LINE
  5
158
330
8C
100
AcDbEntity
  8
LIB-PLAN
  6
Continuous
100
AcDbLine
 10
-686.3565718680757
 20
-784.1666552881459
 30
0.0
 11
-763.2512915379423
 21
-781.7629833103178
 31
0.0
  0
LINE
  5
159
330
8C
100
AcDbEntity
  8
LIB-PLAN
  6
Continuous
100
AcDbLine
 10
-609.4618521982081
 20
-786.29692381826
 30
0.0
 11
-686.3565718680757
 21
-784.1666552881459
 31
0.0
  0
LINE
  5
15A
330
8C
100
AcDbEntity
  8
LIB-PLAN
  6
Continuous
100
AcDbLine
 10
-532.5671325283416
 20
-788.2221397625867
 30
0.0
 11
-609.4618521982081
 21
-786.29692381826
 31
0.0
  0
LINE
  5
15B
330
8C
100
AcDbEntity
  8
LIB-PLAN
  6
Continuous
100
AcDbLine
 10
-455.6724128584741
 20
-790.010653983057
 30
0.0
 11
-532.5671325283416
 21
-788.2221397625867
 31
0.0
  0
LINE
  5
15C
330
8C
100
AcDbEntity
  8
LIB-PLAN
  6
Continuous
100
AcDbLine
 10
-378.7776931886059
 20
-791.7308173415968
 30
0.0
 11
-455.6724128584741
 21
-790.010653983057
 31
0.0
  0
LINE
  5
15D
330
8C
100
AcDbEntity
  8
LIB-PLAN
  6
Continuous
100
AcDbLine
 10
-770.4238601115935
 20
-786.0875993036029
 30
0.0
 11
-774.6431018594052
 21
-788.8828647612318
 31
0.0
  0
LINE
  5
15E
330
8C
100
AcDbEntity
  8
LIB-PLAN
  6
Continuous
100
AcDbLine
 10
-766.5207411002019
 20
-783.6084565823949
 30
0.0
 11
-770.4238601115935
 21
-786.0875993036029
 31
0.0
  0
LINE
  5
15F
330
8C
100
AcDbEntity
  8
LIB-PLAN
  6
Continuous
100
AcDbLine
 10
-763.2512915379423
 20
-781.7629833103178
 30
0.0
 11
-766.5207411002019
 21
-783.6084565823949
 31
0.0
  0
LINE
  5
160
330
8C
100
AcDbEntity
  8
LIB-PLAN
  6
Continuous
100
AcDbLine
 10
-64.70548262590319
 20
-781.8655096032119
 30
0.0
 11
-7.119881450913567
 21
-781.7629833103178
 31
0.0
  0
LINE
  5
161
330
8C
100
AcDbEntity
  8
LIB-PLAN
  6
Continuous
100
AcDbLine
 10
-112.38020882122123
 20
-782.5831936534628
 30
0.0
 11
-64.70548262590319
 21
-781.8655096032119
 31
0.0
  0
LINE
  5
162
330
8C
100
AcDbEntity
  8
LIB-PLAN
  6
Continuous
100
AcDbLine
 10
-167.5735298287035
 20
-784.531193218434
 30
0.0
 11
-112.38020882122123
 21
-782.5831936534628
 31
0.0
  0
LINE
  5
163
330
8C
100
AcDbEntity
  8
LIB-PLAN
  6
Continuous
100
AcDbLine
 10
-247.7149154401875
 20
-788.3246660554798
 30
0.0
 11
-167.5735298287035
 21
-784.531193218434
 31
0.0
  0
LINE
  5
164
330
8C
100
AcDbEntity
  8
LIB-PLAN
  6
Continuous
100
AcDbLine
 10
-370.23383544750914
 20
-794.5787699219627
 30
0.0
 11
-247.7149154401875
 21
-788.3246660554798
 31
0.0
  0
LINE
  5
165
330
8C
100
AcDbEntity
  8
LIB-PLAN
  6
Continuous
100
AcDbLine
 10
75.47074337968445
 20
-763.1986044152059
 30
0.0
 11
116.76605579498334
 21
-753.2834575066629
 31
0.0
  0
LINE
  5
166
330
8C
100
AcDbEntity
  8
LIB-PLAN
  6
Continuous
100
AcDbLine
 10
34.175430964385214
 20
-772.7976285873278
 30
0.0
 11
75.47074337968445
 21
-763.1986044152059
 31
0.0
  0
LINE
  5
167
330
8C
100
AcDbEntity
  8
LIB-PLAN
  6
Continuous
100
AcDbLine
 10
-7.119881450913567
 20
-781.7629833103178
 30
0.0
 11
34.175430964385214
 21
-772.7976285873278
 31
0.0
  0
LINE
  5
168
330
8C
100
AcDbEntity
  8
LIB-PLAN
  6
Continuous
100
AcDbLine
 10
179.84250954491733
 20
-747.1660553640388
 30
0.0
 11
212.17246723722644
 21
-743.3156234753849
 31
0.0
  0
LINE
  5
169
330
8C
100
AcDbEntity
  8
LIB-PLAN
  6
Continuous
100
AcDbLine
 10
148.14622130174052
 20
-750.382817803561
 30
0.0
 11
179.84250954491733
 21
-747.1660553640388
 31
0.0
  0
LINE
  5
16A
330
8C
100
AcDbEntity
  8
LIB-PLAN
  6
Continuous
100
AcDbLine
 10
116.76605579498334
 20
-753.2834575066629
 30
0.0
 11
148.14622130174052
 21
-750.382817803561
 31
0.0
  0
LINE
  5
16B
330
8C
100
AcDbEntity
  8
LIB-PLAN
  6
Continuous
100
AcDbLine
 10
295.1845890497192
 20
-757.9768833591058
 30
0.0
 11
337.4823807733072
 21
-766.0992441183078
 31
0.0
  0
LINE
  5
16C
330
8C
100
AcDbEntity
  8
LIB-PLAN
  6
Continuous
100
AcDbLine
 10
253.5204667752622
 20
-750.488192049035
 30
0.0
 11
295.1845890497192
 21
-757.9768833591058
 31
0.0
  0
LINE
  5
16D
330
8C
100
AcDbEntity
  8
LIB-PLAN
  6
Continuous
100
AcDbLine
 10
212.17246723722644
 20
-743.3156234753849
 30
0.0
 11
253.5204667752622
 21
-750.488192049035
 31
0.0
  0
LINE
  5
16E
330
8C
100
AcDbEntity
  8
LIB-PLAN
  6
Continuous
100
AcDbLine
 10
744.7395997655673
 20
-757.1338893953177
 30
0.0
 11
746.1635760557493
 21
-746.1635760557499
 31
0.0
  0
LINE
  5
16F
330
8C
100
AcDbEntity
  8
LIB-PLAN
  6
Continuous
100
AcDbLine
 10
743.3156234753843
 20
-767.4705332857538
 30
0.0
 11
744.7395997655673
 21
-757.1338893953177
 31
0.0
  0
LINE
  5
170
330
8C
100
AcDbEntity
  8
LIB-PLAN
  6
Continuous
100
AcDbLine
 10
741.8916471852023
 20
-777.4910544397699
 30
0.0
 11
743.3156234753843
 21
-767.4705332857538
 31
0.0
  0
LINE
  5
171
330
8C
100
AcDbEntity
  8
LIB-PLAN
  6
Continuous
100
AcDbLine
 10
703.0227903683741
 20
-752.2809781983747
 30
0.0
 11
680.6606667073444
 21
-756.1314100870288
 31
0.0
  0
LINE
  5
172
330
8C
100
AcDbEntity
  8
LIB-PLAN
  6
Continuous
100
AcDbLine
 10
724.7512445802723
 20
-749.0642157588518
 30
0.0
 11
703.0227903683741
 21
-752.2809781983747
 31
0.0
  0
LINE
  5
173
330
8C
100
AcDbEntity
  8
LIB-PLAN
  6
Continuous
100
AcDbLine
 10
746.1635760557493
 20
-746.1635760557499
 30
0.0
 11
724.7512445802723
 21
-749.0642157588518
 31
0.0
  0
LINE
  5
174
330
8C
100
AcDbEntity
  8
LIB-PLAN
  6
Continuous
100
AcDbLine
 10
747.5348652231961
 20
-673.5407852564308
 30
0.0
 11
746.1635760557493
 21
-640.7893305822279
 31
0.0
  0
LINE
  5
175
330
8C
100
AcDbEntity
  8
LIB-PLAN
  6
Continuous
100
AcDbLine
 10
748.5900316542223
 20
-706.2922399306328
 30
0.0
 11
747.5348652231961
 21
-673.5407852564308
 31
0.0
  0
LINE
  5
176
330
8C
100
AcDbEntity
  8
LIB-PLAN
  6
Continuous
100
AcDbLine
 10
749.0115286361153
 20
-739.043694604836
 30
0.0
 11
748.5900316542223
 21
-706.2922399306328
 31
0.0
  0
LINE
  5
177
330
8C
100
AcDbEntity
  8
LIB-PLAN
  6
Continuous
100
AcDbLine
 10
716.2073868391764
 20
-640.367833600334
 30
0.0
 11
700.5963347699022
 21
-639.3653542920449
 31
0.0
  0
LINE
  5
178
330
8C
100
AcDbEntity
  8
LIB-PLAN
  6
Continuous
100
AcDbLine
 10
731.5023161720284
 20
-640.736643459491
 30
0.0
 11
716.2073868391764
 21
-640.367833600334
 31
0.0
  0
LINE
  5
179
330
8C
100
AcDbEntity
  8
LIB-PLAN
  6
Continuous
100
AcDbLine
 10
746.1635760557493
 20
-640.7893305822279
 30
0.0
 11
731.5023161720284
 21
-640.736643459491
 31
0.0
  0
LINE
  5
17A
330
8C
100
AcDbEntity
  8
LIB-PLAN
  6
Continuous
100
AcDbLine
 10
653.5524300711362
 20
-655.0817806067919
 30
0.0
 11
629.3975202607663
 21
-663.572951225151
 31
0.0
  0
LINE
  5
17B
330
8C
100
AcDbEntity
  8
LIB-PLAN
  6
Continuous
100
AcDbLine
 10
677.3912171450844
 20
-646.9067327248529
 30
0.0
 11
653.5524300711362
 21
-655.0817806067919
 31
0.0
  0
LINE
  5
17C
330
8C
100
AcDbEntity
  8
LIB-PLAN
  6
Continuous
100
AcDbLine
 10
700.5963347699022
 20
-639.3653542920449
 30
0.0
 11
677.3912171450844
 21
-646.9067327248529
 31
0.0
  0
LINE
  5
17D
330
8C
100
AcDbEntity
  8
LIB-PLAN
  6
Continuous
100
AcDbLine
 10
183.6089268324513
 20
-650.2174775995279
 30
0.0
 11
45.56724128584733
 21
-643.6372831625929
 31
0.0
  0
LINE
  5
17E
330
8C
100
AcDbEntity
  8
LIB-PLAN
  6
Continuous
100
AcDbLine
 10
289.37903771464323
 20
-655.1629472553327
 30
0.0
 11
183.6089268324513
 21
-650.2174775995279
 31
0.0
  0
LINE
  5
17F
330
8C
100
AcDbEntity
  8
LIB-PLAN
  6
Continuous
100
AcDbLine
 10
369.7169320541724
 20
-658.7058002653071
 30
0.0
 11
289.37903771464323
 21
-655.1629472553327
 31
0.0
  0
LINE
  5
180
330
8C
100
AcDbEntity
  8
LIB-PLAN
  6
Continuous
100
AcDbLine
 10
431.4648159253662
 20
-661.080992717332
 30
0.0
 11
369.7169320541724
 21
-658.7058002653071
 31
0.0
  0
LINE
  5
181
330
8C
100
AcDbEntity
  8
LIB-PLAN
  6
Continuous
100
AcDbLine
 10
481.4648954025523
 20
-662.5220567229958
 30
0.0
 11
431.4648159253662
 21
-661.080992717332
 31
0.0
  0
LINE
  5
182
330
8C
100
AcDbEntity
  8
LIB-PLAN
  6
Continuous
100
AcDbLine
 10
526.5593765600582
 20
-663.2611004176019
 30
0.0
 11
481.4648954025523
 21
-662.5220567229958
 31
0.0
  0
LINE
  5
183
330
8C
100
AcDbEntity
  8
LIB-PLAN
  6
Continuous
100
AcDbLine
 10
573.5904654722143
 20
-663.5345038653168
 30
0.0
 11
526.5593765600582
 21
-663.2611004176019
 31
0.0
  0
LINE
  5
184
330
8C
100
AcDbEntity
  8
LIB-PLAN
  6
Continuous
100
AcDbLine
 10
629.3975202607663
 20
-663.572951225151
 30
0.0
 11
573.5904654722143
 21
-663.5345038653168
 31
0.0
  0
LINE
  5
185
330
8C
100
AcDbEntity
  8
LIB-PLAN
  6
Continuous
100
AcDbLine
 10
-88.28652999132862
 20
-649.7546853052179
 30
0.0
 11
-155.2134156299178
 21
-653.6051171938718
 31
0.0
  0
LINE
  5
186
330
8C
100
AcDbEntity
  8
LIB-PLAN
  6
Continuous
100
AcDbLine
 10
-21.35964435274184
 20
-646.5379228656959
 30
0.0
 11
-88.28652999132862
 21
-649.7546853052179
 31
0.0
  0
LINE
  5
187
330
8C
100
AcDbEntity
  8
LIB-PLAN
  6
Continuous
100
AcDbLine
 10
45.56724128584733
 20
-643.6372831625929
 30
0.0
 11
-21.35964435274184
 21
-646.5379228656959
 31
0.0
  0
LINE
  5
188
330
8C
100
AcDbEntity
  8
LIB-PLAN
  6
Continuous
100
AcDbLine
 10
-153.73675221699762
 20
-676.8102348186899
 30
0.0
 11
-152.3654630495522
 21
-689.20452444844
 31
0.0
  0
LINE
  5
189
330
8C
100
AcDbEntity
  8
LIB-PLAN
  6
Continuous
100
AcDbLine
 10
-154.7919186480226
 20
-665.0496146380708
 30
0.0
 11
-153.73675221699762
 21
-676.8102348186899
 31
0.0
  0
LINE
  5
18A
330
8C
100
AcDbEntity
  8
LIB-PLAN
  6
Continuous
100
AcDbLine
 10
-155.2134156299178
 20
-653.6051171938718
 30
0.0
 11
-154.7919186480226
 21
-665.0496146380708
 31
0.0
  0
LINE
  5
18B
330
8C
100
AcDbEntity
  8
LIB-PLAN
  6
Continuous
100
AcDbLine
 10
-129.58184240662877
 20
-720.9534998143549
 30
0.0
 11
-118.19003208516688
 21
-737.6197183146539
 31
0.0
  0
LINE
  5
18C
330
8C
100
AcDbEntity
  8
LIB-PLAN
  6
Continuous
100
AcDbLine
 10
-140.9736527280902
 20
-704.9209507631867
 30
0.0
 11
-129.58184240662877
 21
-720.9534998143549
 31
0.0
  0
LINE
  5
18D
330
8C
100
AcDbEntity
  8
LIB-PLAN
  6
Continuous
100
AcDbLine
 10
-152.3654630495522
 20
-689.20452444844
 30
0.0
 11
-140.9736527280902
 21
-704.9209507631867
 31
0.0
  0
LINE
  5
18E
330
8C
100
AcDbEntity
  8
LIB-PLAN
  6
Continuous
100
AcDbLine
 10
-675.0174486693505
 20
-724.3824347211148
 30
0.0
 11
-679.2366904171624
 21
-723.3799554128259
 31
0.0
  0
LINE
  5
18F
330
8C
100
AcDbEntity
  8
LIB-PLAN
  6
Continuous
100
AcDbLine
 10
-671.1143296579598
 20
-724.751244580272
 30
0.0
 11
-675.0174486693505
 21
-724.3824347211148
 31
0.0
  0
LINE
  5
190
330
8C
100
AcDbEntity
  8
LIB-PLAN
  6
Continuous
100
AcDbLine
 10
-667.8448800956995
 20
-724.8039317030089
 30
0.0
 11
-671.1143296579598
 21
-724.751244580272
 31
0.0
  0
LINE
  5
191
330
8C
100
AcDbEntity
  8
LIB-PLAN
  6
Continuous
100
AcDbLine
 10
-660.5669372765758
 20
-658.7741511272357
 30
0.0
 11
-663.5729512251519
 21
-652.18114090369
 31
0.0
  0
LINE
  5
192
330
8C
100
AcDbEntity
  8
LIB-PLAN
  6
Continuous
100
AcDbLine
 10
-659.4590837228135
 20
-678.3395853543468
 30
0.0
 11
-660.5669372765758
 21
-658.7741511272357
 31
0.0
  0
LINE
  5
193
330
8C
100
AcDbEntity
  8
LIB-PLAN
  6
Continuous
100
AcDbLine
 10
-659.3010223546032
 20
-727.6518842833748
 30
0.0
 11
-659.4590837228135
 21
-678.3395853543468
 31
0.0
  0
LINE
  5
194
330
8C
100
AcDbEntity
  8
LIB-PLAN
  6
Continuous
100
AcDbLine
 10
-783.5030823369215
 20
-671.0616425352218
 30
0.0
 11
-821.6343194354343
 21
-680.660666707345
 31
0.0
  0
LINE
  5
195
330
8C
100
AcDbEntity
  8
LIB-PLAN
  6
Continuous
100
AcDbLine
 10
-742.5238926580433
 20
-663.6783254706249
 30
0.0
 11
-783.5030823369215
 21
-671.0616425352218
 31
0.0
  0
LINE
  5
196
330
8C
100
AcDbEntity
  8
LIB-PLAN
  6
Continuous
100
AcDbLine
 10
-663.5729512251519
 20
-652.18114090369
 30
0.0
 11
-742.5238926580433
 21
-663.6783254706249
 31
0.0
  0
LINE
  5
197
330
8C
100
AcDbEntity
  8
LIB-PLAN
  6
Continuous
100
AcDbLine
 10
-619.4823733522234
 20
-659.248335231867
 30
0.0
 11
-650.7571646135066
 21
-656.4530697742377
 31
0.0
  0
LINE
  5
198
330
8C
100
AcDbEntity
  8
LIB-PLAN
  6
Continuous
100
AcDbLine
 10
-588.5237048273614
 20
-661.7274779530749
 30
0.0
 11
-619.4823733522234
 21
-659.248335231867
 31
0.0
  0
LINE
  5
199
330
8C
100
AcDbEntity
  8
LIB-PLAN
  6
Continuous
100
AcDbLine
 10
-558.1987057516295
 20
-663.572951225151
 30
0.0
 11
-588.5237048273614
 21
-661.7274779530749
 31
0.0
  0
LINE
  5
19A
330
8C
100
AcDbEntity
  8
LIB-PLAN
  6
Continuous
100
AcDbLine
 10
-388.32403023799077
 20
-655.0290934840559
 30
0.0
 11
-306.15490238928635
 21
-649.3331883233247
 31
0.0
  0
LINE
  5
19B
330
8C
100
AcDbEntity
  8
LIB-PLAN
  6
Continuous
100
AcDbLine
 10
-469.85948863756437
 20
-660.7249986447857
 30
0.0
 11
-388.32403023799077
 21
-655.0290934840559
 31
0.0
  0
LINE
  5
19C
330
8C
100
AcDbEntity
  8
LIB-PLAN
  6
Continuous
100
AcDbLine
 10
-551.0788243007171
 20
-666.4209038055169
 30
0.0
 11
-469.85948863756437
 21
-660.7249986447857
 31
0.0
  0
LINE
  5
19D
330
8C
100
AcDbEntity
  8
LIB-PLAN
  6
Continuous
100
AcDbLine
 10
-209.3245146568613
 20
-650.8098517362439
 30
0.0
 11
-160.9093207906477
 21
-652.18114090369
 31
0.0
  0
LINE
  5
19E
330
8C
100
AcDbEntity
  8
LIB-PLAN
  6
Continuous
100
AcDbLine
 10
-257.739708523074
 20
-649.7546853052179
 30
0.0
 11
-209.3245146568613
 21
-650.8098517362439
 31
0.0
  0
LINE
  5
19F
330
8C
100
AcDbEntity
  8
LIB-PLAN
  6
Continuous
100
AcDbLine
 10
-306.15490238928635
 20
-649.3331883233247
 30
0.0
 11
-257.739708523074
 21
-649.7546853052179
 31
0.0
  0
LINE
  5
1A0
330
8C
100
AcDbEntity
  8
LIB-PLAN
  6
Continuous
100
AcDbLine
 10
552.9242975727933
 20
-545.3302320172479
 30
0.0
 11
553.9267768810813
 21
-486.9998912424919
 31
0.0
  0
LINE
  5
1A1
330
8C
100
AcDbEntity
  8
LIB-PLAN
  6
Continuous
100
AcDbLine
 10
552.5554877136352
 20
-603.3444500555829
 30
0.0
 11
552.9242975727933
 21
-545.3302320172479
 31
0.0
  0
LINE
  5
1A2
330
8C
100
AcDbEntity
  8
LIB-PLAN
  6
Continuous
100
AcDbLine
 10
552.5028005908983
 20
-660.7249986447857
 30
0.0
 11
552.5554877136352
 21
-603.3444500555829
 31
0.0
  0
LINE
  5
1A3
330
8C
100
AcDbEntity
  8
LIB-PLAN
  6
Continuous
100
AcDbLine
 10
544.3277527089593
 20
-409.89442308167895
 30
0.0
 11
543.9589428498015
 21
-377.3537168984228
 31
0.0
  0
LINE
  5
1A4
330
8C
100
AcDbEntity
  8
LIB-PLAN
  6
Continuous
100
AcDbLine
 10
546.9122696756425
 20
-438.3212617625959
 30
0.0
 11
544.3277527089593
 21
-409.89442308167895
 31
0.0
  0
LINE
  5
1A5
330
8C
100
AcDbEntity
  8
LIB-PLAN
  6
Continuous
100
AcDbLine
 10
553.9267768810813
 20
-486.9998912424919
 30
0.0
 11
546.9122696756425
 21
-438.3212617625959
 31
0.0
  0
LINE
  5
1A6
330
8C
100
AcDbEntity
  8
LIB-PLAN
  6
Continuous
100
AcDbLine
 10
555.3507531712631
 20
-317.5467127107479
 30
0.0
 11
561.0466583319954
 21
-287.64321061691203
 31
0.0
  0
LINE
  5
1A7
330
8C
100
AcDbEntity
  8
LIB-PLAN
  6
Continuous
100
AcDbLine
 10
549.6548480105333
 20
-347.4502148045858
 30
0.0
 11
555.3507531712631
 21
-317.5467127107479
 31
0.0
  0
LINE
  5
1A8
330
8C
100
AcDbEntity
  8
LIB-PLAN
  6
Continuous
100
AcDbLine
 10
543.9589428498015
 20
-377.3537168984228
 30
0.0
 11
549.6548480105333
 21
-347.4502148045858
 31
0.0
  0
LINE
  5
1A9
330
8C
100
AcDbEntity
  8
LIB-PLAN
  6
Continuous
100
AcDbLine
 10
529.0869344751342
 20
-282.1580539471279
 30
0.0
 11
501.2396541443203
 21
-281.9473054561797
 31
0.0
  0
LINE
  5
1AA
330
8C
100
AcDbEntity
  8
LIB-PLAN
  6
Continuous
100
AcDbLine
 10
544.5911883226444
 20
-283.6347173600468
 30
0.0
 11
529.0869344751342
 21
-282.1580539471279
 31
0.0
  0
LINE
  5
1AB
330
8C
100
AcDbEntity
  8
LIB-PLAN
  6
Continuous
100
AcDbLine
 10
561.0466583319954
 20
-287.64321061691203
 30
0.0
 11
544.5911883226444
 21
-283.6347173600468
 31
0.0
  0
LINE
  5
1AC
330
8C
100
AcDbEntity
  8
LIB-PLAN
  6
Continuous
100
AcDbLine
 10
443.7537313096444
 20
-296.60856533990204
 30
0.0
 11
412.95312415299134
 21
-309.00285496965193
 31
0.0
  0
LINE
  5
1AD
330
8C
100
AcDbEntity
  8
LIB-PLAN
  6
Continuous
100
AcDbLine
 10
466.64272619804126
 20
-289.59405813446097
 30
0.0
 11
443.7537313096444
 21
-296.60856533990204
 31
0.0
  0
LINE
  5
1AE
330
8C
100
AcDbEntity
  8
LIB-PLAN
  6
Continuous
100
AcDbLine
 10
501.2396541443203
 20
-281.9473054561797
 30
0.0
 11
466.64272619804126
 21
-289.59405813446097
 31
0.0
  0
LINE
  5
1AF
330
8C
100
AcDbEntity
  8
LIB-PLAN
  6
Continuous
100
AcDbLine
 10
404.4092664118954
 20
-315.12025711227693
 30
0.0
 11
400.13733754134626
 21
-318.97068900093086
 31
0.0
  0
LINE
  5
1B0
330
8C
100
AcDbEntity
  8
LIB-PLAN
  6
Continuous
100
AcDbLine
 10
408.68119528244245
 20
-311.9034946727538
 30
0.0
 11
404.4092664118954
 21
-315.12025711227693
 31
0.0
  0
LINE
  5
1B1
330
8C
100
AcDbEntity
  8
LIB-PLAN
  6
Continuous
100
AcDbLine
 10
412.95312415299134
 20
-309.00285496965193
 30
0.0
 11
408.68119528244245
 21
-311.9034946727538
 31
0.0
  0
LINE
  5
1B2
330
8C
100
AcDbEntity
  8
LIB-PLAN
  6
Continuous
100
AcDbLine
 10
92.60402610316362
 20
-316.73789417792386
 30
0.0
 11
38.44735983493388
 21
-313.2747838402008
 31
0.0
  0
LINE
  5
1B3
330
8C
100
AcDbEntity
  8
LIB-PLAN
  6
Continuous
100
AcDbLine
 10
138.49023807801143
 20
-318.76563641514576
 30
0.0
 11
92.60402610316362
 21
-316.73789417792386
 31
0.0
  0
LINE
  5
1B4
330
8C
100
AcDbEntity
  8
LIB-PLAN
  6
Continuous
100
AcDbLine
 10
193.46711468938645
 20
-319.6314139995759
 30
0.0
 11
138.49023807801143
 21
-318.76563641514576
 31
0.0
  0
LINE
  5
1B5
330
8C
100
AcDbEntity
  8
LIB-PLAN
  6
Continuous
100
AcDbLine
 10
274.8957748671952
 20
-319.60863037893296
 30
0.0
 11
193.46711468938645
 21
-319.6314139995759
 31
0.0
  0
LINE
  5
1B6
330
8C
100
AcDbEntity
  8
LIB-PLAN
  6
Continuous
100
AcDbLine
 10
400.13733754134626
 20
-318.97068900093086
 30
0.0
 11
274.8957748671952
 21
-319.60863037893296
 31
0.0
  0
LINE
  5
1B7
330
8C
100
AcDbEntity
  8
LIB-PLAN
  6
Continuous
100
AcDbLine
 10
42.77197582821884
 20
-353.99053790539483
 30
0.0
 11
49.83917015639565
 21
-380.20166947878874
 31
0.0
  0
LINE
  5
1B8
330
8C
100
AcDbEntity
  8
LIB-PLAN
  6
Continuous
100
AcDbLine
 10
39.81864900237895
 20
-336.6379628332279
 30
0.0
 11
42.77197582821884
 21
-353.99053790539483
 31
0.0
  0
LINE
  5
1B9
330
8C
100
AcDbEntity
  8
LIB-PLAN
  6
Continuous
100
AcDbLine
 10
38.44735983493388
 20
-313.2747838402008
 30
0.0
 11
39.81864900237895
 21
-336.6379628332279
 31
0.0
  0
LINE
  5
1BA
330
8C
100
AcDbEntity
  8
LIB-PLAN
  6
Continuous
100
AcDbLine
 10
46.99121757602927
 20
-505.51158301486885
 30
0.0
 11
45.56724128584733
 21
-568.1665397829079
 31
0.0
  0
LINE
  5
1BB
330
8C
100
AcDbEntity
  8
LIB-PLAN
  6
Continuous
100
AcDbLine
 10
48.415193866212576
 20
-442.8566262468278
 30
0.0
 11
46.99121757602927
 21
-505.51158301486885
 31
0.0
  0
LINE
  5
1BC
330
8C
100
AcDbEntity
  8
LIB-PLAN
  6
Continuous
100
AcDbLine
 10
49.83917015639565
 20
-380.20166947878874
 30
0.0
 11
48.415193866212576
 21
-442.8566262468278
 31
0.0
  0
LINE
  5
1BD
330
8C
100
AcDbEntity
  8
LIB-PLAN
  6
Continuous
100
AcDbLine
 10
49.89185727913241
 20
-613.7337810687559
 30
0.0
 11
52.687122736760784
 21
-636.5174017116799
 31
0.0
  0
LINE
  5
1BE
330
8C
100
AcDbEntity
  8
LIB-PLAN
  6
Continuous
100
AcDbLine
 10
47.41271455792423
 20
-590.9501604258328
 30
0.0
 11
49.89185727913241
 21
-613.7337810687559
 31
0.0
  0
LINE
  5
1BF
330
8C
100
AcDbEntity
  8
LIB-PLAN
  6
Continuous
100
AcDbLine
 10
45.56724128584733
 20
-568.1665397829079
 30
0.0
 11
47.41271455792423
 21
-590.9501604258328
 31
0.0
  0
LINE
  5
1C0
330
8C
100
AcDbEntity
  8
LIB-PLAN
  6
Continuous
100
AcDbLine
 10
-669.6903533677755
 20
-574.864924251928
 30
0.0
 11
-673.5407852564302
 21
-539.6870139792547
 31
0.0
  0
LINE
  5
1C1
330
8C
100
AcDbEntity
  8
LIB-PLAN
  6
Continuous
100
AcDbLine
 10
-666.4735909282537
 20
-609.4091650754708
 30
0.0
 11
-669.6903533677755
 21
-574.864924251928
 31
0.0
  0
LINE
  5
1C2
330
8C
100
AcDbEntity
  8
LIB-PLAN
  6
Continuous
100
AcDbLine
 10
-663.5729512251519
 20
-643.6372831625929
 30
0.0
 11
-666.4735909282537
 21
-609.4091650754708
 31
0.0
  0
LINE
  5
1C3
330
8C
100
AcDbEntity
  8
LIB-PLAN
  6
Continuous
100
AcDbLine
 10
-667.4233831138067
 20
-395.81272154806084
 30
0.0
 11
-663.5729512251519
 21
-323.24261787147884
 31
0.0
  0
LINE
  5
1C4
330
8C
100
AcDbEntity
  8
LIB-PLAN
  6
Continuous
100
AcDbLine
 10
-670.6401455533288
 20
-468.0667024882239
 30
0.0
 11
-667.4233831138067
 21
-395.81272154806084
 31
0.0
  0
LINE
  5
1C5
330
8C
100
AcDbEntity
  8
LIB-PLAN
  6
Continuous
100
AcDbLine
 10
-673.5407852564302
 20
-539.6870139792547
 30
0.0
 11
-670.6401455533288
 21
-468.0667024882239
 31
0.0
  0
LINE
  5
1C6
330
8C
100
AcDbEntity
  8
LIB-PLAN
  6
Continuous
100
AcDbLine
 10
-699.2250456024568
 20
-317.12521572885385
 30
0.0
 11
-717.6840502520946
 21
-313.2747838402008
 31
0.0
  0
LINE
  5
1C7
330
8C
100
AcDbEntity
  8
LIB-PLAN
  6
Continuous
100
AcDbLine
 10
-681.0821636892385
 20
-320.34197816837695
 30
0.0
 11
-699.2250456024568
 21
-317.12521572885385
 31
0.0
  0
LINE
  5
1C8
330
8C
100
AcDbEntity
  8
LIB-PLAN
  6
Continuous
100
AcDbLine
 10
-663.5729512251519
 20
-323.24261787147884
 30
0.0
 11
-681.0821636892385
 21
-320.34197816837695
 31
0.0
  0
LINE
  5
1C9
330
8C
100
AcDbEntity
  8
LIB-PLAN
  6
Continuous
100
AcDbLine
 10
-142.45031614101038
 20
-578.1343738141879
 30
0.0
 11
-145.24558159863875
 21
-518.3273696265128
 31
0.0
  0
LINE
  5
1CA
330
8C
100
AcDbEntity
  8
LIB-PLAN
  6
Continuous
100
AcDbLine
 10
-142.81912600016733
 20
-611.3600125930218
 30
0.0
 11
-142.45031614101038
 21
-578.1343738141879
 31
0.0
  0
LINE
  5
1CB
330
8C
100
AcDbEntity
  8
LIB-PLAN
  6
Continuous
100
AcDbLine
 10
-146.6695578888208
 20
-646.4852357429588
 30
0.0
 11
-142.81912600016733
 21
-611.3600125930218
 31
0.0
  0
LINE
  5
1CC
330
8C
100
AcDbEntity
  8
LIB-PLAN
  6
Continuous
100
AcDbLine
 10
-159.06384751857092
 20
-420.3364412175888
 30
0.0
 11
-169.4531785317447
 21
-306.154902389286
 31
0.0
  0
LINE
  5
1CD
330
8C
100
AcDbEntity
  8
LIB-PLAN
  6
Continuous
100
AcDbLine
 10
-152.78696003144591
 20
-475.34464530734795
 30
0.0
 11
-159.06384751857092
 21
-420.3364412175888
 31
0.0
  0
LINE
  5
1CE
330
8C
100
AcDbEntity
  8
LIB-PLAN
  6
Continuous
100
AcDbLine
 10
-145.24558159863875
 20
-518.3273696265128
 30
0.0
 11
-152.78696003144591
 21
-475.34464530734795
 31
0.0
  0
LINE
  5
1CF
330
8C
100
AcDbEntity
  8
LIB-PLAN
  6
Continuous
100
AcDbLine
 10
-228.62793724657774
 20
-296.55587821716495
 30
0.0
 11
-263.4356136838055
 21
-296.18706835800776
 31
0.0
  0
LINE
  5
1D0
330
8C
100
AcDbEntity
  8
LIB-PLAN
  6
Continuous
100
AcDbLine
 10
-204.26085496897224
 20
-299.140395183847
 30
0.0
 11
-228.62793724657774
 21
-296.55587821716495
 31
0.0
  0
LINE
  5
1D1
330
8C
100
AcDbEntity
  8
LIB-PLAN
  6
Continuous
100
AcDbLine
 10
-169.4531785317447
 20
-306.154902389286
 30
0.0
 11
-204.26085496897224
 21
-299.140395183847
 31
0.0
  0
LINE
  5
1D2
330
8C
100
AcDbEntity
  8
LIB-PLAN
  6
Continuous
100
AcDbLine
 10
-314.27726314848815
 20
-308.7394193559678
 30
0.0
 11
-364.53793028677893
 21
-316.12273642056584
 31
0.0
  0
LINE
  5
1D3
330
8C
100
AcDbEntity
  8
LIB-PLAN
  6
Continuous
100
AcDbLine
 10
-288.06470759880597
 20
-303.5703854226058
 30
0.0
 11
-314.27726314848815
 21
-308.7394193559678
 31
0.0
  0
LINE
  5
1D4
330
8C
100
AcDbEntity
  8
LIB-PLAN
  6
Continuous
100
AcDbLine
 10
-263.4356136838055
 20
-296.18706835800776
 30
0.0
 11
-288.06470759880597
 21
-303.5703854226058
 31
0.0
  0
LINE
  5
1D5
330
8C
100
AcDbEntity
  8
LIB-PLAN
  6
Continuous
100
AcDbLine
 10
-615.2631316044125
 20
-322.3455128086639
 30
0.0
 11
-656.4530697742384
 21
-327.51454674202796
 31
0.0
  0
LINE
  5
1D6
330
8C
100
AcDbEntity
  8
LIB-PLAN
  6
Continuous
100
AcDbLine
 10
-539.5816397337805
 20
-319.3921859828247
 30
0.0
 11
-615.2631316044125
 21
-322.3455128086639
 31
0.0
  0
LINE
  5
1D7
330
8C
100
AcDbEntity
  8
LIB-PLAN
  6
Continuous
100
AcDbLine
 10
-364.53793028677893
 20
-316.12273642056584
 30
0.0
 11
-539.5816397337805
 21
-319.3921859828247
 31
0.0
  0
LINE
  5
1D8
330
8C
100
AcDbEntity
  8
LIB-PLAN
  6
Continuous
100
AcDbLine
 10
753.2834575066632
 20
-637.9413780018629
 30
0.0
 11
751.8594812164812
 21
-636.5174017116799
 31
0.0
  0
LINE
  5
1D9
330
8C
100
AcDbEntity
  8
LIB-PLAN
  6
Continuous
100
AcDbLine
 10
754.7074337968464
 20
-639.3653542920449
 30
0.0
 11
753.2834575066632
 21
-637.9413780018629
 31
0.0
  0
LINE
  5
1DA
330
8C
100
AcDbEntity
  8
LIB-PLAN
  6
Continuous
100
AcDbLine
 10
756.1314100870292
 20
-640.7893305822279
 30
0.0
 11
754.7074337968464
 21
-639.3653542920449
 31
0.0
  0
LINE
  5
1DB
330
8C
100
AcDbEntity
  8
LIB-PLAN
  6
Continuous
100
AcDbLine
 10
768.4730125940424
 20
-580.5608294126589
 30
0.0
 11
781.7629833103173
 21
-496.96772527377175
 31
0.0
  0
LINE
  5
1DC
330
8C
100
AcDbEntity
  8
LIB-PLAN
  6
Continuous
100
AcDbLine
 10
761.8273152477612
 20
-614.1552780506497
 30
0.0
 11
768.4730125940424
 21
-580.5608294126589
 31
0.0
  0
LINE
  5
1DD
330
8C
100
AcDbEntity
  8
LIB-PLAN
  6
Continuous
100
AcDbLine
 10
756.1314100870292
 20
-626.549567680401
 30
0.0
 11
761.8273152477612
 21
-614.1552780506497
 31
0.0
  0
LINE
  5
1DE
330
8C
100
AcDbEntity
  8
LIB-PLAN
  6
Continuous
100
AcDbLine
 10
787.2481399801023
 20
-371.23631475579805
 30
0.0
 11
787.4588884710494
 21
-277.67537658563197
 31
0.0
  0
LINE
  5
1DF
330
8C
100
AcDbEntity
  8
LIB-PLAN
  6
Continuous
100
AcDbLine
 10
785.7714765671823
 20
-428.08999211763285
 30
0.0
 11
787.2481399801023
 21
-371.23631475579805
 31
0.0
  0
LINE
  5
1E0
330
8C
100
AcDbEntity
  8
LIB-PLAN
  6
Continuous
100
AcDbLine
 10
781.7629833103173
 20
-496.96772527377175
 30
0.0
 11
785.7714765671823
 21
-428.08999211763285
 31
0.0
  0
LINE
  5
1E1
330
8C
100
AcDbEntity
  8
LIB-PLAN
  6
Continuous
100
AcDbLine
 10
781.3414863284244
 20
-230.6314718868648
 30
0.0
 11
777.4910544397702
 21
-206.47656207649584
 31
0.0
  0
LINE
  5
1E2
330
8C
100
AcDbEntity
  8
LIB-PLAN
  6
Continuous
100
AcDbLine
 10
784.5582487679472
 20
-254.47025896081504
 30
0.0
 11
781.3414863284244
 21
-230.6314718868648
 31
0.0
  0
LINE
  5
1E3
330
8C
100
AcDbEntity
  8
LIB-PLAN
  6
Continuous
100
AcDbLine
 10
787.4588884710494
 20
-277.67537658563197
 30
0.0
 11
784.5582487679472
 21
-254.47025896081504
 31
0.0
  0
LINE
  5
1E4
330
8C
100
AcDbEntity
  8
LIB-PLAN
  6
Continuous
100
AcDbLine
 10
756.6055941916603
 20
-136.9651594712259
 30
0.0
 11
751.8594812164812
 21
-109.64617434407
 31
0.0
  0
LINE
  5
1E5
330
8C
100
AcDbEntity
  8
LIB-PLAN
  6
Continuous
100
AcDbLine
 10
763.2512915379433
 20
-162.0698614671478
 30
0.0
 11
756.6055941916603
 21
-136.9651594712259
 31
0.0
  0
LINE
  5
1E6
330
8C
100
AcDbEntity
  8
LIB-PLAN
  6
Continuous
100
AcDbLine
 10
777.4910544397702
 20
-206.47656207649584
 30
0.0
 11
763.2512915379433
 21
-162.0698614671478
 31
0.0
  0
LINE
  5
1E7
330
8C
100
AcDbEntity
  8
LIB-PLAN
  6
Continuous
100
AcDbLine
 10
664.9442403925972
 20
-119.6666954980858
 30
0.0
 11
620.8536625196701
 21
-125.30991353607874
 31
0.0
  0
LINE
  5
1E8
330
8C
100
AcDbEntity
  8
LIB-PLAN
  6
Continuous
100
AcDbLine
 10
708.7186955291053
 20
-114.33960019651204
 30
0.0
 11
664.9442403925972
 21
-119.6666954980858
 31
0.0
  0
LINE
  5
1E9
330
8C
100
AcDbEntity
  8
LIB-PLAN
  6
Continuous
100
AcDbLine
 10
751.8594812164812
 20
-109.64617434407
 30
0.0
 11
708.7186955291053
 21
-114.33960019651204
 31
0.0
  0
LINE
  5
1EA
330
8C
100
AcDbEntity
  8
LIB-PLAN
  6
Continuous
100
AcDbLine
 10
201.1836422058874
 20
-129.86806164095492
 30
0.0
 11
131.00581869681116
 21
-131.00581869681082
 31
0.0
  0
LINE
  5
1EB
330
8C
100
AcDbEntity
  8
LIB-PLAN
  6
Continuous
100
AcDbLine
 10
271.33583414173825
 20
-128.87982209556776
 30
0.0
 11
201.1836422058874
 21
-129.86806164095492
 31
0.0
  0
LINE
  5
1EC
330
8C
100
AcDbEntity
  8
LIB-PLAN
  6
Continuous
100
AcDbLine
 10
341.43818690743535
 20
-128.01689246371689
 30
0.0
 11
271.33583414173825
 21
-128.87982209556776
 31
0.0
  0
LINE
  5
1ED
330
8C
100
AcDbEntity
  8
LIB-PLAN
  6
Continuous
100
AcDbLine
 10
411.46649290604034
 20
-127.25221719588899
 30
0.0
 11
341.43818690743535
 21
-128.01689246371689
 31
0.0
  0
LINE
  5
1EE
330
8C
100
AcDbEntity
  8
LIB-PLAN
  6
Continuous
100
AcDbLine
 10
481.39512056433443
 20
-126.56301267143976
 30
0.0
 11
411.46649290604034
 21
-127.25221719588899
 31
0.0
  0
LINE
  5
1EF
330
8C
100
AcDbEntity
  8
LIB-PLAN
  6
Continuous
100
AcDbLine
 10
551.1998622853813
 20
-125.92364731714906
 30
0.0
 11
481.39512056433443
 21
-126.56301267143976
 31
0.0
  0
LINE
  5
1F0
330
8C
100
AcDbEntity
  8
LIB-PLAN
  6
Continuous
100
AcDbLine
 10
620.8536625196701
 20
-125.30991353607874
 30
0.0
 11
551.1998622853813
 21
-125.92364731714906
 31
0.0
  0
LINE
  5
1F1
330
8C
100
AcDbEntity
  8
LIB-PLAN
  6
Continuous
100
AcDbLine
 10
65.08141236651079
 20
-139.97117341980083
 30
0.0
 11
31.327478384020424
 21
-145.24558159863795
 31
0.0
  0
LINE
  5
1F2
330
8C
100
AcDbEntity
  8
LIB-PLAN
  6
Continuous
100
AcDbLine
 10
98.20167689987159
 20
-135.33043469009704
 30
0.0
 11
65.08141236651079
 21
-139.97117341980083
 31
0.0
  0
LINE
  5
1F3
330
8C
100
AcDbEntity
  8
LIB-PLAN
  6
Continuous
100
AcDbLine
 10
131.00581869681116
 20
-131.00581869681082
 30
0.0
 11
98.20167689987159
 21
-135.33043469009704
 31
0.0
  0
LINE
  5
1F4
330
8C
100
AcDbEntity
  8
LIB-PLAN
  6
Continuous
100
AcDbLine
 10
-214.7754958956815
 20
-141.0405796137279
 30
0.0
 11
-297.61104464819005
 21
-135.27774756735903
 31
0.0
  0
LINE
  5
1F5
330
8C
100
AcDbEntity
  8
LIB-PLAN
  6
Continuous
100
AcDbLine
 10
-152.89945415837076
 20
-143.99960234472792
 30
0.0
 11
-214.7754958956815
 21
-141.0405796137279
 31
0.0
  0
LINE
  5
1F6
330
8C
100
AcDbEntity
  8
LIB-PLAN
  6
Continuous
100
AcDbLine
 10
-81.14386491977234
 20
-145.09036818300774
 30
0.0
 11
-152.89945415837076
 21
-143.99960234472792
 31
0.0
  0
LINE
  5
1F7
330
8C
100
AcDbEntity
  8
LIB-PLAN
  6
Continuous
100
AcDbLine
 10
31.327478384020424
 20
-145.24558159863795
 30
0.0
 11
-81.14386491977234
 21
-145.09036818300774
 31
0.0
  0
LINE
  5
1F8
330
8C
100
AcDbEntity
  8
LIB-PLAN
  6
Continuous
100
AcDbLine
 10
-390.4329391237519
 20
-116.39724593582696
 30
0.0
 11
-435.7367447959152
 21
-106.79822176370476
 31
0.0
  0
LINE
  5
1F9
330
8C
100
AcDbEntity
  8
LIB-PLAN
  6
Continuous
100
AcDbLine
 10
-351.45870806145007
 20
-125.67872339523706
 30
0.0
 11
-390.4329391237519
 21
-116.39724593582696
 31
0.0
  0
LINE
  5
1FA
330
8C
100
AcDbEntity
  8
LIB-PLAN
  6
Continuous
100
AcDbLine
 10
-297.61104464819005
 20
-135.27774756735903
 30
0.0
 11
-351.45870806145007
 21
-125.67872339523706
 31
0.0
  0
LINE
  5
1FB
330
8C
100
AcDbEntity
  8
LIB-PLAN
  6
Continuous
100
AcDbLine
 10
-757.2136320675686
 20
-122.38221828346491
 30
0.0
 11
-827.3302245961646
 21
-123.88593724589691
 31
0.0
  0
LINE
  5
1FC
330
8C
100
AcDbEntity
  8
LIB-PLAN
  6
Continuous
100
AcDbLine
 10
-701.7924748536567
 20
-120.7417975971739
 30
0.0
 11
-757.2136320675686
 21
-122.38221828346491
 31
0.0
  0
LINE
  5
1FD
330
8C
100
AcDbEntity
  8
LIB-PLAN
  6
Continuous
100
AcDbLine
 10
-642.2702659240176
 20
-118.144464843881
 30
0.0
 11
-701.7924748536567
 21
-120.7417975971739
 31
0.0
  0
LINE
  5
1FE
330
8C
100
AcDbEntity
  8
LIB-PLAN
  6
Continuous
100
AcDbLine
 10
-559.8505182482415
 20
-113.7700096804399
 30
0.0
 11
-642.2702659240176
 21
-118.144464843881
 31
0.0
  0
LINE
  5
1FF
330
8C
100
AcDbEntity
  8
LIB-PLAN
  6
Continuous
100
AcDbLine
 10
-435.7367447959152
 20
-106.79822176370476
 30
0.0
 11
-559.8505182482415
 21
-113.7700096804399
 31
0.0
  0
LINE
  5
200
330
8C
100
AcDbEntity
  8
LIB-PLAN
  6
Continuous
100
AcDbLine
 10
-670.6928326760653
 20
-281.9473054561797
 30
0.0
 11
-670.6928326760653
 21
-266.28356626416985
 31
0.0
  0
LINE
  5
201
330
8C
100
AcDbEntity
  8
LIB-PLAN
  6
Continuous
100
AcDbLine
 10
-670.6928326760653
 20
-297.6110446481898
 30
0.0
 11
-670.6928326760653
 21
-281.9473054561797
 31
0.0
  0
LINE
  5
202
330
8C
100
AcDbEntity
  8
LIB-PLAN
  6
Continuous
100
AcDbLine
 10
-670.6928326760653
 20
-313.2747838402008
 30
0.0
 11
-670.6928326760653
 21
-297.6110446481898
 31
0.0
  0
LINE
  5
203
330
8C
100
AcDbEntity
  8
LIB-PLAN
  6
Continuous
100
AcDbLine
 10
-552.5028005908983
 20
-302.8854528270267
 30
0.0
 11
-551.0788243007171
 21
-299.0350209383739
 31
0.0
  0
LINE
  5
204
330
8C
100
AcDbEntity
  8
LIB-PLAN
  6
Continuous
100
AcDbLine
 10
-553.926776881082
 20
-306.10221526655005
 30
0.0
 11
-552.5028005908983
 21
-302.8854528270267
 31
0.0
  0
LINE
  5
205
330
8C
100
AcDbEntity
  8
LIB-PLAN
  6
Continuous
100
AcDbLine
 10
-555.3507531712655
 20
-309.00285496965193
 30
0.0
 11
-553.926776881082
 21
-306.10221526655005
 31
0.0
  0
LINE
  5
206
330
8C
100
AcDbEntity
  8
LIB-PLAN
  6
Continuous
100
AcDbLine
 10
25.2100762413952
 20
-306.10221526655005
 30
0.0
 11
19.935668062557397
 21
-301.88297351873894
 31
0.0
  0
LINE
  5
207
330
8C
100
AcDbEntity
  8
LIB-PLAN
  6
Continuous
100
AcDbLine
 10
29.85081497110059
 20
-310.00533427794085
 30
0.0
 11
25.2100762413952
 21
-306.10221526655005
 31
0.0
  0
LINE
  5
208
330
8C
100
AcDbEntity
  8
LIB-PLAN
  6
Continuous
100
AcDbLine
 10
34.175430964385214
 20
-313.2747838402008
 30
0.0
 11
29.85081497110059
 21
-310.00533427794085
 31
0.0
  0
LINE
  5
209
330
8C
100
AcDbEntity
  8
LIB-PLAN
  6
Continuous
100
AcDbLine
 10
4.21924174781077
 20
-303.35963693165763
 30
0.0
 11
-4.27192887054855
 21
-304.7309260991028
 31
0.0
  0
LINE
  5
20A
330
8C
100
AcDbEntity
  8
LIB-PLAN
  6
Continuous
100
AcDbLine
 10
12.394289629750347
 20
-302.30447050063185
 30
0.0
 11
4.21924174781077
 21
-303.35963693165763
 31
0.0
  0
LINE
  5
20B
330
8C
100
AcDbEntity
  8
LIB-PLAN
  6
Continuous
100
AcDbLine
 10
19.935668062557397
 20
-301.88297351873894
 30
0.0
 11
12.394289629750347
 21
-302.30447050063185
 31
0.0
  0
LINE
  5
20C
330
8C
100
AcDbEntity
  8
LIB-PLAN
  6
Continuous
100
AcDbLine
 10
-155.2134156299178
 20
-301.83028639600184
 30
0.0
 11
-152.3654630495522
 21
-299.0350209383739
 31
0.0
  0
LINE
  5
20D
330
8C
100
AcDbEntity
  8
LIB-PLAN
  6
Continuous
100
AcDbLine
 10
-158.06136821028372
 20
-304.3094291172099
 30
0.0
 11
-155.2134156299178
 21
-301.83028639600184
 31
0.0
  0
LINE
  5
20E
330
8C
100
AcDbEntity
  8
LIB-PLAN
  6
Continuous
100
AcDbLine
 10
-160.9093207906477
 20
-306.154902389286
 30
0.0
 11
-158.06136821028372
 21
-304.3094291172099
 31
0.0
  0
LINE
  5
20F
330
8C
100
AcDbEntity
  8
LIB-PLAN
  6
Continuous
100
AcDbLine
 10
-851.9593185111655
 20
-77.89719897815485
 30
0.0
 11
-855.8097503998201
 21
-61.23098047785675
 31
0.0
  0
LINE
  5
210
330
8C
100
AcDbEntity
  8
LIB-PLAN
  6
Continuous
100
AcDbLine
 10
-848.7425560716435
 20
-93.92974802932304
 30
0.0
 11
-851.9593185111655
 21
-77.89719897815485
 31
0.0
  0
LINE
  5
211
330
8C
100
AcDbEntity
  8
LIB-PLAN
  6
Continuous
100
AcDbLine
 10
-845.8419163685398
 20
-109.64617434407
 30
0.0
 11
-848.7425560716435
 21
-93.92974802932304
 31
0.0
  0
LINE
  5
212
330
8C
100
AcDbEntity
  8
LIB-PLAN
  6
Continuous
100
AcDbLine
 10
737.6197183146531
 20
-34.17543096438476
 30
0.0
 11
731.9238131539224
 21
0.0
 31
0.0
  0
LINE
  5
213
330
8C
100
AcDbEntity
  8
LIB-PLAN
  6
Continuous
100
AcDbLine
 10
743.3156234753843
 20
-68.35086192877066
 30
0.0
 11
737.6197183146531
 21
-34.17543096438476
 31
0.0
  0
LINE
  5
214
330
8C
100
AcDbEntity
  8
LIB-PLAN
  6
Continuous
100
AcDbLine
 10
749.0115286361153
 20
-102.52629289315587
 30
0.0
 11
743.3156234753843
 21
-68.35086192877066
 31
0.0
  0
LINE
  5
215
330
8C
100
AcDbEntity
  8
LIB-PLAN
  6
Continuous
100
AcDbLine
 10
790.7283380333082
 20
-96.83038773242583
 30
0.0
 11
808.8185328237904
 21
-95.4064114422431
 31
0.0
  0
LINE
  5
216
330
8C
100
AcDbEntity
  8
LIB-PLAN
  6
Continuous
100
AcDbLine
 10
773.2718126919584
 20
-98.25436402260789
 30
0.0
 11
790.7283380333082
 21
-96.83038773242583
 31
0.0
  0
LINE
  5
217
330
8C
100
AcDbEntity
  8
LIB-PLAN
  6
Continuous
100
AcDbLine
 10
756.1314100870292
 20
-99.67834031279085
 30
0.0
 11
773.2718126919584
 21
-98.25436402260789
 31
0.0
  0
ENDBLK
  5
8E
330
8C
100
AcDbEntity
  8
0
100
AcDbBlockEnd
  0
ENDSEC
  0
SECTION
  2
ENTITIES
  0
ENDSEC
  0
SECTION
  2
OBJECTS
  0
DICTIONARY
  5
A
330
0
100
AcDbDictionary
281
1
  3
ACAD_COLOR
350
B
  3
ACAD_GROUP
350
C
  3
ACAD_LAYOUT
350
D
  3
ACAD_MATERIAL
350
E
  3
ACAD_MLEADERSTYLE
350
F
  3
ACAD_MLINESTYLE
350
10
  3
ACAD_PLOTSETTINGS
350
11
  3
ACAD_PLOTSTYLENAME
350
12
  3
ACAD_SCALELIST
350
14
  3
ACAD_TABLESTYLE
350
15
  3
ACAD_VISUALSTYLE
350
16
  3
EZDXF_META
350
2D
  0
DICTIONARY
  5
B
330
A
100
AcDbDictionary
281
1
  0
DICTIONARY
  5
C
330
A
100
AcDbDictionary
281
1
  0
DICTIONARY
  5
D
330
A
100
AcDbDictionary
281
1
  3
Model
350
1A
  3
Layout1
350
1E
  0
DICTIONARY
  5
E
330
A
100
AcDbDictionary
281
1
  3
ByBlock
350
1F
  3
ByLayer
350
20
  3
Global
350
21
  0
DICTIONARY
  5
F
330
A
100
AcDbDictionary
281
1
  3
Standard
350
2C
  0
DICTIONARY
  5
10
330
A
100
AcDbDictionary
281
1
  3
Standard
350
22
  0
DICTIONARY
  5
11
330
A
100
AcDbDictionary
281
1
  0
ACDBDICTIONARYWDFLT
  5
12
330
A
100
AcDbDictionary
281
1
  3
Normal
350
13
100
AcDbDictionaryWithDefault
340
13
  0
ACDBPLACEHOLDER
  5
13
330
12
  0
DICTIONARY
  5
14
330
A
100
AcDbDictionary
281
1
  0
DICTIONARY
  5
15
330
A
100
AcDbDictionary
281
1
  0
DICTIONARY
  5
16
330
A
100
AcDbDictionary
281
1
  3
2dWireframe
350
5A
  3
Basic
350
5B
  3
Brighten
350
5C
  3
ColorChange
350
5D
  3
Conceptual
350
5E
  3
Dim
350
5F
  3
EdgeColorOff
350
60
  3
Facepattern
350
61
  3
Flat
350
62
  3
FlatWithEdges
350
63
  3
Gouraud
350
64
  3
GouraudWithEdges
350
65
  3
Hidden
350
66
  3
JitterOff
350
67
  3
Linepattern
350
68
  3
Modeling
350
69
  3
OverhangOff
350
6A
  3
Realistic
350
6B
  3
Shaded
350
6C
  3
Shaded with edges
350
6D
  3
Shades of Gray
350
6E
  3
Sketchy
350
6F
  3
Thicken
350
70
  3
Wireframe
350
71
  3
X-Ray
350
72
  0
LAYOUT
  5
1A
330
D
100
AcDbPlotSettings
  1

  4
A3
  6

 40
7.5
 41
20.0
 42
7.5
 43
20.0
 44
420.0
 45
297.0
 46
0.0
 47
0.0
 48
0.0
 49
0.0
140
0.0
141
0.0
142
1.0
143
1.0
 70
1024
 72
1
 73
0
 74
5
  7

 75
16
 76
0
 77
2
 78
300
147
1.0
148
0.0
149
0.0
100
AcDbLayout
  1
Model
 70
1
 71
0
 10
0.0
 20
0.0
 11
420.0
 21
297.0
 12
0.0
 22
0.0
 32
0.0
 14
1e+20
 24
1e+20
 34
1e+20
 15
-1e+20
 25
-1e+20
 35
-1e+20
146
0.0
 13
0.0
 23
0.0
 33
0.0
 16
1.0
 26
0.0
 36
0.0
 17
0.0
 27
1.0
 37
0.0
 76
1
330
17
  0
LAYOUT
  5
1E
330
D
100
AcDbPlotSettings
  1

  4
A3
  6

 40
7.5
 41
20.0
 42
7.5
 43
20.0
 44
420.0
 45
297.0
 46
0.0
 47
0.0
 48
0.0
 49
0.0
140
0.0
141
0.0
142
1.0
143
1.0
 70
0
 72
1
 73
0
 74
5
  7

 75
16
 76
0
 77
2
 78
300
147
1.0
148
0.0
149
0.0
100
AcDbLayout
  1
Layout1
 70
1
 71
1
 10
0.0
 20
0.0
 11
420.0
 21
297.0
 12
0.0
 22
0.0
 32
0.0
 14
1e+20
 24
1e+20
 34
1e+20
 15
-1e+20
 25
-1e+20
 35
-1e+20
146
0.0
 13
0.0
 23
0.0
 33
0.0
 16
1.0
 26
0.0
 36
0.0
 17
0.0
 27
1.0
 37
0.0
 76
1
330
1B
  0
MATERIAL
  5
1F
102
{ACAD_REACTORS
330
E
102
}
330
E
100
AcDbMaterial
  1
ByBlock
  2

 70
0
 40
1.0
 71
1
 41
1.0
 91
-1023410177
 42
1.0
 72
1
  3

 73
1
 74
1
 75
1
 44
0.5
 73
0
 45
1.0
 46
1.0
 77
1
  4

 78
1
 79
1
170
1
 48
1.0
171
1
  6

172
1
173
1
174
1
140
1.0
141
1.0
175
1
  7

176
1
177
1
178
1
143
1.0
179
1
  8

270
1
271
1
272
1
145
1.0
146
1.0
273
1
  9

274
1
275
1
276
1
 42
1.0
 72
1
  3

 73
1
 74
1
 75
1
 94
63
  0
MATERIAL
  5
20
102
{ACAD_REACTORS
330
E
102
}
330
E
100
AcDbMaterial
  1
ByLayer
  2

 70
0
 40
1.0
 71
1
 41
1.0
 91
-1023410177
 42
1.0
 72
1
  3

 73
1
 74
1
 75
1
 44
0.5
 73
0
 45
1.0
 46
1.0
 77
1
  4

 78
1
 79
1
170
1
 48
1.0
171
1
  6

172
1
173
1
174
1
140
1.0
141
1.0
175
1
  7

176
1
177
1
178
1
143
1.0
179
1
  8

270
1
271
1
272
1
145
1.0
146
1.0
273
1
  9

274
1
275
1
276
1
 42
1.0
 72
1
  3

 73
1
 74
1
 75
1
 94
63
  0
MATERIAL
  5
21
102
{ACAD_REACTORS
330
E
102
}
330
E
100
AcDbMaterial
  1
Global
  2

 70
0
 40
1.0
 71
1
 41
1.0
 91
-1023410177
 42
1.0
 72
1
  3

 73
1
 74
1
 75
1
 44
0.5
 73
0
 45
1.0
 46
1.0
 77
1
  4

 78
1
 79
1
170
1
 48
1.0
171
1
  6

172
1
173
1
174
1
140
1.0
141
1.0
175
1
  7

176
1
177
1
178
1
143
1.0
179
1
  8

270
1
271
1
272
1
145
1.0
146
1.0
273
1
  9

274
1
275
1
276
1
 42
1.0
 72
1
  3

 73
1
 74
1
 75
1
 94
63
  0
MLINESTYLE
  5
22
102
{ACAD_REACTORS
330
10
102
}
330
10
100
AcDbMlineStyle
  2
Standard
 70
0
  3

 62
256
 51
90.0
 52
90.0
 71
2
 49
0.5
 62
256
  6
BYLAYER
 49
-0.5
 62
256
  6
BYLAYER
  0
MLEADERSTYLE
  5
2C
102
{ACAD_REACTORS
330
F
102
}
330
F
100
AcDbMLeaderStyle
179
2
170
2
171
1
172
0
 90
2
 40
0.0
 41
0.0
173
1
 91
-1056964608
 92
-2
290
1
 42
2.0
291
1
 43
8.0
  3
Standard
 44
4.0
300

342
29
174
1
175
1
176
0
178
1
 93
-1056964608
 45
4.0
292
0
297
0
 46
4.0
 94
-1056964608
 47
1.0
 49
1.0
140
1.0
294
1
141
0.0
177
0
142
1.0
295
0
296
0
143
3.75
271
0
272
9
273
9
  0
DICTIONARY
  5
2D
330
A
100
AcDbDictionary
280
1
281
1
  3
CREATED_BY_EZDXF
350
2E
  3
WRITTEN_BY_EZDXF
350
21A
  0
DICTIONARYVAR
  5
2E
330
2D
100
DictionaryVariables
280
0
  1
1.4.4 @ 2026-09-26T08:38:42.148905+00:00
  0
VISUALSTYLE
  5
5A
102
{ACAD_REACTORS
330
16
102
}
330
16
100
AcDbVisualStyle
  2
2dWireframe
 70
4
177
3
291
0
 70
58
 90
2
176
1
 90
2
176
1
 90
0
176
1
 90
0
176
1
 40
0.6
176
1
 40
30.0
176
1
 62
7
420
16777215
176
1
 90
1
176
1
 90
4
176
1
 62
7
176
1
 62
257
176
1
 90
1
176
1
 90
1
176
1
 40
1.0
176
1
 90
8
176
1
 62
7
176
1
 40
1.0
176
1
 90
1
176
1
 90
6
176
1
 90
2
176
1
 62
7
176
1
 90
5
176
1
 90
0
176
1
 90
0
176
1
290
0
176
1
 90
1
176
1
 40
0.0
176
1
 90
0
176
1
290
1
176
1
290
1
176
1
290
0
176
1
290
0
176
1
290
0
176
1
290
0
176
1
290
0
176
1
290
0
176
1
290
0
176
1
 90
50
176
1
 40
0.0
176
1
 40
1.0
176
1
 90
0
176
1
 62
18
420
0
176
1
 90
50
176
1
 90
3
176
1
 62
5
420
255
176
1
290
0
176
1
 90
50
176
1
 90
50
176
1
 90
50
176
1
290
0
176
1
 90
50
176
1
 62
256
176
0
 40
1.0
176
0
 90
2
176
1
  1
strokes_ogs.tif
176
1
290
0
176
1
 40
1.0
176
1
 40
1.0
176
1
  0
VISUALSTYLE
  5
5B
102
{ACAD_REACTORS
330
16
102
}
330
16
100
AcDbVisualStyle
  2
Basic
 70
7
177
3
291
1
 70
58
 90
2
176
1
 90
2
176
1
 90
0
176
1
 90
1
176
1
 40
0.6
176
1
 40
30.0
176
1
 62
7
420
16777215
176
1
 90
1
176
1
 90
4
176
1
 62
7
176
1
 62
257
176
1
 90
1
176
1
 90
1
176
1
 40
1.0
176
1
 90
8
176
1
 62
7
176
1
 40
1.0
176
1
 90
1
176
1
 90
6
176
1
 90
2
176
1
 62
7
176
1
 90
5
176
1
 90
0
176
1
 90
0
176
1
290
0
176
1
 90
1
176
1
 40
0.0
176
1
 90
0
176
1
290
0
176
1
290
1
176
1
290
1
176
1
290
0
176
1
290
0
176
1
290
0
176
1
290
0
176
1
290
0
176
1
290
0
176
1
 90
50
176
1
 40
0.0
176
1
 40
1.0
176
1
 90
0
176
1
 62
18
420
0
176
1
 90
50
176
1
 90
3
176
1
 62
5
420
255
176
1
290
0
176
1
 90
50
176
1
 90
50
176
1
 90
50
176
1
290
0
176
1
 90
50
176
1
 62
256
176
0
 40
1.0
176
0
 90
2
176
1
  1
strokes_ogs.tif
176
1
290
0
176
1
 40
1.0
176
1
 40
1.0
176
1
  0
VISUALSTYLE
  5
5C
102
{ACAD_REACTORS
330
16
102
}
330
16
100
AcDbVisualStyle
  2
Brighten
 70
12
177
3
291
1
 70
58
 90
2
176
1
 90
2
176
1
 90
0
176
1
 90
2
176
1
 40
0.6
176
1
 40
30.0
176
1
 62
7
420
16777215
176
1
 90
1
176
1
 90
4
176
1
 62
7
176
1
 62
257
176
1
 90
1
176
1
 90
1
176
1
 40
1.0
176
1
 90
8
176
1
 62
7
176
1
 40
1.0
176
1
 90
1
176
1
 90
6
176
1
 90
2
176
1
 62
7
176
1
 90
5
176
1
 90
0
176
1
 90
0
176
1
290
0
176
1
 90
1
176
1
 40
0.0
176
1
 90
0
176
1
290
0
176
1
290
1
176
1
290
1
176
1
290
0
176
1
290
0
176
1
290
0
176
1
290
0
176
1
290
0
176
1
290
0
176
1
 90
50
176
1
 40
0.0
176
1
 40
1.0
176
1
 90
0
176
1
 62
18
420
0
176
1
 90
50
176
1
 90
3
176
1
 62
5
420
255
176
1
290
0
176
1
 90
50
176
1
 90
50
176
1
 90
50
176
1
290
0
176
1
 90
50
176
1
 62
256
176
0
 40
1.0
176
0
 90
2
176
1
  1
strokes_ogs.tif
176
1
290
0
176
1
 40
1.0
176
1
 40
1.0
176
1
  0
VISUALSTYLE
  5
5D
102
{ACAD_REACTORS
330
16
102
}
330
16
100
AcDbVisualStyle
  2
ColorChange
 70
16
177
3
291
1
 70
58
 90
2
176
1
 90
2
176
1
 90
0
176
1
 90
2
176
1
 40
0.6
176
1
 40
30.0
176
1
 62
7
420
16777215
176
1
 90
1
176
1
 90
4
176
1
 62
7
176
1
 62
257
176
1
 90
1
176
1
 90
1
176
1
 40
1.0
176
1
 90
8
176
1
 62
7
176
1
 40
1.0
176
1
 90
1
176
1
 90
6
176
1
 90
2
176
1
 62
7
176
1
 90
5
176
1
 90
0
176
1
 90
0
176
1
290
0
176
1
 90
1
176
1
 40
0.0
176
1
 90
0
176
1
290
0
176
1
290
1
176
1
290
1
176
1
290
0
176
1
290
0
176
1
290
0
176
1
290
0
176
1
290
0
176
1
290
0
176
1
 90
50
176
1
 40
0.0
176
1
 40
1.0
176
1
 90
0
176
1
 62
18
420
0
176
1
 90
50
176
1
 90
3
176
1
 62
5
420
255
176
1
290
0
176
1
 90
50
176
1
 90
50
176
1
 90
50
176
1
290
0
176
1
 90
50
176
1
 62
256
176
0
 40
1.0
176
0
 90
2
176
1
  1
strokes_ogs.tif
176
1
290
0
176
1
 40
1.0
176
1
 40
1.0
176
1
  0
VISUALSTYLE
  5
5E
102
{ACAD_REACTORS
330
16
102
}
330
16
100
AcDbVisualStyle
  2
Conceptual
 70
9
177
3
291
0
 70
58
 90
2
176
1
 90
2
176
1
 90
0
176
1
 90
3
176
1
 40
0.6
176
1
 40
30.0
176
1
 62
7
420
16777215
176
1
 90
1
176
1
 90
4
176
1
 62
7
176
1
 62
257
176
1
 90
1
176
1
 90
1
176
1
 40
1.0
176
1
 90
8
176
1
 62
7
176
1
 40
1.0
176
1
 90
1
176
1
 90
6
176
1
 90
2
176
1
 62
7
176
1
 90
5
176
1
 90
0
176
1
 90
0
176
1
290
0
176
1
 90
1
176
1
 40
0.0
176
1
 90
0
176
1
290
0
176
1
290
1
176
1
290
1
176
1
290
0
176
1
290
0
176
1
290
0
176
1
290
0
176
1
290
0
176
1
290
0
176
1
 90
50
176
1
 40
0.0
176
1
 40
1.0
176
1
 90
0
176
1
 62
18
420
0
176
1
 90
50
176
1
 90
3
176
1
 62
5
420
255
176
1
290
0
176
1
 90
50
176
1
 90
50
176
1
 90
50
176
1
290
0
176
1
 90
50
176
1
 62
256
176
0
 40
1.0
176
0
 90
2
176
1
  1
strokes_ogs.tif
176
1
290
0
176
1
 40
1.0
176
1
 40
1.0
176
1
  0
VISUALSTYLE
  5
5F
102
{ACAD_REACTORS
330
16
102
}
330
16
100
AcDbVisualStyle
  2
Dim
 70
11
177
3
291
1
 70
58
 90
2
176
1
 90
2
176
1
 90
0
176
1
 90
2
176
1
 40
0.6
176
1
 40
30.0
176
1
 62
7
420
16777215
176
1
 90
1
176
1
 90
4
176
1
 62
7
176
1
 62
257
176
1
 90
1
176
1
 90
1
176
1
 40
1.0
176
1
 90
8
176
1
 62
7
176
1
 40
1.0
176
1
 90
1
176
1
 90
6
176
1
 90
2
176
1
 62
7
176
1
 90
5
176
1
 90
0
176
1
 90
0
176
1
290
0
176
1
 90
1
176
1
 40
0.0
176
1
 90
0
176
1
290
0
176
1
290
1
176
1
290
1
176
1
290
0
176
1
290
0
176
1
290
0
176
1
290
0
176
1
290
0
176
1
290
0
176
1
 90
50
176
1
 40
0.0
176
1
 40
1.0
176
1
 90
0
176
1
 62
18
420
0
176
1
 90
50
176
1
 90
3
176
1
 62
5
420
255
176
1
290
0
176
1
 90
50
176
1
 90
50
176
1
 90
50
176
1
290
0
176
1
 90
50
176
1
 62
256
176
0
 40
1.0
176
0
 90
2
176
1
  1
strokes_ogs.tif
176
1
290
0
176
1
 40
1.0
176
1
 40
1.0
176
1
  0
VISUALSTYLE
  5
60
102
{ACAD_REACTORS
330
16
102
}
330
16
100
AcDbVisualStyle
  2
EdgeColorOff
 70
22
177
3
291
1
 70
58
 90
2
176
1
 90
2
176
1
 90
0
176
1
 90
2
176
1
 40
0.6
176
1
 40
30.0
176
1
 62
7
420
16777215
176
1
 90
1
176
1
 90
4
176
1
 62
7
176
1
 62
257
176
1
 90
1
176
1
 90
1
176
1
 40
1.0
176
1
 90
8
176
1
 62
7
176
1
 40
1.0
176
1
 90
1
176
1
 90
6
176
1
 90
2
176
1
 62
7
176
1
 90
5
176
1
 90
0
176
1
 90
0
176
1
290
0
176
1
 90
1
176
1
 40
0.0
176
1
 90
0
176
1
290
0
176
1
290
1
176
1
290
1
176
1
290
0
176
1
290
0
176
1
290
0
176
1
290
0
176
1
290
0
176
1
290
0
176
1
 90
50
176
1
 40
0.0
176
1
 40
1.0
176
1
 90
0
176
1
 62
18
420
0
176
1
 90
50
176
1
 90
3
176
1
 62
5
420
255
176
1
290
0
176
1
 90
50
176
1
 90
50
176
1
 90
50
176
1
290
0
176
1
 90
50
176
1
 62
256
176
0
 40
1.0
176
0
 90
2
176
1
  1
strokes_ogs.tif
176
1
290
0
176
1
 40
1.0
176
1
 40
1.0
176
1
  0
VISUALSTYLE
  5
61
102
{ACAD_REACTORS
330
16
102
}
330
16
100
AcDbVisualStyle
  2
Facepattern
 70
15
177
3
291
1
 70
58
 90
2
176
1
 90
2
176
1
 90
0
176
1
 90
2
176
1
 40
0.6
176
1
 40
30.0
176
1
 62
7
420
16777215
176
1
 90
1
176
1
 90
4
176
1
 62
7
176
1
 62
257
176
1
 90
1
176
1
 90
1
176
1
 40
1.0
176
1
 90
8
176
1
 62
7
176
1
 40
1.0
176
1
 90
1
176
1
 90
6
176
1
 90
2
176
1
 62
7
176
1
 90
5
176
1
 90
0
176
1
 90
0
176
1
290
0
176
1
 90
1
176
1
 40
0.0
176
1
 90
0
176
1
290
0
176
1
290
1
176
1
290
1
176
1
290
0
176
1
290
0
176
1
290
0
176
1
290
0
176
1
290
0
176
1
290
0
176
1
 90
50
176
1
 40
0.0
176
1
 40
1.0
176
1
 90
0
176
1
 62
18
420
0
176
1
 90
50
176
1
 90
3
176
1
 62
5
420
255
176
1
290
0
176
1
 90
50
176
1
 90
50
176
1
 90
50
176
1
290
0
176
1
 90
50
176
1
 62
256
176
0
 40
1.0
176
0
 90
2
176
1
  1
strokes_ogs.tif
176
1
290
0
176
1
 40
1.0
176
1
 40
1.0
176
1
  0
VISUALSTYLE
  5
62
102
{ACAD_REACTORS
330
16
102
}
330
16
100
AcDbVisualStyle
  2
Flat
 70
0
177
3
291
1
 70
58
 90
2
176
1
 90
2
176
1
 90
0
176
1
 90
2
176
1
 40
0.6
176
1
 40
30.0
176
1
 62
7
420
16777215
176
1
 90
1
176
1
 90
4
176
1
 62
7
176
1
 62
257
176
1
 90
1
176
1
 90
1
176
1
 40
1.0
176
1
 90
8
176
1
 62
7
176
1
 40
1.0
176
1
 90
1
176
1
 90
6
176
1
 90
2
176
1
 62
7
176
1
 90
5
176
1
 90
0
176
1
 90
0
176
1
290
0
176
1
 90
1
176
1
 40
0.0
176
1
 90
0
176
1
290
0
176
1
290
1
176
1
290
1
176
1
290
0
176
1
290
0
176
1
290
0
176
1
290
0
176
1
290
0
176
1
290
0
176
1
 90
50
176
1
 40
0.0
176
1
 40
1.0
176
1
 90
0
176
1
 62
18
420
0
176
1
 90
50
176
1
 90
3
176
1
 62
5
420
255
176
1
290
0
176
1
 90
50
176
1
 90
50
176
1
 90
50
176
1
290
0
176
1
 90
50
176
1
 62
256
176
0
 40
1.0
176
0
 90
2
176
1
  1
strokes_ogs.tif
176
1
290
0
176
1
 40
1.0
176
1
 40
1.0
176
1
  0
VISUALSTYLE
  5
63
102
{ACAD_REACTORS
330
16
102
}
330
16
100
AcDbVisualStyle
  2
FlatWithEdges
 70
1
177
3
291
1
 70
58
 90
2
176
1
 90
2
176
1
 90
0
176
1
 90
2
176
1
 40
0.6
176
1
 40
30.0
176
1
 62
7
420
16777215
176
1
 90
1
176
1
 90
4
176
1
 62
7
176
1
 62
257
176
1
 90
1
176
1
 90
1
176
1
 40
1.0
176
1
 90
8
176
1
 62
7
176
1
 40
1.0
176
1
 90
1
176
1
 90
6
176
1
 90
2
176
1
 62
7
176
1
 90
5
176
1
 90
0
176
1
 90
0
176
1
290
0
176
1
 90
1
176
1
 40
0.0
176
1
 90
0
176
1
290
0
176
1
290
1
176
1
290
1
176
1
290
0
176
1
290
0
176
1
290
0
176
1
290
0
176
1
290
0
176
1
290
0
176
1
 90
50
176
1
 40
0.0
176
1
 40
1.0
176
1
 90
0
176
1
 62
18
420
0
176
1
 90
50
176
1
 90
3
176
1
 62
5
420
255
176
1
290
0
176
1
 90
50
176
1
 90
50
176
1
 90
50
176
1
290
0
176
1
 90
50
176
1
 62
256
176
0
 40
1.0
176
0
 90
2
176
1
  1
strokes_ogs.tif
176
1
290
0
176
1
 40
1.0
176
1
 40
1.0
176
1
  0
VISUALSTYLE
  5
64
102
{ACAD_REACTORS
330
16
102
}
330
16
100
AcDbVisualStyle
  2
Gouraud
 70
2
177
3
291
1
 70
58
 90
2
176
1
 90
2
176
1
 90
0
176
1
 90
2
176
1
 40
0.6
176
1
 40
30.0
176
1
 62
7
420
16777215
176
1
 90
1
176
1
 90
4
176
1
 62
7
176
1
 62
257
176
1
 90
1
176
1
 90
1
176
1
 40
1.0
176
1
 90
8
176
1
 62
7
176
1
 40
1.0
176
1
 90
1
176
1
 90
6
176
1
 90
2
176
1
 62
7
176
1
 90
5
176
1
 90
0
176
1
 90
0
176
1
290
0
176
1
 90
1
176
1
 40
0.0
176
1
 90
0
176
1
290
0
176
1
290
1
176
1
290
1
176
1
290
0
176
1
290
0
176
1
290
0
176
1
290
0
176
1
290
0
176
1
290
0
176
1
 90
50
176
1
 40
0.0
176
1
 40
1.0
176
1
 90
0
176
1
 62
18
420
0
176
1
 90
50
176
1
 90
3
176
1
 62
5
420
255
176
1
290
0
176
1
 90
50
176
1
 90
50
176
1
 90
50
176
1
290
0
176
1
 90
50
176
1
 62
256
176
0
 40
1.0
176
0
 90
2
176
1
  1
strokes_ogs.tif
176
1
290
0
176
1
 40
1.0
176
1
 40
1.0
176
1
  0
VISUALSTYLE
  5
65
102
{ACAD_REACTORS
330
16
102
}
330
16
100
AcDbVisualStyle
  2
GouraudWithEdges
 70
3
177
3
291
1
 70
58
 90
2
176
1
 90
2
176
1
 90
0
176
1
 90
2
176
1
 40
0.6
176
1
 40
30.0
176
1
 62
7
420
16777215
176
1
 90
1
176
1
 90
4
176
1
 62
7
176
1
 62
257
176
1
 90
1
176
1
 90
1
176
1
 40
1.0
176
1
 90
8
176
1
 62
7
176
1
 40
1.0
176
1
 90
1
176
1
 90
6
176
1
 90
2
176
1
 62
7
176
1
 90
5
176
1
 90
0
176
1
 90
0
176
1
290
0
176
1
 90
1
176
1
 40
0.0
176
1
 90
0
176
1
290
0
176
1
290
1
176
1
290
1
176
1
290
0
176
1
290
0
176
1
290
0
176
1
290
0
176
1
290
0
176
1
290
0
176
1
 90
50
176
1
 40
0.0
176
1
 40
1.0
176
1
 90
0
176
1
 62
18
420
0
176
1
 90
50
176
1
 90
3
176
1
 62
5
420
255
176
1
290
0
176
1
 90
50
176
1
 90
50
176
1
 90
50
176
1
290
0
176
1
 90
50
176
1
 62
256
176
0
 40
1.0
176
0
 90
2
176
1
  1
strokes_ogs.tif
176
1
290
0
176
1
 40
1.0
176
1
 40
1.0
176
1
  0
VISUALSTYLE
  5
66
102
{ACAD_REACTORS
330
16
102
}
330
16
100
AcDbVisualStyle
  2
Hidden
 70
6
177
3
291
0
 70
58
 90
2
176
1
 90
2
176
1
 90
0
176
1
 90
1
176
1
 40
0.6
176
1
 40
30.0
176
1
 62
7
420
16777215
176
1
 90
1
176
1
 90
4
176
1
 62
7
176
1
 62
257
176
1
 90
1
176
1
 90
1
176
1
 40
1.0
176
1
 90
8
176
1
 62
7
176
1
 40
1.0
176
1
 90
1
176
1
 90
6
176
1
 90
2
176
1
 62
7
176
1
 90
5
176
1
 90
0
176
1
 90
0
176
1
290
0
176
1
 90
1
176
1
 40
0.0
176
1
 90
0
176
1
290
0
176
1
290
1
176
1
290
1
176
1
290
0
176
1
290
0
176
1
290
0
176
1
290
0
176
1
290
0
176
1
290
0
176
1
 90
50
176
1
 40
0.0
176
1
 40
1.0
176
1
 90
0
176
1
 62
18
420
0
176
1
 90
50
176
1
 90
3
176
1
 62
5
420
255
176
1
290
0
176
1
 90
50
176
1
 90
50
176
1
 90
50
176
1
290
0
176
1
 90
50
176
1
 62
256
176
0
 40
1.0
176
0
 90
2
176
1
  1
strokes_ogs.tif
176
1
290
0
176
1
 40
1.0
176
1
 40
1.0
176
1
  0
VISUALSTYLE
  5
67
102
{ACAD_REACTORS
330
16
102
}
330
16
100
AcDbVisualStyle
  2
JitterOff
 70
20
177
3
291
1
 70
58
 90
2
176
1
 90
2
176
1
 90
0
176
1
 90
2
176
1
 40
0.6
176
1
 40
30.0
176
1
 62
7
420
16777215
176
1
 90
1
176
1
 90
4
176
1
 62
7
176
1
 62
257
176
1
 90
1
176
1
 90
1
176
1
 40
1.0
176
1
 90
8
176
1
 62
7
176
1
 40
1.0
176
1
 90
1
176
1
 90
6
176
1
 90
2
176
1
 62
7
176
1
 90
5
176
1
 90
0
176
1
 90
0
176
1
290
0
176
1
 90
1
176
1
 40
0.0
176
1
 90
0
176
1
290
0
176
1
290
1
176
1
290
1
176
1
290
0
176
1
290
0
176
1
290
0
176
1
290
0
176
1
290
0
176
1
290
0
176
1
 90
50
176
1
 40
0.0
176
1
 40
1.0
176
1
 90
0
176
1
 62
18
420
0
176
1
 90
50
176
1
 90
3
176
1
 62
5
420
255
176
1
290
0
176
1
 90
50
176
1
 90
50
176
1
 90
50
176
1
290
0
176
1
 90
50
176
1
 62
256
176
0
 40
1.0
176
0
 90
2
176
1
  1
strokes_ogs.tif
176
1
290
0
176
1
 40
1.0
176
1
 40
1.0
176
1
  0
VISUALSTYLE
  5
68
102
{ACAD_REACTORS
330
16
102
}
330
16
100
AcDbVisualStyle
  2
Linepattern
 70
14
177
3
291
1
 70
58
 90
2
176
1
 90
2
176
1
 90
0
176
1
 90
2
176
1
 40
0.6
176
1
 40
30.0
176
1
 62
7
420
16777215
176
1
 90
1
176
1
 90
4
176
1
 62
7
176
1
 62
257
176
1
 90
1
176
1
 90
1
176
1
 40
1.0
176
1
 90
8
176
1
 62
7
176
1
 40
1.0
176
1
 90
1
176
1
 90
6
176
1
 90
2
176
1
 62
7
176
1
 90
5
176
1
 90
0
176
1
 90
0
176
1
290
0
176
1
 90
1
176
1
 40
0.0
176
1
 90
0
176
1
290
0
176
1
290
1
176
1
290
1
176
1
290
0
176
1
290
0
176
1
290
0
176
1
290
0
176
1
290
0
176
1
290
0
176
1
 90
50
176
1
 40
0.0
176
1
 40
1.0
176
1
 90
0
176
1
 62
18
420
0
176
1
 90
50
176
1
 90
3
176
1
 62
5
420
255
176
1
290
0
176
1
 90
50
176
1
 90
50
176
1
 90
50
176
1
290
0
176
1
 90
50
176
1
 62
256
176
0
 40
1.0
176
0
 90
2
176
1
  1
strokes_ogs.tif
176
1
290
0
176
1
 40
1.0
176
1
 40
1.0
176
1
  0
VISUALSTYLE
  5
69
102
{ACAD_REACTORS
330
16
102
}
330
16
100
AcDbVisualStyle
  2
Modeling
 70
10
177
3
291
0
 70
58
 90
2
176
1
 90
2
176
1
 90
0
176
1
 90
2
176
1
 40
0.6
176
1
 40
30.0
176
1
 62
7
420
16777215
176
1
 90
1
176
1
 90
4
176
1
 62
7
176
1
 62
257
176
1
 90
1
176
1
 90
1
176
1
 40
1.0
176
1
 90
8
176
1
 62
7
176
1
 40
1.0
176
1
 90
1
176
1
 90
6
176
1
 90
2
176
1
 62
7
176
1
 90
5
176
1
 90
0
176
1
 90
0
176
1
290
0
176
1
 90
1
176
1
 40
0.0
176
1
 90
0
176
1
290
0
176
1
290
1
176
1
290
1
176
1
290
0
176
1
290
0
176
1
290
0
176
1
290
0
176
1
290
0
176
1
290
0
176
1
 90
50
176
1
 40
0.0
176
1
 40
1.0
176
1
 90
0
176
1
 62
18
420
0
176
1
 90
50
176
1
 90
3
176
1
 62
5
420
255
176
1
290
0
176
1
 90
50
176
1
 90
50
176
1
 90
50
176
1
290
0
176
1
 90
50
176
1
 62
256
176
0
 40
1.0
176
0
 90
2
176
1
  1
strokes_ogs.tif
176
1
290
0
176
1
 40
1.0
176
1
 40
1.0
176
1
  0
VISUALSTYLE
  5
6A
102
{ACAD_REACTORS
330
16
102
}
330
16
100
AcDbVisualStyle
  2
OverhangOff
 70
21
177
3
291
1
 70
58
 90
2
176
1
 90
2
176
1
 90
0
176
1
 90
2
176
1
 40
0.6
176
1
 40
30.0
176
1
 62
7
420
16777215
176
1
 90
1
176
1
 90
4
176
1
 62
7
176
1
 62
257
176
1
 90
1
176
1
 90
1
176
1
 40
1.0
176
1
 90
8
176
1
 62
7
176
1
 40
1.0
176
1
 90
1
176
1
 90
6
176
1
 90
2
176
1
 62
7
176
1
 90
5
176
1
 90
0
176
1
 90
0
176
1
290
0
176
1
 90
1
176
1
 40
0.0
176
1
 90
0
176
1
290
0
176
1
290
1
176
1
290
1
176
1
290
0
176
1
290
0
176
1
290
0
176
1
290
0
176
1
290
0
176
1
290
0
176
1
 90
50
176
1
 40
0.0
176
1
 40
1.0
176
1
 90
0
176
1
 62
18
420
0
176
1
 90
50
176
1
 90
3
176
1
 62
5
420
255
176
1
290
0
176
1
 90
50
176
1
 90
50
176
1
 90
50
176
1
290
0
176
1
 90
50
176
1
 62
256
176
0
 40
1.0
176
0
 90
2
176
1
  1
strokes_ogs.tif
176
1
290
0
176
1
 40
1.0
176
1
 40
1.0
176
1
  0
VISUALSTYLE
  5
6B
102
{ACAD_REACTORS
330
16
102
}
330
16
100
AcDbVisualStyle
  2
Realistic
 70
8
177
3
291
0
 70
58
 90
2
176
1
 90
2
176
1
 90
0
176
1
 90
2
176
1
 40
0.6
176
1
 40
30.0
176
1
 62
7
420
16777215
176
1
 90
1
176
1
 90
4
176
1
 62
7
176
1
 62
257
176
1
 90
1
176
1
 90
1
176
1
 40
1.0
176
1
 90
8
176
1
 62
7
176
1
 40
1.0
176
1
 90
1
176
1
 90
6
176
1
 90
2
176
1
 62
7
176
1
 90
5
176
1
 90
0
176
1
 90
0
176
1
290
0
176
1
 90
1
176
1
 40
0.0
176
1
 90
0
176
1
290
0
176
1
290
1
176
1
290
1
176
1
290
0
176
1
290
0
176
1
290
0
176
1
290
0
176
1
290
0
176
1
290
0
176
1
 90
50
176
1
 40
0.0
176
1
 40
1.0
176
1
 90
0
176
1
 62
18
420
0
176
1
 90
50
176
1
 90
3
176
1
 62
5
420
255
176
1
290
0
176
1
 90
50
176
1
 90
50
176
1
 90
50
176
1
290
0
176
1
 90
50
176
1
 62
256
176
0
 40
1.0
176
0
 90
2
176
1
  1
strokes_ogs.tif
176
1
290
0
176
1
 40
1.0
176
1
 40
1.0
176
1
  0
VISUALSTYLE
  5
6C
102
{ACAD_REACTORS
330
16
102
}
330
16
100
AcDbVisualStyle
  2
Shaded
 70
27
177
3
291
0
 70
58
 90
2
176
1
 90
2
176
1
 90
0
176
1
 90
2
176
1
 40
0.6
176
1
 40
30.0
176
1
 62
7
420
16777215
176
1
 90
1
176
1
 90
4
176
1
 62
7
176
1
 62
257
176
1
 90
1
176
1
 90
1
176
1
 40
1.0
176
1
 90
8
176
1
 62
7
176
1
 40
1.0
176
1
 90
1
176
1
 90
6
176
1
 90
2
176
1
 62
7
176
1
 90
5
176
1
 90
0
176
1
 90
0
176
1
290
0
176
1
 90
1
176
1
 40
0.0
176
1
 90
0
176
1
290
0
176
1
290
1
176
1
290
1
176
1
290
0
176
1
290
0
176
1
290
0
176
1
290
0
176
1
290
0
176
1
290
0
176
1
 90
50
176
1
 40
0.0
176
1
 40
1.0
176
1
 90
0
176
1
 62
18
420
0
176
1
 90
50
176
1
 90
3
176
1
 62
5
420
255
176
1
290
0
176
1
 90
50
176
1
 90
50
176
1
 90
50
176
1
290
0
176
1
 90
50
176
1
 62
256
176
0
 40
1.0
176
0
 90
2
176
1
  1
strokes_ogs.tif
176
1
290
0
176
1
 40
1.0
176
1
 40
1.0
176
1
  0
VISUALSTYLE
  5
6D
102
{ACAD_REACTORS
330
16
102
}
330
16
100
AcDbVisualStyle
  2
Shaded with edges
 70
26
177
3
291
0
 70
58
 90
2
176
1
 90
2
176
1
 90
0
176
1
 90
2
176
1
 40
0.6
176
1
 40
30.0
176
1
 62
7
420
16777215
176
1
 90
1
176
1
 90
4
176
1
 62
7
176
1
 62
257
176
1
 90
1
176
1
 90
1
176
1
 40
1.0
176
1
 90
8
176
1
 62
7
176
1
 40
1.0
176
1
 90
1
176
1
 90
6
176
1
 90
2
176
1
 62
7
176
1
 90
5
176
1
 90
0
176
1
 90
0
176
1
290
0
176
1
 90
1
176
1
 40
0.0
176
1
 90
0
176
1
290
0
176
1
290
1
176
1
290
1
176
1
290
0
176
1
290
0
176
1
290
0
176
1
290
0
176
1
290
0
176
1
290
0
176
1
 90
50
176
1
 40
0.0
176
1
 40
1.0
176
1
 90
0
176
1
 62
18
420
0
176
1
 90
50
176
1
 90
3
176
1
 62
5
420
255
176
1
290
0
176
1
 90
50
176
1
 90
50
176
1
 90
50
176
1
290
0
176
1
 90
50
176
1
 62
256
176
0
 40
1.0
176
0
 90
2
176
1
  1
strokes_ogs.tif
176
1
290
0
176
1
 40
1.0
176
1
 40
1.0
176
1
  0
VISUALSTYLE
  5
6E
102
{ACAD_REACTORS
330
16
102
}
330
16
100
AcDbVisualStyle
  2
Shades of Gray
 70
23
177
3
291
0
 70
58
 90
2
176
1
 90
2
176
1
 90
0
176
1
 90
2
176
1
 40
0.6
176
1
 40
30.0
176
1
 62
7
420
16777215
176
1
 90
1
176
1
 90
4
176
1
 62
7
176
1
 62
257
176
1
 90
1
176
1
 90
1
176
1
 40
1.0
176
1
 90
8
176
1
 62
7
176
1
 40
1.0
176
1
 90
1
176
1
 90
6
176
1
 90
2
176
1
 62
7
176
1
 90
5
176
1
 90
0
176
1
 90
0
176
1
290
0
176
1
 90
1
176
1
 40
0.0
176
1
 90
0
176
1
290
0
176
1
290
1
176
1
290
1
176
1
290
0
176
1
290
0
176
1
290
0
176
1
290
0
176
1
290
0
176
1
290
0
176
1
 90
50
176
1
 40
0.0
176
1
 40
1.0
176
1
 90
0
176
1
 62
18
420
0
176
1
 90
50
176
1
 90
3
176
1
 62
5
420
255
176
1
290
0
176
1
 90
50
176
1
 90
50
176
1
 90
50
176
1
290
0
176
1
 90
50
176
1
 62
256
176
0
 40
1.0
176
0
 90
2
176
1
  1
strokes_ogs.tif
176
1
290
0
176
1
 40
1.0
176
1
 40
1.0
176
1
  0
VISUALSTYLE
  5
6F
102
{ACAD_REACTORS
330
16
102
}
330
16
100
AcDbVisualStyle
  2
Sketchy
 70
24
177
3
291
0
 70
58
 90
2
176
1
 90
2
176
1
 90
0
176
1
 90
1
176
1
 40
0.6
176
1
 40
30.0
176
1
 62
7
420
16777215
176
1
 90
1
176
1
 90
4
176
1
 62
7
176
1
 62
257
176
1
 90
1
176
1
 90
1
176
1
 40
1.0
176
1
 90
8
176
1
 62
7
176
1
 40
1.0
176
1
 90
1
176
1
 90
6
176
1
 90
2
176
1
 62
7
176
1
 90
5
176
1
 90
0
176
1
 90
0
176
1
290
0
176
1
 90
1
176
1
 40
0.0
176
1
 90
0
176
1
290
0
176
1
290
1
176
1
290
1
176
1
290
0
176
1
290
0
176
1
290
0
176
1
290
0
176
1
290
0
176
1
290
0
176
1
 90
50
176
1
 40
0.0
176
1
 40
1.0
176
1
 90
0
176
1
 62
18
420
0
176
1
 90
50
176
1
 90
3
176
1
 62
5
420
255
176
1
290
0
176
1
 90
50
176
1
 90
50
176
1
 90
50
176
1
290
0
176
1
 90
50
176
1
 62
256
176
0
 40
1.0
176
0
 90
2
176
1
  1
strokes_ogs.tif
176
1
290
0
176
1
 40
1.0
176
1
 40
1.0
176
1
  0
VISUALSTYLE
  5
70
102
{ACAD_REACTORS
330
16
102
}
330
16
100
AcDbVisualStyle
  2
Thicken
 70
13
177
3
291
1
 70
58
 90
2
176
1
 90
2
176
1
 90
0
176
1
 90
2
176
1
 40
0.6
176
1
 40
30.0
176
1
 62
7
420
16777215
176
1
 90
1
176
1
 90
4
176
1
 62
7
176
1
 62
257
176
1
 90
1
176
1
 90
1
176
1
 40
1.0
176
1
 90
8
176
1
 62
7
176
1
 40
1.0
176
1
 90
1
176
1
 90
6
176
1
 90
2
176
1
 62
7
176
1
 90
5
176
1
 90
0
176
1
 90
0
176
1
290
0
176
1
 90
1
176
1
 40
0.0
176
1
 90
0
176
1
290
0
176
1
290
1
176
1
290
1
176
1
290
0
176
1
290
0
176
1
290
0
176
1
290
0
176
1
290
0
176
1
290
0
176
1
 90
50
176
1
 40
0.0
176
1
 40
1.0
176
1
 90
0
176
1
 62
18
420
0
176
1
 90
50
176
1
 90
3
176
1
 62
5
420
255
176
1
290
0
176
1
 90
50
176
1
 90
50
176
1
 90
50
176
1
290
0
176
1
 90
50
176
1
 62
256
176
0
 40
1.0
176
0
 90
2
176
1
  1
strokes_ogs.tif
176
1
290
0
176
1
 40
1.0
176
1
 40
1.0
176
1
  0
VISUALSTYLE
  5
71
102
{ACAD_REACTORS
330
16
102
}
330
16
100
AcDbVisualStyle
  2
Wireframe
 70
5
177
3
291
0
 70
58
 90
2
176
1
 90
2
176
1
 90
0
176
1
 90
0
176
1
 40
0.6
176
1
 40
30.0
176
1
 62
7
420
16777215
176
1
 90
1
176
1
 90
4
176
1
 62
7
176
1
 62
257
176
1
 90
1
176
1
 90
1
176
1
 40
1.0
176
1
 90
8
176
1
 62
7
176
1
 40
1.0
176
1
 90
1
176
1
 90
6
176
1
 90
2
176
1
 62
7
176
1
 90
5
176
1
 90
0
176
1
 90
0
176
1
290
0
176
1
 90
1
176
1
 40
0.0
176
1
 90
0
176
1
290
0
176
1
290
1
176
1
290
1
176
1
290
0
176
1
290
0
176
1
290
0
176
1
290
0
176
1
290
0
176
1
290
0
176
1
 90
50
176
1
 40
0.0
176
1
 40
1.0
176
1
 90
0
176
1
 62
18
420
0
176
1
 90
50
176
1
 90
3
176
1
 62
5
420
255
176
1
290
0
176
1
 90
50
176
1
 90
50
176
1
 90
50
176
1
290
0
176
1
 90
50
176
1
 62
256
176
0
 40
1.0
176
0
 90
2
176
1
  1
strokes_ogs.tif
176
1
290
0
176
1
 40
1.0
176
1
 40
1.0
176
1
  0
VISUALSTYLE
  5
72
102
{ACAD_REACTORS
330
16
102
}
330
16
100
AcDbVisualStyle
  2
X-Ray
 70
25
177
3
291
0
 70
58
 90
2
176
1
 90
2
176
1
 90
0
176
1
 90
2
176
1
 40
0.5
176
1
 40
30.0
176
1
 62
7
420
16777215
176
1
 90
1
176
1
 90
4
176
1
 62
7
176
1
 62
257
176
1
 90
1
176
1
 90
1
176
1
 40
1.0
176
1
 90
8
176
1
 62
7
176
1
 40
1.0
176
1
 90
1
176
1
 90
6
176
1
 90
2
176
1
 62
7
176
1
 90
5
176
1
 90
0
176
1
 90
0
176
1
290
0
176
1
 90
1
176
1
 40
0.0
176
1
 90
0
176
1
290
0
176
1
290
1
176
1
290
1
176
1
290
0
176
1
290
0
176
1
290
0
176
1
290
0
176
1
290
0
176
1
290
0
176
1
 90
50
176
1
 40
0.0
176
1
 40
1.0
176
1
 90
0
176
1
 62
18
420
0
176
1
 90
50
176
1
 90
3
176
1
 62
5
420
255
176
1
290
0
176
1
 90
50
176
1
 90
50
176
1
 90
50
176
1
290
0
176
1
 90
50
176
1
 62
256
176
0
 40
1.0
176
0
 90
2
176
1
  1
strokes_ogs.tif
176
1
290
0
176
1
 40
1.0
176
1
 40
1.0
176
1
  0
DICTIONARYVAR
  5
21A
330
2D
100
DictionaryVariables
280
0
  1
1.4.4 @ 2026-09-26T08:38:42.159067+00:00
  0
ENDSEC
  0
EOF
