  0
SECTION
  2
HEADER
  9
$ACADVER
  1
AC1032
  9
$ACADMAINTVER
 90
4
  9
$DWGCODEPAGE
  3
ANSI_1252
  9
$LASTSAVEDBY
  1
ezdxf
  9
$REQUIREDVERSIONS
160
0
  9
$INSBASE
 10
0.0
 20
0.0
 30
0.0
  9
$EXTMIN
 10
1e+20
 20
1e+20
 30
1e+20
  9
$EXTMAX
 10
-1e+20
 20
-1e+20
 30
-1e+20
  9
$LIMMIN
 10
0.0
 20
0.0
  9
$LIMMAX
 10
420.0
 20
297.0
  9
$ORTHOMODE
 70
0
  9
$REGENMODE
 70
1
  9
$FILLMODE
 70
1
  9
$QTEXTMODE
 70
0
  9
$MIRRTEXT
 70
1
  9
$LTSCALE
 40
1.0
  9
$ATTMODE
 70
1
  9
$TEXTSIZE
 40
2.5
  9
$TRACEWID
 40
1.0
  9
$TEXTSTYLE
  7
Standard
  9
$CLAYER
  8
0
  9
$CELTYPE
  6
ByLayer
  9
$CECOLOR
 62
256
  9
$CELTSCALE
 40
1.0
  9
$DISPSILH
 70
0
  9
$DIMSCALE
 40
1.0
  9
$DIMASZ
 40
2.5
  9
$DIMEXO
 40
0.625
  9
$DIMDLI
 40
3.75
  9
$DIMRND
 40
0.0
  9
$DIMDLE
 40
0.0
  9
$DIMEXE
 40
1.25
  9
$DIMTP
 40
0.0
  9
$DIMTM
 40
0.0
  9
$DIMTXT
 40
2.5
  9
$DIMCEN
 40
2.5
  9
$DIMTSZ
 40
0.0
  9
$DIMTOL
 70
0
  9
$DIMLIM
 70
0
  9
$DIMTIH
 70
0
  9
$DIMTOH
 70
0
  9
$DIMSE1
 70
0
  9
$DIMSE2
 70
0
  9
$DIMTAD
 70
1
  9
$DIMZIN
 70
8
  9
$DIMBLK
  1

  9
$DIMASO
 70
1
  9
$DIMSHO
 70
1
  9
$DIMPOST
  1

  9
$DIMAPOST
  1

  9
$DIMALT
 70
0
  9
$DIMALTD
 70
3
  9
$DIMALTF
 40
0.03937007874
  9
$DIMLFAC
 40
1.0
  9
$DIMTOFL
 70
1
  9
$DIMTVP
 40
0.0
  9
$DIMTIX
 70
0
  9
$DIMSOXD
 70
0
  9
$DIMSAH
 70
0
  9
$DIMBLK1
  1

  9
$DIMBLK2
  1

  9
$DIMSTYLE
  2
ISO-25
  9
$DIMCLRD
 70
0
  9
$DIMCLRE
 70
0
  9
$DIMCLRT
 70
0
  9
$DIMTFAC
 40
1.0
  9
$DIMGAP
 40
0.625
  9
$DIMJUST
 70
0
  9
$DIMSD1
 70
0
  9
$DIMSD2
 70
0
  9
$DIMTOLJ
 70
0
  9
$DIMTZIN
 70
8
  9
$DIMALTZ
 70
0
  9
$DIMALTTZ
 70
0
  9
$DIMUPT
 70
0
  9
$DIMDEC
 70
2
  9
$DIMTDEC
 70
2
  9
$DIMALTU
 70
2
  9
$DIMALTTD
 70
3
  9
$DIMTXSTY
  7
Standard
  9
$DIMAUNIT
 70
0
  9
$DIMADEC
 70
0
  9
$DIMALTRND
 40
0.0
  9
$DIMAZIN
 70
0
  9
$DIMDSEP
 70
44
  9
$DIMATFIT
 70
3
  9
$DIMFRAC
 70
0
  9
$DIMLDRBLK
  1

  9
$DIMLUNIT
 70
2
  9
$DIMLWD
 70
-2
  9
$DIMLWE
 70
-2
  9
$DIMTMOVE
 70
0
  9
$DIMFXL
 40
1.0
  9
$DIMFXLON
 70
0
  9
$DIMJOGANG
 40
0.785398163397
  9
$DIMTFILL
 70
0
  9
$DIMTFILLCLR
 70
0
  9
$DIMARCSYM
 70
0
  9
$DIMLTYPE
  6

  9
$DIMLTEX1
  6

  9
$DIMLTEX2
  6

  9
$DIMTXTDIRECTION
 70
0
  9
$LUNITS
 70
2
  9
$LUPREC
 70
4
  9
$SKETCHINC
 40
1.0
  9
$FILLETRAD
 40
10.0
  9
$AUNITS
 70
0
  9
$AUPREC
 70
2
  9
$MENU
  1
.
  9
$ELEVATION
 40
0.0
  9
$PELEVATION
 40
0.0
  9
$THICKNESS
 40
0.0
  9
$LIMCHECK
 70
0
  9
$CHAMFERA
 40
0.0
  9
$CHAMFERB
 40
0.0
  9
$CHAMFERC
 40
0.0
  9
$CHAMFERD
 40
0.0
  9
$SKPOLY
 70
0
  9
$TDCREATE
 40
2461302.668460648
  9
$TDUCREATE
 40
2458532.153996898
  9
$TDUPDATE
 40
2461302.668460648
  9
$TDUUPDATE
 40
2458532.1544311
  9
$TDINDWG
 40
0.0
  9
$TDUSRTIMER
 40
0.0
  9
$USRTIMER
 70
1
  9
$ANGBASE
 50
0.0
  9
$ANGDIR
 70
0
  9
$PDMODE
 70
0
  9
$PDSIZE
 40
0.0
  9
$PLINEWID
 40
0.0
  9
$SPLFRAME
 70
0
  9
$SPLINETYPE
 70
6
  9
$SPLINESEGS
 70
8
  9
$HANDSEED
  5
3B7
  9
$SURFTAB1
 70
6
  9
$SURFTAB2
 70
6
  9
$SURFTYPE
 70
6
  9
$SURFU
 70
6
  9
$SURFV
 70
6
  9
$UCSBASE
  2

  9
$UCSNAME
  2

  9
$UCSORG
 10
0.0
 20
0.0
 30
0.0
  9
$UCSXDIR
 10
1.0
 20
0.0
 30
0.0
  9
$UCSYDIR
 10
0.0
 20
1.0
 30
0.0
  9
$UCSORTHOREF
  2

  9
$UCSORTHOVIEW
 70
0
  9
$UCSORGTOP
 10
0.0
 20
0.0
 30
0.0
  9
$UCSORGBOTTOM
 10
0.0
 20
0.0
 30
0.0
  9
$UCSORGLEFT
 10
0.0
 20
0.0
 30
0.0
  9
$UCSORGRIGHT
 10
0.0
 20
0.0
 30
0.0
  9
$UCSORGFRONT
 10
0.0
 20
0.0
 30
0.0
  9
$UCSORGBACK
 10
0.0
 20
0.0
 30
0.0
  9
$PUCSBASE
  2

  9
$PUCSNAME
  2

  9
$PUCSORG
 10
0.0
 20
0.0
 30
0.0
  9
$PUCSXDIR
 10
1.0
 20
0.0
 30
0.0
  9
$PUCSYDIR
 10
0.0
 20
1.0
 30
0.0
  9
$PUCSORTHOREF
  2

  9
$PUCSORTHOVIEW
 70
0
  9
$PUCSORGTOP
 10
0.0
 20
0.0
 30
0.0
  9
$PUCSORGBOTTOM
 10
0.0
 20
0.0
 30
0.0
  9
$PUCSORGLEFT
 10
0.0
 20
0.0
 30
0.0
  9
$PUCSORGRIGHT
 10
0.0
 20
0.0
 30
0.0
  9
$PUCSORGFRONT
 10
0.0
 20
0.0
 30
0.0
  9
$PUCSORGBACK
 10
0.0
 20
0.0
 30
0.0
  9
$USERI1
 70
0
  9
$USERI2
 70
0
  9
$USERI3
 70
0
  9
$USERI4
 70
0
  9
$USERI5
 70
0
  9
$USERR1
 40
0.0
  9
$USERR2
 40
0.0
  9
$USERR3
 40
0.0
  9
$USERR4
 40
0.0
  9
$USERR5
 40
0.0
  9
$WORLDVIEW
 70
1
  9
$SHADEDGE
 70
3
  9
$SHADEDIF
 70
70
  9
$TILEMODE
 70
1
  9
$MAXACTVP
 70
64
  9
$PINSBASE
 10
0.0
 20
0.0
 30
0.0
  9
$PLIMCHECK
 70
0
  9
$PEXTMIN
 10
1e+20
 20
1e+20
 30
1e+20
  9
$PEXTMAX
 10
-1e+20
 20
-1e+20
 30
-1e+20
  9
$PLIMMIN
 10
0.0
 20
0.0
  9
$PLIMMAX
 10
420.0
 20
297.0
  9
$UNITMODE
 70
0
  9
$VISRETAIN
 70
1
  9
$PLINEGEN
 70
0
  9
$PSLTSCALE
 70
1
  9
$TREEDEPTH
 70
3020
  9
$CMLSTYLE
  2
Standard
  9
$CMLJUST
 70
0
  9
$CMLSCALE
 40
20.0
  9
$PROXYGRAPHICS
 70
1
  9
$MEASUREMENT
 70
1
  9
$CELWEIGHT
370
-1
  9
$ENDCAPS
280
0
  9
$JOINSTYLE
280
0
  9
$LWDISPLAY
290
0
  9
$INSUNITS
 70
4
  9
$HYPERLINKBASE
  1

  9
$STYLESHEET
  1

  9
$XEDIT
290
1
  9
$CEPSNTYPE
380
0
  9
$PSTYLEMODE
290
1
  9
$FINGERPRINTGUID
  2
{6E76156A-EE1F-4BAE-AF60-2C9D3B0AD3B7}
  9
$VERSIONGUID
  2
{37FFD73B-08D2-41BC-8551-B482F86E38C0}
  9
$EXTNAMES
290
1
  9
$PSVPSCALE
 40
0.0
  9
$OLESTARTUP
290
0
  9
$SORTENTS
280
127
  9
$INDEXCTL
280
0
  9
$HIDETEXT
280
1
  9
$XCLIPFRAME
280
1
  9
$HALOGAP
280
0
  9
$OBSCOLOR
 70
257
  9
$OBSLTYPE
280
0
  9
$INTERSECTIONDISPLAY
280
0
  9
$INTERSECTIONCOLOR
 70
257
  9
$DIMASSOC
280
2
  9
$PROJECTNAME
  1

  9
$CAMERADISPLAY
290
0
  9
$LENSLENGTH
 40
50.0
  9
$CAMERAHEIGHT
 40
0.0
  9
$STEPSPERSEC
 40
24.0
  9
$STEPSIZE
 40
100.0
  9
$3DDWFPREC
 40
2.0
  9
$PSOLWIDTH
 40
0.005
  9
$PSOLHEIGHT
 40
0.08
  9
$LOFTANG1
 40
1.570796326795
  9
$LOFTANG2
 40
1.570796326795
  9
$LOFTMAG1
 40
0.0
  9
$LOFTMAG2
 40
0.0
  9
$LOFTPARAM
 70
7
  9
$LOFTNORMALS
280
1
  9
$LATITUDE
 40
37.795
  9
$LONGITUDE
 40
-122.394
  9
$NORTHDIRECTION
 40
0.0
  9
$TIMEZONE
 70
-8000
  9
$LIGHTGLYPHDISPLAY
280
1
  9
$TILEMODELIGHTSYNCH
280
1
  9
$CMATERIAL
347
20
  9
$SOLIDHIST
280
0
  9
$SHOWHIST
280
1
  9
$DWFFRAME
280
2
  9
$DGNFRAME
280
2
  9
$REALWORLDSCALE
290
1
  9
$INTERFERECOLOR
 62
256
  9
$CSHADOW
280
0
  9
$SHADOWPLANELOCATION
 40
0.0
  0
ENDSEC
  0
SECTION
  2
CLASSES
  0
CLASS
  1
ACDBDICTIONARYWDFLT
  2
AcDbDictionaryWithDefault
  3
ObjectDBX Classes
 90
0
 91
0
280
0
281
0
  0
CLASS
  1
SUN
  2
AcDbSun
  3
SCENEOE
 90
1153
 91
0
280
0
281
0
  0
CLASS
  1
VISUALSTYLE
  2
AcDbVisualStyle
  3
ObjectDBX Classes
 90
4095
 91
0
280
0
281
0
  0
CLASS
  1
MATERIAL
  2
AcDbMaterial
  3
ObjectDBX Classes
 90
1153
 91
0
280
0
281
0
  0
CLASS
  1
SCALE
  2
AcDbScale
  3
ObjectDBX Classes
 90
1153
 91
0
280
0
281
0
  0
CLASS
  1
TABLESTYLE
  2
AcDbTableStyle
  3
ObjectDBX Classes
 90
4095
 91
0
280
0
281
0
  0
CLASS
  1
MLEADERSTYLE
  2
AcDbMLeaderStyle
  3
ACDB_MLEADERSTYLE_CLASS
 90
4095
 91
0
280
0
281
0
  0
CLASS
  1
DICTIONARYVAR
  2
AcDbDictionaryVar
  3
ObjectDBX Classes
 90
0
 91
0
280
0
281
0
  0
CLASS
  1
CELLSTYLEMAP
  2
AcDbCellStyleMap
  3
ObjectDBX Classes
 90
1152
 91
0
280
0
281
0
  0
CLASS
  1
MENTALRAYRENDERSETTINGS
  2
AcDbMentalRayRenderSettings
  3
SCENEOE
 90
1024
 91
0
280
0
281
0
  0
CLASS
  1
ACDBDETAILVIEWSTYLE
  2
AcDbDetailViewStyle
  3
ObjectDBX Classes
 90
1025
 91
0
280
0
281
0
  0
CLASS
  1
ACDBSECTIONVIEWSTYLE
  2
AcDbSectionViewStyle
  3
ObjectDBX Classes
 90
1025
 91
0
280
0
281
0
  0
CLASS
  1
RASTERVARIABLES
  2
AcDbRasterVariables
  3
ISM
 90
0
 91
0
280
0
281
0
  0
CLASS
  1
ACDBPLACEHOLDER
  2
AcDbPlaceHolder
  3
ObjectDBX Classes
 90
0
 91
0
280
0
281
0
  0
CLASS
  1
LAYOUT
  2
AcDbLayout
  3
ObjectDBX Classes
 90
0
 91
0
280
0
281
0
  0
ENDSEC
  0
SECTION
  2
TABLES
  0
TABLE
  2
VPORT
  5
8
330
0
100
AcDbSymbolTable
 70
1
  0
VPORT
  5
23
330
8
100
AcDbSymbolTableRecord
100
AcDbViewportTableRecord
  2
*Active
 70
0
 10
0.0
 20
0.0
 11
1.0
 21
1.0
 12
0.0
 22
0.0
 13
0.0
 23
0.0
 14
0.5
 24
0.5
 15
0.5
 25
0.5
 16
0.0
 26
0.0
 36
1.0
 17
0.0
 27
0.0
 37
0.0
 40
1000.0
 41
1.34
 42
50.0
 43
0.0
 44
0.0
 50
0.0
 51
0.0
 71
0
 72
1000
 73
1
 74
3
 75
0
 76
0
 77
0
 78
0
281
0
 65
0
146
0.0
  0
ENDTAB
  0
TABLE
  2
LTYPE
  5
2
330
0
100
AcDbSymbolTable
 70
5
  0
LTYPE
  5
24
330
2
100
AcDbSymbolTableRecord
100
AcDbLinetypeTableRecord
  2
ByBlock
 70
0
  3

 72
65
 73
0
 40
0.0
  0
LTYPE
  5
25
330
2
100
AcDbSymbolTableRecord
100
AcDbLinetypeTableRecord
  2
ByLayer
 70
0
  3

 72
65
 73
0
 40
0.0
  0
LTYPE
  5
26
330
2
100
AcDbSymbolTableRecord
100
AcDbLinetypeTableRecord
  2
Continuous
 70
0
  3

 72
65
 73
0
 40
0.0
  0
LTYPE
  5
3E
330
2
100
AcDbSymbolTableRecord
100
AcDbLinetypeTableRecord
  2
DASHED
 70
0
  3

 72
65
 73
2
 40
150.0
 49
100.0
 74
0
 49
-50.0
 74
0
  0
LTYPE
  5
3F
330
2
100
AcDbSymbolTableRecord
100
AcDbLinetypeTableRecord
  2
CENTER
 70
0
  3

 72
65
 73
4
 40
240.0
 49
140.0
 74
0
 49
-40.0
 74
0
 49
20.0
 74
0
 49
-40.0
 74
0
  0
ENDTAB
  0
TABLE
  2
LAYER
  5
1
330
0
100
AcDbSymbolTable
 70
17
  0
LAYER
  5
27
330
1
100
AcDbSymbolTableRecord
100
AcDbLayerTableRecord
  2
0
 70
0
 62
7
  6
Continuous
370
-3
390
13
347
21
  0
LAYER
  5
28
330
1
100
AcDbSymbolTableRecord
100
AcDbLayerTableRecord
  2
Defpoints
 70
0
 62
7
  6
Continuous
290
0
370
-3
390
13
347
21
  0
LAYER
  5
2F
330
1
100
AcDbSymbolTableRecord
100
AcDbLayerTableRecord
  2
A-WALL
 70
0
 62
7
  6
Continuous
370
50
390
13
347
21
  0
LAYER
  5
30
330
1
100
AcDbSymbolTableRecord
100
AcDbLayerTableRecord
  2
A-WINDOW
 70
0
 62
7
  6
Continuous
370
25
390
13
347
21
  0
LAYER
  5
31
330
1
100
AcDbSymbolTableRecord
100
AcDbLayerTableRecord
  2
A-DOOR
 70
0
 62
7
  6
Continuous
370
25
390
13
347
21
  0
LAYER
  5
32
330
1
100
AcDbSymbolTableRecord
100
AcDbLayerTableRecord
  2
A-FURN
 70
0
 62
7
  6
Continuous
370
25
390
13
347
21
  0
LAYER
  5
33
330
1
100
AcDbSymbolTableRecord
100
AcDbLayerTableRecord
  2
A-FIXT
 70
0
 62
7
  6
Continuous
370
25
390
13
347
21
  0
LAYER
  5
34
330
1
100
AcDbSymbolTableRecord
100
AcDbLayerTableRecord
  2
A-DIMS
 70
0
 62
7
  6
Continuous
370
18
390
13
347
21
  0
LAYER
  5
35
330
1
100
AcDbSymbolTableRecord
100
AcDbLayerTableRecord
  2
A-TEXT
 70
0
 62
7
  6
Continuous
370
18
390
13
347
21
  0
LAYER
  5
36
330
1
100
AcDbSymbolTableRecord
100
AcDbLayerTableRecord
  2
A-HATCH
 70
0
 62
7
  6
Continuous
370
25
390
13
347
21
  0
LAYER
  5
37
330
1
100
AcDbSymbolTableRecord
100
AcDbLayerTableRecord
  2
A-FRAME
 70
0
 62
7
  6
Continuous
370
25
390
13
347
21
  0
LAYER
  5
38
330
1
100
AcDbSymbolTableRecord
100
AcDbLayerTableRecord
  2
A-FLOR
 70
0
 62
7
  6
Continuous
370
25
390
13
347
21
  0
LAYER
  5
39
330
1
100
AcDbSymbolTableRecord
100
AcDbLayerTableRecord
  2
A-CEIL
 70
0
 62
7
  6
Continuous
370
25
390
13
347
21
  0
LAYER
  5
3A
330
1
100
AcDbSymbolTableRecord
100
AcDbLayerTableRecord
  2
A-ELEC
 70
0
 62
7
  6
Continuous
370
25
390
13
347
21
  0
LAYER
  5
3B
330
1
100
AcDbSymbolTableRecord
100
AcDbLayerTableRecord
  2
A-PLUM
 70
0
 62
7
  6
Continuous
370
25
390
13
347
21
  0
LAYER
  5
3C
330
1
100
AcDbSymbolTableRecord
100
AcDbLayerTableRecord
  2
A-VPORT
 70
0
 62
7
  6
Continuous
370
25
390
13
347
21
  0
LAYER
  5
3D
330
1
100
AcDbSymbolTableRecord
100
AcDbLayerTableRecord
  2
A-MASK
 70
0
 62
7
  6
Continuous
370
25
390
13
347
21
  0
ENDTAB
  0
TABLE
  2
STYLE
  5
5
330
0
100
AcDbSymbolTable
 70
2
  0
STYLE
  5
29
330
5
100
AcDbSymbolTableRecord
100
AcDbTextStyleTableRecord
  2
Standard
 70
0
 40
0.0
 41
1.0
 50
0.0
 71
0
 42
2.5
  3
txt
  4

  0
STYLE
  5
40
330
5
100
AcDbSymbolTableRecord
100
AcDbTextStyleTableRecord
  2
CN
 70
0
 40
0.0
 41
1.0
 50
0.0
 71
0
 42
2.5
  3
/Library/Fonts/Arial Unicode.ttf
  4

  0
ENDTAB
  0
TABLE
  2
VIEW
  5
7
330
0
100
AcDbSymbolTable
 70
0
  0
ENDTAB
  0
TABLE
  2
UCS
  5
6
330
0
100
AcDbSymbolTable
 70
0
  0
ENDTAB
  0
TABLE
  2
APPID
  5
3
330
0
100
AcDbSymbolTable
 70
3
  0
APPID
  5
2A
330
3
100
AcDbSymbolTableRecord
100
AcDbRegAppTableRecord
  2
ACAD
 70
0
  0
APPID
  5
340
330
3
100
AcDbSymbolTableRecord
100
AcDbRegAppTableRecord
  2
HATCHBACKGROUNDCOLOR
 70
0
  0
APPID
  5
341
330
3
100
AcDbSymbolTableRecord
100
AcDbRegAppTableRecord
  2
EZDXF
 70
0
  0
ENDTAB
  0
TABLE
  2
DIMSTYLE
  5
4
330
0
100
AcDbSymbolTable
 70
2
100
AcDbDimStyleTable
  0
DIMSTYLE
105
2B
330
4
100
AcDbSymbolTableRecord
100
AcDbDimStyleTableRecord
  2
Standard
 70
0
 40
1.0
 41
2.5
 42
0.625
 43
3.75
 44
1.25
 45
0.0
 46
0.0
 47
0.0
 48
0.0
 49
2.5
140
2.5
141
2.5
142
0.0
143
0.03937007874
144
1.0
145
0.0
146
1.0
147
0.625
148
0.0
 69
0
 70
0
 71
0
 72
0
 73
0
 74
0
 75
0
 76
0
 77
1
 78
8
 79
3
170
0
171
3
172
1
173
0
174
0
175
0
176
0
177
0
178
0
179
2
271
2
272
2
273
2
274
3
275
0
276
0
277
2
278
44
279
0
280
0
281
0
282
0
283
0
284
8
285
0
286
0
288
0
289
3
290
0
371
-2
372
-2
  0
DIMSTYLE
105
41
330
4
100
AcDbSymbolTableRecord
100
AcDbDimStyleTableRecord
  2
ARCH
 70
0
 40
1.0
 41
140.0
 42
60.0
 43
3.75
 44
120.0
 45
0.0
 46
0.0
 47
0.0
 48
0.0
 49
2.5
140
200.0
141
2.5
142
0.0
143
0.03937007874
144
1.0
145
0.0
146
1.0
147
60.0
148
0.0
 69
0
 70
0
 71
0
 72
0
 73
0
 74
0
 75
0
 76
0
 77
1
 78
8
 79
3
170
0
171
3
172
1
173
0
174
0
175
0
176
0
177
0
178
0
179
2
271
0
272
2
273
2
274
3
275
0
276
0
277
2
278
44
279
0
280
0
281
0
282
0
283
0
284
8
285
0
286
0
288
0
289
3
290
0
340
40
342
322
371
-2
372
-2
  0
ENDTAB
  0
TABLE
  2
BLOCK_RECORD
  5
9
330
0
100
AcDbSymbolTable
 70
47
  0
BLOCK_RECORD
  5
17
330
9
100
AcDbSymbolTableRecord
100
AcDbBlockTableRecord
  2
*Model_Space
340
1A
 70
0
280
1
281
0
  0
BLOCK_RECORD
  5
1B
330
9
100
AcDbSymbolTableRecord
100
AcDbBlockTableRecord
  2
*Paper_Space
340
1E
 70
0
280
1
281
0
  0
BLOCK_RECORD
  5
A2
330
9
100
AcDbSymbolTableRecord
100
AcDbBlockTableRecord
  2
FURN_001
340
0
 70
0
280
1
281
0
  0
BLOCK_RECORD
  5
AD
330
9
100
AcDbSymbolTableRecord
100
AcDbBlockTableRecord
  2
FURN_002
340
0
 70
0
280
1
281
0
  0
BLOCK_RECORD
  5
B8
330
9
100
AcDbSymbolTableRecord
100
AcDbBlockTableRecord
  2
FURN_003
340
0
 70
0
280
1
281
0
  0
BLOCK_RECORD
  5
C3
330
9
100
AcDbSymbolTableRecord
100
AcDbBlockTableRecord
  2
FURN_004
340
0
 70
0
280
1
281
0
  0
BLOCK_RECORD
  5
CC
330
9
100
AcDbSymbolTableRecord
100
AcDbBlockTableRecord
  2
FURN_005
340
0
 70
0
280
1
281
0
  0
BLOCK_RECORD
  5
D5
330
9
100
AcDbSymbolTableRecord
100
AcDbBlockTableRecord
  2
FURN_006
340
0
 70
0
280
1
281
0
  0
BLOCK_RECORD
  5
DE
330
9
100
AcDbSymbolTableRecord
100
AcDbBlockTableRecord
  2
FURN_007
340
0
 70
0
280
1
281
0
  0
BLOCK_RECORD
  5
E7
330
9
100
AcDbSymbolTableRecord
100
AcDbBlockTableRecord
  2
FURN_008
340
0
 70
0
280
1
281
0
  0
BLOCK_RECORD
  5
F0
330
9
100
AcDbSymbolTableRecord
100
AcDbBlockTableRecord
  2
FURN_009
340
0
 70
0
280
1
281
0
  0
BLOCK_RECORD
  5
F9
330
9
100
AcDbSymbolTableRecord
100
AcDbBlockTableRecord
  2
FURN_010
340
0
 70
0
280
1
281
0
  0
BLOCK_RECORD
  5
102
330
9
100
AcDbSymbolTableRecord
100
AcDbBlockTableRecord
  2
FURN_011
340
0
 70
0
280
1
281
0
  0
BLOCK_RECORD
  5
10B
330
9
100
AcDbSymbolTableRecord
100
AcDbBlockTableRecord
  2
FURN_012
340
0
 70
0
280
1
281
0
  0
BLOCK_RECORD
  5
114
330
9
100
AcDbSymbolTableRecord
100
AcDbBlockTableRecord
  2
FURN_013
340
0
 70
0
280
1
281
0
  0
BLOCK_RECORD
  5
11D
330
9
100
AcDbSymbolTableRecord
100
AcDbBlockTableRecord
  2
FURN_014
340
0
 70
0
280
1
281
0
  0
BLOCK_RECORD
  5
125
330
9
100
AcDbSymbolTableRecord
100
AcDbBlockTableRecord
  2
FURN_015
340
0
 70
0
280
1
281
0
  0
BLOCK_RECORD
  5
12D
330
9
100
AcDbSymbolTableRecord
100
AcDbBlockTableRecord
  2
FURN_016
340
0
 70
0
280
1
281
0
  0
BLOCK_RECORD
  5
135
330
9
100
AcDbSymbolTableRecord
100
AcDbBlockTableRecord
  2
FURN_017
340
0
 70
0
280
1
281
0
  0
BLOCK_RECORD
  5
13D
330
9
100
AcDbSymbolTableRecord
100
AcDbBlockTableRecord
  2
FURN_018
340
0
 70
0
280
1
281
0
  0
BLOCK_RECORD
  5
145
330
9
100
AcDbSymbolTableRecord
100
AcDbBlockTableRecord
  2
FURN_019
340
0
 70
0
280
1
281
0
  0
BLOCK_RECORD
  5
151
330
9
100
AcDbSymbolTableRecord
100
AcDbBlockTableRecord
  2
FURN_020
340
0
 70
0
280
1
281
0
  0
BLOCK_RECORD
  5
15A
330
9
100
AcDbSymbolTableRecord
100
AcDbBlockTableRecord
  2
FURN_021
340
0
 70
0
280
1
281
0
  0
BLOCK_RECORD
  5
165
330
9
100
AcDbSymbolTableRecord
100
AcDbBlockTableRecord
  2
FURN_022
340
0
 70
0
280
1
281
0
  0
BLOCK_RECORD
  5
16E
330
9
100
AcDbSymbolTableRecord
100
AcDbBlockTableRecord
  2
FURN_023
340
0
 70
0
280
1
281
0
  0
BLOCK_RECORD
  5
177
330
9
100
AcDbSymbolTableRecord
100
AcDbBlockTableRecord
  2
FURN_024
340
0
 70
0
280
1
281
0
  0
BLOCK_RECORD
  5
182
330
9
100
AcDbSymbolTableRecord
100
AcDbBlockTableRecord
  2
FURN_025
340
0
 70
0
280
1
281
0
  0
BLOCK_RECORD
  5
18B
330
9
100
AcDbSymbolTableRecord
100
AcDbBlockTableRecord
  2
FURN_026
340
0
 70
0
280
1
281
0
  0
BLOCK_RECORD
  5
194
330
9
100
AcDbSymbolTableRecord
100
AcDbBlockTableRecord
  2
FURN_027
340
0
 70
0
280
1
281
0
  0
BLOCK_RECORD
  5
19D
330
9
100
AcDbSymbolTableRecord
100
AcDbBlockTableRecord
  2
FURN_028
340
0
 70
0
280
1
281
0
  0
BLOCK_RECORD
  5
1A6
330
9
100
AcDbSymbolTableRecord
100
AcDbBlockTableRecord
  2
FURN_029
340
0
 70
0
280
1
281
0
  0
BLOCK_RECORD
  5
1AF
330
9
100
AcDbSymbolTableRecord
100
AcDbBlockTableRecord
  2
FURN_030
340
0
 70
0
280
1
281
0
  0
BLOCK_RECORD
  5
1B8
330
9
100
AcDbSymbolTableRecord
100
AcDbBlockTableRecord
  2
FURN_031
340
0
 70
0
280
1
281
0
  0
BLOCK_RECORD
  5
1C1
330
9
100
AcDbSymbolTableRecord
100
AcDbBlockTableRecord
  2
FURN_032
340
0
 70
0
280
1
281
0
  0
BLOCK_RECORD
  5
1CA
330
9
100
AcDbSymbolTableRecord
100
AcDbBlockTableRecord
  2
FURN_033
340
0
 70
0
280
1
281
0
  0
BLOCK_RECORD
  5
1D3
330
9
100
AcDbSymbolTableRecord
100
AcDbBlockTableRecord
  2
FURN_034
340
0
 70
0
280
1
281
0
  0
BLOCK_RECORD
  5
1DC
330
9
100
AcDbSymbolTableRecord
100
AcDbBlockTableRecord
  2
FURN_035
340
0
 70
0
280
1
281
0
  0
BLOCK_RECORD
  5
1E5
330
9
100
AcDbSymbolTableRecord
100
AcDbBlockTableRecord
  2
FURN_036
340
0
 70
0
280
1
281
0
  0
BLOCK_RECORD
  5
1EE
330
9
100
AcDbSymbolTableRecord
100
AcDbBlockTableRecord
  2
FURN_037
340
0
 70
0
280
1
281
0
  0
BLOCK_RECORD
  5
1F6
330
9
100
AcDbSymbolTableRecord
100
AcDbBlockTableRecord
  2
FURN_038
340
0
 70
0
280
1
281
0
  0
BLOCK_RECORD
  5
1FF
330
9
100
AcDbSymbolTableRecord
100
AcDbBlockTableRecord
  2
FURN_039
340
0
 70
0
280
1
281
0
  0
BLOCK_RECORD
  5
20A
330
9
100
AcDbSymbolTableRecord
100
AcDbBlockTableRecord
  2
FURN_040
340
0
 70
0
280
1
281
0
  0
BLOCK_RECORD
  5
212
330
9
100
AcDbSymbolTableRecord
100
AcDbBlockTableRecord
  2
FURN_041
340
0
 70
0
280
1
281
0
  0
BLOCK_RECORD
  5
31D
330
9
100
AcDbSymbolTableRecord
100
AcDbBlockTableRecord
  2
*D1
340
0
 70
0
280
1
281
0
  0
BLOCK_RECORD
  5
322
330
9
100
AcDbSymbolTableRecord
100
AcDbBlockTableRecord
  2
_ARCHTICK
340
0
 70
0
280
1
281
0
  0
BLOCK_RECORD
  5
331
330
9
100
AcDbSymbolTableRecord
100
AcDbBlockTableRecord
  2
*D2
340
0
 70
0
280
1
281
0
  0
BLOCK_RECORD
  5
343
330
9
100
AcDbSymbolTableRecord
100
AcDbBlockTableRecord
  2
*Paper_Space0
340
346
 70
0
280
1
281
0
  0
ENDTAB
  0
ENDSEC
  0
SECTION
  2
BLOCKS
  0
BLOCK
  5
18
330
17
100
AcDbEntity
  8
0
100
AcDbBlockBegin
  2
*Model_Space
 70
0
 10
0.0
 20
0.0
 30
0.0
  3
*Model_Space
  1

  0
ENDBLK
  5
19
330
17
100
AcDbEntity
  8
0
100
AcDbBlockEnd
  0
BLOCK
  5
1C
330
1B
100
AcDbEntity
  8
0
100
AcDbBlockBegin
  2
*Paper_Space
 70
0
 10
0.0
 20
0.0
 30
0.0
  3
*Paper_Space
  1

  0
ENDBLK
  5
1D
330
1B
100
AcDbEntity
  8
0
100
AcDbBlockEnd
  0
BLOCK
  5
A3
330
A2
100
AcDbEntity
  8
0
100
AcDbBlockBegin
  2
FURN_001
 70
0
 10
0.0
 20
0.0
 30
0.0
  3
FURN_001
  1

  0
LWPOLYLINE
  5
A5
330
A2
100
AcDbEntity
  8
A-FURN
370
25
100
AcDbPolyline
 90
4
 70
1
 10
0.0
 20
0.0
 10
2101.48
 20
0.0
 10
2101.48
 20
1836.3400000000001
 10
0.0
 20
1836.3400000000001
  0
LWPOLYLINE
  5
A6
330
A2
100
AcDbEntity
  8
A-FURN
370
25
100
AcDbPolyline
 90
4
 70
1
 10
2038.4356
 20
91.81700000000001
 10
1660.1692
 20
91.81700000000001
 10
1660.1692
 20
1744.5230000000001
 10
2038.4356
 20
1744.5230000000001
  0
LWPOLYLINE
  5
A7
330
A2
100
AcDbEntity
  8
A-FURN
370
25
100
AcDbPolyline
 90
4
 70
1
 10
1597.1248
 20
165.2706
 10
168.11839999999984
 20
165.2706
 10
168.11839999999984
 20
1671.0694
 10
1597.1248
 20
1671.0694
  0
LWPOLYLINE
  5
A8
330
A2
100
AcDbEntity
  8
A-FURN
370
25
100
AcDbPolyline
 90
4
 70
1
 10
1954.3764
 20
257.08760000000007
 10
1702.1988000000001
 20
257.08760000000007
 10
1702.1988000000001
 20
789.6262
 10
1954.3764
 20
789.6262
  0
LWPOLYLINE
  5
A9
330
A2
100
AcDbEntity
  8
A-FURN
370
25
100
AcDbPolyline
 90
4
 70
1
 10
1954.3764
 20
1046.7138
 10
1702.1988000000001
 20
1046.7138
 10
1702.1988000000001
 20
1579.2523999999999
 10
1954.3764
 20
1579.2523999999999
  0
LINE
  5
AA
330
A2
100
AcDbEntity
  8
A-FURN
370
25
100
AcDbLine
 10
1471.036
 20
165.2706
 30
0.0
 11
1471.036
 21
1671.0694
 31
0.0
  0
ENDBLK
  5
A4
330
A2
100
AcDbEntity
  8
0
100
AcDbBlockEnd
  0
BLOCK
  5
AE
330
AD
100
AcDbEntity
  8
0
100
AcDbBlockBegin
  2
FURN_002
 70
0
 10
0.0
 20
0.0
 30
0.0
  3
FURN_002
  1

  0
LWPOLYLINE
  5
B0
330
AD
100
AcDbEntity
  8
A-FURN
370
25
100
AcDbPolyline
 90
4
 70
1
 10
0.0
 20
0.0
 10
2111.3
 20
0.0
 10
2111.3
 20
1816.7
 10
0.0
 20
1816.7
  0
LWPOLYLINE
  5
B1
330
AD
100
AcDbEntity
  8
A-FURN
370
25
100
AcDbPolyline
 90
4
 70
1
 10
2047.9610000000002
 20
90.83500000000001
 10
1667.9270000000001
 20
90.83500000000001
 10
1667.9270000000001
 20
1725.865
 10
2047.9610000000002
 20
1725.865
  0
LWPOLYLINE
  5
B2
330
AD
100
AcDbEntity
  8
A-FURN
370
25
100
AcDbPolyline
 90
4
 70
1
 10
1604.5880000000002
 20
163.503
 10
168.904
 20
163.503
 10
168.904
 20
1653.197
 10
1604.5880000000002
 20
1653.197
  0
LWPOLYLINE
  5
B3
330
AD
100
AcDbEntity
  8
A-FURN
370
25
100
AcDbPolyline
 90
4
 70
1
 10
1963.5090000000002
 20
254.33800000000002
 10
1710.1530000000002
 20
254.33800000000002
 10
1710.1530000000002
 20
781.181
 10
1963.5090000000002
 20
781.181
  0
LWPOLYLINE
  5
B4
330
AD
100
AcDbEntity
  8
A-FURN
370
25
100
AcDbPolyline
 90
4
 70
1
 10
1963.5090000000002
 20
1035.519
 10
1710.1530000000002
 20
1035.519
 10
1710.1530000000002
 20
1562.362
 10
1963.5090000000002
 20
1562.362
  0
LINE
  5
B5
330
AD
100
AcDbEntity
  8
A-FURN
370
25
100
AcDbLine
 10
1477.9100000000003
 20
163.503
 30
0.0
 11
1477.9100000000003
 21
1653.1970000000001
 31
0.0
  0
ENDBLK
  5
AF
330
AD
100
AcDbEntity
  8
0
100
AcDbBlockEnd
  0
BLOCK
  5
B9
330
B8
100
AcDbEntity
  8
0
100
AcDbBlockBegin
  2
FURN_003
 70
0
 10
0.0
 20
0.0
 30
0.0
  3
FURN_003
  1

  0
LWPOLYLINE
  5
BB
330
B8
100
AcDbEntity
  8
A-FURN
370
25
100
AcDbPolyline
 90
4
 70
1
 10
0.0
 20
0.0
 10
2101.48
 20
0.0
 10
2101.48
 20
1551.56
 10
0.0
 20
1551.56
  0
LWPOLYLINE
  5
BC
330
B8
100
AcDbEntity
  8
A-FURN
370
25
100
AcDbPolyline
 90
4
 70
1
 10
2038.4356
 20
77.578
 10
1660.1692
 20
77.578
 10
1660.1692
 20
1473.982
 10
2038.4356
 20
1473.982
  0
LWPOLYLINE
  5
BD
330
B8
100
AcDbEntity
  8
A-FURN
370
25
100
AcDbPolyline
 90
4
 70
1
 10
1597.1248
 20
139.6404
 10
168.11839999999984
 20
139.6404
 10
168.11839999999984
 20
1411.9196
 10
1597.1248
 20
1411.9196
  0
LWPOLYLINE
  5
BE
330
B8
100
AcDbEntity
  8
A-FURN
370
25
100
AcDbPolyline
 90
4
 70
1
 10
1954.3764
 20
217.2184
 10
1702.1988000000001
 20
217.2184
 10
1702.1988000000001
 20
667.1708
 10
1954.3764
 20
667.1708
  0
LWPOLYLINE
  5
BF
330
B8
100
AcDbEntity
  8
A-FURN
370
25
100
AcDbPolyline
 90
4
 70
1
 10
1954.3764
 20
884.3891999999998
 10
1702.1988000000001
 20
884.3891999999998
 10
1702.1988000000001
 20
1334.3415999999997
 10
1954.3764
 20
1334.3415999999997
  0
LINE
  5
C0
330
B8
100
AcDbEntity
  8
A-FURN
370
25
100
AcDbLine
 10
1471.036
 20
139.6404
 30
0.0
 11
1471.036
 21
1411.9196
 31
0.0
  0
ENDBLK
  5
BA
330
B8
100
AcDbEntity
  8
0
100
AcDbBlockEnd
  0
BLOCK
  5
C4
330
C3
100
AcDbEntity
  8
0
100
AcDbBlockBegin
  2
FURN_004
 70
0
 10
0.0
 20
0.0
 30
0.0
  3
FURN_004
  1

  0
LWPOLYLINE
  5
C6
330
C3
100
AcDbEntity
  8
A-FURN
370
25
100
AcDbPolyline
 90
4
 70
1
 10
0.0
 20
0.0
 10
589.2
 20
0.0
 10
589.2
 20
2307.7000000000003
 10
0.0
 20
2307.7000000000003
  0
LWPOLYLINE
  5
C7
330
C3
100
AcDbEntity
  8
A-FURN
370
25
100
AcDbPolyline
 90
4
 70
1
 10
47.136
 20
47.136
 10
542.0640000000001
 20
47.136
 10
542.0640000000001
 20
2260.5640000000003
 10
47.136
 20
2260.5640000000003
  0
LINE
  5
C8
330
C3
100
AcDbEntity
  8
A-FURN
370
25
100
AcDbLine
 10
0.0
 20
761.5410000000002
 30
0.0
 11
589.2
 21
761.5410000000002
 31
0.0
  0
LINE
  5
C9
330
C3
100
AcDbEntity
  8
A-FURN
370
25
100
AcDbLine
 10
0.0
 20
1546.1590000000003
 30
0.0
 11
589.2
 21
1546.1590000000003
 31
0.0
  0
ENDBLK
  5
C5
330
C3
100
AcDbEntity
  8
0
100
AcDbBlockEnd
  0
BLOCK
  5
CD
330
CC
100
AcDbEntity
  8
0
100
AcDbBlockBegin
  2
FURN_005
 70
0
 10
0.0
 20
0.0
 30
0.0
  3
FURN_005
  1

  0
LWPOLYLINE
  5
CF
330
CC
100
AcDbEntity
  8
A-FIXT
370
25
100
AcDbPolyline
 90
4
 70
1
 10
0.0
 20
0.0
 10
3574.48
 20
0.0
 10
3574.48
 20
599.02
 10
0.0
 20
599.02
  0
LWPOLYLINE
  5
D0
330
CC
100
AcDbEntity
  8
A-FIXT
370
25
100
AcDbPolyline
 90
4
 70
1
 10
47.9216
 20
47.9216
 10
3526.5584000000003
 20
47.9216
 10
3526.5584000000003
 20
551.0984
 10
47.9216
 20
551.0984
  0
LINE
  5
D1
330
CC
100
AcDbEntity
  8
A-FIXT
370
25
100
AcDbLine
 10
1179.5784
 20
0.0
 30
0.0
 11
1179.5784
 21
599.02
 31
0.0
  0
LINE
  5
D2
330
CC
100
AcDbEntity
  8
A-FIXT
370
25
100
AcDbLine
 10
2394.9016
 20
0.0
 30
0.0
 11
2394.9016
 21
599.02
 31
0.0
  0
ENDBLK
  5
CE
330
CC
100
AcDbEntity
  8
0
100
AcDbBlockEnd
  0
BLOCK
  5
D6
330
D5
100
AcDbEntity
  8
0
100
AcDbBlockBegin
  2
FURN_006
 70
0
 10
0.0
 20
0.0
 30
0.0
  3
FURN_006
  1

  0
LWPOLYLINE
  5
D8
330
D5
100
AcDbEntity
  8
A-FURN
370
25
100
AcDbPolyline
 90
4
 70
1
 10
0.0
 20
0.0
 10
1315.88
 20
0.0
 10
1315.88
 20
265.14
 10
0.0
 20
265.14
  0
LWPOLYLINE
  5
D9
330
D5
100
AcDbEntity
  8
A-FURN
370
25
100
AcDbPolyline
 90
4
 70
1
 10
21.211199999999998
 20
21.211199999999998
 10
1294.6688000000001
 20
21.211199999999998
 10
1294.6688000000001
 20
243.9288
 10
21.211199999999998
 20
243.9288
  0
LINE
  5
DA
330
D5
100
AcDbEntity
  8
A-FURN
370
25
100
AcDbLine
 10
434.2404000000001
 20
0.0
 30
0.0
 11
434.2404000000001
 21
265.14
 31
0.0
  0
LINE
  5
DB
330
D5
100
AcDbEntity
  8
A-FURN
370
25
100
AcDbLine
 10
881.6396000000001
 20
0.0
 30
0.0
 11
881.6396000000001
 21
265.14
 31
0.0
  0
ENDBLK
  5
D7
330
D5
100
AcDbEntity
  8
0
100
AcDbBlockEnd
  0
BLOCK
  5
DF
330
DE
100
AcDbEntity
  8
0
100
AcDbBlockBegin
  2
FURN_007
 70
0
 10
0.0
 20
0.0
 30
0.0
  3
FURN_007
  1

  0
LWPOLYLINE
  5
E1
330
DE
100
AcDbEntity
  8
A-FIXT
370
25
100
AcDbPolyline
 90
4
 70
1
 10
0.0
 20
0.0
 10
500.0344
 20
0.0
 10
500.0344
 20
600.0020000000001
 10
0.0
 20
600.0020000000001
  0
LWPOLYLINE
  5
E2
330
DE
100
AcDbEntity
  8
A-FIXT
370
25
100
AcDbPolyline
 90
4
 70
1
 10
75.00516
 20
84.00028000000002
 10
425.02923999999996
 20
84.00028000000002
 10
425.02923999999996
 20
516.0017200000001
 10
75.00516
 20
516.0017200000001
  0
CIRCLE
  5
E3
330
DE
100
AcDbEntity
  8
A-FIXT
370
25
100
AcDbCircle
 10
275.01892000000004
 20
300.00100000000003
 30
0.0
 40
22.0
  0
LINE
  5
E4
330
DE
100
AcDbEntity
  8
A-FIXT
370
25
100
AcDbLine
 10
25.001720000000002
 20
300.00100000000003
 30
0.0
 11
100.00688000000001
 21
300.00100000000003
 31
0.0
  0
ENDBLK
  5
E0
330
DE
100
AcDbEntity
  8
0
100
AcDbBlockEnd
  0
BLOCK
  5
E8
330
E7
100
AcDbEntity
  8
0
100
AcDbBlockBegin
  2
FURN_008
 70
0
 10
0.0
 20
0.0
 30
0.0
  3
FURN_008
  1

  0
LWPOLYLINE
  5
EA
330
E7
100
AcDbEntity
  8
A-FIXT
370
25
100
AcDbPolyline
 90
4
 70
1
 10
0.0
 20
0.0
 10
699.9696
 20
0.0
 10
699.9696
 20
399.9686
 10
0.0
 20
399.9686
  0
LWPOLYLINE
  5
EB
330
E7
100
AcDbEntity
  8
A-FIXT
370
25
100
AcDbPolyline
 90
4
 70
1
 10
0.0
 20
47.996232
 10
160.993008
 20
47.996232
 10
160.993008
 20
351.972368
 10
0.0
 20
351.972368
  0
ELLIPSE
  5
EC
330
E7
100
AcDbEntity
  8
A-FIXT
370
25
100
AcDbEllipse
 10
412.982064
 20
199.9843
 30
0.0
 11
223.990272
 21
0.0
 31
0.0
 40
0.6249780794051626
 41
0.0
 42
6.283185307179586
  0
ELLIPSE
  5
ED
330
E7
100
AcDbEntity
  8
A-FIXT
370
25
100
AcDbEllipse
 10
398.982672
 20
199.9843
 30
0.0
 11
160.993008
 21
0.0
 31
0.0
 40
0.5962523788610745
 41
0.0
 42
6.283185307179586
  0
ENDBLK
  5
E9
330
E7
100
AcDbEntity
  8
0
100
AcDbBlockEnd
  0
BLOCK
  5
F1
330
F0
100
AcDbEntity
  8
0
100
AcDbBlockBegin
  2
FURN_009
 70
0
 10
0.0
 20
0.0
 30
0.0
  3
FURN_009
  1

  0
LWPOLYLINE
  5
F3
330
F0
100
AcDbEntity
  8
A-FIXT
370
25
100
AcDbPolyline
 90
4
 70
1
 10
0.0
 20
0.0
 10
1492.64
 20
0.0
 10
1492.64
 20
1011.46
 10
0.0
 20
1011.46
  0
LINE
  5
F4
330
F0
100
AcDbEntity
  8
A-FIXT
370
25
100
AcDbLine
 10
0.0
 20
0.0
 30
0.0
 11
1492.64
 21
1011.46
 31
0.0
  0
LINE
  5
F5
330
F0
100
AcDbEntity
  8
A-FIXT
370
25
100
AcDbLine
 10
0.0
 20
1011.46
 30
0.0
 11
1492.64
 21
0.0
 31
0.0
  0
LWPOLYLINE
  5
F6
330
F0
100
AcDbEntity
  8
A-FIXT
370
25
100
AcDbPolyline
 90
4
 70
1
 10
671.6880000000001
 20
455.15700000000004
 10
741.6880000000001
 20
455.15700000000004
 10
741.6880000000001
 20
525.157
 10
671.6880000000001
 20
525.157
  0
ENDBLK
  5
F2
330
F0
100
AcDbEntity
  8
0
100
AcDbBlockEnd
  0
BLOCK
  5
FA
330
F9
100
AcDbEntity
  8
0
100
AcDbBlockBegin
  2
FURN_010
 70
0
 10
0.0
 20
0.0
 30
0.0
  3
FURN_010
  1

  0
LWPOLYLINE
  5
FC
330
F9
100
AcDbEntity
  8
A-FIXT
370
25
100
AcDbPolyline
 90
4
 70
1
 10
0.0
 20
0.0
 10
697.22
 20
0.0
 10
697.22
 20
893.62
 10
0.0
 20
893.62
  0
LWPOLYLINE
  5
FD
330
F9
100
AcDbEntity
  8
A-FIXT
370
25
100
AcDbPolyline
 90
4
 70
1
 10
55.77760000000001
 20
55.77760000000001
 10
641.4424
 20
55.77760000000001
 10
641.4424
 20
837.8424
 10
55.77760000000001
 20
837.8424
  0
LINE
  5
FE
330
F9
100
AcDbEntity
  8
A-FIXT
370
25
100
AcDbLine
 10
0.0
 20
294.8946
 30
0.0
 11
697.22
 21
294.8946
 31
0.0
  0
LINE
  5
FF
330
F9
100
AcDbEntity
  8
A-FIXT
370
25
100
AcDbLine
 10
0.0
 20
598.7254
 30
0.0
 11
697.22
 21
598.7254
 31
0.0
  0
ENDBLK
  5
FB
330
F9
100
AcDbEntity
  8
0
100
AcDbBlockEnd
  0
BLOCK
  5
103
330
102
100
AcDbEntity
  8
0
100
AcDbBlockBegin
  2
FURN_011
 70
0
 10
0.0
 20
0.0
 30
0.0
  3
FURN_011
  1

  0
LWPOLYLINE
  5
105
330
102
100
AcDbEntity
  8
A-FIXT
370
25
100
AcDbPolyline
 90
4
 70
1
 10
0.0
 20
0.0
 10
618.66
 20
0.0
 10
618.66
 20
893.62
 10
0.0
 20
893.62
  0
LWPOLYLINE
  5
106
330
102
100
AcDbEntity
  8
A-FIXT
370
25
100
AcDbPolyline
 90
4
 70
1
 10
49.492799999999995
 20
49.492799999999995
 10
569.1672
 20
49.492799999999995
 10
569.1672
 20
844.1272
 10
49.492799999999995
 20
844.1272
  0
LINE
  5
107
330
102
100
AcDbEntity
  8
A-FIXT
370
25
100
AcDbLine
 10
0.0
 20
294.8946
 30
0.0
 11
618.66
 21
294.8946
 31
0.0
  0
LINE
  5
108
330
102
100
AcDbEntity
  8
A-FIXT
370
25
100
AcDbLine
 10
0.0
 20
598.7254
 30
0.0
 11
618.66
 21
598.7254
 31
0.0
  0
ENDBLK
  5
104
330
102
100
AcDbEntity
  8
0
100
AcDbBlockEnd
  0
BLOCK
  5
10C
330
10B
100
AcDbEntity
  8
0
100
AcDbBlockBegin
  2
FURN_012
 70
0
 10
0.0
 20
0.0
 30
0.0
  3
FURN_012
  1

  0
LWPOLYLINE
  5
10E
330
10B
100
AcDbEntity
  8
A-FIXT
370
25
100
AcDbPolyline
 90
4
 70
1
 10
0.0
 20
0.0
 10
618.66
 20
0.0
 10
618.66
 20
687.4
 10
0.0
 20
687.4
  0
LWPOLYLINE
  5
10F
330
10B
100
AcDbEntity
  8
A-FIXT
370
25
100
AcDbPolyline
 90
4
 70
1
 10
49.492799999999995
 20
49.492799999999995
 10
569.1672
 20
49.492799999999995
 10
569.1672
 20
637.9072
 10
49.492799999999995
 20
637.9072
  0
LINE
  5
110
330
10B
100
AcDbEntity
  8
A-FIXT
370
25
100
AcDbLine
 10
0.0
 20
226.842
 30
0.0
 11
618.66
 21
226.842
 31
0.0
  0
LINE
  5
111
330
10B
100
AcDbEntity
  8
A-FIXT
370
25
100
AcDbLine
 10
0.0
 20
460.558
 30
0.0
 11
618.66
 21
460.558
 31
0.0
  0
ENDBLK
  5
10D
330
10B
100
AcDbEntity
  8
0
100
AcDbBlockEnd
  0
BLOCK
  5
115
330
114
100
AcDbEntity
  8
0
100
AcDbBlockBegin
  2
FURN_013
 70
0
 10
0.0
 20
0.0
 30
0.0
  3
FURN_013
  1

  0
LWPOLYLINE
  5
117
330
114
100
AcDbEntity
  8
A-FURN
370
25
100
AcDbPolyline
 90
4
 70
1
 10
0.0
 20
0.0
 10
618.66
 20
0.0
 10
618.66
 20
716.86
 10
0.0
 20
716.86
  0
LWPOLYLINE
  5
118
330
114
100
AcDbEntity
  8
A-FURN
370
25
100
AcDbPolyline
 90
4
 70
1
 10
49.492799999999995
 20
49.492799999999995
 10
569.1672
 20
49.492799999999995
 10
569.1672
 20
667.3672
 10
49.492799999999995
 20
667.3672
  0
LINE
  5
119
330
114
100
AcDbEntity
  8
A-FURN
370
25
100
AcDbLine
 10
0.0
 20
236.56380000000001
 30
0.0
 11
618.66
 21
236.56380000000001
 31
0.0
  0
LINE
  5
11A
330
114
100
AcDbEntity
  8
A-FURN
370
25
100
AcDbLine
 10
0.0
 20
480.29620000000006
 30
0.0
 11
618.66
 21
480.29620000000006
 31
0.0
  0
ENDBLK
  5
116
330
114
100
AcDbEntity
  8
0
100
AcDbBlockEnd
  0
BLOCK
  5
11E
330
11D
100
AcDbEntity
  8
0
100
AcDbBlockBegin
  2
FURN_014
 70
0
 10
0.0
 20
0.0
 30
0.0
  3
FURN_014
  1

  0
LWPOLYLINE
  5
120
330
11D
100
AcDbEntity
  8
A-FURN
370
25
100
AcDbPolyline
 90
4
 70
1
 10
0.0
 20
0.0
 10
1423.9
 20
0.0
 10
1423.9
 20
805.24
 10
0.0
 20
805.24
  0
LWPOLYLINE
  5
121
330
11D
100
AcDbEntity
  8
A-FURN
370
25
100
AcDbPolyline
 90
4
 70
1
 10
170.868
 20
96.6288
 10
1253.032
 20
96.6288
 10
1253.032
 20
660.2968
 10
170.868
 20
660.2968
  0
LWPOLYLINE
  5
122
330
11D
100
AcDbEntity
  8
A-FURN
370
25
100
AcDbPolyline
 90
4
 70
1
 10
113.912
 20
660.2968
 10
1309.988
 20
660.2968
 10
1309.988
 20
781.0827999999999
 10
113.912
 20
781.0827999999999
  0
ENDBLK
  5
11F
330
11D
100
AcDbEntity
  8
0
100
AcDbBlockEnd
  0
BLOCK
  5
126
330
125
100
AcDbEntity
  8
0
100
AcDbBlockBegin
  2
FURN_015
 70
0
 10
0.0
 20
0.0
 30
0.0
  3
FURN_015
  1

  0
LWPOLYLINE
  5
128
330
125
100
AcDbEntity
  8
A-FURN
370
25
100
AcDbPolyline
 90
4
 70
1
 10
0.0
 20
0.0
 10
373.16
 20
0.0
 10
373.16
 20
373.16
 10
0.0
 20
373.16
  0
LWPOLYLINE
  5
129
330
125
100
AcDbEntity
  8
A-FURN
370
25
100
AcDbPolyline
 90
4
 70
1
 10
44.7792
 20
44.7792
 10
328.3808
 20
44.7792
 10
328.3808
 20
305.9912
 10
44.7792
 20
305.9912
  0
LWPOLYLINE
  5
12A
330
125
100
AcDbEntity
  8
A-FURN
370
25
100
AcDbPolyline
 90
4
 70
1
 10
29.852800000000002
 20
305.9912
 10
343.3072
 20
305.9912
 10
343.3072
 20
361.9652
 10
29.852800000000002
 20
361.9652
  0
ENDBLK
  5
127
330
125
100
AcDbEntity
  8
0
100
AcDbBlockEnd
  0
BLOCK
  5
12E
330
12D
100
AcDbEntity
  8
0
100
AcDbBlockBegin
  2
FURN_016
 70
0
 10
0.0
 20
0.0
 30
0.0
  3
FURN_016
  1

  0
LWPOLYLINE
  5
130
330
12D
100
AcDbEntity
  8
A-FURN
370
25
100
AcDbPolyline
 90
4
 70
1
 10
0.0
 20
0.0
 10
373.16
 20
0.0
 10
373.16
 20
373.16
 10
0.0
 20
373.16
  0
LWPOLYLINE
  5
131
330
12D
100
AcDbEntity
  8
A-FURN
370
25
100
AcDbPolyline
 90
4
 70
1
 10
44.7792
 20
44.7792
 10
328.3808
 20
44.7792
 10
328.3808
 20
305.9912
 10
44.7792
 20
305.9912
  0
LWPOLYLINE
  5
132
330
12D
100
AcDbEntity
  8
A-FURN
370
25
100
AcDbPolyline
 90
4
 70
1
 10
29.852800000000002
 20
305.9912
 10
343.3072
 20
305.9912
 10
343.3072
 20
361.9652
 10
29.852800000000002
 20
361.9652
  0
ENDBLK
  5
12F
330
12D
100
AcDbEntity
  8
0
100
AcDbBlockEnd
  0
BLOCK
  5
136
330
135
100
AcDbEntity
  8
0
100
AcDbBlockBegin
  2
FURN_017
 70
0
 10
0.0
 20
0.0
 30
0.0
  3
FURN_017
  1

  0
LWPOLYLINE
  5
138
330
135
100
AcDbEntity
  8
A-FURN
370
25
100
AcDbPolyline
 90
4
 70
1
 10
0.0
 20
0.0
 10
373.16
 20
0.0
 10
373.16
 20
373.16
 10
0.0
 20
373.16
  0
LWPOLYLINE
  5
139
330
135
100
AcDbEntity
  8
A-FURN
370
25
100
AcDbPolyline
 90
4
 70
1
 10
44.7792
 20
44.7792
 10
328.3808
 20
44.7792
 10
328.3808
 20
305.9912
 10
44.7792
 20
305.9912
  0
LWPOLYLINE
  5
13A
330
135
100
AcDbEntity
  8
A-FURN
370
25
100
AcDbPolyline
 90
4
 70
1
 10
29.852800000000002
 20
305.9912
 10
343.3072
 20
305.9912
 10
343.3072
 20
361.9652
 10
29.852800000000002
 20
361.9652
  0
ENDBLK
  5
137
330
135
100
AcDbEntity
  8
0
100
AcDbBlockEnd
  0
BLOCK
  5
13E
330
13D
100
AcDbEntity
  8
0
100
AcDbBlockBegin
  2
FURN_018
 70
0
 10
0.0
 20
0.0
 30
0.0
  3
FURN_018
  1

  0
LWPOLYLINE
  5
140
330
13D
100
AcDbEntity
  8
A-FURN
370
25
100
AcDbPolyline
 90
4
 70
1
 10
0.0
 20
0.0
 10
373.16
 20
0.0
 10
373.16
 20
373.16
 10
0.0
 20
373.16
  0
LWPOLYLINE
  5
141
330
13D
100
AcDbEntity
  8
A-FURN
370
25
100
AcDbPolyline
 90
4
 70
1
 10
44.7792
 20
44.7792
 10
328.3808
 20
44.7792
 10
328.3808
 20
305.9912
 10
44.7792
 20
305.9912
  0
LWPOLYLINE
  5
142
330
13D
100
AcDbEntity
  8
A-FURN
370
25
100
AcDbPolyline
 90
4
 70
1
 10
29.852800000000002
 20
305.9912
 10
343.3072
 20
305.9912
 10
343.3072
 20
361.9652
 10
29.852800000000002
 20
361.9652
  0
ENDBLK
  5
13F
330
13D
100
AcDbEntity
  8
0
100
AcDbBlockEnd
  0
BLOCK
  5
146
330
145
100
AcDbEntity
  8
0
100
AcDbBlockBegin
  2
FURN_019
 70
0
 10
0.0
 20
0.0
 30
0.0
  3
FURN_019
  1

  0
LWPOLYLINE
  5
148
330
145
100
AcDbEntity
  8
A-FURN
370
25
100
AcDbPolyline
 90
4
 70
1
 10
0.0
 20
0.0
 10
903.44
 20
0.0
 10
903.44
 20
2199.6800000000003
 10
0.0
 20
2199.6800000000003
  0
LWPOLYLINE
  5
149
330
145
100
AcDbEntity
  8
A-FURN
370
25
100
AcDbPolyline
 90
4
 70
1
 10
659.5112
 20
0.0
 10
903.44
 20
0.0
 10
903.44
 20
2199.6800000000003
 10
659.5112
 20
2199.6800000000003
  0
LWPOLYLINE
  5
14A
330
145
100
AcDbEntity
  8
A-FURN
370
25
100
AcDbPolyline
 90
4
 70
1
 10
0.0
 20
0.0
 10
659.5112
 20
0.0
 10
659.5112
 20
263.96160000000003
 10
0.0
 20
263.96160000000003
  0
LWPOLYLINE
  5
14B
330
145
100
AcDbEntity
  8
A-FURN
370
25
100
AcDbPolyline
 90
4
 70
1
 10
0.0
 20
1935.7184000000002
 10
659.5112
 20
1935.7184000000002
 10
659.5112
 20
2199.6800000000003
 10
0.0
 20
2199.6800000000003
  0
LWPOLYLINE
  5
14C
330
145
100
AcDbEntity
  8
A-FURN
370
25
100
AcDbPolyline
 90
4
 70
1
 10
45.172000000000004
 20
263.96160000000003
 10
623.3736000000001
 20
263.96160000000003
 10
623.3736000000001
 20
791.8848
 10
45.172000000000004
 20
791.8848
  0
LWPOLYLINE
  5
14D
330
145
100
AcDbEntity
  8
A-FURN
370
25
100
AcDbPolyline
 90
4
 70
1
 10
45.172000000000004
 20
835.8784000000002
 10
623.3736000000001
 20
835.8784000000002
 10
623.3736000000001
 20
1363.8016000000002
 10
45.172000000000004
 20
1363.8016000000002
  0
LWPOLYLINE
  5
14E
330
145
100
AcDbEntity
  8
A-FURN
370
25
100
AcDbPolyline
 90
4
 70
1
 10
45.172000000000004
 20
1407.7952000000002
 10
623.3736000000001
 20
1407.7952000000002
 10
623.3736000000001
 20
1935.7184000000002
 10
45.172000000000004
 20
1935.7184000000002
  0
ENDBLK
  5
147
330
145
100
AcDbEntity
  8
0
100
AcDbBlockEnd
  0
BLOCK
  5
152
330
151
100
AcDbEntity
  8
0
100
AcDbBlockBegin
  2
FURN_020
 70
0
 10
0.0
 20
0.0
 30
0.0
  3
FURN_020
  1

  0
LWPOLYLINE
  5
154
330
151
100
AcDbEntity
  8
A-FURN
370
25
100
AcDbPolyline
 90
4
 70
1
 10
0.0
 20
0.0
 10
343.7
 20
0.0
 10
343.7
 20
1806.88
 10
0.0
 20
1806.88
  0
LWPOLYLINE
  5
155
330
151
100
AcDbEntity
  8
A-FURN
370
25
100
AcDbPolyline
 90
4
 70
1
 10
27.496
 20
27.496
 10
316.20399999999995
 20
27.496
 10
316.20399999999995
 20
1779.3840000000002
 10
27.496
 20
1779.3840000000002
  0
LINE
  5
156
330
151
100
AcDbEntity
  8
A-FURN
370
25
100
AcDbLine
 10
0.0
 20
596.2704000000001
 30
0.0
 11
343.7
 21
596.2704000000001
 31
0.0
  0
LINE
  5
157
330
151
100
AcDbEntity
  8
A-FURN
370
25
100
AcDbLine
 10
0.0
 20
1210.6096000000002
 30
0.0
 11
343.7
 21
1210.6096000000002
 31
0.0
  0
ENDBLK
  5
153
330
151
100
AcDbEntity
  8
0
100
AcDbBlockEnd
  0
BLOCK
  5
15B
330
15A
100
AcDbEntity
  8
0
100
AcDbBlockBegin
  2
FURN_021
 70
0
 10
0.0
 20
0.0
 30
0.0
  3
FURN_021
  1

  0
LWPOLYLINE
  5
15D
330
15A
100
AcDbEntity
  8
A-FURN
370
25
100
AcDbPolyline
 90
4
 70
1
 10
0.0
 20
0.0
 10
549.9200000000001
 20
0.0
 10
549.9200000000001
 20
893.62
 10
0.0
 20
893.62
  0
LWPOLYLINE
  5
15E
330
15A
100
AcDbEntity
  8
A-FURN
370
25
100
AcDbPolyline
 90
4
 70
1
 10
21.996800000000004
 20
35.7448
 10
527.9232000000001
 20
35.7448
 10
527.9232000000001
 20
857.8752
 10
21.996800000000004
 20
857.8752
  0
LWPOLYLINE
  5
15F
330
15A
100
AcDbEntity
  8
A-FURN
370
25
100
AcDbPolyline
 90
4
 70
1
 10
43.99360000000001
 20
71.4896
 10
73.99360000000001
 20
71.4896
 10
73.99360000000001
 20
101.4896
 10
43.99360000000001
 20
101.4896
  0
LWPOLYLINE
  5
160
330
15A
100
AcDbEntity
  8
A-FURN
370
25
100
AcDbPolyline
 90
4
 70
1
 10
43.99360000000001
 20
786.3856
 10
73.99360000000001
 20
786.3856
 10
73.99360000000001
 20
816.3856
 10
43.99360000000001
 20
816.3856
  0
LWPOLYLINE
  5
161
330
15A
100
AcDbEntity
  8
A-FURN
370
25
100
AcDbPolyline
 90
4
 70
1
 10
483.92960000000005
 20
71.4896
 10
513.9296
 20
71.4896
 10
513.9296
 20
101.4896
 10
483.92960000000005
 20
101.4896
  0
LWPOLYLINE
  5
162
330
15A
100
AcDbEntity
  8
A-FURN
370
25
100
AcDbPolyline
 90
4
 70
1
 10
483.92960000000005
 20
786.3856
 10
513.9296
 20
786.3856
 10
513.9296
 20
816.3856
 10
483.92960000000005
 20
816.3856
  0
ENDBLK
  5
15C
330
15A
100
AcDbEntity
  8
0
100
AcDbBlockEnd
  0
BLOCK
  5
166
330
165
100
AcDbEntity
  8
0
100
AcDbBlockBegin
  2
FURN_022
 70
0
 10
0.0
 20
0.0
 30
0.0
  3
FURN_022
  1

  0
LWPOLYLINE
  5
168
330
165
100
AcDbEntity
  8
A-FURN
370
25
100
AcDbPolyline
 90
4
 70
1
 10
0.0
 20
0.0
 10
402.62
 20
0.0
 10
402.62
 20
1983.64
 10
0.0
 20
1983.64
  0
LWPOLYLINE
  5
169
330
165
100
AcDbEntity
  8
A-FURN
370
25
100
AcDbPolyline
 90
4
 70
1
 10
32.2096
 20
32.2096
 10
370.41040000000004
 20
32.2096
 10
370.41040000000004
 20
1951.4304
 10
32.2096
 20
1951.4304
  0
LINE
  5
16A
330
165
100
AcDbEntity
  8
A-FURN
370
25
100
AcDbLine
 10
0.0
 20
654.6012000000001
 30
0.0
 11
402.62
 21
654.6012000000001
 31
0.0
  0
LINE
  5
16B
330
165
100
AcDbEntity
  8
A-FURN
370
25
100
AcDbLine
 10
0.0
 20
1329.0388
 30
0.0
 11
402.62
 21
1329.0388
 31
0.0
  0
ENDBLK
  5
167
330
165
100
AcDbEntity
  8
0
100
AcDbBlockEnd
  0
BLOCK
  5
16F
330
16E
100
AcDbEntity
  8
0
100
AcDbBlockBegin
  2
FURN_023
 70
0
 10
0.0
 20
0.0
 30
0.0
  3
FURN_023
  1

  0
LWPOLYLINE
  5
171
330
16E
100
AcDbEntity
  8
A-FURN
370
25
100
AcDbPolyline
 90
4
 70
1
 10
0.0
 20
0.0
 10
402.62
 20
0.0
 10
402.62
 20
903.44
 10
0.0
 20
903.44
  0
LWPOLYLINE
  5
172
330
16E
100
AcDbEntity
  8
A-FURN
370
25
100
AcDbPolyline
 90
4
 70
1
 10
32.2096
 20
32.2096
 10
370.41040000000004
 20
32.2096
 10
370.41040000000004
 20
871.2304
 10
32.2096
 20
871.2304
  0
LINE
  5
173
330
16E
100
AcDbEntity
  8
A-FURN
370
25
100
AcDbLine
 10
0.0
 20
298.13520000000005
 30
0.0
 11
402.62
 21
298.13520000000005
 31
0.0
  0
LINE
  5
174
330
16E
100
AcDbEntity
  8
A-FURN
370
25
100
AcDbLine
 10
0.0
 20
605.3048000000001
 30
0.0
 11
402.62
 21
605.3048000000001
 31
0.0
  0
ENDBLK
  5
170
330
16E
100
AcDbEntity
  8
0
100
AcDbBlockEnd
  0
BLOCK
  5
178
330
177
100
AcDbEntity
  8
0
100
AcDbBlockBegin
  2
FURN_024
 70
0
 10
0.0
 20
0.0
 30
0.0
  3
FURN_024
  1

  0
LWPOLYLINE
  5
17A
330
177
100
AcDbEntity
  8
A-FURN
370
25
100
AcDbPolyline
 90
4
 70
1
 10
0.0
 20
0.0
 10
412.44
 20
0.0
 10
412.44
 20
412.44
 10
0.0
 20
412.44
  0
LWPOLYLINE
  5
17B
330
177
100
AcDbEntity
  8
A-FURN
370
25
100
AcDbPolyline
 90
4
 70
1
 10
16.4976
 20
16.4976
 10
395.94239999999996
 20
16.4976
 10
395.94239999999996
 20
395.94239999999996
 10
16.4976
 20
395.94239999999996
  0
LWPOLYLINE
  5
17C
330
177
100
AcDbEntity
  8
A-FURN
370
25
100
AcDbPolyline
 90
4
 70
1
 10
32.9952
 20
32.9952
 10
62.9952
 20
32.9952
 10
62.9952
 20
62.9952
 10
32.9952
 20
62.9952
  0
LWPOLYLINE
  5
17D
330
177
100
AcDbEntity
  8
A-FURN
370
25
100
AcDbPolyline
 90
4
 70
1
 10
32.9952
 20
362.9472
 10
62.9952
 20
362.9472
 10
62.9952
 20
392.9472
 10
32.9952
 20
392.9472
  0
LWPOLYLINE
  5
17E
330
177
100
AcDbEntity
  8
A-FURN
370
25
100
AcDbPolyline
 90
4
 70
1
 10
362.9472
 20
32.9952
 10
392.9472
 20
32.9952
 10
392.9472
 20
62.9952
 10
362.9472
 20
62.9952
  0
LWPOLYLINE
  5
17F
330
177
100
AcDbEntity
  8
A-FURN
370
25
100
AcDbPolyline
 90
4
 70
1
 10
362.9472
 20
362.9472
 10
392.9472
 20
362.9472
 10
392.9472
 20
392.9472
 10
362.9472
 20
392.9472
  0
ENDBLK
  5
179
330
177
100
AcDbEntity
  8
0
100
AcDbBlockEnd
  0
BLOCK
  5
183
330
182
100
AcDbEntity
  8
0
100
AcDbBlockBegin
  2
FURN_025
 70
0
 10
0.0
 20
0.0
 30
0.0
  3
FURN_025
  1

  0
LWPOLYLINE
  5
185
330
182
100
AcDbEntity
  8
A-FIXT
370
25
100
AcDbPolyline
 90
4
 70
1
 10
0.0
 20
0.0
 10
1757.78
 20
0.0
 10
1757.78
 20
1021.28
 10
0.0
 20
1021.28
  0
LINE
  5
186
330
182
100
AcDbEntity
  8
A-FIXT
370
25
100
AcDbLine
 10
0.0
 20
0.0
 30
0.0
 11
1757.78
 21
1021.28
 31
0.0
  0
LINE
  5
187
330
182
100
AcDbEntity
  8
A-FIXT
370
25
100
AcDbLine
 10
0.0
 20
1021.28
 30
0.0
 11
1757.78
 21
0.0
 31
0.0
  0
LWPOLYLINE
  5
188
330
182
100
AcDbEntity
  8
A-FIXT
370
25
100
AcDbPolyline
 90
4
 70
1
 10
791.001
 20
459.576
 10
861.001
 20
459.576
 10
861.001
 20
529.576
 10
791.001
 20
529.576
  0
ENDBLK
  5
184
330
182
100
AcDbEntity
  8
0
100
AcDbBlockEnd
  0
BLOCK
  5
18C
330
18B
100
AcDbEntity
  8
0
100
AcDbBlockBegin
  2
FURN_026
 70
0
 10
0.0
 20
0.0
 30
0.0
  3
FURN_026
  1

  0
LWPOLYLINE
  5
18E
330
18B
100
AcDbEntity
  8
A-FIXT
370
25
100
AcDbPolyline
 90
4
 70
1
 10
0.0
 20
0.0
 10
699.9696
 20
0.0
 10
699.9696
 20
399.9686
 10
0.0
 20
399.9686
  0
LWPOLYLINE
  5
18F
330
18B
100
AcDbEntity
  8
A-FIXT
370
25
100
AcDbPolyline
 90
4
 70
1
 10
0.0
 20
47.996232
 10
160.993008
 20
47.996232
 10
160.993008
 20
351.972368
 10
0.0
 20
351.972368
  0
ELLIPSE
  5
190
330
18B
100
AcDbEntity
  8
A-FIXT
370
25
100
AcDbEllipse
 10
412.982064
 20
199.9843
 30
0.0
 11
223.990272
 21
0.0
 31
0.0
 40
0.6249780794051626
 41
0.0
 42
6.283185307179586
  0
ELLIPSE
  5
191
330
18B
100
AcDbEntity
  8
A-FIXT
370
25
100
AcDbEllipse
 10
398.982672
 20
199.9843
 30
0.0
 11
160.993008
 21
0.0
 31
0.0
 40
0.5962523788610745
 41
0.0
 42
6.283185307179586
  0
ENDBLK
  5
18D
330
18B
100
AcDbEntity
  8
0
100
AcDbBlockEnd
  0
BLOCK
  5
195
330
194
100
AcDbEntity
  8
0
100
AcDbBlockBegin
  2
FURN_027
 70
0
 10
0.0
 20
0.0
 30
0.0
  3
FURN_027
  1

  0
LWPOLYLINE
  5
197
330
194
100
AcDbEntity
  8
A-FIXT
370
25
100
AcDbPolyline
 90
4
 70
1
 10
0.0
 20
0.0
 10
500.0344
 20
0.0
 10
500.0344
 20
600.0020000000001
 10
0.0
 20
600.0020000000001
  0
LWPOLYLINE
  5
198
330
194
100
AcDbEntity
  8
A-FIXT
370
25
100
AcDbPolyline
 90
4
 70
1
 10
75.00516
 20
84.00028000000002
 10
425.02923999999996
 20
84.00028000000002
 10
425.02923999999996
 20
516.0017200000001
 10
75.00516
 20
516.0017200000001
  0
CIRCLE
  5
199
330
194
100
AcDbEntity
  8
A-FIXT
370
25
100
AcDbCircle
 10
275.01892000000004
 20
300.00100000000003
 30
0.0
 40
22.0
  0
LINE
  5
19A
330
194
100
AcDbEntity
  8
A-FIXT
370
25
100
AcDbLine
 10
25.001720000000002
 20
300.00100000000003
 30
0.0
 11
100.00688000000001
 21
300.00100000000003
 31
0.0
  0
ENDBLK
  5
196
330
194
100
AcDbEntity
  8
0
100
AcDbBlockEnd
  0
BLOCK
  5
19E
330
19D
100
AcDbEntity
  8
0
100
AcDbBlockBegin
  2
FURN_028
 70
0
 10
0.0
 20
0.0
 30
0.0
  3
FURN_028
  1

  0
LWPOLYLINE
  5
1A0
330
19D
100
AcDbEntity
  8
A-FIXT
370
25
100
AcDbPolyline
 90
4
 70
1
 10
0.0
 20
0.0
 10
149.9514
 20
0.0
 10
149.9514
 20
600.0020000000001
 10
0.0
 20
600.0020000000001
  0
LWPOLYLINE
  5
1A1
330
19D
100
AcDbEntity
  8
A-FIXT
370
25
100
AcDbPolyline
 90
4
 70
1
 10
11.996112
 20
11.996112
 10
137.95528800000002
 20
11.996112
 10
137.95528800000002
 20
588.0058880000001
 10
11.996112
 20
588.0058880000001
  0
LINE
  5
1A2
330
19D
100
AcDbEntity
  8
A-FIXT
370
25
100
AcDbLine
 10
0.0
 20
198.00066000000004
 30
0.0
 11
149.9514
 21
198.00066000000004
 31
0.0
  0
LINE
  5
1A3
330
19D
100
AcDbEntity
  8
A-FIXT
370
25
100
AcDbLine
 10
0.0
 20
402.0013400000001
 30
0.0
 11
149.9514
 21
402.0013400000001
 31
0.0
  0
ENDBLK
  5
19F
330
19D
100
AcDbEntity
  8
0
100
AcDbBlockEnd
  0
BLOCK
  5
1A7
330
1A6
100
AcDbEntity
  8
0
100
AcDbBlockBegin
  2
FURN_029
 70
0
 10
0.0
 20
0.0
 30
0.0
  3
FURN_029
  1

  0
LWPOLYLINE
  5
1A9
330
1A6
100
AcDbEntity
  8
A-FURN
370
25
100
AcDbPolyline
 90
4
 70
1
 10
0.0
 20
0.0
 10
2199.6800000000003
 20
0.0
 10
2199.6800000000003
 20
589.2
 10
0.0
 20
589.2
  0
LWPOLYLINE
  5
1AA
330
1A6
100
AcDbEntity
  8
A-FURN
370
25
100
AcDbPolyline
 90
4
 70
1
 10
47.136
 20
47.136
 10
2152.5440000000003
 20
47.136
 10
2152.5440000000003
 20
542.0640000000001
 10
47.136
 20
542.0640000000001
  0
LINE
  5
1AB
330
1A6
100
AcDbEntity
  8
A-FURN
370
25
100
AcDbLine
 10
725.8944000000001
 20
0.0
 30
0.0
 11
725.8944000000001
 21
589.2
 31
0.0
  0
LINE
  5
1AC
330
1A6
100
AcDbEntity
  8
A-FURN
370
25
100
AcDbLine
 10
1473.7856000000004
 20
0.0
 30
0.0
 11
1473.7856000000004
 21
589.2
 31
0.0
  0
ENDBLK
  5
1A8
330
1A6
100
AcDbEntity
  8
0
100
AcDbBlockEnd
  0
BLOCK
  5
1B0
330
1AF
100
AcDbEntity
  8
0
100
AcDbBlockBegin
  2
FURN_030
 70
0
 10
0.0
 20
0.0
 30
0.0
  3
FURN_030
  1

  0
LWPOLYLINE
  5
1B2
330
1AF
100
AcDbEntity
  8
A-FURN
370
25
100
AcDbPolyline
 90
4
 70
1
 10
0.0
 20
0.0
 10
589.2
 20
0.0
 10
589.2
 20
1423.9
 10
0.0
 20
1423.9
  0
LWPOLYLINE
  5
1B3
330
1AF
100
AcDbEntity
  8
A-FURN
370
25
100
AcDbPolyline
 90
4
 70
1
 10
47.136
 20
47.136
 10
542.0640000000001
 20
47.136
 10
542.0640000000001
 20
1376.7640000000001
 10
47.136
 20
1376.7640000000001
  0
LINE
  5
1B4
330
1AF
100
AcDbEntity
  8
A-FURN
370
25
100
AcDbLine
 10
0.0
 20
469.88700000000006
 30
0.0
 11
589.2
 21
469.88700000000006
 31
0.0
  0
LINE
  5
1B5
330
1AF
100
AcDbEntity
  8
A-FURN
370
25
100
AcDbLine
 10
0.0
 20
954.0130000000001
 30
0.0
 11
589.2
 21
954.0130000000001
 31
0.0
  0
ENDBLK
  5
1B1
330
1AF
100
AcDbEntity
  8
0
100
AcDbBlockEnd
  0
BLOCK
  5
1B9
330
1B8
100
AcDbEntity
  8
0
100
AcDbBlockBegin
  2
FURN_031
 70
0
 10
0.0
 20
0.0
 30
0.0
  3
FURN_031
  1

  0
LWPOLYLINE
  5
1BB
330
1B8
100
AcDbEntity
  8
A-FURN
370
25
100
AcDbPolyline
 90
4
 70
1
 10
0.0
 20
0.0
 10
510.64
 20
0.0
 10
510.64
 20
2013.1000000000001
 10
0.0
 20
2013.1000000000001
  0
LWPOLYLINE
  5
1BC
330
1B8
100
AcDbEntity
  8
A-FURN
370
25
100
AcDbPolyline
 90
4
 70
1
 10
40.8512
 20
40.8512
 10
469.7888
 20
40.8512
 10
469.7888
 20
1972.2488000000003
 10
40.8512
 20
1972.2488000000003
  0
LINE
  5
1BD
330
1B8
100
AcDbEntity
  8
A-FURN
370
25
100
AcDbLine
 10
0.0
 20
664.3230000000001
 30
0.0
 11
510.64
 21
664.3230000000001
 31
0.0
  0
LINE
  5
1BE
330
1B8
100
AcDbEntity
  8
A-FURN
370
25
100
AcDbLine
 10
0.0
 20
1348.7770000000003
 30
0.0
 11
510.64
 21
1348.7770000000003
 31
0.0
  0
ENDBLK
  5
1BA
330
1B8
100
AcDbEntity
  8
0
100
AcDbBlockEnd
  0
BLOCK
  5
1C2
330
1C1
100
AcDbEntity
  8
0
100
AcDbBlockBegin
  2
FURN_032
 70
0
 10
0.0
 20
0.0
 30
0.0
  3
FURN_032
  1

  0
LWPOLYLINE
  5
1C4
330
1C1
100
AcDbEntity
  8
A-FURN
370
25
100
AcDbPolyline
 90
4
 70
1
 10
0.0
 20
0.0
 10
1993.46
 20
0.0
 10
1993.46
 20
618.66
 10
0.0
 20
618.66
  0
LWPOLYLINE
  5
1C5
330
1C1
100
AcDbEntity
  8
A-FURN
370
25
100
AcDbPolyline
 90
4
 70
1
 10
49.492799999999995
 20
49.492799999999995
 10
1943.9672
 20
49.492799999999995
 10
1943.9672
 20
569.1672
 10
49.492799999999995
 20
569.1672
  0
LINE
  5
1C6
330
1C1
100
AcDbEntity
  8
A-FURN
370
25
100
AcDbLine
 10
657.8418
 20
0.0
 30
0.0
 11
657.8418
 21
618.66
 31
0.0
  0
LINE
  5
1C7
330
1C1
100
AcDbEntity
  8
A-FURN
370
25
100
AcDbLine
 10
1335.6182000000001
 20
0.0
 30
0.0
 11
1335.6182000000001
 21
618.66
 31
0.0
  0
ENDBLK
  5
1C3
330
1C1
100
AcDbEntity
  8
0
100
AcDbBlockEnd
  0
BLOCK
  5
1CB
330
1CA
100
AcDbEntity
  8
0
100
AcDbBlockBegin
  2
FURN_033
 70
0
 10
0.0
 20
0.0
 30
0.0
  3
FURN_033
  1

  0
LWPOLYLINE
  5
1CD
330
1CA
100
AcDbEntity
  8
A-FURN
370
25
100
AcDbPolyline
 90
4
 70
1
 10
0.0
 20
0.0
 10
599.02
 20
0.0
 10
599.02
 20
1600.66
 10
0.0
 20
1600.66
  0
LWPOLYLINE
  5
1CE
330
1CA
100
AcDbEntity
  8
A-FURN
370
25
100
AcDbPolyline
 90
4
 70
1
 10
47.9216
 20
47.9216
 10
551.0984
 20
47.9216
 10
551.0984
 20
1552.7384
 10
47.9216
 20
1552.7384
  0
LINE
  5
1CF
330
1CA
100
AcDbEntity
  8
A-FURN
370
25
100
AcDbLine
 10
0.0
 20
528.2178
 30
0.0
 11
599.02
 21
528.2178
 31
0.0
  0
LINE
  5
1D0
330
1CA
100
AcDbEntity
  8
A-FURN
370
25
100
AcDbLine
 10
0.0
 20
1072.4422000000002
 30
0.0
 11
599.02
 21
1072.4422000000002
 31
0.0
  0
ENDBLK
  5
1CC
330
1CA
100
AcDbEntity
  8
0
100
AcDbBlockEnd
  0
BLOCK
  5
1D4
330
1D3
100
AcDbEntity
  8
0
100
AcDbBlockBegin
  2
FURN_034
 70
0
 10
0.0
 20
0.0
 30
0.0
  3
FURN_034
  1

  0
LWPOLYLINE
  5
1D6
330
1D3
100
AcDbEntity
  8
A-FURN
370
25
100
AcDbPolyline
 90
4
 70
1
 10
0.0
 20
0.0
 10
569.5600000000001
 20
0.0
 10
569.5600000000001
 20
1600.66
 10
0.0
 20
1600.66
  0
LWPOLYLINE
  5
1D7
330
1D3
100
AcDbEntity
  8
A-FURN
370
25
100
AcDbPolyline
 90
4
 70
1
 10
45.564800000000005
 20
45.564800000000005
 10
523.9952000000001
 20
45.564800000000005
 10
523.9952000000001
 20
1555.0952000000002
 10
45.564800000000005
 20
1555.0952000000002
  0
LINE
  5
1D8
330
1D3
100
AcDbEntity
  8
A-FURN
370
25
100
AcDbLine
 10
0.0
 20
528.2178
 30
0.0
 11
569.5600000000001
 21
528.2178
 31
0.0
  0
LINE
  5
1D9
330
1D3
100
AcDbEntity
  8
A-FURN
370
25
100
AcDbLine
 10
0.0
 20
1072.4422000000002
 30
0.0
 11
569.5600000000001
 21
1072.4422000000002
 31
0.0
  0
ENDBLK
  5
1D5
330
1D3
100
AcDbEntity
  8
0
100
AcDbBlockEnd
  0
BLOCK
  5
1DD
330
1DC
100
AcDbEntity
  8
0
100
AcDbBlockBegin
  2
FURN_035
 70
0
 10
0.0
 20
0.0
 30
0.0
  3
FURN_035
  1

  0
LWPOLYLINE
  5
1DF
330
1DC
100
AcDbEntity
  8
A-FURN
370
25
100
AcDbPolyline
 90
4
 70
1
 10
0.0
 20
0.0
 10
304.42
 20
0.0
 10
304.42
 20
1600.66
 10
0.0
 20
1600.66
  0
LWPOLYLINE
  5
1E0
330
1DC
100
AcDbEntity
  8
A-FURN
370
25
100
AcDbPolyline
 90
4
 70
1
 10
24.3536
 20
24.3536
 10
280.06640000000004
 20
24.3536
 10
280.06640000000004
 20
1576.3064
 10
24.3536
 20
1576.3064
  0
LINE
  5
1E1
330
1DC
100
AcDbEntity
  8
A-FURN
370
25
100
AcDbLine
 10
0.0
 20
528.2178
 30
0.0
 11
304.42
 21
528.2178
 31
0.0
  0
LINE
  5
1E2
330
1DC
100
AcDbEntity
  8
A-FURN
370
25
100
AcDbLine
 10
0.0
 20
1072.4422000000002
 30
0.0
 11
304.42
 21
1072.4422000000002
 31
0.0
  0
ENDBLK
  5
1DE
330
1DC
100
AcDbEntity
  8
0
100
AcDbBlockEnd
  0
BLOCK
  5
1E6
330
1E5
100
AcDbEntity
  8
0
100
AcDbBlockBegin
  2
FURN_036
 70
0
 10
0.0
 20
0.0
 30
0.0
  3
FURN_036
  1

  0
LWPOLYLINE
  5
1E8
330
1E5
100
AcDbEntity
  8
A-FURN
370
25
100
AcDbPolyline
 90
4
 70
1
 10
0.0
 20
0.0
 10
1198.04
 20
0.0
 10
1198.04
 20
451.72
 10
0.0
 20
451.72
  0
LWPOLYLINE
  5
1E9
330
1E5
100
AcDbEntity
  8
A-FURN
370
25
100
AcDbPolyline
 90
4
 70
1
 10
36.137600000000006
 20
36.137600000000006
 10
1161.9024
 20
36.137600000000006
 10
1161.9024
 20
415.5824
 10
36.137600000000006
 20
415.5824
  0
LINE
  5
1EA
330
1E5
100
AcDbEntity
  8
A-FURN
370
25
100
AcDbLine
 10
395.3532
 20
0.0
 30
0.0
 11
395.3532
 21
451.72
 31
0.0
  0
LINE
  5
1EB
330
1E5
100
AcDbEntity
  8
A-FURN
370
25
100
AcDbLine
 10
802.6868000000001
 20
0.0
 30
0.0
 11
802.6868000000001
 21
451.72
 31
0.0
  0
ENDBLK
  5
1E7
330
1E5
100
AcDbEntity
  8
0
100
AcDbBlockEnd
  0
BLOCK
  5
1EF
330
1EE
100
AcDbEntity
  8
0
100
AcDbBlockBegin
  2
FURN_037
 70
0
 10
0.0
 20
0.0
 30
0.0
  3
FURN_037
  1

  0
LWPOLYLINE
  5
1F1
330
1EE
100
AcDbEntity
  8
A-FURN
370
25
100
AcDbPolyline
 90
4
 70
1
 10
0.0
 20
0.0
 10
451.72
 20
0.0
 10
451.72
 20
481.18
 10
0.0
 20
481.18
  0
LWPOLYLINE
  5
1F2
330
1EE
100
AcDbEntity
  8
A-FURN
370
25
100
AcDbPolyline
 90
4
 70
1
 10
54.2064
 20
57.7416
 10
397.5136
 20
57.7416
 10
397.5136
 20
394.56759999999997
 10
54.2064
 20
394.56759999999997
  0
LWPOLYLINE
  5
1F3
330
1EE
100
AcDbEntity
  8
A-FURN
370
25
100
AcDbPolyline
 90
4
 70
1
 10
36.137600000000006
 20
394.56759999999997
 10
415.5824
 20
394.56759999999997
 10
415.5824
 20
466.7446
 10
36.137600000000006
 20
466.7446
  0
ENDBLK
  5
1F0
330
1EE
100
AcDbEntity
  8
0
100
AcDbBlockEnd
  0
BLOCK
  5
1F7
330
1F6
100
AcDbEntity
  8
0
100
AcDbBlockBegin
  2
FURN_038
 70
0
 10
0.0
 20
0.0
 30
0.0
  3
FURN_038
  1

  0
LWPOLYLINE
  5
1F9
330
1F6
100
AcDbEntity
  8
A-FURN
370
25
100
AcDbPolyline
 90
4
 70
1
 10
0.0
 20
0.0
 10
88.38
 20
0.0
 10
88.38
 20
608.84
 10
0.0
 20
608.84
  0
LWPOLYLINE
  5
1FA
330
1F6
100
AcDbEntity
  8
A-FURN
370
25
100
AcDbPolyline
 90
4
 70
1
 10
7.070399999999999
 20
7.070399999999999
 10
81.30959999999999
 20
7.070399999999999
 10
81.30959999999999
 20
601.7696
 10
7.070399999999999
 20
601.7696
  0
LINE
  5
1FB
330
1F6
100
AcDbEntity
  8
A-FURN
370
25
100
AcDbLine
 10
0.0
 20
200.9172
 30
0.0
 11
88.38
 21
200.9172
 31
0.0
  0
LINE
  5
1FC
330
1F6
100
AcDbEntity
  8
A-FURN
370
25
100
AcDbLine
 10
0.0
 20
407.92280000000005
 30
0.0
 11
88.38
 21
407.92280000000005
 31
0.0
  0
ENDBLK
  5
1F8
330
1F6
100
AcDbEntity
  8
0
100
AcDbBlockEnd
  0
BLOCK
  5
200
330
1FF
100
AcDbEntity
  8
0
100
AcDbBlockBegin
  2
FURN_039
 70
0
 10
0.0
 20
0.0
 30
0.0
  3
FURN_039
  1

  0
LWPOLYLINE
  5
202
330
1FF
100
AcDbEntity
  8
A-FURN
370
25
100
AcDbPolyline
 90
4
 70
1
 10
0.0
 20
0.0
 10
1797.06
 20
0.0
 10
1797.06
 20
599.02
 10
0.0
 20
599.02
  0
LWPOLYLINE
  5
203
330
1FF
100
AcDbEntity
  8
A-FURN
370
25
100
AcDbPolyline
 90
4
 70
1
 10
71.8824
 20
23.9608
 10
1725.1776
 20
23.9608
 10
1725.1776
 20
575.0591999999999
 10
71.8824
 20
575.0591999999999
  0
LWPOLYLINE
  5
204
330
1FF
100
AcDbEntity
  8
A-FURN
370
25
100
AcDbPolyline
 90
4
 70
1
 10
143.7648
 20
47.9216
 10
173.7648
 20
47.9216
 10
173.7648
 20
77.9216
 10
143.7648
 20
77.9216
  0
LWPOLYLINE
  5
205
330
1FF
100
AcDbEntity
  8
A-FURN
370
25
100
AcDbPolyline
 90
4
 70
1
 10
143.7648
 20
527.1376
 10
173.7648
 20
527.1376
 10
173.7648
 20
557.1376
 10
143.7648
 20
557.1376
  0
LWPOLYLINE
  5
206
330
1FF
100
AcDbEntity
  8
A-FURN
370
25
100
AcDbPolyline
 90
4
 70
1
 10
1581.4128
 20
47.9216
 10
1611.4128
 20
47.9216
 10
1611.4128
 20
77.9216
 10
1581.4128
 20
77.9216
  0
LWPOLYLINE
  5
207
330
1FF
100
AcDbEntity
  8
A-FURN
370
25
100
AcDbPolyline
 90
4
 70
1
 10
1581.4128
 20
527.1376
 10
1611.4128
 20
527.1376
 10
1611.4128
 20
557.1376
 10
1581.4128
 20
557.1376
  0
ENDBLK
  5
201
330
1FF
100
AcDbEntity
  8
0
100
AcDbBlockEnd
  0
BLOCK
  5
20B
330
20A
100
AcDbEntity
  8
0
100
AcDbBlockBegin
  2
FURN_040
 70
0
 10
0.0
 20
0.0
 30
0.0
  3
FURN_040
  1

  0
LWPOLYLINE
  5
20D
330
20A
100
AcDbEntity
  8
A-FURN
370
25
100
AcDbPolyline
 90
4
 70
1
 10
0.0
 20
0.0
 10
441.90000000000003
 20
0.0
 10
441.90000000000003
 20
481.18
 10
0.0
 20
481.18
  0
LWPOLYLINE
  5
20E
330
20A
100
AcDbEntity
  8
A-FURN
370
25
100
AcDbPolyline
 90
4
 70
1
 10
53.028
 20
57.7416
 10
388.87200000000007
 20
57.7416
 10
388.87200000000007
 20
394.56759999999997
 10
53.028
 20
394.56759999999997
  0
LWPOLYLINE
  5
20F
330
20A
100
AcDbEntity
  8
A-FURN
370
25
100
AcDbPolyline
 90
4
 70
1
 10
35.352000000000004
 20
394.56759999999997
 10
406.548
 20
394.56759999999997
 10
406.548
 20
466.7446
 10
35.352000000000004
 20
466.7446
  0
ENDBLK
  5
20C
330
20A
100
AcDbEntity
  8
0
100
AcDbBlockEnd
  0
BLOCK
  5
213
330
212
100
AcDbEntity
  8
0
100
AcDbBlockBegin
  2
FURN_041
 70
0
 10
0.0
 20
0.0
 30
0.0
  3
FURN_041
  1

  0
LWPOLYLINE
  5
215
330
212
100
AcDbEntity
  8
A-FURN
370
25
100
AcDbPolyline
 90
4
 70
1
 10
0.0
 20
0.0
 10
1502.46
 20
0.0
 10
1502.46
 20
697.22
 10
0.0
 20
697.22
  0
LWPOLYLINE
  5
216
330
212
100
AcDbEntity
  8
A-FURN
370
25
100
AcDbPolyline
 90
4
 70
1
 10
90.1476
 20
69.72200000000001
 10
1412.3124
 20
69.72200000000001
 10
1412.3124
 20
627.498
 10
90.1476
 20
627.498
  0
ELLIPSE
  5
217
330
212
100
AcDbEntity
  8
A-FURN
370
25
100
AcDbEllipse
 10
751.23
 20
348.61
 30
0.0
 11
600.984
 21
0.0
 31
0.0
 40
0.3712418300653595
 41
0.0
 42
6.283185307179586
  0
CIRCLE
  5
218
330
212
100
AcDbEntity
  8
A-FURN
370
25
100
AcDbCircle
 10
300.492
 20
348.61
 30
0.0
 40
22.0
  0
ENDBLK
  5
214
330
212
100
AcDbEntity
  8
0
100
AcDbBlockEnd
  0
BLOCK
  5
31E
330
31D
100
AcDbEntity
  8
0
100
AcDbBlockBegin
  2
*D1
 70
1
 10
0.0
 20
0.0
 30
0.0
  3
*D1
  1

  0
LINE
  5
320
330
31D
100
AcDbEntity
  8
0
100
AcDbLine
 10
0.0
 20
11765.44
 30
0.0
 11
0.0
 21
12325.44
 31
0.0
  0
LINE
  5
321
330
31D
100
AcDbEntity
  8
0
100
AcDbLine
 10
12618.7
 20
11765.44
 30
0.0
 11
12618.7
 21
12325.44
 31
0.0
  0
INSERT
  5
326
330
31D
100
AcDbEntity
  8
A-DIMS
100
AcDbBlockReference
  2
_ARCHTICK
 10
0.0
 20
12205.44
 30
0.0
 41
140.0
 42
140.0
 50
180.0
  0
INSERT
  5
328
330
31D
100
AcDbEntity
  8
A-DIMS
100
AcDbBlockReference
  2
_ARCHTICK
 10
12618.7
 20
12205.44
 30
0.0
 41
140.0
 42
140.0
  0
LINE
  5
32A
330
31D
100
AcDbEntity
  8
0
100
AcDbLine
 10
0.0
 20
12205.44
 30
0.0
 11
5809.35
 21
12205.44
 31
0.0
  0
LINE
  5
32B
330
31D
100
AcDbEntity
  8
0
100
AcDbLine
 10
6809.35
 20
12205.44
 30
0.0
 11
12618.7
 21
12205.44
 31
0.0
  0
MTEXT
  5
32C
330
31D
100
AcDbEntity
  8
A-DIMS
100
AcDbMText
 10
6309.35
 20
12205.44
 30
0.0
 40
200.0
 71
5
  1
12619
  7
CN
  0
POINT
  5
32D
330
31D
100
AcDbEntity
  8
Defpoints
100
AcDbPoint
 10
0.0
 20
12205.44
 30
0.0
  0
POINT
  5
32E
330
31D
100
AcDbEntity
  8
Defpoints
100
AcDbPoint
 10
0.0
 20
11705.44
 30
0.0
  0
POINT
  5
32F
330
31D
100
AcDbEntity
  8
Defpoints
100
AcDbPoint
 10
12618.7
 20
11705.44
 30
0.0
  0
ENDBLK
  5
31F
330
31D
100
AcDbEntity
  8
0
100
AcDbBlockEnd
  0
BLOCK
  5
323
330
322
100
AcDbEntity
  8
0
100
AcDbBlockBegin
  2
_ARCHTICK
 70
0
 10
0.0
 20
0.0
 30
0.0
  3
_ARCHTICK
  1

  0
LWPOLYLINE
  5
325
330
322
100
AcDbEntity
  8
0
  6
BYBLOCK
 62
0
100
AcDbPolyline
 90
2
 70
0
 43
0.15
 10
-0.5
 20
-0.5
 10
0.5
 20
0.5
  0
ENDBLK
  5
324
330
322
100
AcDbEntity
  8
0
100
AcDbBlockEnd
  0
BLOCK
  5
332
330
331
100
AcDbEntity
  8
0
100
AcDbBlockBegin
  2
*D2
 70
1
 10
0.0
 20
0.0
 30
0.0
  3
*D2
  1

  0
LINE
  5
334
330
331
100
AcDbEntity
  8
0
100
AcDbLine
 10
-60.0
 20
0.0
 30
0.0
 11
-620.0
 21
0.0
 31
0.0
  0
LINE
  5
335
330
331
100
AcDbEntity
  8
0
100
AcDbLine
 10
-60.0
 20
11705.44
 30
0.0
 11
-620.0
 21
11705.44
 31
0.0
  0
INSERT
  5
336
330
331
100
AcDbEntity
  8
A-DIMS
100
AcDbBlockReference
  2
_ARCHTICK
 10
-500.0
 20
0.0
 30
0.0
 41
140.0
 42
140.0
 50
270.0
  0
INSERT
  5
338
330
331
100
AcDbEntity
  8
A-DIMS
100
AcDbBlockReference
  2
_ARCHTICK
 10
-500.0
 20
11705.44
 30
0.0
 41
140.0
 42
140.0
 50
90.0
  0
LINE
  5
33A
330
331
100
AcDbEntity
  8
0
100
AcDbLine
 10
-500.0
 20
0.0
 30
0.0
 11
-500.0
 21
5352.72
 31
0.0
  0
LINE
  5
33B
330
331
100
AcDbEntity
  8
0
100
AcDbLine
 10
-500.0
 20
6352.72
 30
0.0
 11
-500.0
 21
11705.44
 31
0.0
  0
MTEXT
  5
33C
330
331
100
AcDbEntity
  8
A-DIMS
100
AcDbMText
 10
-500.0
 20
5852.72
 30
0.0
 40
200.0
 71
5
  1
11705
  7
CN
 50
90.0
  0
POINT
  5
33D
330
331
100
AcDbEntity
  8
Defpoints
100
AcDbPoint
 10
-500.0
 20
0.0
 30
0.0
  0
POINT
  5
33E
330
331
100
AcDbEntity
  8
Defpoints
100
AcDbPoint
 10
0.0
 20
0.0
 30
0.0
  0
POINT
  5
33F
330
331
100
AcDbEntity
  8
Defpoints
100
AcDbPoint
 10
0.0
 20
11705.44
 30
0.0
  0
ENDBLK
  5
333
330
331
100
AcDbEntity
  8
0
100
AcDbBlockEnd
  0
BLOCK
  5
344
330
343
100
AcDbEntity
  8
0
100
AcDbBlockBegin
  2
*Paper_Space0
 70
0
 10
0.0
 20
0.0
 30
0.0
  3
*Paper_Space0
  1

  0
VIEWPORT
  5
347
330
343
100
AcDbEntity
 67
1
  8
VIEWPORTS
100
AcDbViewport
 10
297.0
 20
210.0
 30
0.0
 40
653.4000000000001
 41
462.00000000000006
 68
1
 69
1
 12
297.0
 22
210.0
 13
0.0
 23
0.0
 14
10.0
 24
10.0
 15
10.0
 25
10.0
 16
0.0
 26
0.0
 36
1.0
 17
0.0
 27
0.0
 37
0.0
 42
50.0
 43
0.0
 44
0.0
 45
462.00000000000006
 50
0.0
 51
0.0
 72
100
 90
557088
  1

281
0
 71
0
 74
0
110
0.0
120
0.0
130
0.0
111
1.0
121
0.0
131
0.0
112
0.0
122
1.0
132
0.0
 79
0
146
0.0
282
0
  0
LWPOLYLINE
  5
348
330
343
100
AcDbEntity
 67
1
  8
A-FRAME
370
50
100
AcDbPolyline
 90
4
 70
1
 10
10.0
 20
10.0
 10
584.0
 20
10.0
 10
584.0
 20
410.0
 10
10.0
 20
410.0
  0
LINE
  5
349
330
343
100
AcDbEntity
 67
1
  8
A-FRAME
100
AcDbLine
 10
10.0
 20
48.0
 30
0.0
 11
584.0
 21
48.0
 31
0.0
  0
TEXT
  5
34A
330
343
100
AcDbEntity
 67
1
  8
A-TEXT
420
1184274
100
AcDbText
 10
18.0
 20
35.0
 30
0.0
 40
4.0
  1
学道街44号 | 住宅室内设计
  7
CN
 11
18.0
 21
35.0
 31
0.0
100
AcDbText
  0
TEXT
  5
34B
330
343
100
AcDbEntity
 67
1
  8
A-TEXT
420
1184274
100
AcDbText
 10
18.0
 20
24.0
 30
0.0
 40
3.4
  1
电气点位图（插座/开关/配电箱）
  7
CN
 11
18.0
 21
24.0
 31
0.0
100
AcDbText
  0
TEXT
  5
34C
330
343
100
AcDbEntity
 67
1
  8
A-TEXT
420
1184274
100
AcDbText
 10
18.0
 20
15.0
 30
0.0
 40
2.5
  1
A7 PNG标定 / v14共享底模 / 单位mm / 2026-09-18
  7
CN
 11
18.0
 21
15.0
 31
0.0
100
AcDbText
  0
TEXT
  5
34D
330
343
100
AcDbEntity
 67
1
  8
A-TEXT
420
1184274
100
AcDbText
 10
535.0
 20
30.0
 30
0.0
 40
7.0
  1
A302
  7
CN
 11
535.0
 21
30.0
 31
0.0
100
AcDbText
  0
TEXT
  5
34E
330
343
100
AcDbEntity
 67
1
  8
A-TEXT
420
1184274
100
AcDbText
 10
468.0
 20
16.0
 30
0.0
 40
3.0
  1
1:50 @ A2  |  v14
  7
CN
 11
468.0
 21
16.0
 31
0.0
100
AcDbText
  0
TEXT
  5
34F
330
343
100
AcDbEntity
 67
1
  8
A-TEXT
420
1184274
100
AcDbText
 10
320.0
 20
36.0
 30
0.0
 40
2.5
  1
设计复核版 · 非现场测绘/加工放样图
  7
CN
 11
320.0
 21
36.0
 31
0.0
100
AcDbText
  0
TEXT
  5
350
330
343
100
AcDbEntity
 67
1
  8
A-TEXT
420
1184274
100
AcDbText
 10
320.0
 20
25.0
 30
0.0
 40
2.5
  1
按100%打印；请勿缩放页面
  7
CN
 11
320.0
 21
25.0
 31
0.0
100
AcDbText
  0
TEXT
  5
351
330
343
100
AcDbEntity
 67
1
  8
A-TEXT
420
1184274
100
AcDbText
 10
18.0
 20
395.0
 30
0.0
 40
3.5
  1
A302  /  电气点位图（插座/开关/配电箱）
  7
CN
 11
18.0
 21
395.0
 31
0.0
100
AcDbText
  0
VIEWPORT
  5
352
330
343
100
AcDbEntity
 67
1
  8
A-VPORT
100
AcDbViewport
 10
207.0
 20
221.0
 30
0.0
 40
378.0
 41
326.0
 68
2
 69
3
 12
6034.146894503004
 22
6127.923105496997
 13
0.0
 23
0.0
 14
10.0
 24
10.0
 15
10.0
 25
10.0
 16
0.0
 26
0.0
 36
1.0
 17
0.0
 27
0.0
 37
0.0
 42
50.0
 43
0.0
 44
0.0
 45
16300.0
 50
0.0
 51
0.0
 72
100
 90
16384
  1

281
0
 71
0
 74
0
110
0.0
120
0.0
130
0.0
111
1.0
121
0.0
131
0.0
112
0.0
122
1.0
132
0.0
 79
0
146
0.0
282
0
  0
LINE
  5
353
330
343
100
AcDbEntity
 67
1
  8
A-FRAME
100
AcDbLine
 10
405.0
 20
58.0
 30
0.0
 11
405.0
 21
383.0
 31
0.0
  0
TEXT
  5
354
330
343
100
AcDbEntity
 67
1
  8
A-TEXT
420
1184274
100
AcDbText
 10
414.0
 20
377.0
 30
0.0
 40
3.2
  1
图纸说明 / NOTES
  7
CN
 11
414.0
 21
377.0
 31
0.0
100
AcDbText
  0
LINE
  5
355
330
343
100
AcDbEntity
 67
1
  8
A-DIMS
100
AcDbLine
 10
22.0
 20
66.0
 30
0.0
 11
122.0
 21
66.0
 31
0.0
  0
LINE
  5
356
330
343
100
AcDbEntity
 67
1
  8
A-DIMS
100
AcDbLine
 10
22.0
 20
64.5
 30
0.0
 11
22.0
 21
67.5
 31
0.0
  0
TEXT
  5
357
330
343
100
AcDbEntity
 67
1
  8
A-TEXT
420
1184274
100
AcDbText
 10
22.0
 20
60.0
 30
0.0
 40
2.0
  1
0
  7
CN
 11
22.0
 21
60.0
 31
0.0
100
AcDbText
  0
LINE
  5
358
330
343
100
AcDbEntity
 67
1
  8
A-DIMS
100
AcDbLine
 10
42.0
 20
64.5
 30
0.0
 11
42.0
 21
67.5
 31
0.0
  0
TEXT
  5
359
330
343
100
AcDbEntity
 67
1
  8
A-TEXT
420
1184274
100
AcDbText
 10
42.0
 20
60.0
 30
0.0
 40
2.0
  1
1
  7
CN
 11
42.0
 21
60.0
 31
0.0
100
AcDbText
  0
LINE
  5
35A
330
343
100
AcDbEntity
 67
1
  8
A-DIMS
100
AcDbLine
 10
62.0
 20
64.5
 30
0.0
 11
62.0
 21
67.5
 31
0.0
  0
TEXT
  5
35B
330
343
100
AcDbEntity
 67
1
  8
A-TEXT
420
1184274
100
AcDbText
 10
62.0
 20
60.0
 30
0.0
 40
2.0
  1
2
  7
CN
 11
62.0
 21
60.0
 31
0.0
100
AcDbText
  0
LINE
  5
35C
330
343
100
AcDbEntity
 67
1
  8
A-DIMS
100
AcDbLine
 10
82.0
 20
64.5
 30
0.0
 11
82.0
 21
67.5
 31
0.0
  0
TEXT
  5
35D
330
343
100
AcDbEntity
 67
1
  8
A-TEXT
420
1184274
100
AcDbText
 10
82.0
 20
60.0
 30
0.0
 40
2.0
  1
3
  7
CN
 11
82.0
 21
60.0
 31
0.0
100
AcDbText
  0
LINE
  5
35E
330
343
100
AcDbEntity
 67
1
  8
A-DIMS
100
AcDbLine
 10
102.0
 20
64.5
 30
0.0
 11
102.0
 21
67.5
 31
0.0
  0
TEXT
  5
35F
330
343
100
AcDbEntity
 67
1
  8
A-TEXT
420
1184274
100
AcDbText
 10
102.0
 20
60.0
 30
0.0
 40
2.0
  1
4
  7
CN
 11
102.0
 21
60.0
 31
0.0
100
AcDbText
  0
LINE
  5
360
330
343
100
AcDbEntity
 67
1
  8
A-DIMS
100
AcDbLine
 10
122.0
 20
64.5
 30
0.0
 11
122.0
 21
67.5
 31
0.0
  0
TEXT
  5
361
330
343
100
AcDbEntity
 67
1
  8
A-TEXT
420
1184274
100
AcDbText
 10
122.0
 20
60.0
 30
0.0
 40
2.0
  1
5
  7
CN
 11
122.0
 21
60.0
 31
0.0
100
AcDbText
  0
TEXT
  5
362
330
343
100
AcDbEntity
 67
1
  8
A-TEXT
420
1184274
100
AcDbText
 10
126.0
 20
60.0
 30
0.0
 40
2.0
  1
m
  7
CN
 11
126.0
 21
60.0
 31
0.0
100
AcDbText
  0
TEXT
  5
363
330
343
100
AcDbEntity
 67
1
  8
A-TEXT
420
1184274
100
AcDbText
 10
414.0
 20
367.0
 30
0.0
 40
2.6
  1
设计新增点位 / 全部待现场及产品复核
  7
CN
 11
414.0
 21
367.0
 31
0.0
100
AcDbText
  0
TEXT
  5
364
330
343
100
AcDbEntity
 67
1
  8
A-TEXT
420
1184274
100
AcDbText
 10
414.0
 20
361.0
 30
0.0
 40
2.35
  1
详见同名CSV：编号、用途、X/Y定位坐标(mm)
  7
CN
 11
414.0
 21
361.0
 31
0.0
100
AcDbText
  0
TEXT
  5
365
330
343
100
AcDbEntity
 67
1
  8
A-TEXT
420
1184274
100
AcDbText
 10
414.0
 20
353.0
 30
0.0
 40
2.15
  1
E01  强电箱 H1800
  7
CN
 11
414.0
 21
353.0
 31
0.0
100
AcDbText
  0
TEXT
  5
366
330
343
100
AcDbEntity
 67
1
  8
A-TEXT
420
1184274
100
AcDbText
 10
423.0
 20
350.1
 30
0.0
 40
1.9
  1
X 9231 / Y 6570
  7
CN
 11
423.0
 21
350.1
 31
0.0
100
AcDbText
  0
TEXT
  5
367
330
343
100
AcDbEntity
 67
1
  8
A-TEXT
420
1184274
100
AcDbText
 10
414.0
 20
346.6
 30
0.0
 40
2.15
  1
E02  弱电箱 H300
  7
CN
 11
414.0
 21
346.6
 31
0.0
100
AcDbText
  0
TEXT
  5
368
330
343
100
AcDbEntity
 67
1
  8
A-TEXT
420
1184274
100
AcDbText
 10
423.0
 20
343.70000000000005
 30
0.0
 40
1.9
  1
X 8642 / Y 6570
  7
CN
 11
423.0
 21
343.70000000000005
 31
0.0
100
AcDbText
  0
TEXT
  5
369
330
343
100
AcDbEntity
 67
1
  8
A-TEXT
420
1184274
100
AcDbText
 10
414.0
 20
340.20000000000005
 30
0.0
 40
2.15
  1
E03  过道备用 H300
  7
CN
 11
414.0
 21
340.20000000000005
 31
0.0
100
AcDbText
  0
TEXT
  5
36A
330
343
100
AcDbEntity
 67
1
  8
A-TEXT
420
1184274
100
AcDbText
 10
423.0
 20
337.30000000000007
 30
0.0
 40
1.9
  1
X 7660 / Y 6648
  7
CN
 11
423.0
 21
337.30000000000007
 31
0.0
100
AcDbText
  0
TEXT
  5
36B
330
343
100
AcDbEntity
 67
1
  8
A-TEXT
420
1184274
100
AcDbText
 10
414.0
 20
333.80000000000007
 30
0.0
 40
2.15
  1
E04  冰箱16A H500
  7
CN
 11
414.0
 21
333.80000000000007
 31
0.0
100
AcDbText
  0
TEXT
  5
36C
330
343
100
AcDbEntity
 67
1
  8
A-TEXT
420
1184274
100
AcDbText
 10
423.0
 20
330.9000000000001
 30
0.0
 40
1.9
  1
X 4321 / Y 9516
  7
CN
 11
423.0
 21
330.9000000000001
 31
0.0
100
AcDbText
  0
TEXT
  5
36D
330
343
100
AcDbEntity
 67
1
  8
A-TEXT
420
1184274
100
AcDbText
 10
414.0
 20
327.4000000000001
 30
0.0
 40
2.15
  1
E05  蒸烤16A×2 H500/1300
  7
CN
 11
414.0
 21
327.4000000000001
 31
0.0
100
AcDbText
  0
TEXT
  5
36E
330
343
100
AcDbEntity
 67
1
  8
A-TEXT
420
1184274
100
AcDbText
 10
423.0
 20
324.5000000000001
 30
0.0
 40
1.9
  1
X 4321 / Y 8730
  7
CN
 11
423.0
 21
324.5000000000001
 31
0.0
100
AcDbText
  0
TEXT
  5
36F
330
343
100
AcDbEntity
 67
1
  8
A-TEXT
420
1184274
100
AcDbText
 10
414.0
 20
321.0000000000001
 30
0.0
 40
2.15
  1
E06  洗烘16A×2 H1300
  7
CN
 11
414.0
 21
321.0000000000001
 31
0.0
100
AcDbText
  0
TEXT
  5
370
330
343
100
AcDbEntity
 67
1
  8
A-TEXT
420
1184274
100
AcDbText
 10
423.0
 20
318.10000000000014
 30
0.0
 40
1.9
  1
X 4321 / Y 8043
  7
CN
 11
423.0
 21
318.10000000000014
 31
0.0
100
AcDbText
  0
TEXT
  5
371
330
343
100
AcDbEntity
 67
1
  8
A-TEXT
420
1184274
100
AcDbText
 10
414.0
 20
314.60000000000014
 30
0.0
 40
2.15
  1
E07  TV位 插座×3+网口+TV H350
  7
CN
 11
414.0
 21
314.60000000000014
 31
0.0
100
AcDbText
  0
TEXT
  5
372
330
343
100
AcDbEntity
 67
1
  8
A-TEXT
420
1184274
100
AcDbText
 10
423.0
 20
311.70000000000016
 30
0.0
 40
1.9
  1
X 5676 / Y 1345
  7
CN
 11
423.0
 21
311.70000000000016
 31
0.0
100
AcDbText
  0
TEXT
  5
373
330
343
100
AcDbEntity
 67
1
  8
A-TEXT
420
1184274
100
AcDbText
 10
414.0
 20
308.20000000000016
 30
0.0
 40
2.15
  1
E08  边几 H300
  7
CN
 11
414.0
 21
308.20000000000016
 31
0.0
100
AcDbText
  0
TEXT
  5
374
330
343
100
AcDbEntity
 67
1
  8
A-TEXT
420
1184274
100
AcDbText
 10
423.0
 20
305.3000000000002
 30
0.0
 40
1.9
  1
X 8445 / Y 3015
  7
CN
 11
423.0
 21
305.3000000000002
 31
0.0
100
AcDbText
  0
TEXT
  5
375
330
343
100
AcDbEntity
 67
1
  8
A-TEXT
420
1184274
100
AcDbText
 10
414.0
 20
301.8000000000002
 30
0.0
 40
2.15
  1
E09  沙发侧 H300
  7
CN
 11
414.0
 21
301.8000000000002
 31
0.0
100
AcDbText
  0
TEXT
  5
376
330
343
100
AcDbEntity
 67
1
  8
A-TEXT
420
1184274
100
AcDbText
 10
423.0
 20
298.9000000000002
 30
0.0
 40
1.9
  1
X 9084 / Y 462
  7
CN
 11
423.0
 21
298.9000000000002
 31
0.0
100
AcDbText
  0
TEXT
  5
377
330
343
100
AcDbEntity
 67
1
  8
A-TEXT
420
1184274
100
AcDbText
 10
414.0
 20
295.4000000000002
 30
0.0
 40
2.15
  1
E10  餐边柜 台面×2 H1100
  7
CN
 11
414.0
 21
295.4000000000002
 31
0.0
100
AcDbText
  0
TEXT
  5
378
330
343
100
AcDbEntity
 67
1
  8
A-TEXT
420
1184274
100
AcDbText
 10
423.0
 20
292.5000000000002
 30
0.0
 40
1.9
  1
X 5843 / Y 3162
  7
CN
 11
423.0
 21
292.5000000000002
 31
0.0
100
AcDbText
  0
TEXT
  5
379
330
343
100
AcDbEntity
 67
1
  8
A-TEXT
420
1184274
100
AcDbText
 10
414.0
 20
289.0000000000002
 30
0.0
 40
2.15
  1
E11  餐边高柜 H300
  7
CN
 11
414.0
 21
289.0000000000002
 31
0.0
100
AcDbText
  0
TEXT
  5
37A
330
343
100
AcDbEntity
 67
1
  8
A-TEXT
420
1184274
100
AcDbText
 10
423.0
 20
286.10000000000025
 30
0.0
 40
1.9
  1
X 5843 / Y 4684
  7
CN
 11
423.0
 21
286.10000000000025
 31
0.0
100
AcDbText
  0
TEXT
  5
37B
330
343
100
AcDbEntity
 67
1
  8
A-TEXT
420
1184274
100
AcDbText
 10
414.0
 20
282.60000000000025
 30
0.0
 40
2.15
  1
E12  台面插座×3 H1200
  7
CN
 11
414.0
 21
282.60000000000025
 31
0.0
100
AcDbText
  0
TEXT
  5
37C
330
343
100
AcDbEntity
 67
1
  8
A-TEXT
420
1184274
100
AcDbText
 10
423.0
 20
279.7000000000003
 30
0.0
 40
1.9
  1
X 2750 / Y 11529
  7
CN
 11
423.0
 21
279.7000000000003
 31
0.0
100
AcDbText
  0
TEXT
  5
37D
330
343
100
AcDbEntity
 67
1
  8
A-TEXT
420
1184274
100
AcDbText
 10
414.0
 20
276.2000000000003
 30
0.0
 40
2.15
  1
E13  台面插座×2 H1200
  7
CN
 11
414.0
 21
276.2000000000003
 31
0.0
100
AcDbText
  0
TEXT
  5
37E
330
343
100
AcDbEntity
 67
1
  8
A-TEXT
420
1184274
100
AcDbText
 10
423.0
 20
273.3000000000003
 30
0.0
 40
1.9
  1
X 4321 / Y 11529
  7
CN
 11
423.0
 21
273.3000000000003
 31
0.0
100
AcDbText
  0
TEXT
  5
37F
330
343
100
AcDbEntity
 67
1
  8
A-TEXT
420
1184274
100
AcDbText
 10
414.0
 20
269.8000000000003
 30
0.0
 40
2.15
  1
E14  烟机 H2100
  7
CN
 11
414.0
 21
269.8000000000003
 31
0.0
100
AcDbText
  0
TEXT
  5
380
330
343
100
AcDbEntity
 67
1
  8
A-TEXT
420
1184274
100
AcDbText
 10
423.0
 20
266.9000000000003
 30
0.0
 40
1.9
  1
X 5352 / Y 11529
  7
CN
 11
423.0
 21
266.9000000000003
 31
0.0
100
AcDbText
  0
TEXT
  5
381
330
343
100
AcDbEntity
 67
1
  8
A-TEXT
420
1184274
100
AcDbText
 10
414.0
 20
263.4000000000003
 30
0.0
 40
2.15
  1
E15  水槽下×2 H500(净水/洗碗预留)
  7
CN
 11
414.0
 21
263.4000000000003
 31
0.0
100
AcDbText
  0
TEXT
  5
382
330
343
100
AcDbEntity
 67
1
  8
A-TEXT
420
1184274
100
AcDbText
 10
423.0
 20
260.50000000000034
 30
0.0
 40
1.9
  1
X 2210 / Y 10232
  7
CN
 11
423.0
 21
260.50000000000034
 31
0.0
100
AcDbText
  0
TEXT
  5
383
330
343
100
AcDbEntity
 67
1
  8
A-TEXT
420
1184274
100
AcDbText
 10
414.0
 20
257.00000000000034
 30
0.0
 40
2.15
  1
E16  床头五孔×2+USB H700
  7
CN
 11
414.0
 21
257.00000000000034
 31
0.0
100
AcDbText
  0
TEXT
  5
384
330
343
100
AcDbEntity
 67
1
  8
A-TEXT
420
1184274
100
AcDbText
 10
423.0
 20
254.10000000000034
 30
0.0
 40
1.9
  1
X 5470 / Y 3899
  7
CN
 11
423.0
 21
254.10000000000034
 31
0.0
100
AcDbText
  0
TEXT
  5
385
330
343
100
AcDbEntity
 67
1
  8
A-TEXT
420
1184274
100
AcDbText
 10
414.0
 20
250.60000000000034
 30
0.0
 40
2.15
  1
E17  床头五孔×2+USB H700
  7
CN
 11
414.0
 21
250.60000000000034
 31
0.0
100
AcDbText
  0
TEXT
  5
386
330
343
100
AcDbEntity
 67
1
  8
A-TEXT
420
1184274
100
AcDbText
 10
423.0
 20
247.70000000000033
 30
0.0
 40
1.9
  1
X 5470 / Y 2622
  7
CN
 11
423.0
 21
247.70000000000033
 31
0.0
100
AcDbText
  0
TEXT
  5
387
330
343
100
AcDbEntity
 67
1
  8
A-TEXT
420
1184274
100
AcDbText
 10
414.0
 20
244.20000000000033
 30
0.0
 40
2.15
  1
E18  梳妆/阅读台 ×2 H900
  7
CN
 11
414.0
 21
244.20000000000033
 31
0.0
100
AcDbText
  0
TEXT
  5
388
330
343
100
AcDbEntity
 67
1
  8
A-TEXT
420
1184274
100
AcDbText
 10
423.0
 20
241.30000000000032
 30
0.0
 40
1.9
  1
X 3388 / Y 756
  7
CN
 11
423.0
 21
241.30000000000032
 31
0.0
100
AcDbText
  0
TEXT
  5
389
330
343
100
AcDbEntity
 67
1
  8
A-TEXT
420
1184274
100
AcDbText
 10
414.0
 20
237.80000000000032
 30
0.0
 40
2.15
  1
E19  镜前 H900
  7
CN
 11
414.0
 21
237.80000000000032
 31
0.0
100
AcDbText
  0
TEXT
  5
38A
330
343
100
AcDbEntity
 67
1
  8
A-TEXT
420
1184274
100
AcDbText
 10
423.0
 20
234.90000000000032
 30
0.0
 40
1.9
  1
X 4910 / Y 1660
  7
CN
 11
423.0
 21
234.90000000000032
 31
0.0
100
AcDbText
  0
TEXT
  5
38B
330
343
100
AcDbEntity
 67
1
  8
A-TEXT
420
1184274
100
AcDbText
 10
414.0
 20
231.40000000000032
 30
0.0
 40
2.15
  1
E20  挂烫/熨斗 H1100
  7
CN
 11
414.0
 21
231.40000000000032
 31
0.0
100
AcDbText
  0
TEXT
  5
38C
330
343
100
AcDbEntity
 67
1
  8
A-TEXT
420
1184274
100
AcDbText
 10
423.0
 20
228.5000000000003
 30
0.0
 40
1.9
  1
X 1375 / Y 2367
  7
CN
 11
423.0
 21
228.5000000000003
 31
0.0
100
AcDbText
  0
TEXT
  5
38D
330
343
100
AcDbEntity
 67
1
  8
A-TEXT
420
1184274
100
AcDbText
 10
414.0
 20
225.0000000000003
 30
0.0
 40
2.15
  1
E21  床头五孔×2 H700
  7
CN
 11
414.0
 21
225.0000000000003
 31
0.0
100
AcDbText
  0
TEXT
  5
38E
330
343
100
AcDbEntity
 67
1
  8
A-TEXT
420
1184274
100
AcDbText
 10
423.0
 20
222.1000000000003
 30
0.0
 40
1.9
  1
X 9329 / Y 8956
  7
CN
 11
423.0
 21
222.1000000000003
 31
0.0
100
AcDbText
  0
TEXT
  5
38F
330
343
100
AcDbEntity
 67
1
  8
A-TEXT
420
1184274
100
AcDbText
 10
414.0
 20
218.6000000000003
 30
0.0
 40
2.15
  1
E22  床头五孔×2 H700
  7
CN
 11
414.0
 21
218.6000000000003
 31
0.0
100
AcDbText
  0
TEXT
  5
390
330
343
100
AcDbEntity
 67
1
  8
A-TEXT
420
1184274
100
AcDbText
 10
423.0
 20
215.7000000000003
 30
0.0
 40
1.9
  1
X 9329 / Y 7728
  7
CN
 11
423.0
 21
215.7000000000003
 31
0.0
100
AcDbText
  0
TEXT
  5
391
330
343
100
AcDbEntity
 67
1
  8
A-TEXT
420
1184274
100
AcDbText
 10
414.0
 20
212.2000000000003
 30
0.0
 40
2.15
  1
E23  矮柜 插座×2+网口 H350
  7
CN
 11
414.0
 21
212.2000000000003
 31
0.0
100
AcDbText
  0
TEXT
  5
392
330
343
100
AcDbEntity
 67
1
  8
A-TEXT
420
1184274
100
AcDbText
 10
423.0
 20
209.3000000000003
 30
0.0
 40
1.9
  1
X 8347 / Y 7041
  7
CN
 11
423.0
 21
209.3000000000003
 31
0.0
100
AcDbText
  0
TEXT
  5
393
330
343
100
AcDbEntity
 67
1
  8
A-TEXT
420
1184274
100
AcDbText
 10
414.0
 20
205.8000000000003
 30
0.0
 40
2.15
  1
E24  床头五孔×2 H700
  7
CN
 11
414.0
 21
205.8000000000003
 31
0.0
100
AcDbText
  0
TEXT
  5
394
330
343
100
AcDbEntity
 67
1
  8
A-TEXT
420
1184274
100
AcDbText
 10
423.0
 20
202.9000000000003
 30
0.0
 40
1.9
  1
X 12255 / Y 3702
  7
CN
 11
423.0
 21
202.9000000000003
 31
0.0
100
AcDbText
  0
TEXT
  5
395
330
343
100
AcDbEntity
 67
1
  8
A-TEXT
420
1184274
100
AcDbText
 10
414.0
 20
199.4000000000003
 30
0.0
 40
2.15
  1
E25  床头五孔×2 H700
  7
CN
 11
414.0
 21
199.4000000000003
 31
0.0
100
AcDbText
  0
TEXT
  5
396
330
343
100
AcDbEntity
 67
1
  8
A-TEXT
420
1184274
100
AcDbText
 10
423.0
 20
196.50000000000028
 30
0.0
 40
1.9
  1
X 12255 / Y 2867
  7
CN
 11
423.0
 21
196.50000000000028
 31
0.0
100
AcDbText
  0
TEXT
  5
397
330
343
100
AcDbEntity
 67
1
  8
A-TEXT
420
1184274
100
AcDbText
 10
414.0
 20
193.00000000000028
 30
0.0
 40
2.15
  1
E26  书桌×3+网口 H900
  7
CN
 11
414.0
 21
193.00000000000028
 31
0.0
100
AcDbText
  0
TEXT
  5
398
330
343
100
AcDbEntity
 67
1
  8
A-TEXT
420
1184274
100
AcDbText
 10
423.0
 20
190.10000000000028
 30
0.0
 40
1.9
  1
X 10311 / Y 903
  7
CN
 11
423.0
 21
190.10000000000028
 31
0.0
100
AcDbText
  0
TEXT
  5
399
330
343
100
AcDbEntity
 67
1
  8
A-TEXT
420
1184274
100
AcDbText
 10
414.0
 20
186.60000000000028
 30
0.0
 40
2.15
  1
E27  智能马桶16A H400
  7
CN
 11
414.0
 21
186.60000000000028
 31
0.0
100
AcDbText
  0
TEXT
  5
39A
330
343
100
AcDbEntity
 67
1
  8
A-TEXT
420
1184274
100
AcDbText
 10
423.0
 20
183.70000000000027
 30
0.0
 40
1.9
  1
X 2160 / Y 7974
  7
CN
 11
423.0
 21
183.70000000000027
 31
0.0
100
AcDbText
  0
TEXT
  5
39B
330
343
100
AcDbEntity
 67
1
  8
A-TEXT
420
1184274
100
AcDbText
 10
414.0
 20
180.20000000000027
 30
0.0
 40
2.15
  1
E28  台盆防水 H1300
  7
CN
 11
414.0
 21
180.20000000000027
 31
0.0
100
AcDbText
  0
TEXT
  5
39C
330
343
100
AcDbEntity
 67
1
  8
A-TEXT
420
1184274
100
AcDbText
 10
423.0
 20
177.30000000000027
 30
0.0
 40
1.9
  1
X 2828 / Y 7453
  7
CN
 11
423.0
 21
177.30000000000027
 31
0.0
100
AcDbText
  0
TEXT
  5
39D
330
343
100
AcDbEntity
 67
1
  8
A-TEXT
420
1184274
100
AcDbText
 10
414.0
 20
173.80000000000027
 30
0.0
 40
2.15
  1
E29  智能马桶16A H400
  7
CN
 11
414.0
 21
173.80000000000027
 31
0.0
100
AcDbText
  0
TEXT
  5
39E
330
343
100
AcDbEntity
 67
1
  8
A-TEXT
420
1184274
100
AcDbText
 10
423.0
 20
170.90000000000026
 30
0.0
 40
1.9
  1
X 982 / Y 5784
  7
CN
 11
423.0
 21
170.90000000000026
 31
0.0
100
AcDbText
  0
TEXT
  5
39F
330
343
100
AcDbEntity
 67
1
  8
A-TEXT
420
1184274
100
AcDbText
 10
414.0
 20
167.40000000000026
 30
0.0
 40
2.15
  1
E30  台盆防水 H1300
  7
CN
 11
414.0
 21
167.40000000000026
 31
0.0
100
AcDbText
  0
TEXT
  5
3A0
330
343
100
AcDbEntity
 67
1
  8
A-TEXT
420
1184274
100
AcDbText
 10
423.0
 20
164.50000000000026
 30
0.0
 40
1.9
  1
X 835 / Y 5322
  7
CN
 11
423.0
 21
164.50000000000026
 31
0.0
100
AcDbText
  0
TEXT
  5
3A1
330
343
100
AcDbEntity
 67
1
  8
A-TEXT
420
1184274
100
AcDbText
 10
414.0
 20
161.00000000000026
 30
0.0
 40
2.15
  1
E31  电热毛巾架 H1300 待确认
  7
CN
 11
414.0
 21
161.00000000000026
 31
0.0
100
AcDbText
  0
TEXT
  5
3A2
330
343
100
AcDbEntity
 67
1
  8
A-TEXT
420
1184274
100
AcDbText
 10
423.0
 20
158.10000000000025
 30
0.0
 40
1.9
  1
X 1915 / Y 6255
  7
CN
 11
423.0
 21
158.10000000000025
 31
0.0
100
AcDbText
  0
TEXT
  5
3A3
330
343
100
AcDbEntity
 67
1
  8
A-TEXT
420
1184274
100
AcDbText
 10
414.0
 20
154.60000000000025
 30
0.0
 40
2.15
  1
E32  玄关开关(客餐厅双控)
  7
CN
 11
414.0
 21
154.60000000000025
 31
0.0
100
AcDbText
  0
TEXT
  5
3A4
330
343
100
AcDbEntity
 67
1
  8
A-TEXT
420
1184274
100
AcDbText
 10
423.0
 20
151.70000000000024
 30
0.0
 40
1.9
  1
X 9133 / Y 6304
  7
CN
 11
423.0
 21
151.70000000000024
 31
0.0
100
AcDbText
  0
TEXT
  5
3A5
330
343
100
AcDbEntity
 67
1
  8
A-TEXT
420
1184274
100
AcDbText
 10
414.0
 20
148.20000000000024
 30
0.0
 40
2.15
  1
E33  老人房开关+线控
  7
CN
 11
414.0
 21
148.20000000000024
 31
0.0
100
AcDbText
  0
TEXT
  5
3A6
330
343
100
AcDbEntity
 67
1
  8
A-TEXT
420
1184274
100
AcDbText
 10
423.0
 20
145.30000000000024
 30
0.0
 40
1.9
  1
X 6039 / Y 6795
  7
CN
 11
423.0
 21
145.30000000000024
 31
0.0
100
AcDbText
  0
TEXT
  5
3A7
330
343
100
AcDbEntity
 67
1
  8
A-TEXT
420
1184274
100
AcDbText
 10
414.0
 20
141.80000000000024
 30
0.0
 40
2.15
  1
E34  儿童房开关+线控
  7
CN
 11
414.0
 21
141.80000000000024
 31
0.0
100
AcDbText
  0
TEXT
  5
3A8
330
343
100
AcDbEntity
 67
1
  8
A-TEXT
420
1184274
100
AcDbText
 10
423.0
 20
138.90000000000023
 30
0.0
 40
1.9
  1
X 9525 / Y 5224
  7
CN
 11
423.0
 21
138.90000000000023
 31
0.0
100
AcDbText
  0
TEXT
  5
3A9
330
343
100
AcDbEntity
 67
1
  8
A-TEXT
420
1184274
100
AcDbText
 10
414.0
 20
135.40000000000023
 30
0.0
 40
2.15
  1
E35  主卧开关+线控
  7
CN
 11
414.0
 21
135.40000000000023
 31
0.0
100
AcDbText
  0
TEXT
  5
3AA
330
343
100
AcDbEntity
 67
1
  8
A-TEXT
420
1184274
100
AcDbText
 10
423.0
 20
132.50000000000023
 30
0.0
 40
1.9
  1
X 5283 / Y 5322
  7
CN
 11
423.0
 21
132.50000000000023
 31
0.0
100
AcDbText
  0
TEXT
  5
3AB
330
343
100
AcDbEntity
 67
1
  8
A-TEXT
420
1184274
100
AcDbText
 10
414.0
 20
129.00000000000023
 30
0.0
 40
2.15
  1
E36  衣帽区开关
  7
CN
 11
414.0
 21
129.00000000000023
 31
0.0
100
AcDbText
  0
TEXT
  5
3AC
330
343
100
AcDbEntity
 67
1
  8
A-TEXT
420
1184274
100
AcDbText
 10
423.0
 20
126.10000000000022
 30
0.0
 40
1.9
  1
X 2111 / Y 2602
  7
CN
 11
423.0
 21
126.10000000000022
 31
0.0
100
AcDbText
  0
TEXT
  5
3AD
330
343
100
AcDbEntity
 67
1
  8
A-TEXT
420
1184274
100
AcDbText
 10
414.0
 20
122.60000000000022
 30
0.0
 40
2.15
  1
E37  主卫开关
  7
CN
 11
414.0
 21
122.60000000000022
 31
0.0
100
AcDbText
  0
TEXT
  5
3AE
330
343
100
AcDbEntity
 67
1
  8
A-TEXT
420
1184274
100
AcDbText
 10
423.0
 20
119.70000000000022
 30
0.0
 40
1.9
  1
X 1885 / Y 4979
  7
CN
 11
423.0
 21
119.70000000000022
 31
0.0
100
AcDbText
  0
TEXT
  5
3AF
330
343
100
AcDbEntity
 67
1
  8
A-TEXT
420
1184274
100
AcDbText
 10
414.0
 20
116.20000000000022
 30
0.0
 40
2.15
  1
E38  次卫开关
  7
CN
 11
414.0
 21
116.20000000000022
 31
0.0
100
AcDbText
  0
TEXT
  5
3B0
330
343
100
AcDbEntity
 67
1
  8
A-TEXT
420
1184274
100
AcDbText
 10
423.0
 20
113.30000000000021
 30
0.0
 40
1.9
  1
X 3653 / Y 6766
  7
CN
 11
423.0
 21
113.30000000000021
 31
0.0
100
AcDbText
  0
TEXT
  5
3B1
330
343
100
AcDbEntity
 67
1
  8
A-TEXT
420
1184274
100
AcDbText
 10
414.0
 20
109.80000000000021
 30
0.0
 40
2.15
  1
E39  厨房开关
  7
CN
 11
414.0
 21
109.80000000000021
 31
0.0
100
AcDbText
  0
TEXT
  5
3B2
330
343
100
AcDbEntity
 67
1
  8
A-TEXT
420
1184274
100
AcDbText
 10
423.0
 20
106.9000000000002
 30
0.0
 40
1.9
  1
X 3830 / Y 10007
  7
CN
 11
423.0
 21
106.9000000000002
 31
0.0
100
AcDbText
  0
TEXT
  5
3B3
330
343
100
AcDbEntity
 67
1
  8
A-TEXT
420
1184274
100
AcDbText
 10
414.0
 20
103.4000000000002
 30
0.0
 40
2.15
  1
E40  过道双控B
  7
CN
 11
414.0
 21
103.4000000000002
 31
0.0
100
AcDbText
  0
TEXT
  5
3B4
330
343
100
AcDbEntity
 67
1
  8
A-TEXT
420
1184274
100
AcDbText
 10
423.0
 20
100.5000000000002
 30
0.0
 40
1.9
  1
X 4959 / Y 5322
  7
CN
 11
423.0
 21
100.5000000000002
 31
0.0
100
AcDbText
  0
TEXT
  5
3B5
330
343
100
AcDbEntity
 67
1
  8
A-TEXT
420
1184274
100
AcDbText
 10
414.0
 20
75.0
 30
0.0
 40
2.35
  1
定位原点：源图(200,1337)；X向东、Y向北。
  7
CN
 11
414.0
 21
75.0
 31
0.0
100
AcDbText
  0
TEXT
  5
3B6
330
343
100
AcDbEntity
 67
1
  8
A-TEXT
420
1184274
100
AcDbText
 10
414.0
 20
68.0
 30
0.0
 40
2.35
  1
未包含回路/管径/坡度计算，须机电深化。
  7
CN
 11
414.0
 21
68.0
 31
0.0
100
AcDbText
  0
ENDBLK
  5
345
330
343
100
AcDbEntity
  8
0
100
AcDbBlockEnd
  0
ENDSEC
  0
SECTION
  2
ENTITIES
  0
LWPOLYLINE
  5
42
330
17
100
AcDbEntity
  8
A-WALL
370
50
100
AcDbPolyline
 90
6
 70
1
 10
1993.46
 20
11705.44
 10
3093.3
 20
11705.44
 10
3093.3
 20
11587.6
 10
2111.3
 20
11587.6
 10
2111.3
 20
10085.14
 10
1993.46
 20
10085.14
  0
HATCH
  5
43
330
17
100
AcDbEntity
  8
A-WALL
 62
8
100
AcDbHatch
 10
0.0
 20
0.0
 30
0.0
210
0.0
220
0.0
230
1.0
  2
SOLID
 70
1
 71
0
 91
1
 92
3
 72
0
 73
1
 93
6
 10
1993.46
 20
11705.44
 10
3093.3
 20
11705.44
 10
3093.3
 20
11587.6
 10
2111.3
 20
11587.6
 10
2111.3
 20
10085.14
 10
1993.46
 20
10085.14
 97
0
 75
0
 76
1
 98
0
  0
LWPOLYLINE
  5
44
330
17
100
AcDbEntity
  8
A-WALL
370
50
100
AcDbPolyline
 90
6
 70
1
 10
1993.46
 20
10085.14
 10
3849.44
 20
10085.14
 10
3849.44
 20
9849.460000000001
 10
2238.96
 20
9849.460000000001
 10
2238.96
 20
9643.24
 10
1993.46
 20
9643.24
  0
HATCH
  5
45
330
17
100
AcDbEntity
  8
A-WALL
 62
8
100
AcDbHatch
 10
0.0
 20
0.0
 30
0.0
210
0.0
220
0.0
230
1.0
  2
SOLID
 70
1
 71
0
 91
1
 92
3
 72
0
 73
1
 93
6
 10
1993.46
 20
10085.14
 10
3849.44
 20
10085.14
 10
3849.44
 20
9849.460000000001
 10
2238.96
 20
9849.460000000001
 10
2238.96
 20
9643.24
 10
1993.46
 20
9643.24
 97
0
 75
0
 76
1
 98
0
  0
LWPOLYLINE
  5
46
330
17
100
AcDbEntity
  8
A-WALL
370
50
100
AcDbPolyline
 90
6
 70
1
 10
5567.9400000000005
 20
10085.14
 10
6913.280000000001
 20
10085.14
 10
6913.280000000001
 20
9849.460000000001
 10
5793.8
 20
9849.460000000001
 10
5793.8
 20
7649.780000000001
 10
5567.9400000000005
 20
7649.780000000001
  0
HATCH
  5
47
330
17
100
AcDbEntity
  8
A-WALL
 62
8
100
AcDbHatch
 10
0.0
 20
0.0
 30
0.0
210
0.0
220
0.0
230
1.0
  2
SOLID
 70
1
 71
0
 91
1
 92
3
 72
0
 73
1
 93
6
 10
5567.9400000000005
 20
10085.14
 10
6913.280000000001
 20
10085.14
 10
6913.280000000001
 20
9849.460000000001
 10
5793.8
 20
9849.460000000001
 10
5793.8
 20
7649.780000000001
 10
5567.9400000000005
 20
7649.780000000001
 97
0
 75
0
 76
1
 98
0
  0
LWPOLYLINE
  5
48
330
17
100
AcDbEntity
  8
A-WALL
370
50
100
AcDbPolyline
 90
6
 70
1
 10
8317.54
 20
10085.14
 10
9662.880000000001
 20
10085.14
 10
9662.880000000001
 20
6510.66
 10
9427.2
 20
6510.66
 10
9427.2
 20
9849.460000000001
 10
8317.54
 20
9849.460000000001
  0
HATCH
  5
49
330
17
100
AcDbEntity
  8
A-WALL
 62
8
100
AcDbHatch
 10
0.0
 20
0.0
 30
0.0
210
0.0
220
0.0
230
1.0
  2
SOLID
 70
1
 71
0
 91
1
 92
3
 72
0
 73
1
 93
6
 10
8317.54
 20
10085.14
 10
9662.880000000001
 20
10085.14
 10
9662.880000000001
 20
6510.66
 10
9427.2
 20
6510.66
 10
9427.2
 20
9849.460000000001
 10
8317.54
 20
9849.460000000001
 97
0
 75
0
 76
1
 98
0
  0
LWPOLYLINE
  5
4A
330
17
100
AcDbEntity
  8
A-WALL
370
50
100
AcDbPolyline
 90
4
 70
1
 10
6667.78
 20
6824.900000000001
 10
9427.2
 20
6824.900000000001
 10
9427.2
 20
6589.22
 10
6667.78
 20
6589.22
  0
HATCH
  5
4B
330
17
100
AcDbEntity
  8
A-WALL
 62
8
100
AcDbHatch
 10
0.0
 20
0.0
 30
0.0
210
0.0
220
0.0
230
1.0
  2
SOLID
 70
1
 71
0
 91
1
 92
3
 72
0
 73
1
 93
4
 10
6667.78
 20
6824.900000000001
 10
9427.2
 20
6824.900000000001
 10
9427.2
 20
6589.22
 10
6667.78
 20
6589.22
 97
0
 75
0
 76
1
 98
0
  0
LWPOLYLINE
  5
4C
330
17
100
AcDbEntity
  8
A-WALL
370
50
100
AcDbPolyline
 90
4
 70
1
 10
5567.9400000000005
 20
6874.0
 10
5793.8
 20
6874.0
 10
5793.8
 20
6589.22
 10
5567.9400000000005
 20
6589.22
  0
HATCH
  5
4D
330
17
100
AcDbEntity
  8
A-WALL
 62
8
100
AcDbHatch
 10
0.0
 20
0.0
 30
0.0
210
0.0
220
0.0
230
1.0
  2
SOLID
 70
1
 71
0
 91
1
 92
3
 72
0
 73
1
 93
4
 10
5567.9400000000005
 20
6874.0
 10
5793.8
 20
6874.0
 10
5793.8
 20
6589.22
 10
5567.9400000000005
 20
6589.22
 97
0
 75
0
 76
1
 98
0
  0
LWPOLYLINE
  5
4E
330
17
100
AcDbEntity
  8
A-WALL
370
50
100
AcDbPolyline
 90
8
 70
1
 10
1993.46
 20
9024.58
 10
2238.96
 20
9024.58
 10
2238.96
 20
6815.08
 10
1993.46
 20
6815.08
 10
1993.46
 20
7649.780000000001
 10
1797.06
 20
7649.780000000001
 10
1797.06
 20
7885.46
 10
1993.46
 20
7885.46
  0
HATCH
  5
4F
330
17
100
AcDbEntity
  8
A-WALL
 62
8
100
AcDbHatch
 10
0.0
 20
0.0
 30
0.0
210
0.0
220
0.0
230
1.0
  2
SOLID
 70
1
 71
0
 91
1
 92
3
 72
0
 73
1
 93
8
 10
1993.46
 20
9024.58
 10
2238.96
 20
9024.58
 10
2238.96
 20
6815.08
 10
1993.46
 20
6815.08
 10
1993.46
 20
7649.780000000001
 10
1797.06
 20
7649.780000000001
 10
1797.06
 20
7885.46
 10
1993.46
 20
7885.46
 97
0
 75
0
 76
1
 98
0
  0
LWPOLYLINE
  5
50
330
17
100
AcDbEntity
  8
A-WALL
370
50
100
AcDbPolyline
 90
8
 70
1
 10
0.0
 20
7885.46
 10
1198.04
 20
7885.46
 10
1198.04
 20
7649.780000000001
 10
235.68
 20
7649.780000000001
 10
235.68
 20
2297.88
 10
392.8
 20
2297.88
 10
392.8
 20
2052.38
 10
0.0
 20
2052.38
  0
HATCH
  5
51
330
17
100
AcDbEntity
  8
A-WALL
 62
8
100
AcDbHatch
 10
0.0
 20
0.0
 30
0.0
210
0.0
220
0.0
230
1.0
  2
SOLID
 70
1
 71
0
 91
1
 92
3
 72
0
 73
1
 93
8
 10
0.0
 20
7885.46
 10
1198.04
 20
7885.46
 10
1198.04
 20
7649.780000000001
 10
235.68
 20
7649.780000000001
 10
235.68
 20
2297.88
 10
392.8
 20
2297.88
 10
392.8
 20
2052.38
 10
0.0
 20
2052.38
 97
0
 75
0
 76
1
 98
0
  0
LWPOLYLINE
  5
52
330
17
100
AcDbEntity
  8
A-WALL
370
50
100
AcDbPolyline
 90
4
 70
1
 10
1993.46
 20
6815.08
 10
4566.3
 20
6815.08
 10
4566.3
 20
6579.400000000001
 10
1993.46
 20
6579.400000000001
  0
HATCH
  5
53
330
17
100
AcDbEntity
  8
A-WALL
 62
8
100
AcDbHatch
 10
0.0
 20
0.0
 30
0.0
210
0.0
220
0.0
230
1.0
  2
SOLID
 70
1
 71
0
 91
1
 92
3
 72
0
 73
1
 93
4
 10
1993.46
 20
6815.08
 10
4566.3
 20
6815.08
 10
4566.3
 20
6579.400000000001
 10
1993.46
 20
6579.400000000001
 97
0
 75
0
 76
1
 98
0
  0
LWPOLYLINE
  5
54
330
17
100
AcDbEntity
  8
A-WALL
370
50
100
AcDbPolyline
 90
4
 70
1
 10
1993.46
 20
6579.400000000001
 10
2238.96
 20
6579.400000000001
 10
2238.96
 20
3279.88
 10
1993.46
 20
3279.88
  0
HATCH
  5
55
330
17
100
AcDbEntity
  8
A-WALL
 62
8
100
AcDbHatch
 10
0.0
 20
0.0
 30
0.0
210
0.0
220
0.0
230
1.0
  2
SOLID
 70
1
 71
0
 91
1
 92
3
 72
0
 73
1
 93
4
 10
1993.46
 20
6579.400000000001
 10
2238.96
 20
6579.400000000001
 10
2238.96
 20
3279.88
 10
1993.46
 20
3279.88
 97
0
 75
0
 76
1
 98
0
  0
LWPOLYLINE
  5
56
330
17
100
AcDbEntity
  8
A-WALL
370
50
100
AcDbPolyline
 90
6
 70
1
 10
4438.64
 20
6579.400000000001
 10
4566.3
 20
6579.400000000001
 10
4566.3
 20
5587.58
 10
4664.5
 20
5587.58
 10
4664.5
 20
5459.92
 10
4438.64
 20
5459.92
  0
HATCH
  5
57
330
17
100
AcDbEntity
  8
A-WALL
 62
8
100
AcDbHatch
 10
0.0
 20
0.0
 30
0.0
210
0.0
220
0.0
230
1.0
  2
SOLID
 70
1
 71
0
 91
1
 92
3
 72
0
 73
1
 93
6
 10
4438.64
 20
6579.400000000001
 10
4566.3
 20
6579.400000000001
 10
4566.3
 20
5587.58
 10
4664.5
 20
5587.58
 10
4664.5
 20
5459.92
 10
4438.64
 20
5459.92
 97
0
 75
0
 76
1
 98
0
  0
LWPOLYLINE
  5
58
330
17
100
AcDbEntity
  8
A-WALL
370
50
100
AcDbPolyline
 90
8
 70
1
 10
5558.12
 20
5567.9400000000005
 10
5793.8
 20
5567.9400000000005
 10
5793.8
 20
225.86
 10
5548.3
 20
225.86
 10
5548.3
 20
1826.52
 10
4959.1
 20
1826.52
 10
4959.1
 20
2052.38
 10
5558.12
 20
2052.38
  0
HATCH
  5
59
330
17
100
AcDbEntity
  8
A-WALL
 62
8
100
AcDbHatch
 10
0.0
 20
0.0
 30
0.0
210
0.0
220
0.0
230
1.0
  2
SOLID
 70
1
 71
0
 91
1
 92
3
 72
0
 73
1
 93
8
 10
5558.12
 20
5567.9400000000005
 10
5793.8
 20
5567.9400000000005
 10
5793.8
 20
225.86
 10
5548.3
 20
225.86
 10
5548.3
 20
1826.52
 10
4959.1
 20
1826.52
 10
4959.1
 20
2052.38
 10
5558.12
 20
2052.38
 97
0
 75
0
 76
1
 98
0
  0
LWPOLYLINE
  5
5A
330
17
100
AcDbEntity
  8
A-WALL
370
50
100
AcDbPolyline
 90
8
 70
1
 10
1993.46
 20
2415.7200000000003
 10
2238.96
 20
2415.7200000000003
 10
2238.96
 20
2052.38
 10
2837.98
 20
2052.38
 10
2837.98
 20
1826.52
 10
2238.96
 20
1826.52
 10
2238.96
 20
225.86
 10
1993.46
 20
225.86
  0
HATCH
  5
5B
330
17
100
AcDbEntity
  8
A-WALL
 62
8
100
AcDbHatch
 10
0.0
 20
0.0
 30
0.0
210
0.0
220
0.0
230
1.0
  2
SOLID
 70
1
 71
0
 91
1
 92
3
 72
0
 73
1
 93
8
 10
1993.46
 20
2415.7200000000003
 10
2238.96
 20
2415.7200000000003
 10
2238.96
 20
2052.38
 10
2837.98
 20
2052.38
 10
2837.98
 20
1826.52
 10
2238.96
 20
1826.52
 10
2238.96
 20
225.86
 10
1993.46
 20
225.86
 97
0
 75
0
 76
1
 98
0
  0
LWPOLYLINE
  5
5C
330
17
100
AcDbEntity
  8
A-WALL
370
50
100
AcDbPolyline
 90
4
 70
1
 10
1993.46
 20
225.86
 10
2238.96
 20
225.86
 10
2238.96
 20
0.0
 10
1993.46
 20
0.0
  0
HATCH
  5
5D
330
17
100
AcDbEntity
  8
A-WALL
 62
8
100
AcDbHatch
 10
0.0
 20
0.0
 30
0.0
210
0.0
220
0.0
230
1.0
  2
SOLID
 70
1
 71
0
 91
1
 92
3
 72
0
 73
1
 93
4
 10
1993.46
 20
225.86
 10
2238.96
 20
225.86
 10
2238.96
 20
0.0
 10
1993.46
 20
0.0
 97
0
 75
0
 76
1
 98
0
  0
LWPOLYLINE
  5
5E
330
17
100
AcDbEntity
  8
A-WALL
370
50
100
AcDbPolyline
 90
4
 70
1
 10
5401.0
 20
225.86
 10
5970.56
 20
225.86
 10
5970.56
 20
0.0
 10
5401.0
 20
0.0
  0
HATCH
  5
5F
330
17
100
AcDbEntity
  8
A-WALL
 62
8
100
AcDbHatch
 10
0.0
 20
0.0
 30
0.0
210
0.0
220
0.0
230
1.0
  2
SOLID
 70
1
 71
0
 91
1
 92
3
 72
0
 73
1
 93
4
 10
5401.0
 20
225.86
 10
5970.56
 20
225.86
 10
5970.56
 20
0.0
 10
5401.0
 20
0.0
 97
0
 75
0
 76
1
 98
0
  0
LWPOLYLINE
  5
60
330
17
100
AcDbEntity
  8
A-WALL
370
50
100
AcDbPolyline
 90
4
 70
1
 10
8965.66
 20
225.86
 10
9427.2
 20
225.86
 10
9427.2
 20
0.0
 10
8965.66
 20
0.0
  0
HATCH
  5
61
330
17
100
AcDbEntity
  8
A-WALL
 62
8
100
AcDbHatch
 10
0.0
 20
0.0
 30
0.0
210
0.0
220
0.0
230
1.0
  2
SOLID
 70
1
 71
0
 91
1
 92
3
 72
0
 73
1
 93
4
 10
8965.66
 20
225.86
 10
9427.2
 20
225.86
 10
9427.2
 20
0.0
 10
8965.66
 20
0.0
 97
0
 75
0
 76
1
 98
0
  0
LWPOLYLINE
  5
62
330
17
100
AcDbEntity
  8
A-WALL
370
50
100
AcDbPolyline
 90
8
 70
1
 10
9112.960000000001
 20
5666.14
 10
12618.7
 20
5666.14
 10
12618.7
 20
0.0
 10
12353.56
 20
0.0
 10
12353.56
 20
5420.64
 10
9348.64
 20
5420.64
 10
9348.64
 20
5302.8
 10
9112.960000000001
 20
5302.8
  0
HATCH
  5
63
330
17
100
AcDbEntity
  8
A-WALL
 62
8
100
AcDbHatch
 10
0.0
 20
0.0
 30
0.0
210
0.0
220
0.0
230
1.0
  2
SOLID
 70
1
 71
0
 91
1
 92
3
 72
0
 73
1
 93
8
 10
9112.960000000001
 20
5666.14
 10
12618.7
 20
5666.14
 10
12618.7
 20
0.0
 10
12353.56
 20
0.0
 10
12353.56
 20
5420.64
 10
9348.64
 20
5420.64
 10
9348.64
 20
5302.8
 10
9112.960000000001
 20
5302.8
 97
0
 75
0
 76
1
 98
0
  0
LWPOLYLINE
  5
64
330
17
100
AcDbEntity
  8
A-WALL
370
50
100
AcDbPolyline
 90
10
 70
1
 10
9112.960000000001
 20
4507.38
 10
9348.64
 20
4507.38
 10
9348.64
 20
2052.38
 10
10163.7
 20
2052.38
 10
10163.7
 20
1826.52
 10
9112.960000000001
 20
1826.52
 10
9112.960000000001
 20
2445.1800000000003
 10
8720.16
 20
2445.1800000000003
 10
8720.16
 20
2680.86
 10
9112.960000000001
 20
2680.86
  0
HATCH
  5
65
330
17
100
AcDbEntity
  8
A-WALL
 62
8
100
AcDbHatch
 10
0.0
 20
0.0
 30
0.0
210
0.0
220
0.0
230
1.0
  2
SOLID
 70
1
 71
0
 91
1
 92
3
 72
0
 73
1
 93
10
 10
9112.960000000001
 20
4507.38
 10
9348.64
 20
4507.38
 10
9348.64
 20
2052.38
 10
10163.7
 20
2052.38
 10
10163.7
 20
1826.52
 10
9112.960000000001
 20
1826.52
 10
9112.960000000001
 20
2445.1800000000003
 10
8720.16
 20
2445.1800000000003
 10
8720.16
 20
2680.86
 10
9112.960000000001
 20
2680.86
 97
0
 75
0
 76
1
 98
0
  0
LWPOLYLINE
  5
66
330
17
100
AcDbEntity
  8
A-WALL
370
50
100
AcDbPolyline
 90
4
 70
1
 10
11567.960000000001
 20
2052.38
 10
12353.56
 20
2052.38
 10
12353.56
 20
1826.52
 10
11567.960000000001
 20
1826.52
  0
HATCH
  5
67
330
17
100
AcDbEntity
  8
A-WALL
 62
8
100
AcDbHatch
 10
0.0
 20
0.0
 30
0.0
210
0.0
220
0.0
230
1.0
  2
SOLID
 70
1
 71
0
 91
1
 92
3
 72
0
 73
1
 93
4
 10
11567.960000000001
 20
2052.38
 10
12353.56
 20
2052.38
 10
12353.56
 20
1826.52
 10
11567.960000000001
 20
1826.52
 97
0
 75
0
 76
1
 98
0
  0
LWPOLYLINE
  5
68
330
17
100
AcDbEntity
  8
A-WALL
370
50
100
AcDbPolyline
 90
4
 70
1
 10
235.68
 20
4851.08
 10
1109.66
 20
4851.08
 10
1109.66
 20
4723.42
 10
235.68
 20
4723.42
  0
HATCH
  5
69
330
17
100
AcDbEntity
  8
A-WALL
 62
8
100
AcDbHatch
 10
0.0
 20
0.0
 30
0.0
210
0.0
220
0.0
230
1.0
  2
SOLID
 70
1
 71
0
 91
1
 92
3
 72
0
 73
1
 93
4
 10
235.68
 20
4851.08
 10
1109.66
 20
4851.08
 10
1109.66
 20
4723.42
 10
235.68
 20
4723.42
 97
0
 75
0
 76
1
 98
0
  0
LWPOLYLINE
  5
6A
330
17
100
AcDbEntity
  8
A-WALL
370
50
100
AcDbPolyline
 90
4
 70
1
 10
1855.98
 20
4851.08
 10
1993.46
 20
4851.08
 10
1993.46
 20
4723.42
 10
1855.98
 20
4723.42
  0
HATCH
  5
6B
330
17
100
AcDbEntity
  8
A-WALL
 62
8
100
AcDbHatch
 10
0.0
 20
0.0
 30
0.0
210
0.0
220
0.0
230
1.0
  2
SOLID
 70
1
 71
0
 91
1
 92
3
 72
0
 73
1
 93
4
 10
1855.98
 20
4851.08
 10
1993.46
 20
4851.08
 10
1993.46
 20
4723.42
 10
1855.98
 20
4723.42
 97
0
 75
0
 76
1
 98
0
  0
LWPOLYLINE
  5
6C
330
17
100
AcDbEntity
  8
A-WALL
370
50
100
AcDbPolyline
 90
4
 70
1
 10
3731.6
 20
8955.84
 10
3849.44
 20
8955.84
 10
3849.44
 20
7610.5
 10
3731.6
 20
7610.5
  0
HATCH
  5
6D
330
17
100
AcDbEntity
  8
A-WALL
 62
8
100
AcDbHatch
 10
0.0
 20
0.0
 30
0.0
210
0.0
220
0.0
230
1.0
  2
SOLID
 70
1
 71
0
 91
1
 92
3
 72
0
 73
1
 93
4
 10
3731.6
 20
8955.84
 10
3849.44
 20
8955.84
 10
3849.44
 20
7610.5
 10
3731.6
 20
7610.5
 97
0
 75
0
 76
1
 98
0
  0
LWPOLYLINE
  5
6E
330
17
100
AcDbEntity
  8
A-WALL
370
50
100
AcDbPolyline
 90
6
 70
1
 10
1855.98
 20
2297.88
 10
1993.46
 20
2297.88
 10
1993.46
 20
2415.7200000000003
 10
2238.96
 20
2415.7200000000003
 10
2238.96
 20
2052.38
 10
1855.98
 20
2052.38
  0
HATCH
  5
6F
330
17
100
AcDbEntity
  8
A-WALL
 62
8
100
AcDbHatch
 10
0.0
 20
0.0
 30
0.0
210
0.0
220
0.0
230
1.0
  2
SOLID
 70
1
 71
0
 91
1
 92
3
 72
0
 73
1
 93
6
 10
1855.98
 20
2297.88
 10
1993.46
 20
2297.88
 10
1993.46
 20
2415.7200000000003
 10
2238.96
 20
2415.7200000000003
 10
2238.96
 20
2052.38
 10
1855.98
 20
2052.38
 97
0
 75
0
 76
1
 98
0
  0
LWPOLYLINE
  5
70
330
17
100
AcDbEntity
  8
A-WALL
370
70
100
AcDbPolyline
 90
14
 70
1
 10
1993.46
 20
11705.44
 10
5793.8
 20
11705.44
 10
5793.8
 20
10085.14
 10
9662.880000000001
 20
10085.14
 10
9662.880000000001
 20
6510.66
 10
9427.2
 20
6510.66
 10
9427.2
 20
5666.14
 10
12618.7
 20
5666.14
 10
12618.7
 20
0.0
 10
1993.46
 20
0.0
 10
1993.46
 20
2052.38
 10
0.0
 20
2052.38
 10
0.0
 20
7885.46
 10
1993.46
 20
7885.46
  0
LINE
  5
71
330
17
100
AcDbEntity
  8
A-WINDOW
370
25
100
AcDbLine
 10
3093.3
 20
11646.52
 30
0.0
 11
5793.8
 21
11646.52
 31
0.0
  0
LINE
  5
72
330
17
100
AcDbEntity
  8
A-WINDOW
100
AcDbLine
 10
3093.3
 20
11691.52
 30
0.0
 11
5793.8
 21
11691.52
 31
0.0
  0
LINE
  5
73
330
17
100
AcDbEntity
  8
A-WINDOW
100
AcDbLine
 10
3093.3
 20
11601.52
 30
0.0
 11
5793.8
 21
11601.52
 31
0.0
  0
LINE
  5
74
330
17
100
AcDbEntity
  8
A-WINDOW
370
25
100
AcDbLine
 10
5734.88
 20
11587.6
 30
0.0
 11
5734.88
 21
10085.14
 31
0.0
  0
LINE
  5
75
330
17
100
AcDbEntity
  8
A-WINDOW
100
AcDbLine
 10
5779.88
 20
11587.6
 30
0.0
 11
5779.88
 21
10085.14
 31
0.0
  0
LINE
  5
76
330
17
100
AcDbEntity
  8
A-WINDOW
100
AcDbLine
 10
5689.88
 20
11587.6
 30
0.0
 11
5689.88
 21
10085.14
 31
0.0
  0
LINE
  5
77
330
17
100
AcDbEntity
  8
A-WINDOW
370
25
100
AcDbLine
 10
6913.280000000001
 20
9967.300000000001
 30
0.0
 11
8317.54
 21
9967.300000000001
 31
0.0
  0
LINE
  5
78
330
17
100
AcDbEntity
  8
A-WINDOW
100
AcDbLine
 10
6913.280000000001
 20
10012.300000000001
 30
0.0
 11
8317.54
 21
10012.300000000001
 31
0.0
  0
LINE
  5
79
330
17
100
AcDbEntity
  8
A-WINDOW
100
AcDbLine
 10
6913.280000000001
 20
9922.300000000001
 30
0.0
 11
8317.54
 21
9922.300000000001
 31
0.0
  0
LINE
  5
7A
330
17
100
AcDbEntity
  8
A-WINDOW
370
25
100
AcDbLine
 10
2111.3
 20
9643.24
 30
0.0
 11
2111.3
 21
9024.58
 31
0.0
  0
LINE
  5
7B
330
17
100
AcDbEntity
  8
A-WINDOW
100
AcDbLine
 10
2156.3
 20
9643.24
 30
0.0
 11
2156.3
 21
9024.58
 31
0.0
  0
LINE
  5
7C
330
17
100
AcDbEntity
  8
A-WINDOW
100
AcDbLine
 10
2066.3
 20
9643.24
 30
0.0
 11
2066.3
 21
9024.58
 31
0.0
  0
LINE
  5
7D
330
17
100
AcDbEntity
  8
A-WINDOW
370
25
100
AcDbLine
 10
1198.04
 20
7767.62
 30
0.0
 11
1797.06
 21
7767.62
 31
0.0
  0
LINE
  5
7E
330
17
100
AcDbEntity
  8
A-WINDOW
100
AcDbLine
 10
1198.04
 20
7812.62
 30
0.0
 11
1797.06
 21
7812.62
 31
0.0
  0
LINE
  5
7F
330
17
100
AcDbEntity
  8
A-WINDOW
100
AcDbLine
 10
1198.04
 20
7722.62
 30
0.0
 11
1797.06
 21
7722.62
 31
0.0
  0
LINE
  5
80
330
17
100
AcDbEntity
  8
A-WINDOW
370
25
100
AcDbLine
 10
235.68
 20
2180.04
 30
0.0
 11
1855.98
 21
2180.04
 31
0.0
  0
LINE
  5
81
330
17
100
AcDbEntity
  8
A-WINDOW
100
AcDbLine
 10
235.68
 20
2225.04
 30
0.0
 11
1855.98
 21
2225.04
 31
0.0
  0
LINE
  5
82
330
17
100
AcDbEntity
  8
A-WINDOW
100
AcDbLine
 10
235.68
 20
2135.04
 30
0.0
 11
1855.98
 21
2135.04
 31
0.0
  0
LINE
  5
83
330
17
100
AcDbEntity
  8
A-WINDOW
370
25
100
AcDbLine
 10
2238.96
 20
117.84
 30
0.0
 11
5401.0
 21
117.84
 31
0.0
  0
LINE
  5
84
330
17
100
AcDbEntity
  8
A-WINDOW
100
AcDbLine
 10
2238.96
 20
162.84
 30
0.0
 11
5401.0
 21
162.84
 31
0.0
  0
LINE
  5
85
330
17
100
AcDbEntity
  8
A-WINDOW
100
AcDbLine
 10
2238.96
 20
72.84
 30
0.0
 11
5401.0
 21
72.84
 31
0.0
  0
LINE
  5
86
330
17
100
AcDbEntity
  8
A-WINDOW
370
25
100
AcDbLine
 10
5970.56
 20
117.84
 30
0.0
 11
8965.66
 21
117.84
 31
0.0
  0
LINE
  5
87
330
17
100
AcDbEntity
  8
A-WINDOW
100
AcDbLine
 10
5970.56
 20
162.84
 30
0.0
 11
8965.66
 21
162.84
 31
0.0
  0
LINE
  5
88
330
17
100
AcDbEntity
  8
A-WINDOW
100
AcDbLine
 10
5970.56
 20
72.84
 30
0.0
 11
8965.66
 21
72.84
 31
0.0
  0
LINE
  5
89
330
17
100
AcDbEntity
  8
A-WINDOW
370
25
100
AcDbLine
 10
9427.2
 20
117.84
 30
0.0
 11
12353.56
 21
117.84
 31
0.0
  0
LINE
  5
8A
330
17
100
AcDbEntity
  8
A-WINDOW
100
AcDbLine
 10
9427.2
 20
162.84
 30
0.0
 11
12353.56
 21
162.84
 31
0.0
  0
LINE
  5
8B
330
17
100
AcDbEntity
  8
A-WINDOW
100
AcDbLine
 10
9427.2
 20
72.84
 30
0.0
 11
12353.56
 21
72.84
 31
0.0
  0
LINE
  5
8C
330
17
100
AcDbEntity
  8
A-WINDOW
370
25
100
AcDbLine
 10
10163.7
 20
1934.54
 30
0.0
 11
11567.960000000001
 21
1934.54
 31
0.0
  0
LINE
  5
8D
330
17
100
AcDbEntity
  8
A-WINDOW
100
AcDbLine
 10
10163.7
 20
1979.54
 30
0.0
 11
11567.960000000001
 21
1979.54
 31
0.0
  0
LINE
  5
8E
330
17
100
AcDbEntity
  8
A-WINDOW
100
AcDbLine
 10
10163.7
 20
1889.54
 30
0.0
 11
11567.960000000001
 21
1889.54
 31
0.0
  0
LINE
  5
8F
330
17
100
AcDbEntity
  8
A-WINDOW
370
25
100
AcDbLine
 10
9171.880000000001
 20
1826.52
 30
0.0
 11
9171.880000000001
 21
225.86
 31
0.0
  0
LINE
  5
90
330
17
100
AcDbEntity
  8
A-WINDOW
100
AcDbLine
 10
9216.880000000001
 20
1826.52
 30
0.0
 11
9216.880000000001
 21
225.86
 31
0.0
  0
LINE
  5
91
330
17
100
AcDbEntity
  8
A-WINDOW
100
AcDbLine
 10
9126.880000000001
 20
1826.52
 30
0.0
 11
9126.880000000001
 21
225.86
 31
0.0
  0
LINE
  5
92
330
17
100
AcDbEntity
  8
A-WINDOW
370
25
100
AcDbLine
 10
3849.44
 20
10026.220000000001
 30
0.0
 11
5567.9400000000005
 21
10026.220000000001
 31
0.0
  0
LINE
  5
93
330
17
100
AcDbEntity
  8
A-WINDOW
100
AcDbLine
 10
3849.44
 20
10071.220000000001
 30
0.0
 11
5567.9400000000005
 21
10071.220000000001
 31
0.0
  0
LINE
  5
94
330
17
100
AcDbEntity
  8
A-WINDOW
100
AcDbLine
 10
3849.44
 20
9981.220000000001
 30
0.0
 11
5567.9400000000005
 21
9981.220000000001
 31
0.0
  0
LINE
  5
95
330
17
100
AcDbEntity
  8
A-DOOR
370
35
100
AcDbLine
 10
9427.2
 20
6510.66
 30
0.0
 11
8631.78
 21
6510.66
 31
0.0
  0
ARC
  5
96
330
17
100
AcDbEntity
  8
A-DOOR
100
AcDbCircle
 10
9427.2
 20
6510.66
 30
0.0
 40
795.4200000000001
100
AcDbArc
 50
180.0
 51
-90.0
  0
LINE
  5
97
330
17
100
AcDbEntity
  8
A-DOOR
370
35
100
AcDbLine
 10
5882.18
 20
6824.900000000001
 30
0.0
 11
5882.18
 21
7620.320000000001
 31
0.0
  0
ARC
  5
98
330
17
100
AcDbEntity
  8
A-DOOR
100
AcDbCircle
 10
5882.18
 20
6824.900000000001
 30
0.0
 40
795.4200000000001
100
AcDbArc
 50
0.0
 51
90.0
  0
LINE
  5
99
330
17
100
AcDbEntity
  8
A-DOOR
370
35
100
AcDbLine
 10
9348.64
 20
5302.8
 30
0.0
 11
10163.7
 21
5302.8
 31
0.0
  0
ARC
  5
9A
330
17
100
AcDbEntity
  8
A-DOOR
100
AcDbCircle
 10
9348.64
 20
5302.8
 30
0.0
 40
815.0600000000013
100
AcDbArc
 50
-90.0
 51
0.0
  0
LINE
  5
9B
330
17
100
AcDbEntity
  8
A-DOOR
370
35
100
AcDbLine
 10
5410.82
 20
5459.92
 30
0.0
 11
5410.82
 21
4644.860000000001
 31
0.0
  0
ARC
  5
9C
330
17
100
AcDbEntity
  8
A-DOOR
100
AcDbCircle
 10
5410.82
 20
5459.92
 30
0.0
 40
815.0599999999995
100
AcDbArc
 50
180.0
 51
-90.0
  0
LINE
  5
9D
330
17
100
AcDbEntity
  8
A-DOOR
370
35
100
AcDbLine
 10
2238.96
 20
2415.7200000000003
 30
0.0
 11
2238.96
 21
3279.88
 31
0.0
  0
ARC
  5
9E
330
17
100
AcDbEntity
  8
A-DOOR
100
AcDbCircle
 10
2238.96
 20
2415.7200000000003
 30
0.0
 40
864.1599999999999
100
AcDbArc
 50
90.0
 51
180.0
  0
LINE
  5
9F
330
17
100
AcDbEntity
  8
A-DOOR
370
35
100
AcDbLine
 10
1855.98
 20
4851.08
 30
0.0
 11
1855.98
 21
5577.76
 31
0.0
  0
ARC
  5
A0
330
17
100
AcDbEntity
  8
A-DOOR
100
AcDbCircle
 10
1855.98
 20
4851.08
 30
0.0
 40
726.6800000000003
100
AcDbArc
 50
90.0
 51
180.0
  0
LWPOLYLINE
  5
A1
330
17
100
AcDbEntity
  8
A-DOOR
370
35
100
AcDbPolyline
 90
4
 70
1
 10
3731.6
 20
6874.0
 10
3776.6
 20
6874.0
 10
3776.6
 20
7620.320000000001
 10
3731.6
 20
7620.320000000001
  0
INSERT
  5
AB
330
17
100
AcDbEntity
  8
A-FURN
100
AcDbBlockReference
  2
FURN_001
 10
3446.82
 20
2396.08
 30
0.0
  0
INSERT
  5
B6
330
17
100
AcDbEntity
  8
A-FURN
100
AcDbBlockReference
  2
FURN_002
 10
7315.900000000001
 20
7482.84
 30
0.0
  0
INSERT
  5
C1
330
17
100
AcDbEntity
  8
A-FURN
100
AcDbBlockReference
  2
FURN_003
 10
10252.08
 20
2572.84
 30
0.0
  0
INSERT
  5
CA
330
17
100
AcDbEntity
  8
A-FURN
100
AcDbBlockReference
  2
FURN_004
 10
235.68
 20
2415.7200000000003
 30
0.0
  0
INSERT
  5
D3
330
17
100
AcDbEntity
  8
A-FIXT
100
AcDbBlockReference
  2
FURN_005
 10
2111.3
 20
10988.58
 30
0.0
  0
INSERT
  5
DC
330
17
100
AcDbEntity
  8
A-FURN
100
AcDbBlockReference
  2
FURN_006
 10
7914.92
 20
6707.06
 30
0.0
  0
INSERT
  5
E5
330
17
100
AcDbEntity
  8
A-FIXT
100
AcDbBlockReference
  2
FURN_007
 10
2238.96
 20
7118.518
 30
0.0
  0
INSERT
  5
EE
330
17
100
AcDbEntity
  8
A-FIXT
100
AcDbBlockReference
  2
FURN_008
 10
2238.96
 20
8143.4314
 30
0.0
  0
INSERT
  5
F7
330
17
100
AcDbEntity
  8
A-FIXT
100
AcDbBlockReference
  2
FURN_009
 10
2238.96
 20
8838.0
 30
0.0
  0
INSERT
  5
100
330
17
100
AcDbEntity
  8
A-FIXT
100
AcDbBlockReference
  2
FURN_010
 10
2111.3
 20
10085.14
 30
0.0
  0
INSERT
  5
109
330
17
100
AcDbEntity
  8
A-FIXT
100
AcDbBlockReference
  2
FURN_011
 10
3849.44
 20
9073.68
 30
0.0
  0
INSERT
  5
112
330
17
100
AcDbEntity
  8
A-FIXT
100
AcDbBlockReference
  2
FURN_012
 10
3849.44
 20
8386.28
 30
0.0
  0
INSERT
  5
11B
330
17
100
AcDbEntity
  8
A-FURN
100
AcDbBlockReference
  2
FURN_013
 10
3849.44
 20
7669.42
 30
0.0
  0
INSERT
  5
123
330
17
100
AcDbEntity
  8
A-FURN
100
AcDbBlockReference
  2
FURN_014
 10
6579.400000000001
 20
4232.42
 30
0.0
  0
INSERT
  5
12B
330
17
100
AcDbEntity
  8
A-FURN
100
AcDbBlockReference
  2
FURN_015
 10
6756.16
 20
5076.9400000000005
 30
0.0
  0
INSERT
  5
133
330
17
100
AcDbEntity
  8
A-FURN
100
AcDbBlockReference
  2
FURN_016
 10
7394.46
 20
5076.9400000000005
 30
0.0
  0
INSERT
  5
13B
330
17
100
AcDbEntity
  8
A-FURN
100
AcDbBlockReference
  2
FURN_017
 10
6756.16
 20
3770.88
 30
0.0
  0
INSERT
  5
143
330
17
100
AcDbEntity
  8
A-FURN
100
AcDbBlockReference
  2
FURN_018
 10
7394.46
 20
3770.88
 30
0.0
  0
INSERT
  5
14F
330
17
100
AcDbEntity
  8
A-FURN
100
AcDbBlockReference
  2
FURN_019
 10
8052.400000000001
 20
225.86
 30
0.0
  0
INSERT
  5
158
330
17
100
AcDbEntity
  8
A-FURN
100
AcDbBlockReference
  2
FURN_020
 10
5813.4400000000005
 20
422.26
 30
0.0
  0
INSERT
  5
163
330
17
100
AcDbEntity
  8
A-FURN
100
AcDbBlockReference
  2
FURN_021
 10
7070.400000000001
 20
500.82
 30
0.0
  0
INSERT
  5
16C
330
17
100
AcDbEntity
  8
A-FURN
100
AcDbBlockReference
  2
FURN_022
 10
5793.8
 20
3584.3
 30
0.0
  0
INSERT
  5
175
330
17
100
AcDbEntity
  8
A-FURN
100
AcDbBlockReference
  2
FURN_023
 10
5793.8
 20
2680.86
 30
0.0
  0
INSERT
  5
180
330
17
100
AcDbEntity
  8
A-FURN
100
AcDbBlockReference
  2
FURN_024
 10
8317.54
 20
2523.7400000000002
 30
0.0
  0
INSERT
  5
189
330
17
100
AcDbEntity
  8
A-FIXT
100
AcDbBlockReference
  2
FURN_025
 10
235.68
 20
6628.5
 30
0.0
  0
INSERT
  5
192
330
17
100
AcDbEntity
  8
A-FIXT
100
AcDbBlockReference
  2
FURN_026
 10
235.68
 20
5884.8314
 30
0.0
  0
INSERT
  5
19B
330
17
100
AcDbEntity
  8
A-FIXT
100
AcDbBlockReference
  2
FURN_027
 10
235.68
 20
5007.218
 30
0.0
  0
INSERT
  5
1A4
330
17
100
AcDbEntity
  8
A-FIXT
100
AcDbBlockReference
  2
FURN_028
 10
235.68
 20
5007.218
 30
0.0
  0
INSERT
  5
1AD
330
17
100
AcDbEntity
  8
A-FURN
100
AcDbBlockReference
  2
FURN_029
 10
2238.96
 20
5990.2
 30
0.0
  0
INSERT
  5
1B6
330
17
100
AcDbEntity
  8
A-FURN
100
AcDbBlockReference
  2
FURN_030
 10
2238.96
 20
4566.3
 30
0.0
  0
INSERT
  5
1BF
330
17
100
AcDbEntity
  8
A-FURN
100
AcDbBlockReference
  2
FURN_031
 10
5882.18
 20
7836.360000000001
 30
0.0
  0
INSERT
  5
1C8
330
17
100
AcDbEntity
  8
A-FURN
100
AcDbBlockReference
  2
FURN_032
 10
10360.1
 20
4801.9800000000005
 30
0.0
  0
INSERT
  5
1D1
330
17
100
AcDbEntity
  8
A-FURN
100
AcDbBlockReference
  2
FURN_033
 10
2238.96
 20
225.86
 30
0.0
  0
INSERT
  5
1DA
330
17
100
AcDbEntity
  8
A-FURN
100
AcDbBlockReference
  2
FURN_034
 10
4978.74
 20
225.86
 30
0.0
  0
INSERT
  5
1E3
330
17
100
AcDbEntity
  8
A-FURN
100
AcDbBlockReference
  2
FURN_035
 10
12049.140000000001
 20
225.86
 30
0.0
  0
INSERT
  5
1EC
330
17
100
AcDbEntity
  8
A-FURN
100
AcDbBlockReference
  2
FURN_036
 10
2837.98
 20
225.86
 30
0.0
  0
INSERT
  5
1F4
330
17
100
AcDbEntity
  8
A-FURN
100
AcDbBlockReference
  2
FURN_037
 10
3240.6
 20
785.6
 30
0.0
  0
INSERT
  5
1FD
330
17
100
AcDbEntity
  8
A-FURN
100
AcDbBlockReference
  2
FURN_038
 10
4978.74
 20
1109.66
 30
0.0
  0
INSERT
  5
208
330
17
100
AcDbEntity
  8
A-FURN
100
AcDbBlockReference
  2
FURN_039
 10
9820.0
 20
235.68
 30
0.0
  0
INSERT
  5
210
330
17
100
AcDbEntity
  8
A-FURN
100
AcDbBlockReference
  2
FURN_040
 10
10360.1
 20
864.1600000000001
 30
0.0
  0
INSERT
  5
219
330
17
100
AcDbEntity
  8
A-FURN
100
AcDbBlockReference
  2
FURN_041
 10
235.68
 20
6952.56
 30
0.0
  0
LWPOLYLINE
  5
21B
330
17
100
AcDbEntity
  8
A-FIXT
370
25
100
AcDbPolyline
 90
4
 70
1
 10
2209.5
 20
10261.9
 10
2710.32
 20
10261.9
 10
2710.32
 20
10792.18
 10
2209.5
 20
10792.18
  0
LWPOLYLINE
  5
21C
330
17
100
AcDbEntity
  8
A-FIXT
370
25
100
AcDbPolyline
 90
4
 70
1
 10
3240.6
 20
11106.42
 10
4075.3
 20
11106.42
 10
4075.3
 20
11479.58
 10
3240.6
 20
11479.58
  0
CIRCLE
  5
21D
330
17
100
AcDbEntity
  8
A-FIXT
100
AcDbCircle
 10
3449.275
 20
11293.0
 30
0.0
 40
85.0
  0
CIRCLE
  5
21E
330
17
100
AcDbEntity
  8
A-FIXT
100
AcDbCircle
 10
3866.625
 20
11293.0
 30
0.0
 40
85.0
  0
TEXT
  5
21F
330
17
100
AcDbEntity
  8
A-TEXT
420
1184274
100
AcDbText
 10
3928.0
 20
10487.76
 30
0.0
 40
170.0
  1
厨房
  7
CN
 72
1
 11
3928.0
 21
10487.76
 31
0.0
100
AcDbText
 73
2
  0
TEXT
  5
220
330
17
100
AcDbEntity
  8
A-TEXT
420
1184274
100
AcDbText
 10
3044.2000000000003
 20
7954.2
 30
0.0
 40
170.0
  1
次卫
  7
CN
 72
1
 11
3044.2000000000003
 21
7954.2
 31
0.0
100
AcDbText
 73
2
  0
TEXT
  5
221
330
17
100
AcDbEntity
  8
A-TEXT
420
1184274
100
AcDbText
 10
1551.56
 20
6147.320000000001
 30
0.0
 40
170.0
  1
主卫
  7
CN
 72
1
 11
1551.56
 21
6147.320000000001
 31
0.0
100
AcDbText
 73
2
  0
TEXT
  5
222
330
17
100
AcDbEntity
  8
A-TEXT
420
1184274
100
AcDbText
 10
1453.3600000000001
 20
3810.1600000000003
 30
0.0
 40
170.0
  1
衣帽区
  7
CN
 72
1
 11
1453.3600000000001
 21
3810.1600000000003
 31
0.0
100
AcDbText
 73
2
  0
TEXT
  5
223
330
17
100
AcDbEntity
  8
A-TEXT
420
1184274
100
AcDbText
 10
3662.86
 20
4919.82
 30
0.0
 40
170.0
  1
夫妻主卧
  7
CN
 72
1
 11
3662.86
 21
4919.82
 31
0.0
100
AcDbText
 73
2
  0
TEXT
  5
224
330
17
100
AcDbEntity
  8
A-TEXT
420
1184274
100
AcDbText
 10
7296.26
 20
7198.06
 30
0.0
 40
170.0
  1
老人房
  7
CN
 72
1
 11
7296.26
 21
7198.06
 31
0.0
100
AcDbText
 73
2
  0
TEXT
  5
225
330
17
100
AcDbEntity
  8
A-TEXT
420
1184274
100
AcDbText
 10
10458.300000000001
 20
4320.8
 30
0.0
 40
170.0
  1
儿童房
  7
CN
 72
1
 11
10458.300000000001
 21
4320.8
 31
0.0
100
AcDbText
 73
2
  0
TEXT
  5
226
330
17
100
AcDbEntity
  8
A-TEXT
420
1184274
100
AcDbText
 10
7365.0
 20
3427.1800000000003
 30
0.0
 40
170.0
  1
餐区
  7
CN
 72
1
 11
7365.0
 21
3427.1800000000003
 31
0.0
100
AcDbText
 73
2
  0
TEXT
  5
227
330
17
100
AcDbEntity
  8
A-TEXT
420
1184274
100
AcDbText
 10
7168.6
 20
2474.64
 30
0.0
 40
170.0
  1
客厅
  7
CN
 72
1
 11
7168.6
 21
2474.64
 31
0.0
100
AcDbText
 73
2
  0
TEXT
  5
228
330
17
100
AcDbEntity
  8
A-TEXT
420
1184274
100
AcDbText
 10
3751.2400000000002
 20
1561.38
 30
0.0
 40
170.0
  1
主卧窗边区
  7
CN
 72
1
 11
3751.2400000000002
 21
1561.38
 31
0.0
100
AcDbText
 73
2
  0
TEXT
  5
229
330
17
100
AcDbEntity
  8
A-TEXT
420
1184274
100
AcDbText
 10
10477.94
 20
1522.1000000000001
 30
0.0
 40
170.0
  1
儿童窗边区
  7
CN
 72
1
 11
10477.94
 21
1522.1000000000001
 31
0.0
100
AcDbText
 73
2
  0
LWPOLYLINE
  5
22A
330
17
100
AcDbEntity
  8
A-ELEC
370
35
100
AcDbPolyline
 90
4
 70
1
 10
9140.800000000001
 20
6449.58
 10
9320.800000000001
 20
6449.58
 10
9320.800000000001
 20
6689.58
 10
9140.800000000001
 20
6689.58
  0
LINE
  5
22B
330
17
100
AcDbEntity
  8
A-ELEC
100
AcDbLine
 10
9140.800000000001
 20
6449.58
 30
0.0
 11
9320.800000000001
 21
6689.58
 31
0.0
  0
LINE
  5
22C
330
17
100
AcDbEntity
  8
A-ELEC
100
AcDbLine
 10
9140.800000000001
 20
6689.58
 30
0.0
 11
9320.800000000001
 21
6449.58
 31
0.0
  0
LWPOLYLINE
  5
22D
330
17
100
AcDbEntity
  8
A-ELEC
370
35
100
AcDbPolyline
 90
4
 70
1
 10
8551.6
 20
6449.58
 10
8731.6
 20
6449.58
 10
8731.6
 20
6689.58
 10
8551.6
 20
6689.58
  0
LINE
  5
22E
330
17
100
AcDbEntity
  8
A-ELEC
100
AcDbLine
 10
8551.6
 20
6449.58
 30
0.0
 11
8731.6
 21
6689.58
 31
0.0
  0
LINE
  5
22F
330
17
100
AcDbEntity
  8
A-ELEC
100
AcDbLine
 10
8551.6
 20
6689.58
 30
0.0
 11
8731.6
 21
6449.58
 31
0.0
  0
LWPOLYLINE
  5
230
330
17
100
AcDbEntity
  8
A-ELEC
370
35
100
AcDbPolyline
 90
4
 70
1
 10
7599.6
 20
6588.14
 10
7719.6
 20
6588.14
 10
7719.6
 20
6708.14
 10
7599.6
 20
6708.14
  0
LINE
  5
231
330
17
100
AcDbEntity
  8
A-ELEC
100
AcDbLine
 10
7599.6
 20
6648.14
 30
0.0
 11
7719.6
 21
6648.14
 31
0.0
  0
LWPOLYLINE
  5
232
330
17
100
AcDbEntity
  8
A-ELEC
370
35
100
AcDbPolyline
 90
4
 70
1
 10
4260.8
 20
9455.58
 10
4380.8
 20
9455.58
 10
4380.8
 20
9575.58
 10
4260.8
 20
9575.58
  0
LINE
  5
233
330
17
100
AcDbEntity
  8
A-ELEC
100
AcDbLine
 10
4260.8
 20
9515.58
 30
0.0
 11
4380.8
 21
9515.58
 31
0.0
  0
LWPOLYLINE
  5
234
330
17
100
AcDbEntity
  8
A-ELEC
370
35
100
AcDbPolyline
 90
4
 70
1
 10
4260.8
 20
8669.98
 10
4380.8
 20
8669.98
 10
4380.8
 20
8789.98
 10
4260.8
 20
8789.98
  0
LINE
  5
235
330
17
100
AcDbEntity
  8
A-ELEC
100
AcDbLine
 10
4260.8
 20
8729.98
 30
0.0
 11
4380.8
 21
8729.98
 31
0.0
  0
LWPOLYLINE
  5
236
330
17
100
AcDbEntity
  8
A-ELEC
370
35
100
AcDbPolyline
 90
4
 70
1
 10
4260.8
 20
7982.58
 10
4380.8
 20
7982.58
 10
4380.8
 20
8102.58
 10
4260.8
 20
8102.58
  0
LINE
  5
237
330
17
100
AcDbEntity
  8
A-ELEC
100
AcDbLine
 10
4260.8
 20
8042.58
 30
0.0
 11
4380.8
 21
8042.58
 31
0.0
  0
LWPOLYLINE
  5
238
330
17
100
AcDbEntity
  8
A-ELEC
370
35
100
AcDbPolyline
 90
4
 70
1
 10
5615.96
 20
1285.3400000000001
 10
5735.96
 20
1285.3400000000001
 10
5735.96
 20
1405.3400000000001
 10
5615.96
 20
1405.3400000000001
  0
LINE
  5
239
330
17
100
AcDbEntity
  8
A-ELEC
100
AcDbLine
 10
5615.96
 20
1345.3400000000001
 30
0.0
 11
5735.96
 21
1345.3400000000001
 31
0.0
  0
LWPOLYLINE
  5
23A
330
17
100
AcDbEntity
  8
A-ELEC
370
35
100
AcDbPolyline
 90
4
 70
1
 10
8385.2
 20
2954.7400000000002
 10
8505.2
 20
2954.7400000000002
 10
8505.2
 20
3074.7400000000002
 10
8385.2
 20
3074.7400000000002
  0
LINE
  5
23B
330
17
100
AcDbEntity
  8
A-ELEC
100
AcDbLine
 10
8385.2
 20
3014.7400000000002
 30
0.0
 11
8505.2
 21
3014.7400000000002
 31
0.0
  0
LWPOLYLINE
  5
23C
330
17
100
AcDbEntity
  8
A-ELEC
370
35
100
AcDbPolyline
 90
4
 70
1
 10
9023.5
 20
401.54
 10
9143.5
 20
401.54
 10
9143.5
 20
521.54
 10
9023.5
 20
521.54
  0
LINE
  5
23D
330
17
100
AcDbEntity
  8
A-ELEC
100
AcDbLine
 10
9023.5
 20
461.54
 30
0.0
 11
9143.5
 21
461.54
 31
0.0
  0
LWPOLYLINE
  5
23E
330
17
100
AcDbEntity
  8
A-ELEC
370
35
100
AcDbPolyline
 90
4
 70
1
 10
5782.900000000001
 20
3102.04
 10
5902.900000000001
 20
3102.04
 10
5902.900000000001
 20
3222.04
 10
5782.900000000001
 20
3222.04
  0
LINE
  5
23F
330
17
100
AcDbEntity
  8
A-ELEC
100
AcDbLine
 10
5782.900000000001
 20
3162.04
 30
0.0
 11
5902.900000000001
 21
3162.04
 31
0.0
  0
LWPOLYLINE
  5
240
330
17
100
AcDbEntity
  8
A-ELEC
370
35
100
AcDbPolyline
 90
4
 70
1
 10
5782.900000000001
 20
4624.14
 10
5902.900000000001
 20
4624.14
 10
5902.900000000001
 20
4744.14
 10
5782.900000000001
 20
4744.14
  0
LINE
  5
241
330
17
100
AcDbEntity
  8
A-ELEC
100
AcDbLine
 10
5782.900000000001
 20
4684.14
 30
0.0
 11
5902.900000000001
 21
4684.14
 31
0.0
  0
LWPOLYLINE
  5
242
330
17
100
AcDbEntity
  8
A-ELEC
370
35
100
AcDbPolyline
 90
4
 70
1
 10
2689.6
 20
11468.68
 10
2809.6
 20
11468.68
 10
2809.6
 20
11588.68
 10
2689.6
 20
11588.68
  0
LINE
  5
243
330
17
100
AcDbEntity
  8
A-ELEC
100
AcDbLine
 10
2689.6
 20
11528.68
 30
0.0
 11
2809.6
 21
11528.68
 31
0.0
  0
LWPOLYLINE
  5
244
330
17
100
AcDbEntity
  8
A-ELEC
370
35
100
AcDbPolyline
 90
4
 70
1
 10
4260.8
 20
11468.68
 10
4380.8
 20
11468.68
 10
4380.8
 20
11588.68
 10
4260.8
 20
11588.68
  0
LINE
  5
245
330
17
100
AcDbEntity
  8
A-ELEC
100
AcDbLine
 10
4260.8
 20
11528.68
 30
0.0
 11
4380.8
 21
11528.68
 31
0.0
  0
LWPOLYLINE
  5
246
330
17
100
AcDbEntity
  8
A-ELEC
370
35
100
AcDbPolyline
 90
4
 70
1
 10
5291.900000000001
 20
11468.68
 10
5411.900000000001
 20
11468.68
 10
5411.900000000001
 20
11588.68
 10
5291.900000000001
 20
11588.68
  0
LINE
  5
247
330
17
100
AcDbEntity
  8
A-ELEC
100
AcDbLine
 10
5291.900000000001
 20
11528.68
 30
0.0
 11
5411.900000000001
 21
11528.68
 31
0.0
  0
LWPOLYLINE
  5
248
330
17
100
AcDbEntity
  8
A-ELEC
370
35
100
AcDbPolyline
 90
4
 70
1
 10
2149.5
 20
10172.44
 10
2269.5
 20
10172.44
 10
2269.5
 20
10292.44
 10
2149.5
 20
10292.44
  0
LINE
  5
249
330
17
100
AcDbEntity
  8
A-ELEC
100
AcDbLine
 10
2149.5
 20
10232.44
 30
0.0
 11
2269.5
 21
10232.44
 31
0.0
  0
LWPOLYLINE
  5
24A
330
17
100
AcDbEntity
  8
A-ELEC
370
35
100
AcDbPolyline
 90
4
 70
1
 10
5409.74
 20
3838.54
 10
5529.74
 20
3838.54
 10
5529.74
 20
3958.54
 10
5409.74
 20
3958.54
  0
LINE
  5
24B
330
17
100
AcDbEntity
  8
A-ELEC
100
AcDbLine
 10
5409.74
 20
3898.54
 30
0.0
 11
5529.74
 21
3898.54
 31
0.0
  0
LWPOLYLINE
  5
24C
330
17
100
AcDbEntity
  8
A-ELEC
370
35
100
AcDbPolyline
 90
4
 70
1
 10
5409.74
 20
2561.94
 10
5529.74
 20
2561.94
 10
5529.74
 20
2681.94
 10
5409.74
 20
2681.94
  0
LINE
  5
24D
330
17
100
AcDbEntity
  8
A-ELEC
100
AcDbLine
 10
5409.74
 20
2621.94
 30
0.0
 11
5529.74
 21
2621.94
 31
0.0
  0
LWPOLYLINE
  5
24E
330
17
100
AcDbEntity
  8
A-ELEC
370
35
100
AcDbPolyline
 90
4
 70
1
 10
3327.9
 20
696.14
 10
3447.9
 20
696.14
 10
3447.9
 20
816.14
 10
3327.9
 20
816.14
  0
LINE
  5
24F
330
17
100
AcDbEntity
  8
A-ELEC
100
AcDbLine
 10
3327.9
 20
756.14
 30
0.0
 11
3447.9
 21
756.14
 31
0.0
  0
LWPOLYLINE
  5
250
330
17
100
AcDbEntity
  8
A-ELEC
370
35
100
AcDbPolyline
 90
4
 70
1
 10
4850.0
 20
1599.5800000000002
 10
4970.0
 20
1599.5800000000002
 10
4970.0
 20
1719.5800000000002
 10
4850.0
 20
1719.5800000000002
  0
LINE
  5
251
330
17
100
AcDbEntity
  8
A-ELEC
100
AcDbLine
 10
4850.0
 20
1659.5800000000002
 30
0.0
 11
4970.0
 21
1659.5800000000002
 31
0.0
  0
LWPOLYLINE
  5
252
330
17
100
AcDbEntity
  8
A-ELEC
370
35
100
AcDbPolyline
 90
4
 70
1
 10
1314.8
 20
2306.62
 10
1434.8
 20
2306.62
 10
1434.8
 20
2426.62
 10
1314.8
 20
2426.62
  0
LINE
  5
253
330
17
100
AcDbEntity
  8
A-ELEC
100
AcDbLine
 10
1314.8
 20
2366.62
 30
0.0
 11
1434.8
 21
2366.62
 31
0.0
  0
LWPOLYLINE
  5
254
330
17
100
AcDbEntity
  8
A-ELEC
370
35
100
AcDbPolyline
 90
4
 70
1
 10
9269.0
 20
8895.84
 10
9389.0
 20
8895.84
 10
9389.0
 20
9015.84
 10
9269.0
 20
9015.84
  0
LINE
  5
255
330
17
100
AcDbEntity
  8
A-ELEC
100
AcDbLine
 10
9269.0
 20
8955.84
 30
0.0
 11
9389.0
 21
8955.84
 31
0.0
  0
LWPOLYLINE
  5
256
330
17
100
AcDbEntity
  8
A-ELEC
370
35
100
AcDbPolyline
 90
4
 70
1
 10
9269.0
 20
7668.34
 10
9389.0
 20
7668.34
 10
9389.0
 20
7788.34
 10
9269.0
 20
7788.34
  0
LINE
  5
257
330
17
100
AcDbEntity
  8
A-ELEC
100
AcDbLine
 10
9269.0
 20
7728.34
 30
0.0
 11
9389.0
 21
7728.34
 31
0.0
  0
LWPOLYLINE
  5
258
330
17
100
AcDbEntity
  8
A-ELEC
370
35
100
AcDbPolyline
 90
4
 70
1
 10
8287.0
 20
6980.9400000000005
 10
8407.0
 20
6980.9400000000005
 10
8407.0
 20
7100.9400000000005
 10
8287.0
 20
7100.9400000000005
  0
LINE
  5
259
330
17
100
AcDbEntity
  8
A-ELEC
100
AcDbLine
 10
8287.0
 20
7040.9400000000005
 30
0.0
 11
8407.0
 21
7040.9400000000005
 31
0.0
  0
LWPOLYLINE
  5
25A
330
17
100
AcDbEntity
  8
A-ELEC
370
35
100
AcDbPolyline
 90
4
 70
1
 10
12195.36
 20
3642.1400000000003
 10
12315.36
 20
3642.1400000000003
 10
12315.36
 20
3762.1400000000003
 10
12195.36
 20
3762.1400000000003
  0
LINE
  5
25B
330
17
100
AcDbEntity
  8
A-ELEC
100
AcDbLine
 10
12195.36
 20
3702.1400000000003
 30
0.0
 11
12315.36
 21
3702.1400000000003
 31
0.0
  0
LWPOLYLINE
  5
25C
330
17
100
AcDbEntity
  8
A-ELEC
370
35
100
AcDbPolyline
 90
4
 70
1
 10
12195.36
 20
2807.44
 10
12315.36
 20
2807.44
 10
12315.36
 20
2927.44
 10
12195.36
 20
2927.44
  0
LINE
  5
25D
330
17
100
AcDbEntity
  8
A-ELEC
100
AcDbLine
 10
12195.36
 20
2867.44
 30
0.0
 11
12315.36
 21
2867.44
 31
0.0
  0
LWPOLYLINE
  5
25E
330
17
100
AcDbEntity
  8
A-ELEC
370
35
100
AcDbPolyline
 90
4
 70
1
 10
10251.0
 20
843.44
 10
10371.0
 20
843.44
 10
10371.0
 20
963.44
 10
10251.0
 20
963.44
  0
LINE
  5
25F
330
17
100
AcDbEntity
  8
A-ELEC
100
AcDbLine
 10
10251.0
 20
903.44
 30
0.0
 11
10371.0
 21
903.44
 31
0.0
  0
LWPOLYLINE
  5
260
330
17
100
AcDbEntity
  8
A-ELEC
370
35
100
AcDbPolyline
 90
4
 70
1
 10
2100.4
 20
7913.84
 10
2220.4
 20
7913.84
 10
2220.4
 20
8033.84
 10
2100.4
 20
8033.84
  0
LINE
  5
261
330
17
100
AcDbEntity
  8
A-ELEC
100
AcDbLine
 10
2100.4
 20
7973.84
 30
0.0
 11
2220.4
 21
7973.84
 31
0.0
  0
LWPOLYLINE
  5
262
330
17
100
AcDbEntity
  8
A-ELEC
370
35
100
AcDbPolyline
 90
4
 70
1
 10
2768.16
 20
7393.38
 10
2888.16
 20
7393.38
 10
2888.16
 20
7513.38
 10
2768.16
 20
7513.38
  0
LINE
  5
263
330
17
100
AcDbEntity
  8
A-ELEC
100
AcDbLine
 10
2768.16
 20
7453.38
 30
0.0
 11
2888.16
 21
7453.38
 31
0.0
  0
LWPOLYLINE
  5
264
330
17
100
AcDbEntity
  8
A-ELEC
370
35
100
AcDbPolyline
 90
4
 70
1
 10
922.0
 20
5723.9800000000005
 10
1042.0
 20
5723.9800000000005
 10
1042.0
 20
5843.9800000000005
 10
922.0
 20
5843.9800000000005
  0
LINE
  5
265
330
17
100
AcDbEntity
  8
A-ELEC
100
AcDbLine
 10
922.0
 20
5783.9800000000005
 30
0.0
 11
1042.0
 21
5783.9800000000005
 31
0.0
  0
LWPOLYLINE
  5
266
330
17
100
AcDbEntity
  8
A-ELEC
370
35
100
AcDbPolyline
 90
4
 70
1
 10
774.7
 20
5262.4400000000005
 10
894.7
 20
5262.4400000000005
 10
894.7
 20
5382.4400000000005
 10
774.7
 20
5382.4400000000005
  0
LINE
  5
267
330
17
100
AcDbEntity
  8
A-ELEC
100
AcDbLine
 10
774.7
 20
5322.4400000000005
 30
0.0
 11
894.7
 21
5322.4400000000005
 31
0.0
  0
LWPOLYLINE
  5
268
330
17
100
AcDbEntity
  8
A-ELEC
370
35
100
AcDbPolyline
 90
4
 70
1
 10
1854.9
 20
6195.34
 10
1974.9
 20
6195.34
 10
1974.9
 20
6315.34
 10
1854.9
 20
6315.34
  0
LINE
  5
269
330
17
100
AcDbEntity
  8
A-ELEC
100
AcDbLine
 10
1854.9
 20
6255.34
 30
0.0
 11
1974.9
 21
6255.34
 31
0.0
  0
CIRCLE
  5
26A
330
17
100
AcDbEntity
  8
A-ELEC
370
35
100
AcDbCircle
 10
9132.6
 20
6304.4400000000005
 30
0.0
 40
70.0
  0
TEXT
  5
26B
330
17
100
AcDbEntity
  8
A-ELEC
420
1184274
100
AcDbText
 10
9132.6
 20
6304.4400000000005
 30
0.0
 40
80.0
  1
S
  7
CN
 72
1
 11
9132.6
 21
6304.4400000000005
 31
0.0
100
AcDbText
 73
2
  0
CIRCLE
  5
26C
330
17
100
AcDbEntity
  8
A-ELEC
370
35
100
AcDbCircle
 10
6039.3
 20
6795.4400000000005
 30
0.0
 40
70.0
  0
TEXT
  5
26D
330
17
100
AcDbEntity
  8
A-ELEC
420
1184274
100
AcDbText
 10
6039.3
 20
6795.4400000000005
 30
0.0
 40
80.0
  1
S
  7
CN
 72
1
 11
6039.3
 21
6795.4400000000005
 31
0.0
100
AcDbText
 73
2
  0
CIRCLE
  5
26E
330
17
100
AcDbEntity
  8
A-ELEC
370
35
100
AcDbCircle
 10
9525.4
 20
5224.24
 30
0.0
 40
70.0
  0
TEXT
  5
26F
330
17
100
AcDbEntity
  8
A-ELEC
420
1184274
100
AcDbText
 10
9525.4
 20
5224.24
 30
0.0
 40
80.0
  1
S
  7
CN
 72
1
 11
9525.4
 21
5224.24
 31
0.0
100
AcDbText
 73
2
  0
CIRCLE
  5
270
330
17
100
AcDbEntity
  8
A-ELEC
370
35
100
AcDbCircle
 10
5283.16
 20
5322.4400000000005
 30
0.0
 40
70.0
  0
TEXT
  5
271
330
17
100
AcDbEntity
  8
A-ELEC
420
1184274
100
AcDbText
 10
5283.16
 20
5322.4400000000005
 30
0.0
 40
80.0
  1
S
  7
CN
 72
1
 11
5283.16
 21
5322.4400000000005
 31
0.0
100
AcDbText
 73
2
  0
CIRCLE
  5
272
330
17
100
AcDbEntity
  8
A-ELEC
370
35
100
AcDbCircle
 10
2111.3
 20
2602.3
 30
0.0
 40
70.0
  0
TEXT
  5
273
330
17
100
AcDbEntity
  8
A-ELEC
420
1184274
100
AcDbText
 10
2111.3
 20
2602.3
 30
0.0
 40
80.0
  1
S
  7
CN
 72
1
 11
2111.3
 21
2602.3
 31
0.0
100
AcDbText
 73
2
  0
CIRCLE
  5
274
330
17
100
AcDbEntity
  8
A-ELEC
370
35
100
AcDbCircle
 10
1885.44
 20
4978.74
 30
0.0
 40
70.0
  0
TEXT
  5
275
330
17
100
AcDbEntity
  8
A-ELEC
420
1184274
100
AcDbText
 10
1885.44
 20
4978.74
 30
0.0
 40
80.0
  1
S
  7
CN
 72
1
 11
1885.44
 21
4978.74
 31
0.0
100
AcDbText
 73
2
  0
CIRCLE
  5
276
330
17
100
AcDbEntity
  8
A-ELEC
370
35
100
AcDbCircle
 10
3653.04
 20
6765.9800000000005
 30
0.0
 40
70.0
  0
TEXT
  5
277
330
17
100
AcDbEntity
  8
A-ELEC
420
1184274
100
AcDbText
 10
3653.04
 20
6765.9800000000005
 30
0.0
 40
80.0
  1
S
  7
CN
 72
1
 11
3653.04
 21
6765.9800000000005
 31
0.0
100
AcDbText
 73
2
  0
CIRCLE
  5
278
330
17
100
AcDbEntity
  8
A-ELEC
370
35
100
AcDbCircle
 10
3829.8
 20
10006.58
 30
0.0
 40
70.0
  0
TEXT
  5
279
330
17
100
AcDbEntity
  8
A-ELEC
420
1184274
100
AcDbText
 10
3829.8
 20
10006.58
 30
0.0
 40
80.0
  1
S
  7
CN
 72
1
 11
3829.8
 21
10006.58
 31
0.0
100
AcDbText
 73
2
  0
CIRCLE
  5
27A
330
17
100
AcDbEntity
  8
A-ELEC
370
35
100
AcDbCircle
 10
4959.1
 20
5322.4400000000005
 30
0.0
 40
70.0
  0
TEXT
  5
27B
330
17
100
AcDbEntity
  8
A-ELEC
420
1184274
100
AcDbText
 10
4959.1
 20
5322.4400000000005
 30
0.0
 40
80.0
  1
S
  7
CN
 72
1
 11
4959.1
 21
5322.4400000000005
 31
0.0
100
AcDbText
 73
2
  0
LINE
  5
27C
330
17
100
AcDbEntity
  8
A-ELEC
370
13
100
AcDbLine
 10
9230.800000000001
 20
6569.58
 30
0.0
 11
9230.800000000001
 21
6989.58
 31
0.0
  0
LINE
  5
27D
330
17
100
AcDbEntity
  8
A-ELEC
370
13
100
AcDbLine
 10
8641.6
 20
6569.58
 30
0.0
 11
8534.448638937774
 21
6310.89373089684
 31
0.0
  0
LINE
  5
27E
330
17
100
AcDbEntity
  8
A-ELEC
370
13
100
AcDbLine
 10
7659.6
 20
6648.14
 30
0.0
 11
7552.448638937775
 21
6389.45373089684
 31
0.0
  0
LINE
  5
27F
330
17
100
AcDbEntity
  8
A-ELEC
370
13
100
AcDbLine
 10
4320.8
 20
9515.58
 30
0.0
 11
4427.951361062225
 21
9774.26626910316
 31
0.0
  0
LINE
  5
280
330
17
100
AcDbEntity
  8
A-ELEC
370
13
100
AcDbLine
 10
4320.8
 20
8729.98
 30
0.0
 11
4427.951361062225
 21
8988.66626910316
 31
0.0
  0
LINE
  5
281
330
17
100
AcDbEntity
  8
A-ELEC
370
13
100
AcDbLine
 10
4320.8
 20
8042.58
 30
0.0
 11
4427.951361062225
 21
8301.26626910316
 31
0.0
  0
LINE
  5
282
330
17
100
AcDbEntity
  8
A-ELEC
370
13
100
AcDbLine
 10
5675.96
 20
1345.3400000000001
 30
0.0
 11
6095.96
 21
1345.3400000000001
 31
0.0
  0
LINE
  5
283
330
17
100
AcDbEntity
  8
A-ELEC
370
13
100
AcDbLine
 10
8445.2
 20
3014.7400000000002
 30
0.0
 11
8552.351361062227
 21
3273.4262691031604
 31
0.0
  0
LINE
  5
284
330
17
100
AcDbEntity
  8
A-ELEC
370
13
100
AcDbLine
 10
9083.5
 20
461.54
 30
0.0
 11
9190.651361062226
 21
720.2262691031603
 31
0.0
  0
LINE
  5
285
330
17
100
AcDbEntity
  8
A-ELEC
370
13
100
AcDbLine
 10
5842.900000000001
 20
3162.04
 30
0.0
 11
6262.900000000001
 21
3162.04
 31
0.0
  0
LINE
  5
286
330
17
100
AcDbEntity
  8
A-ELEC
370
13
100
AcDbLine
 10
5842.900000000001
 20
4684.14
 30
0.0
 11
6262.900000000001
 21
4684.14
 31
0.0
  0
LINE
  5
287
330
17
100
AcDbEntity
  8
A-ELEC
370
13
100
AcDbLine
 10
2749.6
 20
11528.68
 30
0.0
 11
2642.448638937775
 21
11269.99373089684
 31
0.0
  0
LINE
  5
288
330
17
100
AcDbEntity
  8
A-ELEC
370
13
100
AcDbLine
 10
4320.8
 20
11528.68
 30
0.0
 11
4213.648638937775
 21
11269.99373089684
 31
0.0
  0
LINE
  5
289
330
17
100
AcDbEntity
  8
A-ELEC
370
13
100
AcDbLine
 10
5351.900000000001
 20
11528.68
 30
0.0
 11
5244.7486389377755
 21
11269.99373089684
 31
0.0
  0
LINE
  5
28A
330
17
100
AcDbEntity
  8
A-ELEC
370
13
100
AcDbLine
 10
2209.5
 20
10232.44
 30
0.0
 11
2316.651361062225
 21
10491.12626910316
 31
0.0
  0
LINE
  5
28B
330
17
100
AcDbEntity
  8
A-ELEC
370
13
100
AcDbLine
 10
5469.74
 20
3898.54
 30
0.0
 11
5362.588638937775
 21
4157.22626910316
 31
0.0
  0
LINE
  5
28C
330
17
100
AcDbEntity
  8
A-ELEC
370
13
100
AcDbLine
 10
5469.74
 20
2621.94
 30
0.0
 11
5362.588638937775
 21
2880.62626910316
 31
0.0
  0
LINE
  5
28D
330
17
100
AcDbEntity
  8
A-ELEC
370
13
100
AcDbLine
 10
3387.9
 20
756.14
 30
0.0
 11
3495.051361062225
 21
1014.8262691031603
 31
0.0
  0
LINE
  5
28E
330
17
100
AcDbEntity
  8
A-ELEC
370
13
100
AcDbLine
 10
4910.0
 20
1659.5800000000002
 30
0.0
 11
4802.848638937775
 21
1400.89373089684
 31
0.0
  0
LINE
  5
28F
330
17
100
AcDbEntity
  8
A-ELEC
370
13
100
AcDbLine
 10
1374.8
 20
2366.62
 30
0.0
 11
1481.951361062225
 21
2625.30626910316
 31
0.0
  0
LINE
  5
290
330
17
100
AcDbEntity
  8
A-ELEC
370
13
100
AcDbLine
 10
9329.0
 20
8955.84
 30
0.0
 11
9221.848638937774
 21
9214.52626910316
 31
0.0
  0
LINE
  5
291
330
17
100
AcDbEntity
  8
A-ELEC
370
13
100
AcDbLine
 10
9329.0
 20
7728.34
 30
0.0
 11
9221.848638937774
 21
7987.02626910316
 31
0.0
  0
LINE
  5
292
330
17
100
AcDbEntity
  8
A-ELEC
370
13
100
AcDbLine
 10
8347.0
 20
7040.9400000000005
 30
0.0
 11
8454.151361062226
 21
7299.626269103161
 31
0.0
  0
LINE
  5
293
330
17
100
AcDbEntity
  8
A-ELEC
370
13
100
AcDbLine
 10
12255.36
 20
3702.1400000000003
 30
0.0
 11
12148.208638937775
 21
3960.8262691031605
 31
0.0
  0
LINE
  5
294
330
17
100
AcDbEntity
  8
A-ELEC
370
13
100
AcDbLine
 10
12255.36
 20
2867.44
 30
0.0
 11
12148.208638937775
 21
3126.12626910316
 31
0.0
  0
LINE
  5
295
330
17
100
AcDbEntity
  8
A-ELEC
370
13
100
AcDbLine
 10
10311.0
 20
903.44
 30
0.0
 11
10418.151361062226
 21
1162.1262691031602
 31
0.0
  0
LINE
  5
296
330
17
100
AcDbEntity
  8
A-ELEC
370
13
100
AcDbLine
 10
2160.4
 20
7973.84
 30
0.0
 11
2580.4
 21
7973.84
 31
0.0
  0
LINE
  5
297
330
17
100
AcDbEntity
  8
A-ELEC
370
13
100
AcDbLine
 10
2828.16
 20
7453.38
 30
0.0
 11
2721.008638937775
 21
7194.69373089684
 31
0.0
  0
LINE
  5
298
330
17
100
AcDbEntity
  8
A-ELEC
370
13
100
AcDbLine
 10
982.0
 20
5783.9800000000005
 30
0.0
 11
1089.151361062225
 21
6042.666269103161
 31
0.0
  0
LINE
  5
299
330
17
100
AcDbEntity
  8
A-ELEC
370
13
100
AcDbLine
 10
834.7
 20
5322.4400000000005
 30
0.0
 11
727.5486389377747
 21
5063.75373089684
 31
0.0
  0
LINE
  5
29A
330
17
100
AcDbEntity
  8
A-ELEC
370
13
100
AcDbLine
 10
1914.9
 20
6255.34
 30
0.0
 11
1754.1729584066625
 21
6643.36940365474
 31
0.0
  0
LINE
  5
29B
330
17
100
AcDbEntity
  8
A-ELEC
370
13
100
AcDbLine
 10
9132.6
 20
6304.4400000000005
 30
0.0
 11
9025.448638937774
 21
6045.75373089684
 31
0.0
  0
LINE
  5
29C
330
17
100
AcDbEntity
  8
A-ELEC
370
13
100
AcDbLine
 10
6039.3
 20
6795.4400000000005
 30
0.0
 11
6146.451361062225
 21
7054.126269103161
 31
0.0
  0
LINE
  5
29D
330
17
100
AcDbEntity
  8
A-ELEC
370
13
100
AcDbLine
 10
9525.4
 20
5224.24
 30
0.0
 11
9418.248638937774
 21
4965.55373089684
 31
0.0
  0
LINE
  5
29E
330
17
100
AcDbEntity
  8
A-ELEC
370
13
100
AcDbLine
 10
5283.16
 20
5322.4400000000005
 30
0.0
 11
5283.16
 21
5602.4400000000005
 31
0.0
  0
LINE
  5
29F
330
17
100
AcDbEntity
  8
A-ELEC
370
13
100
AcDbLine
 10
2111.3
 20
2602.3
 30
0.0
 11
2218.4513610622253
 21
2860.9862691031603
 31
0.0
  0
LINE
  5
2A0
330
17
100
AcDbEntity
  8
A-ELEC
370
13
100
AcDbLine
 10
1885.44
 20
4978.74
 30
0.0
 11
1778.288638937775
 21
5237.42626910316
 31
0.0
  0
LINE
  5
2A1
330
17
100
AcDbEntity
  8
A-ELEC
370
13
100
AcDbLine
 10
3653.04
 20
6765.9800000000005
 30
0.0
 11
3760.191361062225
 21
7024.666269103161
 31
0.0
  0
LINE
  5
2A2
330
17
100
AcDbEntity
  8
A-ELEC
370
13
100
AcDbLine
 10
3829.8
 20
10006.58
 30
0.0
 11
4249.8
 21
10006.58
 31
0.0
  0
LINE
  5
2A3
330
17
100
AcDbEntity
  8
A-ELEC
370
13
100
AcDbLine
 10
4959.1
 20
5322.4400000000005
 30
0.0
 11
4851.948638937775
 21
5063.75373089684
 31
0.0
  0
SOLID
  5
2A4
330
17
100
AcDbEntity
  8
A-MASK
420
16777215
100
AcDbTrace
 10
9075.800000000001
 20
6889.58
 30
0.0
 11
9385.800000000001
 21
6889.58
 31
0.0
 12
9075.800000000001
 22
7089.58
 32
0.0
 13
9385.800000000001
 23
7089.58
 33
0.0
  0
LWPOLYLINE
  5
2A5
330
17
100
AcDbEntity
  8
A-ELEC
370
13
100
AcDbPolyline
 90
4
 70
1
 10
9075.800000000001
 20
6889.58
 10
9385.800000000001
 20
6889.58
 10
9385.800000000001
 20
7089.58
 10
9075.800000000001
 20
7089.58
  0
TEXT
  5
2A6
330
17
100
AcDbEntity
  8
A-ELEC
420
1184274
100
AcDbText
 10
9230.800000000001
 20
6989.58
 30
0.0
 40
120.0
  1
E01
  7
CN
 72
1
 11
9230.800000000001
 21
6989.58
 31
0.0
100
AcDbText
 73
2
  0
SOLID
  5
2A7
330
17
100
AcDbEntity
  8
A-MASK
420
16777215
100
AcDbTrace
 10
8379.448638937774
 20
6210.89373089684
 30
0.0
 11
8689.448638937774
 21
6210.89373089684
 31
0.0
 12
8379.448638937774
 22
6410.89373089684
 32
0.0
 13
8689.448638937774
 23
6410.89373089684
 33
0.0
  0
LWPOLYLINE
  5
2A8
330
17
100
AcDbEntity
  8
A-ELEC
370
13
100
AcDbPolyline
 90
4
 70
1
 10
8379.448638937774
 20
6210.89373089684
 10
8689.448638937774
 20
6210.89373089684
 10
8689.448638937774
 20
6410.89373089684
 10
8379.448638937774
 20
6410.89373089684
  0
TEXT
  5
2A9
330
17
100
AcDbEntity
  8
A-ELEC
420
1184274
100
AcDbText
 10
8534.448638937774
 20
6310.89373089684
 30
0.0
 40
120.0
  1
E02
  7
CN
 72
1
 11
8534.448638937774
 21
6310.89373089684
 31
0.0
100
AcDbText
 73
2
  0
SOLID
  5
2AA
330
17
100
AcDbEntity
  8
A-MASK
420
16777215
100
AcDbTrace
 10
7397.448638937775
 20
6289.45373089684
 30
0.0
 11
7707.448638937775
 21
6289.45373089684
 31
0.0
 12
7397.448638937775
 22
6489.45373089684
 32
0.0
 13
7707.448638937775
 23
6489.45373089684
 33
0.0
  0
LWPOLYLINE
  5
2AB
330
17
100
AcDbEntity
  8
A-ELEC
370
13
100
AcDbPolyline
 90
4
 70
1
 10
7397.448638937775
 20
6289.45373089684
 10
7707.448638937775
 20
6289.45373089684
 10
7707.448638937775
 20
6489.45373089684
 10
7397.448638937775
 20
6489.45373089684
  0
TEXT
  5
2AC
330
17
100
AcDbEntity
  8
A-ELEC
420
1184274
100
AcDbText
 10
7552.448638937775
 20
6389.45373089684
 30
0.0
 40
120.0
  1
E03
  7
CN
 72
1
 11
7552.448638937775
 21
6389.45373089684
 31
0.0
100
AcDbText
 73
2
  0
SOLID
  5
2AD
330
17
100
AcDbEntity
  8
A-MASK
420
16777215
100
AcDbTrace
 10
4272.951361062225
 20
9674.26626910316
 30
0.0
 11
4582.951361062225
 21
9674.26626910316
 31
0.0
 12
4272.951361062225
 22
9874.26626910316
 32
0.0
 13
4582.951361062225
 23
9874.26626910316
 33
0.0
  0
LWPOLYLINE
  5
2AE
330
17
100
AcDbEntity
  8
A-ELEC
370
13
100
AcDbPolyline
 90
4
 70
1
 10
4272.951361062225
 20
9674.26626910316
 10
4582.951361062225
 20
9674.26626910316
 10
4582.951361062225
 20
9874.26626910316
 10
4272.951361062225
 20
9874.26626910316
  0
TEXT
  5
2AF
330
17
100
AcDbEntity
  8
A-ELEC
420
1184274
100
AcDbText
 10
4427.951361062225
 20
9774.26626910316
 30
0.0
 40
120.0
  1
E04
  7
CN
 72
1
 11
4427.951361062225
 21
9774.26626910316
 31
0.0
100
AcDbText
 73
2
  0
SOLID
  5
2B0
330
17
100
AcDbEntity
  8
A-MASK
420
16777215
100
AcDbTrace
 10
4272.951361062225
 20
8888.66626910316
 30
0.0
 11
4582.951361062225
 21
8888.66626910316
 31
0.0
 12
4272.951361062225
 22
9088.66626910316
 32
0.0
 13
4582.951361062225
 23
9088.66626910316
 33
0.0
  0
LWPOLYLINE
  5
2B1
330
17
100
AcDbEntity
  8
A-ELEC
370
13
100
AcDbPolyline
 90
4
 70
1
 10
4272.951361062225
 20
8888.66626910316
 10
4582.951361062225
 20
8888.66626910316
 10
4582.951361062225
 20
9088.66626910316
 10
4272.951361062225
 20
9088.66626910316
  0
TEXT
  5
2B2
330
17
100
AcDbEntity
  8
A-ELEC
420
1184274
100
AcDbText
 10
4427.951361062225
 20
8988.66626910316
 30
0.0
 40
120.0
  1
E05
  7
CN
 72
1
 11
4427.951361062225
 21
8988.66626910316
 31
0.0
100
AcDbText
 73
2
  0
SOLID
  5
2B3
330
17
100
AcDbEntity
  8
A-MASK
420
16777215
100
AcDbTrace
 10
4272.951361062225
 20
8201.26626910316
 30
0.0
 11
4582.951361062225
 21
8201.26626910316
 31
0.0
 12
4272.951361062225
 22
8401.26626910316
 32
0.0
 13
4582.951361062225
 23
8401.26626910316
 33
0.0
  0
LWPOLYLINE
  5
2B4
330
17
100
AcDbEntity
  8
A-ELEC
370
13
100
AcDbPolyline
 90
4
 70
1
 10
4272.951361062225
 20
8201.26626910316
 10
4582.951361062225
 20
8201.26626910316
 10
4582.951361062225
 20
8401.26626910316
 10
4272.951361062225
 20
8401.26626910316
  0
TEXT
  5
2B5
330
17
100
AcDbEntity
  8
A-ELEC
420
1184274
100
AcDbText
 10
4427.951361062225
 20
8301.26626910316
 30
0.0
 40
120.0
  1
E06
  7
CN
 72
1
 11
4427.951361062225
 21
8301.26626910316
 31
0.0
100
AcDbText
 73
2
  0
SOLID
  5
2B6
330
17
100
AcDbEntity
  8
A-MASK
420
16777215
100
AcDbTrace
 10
5940.96
 20
1245.3400000000001
 30
0.0
 11
6250.96
 21
1245.3400000000001
 31
0.0
 12
5940.96
 22
1445.3400000000001
 32
0.0
 13
6250.96
 23
1445.3400000000001
 33
0.0
  0
LWPOLYLINE
  5
2B7
330
17
100
AcDbEntity
  8
A-ELEC
370
13
100
AcDbPolyline
 90
4
 70
1
 10
5940.96
 20
1245.3400000000001
 10
6250.96
 20
1245.3400000000001
 10
6250.96
 20
1445.3400000000001
 10
5940.96
 20
1445.3400000000001
  0
TEXT
  5
2B8
330
17
100
AcDbEntity
  8
A-ELEC
420
1184274
100
AcDbText
 10
6095.96
 20
1345.3400000000001
 30
0.0
 40
120.0
  1
E07
  7
CN
 72
1
 11
6095.96
 21
1345.3400000000001
 31
0.0
100
AcDbText
 73
2
  0
SOLID
  5
2B9
330
17
100
AcDbEntity
  8
A-MASK
420
16777215
100
AcDbTrace
 10
8397.351361062227
 20
3173.4262691031604
 30
0.0
 11
8707.351361062227
 21
3173.4262691031604
 31
0.0
 12
8397.351361062227
 22
3373.4262691031604
 32
0.0
 13
8707.351361062227
 23
3373.4262691031604
 33
0.0
  0
LWPOLYLINE
  5
2BA
330
17
100
AcDbEntity
  8
A-ELEC
370
13
100
AcDbPolyline
 90
4
 70
1
 10
8397.351361062227
 20
3173.4262691031604
 10
8707.351361062227
 20
3173.4262691031604
 10
8707.351361062227
 20
3373.4262691031604
 10
8397.351361062227
 20
3373.4262691031604
  0
TEXT
  5
2BB
330
17
100
AcDbEntity
  8
A-ELEC
420
1184274
100
AcDbText
 10
8552.351361062227
 20
3273.4262691031604
 30
0.0
 40
120.0
  1
E08
  7
CN
 72
1
 11
8552.351361062227
 21
3273.4262691031604
 31
0.0
100
AcDbText
 73
2
  0
SOLID
  5
2BC
330
17
100
AcDbEntity
  8
A-MASK
420
16777215
100
AcDbTrace
 10
9035.651361062226
 20
620.2262691031603
 30
0.0
 11
9345.651361062226
 21
620.2262691031603
 31
0.0
 12
9035.651361062226
 22
820.2262691031603
 32
0.0
 13
9345.651361062226
 23
820.2262691031603
 33
0.0
  0
LWPOLYLINE
  5
2BD
330
17
100
AcDbEntity
  8
A-ELEC
370
13
100
AcDbPolyline
 90
4
 70
1
 10
9035.651361062226
 20
620.2262691031603
 10
9345.651361062226
 20
620.2262691031603
 10
9345.651361062226
 20
820.2262691031603
 10
9035.651361062226
 20
820.2262691031603
  0
TEXT
  5
2BE
330
17
100
AcDbEntity
  8
A-ELEC
420
1184274
100
AcDbText
 10
9190.651361062226
 20
720.2262691031603
 30
0.0
 40
120.0
  1
E09
  7
CN
 72
1
 11
9190.651361062226
 21
720.2262691031603
 31
0.0
100
AcDbText
 73
2
  0
SOLID
  5
2BF
330
17
100
AcDbEntity
  8
A-MASK
420
16777215
100
AcDbTrace
 10
6107.900000000001
 20
3062.04
 30
0.0
 11
6417.900000000001
 21
3062.04
 31
0.0
 12
6107.900000000001
 22
3262.04
 32
0.0
 13
6417.900000000001
 23
3262.04
 33
0.0
  0
LWPOLYLINE
  5
2C0
330
17
100
AcDbEntity
  8
A-ELEC
370
13
100
AcDbPolyline
 90
4
 70
1
 10
6107.900000000001
 20
3062.04
 10
6417.900000000001
 20
3062.04
 10
6417.900000000001
 20
3262.04
 10
6107.900000000001
 20
3262.04
  0
TEXT
  5
2C1
330
17
100
AcDbEntity
  8
A-ELEC
420
1184274
100
AcDbText
 10
6262.900000000001
 20
3162.04
 30
0.0
 40
120.0
  1
E10
  7
CN
 72
1
 11
6262.900000000001
 21
3162.04
 31
0.0
100
AcDbText
 73
2
  0
SOLID
  5
2C2
330
17
100
AcDbEntity
  8
A-MASK
420
16777215
100
AcDbTrace
 10
6107.900000000001
 20
4584.14
 30
0.0
 11
6417.900000000001
 21
4584.14
 31
0.0
 12
6107.900000000001
 22
4784.14
 32
0.0
 13
6417.900000000001
 23
4784.14
 33
0.0
  0
LWPOLYLINE
  5
2C3
330
17
100
AcDbEntity
  8
A-ELEC
370
13
100
AcDbPolyline
 90
4
 70
1
 10
6107.900000000001
 20
4584.14
 10
6417.900000000001
 20
4584.14
 10
6417.900000000001
 20
4784.14
 10
6107.900000000001
 20
4784.14
  0
TEXT
  5
2C4
330
17
100
AcDbEntity
  8
A-ELEC
420
1184274
100
AcDbText
 10
6262.900000000001
 20
4684.14
 30
0.0
 40
120.0
  1
E11
  7
CN
 72
1
 11
6262.900000000001
 21
4684.14
 31
0.0
100
AcDbText
 73
2
  0
SOLID
  5
2C5
330
17
100
AcDbEntity
  8
A-MASK
420
16777215
100
AcDbTrace
 10
2487.448638937775
 20
11169.99373089684
 30
0.0
 11
2797.448638937775
 21
11169.99373089684
 31
0.0
 12
2487.448638937775
 22
11369.99373089684
 32
0.0
 13
2797.448638937775
 23
11369.99373089684
 33
0.0
  0
LWPOLYLINE
  5
2C6
330
17
100
AcDbEntity
  8
A-ELEC
370
13
100
AcDbPolyline
 90
4
 70
1
 10
2487.448638937775
 20
11169.99373089684
 10
2797.448638937775
 20
11169.99373089684
 10
2797.448638937775
 20
11369.99373089684
 10
2487.448638937775
 20
11369.99373089684
  0
TEXT
  5
2C7
330
17
100
AcDbEntity
  8
A-ELEC
420
1184274
100
AcDbText
 10
2642.448638937775
 20
11269.99373089684
 30
0.0
 40
120.0
  1
E12
  7
CN
 72
1
 11
2642.448638937775
 21
11269.99373089684
 31
0.0
100
AcDbText
 73
2
  0
SOLID
  5
2C8
330
17
100
AcDbEntity
  8
A-MASK
420
16777215
100
AcDbTrace
 10
4058.648638937775
 20
11169.99373089684
 30
0.0
 11
4368.648638937775
 21
11169.99373089684
 31
0.0
 12
4058.648638937775
 22
11369.99373089684
 32
0.0
 13
4368.648638937775
 23
11369.99373089684
 33
0.0
  0
LWPOLYLINE
  5
2C9
330
17
100
AcDbEntity
  8
A-ELEC
370
13
100
AcDbPolyline
 90
4
 70
1
 10
4058.648638937775
 20
11169.99373089684
 10
4368.648638937775
 20
11169.99373089684
 10
4368.648638937775
 20
11369.99373089684
 10
4058.648638937775
 20
11369.99373089684
  0
TEXT
  5
2CA
330
17
100
AcDbEntity
  8
A-ELEC
420
1184274
100
AcDbText
 10
4213.648638937775
 20
11269.99373089684
 30
0.0
 40
120.0
  1
E13
  7
CN
 72
1
 11
4213.648638937775
 21
11269.99373089684
 31
0.0
100
AcDbText
 73
2
  0
SOLID
  5
2CB
330
17
100
AcDbEntity
  8
A-MASK
420
16777215
100
AcDbTrace
 10
5089.7486389377755
 20
11169.99373089684
 30
0.0
 11
5399.7486389377755
 21
11169.99373089684
 31
0.0
 12
5089.7486389377755
 22
11369.99373089684
 32
0.0
 13
5399.7486389377755
 23
11369.99373089684
 33
0.0
  0
LWPOLYLINE
  5
2CC
330
17
100
AcDbEntity
  8
A-ELEC
370
13
100
AcDbPolyline
 90
4
 70
1
 10
5089.7486389377755
 20
11169.99373089684
 10
5399.7486389377755
 20
11169.99373089684
 10
5399.7486389377755
 20
11369.99373089684
 10
5089.7486389377755
 20
11369.99373089684
  0
TEXT
  5
2CD
330
17
100
AcDbEntity
  8
A-ELEC
420
1184274
100
AcDbText
 10
5244.7486389377755
 20
11269.99373089684
 30
0.0
 40
120.0
  1
E14
  7
CN
 72
1
 11
5244.7486389377755
 21
11269.99373089684
 31
0.0
100
AcDbText
 73
2
  0
SOLID
  5
2CE
330
17
100
AcDbEntity
  8
A-MASK
420
16777215
100
AcDbTrace
 10
2161.651361062225
 20
10391.12626910316
 30
0.0
 11
2471.651361062225
 21
10391.12626910316
 31
0.0
 12
2161.651361062225
 22
10591.12626910316
 32
0.0
 13
2471.651361062225
 23
10591.12626910316
 33
0.0
  0
LWPOLYLINE
  5
2CF
330
17
100
AcDbEntity
  8
A-ELEC
370
13
100
AcDbPolyline
 90
4
 70
1
 10
2161.651361062225
 20
10391.12626910316
 10
2471.651361062225
 20
10391.12626910316
 10
2471.651361062225
 20
10591.12626910316
 10
2161.651361062225
 20
10591.12626910316
  0
TEXT
  5
2D0
330
17
100
AcDbEntity
  8
A-ELEC
420
1184274
100
AcDbText
 10
2316.651361062225
 20
10491.12626910316
 30
0.0
 40
120.0
  1
E15
  7
CN
 72
1
 11
2316.651361062225
 21
10491.12626910316
 31
0.0
100
AcDbText
 73
2
  0
SOLID
  5
2D1
330
17
100
AcDbEntity
  8
A-MASK
420
16777215
100
AcDbTrace
 10
5207.588638937775
 20
4057.22626910316
 30
0.0
 11
5517.588638937775
 21
4057.22626910316
 31
0.0
 12
5207.588638937775
 22
4257.22626910316
 32
0.0
 13
5517.588638937775
 23
4257.22626910316
 33
0.0
  0
LWPOLYLINE
  5
2D2
330
17
100
AcDbEntity
  8
A-ELEC
370
13
100
AcDbPolyline
 90
4
 70
1
 10
5207.588638937775
 20
4057.22626910316
 10
5517.588638937775
 20
4057.22626910316
 10
5517.588638937775
 20
4257.22626910316
 10
5207.588638937775
 20
4257.22626910316
  0
TEXT
  5
2D3
330
17
100
AcDbEntity
  8
A-ELEC
420
1184274
100
AcDbText
 10
5362.588638937775
 20
4157.22626910316
 30
0.0
 40
120.0
  1
E16
  7
CN
 72
1
 11
5362.588638937775
 21
4157.22626910316
 31
0.0
100
AcDbText
 73
2
  0
SOLID
  5
2D4
330
17
100
AcDbEntity
  8
A-MASK
420
16777215
100
AcDbTrace
 10
5207.588638937775
 20
2780.62626910316
 30
0.0
 11
5517.588638937775
 21
2780.62626910316
 31
0.0
 12
5207.588638937775
 22
2980.62626910316
 32
0.0
 13
5517.588638937775
 23
2980.62626910316
 33
0.0
  0
LWPOLYLINE
  5
2D5
330
17
100
AcDbEntity
  8
A-ELEC
370
13
100
AcDbPolyline
 90
4
 70
1
 10
5207.588638937775
 20
2780.62626910316
 10
5517.588638937775
 20
2780.62626910316
 10
5517.588638937775
 20
2980.62626910316
 10
5207.588638937775
 20
2980.62626910316
  0
TEXT
  5
2D6
330
17
100
AcDbEntity
  8
A-ELEC
420
1184274
100
AcDbText
 10
5362.588638937775
 20
2880.62626910316
 30
0.0
 40
120.0
  1
E17
  7
CN
 72
1
 11
5362.588638937775
 21
2880.62626910316
 31
0.0
100
AcDbText
 73
2
  0
SOLID
  5
2D7
330
17
100
AcDbEntity
  8
A-MASK
420
16777215
100
AcDbTrace
 10
3340.051361062225
 20
914.8262691031603
 30
0.0
 11
3650.051361062225
 21
914.8262691031603
 31
0.0
 12
3340.051361062225
 22
1114.8262691031603
 32
0.0
 13
3650.051361062225
 23
1114.8262691031603
 33
0.0
  0
LWPOLYLINE
  5
2D8
330
17
100
AcDbEntity
  8
A-ELEC
370
13
100
AcDbPolyline
 90
4
 70
1
 10
3340.051361062225
 20
914.8262691031603
 10
3650.051361062225
 20
914.8262691031603
 10
3650.051361062225
 20
1114.8262691031603
 10
3340.051361062225
 20
1114.8262691031603
  0
TEXT
  5
2D9
330
17
100
AcDbEntity
  8
A-ELEC
420
1184274
100
AcDbText
 10
3495.051361062225
 20
1014.8262691031603
 30
0.0
 40
120.0
  1
E18
  7
CN
 72
1
 11
3495.051361062225
 21
1014.8262691031603
 31
0.0
100
AcDbText
 73
2
  0
SOLID
  5
2DA
330
17
100
AcDbEntity
  8
A-MASK
420
16777215
100
AcDbTrace
 10
4647.848638937775
 20
1300.89373089684
 30
0.0
 11
4957.848638937775
 21
1300.89373089684
 31
0.0
 12
4647.848638937775
 22
1500.89373089684
 32
0.0
 13
4957.848638937775
 23
1500.89373089684
 33
0.0
  0
LWPOLYLINE
  5
2DB
330
17
100
AcDbEntity
  8
A-ELEC
370
13
100
AcDbPolyline
 90
4
 70
1
 10
4647.848638937775
 20
1300.89373089684
 10
4957.848638937775
 20
1300.89373089684
 10
4957.848638937775
 20
1500.89373089684
 10
4647.848638937775
 20
1500.89373089684
  0
TEXT
  5
2DC
330
17
100
AcDbEntity
  8
A-ELEC
420
1184274
100
AcDbText
 10
4802.848638937775
 20
1400.89373089684
 30
0.0
 40
120.0
  1
E19
  7
CN
 72
1
 11
4802.848638937775
 21
1400.89373089684
 31
0.0
100
AcDbText
 73
2
  0
SOLID
  5
2DD
330
17
100
AcDbEntity
  8
A-MASK
420
16777215
100
AcDbTrace
 10
1326.951361062225
 20
2525.30626910316
 30
0.0
 11
1636.951361062225
 21
2525.30626910316
 31
0.0
 12
1326.951361062225
 22
2725.30626910316
 32
0.0
 13
1636.951361062225
 23
2725.30626910316
 33
0.0
  0
LWPOLYLINE
  5
2DE
330
17
100
AcDbEntity
  8
A-ELEC
370
13
100
AcDbPolyline
 90
4
 70
1
 10
1326.951361062225
 20
2525.30626910316
 10
1636.951361062225
 20
2525.30626910316
 10
1636.951361062225
 20
2725.30626910316
 10
1326.951361062225
 20
2725.30626910316
  0
TEXT
  5
2DF
330
17
100
AcDbEntity
  8
A-ELEC
420
1184274
100
AcDbText
 10
1481.951361062225
 20
2625.30626910316
 30
0.0
 40
120.0
  1
E20
  7
CN
 72
1
 11
1481.951361062225
 21
2625.30626910316
 31
0.0
100
AcDbText
 73
2
  0
SOLID
  5
2E0
330
17
100
AcDbEntity
  8
A-MASK
420
16777215
100
AcDbTrace
 10
9066.848638937774
 20
9114.52626910316
 30
0.0
 11
9376.848638937774
 21
9114.52626910316
 31
0.0
 12
9066.848638937774
 22
9314.52626910316
 32
0.0
 13
9376.848638937774
 23
9314.52626910316
 33
0.0
  0
LWPOLYLINE
  5
2E1
330
17
100
AcDbEntity
  8
A-ELEC
370
13
100
AcDbPolyline
 90
4
 70
1
 10
9066.848638937774
 20
9114.52626910316
 10
9376.848638937774
 20
9114.52626910316
 10
9376.848638937774
 20
9314.52626910316
 10
9066.848638937774
 20
9314.52626910316
  0
TEXT
  5
2E2
330
17
100
AcDbEntity
  8
A-ELEC
420
1184274
100
AcDbText
 10
9221.848638937774
 20
9214.52626910316
 30
0.0
 40
120.0
  1
E21
  7
CN
 72
1
 11
9221.848638937774
 21
9214.52626910316
 31
0.0
100
AcDbText
 73
2
  0
SOLID
  5
2E3
330
17
100
AcDbEntity
  8
A-MASK
420
16777215
100
AcDbTrace
 10
9066.848638937774
 20
7887.02626910316
 30
0.0
 11
9376.848638937774
 21
7887.02626910316
 31
0.0
 12
9066.848638937774
 22
8087.02626910316
 32
0.0
 13
9376.848638937774
 23
8087.02626910316
 33
0.0
  0
LWPOLYLINE
  5
2E4
330
17
100
AcDbEntity
  8
A-ELEC
370
13
100
AcDbPolyline
 90
4
 70
1
 10
9066.848638937774
 20
7887.02626910316
 10
9376.848638937774
 20
7887.02626910316
 10
9376.848638937774
 20
8087.02626910316
 10
9066.848638937774
 20
8087.02626910316
  0
TEXT
  5
2E5
330
17
100
AcDbEntity
  8
A-ELEC
420
1184274
100
AcDbText
 10
9221.848638937774
 20
7987.02626910316
 30
0.0
 40
120.0
  1
E22
  7
CN
 72
1
 11
9221.848638937774
 21
7987.02626910316
 31
0.0
100
AcDbText
 73
2
  0
SOLID
  5
2E6
330
17
100
AcDbEntity
  8
A-MASK
420
16777215
100
AcDbTrace
 10
8299.151361062226
 20
7199.626269103161
 30
0.0
 11
8609.151361062226
 21
7199.626269103161
 31
0.0
 12
8299.151361062226
 22
7399.626269103161
 32
0.0
 13
8609.151361062226
 23
7399.626269103161
 33
0.0
  0
LWPOLYLINE
  5
2E7
330
17
100
AcDbEntity
  8
A-ELEC
370
13
100
AcDbPolyline
 90
4
 70
1
 10
8299.151361062226
 20
7199.626269103161
 10
8609.151361062226
 20
7199.626269103161
 10
8609.151361062226
 20
7399.626269103161
 10
8299.151361062226
 20
7399.626269103161
  0
TEXT
  5
2E8
330
17
100
AcDbEntity
  8
A-ELEC
420
1184274
100
AcDbText
 10
8454.151361062226
 20
7299.626269103161
 30
0.0
 40
120.0
  1
E23
  7
CN
 72
1
 11
8454.151361062226
 21
7299.626269103161
 31
0.0
100
AcDbText
 73
2
  0
SOLID
  5
2E9
330
17
100
AcDbEntity
  8
A-MASK
420
16777215
100
AcDbTrace
 10
11993.208638937775
 20
3860.8262691031605
 30
0.0
 11
12303.208638937775
 21
3860.8262691031605
 31
0.0
 12
11993.208638937775
 22
4060.8262691031605
 32
0.0
 13
12303.208638937775
 23
4060.8262691031605
 33
0.0
  0
LWPOLYLINE
  5
2EA
330
17
100
AcDbEntity
  8
A-ELEC
370
13
100
AcDbPolyline
 90
4
 70
1
 10
11993.208638937775
 20
3860.8262691031605
 10
12303.208638937775
 20
3860.8262691031605
 10
12303.208638937775
 20
4060.8262691031605
 10
11993.208638937775
 20
4060.8262691031605
  0
TEXT
  5
2EB
330
17
100
AcDbEntity
  8
A-ELEC
420
1184274
100
AcDbText
 10
12148.208638937775
 20
3960.8262691031605
 30
0.0
 40
120.0
  1
E24
  7
CN
 72
1
 11
12148.208638937775
 21
3960.8262691031605
 31
0.0
100
AcDbText
 73
2
  0
SOLID
  5
2EC
330
17
100
AcDbEntity
  8
A-MASK
420
16777215
100
AcDbTrace
 10
11993.208638937775
 20
3026.12626910316
 30
0.0
 11
12303.208638937775
 21
3026.12626910316
 31
0.0
 12
11993.208638937775
 22
3226.12626910316
 32
0.0
 13
12303.208638937775
 23
3226.12626910316
 33
0.0
  0
LWPOLYLINE
  5
2ED
330
17
100
AcDbEntity
  8
A-ELEC
370
13
100
AcDbPolyline
 90
4
 70
1
 10
11993.208638937775
 20
3026.12626910316
 10
12303.208638937775
 20
3026.12626910316
 10
12303.208638937775
 20
3226.12626910316
 10
11993.208638937775
 20
3226.12626910316
  0
TEXT
  5
2EE
330
17
100
AcDbEntity
  8
A-ELEC
420
1184274
100
AcDbText
 10
12148.208638937775
 20
3126.12626910316
 30
0.0
 40
120.0
  1
E25
  7
CN
 72
1
 11
12148.208638937775
 21
3126.12626910316
 31
0.0
100
AcDbText
 73
2
  0
SOLID
  5
2EF
330
17
100
AcDbEntity
  8
A-MASK
420
16777215
100
AcDbTrace
 10
10263.151361062226
 20
1062.1262691031602
 30
0.0
 11
10573.151361062226
 21
1062.1262691031602
 31
0.0
 12
10263.151361062226
 22
1262.1262691031602
 32
0.0
 13
10573.151361062226
 23
1262.1262691031602
 33
0.0
  0
LWPOLYLINE
  5
2F0
330
17
100
AcDbEntity
  8
A-ELEC
370
13
100
AcDbPolyline
 90
4
 70
1
 10
10263.151361062226
 20
1062.1262691031602
 10
10573.151361062226
 20
1062.1262691031602
 10
10573.151361062226
 20
1262.1262691031602
 10
10263.151361062226
 20
1262.1262691031602
  0
TEXT
  5
2F1
330
17
100
AcDbEntity
  8
A-ELEC
420
1184274
100
AcDbText
 10
10418.151361062226
 20
1162.1262691031602
 30
0.0
 40
120.0
  1
E26
  7
CN
 72
1
 11
10418.151361062226
 21
1162.1262691031602
 31
0.0
100
AcDbText
 73
2
  0
SOLID
  5
2F2
330
17
100
AcDbEntity
  8
A-MASK
420
16777215
100
AcDbTrace
 10
2425.4
 20
7873.84
 30
0.0
 11
2735.4
 21
7873.84
 31
0.0
 12
2425.4
 22
8073.84
 32
0.0
 13
2735.4
 23
8073.84
 33
0.0
  0
LWPOLYLINE
  5
2F3
330
17
100
AcDbEntity
  8
A-ELEC
370
13
100
AcDbPolyline
 90
4
 70
1
 10
2425.4
 20
7873.84
 10
2735.4
 20
7873.84
 10
2735.4
 20
8073.84
 10
2425.4
 20
8073.84
  0
TEXT
  5
2F4
330
17
100
AcDbEntity
  8
A-ELEC
420
1184274
100
AcDbText
 10
2580.4
 20
7973.84
 30
0.0
 40
120.0
  1
E27
  7
CN
 72
1
 11
2580.4
 21
7973.84
 31
0.0
100
AcDbText
 73
2
  0
SOLID
  5
2F5
330
17
100
AcDbEntity
  8
A-MASK
420
16777215
100
AcDbTrace
 10
2566.008638937775
 20
7094.69373089684
 30
0.0
 11
2876.008638937775
 21
7094.69373089684
 31
0.0
 12
2566.008638937775
 22
7294.69373089684
 32
0.0
 13
2876.008638937775
 23
7294.69373089684
 33
0.0
  0
LWPOLYLINE
  5
2F6
330
17
100
AcDbEntity
  8
A-ELEC
370
13
100
AcDbPolyline
 90
4
 70
1
 10
2566.008638937775
 20
7094.69373089684
 10
2876.008638937775
 20
7094.69373089684
 10
2876.008638937775
 20
7294.69373089684
 10
2566.008638937775
 20
7294.69373089684
  0
TEXT
  5
2F7
330
17
100
AcDbEntity
  8
A-ELEC
420
1184274
100
AcDbText
 10
2721.008638937775
 20
7194.69373089684
 30
0.0
 40
120.0
  1
E28
  7
CN
 72
1
 11
2721.008638937775
 21
7194.69373089684
 31
0.0
100
AcDbText
 73
2
  0
SOLID
  5
2F8
330
17
100
AcDbEntity
  8
A-MASK
420
16777215
100
AcDbTrace
 10
934.1513610622251
 20
5942.666269103161
 30
0.0
 11
1244.151361062225
 21
5942.666269103161
 31
0.0
 12
934.1513610622251
 22
6142.666269103161
 32
0.0
 13
1244.151361062225
 23
6142.666269103161
 33
0.0
  0
LWPOLYLINE
  5
2F9
330
17
100
AcDbEntity
  8
A-ELEC
370
13
100
AcDbPolyline
 90
4
 70
1
 10
934.1513610622251
 20
5942.666269103161
 10
1244.151361062225
 20
5942.666269103161
 10
1244.151361062225
 20
6142.666269103161
 10
934.1513610622251
 20
6142.666269103161
  0
TEXT
  5
2FA
330
17
100
AcDbEntity
  8
A-ELEC
420
1184274
100
AcDbText
 10
1089.151361062225
 20
6042.666269103161
 30
0.0
 40
120.0
  1
E29
  7
CN
 72
1
 11
1089.151361062225
 21
6042.666269103161
 31
0.0
100
AcDbText
 73
2
  0
SOLID
  5
2FB
330
17
100
AcDbEntity
  8
A-MASK
420
16777215
100
AcDbTrace
 10
572.5486389377747
 20
4963.75373089684
 30
0.0
 11
882.5486389377747
 21
4963.75373089684
 31
0.0
 12
572.5486389377747
 22
5163.75373089684
 32
0.0
 13
882.5486389377747
 23
5163.75373089684
 33
0.0
  0
LWPOLYLINE
  5
2FC
330
17
100
AcDbEntity
  8
A-ELEC
370
13
100
AcDbPolyline
 90
4
 70
1
 10
572.5486389377747
 20
4963.75373089684
 10
882.5486389377747
 20
4963.75373089684
 10
882.5486389377747
 20
5163.75373089684
 10
572.5486389377747
 20
5163.75373089684
  0
TEXT
  5
2FD
330
17
100
AcDbEntity
  8
A-ELEC
420
1184274
100
AcDbText
 10
727.5486389377747
 20
5063.75373089684
 30
0.0
 40
120.0
  1
E30
  7
CN
 72
1
 11
727.5486389377747
 21
5063.75373089684
 31
0.0
100
AcDbText
 73
2
  0
SOLID
  5
2FE
330
17
100
AcDbEntity
  8
A-MASK
420
16777215
100
AcDbTrace
 10
1599.1729584066625
 20
6543.36940365474
 30
0.0
 11
1909.1729584066625
 21
6543.36940365474
 31
0.0
 12
1599.1729584066625
 22
6743.36940365474
 32
0.0
 13
1909.1729584066625
 23
6743.36940365474
 33
0.0
  0
LWPOLYLINE
  5
2FF
330
17
100
AcDbEntity
  8
A-ELEC
370
13
100
AcDbPolyline
 90
4
 70
1
 10
1599.1729584066625
 20
6543.36940365474
 10
1909.1729584066625
 20
6543.36940365474
 10
1909.1729584066625
 20
6743.36940365474
 10
1599.1729584066625
 20
6743.36940365474
  0
TEXT
  5
300
330
17
100
AcDbEntity
  8
A-ELEC
420
1184274
100
AcDbText
 10
1754.1729584066625
 20
6643.36940365474
 30
0.0
 40
120.0
  1
E31
  7
CN
 72
1
 11
1754.1729584066625
 21
6643.36940365474
 31
0.0
100
AcDbText
 73
2
  0
SOLID
  5
301
330
17
100
AcDbEntity
  8
A-MASK
420
16777215
100
AcDbTrace
 10
8870.448638937774
 20
5945.75373089684
 30
0.0
 11
9180.448638937774
 21
5945.75373089684
 31
0.0
 12
8870.448638937774
 22
6145.75373089684
 32
0.0
 13
9180.448638937774
 23
6145.75373089684
 33
0.0
  0
LWPOLYLINE
  5
302
330
17
100
AcDbEntity
  8
A-ELEC
370
13
100
AcDbPolyline
 90
4
 70
1
 10
8870.448638937774
 20
5945.75373089684
 10
9180.448638937774
 20
5945.75373089684
 10
9180.448638937774
 20
6145.75373089684
 10
8870.448638937774
 20
6145.75373089684
  0
TEXT
  5
303
330
17
100
AcDbEntity
  8
A-ELEC
420
1184274
100
AcDbText
 10
9025.448638937774
 20
6045.75373089684
 30
0.0
 40
120.0
  1
E32
  7
CN
 72
1
 11
9025.448638937774
 21
6045.75373089684
 31
0.0
100
AcDbText
 73
2
  0
SOLID
  5
304
330
17
100
AcDbEntity
  8
A-MASK
420
16777215
100
AcDbTrace
 10
5991.451361062225
 20
6954.126269103161
 30
0.0
 11
6301.451361062225
 21
6954.126269103161
 31
0.0
 12
5991.451361062225
 22
7154.126269103161
 32
0.0
 13
6301.451361062225
 23
7154.126269103161
 33
0.0
  0
LWPOLYLINE
  5
305
330
17
100
AcDbEntity
  8
A-ELEC
370
13
100
AcDbPolyline
 90
4
 70
1
 10
5991.451361062225
 20
6954.126269103161
 10
6301.451361062225
 20
6954.126269103161
 10
6301.451361062225
 20
7154.126269103161
 10
5991.451361062225
 20
7154.126269103161
  0
TEXT
  5
306
330
17
100
AcDbEntity
  8
A-ELEC
420
1184274
100
AcDbText
 10
6146.451361062225
 20
7054.126269103161
 30
0.0
 40
120.0
  1
E33
  7
CN
 72
1
 11
6146.451361062225
 21
7054.126269103161
 31
0.0
100
AcDbText
 73
2
  0
SOLID
  5
307
330
17
100
AcDbEntity
  8
A-MASK
420
16777215
100
AcDbTrace
 10
9263.248638937774
 20
4865.55373089684
 30
0.0
 11
9573.248638937774
 21
4865.55373089684
 31
0.0
 12
9263.248638937774
 22
5065.55373089684
 32
0.0
 13
9573.248638937774
 23
5065.55373089684
 33
0.0
  0
LWPOLYLINE
  5
308
330
17
100
AcDbEntity
  8
A-ELEC
370
13
100
AcDbPolyline
 90
4
 70
1
 10
9263.248638937774
 20
4865.55373089684
 10
9573.248638937774
 20
4865.55373089684
 10
9573.248638937774
 20
5065.55373089684
 10
9263.248638937774
 20
5065.55373089684
  0
TEXT
  5
309
330
17
100
AcDbEntity
  8
A-ELEC
420
1184274
100
AcDbText
 10
9418.248638937774
 20
4965.55373089684
 30
0.0
 40
120.0
  1
E34
  7
CN
 72
1
 11
9418.248638937774
 21
4965.55373089684
 31
0.0
100
AcDbText
 73
2
  0
SOLID
  5
30A
330
17
100
AcDbEntity
  8
A-MASK
420
16777215
100
AcDbTrace
 10
5128.16
 20
5502.4400000000005
 30
0.0
 11
5438.16
 21
5502.4400000000005
 31
0.0
 12
5128.16
 22
5702.4400000000005
 32
0.0
 13
5438.16
 23
5702.4400000000005
 33
0.0
  0
LWPOLYLINE
  5
30B
330
17
100
AcDbEntity
  8
A-ELEC
370
13
100
AcDbPolyline
 90
4
 70
1
 10
5128.16
 20
5502.4400000000005
 10
5438.16
 20
5502.4400000000005
 10
5438.16
 20
5702.4400000000005
 10
5128.16
 20
5702.4400000000005
  0
TEXT
  5
30C
330
17
100
AcDbEntity
  8
A-ELEC
420
1184274
100
AcDbText
 10
5283.16
 20
5602.4400000000005
 30
0.0
 40
120.0
  1
E35
  7
CN
 72
1
 11
5283.16
 21
5602.4400000000005
 31
0.0
100
AcDbText
 73
2
  0
SOLID
  5
30D
330
17
100
AcDbEntity
  8
A-MASK
420
16777215
100
AcDbTrace
 10
2063.4513610622253
 20
2760.9862691031603
 30
0.0
 11
2373.4513610622253
 21
2760.9862691031603
 31
0.0
 12
2063.4513610622253
 22
2960.9862691031603
 32
0.0
 13
2373.4513610622253
 23
2960.9862691031603
 33
0.0
  0
LWPOLYLINE
  5
30E
330
17
100
AcDbEntity
  8
A-ELEC
370
13
100
AcDbPolyline
 90
4
 70
1
 10
2063.4513610622253
 20
2760.9862691031603
 10
2373.4513610622253
 20
2760.9862691031603
 10
2373.4513610622253
 20
2960.9862691031603
 10
2063.4513610622253
 20
2960.9862691031603
  0
TEXT
  5
30F
330
17
100
AcDbEntity
  8
A-ELEC
420
1184274
100
AcDbText
 10
2218.4513610622253
 20
2860.9862691031603
 30
0.0
 40
120.0
  1
E36
  7
CN
 72
1
 11
2218.4513610622253
 21
2860.9862691031603
 31
0.0
100
AcDbText
 73
2
  0
SOLID
  5
310
330
17
100
AcDbEntity
  8
A-MASK
420
16777215
100
AcDbTrace
 10
1623.288638937775
 20
5137.42626910316
 30
0.0
 11
1933.288638937775
 21
5137.42626910316
 31
0.0
 12
1623.288638937775
 22
5337.42626910316
 32
0.0
 13
1933.288638937775
 23
5337.42626910316
 33
0.0
  0
LWPOLYLINE
  5
311
330
17
100
AcDbEntity
  8
A-ELEC
370
13
100
AcDbPolyline
 90
4
 70
1
 10
1623.288638937775
 20
5137.42626910316
 10
1933.288638937775
 20
5137.42626910316
 10
1933.288638937775
 20
5337.42626910316
 10
1623.288638937775
 20
5337.42626910316
  0
TEXT
  5
312
330
17
100
AcDbEntity
  8
A-ELEC
420
1184274
100
AcDbText
 10
1778.288638937775
 20
5237.42626910316
 30
0.0
 40
120.0
  1
E37
  7
CN
 72
1
 11
1778.288638937775
 21
5237.42626910316
 31
0.0
100
AcDbText
 73
2
  0
SOLID
  5
313
330
17
100
AcDbEntity
  8
A-MASK
420
16777215
100
AcDbTrace
 10
3605.191361062225
 20
6924.666269103161
 30
0.0
 11
3915.191361062225
 21
6924.666269103161
 31
0.0
 12
3605.191361062225
 22
7124.666269103161
 32
0.0
 13
3915.191361062225
 23
7124.666269103161
 33
0.0
  0
LWPOLYLINE
  5
314
330
17
100
AcDbEntity
  8
A-ELEC
370
13
100
AcDbPolyline
 90
4
 70
1
 10
3605.191361062225
 20
6924.666269103161
 10
3915.191361062225
 20
6924.666269103161
 10
3915.191361062225
 20
7124.666269103161
 10
3605.191361062225
 20
7124.666269103161
  0
TEXT
  5
315
330
17
100
AcDbEntity
  8
A-ELEC
420
1184274
100
AcDbText
 10
3760.191361062225
 20
7024.666269103161
 30
0.0
 40
120.0
  1
E38
  7
CN
 72
1
 11
3760.191361062225
 21
7024.666269103161
 31
0.0
100
AcDbText
 73
2
  0
SOLID
  5
316
330
17
100
AcDbEntity
  8
A-MASK
420
16777215
100
AcDbTrace
 10
4094.8
 20
9906.58
 30
0.0
 11
4404.8
 21
9906.58
 31
0.0
 12
4094.8
 22
10106.58
 32
0.0
 13
4404.8
 23
10106.58
 33
0.0
  0
LWPOLYLINE
  5
317
330
17
100
AcDbEntity
  8
A-ELEC
370
13
100
AcDbPolyline
 90
4
 70
1
 10
4094.8
 20
9906.58
 10
4404.8
 20
9906.58
 10
4404.8
 20
10106.58
 10
4094.8
 20
10106.58
  0
TEXT
  5
318
330
17
100
AcDbEntity
  8
A-ELEC
420
1184274
100
AcDbText
 10
4249.8
 20
10006.58
 30
0.0
 40
120.0
  1
E39
  7
CN
 72
1
 11
4249.8
 21
10006.58
 31
0.0
100
AcDbText
 73
2
  0
SOLID
  5
319
330
17
100
AcDbEntity
  8
A-MASK
420
16777215
100
AcDbTrace
 10
4696.948638937775
 20
4963.75373089684
 30
0.0
 11
5006.948638937775
 21
4963.75373089684
 31
0.0
 12
4696.948638937775
 22
5163.75373089684
 32
0.0
 13
5006.948638937775
 23
5163.75373089684
 33
0.0
  0
LWPOLYLINE
  5
31A
330
17
100
AcDbEntity
  8
A-ELEC
370
13
100
AcDbPolyline
 90
4
 70
1
 10
4696.948638937775
 20
4963.75373089684
 10
5006.948638937775
 20
4963.75373089684
 10
5006.948638937775
 20
5163.75373089684
 10
4696.948638937775
 20
5163.75373089684
  0
TEXT
  5
31B
330
17
100
AcDbEntity
  8
A-ELEC
420
1184274
100
AcDbText
 10
4851.948638937775
 20
5063.75373089684
 30
0.0
 40
120.0
  1
E40
  7
CN
 72
1
 11
4851.948638937775
 21
5063.75373089684
 31
0.0
100
AcDbText
 73
2
  0
DIMENSION
  5
31C
330
17
100
AcDbEntity
  8
A-DIMS
420
1184274
100
AcDbDimension
280
0
  2
*D1
  3
ARCH
 10
0.0
 20
12205.44
 30
0.0
 11
6309.35
 21
12205.44
 31
0.0
 70
32
 71
5
  1
<>
100
AcDbAlignedDimension
 13
0.0
 23
11705.44
 33
0.0
 14
12618.7
 24
11705.44
 34
0.0
 50
0.0
100
AcDbRotatedDimension
  0
DIMENSION
  5
330
330
17
100
AcDbEntity
  8
A-DIMS
420
1184274
100
AcDbDimension
280
0
  2
*D2
  3
ARCH
 10
-500.0
 20
0.0
 30
0.0
 11
-500.0
 21
5852.72
 31
0.0
 70
32
 71
5
  1
<>
100
AcDbAlignedDimension
 13
0.0
 23
0.0
 33
0.0
 14
0.0
 24
11705.44
 34
0.0
 50
90.0
100
AcDbRotatedDimension
  0
ENDSEC
  0
SECTION
  2
OBJECTS
  0
DICTIONARY
  5
A
330
0
100
AcDbDictionary
281
1
  3
ACAD_COLOR
350
B
  3
ACAD_GROUP
350
C
  3
ACAD_LAYOUT
350
D
  3
ACAD_MATERIAL
350
E
  3
ACAD_MLEADERSTYLE
350
F
  3
ACAD_MLINESTYLE
350
10
  3
ACAD_PLOTSETTINGS
350
11
  3
ACAD_PLOTSTYLENAME
350
12
  3
ACAD_SCALELIST
350
14
  3
ACAD_TABLESTYLE
350
15
  3
ACAD_VISUALSTYLE
350
16
  3
EZDXF_META
350
2D
  0
DICTIONARY
  5
B
330
A
100
AcDbDictionary
281
1
  0
DICTIONARY
  5
C
330
A
100
AcDbDictionary
281
1
  0
DICTIONARY
  5
D
330
A
100
AcDbDictionary
281
1
  3
Model
350
1A
  3
Layout1
350
1E
  3
A302
350
346
  0
DICTIONARY
  5
E
330
A
100
AcDbDictionary
281
1
  3
ByBlock
350
1F
  3
ByLayer
350
20
  3
Global
350
21
  0
DICTIONARY
  5
F
330
A
100
AcDbDictionary
281
1
  3
Standard
350
2C
  0
DICTIONARY
  5
10
330
A
100
AcDbDictionary
281
1
  3
Standard
350
22
  0
DICTIONARY
  5
11
330
A
100
AcDbDictionary
281
1
  0
ACDBDICTIONARYWDFLT
  5
12
330
A
100
AcDbDictionary
281
1
  3
Normal
350
13
100
AcDbDictionaryWithDefault
340
13
  0
ACDBPLACEHOLDER
  5
13
330
12
  0
DICTIONARY
  5
14
330
A
100
AcDbDictionary
281
1
  0
DICTIONARY
  5
15
330
A
100
AcDbDictionary
281
1
  0
DICTIONARY
  5
16
330
A
100
AcDbDictionary
281
1
  0
LAYOUT
  5
1A
330
D
100
AcDbPlotSettings
  1

  4
A3
  6

 40
7.5
 41
20.0
 42
7.5
 43
20.0
 44
420.0
 45
297.0
 46
0.0
 47
0.0
 48
0.0
 49
0.0
140
0.0
141
0.0
142
1.0
143
1.0
 70
1024
 72
1
 73
0
 74
5
  7

 75
16
 76
0
 77
2
 78
300
147
1.0
148
0.0
149
0.0
100
AcDbLayout
  1
Model
 70
1
 71
0
 10
0.0
 20
0.0
 11
420.0
 21
297.0
 12
0.0
 22
0.0
 32
0.0
 14
1e+20
 24
1e+20
 34
1e+20
 15
-1e+20
 25
-1e+20
 35
-1e+20
146
0.0
 13
0.0
 23
0.0
 33
0.0
 16
1.0
 26
0.0
 36
0.0
 17
0.0
 27
1.0
 37
0.0
 76
1
330
17
  0
LAYOUT
  5
1E
330
D
100
AcDbPlotSettings
  1

  4
A3
  6

 40
7.5
 41
20.0
 42
7.5
 43
20.0
 44
420.0
 45
297.0
 46
0.0
 47
0.0
 48
0.0
 49
0.0
140
0.0
141
0.0
142
1.0
143
1.0
 70
0
 72
1
 73
0
 74
5
  7

 75
16
 76
0
 77
2
 78
300
147
1.0
148
0.0
149
0.0
100
AcDbLayout
  1
Layout1
 70
1
 71
1
 10
0.0
 20
0.0
 11
420.0
 21
297.0
 12
0.0
 22
0.0
 32
0.0
 14
1e+20
 24
1e+20
 34
1e+20
 15
-1e+20
 25
-1e+20
 35
-1e+20
146
0.0
 13
0.0
 23
0.0
 33
0.0
 16
1.0
 26
0.0
 36
0.0
 17
0.0
 27
1.0
 37
0.0
 76
1
330
1B
  0
MATERIAL
  5
1F
102
{ACAD_REACTORS
330
E
102
}
330
E
100
AcDbMaterial
  1
ByBlock
  2

 70
0
 40
1.0
 71
1
 41
1.0
 91
-1023410177
 42
1.0
 72
1
  3

 73
1
 74
1
 75
1
 44
0.5
 73
0
 45
1.0
 46
1.0
 77
1
  4

 78
1
 79
1
170
1
 48
1.0
171
1
  6

172
1
173
1
174
1
140
1.0
141
1.0
175
1
  7

176
1
177
1
178
1
143
1.0
179
1
  8

270
1
271
1
272
1
145
1.0
146
1.0
273
1
  9

274
1
275
1
276
1
 42
1.0
 72
1
  3

 73
1
 74
1
 75
1
 94
63
  0
MATERIAL
  5
20
102
{ACAD_REACTORS
330
E
102
}
330
E
100
AcDbMaterial
  1
ByLayer
  2

 70
0
 40
1.0
 71
1
 41
1.0
 91
-1023410177
 42
1.0
 72
1
  3

 73
1
 74
1
 75
1
 44
0.5
 73
0
 45
1.0
 46
1.0
 77
1
  4

 78
1
 79
1
170
1
 48
1.0
171
1
  6

172
1
173
1
174
1
140
1.0
141
1.0
175
1
  7

176
1
177
1
178
1
143
1.0
179
1
  8

270
1
271
1
272
1
145
1.0
146
1.0
273
1
  9

274
1
275
1
276
1
 42
1.0
 72
1
  3

 73
1
 74
1
 75
1
 94
63
  0
MATERIAL
  5
21
102
{ACAD_REACTORS
330
E
102
}
330
E
100
AcDbMaterial
  1
Global
  2

 70
0
 40
1.0
 71
1
 41
1.0
 91
-1023410177
 42
1.0
 72
1
  3

 73
1
 74
1
 75
1
 44
0.5
 73
0
 45
1.0
 46
1.0
 77
1
  4

 78
1
 79
1
170
1
 48
1.0
171
1
  6

172
1
173
1
174
1
140
1.0
141
1.0
175
1
  7

176
1
177
1
178
1
143
1.0
179
1
  8

270
1
271
1
272
1
145
1.0
146
1.0
273
1
  9

274
1
275
1
276
1
 42
1.0
 72
1
  3

 73
1
 74
1
 75
1
 94
63
  0
MLINESTYLE
  5
22
102
{ACAD_REACTORS
330
10
102
}
330
10
100
AcDbMlineStyle
  2
Standard
 70
0
  3

 62
256
 51
90.0
 52
90.0
 71
2
 49
0.5
 62
256
  6
BYLAYER
 49
-0.5
 62
256
  6
BYLAYER
  0
MLEADERSTYLE
  5
2C
102
{ACAD_REACTORS
330
F
102
}
330
F
100
AcDbMLeaderStyle
179
2
170
2
171
1
172
0
 90
2
 40
0.0
 41
0.0
173
1
 91
-1056964608
 92
-2
290
1
 42
2.0
291
1
 43
8.0
  3
Standard
 44
4.0
300

342
29
174
1
175
1
176
0
178
1
 93
-1056964608
 45
4.0
292
0
297
0
 46
4.0
 94
-1056964608
 47
1.0
 49
1.0
140
1.0
294
1
141
0.0
177
0
142
1.0
295
0
296
0
143
3.75
271
0
272
9
273
9
  0
DICTIONARY
  5
2D
330
A
100
AcDbDictionary
280
1
281
1
  3
CREATED_BY_EZDXF
350
2E
  3
WRITTEN_BY_EZDXF
350
342
  0
DICTIONARYVAR
  5
2E
330
2D
100
DictionaryVariables
280
0
  1
1.4.4 @ 2026-09-18T08:02:35.751855+00:00
  0
DICTIONARYVAR
  5
342
330
2D
100
DictionaryVariables
280
0
  1
1.4.4 @ 2026-09-18T08:02:35.848404+00:00
  0
LAYOUT
  5
346
330
D
100
AcDbPlotSettings
  1

  2
DWG to PDF.pc3
  4
ezdxf_(594.00_x_420.00_MM)
  6

 40
0.0
 41
0.0
 42
0.0
 43
0.0
 44
594.0
 45
420.0
 46
0.0
 47
0.0
 48
0.0
 49
0.0
140
0.0
141
0.0
142
1.0
143
1.0
 70
672
 72
1
 73
0
 74
5
  7

 75
16
 76
0
 77
2
 78
300
147
1.0
148
0.0
149
0.0
100
AcDbLayout
  1
A302
 70
1
 71
3
 10
-0.0
 20
-0.0
 11
594.0
 21
420.0
 12
0.0
 22
0.0
 32
0.0
 14
1e+20
 24
1e+20
 34
1e+20
 15
-1e+20
 25
-1e+20
 35
-1e+20
146
0.0
 13
0.0
 23
0.0
 33
0.0
 16
1.0
 26
0.0
 36
0.0
 17
0.0
 27
1.0
 37
0.0
 76
1
330
343
331
347
  0
ENDSEC
  0
EOF
