  0
SECTION
  2
HEADER
  9
$ACADVER
  1
AC1032
  9
$ACADMAINTVER
 90
4
  9
$DWGCODEPAGE
  3
ANSI_1252
  9
$LASTSAVEDBY
  1
ezdxf
  9
$REQUIREDVERSIONS
160
0
  9
$INSBASE
 10
0.0
 20
0.0
 30
0.0
  9
$EXTMIN
 10
1e+20
 20
1e+20
 30
1e+20
  9
$EXTMAX
 10
-1e+20
 20
-1e+20
 30
-1e+20
  9
$LIMMIN
 10
0.0
 20
0.0
  9
$LIMMAX
 10
420.0
 20
297.0
  9
$ORTHOMODE
 70
0
  9
$REGENMODE
 70
1
  9
$FILLMODE
 70
1
  9
$QTEXTMODE
 70
0
  9
$MIRRTEXT
 70
1
  9
$LTSCALE
 40
1.0
  9
$ATTMODE
 70
1
  9
$TEXTSIZE
 40
2.5
  9
$TRACEWID
 40
1.0
  9
$TEXTSTYLE
  7
Standard
  9
$CLAYER
  8
0
  9
$CELTYPE
  6
ByLayer
  9
$CECOLOR
 62
256
  9
$CELTSCALE
 40
1.0
  9
$DISPSILH
 70
0
  9
$DIMSCALE
 40
1.0
  9
$DIMASZ
 40
2.5
  9
$DIMEXO
 40
0.625
  9
$DIMDLI
 40
3.75
  9
$DIMRND
 40
0.0
  9
$DIMDLE
 40
0.0
  9
$DIMEXE
 40
1.25
  9
$DIMTP
 40
0.0
  9
$DIMTM
 40
0.0
  9
$DIMTXT
 40
2.5
  9
$DIMCEN
 40
2.5
  9
$DIMTSZ
 40
0.0
  9
$DIMTOL
 70
0
  9
$DIMLIM
 70
0
  9
$DIMTIH
 70
0
  9
$DIMTOH
 70
0
  9
$DIMSE1
 70
0
  9
$DIMSE2
 70
0
  9
$DIMTAD
 70
1
  9
$DIMZIN
 70
8
  9
$DIMBLK
  1

  9
$DIMASO
 70
1
  9
$DIMSHO
 70
1
  9
$DIMPOST
  1

  9
$DIMAPOST
  1

  9
$DIMALT
 70
0
  9
$DIMALTD
 70
3
  9
$DIMALTF
 40
0.03937007874
  9
$DIMLFAC
 40
1.0
  9
$DIMTOFL
 70
1
  9
$DIMTVP
 40
0.0
  9
$DIMTIX
 70
0
  9
$DIMSOXD
 70
0
  9
$DIMSAH
 70
0
  9
$DIMBLK1
  1

  9
$DIMBLK2
  1

  9
$DIMSTYLE
  2
ISO-25
  9
$DIMCLRD
 70
0
  9
$DIMCLRE
 70
0
  9
$DIMCLRT
 70
0
  9
$DIMTFAC
 40
1.0
  9
$DIMGAP
 40
0.625
  9
$DIMJUST
 70
0
  9
$DIMSD1
 70
0
  9
$DIMSD2
 70
0
  9
$DIMTOLJ
 70
0
  9
$DIMTZIN
 70
8
  9
$DIMALTZ
 70
0
  9
$DIMALTTZ
 70
0
  9
$DIMUPT
 70
0
  9
$DIMDEC
 70
2
  9
$DIMTDEC
 70
2
  9
$DIMALTU
 70
2
  9
$DIMALTTD
 70
3
  9
$DIMTXSTY
  7
Standard
  9
$DIMAUNIT
 70
0
  9
$DIMADEC
 70
0
  9
$DIMALTRND
 40
0.0
  9
$DIMAZIN
 70
0
  9
$DIMDSEP
 70
44
  9
$DIMATFIT
 70
3
  9
$DIMFRAC
 70
0
  9
$DIMLDRBLK
  1

  9
$DIMLUNIT
 70
2
  9
$DIMLWD
 70
-2
  9
$DIMLWE
 70
-2
  9
$DIMTMOVE
 70
0
  9
$DIMFXL
 40
1.0
  9
$DIMFXLON
 70
0
  9
$DIMJOGANG
 40
0.785398163397
  9
$DIMTFILL
 70
0
  9
$DIMTFILLCLR
 70
0
  9
$DIMARCSYM
 70
0
  9
$DIMLTYPE
  6

  9
$DIMLTEX1
  6

  9
$DIMLTEX2
  6

  9
$DIMTXTDIRECTION
 70
0
  9
$LUNITS
 70
2
  9
$LUPREC
 70
4
  9
$SKETCHINC
 40
1.0
  9
$FILLETRAD
 40
10.0
  9
$AUNITS
 70
0
  9
$AUPREC
 70
2
  9
$MENU
  1
.
  9
$ELEVATION
 40
0.0
  9
$PELEVATION
 40
0.0
  9
$THICKNESS
 40
0.0
  9
$LIMCHECK
 70
0
  9
$CHAMFERA
 40
0.0
  9
$CHAMFERB
 40
0.0
  9
$CHAMFERC
 40
0.0
  9
$CHAMFERD
 40
0.0
  9
$SKPOLY
 70
0
  9
$TDCREATE
 40
2461302.6684953705
  9
$TDUCREATE
 40
2458532.153996898
  9
$TDUPDATE
 40
2461302.6684953705
  9
$TDUUPDATE
 40
2458532.1544311
  9
$TDINDWG
 40
0.0
  9
$TDUSRTIMER
 40
0.0
  9
$USRTIMER
 70
1
  9
$ANGBASE
 50
0.0
  9
$ANGDIR
 70
0
  9
$PDMODE
 70
0
  9
$PDSIZE
 40
0.0
  9
$PLINEWID
 40
0.0
  9
$SPLFRAME
 70
0
  9
$SPLINETYPE
 70
6
  9
$SPLINESEGS
 70
8
  9
$HANDSEED
  5
164
  9
$SURFTAB1
 70
6
  9
$SURFTAB2
 70
6
  9
$SURFTYPE
 70
6
  9
$SURFU
 70
6
  9
$SURFV
 70
6
  9
$UCSBASE
  2

  9
$UCSNAME
  2

  9
$UCSORG
 10
0.0
 20
0.0
 30
0.0
  9
$UCSXDIR
 10
1.0
 20
0.0
 30
0.0
  9
$UCSYDIR
 10
0.0
 20
1.0
 30
0.0
  9
$UCSORTHOREF
  2

  9
$UCSORTHOVIEW
 70
0
  9
$UCSORGTOP
 10
0.0
 20
0.0
 30
0.0
  9
$UCSORGBOTTOM
 10
0.0
 20
0.0
 30
0.0
  9
$UCSORGLEFT
 10
0.0
 20
0.0
 30
0.0
  9
$UCSORGRIGHT
 10
0.0
 20
0.0
 30
0.0
  9
$UCSORGFRONT
 10
0.0
 20
0.0
 30
0.0
  9
$UCSORGBACK
 10
0.0
 20
0.0
 30
0.0
  9
$PUCSBASE
  2

  9
$PUCSNAME
  2

  9
$PUCSORG
 10
0.0
 20
0.0
 30
0.0
  9
$PUCSXDIR
 10
1.0
 20
0.0
 30
0.0
  9
$PUCSYDIR
 10
0.0
 20
1.0
 30
0.0
  9
$PUCSORTHOREF
  2

  9
$PUCSORTHOVIEW
 70
0
  9
$PUCSORGTOP
 10
0.0
 20
0.0
 30
0.0
  9
$PUCSORGBOTTOM
 10
0.0
 20
0.0
 30
0.0
  9
$PUCSORGLEFT
 10
0.0
 20
0.0
 30
0.0
  9
$PUCSORGRIGHT
 10
0.0
 20
0.0
 30
0.0
  9
$PUCSORGFRONT
 10
0.0
 20
0.0
 30
0.0
  9
$PUCSORGBACK
 10
0.0
 20
0.0
 30
0.0
  9
$USERI1
 70
0
  9
$USERI2
 70
0
  9
$USERI3
 70
0
  9
$USERI4
 70
0
  9
$USERI5
 70
0
  9
$USERR1
 40
0.0
  9
$USERR2
 40
0.0
  9
$USERR3
 40
0.0
  9
$USERR4
 40
0.0
  9
$USERR5
 40
0.0
  9
$WORLDVIEW
 70
1
  9
$SHADEDGE
 70
3
  9
$SHADEDIF
 70
70
  9
$TILEMODE
 70
1
  9
$MAXACTVP
 70
64
  9
$PINSBASE
 10
0.0
 20
0.0
 30
0.0
  9
$PLIMCHECK
 70
0
  9
$PEXTMIN
 10
1e+20
 20
1e+20
 30
1e+20
  9
$PEXTMAX
 10
-1e+20
 20
-1e+20
 30
-1e+20
  9
$PLIMMIN
 10
0.0
 20
0.0
  9
$PLIMMAX
 10
420.0
 20
297.0
  9
$UNITMODE
 70
0
  9
$VISRETAIN
 70
1
  9
$PLINEGEN
 70
0
  9
$PSLTSCALE
 70
1
  9
$TREEDEPTH
 70
3020
  9
$CMLSTYLE
  2
Standard
  9
$CMLJUST
 70
0
  9
$CMLSCALE
 40
20.0
  9
$PROXYGRAPHICS
 70
1
  9
$MEASUREMENT
 70
1
  9
$CELWEIGHT
370
-1
  9
$ENDCAPS
280
0
  9
$JOINSTYLE
280
0
  9
$LWDISPLAY
290
0
  9
$INSUNITS
 70
4
  9
$HYPERLINKBASE
  1

  9
$STYLESHEET
  1

  9
$XEDIT
290
1
  9
$CEPSNTYPE
380
0
  9
$PSTYLEMODE
290
1
  9
$FINGERPRINTGUID
  2
{DD9747B1-B1BB-41E3-9578-51E4934D855D}
  9
$VERSIONGUID
  2
{2A4BBADE-B619-4886-AF24-288E7606F190}
  9
$EXTNAMES
290
1
  9
$PSVPSCALE
 40
0.0
  9
$OLESTARTUP
290
0
  9
$SORTENTS
280
127
  9
$INDEXCTL
280
0
  9
$HIDETEXT
280
1
  9
$XCLIPFRAME
280
1
  9
$HALOGAP
280
0
  9
$OBSCOLOR
 70
257
  9
$OBSLTYPE
280
0
  9
$INTERSECTIONDISPLAY
280
0
  9
$INTERSECTIONCOLOR
 70
257
  9
$DIMASSOC
280
2
  9
$PROJECTNAME
  1

  9
$CAMERADISPLAY
290
0
  9
$LENSLENGTH
 40
50.0
  9
$CAMERAHEIGHT
 40
0.0
  9
$STEPSPERSEC
 40
24.0
  9
$STEPSIZE
 40
100.0
  9
$3DDWFPREC
 40
2.0
  9
$PSOLWIDTH
 40
0.005
  9
$PSOLHEIGHT
 40
0.08
  9
$LOFTANG1
 40
1.570796326795
  9
$LOFTANG2
 40
1.570796326795
  9
$LOFTMAG1
 40
0.0
  9
$LOFTMAG2
 40
0.0
  9
$LOFTPARAM
 70
7
  9
$LOFTNORMALS
280
1
  9
$LATITUDE
 40
37.795
  9
$LONGITUDE
 40
-122.394
  9
$NORTHDIRECTION
 40
0.0
  9
$TIMEZONE
 70
-8000
  9
$LIGHTGLYPHDISPLAY
280
1
  9
$TILEMODELIGHTSYNCH
280
1
  9
$CMATERIAL
347
20
  9
$SOLIDHIST
280
0
  9
$SHOWHIST
280
1
  9
$DWFFRAME
280
2
  9
$DGNFRAME
280
2
  9
$REALWORLDSCALE
290
1
  9
$INTERFERECOLOR
 62
256
  9
$CSHADOW
280
0
  9
$SHADOWPLANELOCATION
 40
0.0
  0
ENDSEC
  0
SECTION
  2
CLASSES
  0
CLASS
  1
ACDBDICTIONARYWDFLT
  2
AcDbDictionaryWithDefault
  3
ObjectDBX Classes
 90
0
 91
0
280
0
281
0
  0
CLASS
  1
SUN
  2
AcDbSun
  3
SCENEOE
 90
1153
 91
0
280
0
281
0
  0
CLASS
  1
VISUALSTYLE
  2
AcDbVisualStyle
  3
ObjectDBX Classes
 90
4095
 91
0
280
0
281
0
  0
CLASS
  1
MATERIAL
  2
AcDbMaterial
  3
ObjectDBX Classes
 90
1153
 91
0
280
0
281
0
  0
CLASS
  1
SCALE
  2
AcDbScale
  3
ObjectDBX Classes
 90
1153
 91
0
280
0
281
0
  0
CLASS
  1
TABLESTYLE
  2
AcDbTableStyle
  3
ObjectDBX Classes
 90
4095
 91
0
280
0
281
0
  0
CLASS
  1
MLEADERSTYLE
  2
AcDbMLeaderStyle
  3
ACDB_MLEADERSTYLE_CLASS
 90
4095
 91
0
280
0
281
0
  0
CLASS
  1
DICTIONARYVAR
  2
AcDbDictionaryVar
  3
ObjectDBX Classes
 90
0
 91
0
280
0
281
0
  0
CLASS
  1
CELLSTYLEMAP
  2
AcDbCellStyleMap
  3
ObjectDBX Classes
 90
1152
 91
0
280
0
281
0
  0
CLASS
  1
MENTALRAYRENDERSETTINGS
  2
AcDbMentalRayRenderSettings
  3
SCENEOE
 90
1024
 91
0
280
0
281
0
  0
CLASS
  1
ACDBDETAILVIEWSTYLE
  2
AcDbDetailViewStyle
  3
ObjectDBX Classes
 90
1025
 91
0
280
0
281
0
  0
CLASS
  1
ACDBSECTIONVIEWSTYLE
  2
AcDbSectionViewStyle
  3
ObjectDBX Classes
 90
1025
 91
0
280
0
281
0
  0
CLASS
  1
RASTERVARIABLES
  2
AcDbRasterVariables
  3
ISM
 90
0
 91
0
280
0
281
0
  0
CLASS
  1
ACDBPLACEHOLDER
  2
AcDbPlaceHolder
  3
ObjectDBX Classes
 90
0
 91
0
280
0
281
0
  0
CLASS
  1
LAYOUT
  2
AcDbLayout
  3
ObjectDBX Classes
 90
0
 91
0
280
0
281
0
  0
ENDSEC
  0
SECTION
  2
TABLES
  0
TABLE
  2
VPORT
  5
8
330
0
100
AcDbSymbolTable
 70
1
  0
VPORT
  5
23
330
8
100
AcDbSymbolTableRecord
100
AcDbViewportTableRecord
  2
*Active
 70
0
 10
0.0
 20
0.0
 11
1.0
 21
1.0
 12
0.0
 22
0.0
 13
0.0
 23
0.0
 14
0.5
 24
0.5
 15
0.5
 25
0.5
 16
0.0
 26
0.0
 36
1.0
 17
0.0
 27
0.0
 37
0.0
 40
1000.0
 41
1.34
 42
50.0
 43
0.0
 44
0.0
 50
0.0
 51
0.0
 71
0
 72
1000
 73
1
 74
3
 75
0
 76
0
 77
0
 78
0
281
0
 65
0
146
0.0
  0
ENDTAB
  0
TABLE
  2
LTYPE
  5
2
330
0
100
AcDbSymbolTable
 70
5
  0
LTYPE
  5
24
330
2
100
AcDbSymbolTableRecord
100
AcDbLinetypeTableRecord
  2
ByBlock
 70
0
  3

 72
65
 73
0
 40
0.0
  0
LTYPE
  5
25
330
2
100
AcDbSymbolTableRecord
100
AcDbLinetypeTableRecord
  2
ByLayer
 70
0
  3

 72
65
 73
0
 40
0.0
  0
LTYPE
  5
26
330
2
100
AcDbSymbolTableRecord
100
AcDbLinetypeTableRecord
  2
Continuous
 70
0
  3

 72
65
 73
0
 40
0.0
  0
LTYPE
  5
3E
330
2
100
AcDbSymbolTableRecord
100
AcDbLinetypeTableRecord
  2
DASHED
 70
0
  3

 72
65
 73
2
 40
150.0
 49
100.0
 74
0
 49
-50.0
 74
0
  0
LTYPE
  5
3F
330
2
100
AcDbSymbolTableRecord
100
AcDbLinetypeTableRecord
  2
CENTER
 70
0
  3

 72
65
 73
4
 40
240.0
 49
140.0
 74
0
 49
-40.0
 74
0
 49
20.0
 74
0
 49
-40.0
 74
0
  0
ENDTAB
  0
TABLE
  2
LAYER
  5
1
330
0
100
AcDbSymbolTable
 70
17
  0
LAYER
  5
27
330
1
100
AcDbSymbolTableRecord
100
AcDbLayerTableRecord
  2
0
 70
0
 62
7
  6
Continuous
370
-3
390
13
347
21
  0
LAYER
  5
28
330
1
100
AcDbSymbolTableRecord
100
AcDbLayerTableRecord
  2
Defpoints
 70
0
 62
7
  6
Continuous
290
0
370
-3
390
13
347
21
  0
LAYER
  5
2F
330
1
100
AcDbSymbolTableRecord
100
AcDbLayerTableRecord
  2
A-WALL
 70
0
 62
7
  6
Continuous
370
50
390
13
347
21
  0
LAYER
  5
30
330
1
100
AcDbSymbolTableRecord
100
AcDbLayerTableRecord
  2
A-WINDOW
 70
0
 62
7
  6
Continuous
370
25
390
13
347
21
  0
LAYER
  5
31
330
1
100
AcDbSymbolTableRecord
100
AcDbLayerTableRecord
  2
A-DOOR
 70
0
 62
7
  6
Continuous
370
25
390
13
347
21
  0
LAYER
  5
32
330
1
100
AcDbSymbolTableRecord
100
AcDbLayerTableRecord
  2
A-FURN
 70
0
 62
7
  6
Continuous
370
25
390
13
347
21
  0
LAYER
  5
33
330
1
100
AcDbSymbolTableRecord
100
AcDbLayerTableRecord
  2
A-FIXT
 70
0
 62
7
  6
Continuous
370
25
390
13
347
21
  0
LAYER
  5
34
330
1
100
AcDbSymbolTableRecord
100
AcDbLayerTableRecord
  2
A-DIMS
 70
0
 62
7
  6
Continuous
370
18
390
13
347
21
  0
LAYER
  5
35
330
1
100
AcDbSymbolTableRecord
100
AcDbLayerTableRecord
  2
A-TEXT
 70
0
 62
7
  6
Continuous
370
18
390
13
347
21
  0
LAYER
  5
36
330
1
100
AcDbSymbolTableRecord
100
AcDbLayerTableRecord
  2
A-HATCH
 70
0
 62
7
  6
Continuous
370
25
390
13
347
21
  0
LAYER
  5
37
330
1
100
AcDbSymbolTableRecord
100
AcDbLayerTableRecord
  2
A-FRAME
 70
0
 62
7
  6
Continuous
370
25
390
13
347
21
  0
LAYER
  5
38
330
1
100
AcDbSymbolTableRecord
100
AcDbLayerTableRecord
  2
A-FLOR
 70
0
 62
7
  6
Continuous
370
25
390
13
347
21
  0
LAYER
  5
39
330
1
100
AcDbSymbolTableRecord
100
AcDbLayerTableRecord
  2
A-CEIL
 70
0
 62
7
  6
Continuous
370
25
390
13
347
21
  0
LAYER
  5
3A
330
1
100
AcDbSymbolTableRecord
100
AcDbLayerTableRecord
  2
A-ELEC
 70
0
 62
7
  6
Continuous
370
25
390
13
347
21
  0
LAYER
  5
3B
330
1
100
AcDbSymbolTableRecord
100
AcDbLayerTableRecord
  2
A-PLUM
 70
0
 62
7
  6
Continuous
370
25
390
13
347
21
  0
LAYER
  5
3C
330
1
100
AcDbSymbolTableRecord
100
AcDbLayerTableRecord
  2
A-VPORT
 70
0
 62
7
  6
Continuous
370
25
390
13
347
21
  0
LAYER
  5
3D
330
1
100
AcDbSymbolTableRecord
100
AcDbLayerTableRecord
  2
A-MASK
 70
0
 62
7
  6
Continuous
370
25
390
13
347
21
  0
ENDTAB
  0
TABLE
  2
STYLE
  5
5
330
0
100
AcDbSymbolTable
 70
2
  0
STYLE
  5
29
330
5
100
AcDbSymbolTableRecord
100
AcDbTextStyleTableRecord
  2
Standard
 70
0
 40
0.0
 41
1.0
 50
0.0
 71
0
 42
2.5
  3
txt
  4

  0
STYLE
  5
40
330
5
100
AcDbSymbolTableRecord
100
AcDbTextStyleTableRecord
  2
CN
 70
0
 40
0.0
 41
1.0
 50
0.0
 71
0
 42
2.5
  3
/Library/Fonts/Arial Unicode.ttf
  4

  0
ENDTAB
  0
TABLE
  2
VIEW
  5
7
330
0
100
AcDbSymbolTable
 70
0
  0
ENDTAB
  0
TABLE
  2
UCS
  5
6
330
0
100
AcDbSymbolTable
 70
0
  0
ENDTAB
  0
TABLE
  2
APPID
  5
3
330
0
100
AcDbSymbolTable
 70
3
  0
APPID
  5
2A
330
3
100
AcDbSymbolTableRecord
100
AcDbRegAppTableRecord
  2
ACAD
 70
0
  0
APPID
  5
142
330
3
100
AcDbSymbolTableRecord
100
AcDbRegAppTableRecord
  2
HATCHBACKGROUNDCOLOR
 70
0
  0
APPID
  5
143
330
3
100
AcDbSymbolTableRecord
100
AcDbRegAppTableRecord
  2
EZDXF
 70
0
  0
ENDTAB
  0
TABLE
  2
DIMSTYLE
  5
4
330
0
100
AcDbSymbolTable
 70
2
100
AcDbDimStyleTable
  0
DIMSTYLE
105
2B
330
4
100
AcDbSymbolTableRecord
100
AcDbDimStyleTableRecord
  2
Standard
 70
0
 40
1.0
 41
2.5
 42
0.625
 43
3.75
 44
1.25
 45
0.0
 46
0.0
 47
0.0
 48
0.0
 49
2.5
140
2.5
141
2.5
142
0.0
143
0.03937007874
144
1.0
145
0.0
146
1.0
147
0.625
148
0.0
 69
0
 70
0
 71
0
 72
0
 73
0
 74
0
 75
0
 76
0
 77
1
 78
8
 79
3
170
0
171
3
172
1
173
0
174
0
175
0
176
0
177
0
178
0
179
2
271
2
272
2
273
2
274
3
275
0
276
0
277
2
278
44
279
0
280
0
281
0
282
0
283
0
284
8
285
0
286
0
288
0
289
3
290
0
371
-2
372
-2
  0
DIMSTYLE
105
41
330
4
100
AcDbSymbolTableRecord
100
AcDbDimStyleTableRecord
  2
ARCH
 70
0
 40
1.0
 41
140.0
 42
60.0
 43
3.75
 44
120.0
 45
0.0
 46
0.0
 47
0.0
 48
0.0
 49
2.5
140
200.0
141
2.5
142
0.0
143
0.03937007874
144
1.0
145
0.0
146
1.0
147
60.0
148
0.0
 69
0
 70
0
 71
0
 72
0
 73
0
 74
0
 75
0
 76
0
 77
1
 78
8
 79
3
170
0
171
3
172
1
173
0
174
0
175
0
176
0
177
0
178
0
179
2
271
0
272
2
273
2
274
3
275
0
276
0
277
2
278
44
279
0
280
0
281
0
282
0
283
0
284
8
285
0
286
0
288
0
289
3
290
0
340
40
342
4E
371
-2
372
-2
  0
ENDTAB
  0
TABLE
  2
BLOCK_RECORD
  5
9
330
0
100
AcDbSymbolTable
 70
16
  0
BLOCK_RECORD
  5
17
330
9
100
AcDbSymbolTableRecord
100
AcDbBlockTableRecord
  2
*Model_Space
340
1A
 70
0
280
1
281
0
  0
BLOCK_RECORD
  5
1B
330
9
100
AcDbSymbolTableRecord
100
AcDbBlockTableRecord
  2
*Paper_Space
340
1E
 70
0
280
1
281
0
  0
BLOCK_RECORD
  5
49
330
9
100
AcDbSymbolTableRecord
100
AcDbBlockTableRecord
  2
*D1
340
0
 70
0
280
1
281
0
  0
BLOCK_RECORD
  5
4E
330
9
100
AcDbSymbolTableRecord
100
AcDbBlockTableRecord
  2
_ARCHTICK
340
0
 70
0
280
1
281
0
  0
BLOCK_RECORD
  5
5F
330
9
100
AcDbSymbolTableRecord
100
AcDbBlockTableRecord
  2
*D2
340
0
 70
0
280
1
281
0
  0
BLOCK_RECORD
  5
71
330
9
100
AcDbSymbolTableRecord
100
AcDbBlockTableRecord
  2
*D3
340
0
 70
0
280
1
281
0
  0
BLOCK_RECORD
  5
81
330
9
100
AcDbSymbolTableRecord
100
AcDbBlockTableRecord
  2
*D4
340
0
 70
0
280
1
281
0
  0
BLOCK_RECORD
  5
91
330
9
100
AcDbSymbolTableRecord
100
AcDbBlockTableRecord
  2
*D5
340
0
 70
0
280
1
281
0
  0
BLOCK_RECORD
  5
B4
330
9
100
AcDbSymbolTableRecord
100
AcDbBlockTableRecord
  2
*D6
340
0
 70
0
280
1
281
0
  0
BLOCK_RECORD
  5
C6
330
9
100
AcDbSymbolTableRecord
100
AcDbBlockTableRecord
  2
*D7
340
0
 70
0
280
1
281
0
  0
BLOCK_RECORD
  5
D8
330
9
100
AcDbSymbolTableRecord
100
AcDbBlockTableRecord
  2
*D8
340
0
 70
0
280
1
281
0
  0
BLOCK_RECORD
  5
E8
330
9
100
AcDbSymbolTableRecord
100
AcDbBlockTableRecord
  2
*D9
340
0
 70
0
280
1
281
0
  0
BLOCK_RECORD
  5
FC
330
9
100
AcDbSymbolTableRecord
100
AcDbBlockTableRecord
  2
*D10
340
0
 70
0
280
1
281
0
  0
BLOCK_RECORD
  5
10C
330
9
100
AcDbSymbolTableRecord
100
AcDbBlockTableRecord
  2
*D11
340
0
 70
0
280
1
281
0
  0
BLOCK_RECORD
  5
11C
330
9
100
AcDbSymbolTableRecord
100
AcDbBlockTableRecord
  2
*D12
340
0
 70
0
280
1
281
0
  0
BLOCK_RECORD
  5
145
330
9
100
AcDbSymbolTableRecord
100
AcDbBlockTableRecord
  2
*Paper_Space0
340
148
 70
0
280
1
281
0
  0
ENDTAB
  0
ENDSEC
  0
SECTION
  2
BLOCKS
  0
BLOCK
  5
18
330
17
100
AcDbEntity
  8
0
100
AcDbBlockBegin
  2
*Model_Space
 70
0
 10
0.0
 20
0.0
 30
0.0
  3
*Model_Space
  1

  0
ENDBLK
  5
19
330
17
100
AcDbEntity
  8
0
100
AcDbBlockEnd
  0
BLOCK
  5
1C
330
1B
100
AcDbEntity
  8
0
100
AcDbBlockBegin
  2
*Paper_Space
 70
0
 10
0.0
 20
0.0
 30
0.0
  3
*Paper_Space
  1

  0
ENDBLK
  5
1D
330
1B
100
AcDbEntity
  8
0
100
AcDbBlockEnd
  0
BLOCK
  5
4A
330
49
100
AcDbEntity
  8
0
100
AcDbBlockBegin
  2
*D1
 70
1
 10
0.0
 20
0.0
 30
0.0
  3
*D1
  1

  0
LINE
  5
4C
330
49
100
AcDbEntity
  8
0
100
AcDbLine
 10
0.0
 20
-20.0
 30
0.0
 11
0.0
 21
-200.0
 31
0.0
  0
LINE
  5
4D
330
49
100
AcDbEntity
  8
0
100
AcDbLine
 10
716.86
 20
-20.0
 30
0.0
 11
716.86
 21
-200.0
 31
0.0
  0
INSERT
  5
52
330
49
100
AcDbEntity
  8
A-DIMS
100
AcDbBlockReference
  2
_ARCHTICK
 10
0.0
 20
-160.0
 30
0.0
 41
40.0
 42
40.0
 50
180.0
  0
INSERT
  5
54
330
49
100
AcDbEntity
  8
A-DIMS
100
AcDbBlockReference
  2
_ARCHTICK
 10
716.86
 20
-160.0
 30
0.0
 41
40.0
 42
40.0
  0
LINE
  5
56
330
49
100
AcDbEntity
  8
0
100
AcDbLine
 10
0.0
 20
-160.0
 30
0.0
 11
268.43
 21
-160.0
 31
0.0
  0
LINE
  5
57
330
49
100
AcDbEntity
  8
0
100
AcDbLine
 10
448.43
 20
-160.0
 30
0.0
 11
716.86
 21
-160.0
 31
0.0
  0
MTEXT
  5
58
330
49
100
AcDbEntity
  8
A-DIMS
100
AcDbMText
 10
358.43
 20
-160.0
 30
0.0
 40
60.0
 71
5
  1
717
  7
CN
  0
POINT
  5
59
330
49
100
AcDbEntity
  8
Defpoints
100
AcDbPoint
 10
0.0
 20
-160.0
 30
0.0
  0
POINT
  5
5A
330
49
100
AcDbEntity
  8
Defpoints
100
AcDbPoint
 10
0.0
 20
0.0
 30
0.0
  0
POINT
  5
5B
330
49
100
AcDbEntity
  8
Defpoints
100
AcDbPoint
 10
716.86
 20
0.0
 30
0.0
  0
ENDBLK
  5
4B
330
49
100
AcDbEntity
  8
0
100
AcDbBlockEnd
  0
BLOCK
  5
4F
330
4E
100
AcDbEntity
  8
0
100
AcDbBlockBegin
  2
_ARCHTICK
 70
0
 10
0.0
 20
0.0
 30
0.0
  3
_ARCHTICK
  1

  0
LWPOLYLINE
  5
51
330
4E
100
AcDbEntity
  8
0
  6
BYBLOCK
 62
0
100
AcDbPolyline
 90
2
 70
0
 43
0.15
 10
-0.5
 20
-0.5
 10
0.5
 20
0.5
  0
ENDBLK
  5
50
330
4E
100
AcDbEntity
  8
0
100
AcDbBlockEnd
  0
BLOCK
  5
60
330
5F
100
AcDbEntity
  8
0
100
AcDbBlockBegin
  2
*D2
 70
1
 10
0.0
 20
0.0
 30
0.0
  3
*D2
  1

  0
LINE
  5
62
330
5F
100
AcDbEntity
  8
0
100
AcDbLine
 10
716.86
 20
-20.0
 30
0.0
 11
716.86
 21
-200.0
 31
0.0
  0
LINE
  5
63
330
5F
100
AcDbEntity
  8
0
100
AcDbLine
 10
1404.26
 20
-20.0
 30
0.0
 11
1404.26
 21
-200.0
 31
0.0
  0
INSERT
  5
64
330
5F
100
AcDbEntity
  8
A-DIMS
100
AcDbBlockReference
  2
_ARCHTICK
 10
716.86
 20
-160.0
 30
0.0
 41
40.0
 42
40.0
 50
180.0
  0
INSERT
  5
66
330
5F
100
AcDbEntity
  8
A-DIMS
100
AcDbBlockReference
  2
_ARCHTICK
 10
1404.26
 20
-160.0
 30
0.0
 41
40.0
 42
40.0
  0
LINE
  5
68
330
5F
100
AcDbEntity
  8
0
100
AcDbLine
 10
716.86
 20
-160.0
 30
0.0
 11
970.56
 21
-160.0
 31
0.0
  0
LINE
  5
69
330
5F
100
AcDbEntity
  8
0
100
AcDbLine
 10
1150.56
 20
-160.0
 30
0.0
 11
1404.26
 21
-160.0
 31
0.0
  0
MTEXT
  5
6A
330
5F
100
AcDbEntity
  8
A-DIMS
100
AcDbMText
 10
1060.56
 20
-160.0
 30
0.0
 40
60.0
 71
5
  1
687
  7
CN
  0
POINT
  5
6B
330
5F
100
AcDbEntity
  8
Defpoints
100
AcDbPoint
 10
716.86
 20
-160.0
 30
0.0
  0
POINT
  5
6C
330
5F
100
AcDbEntity
  8
Defpoints
100
AcDbPoint
 10
716.86
 20
0.0
 30
0.0
  0
POINT
  5
6D
330
5F
100
AcDbEntity
  8
Defpoints
100
AcDbPoint
 10
1404.26
 20
0.0
 30
0.0
  0
ENDBLK
  5
61
330
5F
100
AcDbEntity
  8
0
100
AcDbBlockEnd
  0
BLOCK
  5
72
330
71
100
AcDbEntity
  8
0
100
AcDbBlockBegin
  2
*D3
 70
1
 10
0.0
 20
0.0
 30
0.0
  3
*D3
  1

  0
LINE
  5
74
330
71
100
AcDbEntity
  8
0
100
AcDbLine
 10
1404.26
 20
-20.0
 30
0.0
 11
1404.26
 21
-200.0
 31
0.0
  0
LINE
  5
75
330
71
100
AcDbEntity
  8
0
100
AcDbLine
 10
2297.88
 20
-20.0
 30
0.0
 11
2297.88
 21
-200.0
 31
0.0
  0
INSERT
  5
76
330
71
100
AcDbEntity
  8
A-DIMS
100
AcDbBlockReference
  2
_ARCHTICK
 10
1404.26
 20
-160.0
 30
0.0
 41
40.0
 42
40.0
 50
180.0
  0
INSERT
  5
78
330
71
100
AcDbEntity
  8
A-DIMS
100
AcDbBlockReference
  2
_ARCHTICK
 10
2297.88
 20
-160.0
 30
0.0
 41
40.0
 42
40.0
  0
LINE
  5
7A
330
71
100
AcDbEntity
  8
0
100
AcDbLine
 10
1404.26
 20
-160.0
 30
0.0
 11
1761.0700000000002
 21
-160.0
 31
0.0
  0
LINE
  5
7B
330
71
100
AcDbEntity
  8
0
100
AcDbLine
 10
1941.0700000000002
 20
-160.0
 30
0.0
 11
2297.88
 21
-160.0
 31
0.0
  0
MTEXT
  5
7C
330
71
100
AcDbEntity
  8
A-DIMS
100
AcDbMText
 10
1851.0700000000002
 20
-160.0
 30
0.0
 40
60.0
 71
5
  1
894
  7
CN
  0
POINT
  5
7D
330
71
100
AcDbEntity
  8
Defpoints
100
AcDbPoint
 10
1404.26
 20
-160.0
 30
0.0
  0
POINT
  5
7E
330
71
100
AcDbEntity
  8
Defpoints
100
AcDbPoint
 10
1404.26
 20
0.0
 30
0.0
  0
POINT
  5
7F
330
71
100
AcDbEntity
  8
Defpoints
100
AcDbPoint
 10
2297.88
 20
0.0
 30
0.0
  0
ENDBLK
  5
73
330
71
100
AcDbEntity
  8
0
100
AcDbBlockEnd
  0
BLOCK
  5
82
330
81
100
AcDbEntity
  8
0
100
AcDbBlockBegin
  2
*D4
 70
1
 10
0.0
 20
0.0
 30
0.0
  3
*D4
  1

  0
LINE
  5
84
330
81
100
AcDbEntity
  8
0
100
AcDbLine
 10
0.0
 20
-20.0
 30
0.0
 11
0.0
 21
-420.0
 31
0.0
  0
LINE
  5
85
330
81
100
AcDbEntity
  8
0
100
AcDbLine
 10
2297.88
 20
-20.0
 30
0.0
 11
2297.88
 21
-420.0
 31
0.0
  0
INSERT
  5
86
330
81
100
AcDbEntity
  8
A-DIMS
100
AcDbBlockReference
  2
_ARCHTICK
 10
0.0
 20
-380.0
 30
0.0
 41
40.0
 42
40.0
 50
180.0
  0
INSERT
  5
88
330
81
100
AcDbEntity
  8
A-DIMS
100
AcDbBlockReference
  2
_ARCHTICK
 10
2297.88
 20
-380.0
 30
0.0
 41
40.0
 42
40.0
  0
LINE
  5
8A
330
81
100
AcDbEntity
  8
0
100
AcDbLine
 10
0.0
 20
-380.0
 30
0.0
 11
1028.94
 21
-380.0
 31
0.0
  0
LINE
  5
8B
330
81
100
AcDbEntity
  8
0
100
AcDbLine
 10
1268.94
 20
-380.0
 30
0.0
 11
2297.88
 21
-380.0
 31
0.0
  0
MTEXT
  5
8C
330
81
100
AcDbEntity
  8
A-DIMS
100
AcDbMText
 10
1148.94
 20
-380.0
 30
0.0
 40
60.0
 71
5
  1
2298
  7
CN
  0
POINT
  5
8D
330
81
100
AcDbEntity
  8
Defpoints
100
AcDbPoint
 10
0.0
 20
-380.0
 30
0.0
  0
POINT
  5
8E
330
81
100
AcDbEntity
  8
Defpoints
100
AcDbPoint
 10
0.0
 20
0.0
 30
0.0
  0
POINT
  5
8F
330
81
100
AcDbEntity
  8
Defpoints
100
AcDbPoint
 10
2297.88
 20
0.0
 30
0.0
  0
ENDBLK
  5
83
330
81
100
AcDbEntity
  8
0
100
AcDbBlockEnd
  0
BLOCK
  5
92
330
91
100
AcDbEntity
  8
0
100
AcDbBlockBegin
  2
*D5
 70
1
 10
0.0
 20
0.0
 30
0.0
  3
*D5
  1

  0
LINE
  5
94
330
91
100
AcDbEntity
  8
0
100
AcDbLine
 10
-20.0
 20
0.0
 30
0.0
 11
-280.0
 21
0.0
 31
0.0
  0
LINE
  5
95
330
91
100
AcDbEntity
  8
0
100
AcDbLine
 10
-20.0
 20
2400.0
 30
0.0
 11
-280.0
 21
2400.0
 31
0.0
  0
INSERT
  5
96
330
91
100
AcDbEntity
  8
A-DIMS
100
AcDbBlockReference
  2
_ARCHTICK
 10
-240.0
 20
0.0
 30
0.0
 41
40.0
 42
40.0
 50
270.0
  0
INSERT
  5
98
330
91
100
AcDbEntity
  8
A-DIMS
100
AcDbBlockReference
  2
_ARCHTICK
 10
-240.0
 20
2400.0
 30
0.0
 41
40.0
 42
40.0
 50
90.0
  0
LINE
  5
9A
330
91
100
AcDbEntity
  8
0
100
AcDbLine
 10
-240.0
 20
0.0
 30
0.0
 11
-240.0
 21
1080.0
 31
0.0
  0
LINE
  5
9B
330
91
100
AcDbEntity
  8
0
100
AcDbLine
 10
-240.0
 20
1320.0
 30
0.0
 11
-240.0
 21
2400.0
 31
0.0
  0
MTEXT
  5
9C
330
91
100
AcDbEntity
  8
A-DIMS
100
AcDbMText
 10
-240.0
 20
1200.0
 30
0.0
 40
60.0
 71
5
  1
2400
  7
CN
 50
90.0
  0
POINT
  5
9D
330
91
100
AcDbEntity
  8
Defpoints
100
AcDbPoint
 10
-240.0
 20
0.0
 30
0.0
  0
POINT
  5
9E
330
91
100
AcDbEntity
  8
Defpoints
100
AcDbPoint
 10
0.0
 20
0.0
 30
0.0
  0
POINT
  5
9F
330
91
100
AcDbEntity
  8
Defpoints
100
AcDbPoint
 10
0.0
 20
2400.0
 30
0.0
  0
ENDBLK
  5
93
330
91
100
AcDbEntity
  8
0
100
AcDbBlockEnd
  0
BLOCK
  5
B5
330
B4
100
AcDbEntity
  8
0
100
AcDbBlockBegin
  2
*D6
 70
1
 10
0.0
 20
0.0
 30
0.0
  3
*D6
  1

  0
LINE
  5
B7
330
B4
100
AcDbEntity
  8
0
100
AcDbLine
 10
0.0
 20
-1920.0
 30
0.0
 11
0.0
 21
-2090.0
 31
0.0
  0
LINE
  5
B8
330
B4
100
AcDbEntity
  8
0
100
AcDbLine
 10
893.62
 20
-1920.0
 30
0.0
 11
893.62
 21
-2090.0
 31
0.0
  0
INSERT
  5
B9
330
B4
100
AcDbEntity
  8
A-DIMS
100
AcDbBlockReference
  2
_ARCHTICK
 10
0.0
 20
-2050.0
 30
0.0
 41
40.0
 42
40.0
 50
180.0
  0
INSERT
  5
BB
330
B4
100
AcDbEntity
  8
A-DIMS
100
AcDbBlockReference
  2
_ARCHTICK
 10
893.62
 20
-2050.0
 30
0.0
 41
40.0
 42
40.0
  0
LINE
  5
BD
330
B4
100
AcDbEntity
  8
0
100
AcDbLine
 10
0.0
 20
-2050.0
 30
0.0
 11
356.81
 21
-2050.0
 31
0.0
  0
LINE
  5
BE
330
B4
100
AcDbEntity
  8
0
100
AcDbLine
 10
536.81
 20
-2050.0
 30
0.0
 11
893.62
 21
-2050.0
 31
0.0
  0
MTEXT
  5
BF
330
B4
100
AcDbEntity
  8
A-DIMS
100
AcDbMText
 10
446.81
 20
-2050.0
 30
0.0
 40
60.0
 71
5
  1
894
  7
CN
  0
POINT
  5
C0
330
B4
100
AcDbEntity
  8
Defpoints
100
AcDbPoint
 10
0.0
 20
-2050.0
 30
0.0
  0
POINT
  5
C1
330
B4
100
AcDbEntity
  8
Defpoints
100
AcDbPoint
 10
0.0
 20
-1900.0
 30
0.0
  0
POINT
  5
C2
330
B4
100
AcDbEntity
  8
Defpoints
100
AcDbPoint
 10
893.62
 20
-1900.0
 30
0.0
  0
ENDBLK
  5
B6
330
B4
100
AcDbEntity
  8
0
100
AcDbBlockEnd
  0
BLOCK
  5
C7
330
C6
100
AcDbEntity
  8
0
100
AcDbBlockBegin
  2
*D7
 70
1
 10
0.0
 20
0.0
 30
0.0
  3
*D7
  1

  0
LINE
  5
C9
330
C6
100
AcDbEntity
  8
0
100
AcDbLine
 10
893.62
 20
-1920.0
 30
0.0
 11
893.62
 21
-2090.0
 31
0.0
  0
LINE
  5
CA
330
C6
100
AcDbEntity
  8
0
100
AcDbLine
 10
1581.02
 20
-1920.0
 30
0.0
 11
1581.02
 21
-2090.0
 31
0.0
  0
INSERT
  5
CB
330
C6
100
AcDbEntity
  8
A-DIMS
100
AcDbBlockReference
  2
_ARCHTICK
 10
893.62
 20
-2050.0
 30
0.0
 41
40.0
 42
40.0
 50
180.0
  0
INSERT
  5
CD
330
C6
100
AcDbEntity
  8
A-DIMS
100
AcDbBlockReference
  2
_ARCHTICK
 10
1581.02
 20
-2050.0
 30
0.0
 41
40.0
 42
40.0
  0
LINE
  5
CF
330
C6
100
AcDbEntity
  8
0
100
AcDbLine
 10
893.62
 20
-2050.0
 30
0.0
 11
1147.32
 21
-2050.0
 31
0.0
  0
LINE
  5
D0
330
C6
100
AcDbEntity
  8
0
100
AcDbLine
 10
1327.32
 20
-2050.0
 30
0.0
 11
1581.02
 21
-2050.0
 31
0.0
  0
MTEXT
  5
D1
330
C6
100
AcDbEntity
  8
A-DIMS
100
AcDbMText
 10
1237.32
 20
-2050.0
 30
0.0
 40
60.0
 71
5
  1
687
  7
CN
  0
POINT
  5
D2
330
C6
100
AcDbEntity
  8
Defpoints
100
AcDbPoint
 10
893.62
 20
-2050.0
 30
0.0
  0
POINT
  5
D3
330
C6
100
AcDbEntity
  8
Defpoints
100
AcDbPoint
 10
893.62
 20
-1900.0
 30
0.0
  0
POINT
  5
D4
330
C6
100
AcDbEntity
  8
Defpoints
100
AcDbPoint
 10
1581.02
 20
-1900.0
 30
0.0
  0
ENDBLK
  5
C8
330
C6
100
AcDbEntity
  8
0
100
AcDbBlockEnd
  0
BLOCK
  5
D9
330
D8
100
AcDbEntity
  8
0
100
AcDbBlockBegin
  2
*D8
 70
1
 10
0.0
 20
0.0
 30
0.0
  3
*D8
  1

  0
LINE
  5
DB
330
D8
100
AcDbEntity
  8
0
100
AcDbLine
 10
1581.02
 20
-1920.0
 30
0.0
 11
1581.02
 21
-2090.0
 31
0.0
  0
LINE
  5
DC
330
D8
100
AcDbEntity
  8
0
100
AcDbLine
 10
2297.88
 20
-1920.0
 30
0.0
 11
2297.88
 21
-2090.0
 31
0.0
  0
INSERT
  5
DD
330
D8
100
AcDbEntity
  8
A-DIMS
100
AcDbBlockReference
  2
_ARCHTICK
 10
1581.02
 20
-2050.0
 30
0.0
 41
40.0
 42
40.0
 50
180.0
  0
INSERT
  5
DF
330
D8
100
AcDbEntity
  8
A-DIMS
100
AcDbBlockReference
  2
_ARCHTICK
 10
2297.88
 20
-2050.0
 30
0.0
 41
40.0
 42
40.0
  0
LINE
  5
E1
330
D8
100
AcDbEntity
  8
0
100
AcDbLine
 10
1581.02
 20
-2050.0
 30
0.0
 11
1849.45
 21
-2050.0
 31
0.0
  0
LINE
  5
E2
330
D8
100
AcDbEntity
  8
0
100
AcDbLine
 10
2029.45
 20
-2050.0
 30
0.0
 11
2297.88
 21
-2050.0
 31
0.0
  0
MTEXT
  5
E3
330
D8
100
AcDbEntity
  8
A-DIMS
100
AcDbMText
 10
1939.45
 20
-2050.0
 30
0.0
 40
60.0
 71
5
  1
717
  7
CN
  0
POINT
  5
E4
330
D8
100
AcDbEntity
  8
Defpoints
100
AcDbPoint
 10
1581.02
 20
-2050.0
 30
0.0
  0
POINT
  5
E5
330
D8
100
AcDbEntity
  8
Defpoints
100
AcDbPoint
 10
1581.02
 20
-1900.0
 30
0.0
  0
POINT
  5
E6
330
D8
100
AcDbEntity
  8
Defpoints
100
AcDbPoint
 10
2297.88
 20
-1900.0
 30
0.0
  0
ENDBLK
  5
DA
330
D8
100
AcDbEntity
  8
0
100
AcDbBlockEnd
  0
BLOCK
  5
E9
330
E8
100
AcDbEntity
  8
0
100
AcDbBlockBegin
  2
*D9
 70
1
 10
0.0
 20
0.0
 30
0.0
  3
*D9
  1

  0
LINE
  5
EB
330
E8
100
AcDbEntity
  8
0
100
AcDbLine
 10
2317.88
 20
-1900.0
 30
0.0
 11
2577.88
 21
-1900.0
 31
0.0
  0
LINE
  5
EC
330
E8
100
AcDbEntity
  8
0
100
AcDbLine
 10
2317.88
 20
-1281.3400000000001
 30
0.0
 11
2577.88
 21
-1281.3400000000001
 31
0.0
  0
INSERT
  5
ED
330
E8
100
AcDbEntity
  8
A-DIMS
100
AcDbBlockReference
  2
_ARCHTICK
 10
2537.88
 20
-1900.0
 30
0.0
 41
40.0
 42
40.0
 50
270.0
  0
INSERT
  5
EF
330
E8
100
AcDbEntity
  8
A-DIMS
100
AcDbBlockReference
  2
_ARCHTICK
 10
2537.88
 20
-1281.3400000000001
 30
0.0
 41
40.0
 42
40.0
 50
90.0
  0
LINE
  5
F1
330
E8
100
AcDbEntity
  8
0
100
AcDbLine
 10
2537.88
 20
-1900.0
 30
0.0
 11
2537.88
 21
-1680.67
 31
0.0
  0
LINE
  5
F2
330
E8
100
AcDbEntity
  8
0
100
AcDbLine
 10
2537.88
 20
-1500.67
 30
0.0
 11
2537.88
 21
-1281.3400000000001
 31
0.0
  0
MTEXT
  5
F3
330
E8
100
AcDbEntity
  8
A-DIMS
100
AcDbMText
 10
2537.88
 20
-1590.67
 30
0.0
 40
60.0
 71
5
  1
619
  7
CN
 50
90.0
  0
POINT
  5
F4
330
E8
100
AcDbEntity
  8
Defpoints
100
AcDbPoint
 10
2537.88
 20
-1900.0
 30
0.0
  0
POINT
  5
F5
330
E8
100
AcDbEntity
  8
Defpoints
100
AcDbPoint
 10
2297.88
 20
-1900.0
 30
0.0
  0
POINT
  5
F6
330
E8
100
AcDbEntity
  8
Defpoints
100
AcDbPoint
 10
2297.88
 20
-1281.3400000000001
 30
0.0
  0
ENDBLK
  5
EA
330
E8
100
AcDbEntity
  8
0
100
AcDbBlockEnd
  0
BLOCK
  5
FD
330
FC
100
AcDbEntity
  8
0
100
AcDbBlockBegin
  2
*D10
 70
1
 10
0.0
 20
0.0
 30
0.0
  3
*D10
  1

  0
LINE
  5
FF
330
FC
100
AcDbEntity
  8
0
100
AcDbLine
 10
3550.0
 20
-20.0
 30
0.0
 11
3550.0
 21
-240.0
 31
0.0
  0
LINE
  5
100
330
FC
100
AcDbEntity
  8
0
100
AcDbLine
 10
4168.66
 20
-20.0
 30
0.0
 11
4168.66
 21
-240.0
 31
0.0
  0
INSERT
  5
101
330
FC
100
AcDbEntity
  8
A-DIMS
100
AcDbBlockReference
  2
_ARCHTICK
 10
3550.0
 20
-200.0
 30
0.0
 41
40.0
 42
40.0
 50
180.0
  0
INSERT
  5
103
330
FC
100
AcDbEntity
  8
A-DIMS
100
AcDbBlockReference
  2
_ARCHTICK
 10
4168.66
 20
-200.0
 30
0.0
 41
40.0
 42
40.0
  0
LINE
  5
105
330
FC
100
AcDbEntity
  8
0
100
AcDbLine
 10
3550.0
 20
-200.0
 30
0.0
 11
3769.33
 21
-200.0
 31
0.0
  0
LINE
  5
106
330
FC
100
AcDbEntity
  8
0
100
AcDbLine
 10
3949.33
 20
-200.0
 30
0.0
 11
4168.66
 21
-200.0
 31
0.0
  0
MTEXT
  5
107
330
FC
100
AcDbEntity
  8
A-DIMS
100
AcDbMText
 10
3859.33
 20
-200.0
 30
0.0
 40
60.0
 71
5
  1
619
  7
CN
  0
POINT
  5
108
330
FC
100
AcDbEntity
  8
Defpoints
100
AcDbPoint
 10
3550.0
 20
-200.0
 30
0.0
  0
POINT
  5
109
330
FC
100
AcDbEntity
  8
Defpoints
100
AcDbPoint
 10
3550.0
 20
0.0
 30
0.0
  0
POINT
  5
10A
330
FC
100
AcDbEntity
  8
Defpoints
100
AcDbPoint
 10
4168.66
 20
0.0
 30
0.0
  0
ENDBLK
  5
FE
330
FC
100
AcDbEntity
  8
0
100
AcDbBlockEnd
  0
BLOCK
  5
10D
330
10C
100
AcDbEntity
  8
0
100
AcDbBlockBegin
  2
*D11
 70
1
 10
0.0
 20
0.0
 30
0.0
  3
*D11
  1

  0
LINE
  5
10F
330
10C
100
AcDbEntity
  8
0
100
AcDbLine
 10
4188.66
 20
0.0
 30
0.0
 11
4428.66
 21
0.0
 31
0.0
  0
LINE
  5
110
330
10C
100
AcDbEntity
  8
0
100
AcDbLine
 10
4188.66
 20
2400.0
 30
0.0
 11
4428.66
 21
2400.0
 31
0.0
  0
INSERT
  5
111
330
10C
100
AcDbEntity
  8
A-DIMS
100
AcDbBlockReference
  2
_ARCHTICK
 10
4388.66
 20
0.0
 30
0.0
 41
40.0
 42
40.0
 50
270.0
  0
INSERT
  5
113
330
10C
100
AcDbEntity
  8
A-DIMS
100
AcDbBlockReference
  2
_ARCHTICK
 10
4388.66
 20
2400.0
 30
0.0
 41
40.0
 42
40.0
 50
90.0
  0
LINE
  5
115
330
10C
100
AcDbEntity
  8
0
100
AcDbLine
 10
4388.66
 20
0.0
 30
0.0
 11
4388.66
 21
1080.0
 31
0.0
  0
LINE
  5
116
330
10C
100
AcDbEntity
  8
0
100
AcDbLine
 10
4388.66
 20
1320.0
 30
0.0
 11
4388.66
 21
2400.0
 31
0.0
  0
MTEXT
  5
117
330
10C
100
AcDbEntity
  8
A-DIMS
100
AcDbMText
 10
4388.66
 20
1200.0
 30
0.0
 40
60.0
 71
5
  1
2400
  7
CN
 50
90.0
  0
POINT
  5
118
330
10C
100
AcDbEntity
  8
Defpoints
100
AcDbPoint
 10
4388.66
 20
0.0
 30
0.0
  0
POINT
  5
119
330
10C
100
AcDbEntity
  8
Defpoints
100
AcDbPoint
 10
4168.66
 20
0.0
 30
0.0
  0
POINT
  5
11A
330
10C
100
AcDbEntity
  8
Defpoints
100
AcDbPoint
 10
4168.66
 20
2400.0
 30
0.0
  0
ENDBLK
  5
10E
330
10C
100
AcDbEntity
  8
0
100
AcDbBlockEnd
  0
BLOCK
  5
11D
330
11C
100
AcDbEntity
  8
0
100
AcDbBlockBegin
  2
*D12
 70
1
 10
0.0
 20
0.0
 30
0.0
  3
*D12
  1

  0
LINE
  5
11F
330
11C
100
AcDbEntity
  8
0
100
AcDbLine
 10
4188.66
 20
2400.0
 30
0.0
 11
4688.66
 21
2400.0
 31
0.0
  0
LINE
  5
120
330
11C
100
AcDbEntity
  8
0
100
AcDbLine
 10
4188.66
 20
2600.0
 30
0.0
 11
4688.66
 21
2600.0
 31
0.0
  0
INSERT
  5
121
330
11C
100
AcDbEntity
  8
A-DIMS
100
AcDbBlockReference
  2
_ARCHTICK
 10
4648.66
 20
2400.0
 30
0.0
 41
40.0
 42
40.0
 50
270.0
  0
INSERT
  5
123
330
11C
100
AcDbEntity
  8
A-DIMS
100
AcDbBlockReference
  2
_ARCHTICK
 10
4648.66
 20
2600.0
 30
0.0
 41
40.0
 42
40.0
 50
90.0
  0
LINE
  5
125
330
11C
100
AcDbEntity
  8
0
100
AcDbLine
 10
4648.66
 20
2400.0
 30
0.0
 11
4648.66
 21
2600.0
 31
0.0
  0
MTEXT
  5
126
330
11C
100
AcDbEntity
  8
A-DIMS
100
AcDbMText
 10
4558.66
 20
2500.0
 30
0.0
 40
60.0
 71
5
  1
200
  7
CN
 50
90.0
  0
POINT
  5
127
330
11C
100
AcDbEntity
  8
Defpoints
100
AcDbPoint
 10
4648.66
 20
2400.0
 30
0.0
  0
POINT
  5
128
330
11C
100
AcDbEntity
  8
Defpoints
100
AcDbPoint
 10
4168.66
 20
2400.0
 30
0.0
  0
POINT
  5
129
330
11C
100
AcDbEntity
  8
Defpoints
100
AcDbPoint
 10
4168.66
 20
2600.0
 30
0.0
  0
ENDBLK
  5
11E
330
11C
100
AcDbEntity
  8
0
100
AcDbBlockEnd
  0
BLOCK
  5
146
330
145
100
AcDbEntity
  8
0
100
AcDbBlockBegin
  2
*Paper_Space0
 70
0
 10
0.0
 20
0.0
 30
0.0
  3
*Paper_Space0
  1

  0
VIEWPORT
  5
149
330
145
100
AcDbEntity
 67
1
  8
VIEWPORTS
100
AcDbViewport
 10
297.0
 20
210.0
 30
0.0
 40
653.4000000000001
 41
462.00000000000006
 68
1
 69
1
 12
297.0
 22
210.0
 13
0.0
 23
0.0
 14
10.0
 24
10.0
 15
10.0
 25
10.0
 16
0.0
 26
0.0
 36
1.0
 17
0.0
 27
0.0
 37
0.0
 42
50.0
 43
0.0
 44
0.0
 45
462.00000000000006
 50
0.0
 51
0.0
 72
100
 90
557088
  1

281
0
 71
0
 74
0
110
0.0
120
0.0
130
0.0
111
1.0
121
0.0
131
0.0
112
0.0
122
1.0
132
0.0
 79
0
146
0.0
282
0
  0
LWPOLYLINE
  5
14A
330
145
100
AcDbEntity
 67
1
  8
A-FRAME
370
50
100
AcDbPolyline
 90
4
 70
1
 10
10.0
 20
10.0
 10
584.0
 20
10.0
 10
584.0
 20
410.0
 10
10.0
 20
410.0
  0
LINE
  5
14B
330
145
100
AcDbEntity
 67
1
  8
A-FRAME
100
AcDbLine
 10
10.0
 20
48.0
 30
0.0
 11
584.0
 21
48.0
 31
0.0
  0
TEXT
  5
14C
330
145
100
AcDbEntity
 67
1
  8
A-TEXT
420
1184274
100
AcDbText
 10
18.0
 20
35.0
 30
0.0
 40
4.0
  1
学道街44号 | 住宅室内设计
  7
CN
 11
18.0
 21
35.0
 31
0.0
100
AcDbText
  0
TEXT
  5
14D
330
145
100
AcDbEntity
 67
1
  8
A-TEXT
420
1184274
100
AcDbText
 10
18.0
 20
24.0
 30
0.0
 40
3.4
  1
服务墙专项协调详图
  7
CN
 11
18.0
 21
24.0
 31
0.0
100
AcDbText
  0
TEXT
  5
14E
330
145
100
AcDbEntity
 67
1
  8
A-TEXT
420
1184274
100
AcDbText
 10
18.0
 20
15.0
 30
0.0
 40
2.5
  1
A7 PNG标定 / v14共享底模 / 单位mm / 2026-09-18
  7
CN
 11
18.0
 21
15.0
 31
0.0
100
AcDbText
  0
TEXT
  5
14F
330
145
100
AcDbEntity
 67
1
  8
A-TEXT
420
1184274
100
AcDbText
 10
535.0
 20
30.0
 30
0.0
 40
7.0
  1
A403
  7
CN
 11
535.0
 21
30.0
 31
0.0
100
AcDbText
  0
TEXT
  5
150
330
145
100
AcDbEntity
 67
1
  8
A-TEXT
420
1184274
100
AcDbText
 10
468.0
 20
16.0
 30
0.0
 40
3.0
  1
1:20 @ A2  |  v14
  7
CN
 11
468.0
 21
16.0
 31
0.0
100
AcDbText
  0
TEXT
  5
151
330
145
100
AcDbEntity
 67
1
  8
A-TEXT
420
1184274
100
AcDbText
 10
320.0
 20
36.0
 30
0.0
 40
2.5
  1
设计复核版 · 非现场测绘/加工放样图
  7
CN
 11
320.0
 21
36.0
 31
0.0
100
AcDbText
  0
TEXT
  5
152
330
145
100
AcDbEntity
 67
1
  8
A-TEXT
420
1184274
100
AcDbText
 10
320.0
 20
25.0
 30
0.0
 40
2.5
  1
按100%打印；请勿缩放页面
  7
CN
 11
320.0
 21
25.0
 31
0.0
100
AcDbText
  0
TEXT
  5
153
330
145
100
AcDbEntity
 67
1
  8
A-TEXT
420
1184274
100
AcDbText
 10
18.0
 20
395.0
 30
0.0
 40
3.5
  1
A403  /  服务墙专项协调详图
  7
CN
 11
18.0
 21
395.0
 31
0.0
100
AcDbText
  0
VIEWPORT
  5
154
330
145
100
AcDbEntity
 67
1
  8
A-VPORT
100
AcDbViewport
 10
294.0
 20
221.0
 30
0.0
 40
552.0
 41
326.0
 68
2
 69
3
 12
3492.506821282401
 22
405.9549795361529
 13
0.0
 23
0.0
 14
10.0
 24
10.0
 15
10.0
 25
10.0
 16
0.0
 26
0.0
 36
1.0
 17
0.0
 27
0.0
 37
0.0
 42
50.0
 43
0.0
 44
0.0
 45
6520.0
 50
0.0
 51
0.0
 72
100
 90
16384
  1

281
0
 71
0
 74
0
110
0.0
120
0.0
130
0.0
111
1.0
121
0.0
131
0.0
112
0.0
122
1.0
132
0.0
 79
0
146
0.0
282
0
  0
LINE
  5
155
330
145
100
AcDbEntity
 67
1
  8
A-DIMS
100
AcDbLine
 10
22.0
 20
66.0
 30
0.0
 11
272.0
 21
66.0
 31
0.0
  0
LINE
  5
156
330
145
100
AcDbEntity
 67
1
  8
A-DIMS
100
AcDbLine
 10
22.0
 20
64.5
 30
0.0
 11
22.0
 21
67.5
 31
0.0
  0
TEXT
  5
157
330
145
100
AcDbEntity
 67
1
  8
A-TEXT
420
1184274
100
AcDbText
 10
22.0
 20
60.0
 30
0.0
 40
2.0
  1
0
  7
CN
 11
22.0
 21
60.0
 31
0.0
100
AcDbText
  0
LINE
  5
158
330
145
100
AcDbEntity
 67
1
  8
A-DIMS
100
AcDbLine
 10
72.0
 20
64.5
 30
0.0
 11
72.0
 21
67.5
 31
0.0
  0
TEXT
  5
159
330
145
100
AcDbEntity
 67
1
  8
A-TEXT
420
1184274
100
AcDbText
 10
72.0
 20
60.0
 30
0.0
 40
2.0
  1
1
  7
CN
 11
72.0
 21
60.0
 31
0.0
100
AcDbText
  0
LINE
  5
15A
330
145
100
AcDbEntity
 67
1
  8
A-DIMS
100
AcDbLine
 10
122.0
 20
64.5
 30
0.0
 11
122.0
 21
67.5
 31
0.0
  0
TEXT
  5
15B
330
145
100
AcDbEntity
 67
1
  8
A-TEXT
420
1184274
100
AcDbText
 10
122.0
 20
60.0
 30
0.0
 40
2.0
  1
2
  7
CN
 11
122.0
 21
60.0
 31
0.0
100
AcDbText
  0
LINE
  5
15C
330
145
100
AcDbEntity
 67
1
  8
A-DIMS
100
AcDbLine
 10
172.0
 20
64.5
 30
0.0
 11
172.0
 21
67.5
 31
0.0
  0
TEXT
  5
15D
330
145
100
AcDbEntity
 67
1
  8
A-TEXT
420
1184274
100
AcDbText
 10
172.0
 20
60.0
 30
0.0
 40
2.0
  1
3
  7
CN
 11
172.0
 21
60.0
 31
0.0
100
AcDbText
  0
LINE
  5
15E
330
145
100
AcDbEntity
 67
1
  8
A-DIMS
100
AcDbLine
 10
222.0
 20
64.5
 30
0.0
 11
222.0
 21
67.5
 31
0.0
  0
TEXT
  5
15F
330
145
100
AcDbEntity
 67
1
  8
A-TEXT
420
1184274
100
AcDbText
 10
222.0
 20
60.0
 30
0.0
 40
2.0
  1
4
  7
CN
 11
222.0
 21
60.0
 31
0.0
100
AcDbText
  0
LINE
  5
160
330
145
100
AcDbEntity
 67
1
  8
A-DIMS
100
AcDbLine
 10
272.0
 20
64.5
 30
0.0
 11
272.0
 21
67.5
 31
0.0
  0
TEXT
  5
161
330
145
100
AcDbEntity
 67
1
  8
A-TEXT
420
1184274
100
AcDbText
 10
272.0
 20
60.0
 30
0.0
 40
2.0
  1
5
  7
CN
 11
272.0
 21
60.0
 31
0.0
100
AcDbText
  0
TEXT
  5
162
330
145
100
AcDbEntity
 67
1
  8
A-TEXT
420
1184274
100
AcDbText
 10
276.0
 20
60.0
 30
0.0
 40
2.0
  1
m
  7
CN
 11
276.0
 21
60.0
 31
0.0
100
AcDbText
  0
TEXT
  5
163
330
145
100
AcDbEntity
 67
1
  8
A-TEXT
420
1184274
100
AcDbText
 10
18.0
 20
385.0
 30
0.0
 40
2.2
  1
三视图均为1:20；mm；以FFL为标高零点。设备及柜体高度仍待选型/现场确认。
  7
CN
 11
18.0
 21
385.0
 31
0.0
100
AcDbText
  0
ENDBLK
  5
147
330
145
100
AcDbEntity
  8
0
100
AcDbBlockEnd
  0
ENDSEC
  0
SECTION
  2
ENTITIES
  0
TEXT
  5
42
330
17
100
AcDbEntity
  8
A-TEXT
420
1184274
100
AcDbText
 10
0.0
 20
3000.0
 30
0.0
 40
90.0
  1
01  服务墙正立面 / 西向看 · 北在右
  7
CN
 11
0.0
 21
3000.0
 31
0.0
100
AcDbText
  0
LINE
  5
43
330
17
100
AcDbEntity
  8
A-WALL
370
50
100
AcDbLine
 10
-150.0
 20
0.0
 30
0.0
 11
2447.88
 21
0.0
 31
0.0
  0
LINE
  5
44
330
17
100
AcDbEntity
  8
A-CEIL
  6
DASHED
100
AcDbLine
 10
0.0
 20
2600.0
 30
0.0
 11
2297.88
 21
2600.0
 31
0.0
  0
TEXT
  5
45
330
17
100
AcDbEntity
  8
A-TEXT
420
1184274
100
AcDbText
 10
0.0
 20
2720.0
 30
0.0
 40
65.0
  1
吊顶完成面 +2600（假设）
  7
CN
 11
0.0
 21
2720.0
 31
0.0
100
AcDbText
  0
LWPOLYLINE
  5
46
330
17
100
AcDbEntity
  8
A-FURN
370
35
100
AcDbPolyline
 90
4
 70
1
 10
0.0
 20
0.0
 10
716.86
 20
0.0
 10
716.86
 20
2400.0
 10
0.0
 20
2400.0
  0
TEXT
  5
47
330
17
100
AcDbEntity
  8
A-TEXT
420
1184274
100
AcDbText
 10
358.43
 20
2470.0
 30
0.0
 40
65.0
  1
洗烘区
  7
CN
 72
1
 11
358.43
 21
2470.0
 31
0.0
100
AcDbText
 73
2
  0
DIMENSION
  5
48
330
17
100
AcDbEntity
  8
A-DIMS
100
AcDbDimension
280
0
  2
*D1
  3
ARCH
 10
0.0
 20
-160.0
 30
0.0
 11
358.43
 21
-160.0
 31
0.0
 70
32
 71
5
  1
<>
100
AcDbAlignedDimension
 13
0.0
 23
0.0
 33
0.0
 14
716.86
 24
0.0
 34
0.0
 50
0.0
100
AcDbRotatedDimension
1001
ACAD
1000
DSTYLE
1002
{
1070
140
1040
60.0
1070
41
1040
40.0
1070
44
1040
40.0
1070
42
1040
20.0
1070
147
1040
20.0
1002
}
  0
LWPOLYLINE
  5
5C
330
17
100
AcDbEntity
  8
A-FURN
370
35
100
AcDbPolyline
 90
4
 70
1
 10
716.86
 20
0.0
 10
1404.26
 20
0.0
 10
1404.26
 20
2400.0
 10
716.86
 20
2400.0
  0
TEXT
  5
5D
330
17
100
AcDbEntity
  8
A-TEXT
420
1184274
100
AcDbText
 10
1060.56
 20
2470.0
 30
0.0
 40
65.0
  1
蒸烤区
  7
CN
 72
1
 11
1060.56
 21
2470.0
 31
0.0
100
AcDbText
 73
2
  0
DIMENSION
  5
5E
330
17
100
AcDbEntity
  8
A-DIMS
100
AcDbDimension
280
0
  2
*D2
  3
ARCH
 10
716.86
 20
-160.0
 30
0.0
 11
1060.56
 21
-160.0
 31
0.0
 70
32
 71
5
  1
<>
100
AcDbAlignedDimension
 13
716.86
 23
0.0
 33
0.0
 14
1404.26
 24
0.0
 34
0.0
 50
0.0
100
AcDbRotatedDimension
1001
ACAD
1000
DSTYLE
1002
{
1070
140
1040
60.0
1070
41
1040
40.0
1070
44
1040
40.0
1070
42
1040
20.0
1070
147
1040
20.0
1002
}
  0
LWPOLYLINE
  5
6E
330
17
100
AcDbEntity
  8
A-FURN
370
35
100
AcDbPolyline
 90
4
 70
1
 10
1404.26
 20
0.0
 10
2297.88
 20
0.0
 10
2297.88
 20
2400.0
 10
1404.26
 20
2400.0
  0
TEXT
  5
6F
330
17
100
AcDbEntity
  8
A-TEXT
420
1184274
100
AcDbText
 10
1851.07
 20
2470.0
 30
0.0
 40
65.0
  1
冰箱区
  7
CN
 72
1
 11
1851.07
 21
2470.0
 31
0.0
100
AcDbText
 73
2
  0
DIMENSION
  5
70
330
17
100
AcDbEntity
  8
A-DIMS
100
AcDbDimension
280
0
  2
*D3
  3
ARCH
 10
1404.26
 20
-160.0
 30
0.0
 11
1851.0700000000002
 21
-160.0
 31
0.0
 70
32
 71
5
  1
<>
100
AcDbAlignedDimension
 13
1404.26
 23
0.0
 33
0.0
 14
2297.88
 24
0.0
 34
0.0
 50
0.0
100
AcDbRotatedDimension
1001
ACAD
1000
DSTYLE
1002
{
1070
140
1040
60.0
1070
41
1040
40.0
1070
44
1040
40.0
1070
42
1040
20.0
1070
147
1040
20.0
1002
}
  0
DIMENSION
  5
80
330
17
100
AcDbEntity
  8
A-DIMS
100
AcDbDimension
280
0
  2
*D4
  3
ARCH
 10
0.0
 20
-380.0
 30
0.0
 11
1148.94
 21
-380.0
 31
0.0
 70
32
 71
5
  1
<>
100
AcDbAlignedDimension
 13
0.0
 23
0.0
 33
0.0
 14
2297.88
 24
0.0
 34
0.0
 50
0.0
100
AcDbRotatedDimension
1001
ACAD
1000
DSTYLE
1002
{
1070
140
1040
60.0
1070
41
1040
40.0
1070
44
1040
40.0
1070
42
1040
20.0
1070
147
1040
20.0
1002
}
  0
DIMENSION
  5
90
330
17
100
AcDbEntity
  8
A-DIMS
100
AcDbDimension
280
0
  2
*D5
  3
ARCH
 10
-240.0
 20
0.0
 30
0.0
 11
-240.0
 21
1200.0
 31
0.0
 70
32
 71
5
  1
<>
100
AcDbAlignedDimension
 13
0.0
 23
0.0
 33
0.0
 14
0.0
 24
2400.0
 34
0.0
 50
90.0
100
AcDbRotatedDimension
1001
ACAD
1000
DSTYLE
1002
{
1070
140
1040
60.0
1070
41
1040
40.0
1070
44
1040
40.0
1070
42
1040
20.0
1070
147
1040
20.0
1002
}
  0
LWPOLYLINE
  5
A0
330
17
100
AcDbEntity
  8
A-FIXT
370
25
100
AcDbPolyline
 90
4
 70
1
 10
1431.07
 20
0.0
 10
2271.0699999999997
 20
0.0
 10
2271.0699999999997
 20
1950.0
 10
1431.07
 20
1950.0
  0
TEXT
  5
A1
330
17
100
AcDbEntity
  8
A-TEXT
420
1184274
100
AcDbText
 10
1851.07
 20
975.0
 30
0.0
 40
62.0
  1
01 冰箱
  7
CN
 72
1
 11
1851.07
 21
975.0
 31
0.0
100
AcDbText
 73
2
  0
LWPOLYLINE
  5
A2
330
17
100
AcDbEntity
  8
A-FIXT
370
25
100
AcDbPolyline
 90
4
 70
1
 10
763.06
 20
550.0
 10
1358.06
 20
550.0
 10
1358.06
 20
1145.0
 10
763.06
 20
1145.0
  0
TEXT
  5
A3
330
17
100
AcDbEntity
  8
A-TEXT
420
1184274
100
AcDbText
 10
1060.56
 20
847.5
 30
0.0
 40
62.0
  1
02 烤箱
  7
CN
 72
1
 11
1060.56
 21
847.5
 31
0.0
100
AcDbText
 73
2
  0
LWPOLYLINE
  5
A4
330
17
100
AcDbEntity
  8
A-FIXT
370
25
100
AcDbPolyline
 90
4
 70
1
 10
813.06
 20
620.0
 10
1308.06
 20
620.0
 10
1308.06
 20
1015.0
 10
813.06
 20
1015.0
  0
LINE
  5
A5
330
17
100
AcDbEntity
  8
A-FIXT
100
AcDbLine
 10
813.06
 20
1055.0
 30
0.0
 11
1308.06
 21
1055.0
 31
0.0
  0
LWPOLYLINE
  5
A6
330
17
100
AcDbEntity
  8
A-FIXT
370
25
100
AcDbPolyline
 90
4
 70
1
 10
763.06
 20
1250.0
 10
1358.06
 20
1250.0
 10
1358.06
 20
1845.0
 10
763.06
 20
1845.0
  0
TEXT
  5
A7
330
17
100
AcDbEntity
  8
A-TEXT
420
1184274
100
AcDbText
 10
1060.56
 20
1547.5
 30
0.0
 40
62.0
  1
03 蒸箱
  7
CN
 72
1
 11
1060.56
 21
1547.5
 31
0.0
100
AcDbText
 73
2
  0
LWPOLYLINE
  5
A8
330
17
100
AcDbEntity
  8
A-FIXT
370
25
100
AcDbPolyline
 90
4
 70
1
 10
813.06
 20
1320.0
 10
1308.06
 20
1320.0
 10
1308.06
 20
1715.0
 10
813.06
 20
1715.0
  0
LINE
  5
A9
330
17
100
AcDbEntity
  8
A-FIXT
100
AcDbLine
 10
813.06
 20
1755.0
 30
0.0
 11
1308.06
 21
1755.0
 31
0.0
  0
LWPOLYLINE
  5
AA
330
17
100
AcDbEntity
  8
A-FIXT
370
25
100
AcDbPolyline
 90
4
 70
1
 10
59.43000000000001
 20
0.0
 10
657.4300000000001
 20
0.0
 10
657.4300000000001
 20
845.0
 10
59.43000000000001
 20
845.0
  0
TEXT
  5
AB
330
17
100
AcDbEntity
  8
A-TEXT
420
1184274
100
AcDbText
 10
358.43
 20
422.5
 30
0.0
 40
62.0
  1
04 洗衣机
  7
CN
 72
1
 11
358.43
 21
422.5
 31
0.0
100
AcDbText
 73
2
  0
CIRCLE
  5
AC
330
17
100
AcDbEntity
  8
A-FIXT
100
AcDbCircle
 10
358.43
 20
363.35
 30
0.0
 40
179.4
  0
LWPOLYLINE
  5
AD
330
17
100
AcDbEntity
  8
A-FIXT
370
25
100
AcDbPolyline
 90
4
 70
1
 10
59.43000000000001
 20
875.0
 10
657.4300000000001
 20
875.0
 10
657.4300000000001
 20
1720.0
 10
59.43000000000001
 20
1720.0
  0
TEXT
  5
AE
330
17
100
AcDbEntity
  8
A-TEXT
420
1184274
100
AcDbText
 10
358.43
 20
1297.5
 30
0.0
 40
62.0
  1
05 干衣机
  7
CN
 72
1
 11
358.43
 21
1297.5
 31
0.0
100
AcDbText
 73
2
  0
CIRCLE
  5
AF
330
17
100
AcDbEntity
  8
A-FIXT
100
AcDbCircle
 10
358.43
 20
1238.35
 30
0.0
 40
179.4
  0
TEXT
  5
B0
330
17
100
AcDbEntity
  8
A-TEXT
420
1184274
100
AcDbText
 10
0.0
 20
-1200.0
 30
0.0
 40
85.0
  1
02  平面展开 / 北端在左 · 柜前为过道
  7
CN
 11
0.0
 21
-1200.0
 31
0.0
100
AcDbText
  0
LWPOLYLINE
  5
B1
330
17
100
AcDbEntity
  8
A-FURN
370
35
100
AcDbPolyline
 90
4
 70
1
 10
0.0
 20
-1900.0
 10
893.62
 20
-1900.0
 10
893.62
 20
-1281.3400000000001
 10
0.0
 20
-1281.3400000000001
  0
TEXT
  5
B2
330
17
100
AcDbEntity
  8
A-TEXT
420
1184274
100
AcDbText
 10
446.81
 20
-1590.67
 30
0.0
 40
65.0
  1
冰箱区
  7
CN
 72
1
 11
446.81
 21
-1590.67
 31
0.0
100
AcDbText
 73
2
  0
DIMENSION
  5
B3
330
17
100
AcDbEntity
  8
A-DIMS
100
AcDbDimension
280
0
  2
*D6
  3
ARCH
 10
0.0
 20
-2050.0
 30
0.0
 11
446.81
 21
-2050.0
 31
0.0
 70
32
 71
5
  1
<>
100
AcDbAlignedDimension
 13
0.0
 23
-1900.0
 33
0.0
 14
893.62
 24
-1900.0
 34
0.0
 50
0.0
100
AcDbRotatedDimension
1001
ACAD
1000
DSTYLE
1002
{
1070
140
1040
60.0
1070
41
1040
40.0
1070
44
1040
40.0
1070
42
1040
20.0
1070
147
1040
20.0
1002
}
  0
LWPOLYLINE
  5
C3
330
17
100
AcDbEntity
  8
A-FURN
370
35
100
AcDbPolyline
 90
4
 70
1
 10
893.62
 20
-1900.0
 10
1581.02
 20
-1900.0
 10
1581.02
 20
-1281.3400000000001
 10
893.62
 20
-1281.3400000000001
  0
TEXT
  5
C4
330
17
100
AcDbEntity
  8
A-TEXT
420
1184274
100
AcDbText
 10
1237.32
 20
-1590.67
 30
0.0
 40
65.0
  1
蒸烤区
  7
CN
 72
1
 11
1237.32
 21
-1590.67
 31
0.0
100
AcDbText
 73
2
  0
DIMENSION
  5
C5
330
17
100
AcDbEntity
  8
A-DIMS
100
AcDbDimension
280
0
  2
*D7
  3
ARCH
 10
893.62
 20
-2050.0
 30
0.0
 11
1237.32
 21
-2050.0
 31
0.0
 70
32
 71
5
  1
<>
100
AcDbAlignedDimension
 13
893.62
 23
-1900.0
 33
0.0
 14
1581.02
 24
-1900.0
 34
0.0
 50
0.0
100
AcDbRotatedDimension
1001
ACAD
1000
DSTYLE
1002
{
1070
140
1040
60.0
1070
41
1040
40.0
1070
44
1040
40.0
1070
42
1040
20.0
1070
147
1040
20.0
1002
}
  0
LWPOLYLINE
  5
D5
330
17
100
AcDbEntity
  8
A-FURN
370
35
100
AcDbPolyline
 90
4
 70
1
 10
1581.02
 20
-1900.0
 10
2297.88
 20
-1900.0
 10
2297.88
 20
-1281.3400000000001
 10
1581.02
 20
-1281.3400000000001
  0
TEXT
  5
D6
330
17
100
AcDbEntity
  8
A-TEXT
420
1184274
100
AcDbText
 10
1939.45
 20
-1590.67
 30
0.0
 40
65.0
  1
洗烘区
  7
CN
 72
1
 11
1939.45
 21
-1590.67
 31
0.0
100
AcDbText
 73
2
  0
DIMENSION
  5
D7
330
17
100
AcDbEntity
  8
A-DIMS
100
AcDbDimension
280
0
  2
*D8
  3
ARCH
 10
1581.02
 20
-2050.0
 30
0.0
 11
1939.45
 21
-2050.0
 31
0.0
 70
32
 71
5
  1
<>
100
AcDbAlignedDimension
 13
1581.02
 23
-1900.0
 33
0.0
 14
2297.88
 24
-1900.0
 34
0.0
 50
0.0
100
AcDbRotatedDimension
1001
ACAD
1000
DSTYLE
1002
{
1070
140
1040
60.0
1070
41
1040
40.0
1070
44
1040
40.0
1070
42
1040
20.0
1070
147
1040
20.0
1002
}
  0
DIMENSION
  5
E7
330
17
100
AcDbEntity
  8
A-DIMS
100
AcDbDimension
280
0
  2
*D9
  3
ARCH
 10
2537.88
 20
-1900.0
 30
0.0
 11
2537.88
 21
-1590.67
 31
0.0
 70
32
 71
5
  1
<>
100
AcDbAlignedDimension
 13
2297.88
 23
-1900.0
 33
0.0
 14
2297.88
 24
-1281.3400000000001
 34
0.0
 50
90.0
100
AcDbRotatedDimension
1001
ACAD
1000
DSTYLE
1002
{
1070
140
1040
60.0
1070
41
1040
40.0
1070
44
1040
40.0
1070
42
1040
20.0
1070
147
1040
20.0
1002
}
  0
TEXT
  5
F7
330
17
100
AcDbEntity
  8
A-TEXT
420
1184274
100
AcDbText
 10
0.0
 20
-2260.0
 30
0.0
 40
65.0
  1
开门方向、走管槽及散热净空待SKU确认
  7
CN
 11
0.0
 21
-2260.0
 31
0.0
100
AcDbText
  0
TEXT
  5
F8
330
17
100
AcDbEntity
  8
A-TEXT
420
1184274
100
AcDbText
 10
3450.0
 20
3000.0
 30
0.0
 40
90.0
  1
03  柜体侧剖 / 外包络
  7
CN
 11
3450.0
 21
3000.0
 31
0.0
100
AcDbText
  0
LWPOLYLINE
  5
F9
330
17
100
AcDbEntity
  8
A-FURN
370
35
100
AcDbPolyline
 90
4
 70
1
 10
3550.0
 20
0.0
 10
4168.66
 20
0.0
 10
4168.66
 20
2400.0
 10
3550.0
 20
2400.0
  0
LINE
  5
FA
330
17
100
AcDbEntity
  8
A-CEIL
  6
DASHED
100
AcDbLine
 10
3450.0
 20
2600.0
 30
0.0
 11
4268.66
 21
2600.0
 31
0.0
  0
DIMENSION
  5
FB
330
17
100
AcDbEntity
  8
A-DIMS
100
AcDbDimension
280
0
  2
*D10
  3
ARCH
 10
3550.0
 20
-200.0
 30
0.0
 11
3859.33
 21
-200.0
 31
0.0
 70
32
 71
5
  1
<>
100
AcDbAlignedDimension
 13
3550.0
 23
0.0
 33
0.0
 14
4168.66
 24
0.0
 34
0.0
 50
0.0
100
AcDbRotatedDimension
1001
ACAD
1000
DSTYLE
1002
{
1070
140
1040
60.0
1070
41
1040
40.0
1070
44
1040
40.0
1070
42
1040
20.0
1070
147
1040
20.0
1002
}
  0
DIMENSION
  5
10B
330
17
100
AcDbEntity
  8
A-DIMS
100
AcDbDimension
280
0
  2
*D11
  3
ARCH
 10
4388.66
 20
0.0
 30
0.0
 11
4388.66
 21
1200.0
 31
0.0
 70
32
 71
5
  1
<>
100
AcDbAlignedDimension
 13
4168.66
 23
0.0
 33
0.0
 14
4168.66
 24
2400.0
 34
0.0
 50
90.0
100
AcDbRotatedDimension
1001
ACAD
1000
DSTYLE
1002
{
1070
140
1040
60.0
1070
41
1040
40.0
1070
44
1040
40.0
1070
42
1040
20.0
1070
147
1040
20.0
1002
}
  0
DIMENSION
  5
11B
330
17
100
AcDbEntity
  8
A-DIMS
100
AcDbDimension
280
0
  2
*D12
  3
ARCH
 10
4648.66
 20
2400.0
 30
0.0
 11
4558.66
 21
2500.0
 31
0.0
 70
32
 71
5
  1
<>
100
AcDbAlignedDimension
 13
4168.66
 23
2400.0
 33
0.0
 14
4168.66
 24
2600.0
 34
0.0
 50
90.0
100
AcDbRotatedDimension
1001
ACAD
1000
DSTYLE
1002
{
1070
140
1040
60.0
1070
41
1040
40.0
1070
44
1040
40.0
1070
42
1040
20.0
1070
147
1040
20.0
1002
}
  0
TEXT
  5
12A
330
17
100
AcDbEntity
  8
A-TEXT
420
1184274
100
AcDbText
 10
3590.0
 20
1750.0
 30
0.0
 40
58.0
  1
H2400暂定
  7
CN
 11
3590.0
 21
1750.0
 31
0.0
100
AcDbText
  0
TEXT
  5
12B
330
17
100
AcDbEntity
  8
A-TEXT
420
1184274
100
AcDbText
 10
3590.0
 20
1580.0
 30
0.0
 40
58.0
  1
设备净深/背板
  7
CN
 11
3590.0
 21
1580.0
 31
0.0
100
AcDbText
  0
TEXT
  5
12C
330
17
100
AcDbEntity
  8
A-TEXT
420
1184274
100
AcDbText
 10
3590.0
 20
1410.0
 30
0.0
 40
58.0
  1
散热与检修空间
  7
CN
 11
3590.0
 21
1410.0
 31
0.0
100
AcDbText
  0
TEXT
  5
12D
330
17
100
AcDbEntity
  8
A-TEXT
420
1184274
100
AcDbText
 10
3590.0
 20
1240.0
 30
0.0
 40
58.0
  1
待厂家安装图确认
  7
CN
 11
3590.0
 21
1240.0
 31
0.0
100
AcDbText
  0
TEXT
  5
12E
330
17
100
AcDbEntity
  8
A-TEXT
420
1184274
100
AcDbText
 10
3550.0
 20
-430.0
 30
0.0
 40
65.0
  1
FFL ±0.000
  7
CN
 11
3550.0
 21
-430.0
 31
0.0
100
AcDbText
  0
TEXT
  5
12F
330
17
100
AcDbEntity
  8
A-TEXT
420
1184274
100
AcDbText
 10
5400.0
 20
2980.0
 30
0.0
 40
90.0
  1
设备参考包络 / 非订货及开孔尺寸
  7
CN
 11
5400.0
 21
2980.0
 31
0.0
100
AcDbText
  0
TEXT
  5
130
330
17
100
AcDbEntity
  8
A-TEXT
420
1184274
100
AcDbText
 10
5400.0
 20
2730.0
 30
0.0
 40
70.0
  1
编号    宽 × 高    /  底标高（mm）
  7
CN
 11
5400.0
 21
2730.0
 31
0.0
100
AcDbText
  0
TEXT
  5
131
330
17
100
AcDbEntity
  8
A-TEXT
420
1184274
100
AcDbText
 10
5400.0
 20
2480.0
 30
0.0
 40
68.0
  1
01 冰箱    840 × 1950  /  +0
  7
CN
 11
5400.0
 21
2480.0
 31
0.0
100
AcDbText
  0
TEXT
  5
132
330
17
100
AcDbEntity
  8
A-TEXT
420
1184274
100
AcDbText
 10
5400.0
 20
2290.0
 30
0.0
 40
68.0
  1
02 烤箱    595 × 595  /  +550
  7
CN
 11
5400.0
 21
2290.0
 31
0.0
100
AcDbText
  0
TEXT
  5
133
330
17
100
AcDbEntity
  8
A-TEXT
420
1184274
100
AcDbText
 10
5400.0
 20
2100.0
 30
0.0
 40
68.0
  1
03 蒸箱    595 × 595  /  +1250
  7
CN
 11
5400.0
 21
2100.0
 31
0.0
100
AcDbText
  0
TEXT
  5
134
330
17
100
AcDbEntity
  8
A-TEXT
420
1184274
100
AcDbText
 10
5400.0
 20
1910.0
 30
0.0
 40
68.0
  1
04 洗衣机    598 × 845  /  +0
  7
CN
 11
5400.0
 21
1910.0
 31
0.0
100
AcDbText
  0
TEXT
  5
135
330
17
100
AcDbEntity
  8
A-TEXT
420
1184274
100
AcDbText
 10
5400.0
 20
1720.0
 30
0.0
 40
68.0
  1
05 干衣机    598 × 845  /  +875
  7
CN
 11
5400.0
 21
1720.0
 31
0.0
100
AcDbText
  0
TEXT
  5
136
330
17
100
AcDbEntity
  8
A-TEXT
420
1184274
100
AcDbText
 10
5400.0
 20
1280.0
 30
0.0
 40
85.0
  1
协调事项 / HOLD POINTS
  7
CN
 11
5400.0
 21
1280.0
 31
0.0
100
AcDbText
  0
TEXT
  5
137
330
17
100
AcDbEntity
  8
A-TEXT
420
1184274
100
AcDbText
 10
5400.0
 20
1050.0
 30
0.0
 40
65.0
  1
01 总宽2297.88、深618.66来自A7标定；
  7
CN
 11
5400.0
 21
1050.0
 31
0.0
100
AcDbText
  0
TEXT
  5
138
330
17
100
AcDbEntity
  8
A-TEXT
420
1184274
100
AcDbText
 10
5400.0
 20
875.0
 30
0.0
 40
65.0
  1
     图面取整标注，生产前逐格现场复尺。
  7
CN
 11
5400.0
 21
875.0
 31
0.0
100
AcDbText
  0
TEXT
  5
139
330
17
100
AcDbEntity
  8
A-TEXT
420
1184274
100
AcDbText
 10
5400.0
 20
700.0
 30
0.0
 40
65.0
  1
02 三列顺序已确认：冰箱 / 蒸烤 / 洗烘。
  7
CN
 11
5400.0
 21
700.0
 31
0.0
100
AcDbText
  0
TEXT
  5
13A
330
17
100
AcDbEntity
  8
A-TEXT
420
1184274
100
AcDbText
 10
5400.0
 20
525.0
 30
0.0
 40
65.0
  1
03 柜高2400和设备高程为设计假设。
  7
CN
 11
5400.0
 21
525.0
 31
0.0
100
AcDbText
  0
TEXT
  5
13B
330
17
100
AcDbEntity
  8
A-TEXT
420
1184274
100
AcDbText
 10
5400.0
 20
350.0
 30
0.0
 40
65.0
  1
04 柜板厚、开孔、铰链与门板开启待确认。
  7
CN
 11
5400.0
 21
350.0
 31
0.0
100
AcDbText
  0
TEXT
  5
13C
330
17
100
AcDbEntity
  8
A-TEXT
420
1184274
100
AcDbText
 10
5400.0
 20
175.0
 30
0.0
 40
65.0
  1
05 洗烘叠放连接件、承重、防振待厂家确认。
  7
CN
 11
5400.0
 21
175.0
 31
0.0
100
AcDbText
  0
TEXT
  5
13D
330
17
100
AcDbEntity
  8
A-TEXT
420
1184274
100
AcDbText
 10
5400.0
 20
0.0
 30
0.0
 40
65.0
  1
06 所有设备SKU、散热及检修净空待确认。
  7
CN
 11
5400.0
 21
0.0
 31
0.0
100
AcDbText
  0
TEXT
  5
13E
330
17
100
AcDbEntity
  8
A-TEXT
420
1184274
100
AcDbText
 10
5400.0
 20
-175.0
 30
0.0
 40
65.0
  1
07 插座、水点位置参见A302/A303；需结合
  7
CN
 11
5400.0
 21
-175.0
 31
0.0
100
AcDbText
  0
TEXT
  5
13F
330
17
100
AcDbEntity
  8
A-TEXT
420
1184274
100
AcDbText
 10
5400.0
 20
-350.0
 30
0.0
 40
65.0
  1
     设备安装图协调，禁止设于不可检修处。
  7
CN
 11
5400.0
 21
-350.0
 31
0.0
100
AcDbText
  0
TEXT
  5
140
330
17
100
AcDbEntity
  8
A-TEXT
420
1184274
100
AcDbText
 10
5400.0
 20
-525.0
 30
0.0
 40
65.0
  1
08 本图为设计协调版，不得用于直接下单。
  7
CN
 11
5400.0
 21
-525.0
 31
0.0
100
AcDbText
  0
TEXT
  5
141
330
17
100
AcDbEntity
  8
A-TEXT
420
1184274
100
AcDbText
 10
5400.0
 20
-950.0
 30
0.0
 40
60.0
  1
尺寸来源：approved_v14.json / service_wall
  7
CN
 11
5400.0
 21
-950.0
 31
0.0
100
AcDbText
  0
ENDSEC
  0
SECTION
  2
OBJECTS
  0
DICTIONARY
  5
A
330
0
100
AcDbDictionary
281
1
  3
ACAD_COLOR
350
B
  3
ACAD_GROUP
350
C
  3
ACAD_LAYOUT
350
D
  3
ACAD_MATERIAL
350
E
  3
ACAD_MLEADERSTYLE
350
F
  3
ACAD_MLINESTYLE
350
10
  3
ACAD_PLOTSETTINGS
350
11
  3
ACAD_PLOTSTYLENAME
350
12
  3
ACAD_SCALELIST
350
14
  3
ACAD_TABLESTYLE
350
15
  3
ACAD_VISUALSTYLE
350
16
  3
EZDXF_META
350
2D
  0
DICTIONARY
  5
B
330
A
100
AcDbDictionary
281
1
  0
DICTIONARY
  5
C
330
A
100
AcDbDictionary
281
1
  0
DICTIONARY
  5
D
330
A
100
AcDbDictionary
281
1
  3
Model
350
1A
  3
Layout1
350
1E
  3
A403
350
148
  0
DICTIONARY
  5
E
330
A
100
AcDbDictionary
281
1
  3
ByBlock
350
1F
  3
ByLayer
350
20
  3
Global
350
21
  0
DICTIONARY
  5
F
330
A
100
AcDbDictionary
281
1
  3
Standard
350
2C
  0
DICTIONARY
  5
10
330
A
100
AcDbDictionary
281
1
  3
Standard
350
22
  0
DICTIONARY
  5
11
330
A
100
AcDbDictionary
281
1
  0
ACDBDICTIONARYWDFLT
  5
12
330
A
100
AcDbDictionary
281
1
  3
Normal
350
13
100
AcDbDictionaryWithDefault
340
13
  0
ACDBPLACEHOLDER
  5
13
330
12
  0
DICTIONARY
  5
14
330
A
100
AcDbDictionary
281
1
  0
DICTIONARY
  5
15
330
A
100
AcDbDictionary
281
1
  0
DICTIONARY
  5
16
330
A
100
AcDbDictionary
281
1
  0
LAYOUT
  5
1A
330
D
100
AcDbPlotSettings
  1

  4
A3
  6

 40
7.5
 41
20.0
 42
7.5
 43
20.0
 44
420.0
 45
297.0
 46
0.0
 47
0.0
 48
0.0
 49
0.0
140
0.0
141
0.0
142
1.0
143
1.0
 70
1024
 72
1
 73
0
 74
5
  7

 75
16
 76
0
 77
2
 78
300
147
1.0
148
0.0
149
0.0
100
AcDbLayout
  1
Model
 70
1
 71
0
 10
0.0
 20
0.0
 11
420.0
 21
297.0
 12
0.0
 22
0.0
 32
0.0
 14
1e+20
 24
1e+20
 34
1e+20
 15
-1e+20
 25
-1e+20
 35
-1e+20
146
0.0
 13
0.0
 23
0.0
 33
0.0
 16
1.0
 26
0.0
 36
0.0
 17
0.0
 27
1.0
 37
0.0
 76
1
330
17
  0
LAYOUT
  5
1E
330
D
100
AcDbPlotSettings
  1

  4
A3
  6

 40
7.5
 41
20.0
 42
7.5
 43
20.0
 44
420.0
 45
297.0
 46
0.0
 47
0.0
 48
0.0
 49
0.0
140
0.0
141
0.0
142
1.0
143
1.0
 70
0
 72
1
 73
0
 74
5
  7

 75
16
 76
0
 77
2
 78
300
147
1.0
148
0.0
149
0.0
100
AcDbLayout
  1
Layout1
 70
1
 71
1
 10
0.0
 20
0.0
 11
420.0
 21
297.0
 12
0.0
 22
0.0
 32
0.0
 14
1e+20
 24
1e+20
 34
1e+20
 15
-1e+20
 25
-1e+20
 35
-1e+20
146
0.0
 13
0.0
 23
0.0
 33
0.0
 16
1.0
 26
0.0
 36
0.0
 17
0.0
 27
1.0
 37
0.0
 76
1
330
1B
  0
MATERIAL
  5
1F
102
{ACAD_REACTORS
330
E
102
}
330
E
100
AcDbMaterial
  1
ByBlock
  2

 70
0
 40
1.0
 71
1
 41
1.0
 91
-1023410177
 42
1.0
 72
1
  3

 73
1
 74
1
 75
1
 44
0.5
 73
0
 45
1.0
 46
1.0
 77
1
  4

 78
1
 79
1
170
1
 48
1.0
171
1
  6

172
1
173
1
174
1
140
1.0
141
1.0
175
1
  7

176
1
177
1
178
1
143
1.0
179
1
  8

270
1
271
1
272
1
145
1.0
146
1.0
273
1
  9

274
1
275
1
276
1
 42
1.0
 72
1
  3

 73
1
 74
1
 75
1
 94
63
  0
MATERIAL
  5
20
102
{ACAD_REACTORS
330
E
102
}
330
E
100
AcDbMaterial
  1
ByLayer
  2

 70
0
 40
1.0
 71
1
 41
1.0
 91
-1023410177
 42
1.0
 72
1
  3

 73
1
 74
1
 75
1
 44
0.5
 73
0
 45
1.0
 46
1.0
 77
1
  4

 78
1
 79
1
170
1
 48
1.0
171
1
  6

172
1
173
1
174
1
140
1.0
141
1.0
175
1
  7

176
1
177
1
178
1
143
1.0
179
1
  8

270
1
271
1
272
1
145
1.0
146
1.0
273
1
  9

274
1
275
1
276
1
 42
1.0
 72
1
  3

 73
1
 74
1
 75
1
 94
63
  0
MATERIAL
  5
21
102
{ACAD_REACTORS
330
E
102
}
330
E
100
AcDbMaterial
  1
Global
  2

 70
0
 40
1.0
 71
1
 41
1.0
 91
-1023410177
 42
1.0
 72
1
  3

 73
1
 74
1
 75
1
 44
0.5
 73
0
 45
1.0
 46
1.0
 77
1
  4

 78
1
 79
1
170
1
 48
1.0
171
1
  6

172
1
173
1
174
1
140
1.0
141
1.0
175
1
  7

176
1
177
1
178
1
143
1.0
179
1
  8

270
1
271
1
272
1
145
1.0
146
1.0
273
1
  9

274
1
275
1
276
1
 42
1.0
 72
1
  3

 73
1
 74
1
 75
1
 94
63
  0
MLINESTYLE
  5
22
102
{ACAD_REACTORS
330
10
102
}
330
10
100
AcDbMlineStyle
  2
Standard
 70
0
  3

 62
256
 51
90.0
 52
90.0
 71
2
 49
0.5
 62
256
  6
BYLAYER
 49
-0.5
 62
256
  6
BYLAYER
  0
MLEADERSTYLE
  5
2C
102
{ACAD_REACTORS
330
F
102
}
330
F
100
AcDbMLeaderStyle
179
2
170
2
171
1
172
0
 90
2
 40
0.0
 41
0.0
173
1
 91
-1056964608
 92
-2
290
1
 42
2.0
291
1
 43
8.0
  3
Standard
 44
4.0
300

342
29
174
1
175
1
176
0
178
1
 93
-1056964608
 45
4.0
292
0
297
0
 46
4.0
 94
-1056964608
 47
1.0
 49
1.0
140
1.0
294
1
141
0.0
177
0
142
1.0
295
0
296
0
143
3.75
271
0
272
9
273
9
  0
DICTIONARY
  5
2D
330
A
100
AcDbDictionary
280
1
281
1
  3
CREATED_BY_EZDXF
350
2E
  3
WRITTEN_BY_EZDXF
350
144
  0
DICTIONARYVAR
  5
2E
330
2D
100
DictionaryVariables
280
0
  1
1.4.4 @ 2026-09-18T08:02:38.175236+00:00
  0
DICTIONARYVAR
  5
144
330
2D
100
DictionaryVariables
280
0
  1
1.4.4 @ 2026-09-18T08:02:38.199320+00:00
  0
LAYOUT
  5
148
330
D
100
AcDbPlotSettings
  1

  2
DWG to PDF.pc3
  4
ezdxf_(594.00_x_420.00_MM)
  6

 40
0.0
 41
0.0
 42
0.0
 43
0.0
 44
594.0
 45
420.0
 46
0.0
 47
0.0
 48
0.0
 49
0.0
140
0.0
141
0.0
142
1.0
143
1.0
 70
672
 72
1
 73
0
 74
5
  7

 75
16
 76
0
 77
2
 78
300
147
1.0
148
0.0
149
0.0
100
AcDbLayout
  1
A403
 70
1
 71
3
 10
-0.0
 20
-0.0
 11
594.0
 21
420.0
 12
0.0
 22
0.0
 32
0.0
 14
1e+20
 24
1e+20
 34
1e+20
 15
-1e+20
 25
-1e+20
 35
-1e+20
146
0.0
 13
0.0
 23
0.0
 33
0.0
 16
1.0
 26
0.0
 36
0.0
 17
0.0
 27
1.0
 37
0.0
 76
1
330
145
331
149
  0
ENDSEC
  0
EOF
