  0
SECTION
  2
HEADER
  9
$ACADVER
  1
AC1032
  9
$ACADMAINTVER
 90
4
  9
$DWGCODEPAGE
  3
ANSI_1252
  9
$LASTSAVEDBY
  1
ezdxf
  9
$REQUIREDVERSIONS
160
0
  9
$INSBASE
 10
0.0
 20
0.0
 30
0.0
  9
$EXTMIN
 10
1e+20
 20
1e+20
 30
1e+20
  9
$EXTMAX
 10
-1e+20
 20
-1e+20
 30
-1e+20
  9
$LIMMIN
 10
0.0
 20
0.0
  9
$LIMMAX
 10
420.0
 20
297.0
  9
$ORTHOMODE
 70
0
  9
$REGENMODE
 70
1
  9
$FILLMODE
 70
1
  9
$QTEXTMODE
 70
0
  9
$MIRRTEXT
 70
1
  9
$LTSCALE
 40
200.0
  9
$ATTMODE
 70
1
  9
$TEXTSIZE
 40
2.5
  9
$TRACEWID
 40
1.0
  9
$TEXTSTYLE
  7
Standard
  9
$CLAYER
  8
0
  9
$CELTYPE
  6
ByLayer
  9
$CECOLOR
 62
256
  9
$CELTSCALE
 40
1.0
  9
$DISPSILH
 70
0
  9
$DIMSCALE
 40
1.0
  9
$DIMASZ
 40
2.5
  9
$DIMEXO
 40
0.625
  9
$DIMDLI
 40
3.75
  9
$DIMRND
 40
0.0
  9
$DIMDLE
 40
0.0
  9
$DIMEXE
 40
1.25
  9
$DIMTP
 40
0.0
  9
$DIMTM
 40
0.0
  9
$DIMTXT
 40
2.5
  9
$DIMCEN
 40
2.5
  9
$DIMTSZ
 40
0.0
  9
$DIMTOL
 70
0
  9
$DIMLIM
 70
0
  9
$DIMTIH
 70
0
  9
$DIMTOH
 70
0
  9
$DIMSE1
 70
0
  9
$DIMSE2
 70
0
  9
$DIMTAD
 70
1
  9
$DIMZIN
 70
8
  9
$DIMBLK
  1

  9
$DIMASO
 70
1
  9
$DIMSHO
 70
1
  9
$DIMPOST
  1

  9
$DIMAPOST
  1

  9
$DIMALT
 70
0
  9
$DIMALTD
 70
3
  9
$DIMALTF
 40
0.03937007874
  9
$DIMLFAC
 40
1.0
  9
$DIMTOFL
 70
1
  9
$DIMTVP
 40
0.0
  9
$DIMTIX
 70
0
  9
$DIMSOXD
 70
0
  9
$DIMSAH
 70
0
  9
$DIMBLK1
  1

  9
$DIMBLK2
  1

  9
$DIMSTYLE
  2
ISO-25
  9
$DIMCLRD
 70
0
  9
$DIMCLRE
 70
0
  9
$DIMCLRT
 70
0
  9
$DIMTFAC
 40
1.0
  9
$DIMGAP
 40
0.625
  9
$DIMJUST
 70
0
  9
$DIMSD1
 70
0
  9
$DIMSD2
 70
0
  9
$DIMTOLJ
 70
0
  9
$DIMTZIN
 70
8
  9
$DIMALTZ
 70
0
  9
$DIMALTTZ
 70
0
  9
$DIMUPT
 70
0
  9
$DIMDEC
 70
2
  9
$DIMTDEC
 70
2
  9
$DIMALTU
 70
2
  9
$DIMALTTD
 70
3
  9
$DIMTXSTY
  7
Standard
  9
$DIMAUNIT
 70
0
  9
$DIMADEC
 70
0
  9
$DIMALTRND
 40
0.0
  9
$DIMAZIN
 70
0
  9
$DIMDSEP
 70
44
  9
$DIMATFIT
 70
3
  9
$DIMFRAC
 70
0
  9
$DIMLDRBLK
  1

  9
$DIMLUNIT
 70
2
  9
$DIMLWD
 70
-2
  9
$DIMLWE
 70
-2
  9
$DIMTMOVE
 70
0
  9
$DIMFXL
 40
1.0
  9
$DIMFXLON
 70
0
  9
$DIMJOGANG
 40
0.785398163397
  9
$DIMTFILL
 70
0
  9
$DIMTFILLCLR
 70
0
  9
$DIMARCSYM
 70
0
  9
$DIMLTYPE
  6

  9
$DIMLTEX1
  6

  9
$DIMLTEX2
  6

  9
$DIMTXTDIRECTION
 70
0
  9
$LUNITS
 70
2
  9
$LUPREC
 70
4
  9
$SKETCHINC
 40
1.0
  9
$FILLETRAD
 40
10.0
  9
$AUNITS
 70
0
  9
$AUPREC
 70
2
  9
$MENU
  1
.
  9
$ELEVATION
 40
0.0
  9
$PELEVATION
 40
0.0
  9
$THICKNESS
 40
0.0
  9
$LIMCHECK
 70
0
  9
$CHAMFERA
 40
0.0
  9
$CHAMFERB
 40
0.0
  9
$CHAMFERC
 40
0.0
  9
$CHAMFERD
 40
0.0
  9
$SKPOLY
 70
0
  9
$TDCREATE
 40
2461307.9362037037
  9
$TDUCREATE
 40
2458532.153996898
  9
$TDUPDATE
 40
2461307.9362037037
  9
$TDUUPDATE
 40
2458532.1544311
  9
$TDINDWG
 40
0.0
  9
$TDUSRTIMER
 40
0.0
  9
$USRTIMER
 70
1
  9
$ANGBASE
 50
0.0
  9
$ANGDIR
 70
0
  9
$PDMODE
 70
0
  9
$PDSIZE
 40
0.0
  9
$PLINEWID
 40
0.0
  9
$SPLFRAME
 70
0
  9
$SPLINETYPE
 70
6
  9
$SPLINESEGS
 70
8
  9
$HANDSEED
  5
154
  9
$SURFTAB1
 70
6
  9
$SURFTAB2
 70
6
  9
$SURFTYPE
 70
6
  9
$SURFU
 70
6
  9
$SURFV
 70
6
  9
$UCSBASE
  2

  9
$UCSNAME
  2

  9
$UCSORG
 10
0.0
 20
0.0
 30
0.0
  9
$UCSXDIR
 10
1.0
 20
0.0
 30
0.0
  9
$UCSYDIR
 10
0.0
 20
1.0
 30
0.0
  9
$UCSORTHOREF
  2

  9
$UCSORTHOVIEW
 70
0
  9
$UCSORGTOP
 10
0.0
 20
0.0
 30
0.0
  9
$UCSORGBOTTOM
 10
0.0
 20
0.0
 30
0.0
  9
$UCSORGLEFT
 10
0.0
 20
0.0
 30
0.0
  9
$UCSORGRIGHT
 10
0.0
 20
0.0
 30
0.0
  9
$UCSORGFRONT
 10
0.0
 20
0.0
 30
0.0
  9
$UCSORGBACK
 10
0.0
 20
0.0
 30
0.0
  9
$PUCSBASE
  2

  9
$PUCSNAME
  2

  9
$PUCSORG
 10
0.0
 20
0.0
 30
0.0
  9
$PUCSXDIR
 10
1.0
 20
0.0
 30
0.0
  9
$PUCSYDIR
 10
0.0
 20
1.0
 30
0.0
  9
$PUCSORTHOREF
  2

  9
$PUCSORTHOVIEW
 70
0
  9
$PUCSORGTOP
 10
0.0
 20
0.0
 30
0.0
  9
$PUCSORGBOTTOM
 10
0.0
 20
0.0
 30
0.0
  9
$PUCSORGLEFT
 10
0.0
 20
0.0
 30
0.0
  9
$PUCSORGRIGHT
 10
0.0
 20
0.0
 30
0.0
  9
$PUCSORGFRONT
 10
0.0
 20
0.0
 30
0.0
  9
$PUCSORGBACK
 10
0.0
 20
0.0
 30
0.0
  9
$USERI1
 70
0
  9
$USERI2
 70
0
  9
$USERI3
 70
0
  9
$USERI4
 70
0
  9
$USERI5
 70
0
  9
$USERR1
 40
0.0
  9
$USERR2
 40
0.0
  9
$USERR3
 40
0.0
  9
$USERR4
 40
0.0
  9
$USERR5
 40
0.0
  9
$WORLDVIEW
 70
1
  9
$SHADEDGE
 70
3
  9
$SHADEDIF
 70
70
  9
$TILEMODE
 70
1
  9
$MAXACTVP
 70
64
  9
$PINSBASE
 10
0.0
 20
0.0
 30
0.0
  9
$PLIMCHECK
 70
0
  9
$PEXTMIN
 10
1e+20
 20
1e+20
 30
1e+20
  9
$PEXTMAX
 10
-1e+20
 20
-1e+20
 30
-1e+20
  9
$PLIMMIN
 10
0.0
 20
0.0
  9
$PLIMMAX
 10
420.0
 20
297.0
  9
$UNITMODE
 70
0
  9
$VISRETAIN
 70
1
  9
$PLINEGEN
 70
0
  9
$PSLTSCALE
 70
1
  9
$TREEDEPTH
 70
3020
  9
$CMLSTYLE
  2
Standard
  9
$CMLJUST
 70
0
  9
$CMLSCALE
 40
20.0
  9
$PROXYGRAPHICS
 70
1
  9
$MEASUREMENT
 70
1
  9
$CELWEIGHT
370
-1
  9
$ENDCAPS
280
0
  9
$JOINSTYLE
280
0
  9
$LWDISPLAY
290
0
  9
$INSUNITS
 70
4
  9
$HYPERLINKBASE
  1

  9
$STYLESHEET
  1

  9
$XEDIT
290
1
  9
$CEPSNTYPE
380
0
  9
$PSTYLEMODE
290
1
  9
$FINGERPRINTGUID
  2
{E5072D4D-2C7D-4D54-8386-BF23D3679C2D}
  9
$VERSIONGUID
  2
{6C33929D-93DC-424B-B8B8-3927301E483B}
  9
$EXTNAMES
290
1
  9
$PSVPSCALE
 40
0.0
  9
$OLESTARTUP
290
0
  9
$SORTENTS
280
127
  9
$INDEXCTL
280
0
  9
$HIDETEXT
280
1
  9
$XCLIPFRAME
280
1
  9
$HALOGAP
280
0
  9
$OBSCOLOR
 70
257
  9
$OBSLTYPE
280
0
  9
$INTERSECTIONDISPLAY
280
0
  9
$INTERSECTIONCOLOR
 70
257
  9
$DIMASSOC
280
2
  9
$PROJECTNAME
  1

  9
$CAMERADISPLAY
290
0
  9
$LENSLENGTH
 40
50.0
  9
$CAMERAHEIGHT
 40
0.0
  9
$STEPSPERSEC
 40
24.0
  9
$STEPSIZE
 40
100.0
  9
$3DDWFPREC
 40
2.0
  9
$PSOLWIDTH
 40
0.005
  9
$PSOLHEIGHT
 40
0.08
  9
$LOFTANG1
 40
1.570796326795
  9
$LOFTANG2
 40
1.570796326795
  9
$LOFTMAG1
 40
0.0
  9
$LOFTMAG2
 40
0.0
  9
$LOFTPARAM
 70
7
  9
$LOFTNORMALS
280
1
  9
$LATITUDE
 40
37.795
  9
$LONGITUDE
 40
-122.394
  9
$NORTHDIRECTION
 40
0.0
  9
$TIMEZONE
 70
-8000
  9
$LIGHTGLYPHDISPLAY
280
1
  9
$TILEMODELIGHTSYNCH
280
1
  9
$CMATERIAL
347
20
  9
$SOLIDHIST
280
0
  9
$SHOWHIST
280
1
  9
$DWFFRAME
280
2
  9
$DGNFRAME
280
2
  9
$REALWORLDSCALE
290
1
  9
$INTERFERECOLOR
 62
256
  9
$CSHADOW
280
0
  9
$SHADOWPLANELOCATION
 40
0.0
  0
ENDSEC
  0
SECTION
  2
CLASSES
  0
CLASS
  1
ACDBDICTIONARYWDFLT
  2
AcDbDictionaryWithDefault
  3
ObjectDBX Classes
 90
0
 91
0
280
0
281
0
  0
CLASS
  1
SUN
  2
AcDbSun
  3
SCENEOE
 90
1153
 91
0
280
0
281
0
  0
CLASS
  1
VISUALSTYLE
  2
AcDbVisualStyle
  3
ObjectDBX Classes
 90
4095
 91
0
280
0
281
0
  0
CLASS
  1
MATERIAL
  2
AcDbMaterial
  3
ObjectDBX Classes
 90
1153
 91
0
280
0
281
0
  0
CLASS
  1
SCALE
  2
AcDbScale
  3
ObjectDBX Classes
 90
1153
 91
0
280
0
281
0
  0
CLASS
  1
TABLESTYLE
  2
AcDbTableStyle
  3
ObjectDBX Classes
 90
4095
 91
0
280
0
281
0
  0
CLASS
  1
MLEADERSTYLE
  2
AcDbMLeaderStyle
  3
ACDB_MLEADERSTYLE_CLASS
 90
4095
 91
0
280
0
281
0
  0
CLASS
  1
DICTIONARYVAR
  2
AcDbDictionaryVar
  3
ObjectDBX Classes
 90
0
 91
0
280
0
281
0
  0
CLASS
  1
CELLSTYLEMAP
  2
AcDbCellStyleMap
  3
ObjectDBX Classes
 90
1152
 91
0
280
0
281
0
  0
CLASS
  1
MENTALRAYRENDERSETTINGS
  2
AcDbMentalRayRenderSettings
  3
SCENEOE
 90
1024
 91
0
280
0
281
0
  0
CLASS
  1
ACDBDETAILVIEWSTYLE
  2
AcDbDetailViewStyle
  3
ObjectDBX Classes
 90
1025
 91
0
280
0
281
0
  0
CLASS
  1
ACDBSECTIONVIEWSTYLE
  2
AcDbSectionViewStyle
  3
ObjectDBX Classes
 90
1025
 91
0
280
0
281
0
  0
CLASS
  1
RASTERVARIABLES
  2
AcDbRasterVariables
  3
ISM
 90
0
 91
0
280
0
281
0
  0
CLASS
  1
LAYOUT
  2
AcDbLayout
  3
ObjectDBX Classes
 90
0
 91
0
280
0
281
0
  0
CLASS
  1
ACDBPLACEHOLDER
  2
AcDbPlaceHolder
  3
ObjectDBX Classes
 90
0
 91
0
280
0
281
0
  0
ENDSEC
  0
SECTION
  2
TABLES
  0
TABLE
  2
VPORT
  5
8
330
0
100
AcDbSymbolTable
 70
1
  0
VPORT
  5
23
330
8
100
AcDbSymbolTableRecord
100
AcDbViewportTableRecord
  2
*Active
 70
0
 10
0.0
 20
0.0
 11
1.0
 21
1.0
 12
0.0
 22
0.0
 13
0.0
 23
0.0
 14
0.5
 24
0.5
 15
0.5
 25
0.5
 16
0.0
 26
0.0
 36
1.0
 17
0.0
 27
0.0
 37
0.0
 40
1000.0
 41
1.34
 42
50.0
 43
0.0
 44
0.0
 50
0.0
 51
0.0
 71
0
 72
1000
 73
1
 74
3
 75
0
 76
0
 77
0
 78
0
281
0
 65
0
146
0.0
  0
ENDTAB
  0
TABLE
  2
LTYPE
  5
2
330
0
100
AcDbSymbolTable
 70
3
  0
LTYPE
  5
24
330
2
100
AcDbSymbolTableRecord
100
AcDbLinetypeTableRecord
  2
ByBlock
 70
0
  3

 72
65
 73
0
 40
0.0
  0
LTYPE
  5
25
330
2
100
AcDbSymbolTableRecord
100
AcDbLinetypeTableRecord
  2
ByLayer
 70
0
  3

 72
65
 73
0
 40
0.0
  0
LTYPE
  5
26
330
2
100
AcDbSymbolTableRecord
100
AcDbLinetypeTableRecord
  2
Continuous
 70
0
  3

 72
65
 73
0
 40
0.0
  0
ENDTAB
  0
TABLE
  2
LAYER
  5
1
330
0
100
AcDbSymbolTable
 70
12
  0
LAYER
  5
27
330
1
100
AcDbSymbolTableRecord
100
AcDbLayerTableRecord
  2
0
 70
0
 62
7
  6
Continuous
370
-3
390
13
347
21
  0
LAYER
  5
28
330
1
100
AcDbSymbolTableRecord
100
AcDbLayerTableRecord
  2
Defpoints
 70
0
 62
7
  6
Continuous
290
0
370
-3
390
13
347
21
  0
LAYER
  5
2F
330
1
100
AcDbSymbolTableRecord
100
AcDbLayerTableRecord
  2
A-WALL
 70
0
 62
7
  6
Continuous
370
-3
390
13
347
21
  0
LAYER
  5
30
330
1
100
AcDbSymbolTableRecord
100
AcDbLayerTableRecord
  2
A-DOOR
 70
0
 62
3
  6
Continuous
370
-3
390
13
347
21
  0
LAYER
  5
31
330
1
100
AcDbSymbolTableRecord
100
AcDbLayerTableRecord
  2
A-WINDOW
 70
0
 62
4
  6
Continuous
370
-3
390
13
347
21
  0
LAYER
  5
32
330
1
100
AcDbSymbolTableRecord
100
AcDbLayerTableRecord
  2
A-COLUMN
 70
0
 62
8
  6
Continuous
370
-3
390
13
347
21
  0
LAYER
  5
33
330
1
100
AcDbSymbolTableRecord
100
AcDbLayerTableRecord
  2
A-SHAFT
 70
0
 62
6
  6
Continuous
370
-3
390
13
347
21
  0
LAYER
  5
34
330
1
100
AcDbSymbolTableRecord
100
AcDbLayerTableRecord
  2
A-ROOM
 70
0
 62
2
  6
Continuous
370
-3
390
13
347
21
  0
LAYER
  5
35
330
1
100
AcDbSymbolTableRecord
100
AcDbLayerTableRecord
  2
A-DIMS
 70
0
 62
1
  6
Continuous
370
-3
390
13
347
21
  0
LAYER
  5
36
330
1
100
AcDbSymbolTableRecord
100
AcDbLayerTableRecord
  2
A-TEXT
 70
0
 62
7
  6
Continuous
370
-3
390
13
347
21
  0
LAYER
  5
37
330
1
100
AcDbSymbolTableRecord
100
AcDbLayerTableRecord
  2
A-UNCERTAIN
 70
0
 62
9
  6
CONTINUOUS
370
-3
390
13
347
21
  0
LAYER
  5
38
330
1
100
AcDbSymbolTableRecord
100
AcDbLayerTableRecord
  2
A-SOURCE-REF
 70
0
 62
5
  6
Continuous
370
-3
390
13
347
21
  0
ENDTAB
  0
TABLE
  2
STYLE
  5
5
330
0
100
AcDbSymbolTable
 70
1
  0
STYLE
  5
29
330
5
100
AcDbSymbolTableRecord
100
AcDbTextStyleTableRecord
  2
Standard
 70
0
 40
0.0
 41
1.0
 50
0.0
 71
0
 42
2.5
  3
txt
  4

  0
ENDTAB
  0
TABLE
  2
VIEW
  5
7
330
0
100
AcDbSymbolTable
 70
0
  0
ENDTAB
  0
TABLE
  2
UCS
  5
6
330
0
100
AcDbSymbolTable
 70
0
  0
ENDTAB
  0
TABLE
  2
APPID
  5
3
330
0
100
AcDbSymbolTable
 70
3
  0
APPID
  5
2A
330
3
100
AcDbSymbolTableRecord
100
AcDbRegAppTableRecord
  2
ACAD
 70
0
  0
APPID
  5
151
330
3
100
AcDbSymbolTableRecord
100
AcDbRegAppTableRecord
  2
HATCHBACKGROUNDCOLOR
 70
0
  0
APPID
  5
152
330
3
100
AcDbSymbolTableRecord
100
AcDbRegAppTableRecord
  2
EZDXF
 70
0
  0
ENDTAB
  0
TABLE
  2
DIMSTYLE
  5
4
330
0
100
AcDbSymbolTable
 70
1
100
AcDbDimStyleTable
  0
DIMSTYLE
105
2B
330
4
100
AcDbSymbolTableRecord
100
AcDbDimStyleTableRecord
  2
Standard
 70
0
 40
1.0
 41
2.5
 42
0.625
 43
3.75
 44
1.25
 45
0.0
 46
0.0
 47
0.0
 48
0.0
 49
2.5
140
2.5
141
2.5
142
0.0
143
0.03937007874
144
1.0
145
0.0
146
1.0
147
0.625
148
0.0
 69
0
 70
0
 71
0
 72
0
 73
0
 74
0
 75
0
 76
0
 77
1
 78
8
 79
3
170
0
171
3
172
1
173
0
174
0
175
0
176
0
177
0
178
0
179
2
271
2
272
2
273
2
274
3
275
0
276
0
277
2
278
44
279
0
280
0
281
0
282
0
283
0
284
8
285
0
286
0
288
0
289
3
290
0
371
-2
372
-2
  0
ENDTAB
  0
TABLE
  2
BLOCK_RECORD
  5
9
330
0
100
AcDbSymbolTable
 70
2
  0
BLOCK_RECORD
  5
17
330
9
100
AcDbSymbolTableRecord
100
AcDbBlockTableRecord
  2
*Model_Space
340
1A
 70
0
280
1
281
0
  0
BLOCK_RECORD
  5
1B
330
9
100
AcDbSymbolTableRecord
100
AcDbBlockTableRecord
  2
*Paper_Space
340
1E
 70
0
280
1
281
0
  0
ENDTAB
  0
ENDSEC
  0
SECTION
  2
BLOCKS
  0
BLOCK
  5
18
330
17
100
AcDbEntity
  8
0
100
AcDbBlockBegin
  2
*Model_Space
 70
0
 10
0.0
 20
0.0
 30
0.0
  3
*Model_Space
  1

  0
ENDBLK
  5
19
330
17
100
AcDbEntity
  8
0
100
AcDbBlockEnd
  0
BLOCK
  5
1C
330
1B
100
AcDbEntity
  8
0
100
AcDbBlockBegin
  2
*Paper_Space
 70
0
 10
0.0
 20
0.0
 30
0.0
  3
*Paper_Space
  1

  0
ENDBLK
  5
1D
330
1B
100
AcDbEntity
  8
0
100
AcDbBlockEnd
  0
ENDSEC
  0
SECTION
  2
ENTITIES
  0
LWPOLYLINE
  5
39
330
17
100
AcDbEntity
  8
A-WALL
100
AcDbPolyline
 90
4
 70
1
 10
2700.0
 20
2300.0
 10
2900.0
 20
2300.0
 10
2900.0
 20
13600.0
 10
2700.0
 20
13600.0
  0
TEXT
  5
3A
330
17
100
AcDbEntity
  8
A-SOURCE-REF
100
AcDbText
 10
2700.0
 20
2180.0
 30
0.0
 40
80.0
  1
W-EXT-W
 11
2700.0
 21
2180.0
 31
0.0
100
AcDbText
  0
LWPOLYLINE
  5
3B
330
17
100
AcDbEntity
  8
A-WALL
100
AcDbPolyline
 90
4
 70
1
 10
6050.0
 20
-200.0
 10
15400.0
 20
-200.0
 10
15400.0
 20
0.0
 10
6050.0
 20
0.0
  0
TEXT
  5
3C
330
17
100
AcDbEntity
  8
A-SOURCE-REF
100
AcDbText
 10
6050.0
 20
-320.0
 30
0.0
 40
80.0
  1
W-EXT-S
 11
6050.0
 21
-320.0
 31
0.0
100
AcDbText
  0
LWPOLYLINE
  5
3D
330
17
100
AcDbEntity
  8
A-UNCERTAIN
100
AcDbPolyline
 90
4
 70
1
 10
4600.0
 20
-200.0
 10
5000.0
 20
-200.0
 10
5000.0
 20
0.0
 10
4600.0
 20
0.0
  0
TEXT
  5
3E
330
17
100
AcDbEntity
  8
A-SOURCE-REF
100
AcDbText
 10
4600.0
 20
-320.0
 30
0.0
 40
80.0
  1
W-EXT-S-W1
 11
4600.0
 21
-320.0
 31
0.0
100
AcDbText
  0
LWPOLYLINE
  5
3F
330
17
100
AcDbEntity
  8
A-UNCERTAIN
100
AcDbPolyline
 90
4
 70
1
 10
5380.0
 20
-200.0
 10
6050.0
 20
-200.0
 10
6050.0
 20
0.0
 10
5380.0
 20
0.0
  0
TEXT
  5
40
330
17
100
AcDbEntity
  8
A-SOURCE-REF
100
AcDbText
 10
5380.0
 20
-320.0
 30
0.0
 40
80.0
  1
W-EXT-S-W2
 11
5380.0
 21
-320.0
 31
0.0
100
AcDbText
  0
LWPOLYLINE
  5
41
330
17
100
AcDbEntity
  8
A-WALL
100
AcDbPolyline
 90
4
 70
1
 10
15400.0
 20
0.0
 10
15600.0
 20
0.0
 10
15600.0
 20
4500.0
 10
15400.0
 20
4500.0
  0
TEXT
  5
42
330
17
100
AcDbEntity
  8
A-SOURCE-REF
100
AcDbText
 10
15400.0
 20
-120.0
 30
0.0
 40
80.0
  1
W-EXT-E1
 11
15400.0
 21
-120.0
 31
0.0
100
AcDbText
  0
LWPOLYLINE
  5
43
330
17
100
AcDbEntity
  8
A-WALL
100
AcDbPolyline
 90
4
 70
1
 10
16300.0
 20
4400.0
 10
16500.0
 20
4400.0
 10
16500.0
 20
10900.0
 10
16300.0
 20
10900.0
  0
TEXT
  5
44
330
17
100
AcDbEntity
  8
A-SOURCE-REF
100
AcDbText
 10
16300.0
 20
4280.0
 30
0.0
 40
80.0
  1
W-EXT-E2
 11
16300.0
 21
4280.0
 31
0.0
100
AcDbText
  0
LWPOLYLINE
  5
45
330
17
100
AcDbEntity
  8
A-UNCERTAIN
100
AcDbPolyline
 90
4
 70
1
 10
13600.0
 20
11350.0
 10
15800.0
 20
11350.0
 10
15800.0
 20
11550.0
 10
13600.0
 20
11550.0
  0
TEXT
  5
46
330
17
100
AcDbEntity
  8
A-SOURCE-REF
100
AcDbText
 10
13600.0
 20
11230.0
 30
0.0
 40
80.0
  1
W-EXT-NE
 11
13600.0
 21
11230.0
 31
0.0
100
AcDbText
  0
LWPOLYLINE
  5
47
330
17
100
AcDbEntity
  8
A-UNCERTAIN
100
AcDbPolyline
 90
4
 70
1
 10
15600.0
 20
10700.0
 10
16500.0
 20
10700.0
 10
16500.0
 20
10900.0
 10
15600.0
 20
10900.0
  0
TEXT
  5
48
330
17
100
AcDbEntity
  8
A-SOURCE-REF
100
AcDbText
 10
15600.0
 20
10580.0
 30
0.0
 40
80.0
  1
W-EXT-NE2
 11
15600.0
 21
10580.0
 31
0.0
100
AcDbText
  0
LWPOLYLINE
  5
49
330
17
100
AcDbEntity
  8
A-WALL
100
AcDbPolyline
 90
4
 70
1
 10
2700.0
 20
12750.0
 10
7900.0
 20
12750.0
 10
7900.0
 20
12950.0
 10
2700.0
 20
12950.0
  0
TEXT
  5
4A
330
17
100
AcDbEntity
  8
A-SOURCE-REF
100
AcDbText
 10
2700.0
 20
12630.0
 30
0.0
 40
80.0
  1
W-EXT-N-LV
 11
2700.0
 21
12630.0
 31
0.0
100
AcDbText
  0
LWPOLYLINE
  5
4B
330
17
100
AcDbEntity
  8
A-WALL
100
AcDbPolyline
 90
4
 70
1
 10
3800.0
 20
13400.0
 10
6900.0
 20
13400.0
 10
6900.0
 20
13600.0
 10
3800.0
 20
13600.0
  0
TEXT
  5
4C
330
17
100
AcDbEntity
  8
A-SOURCE-REF
100
AcDbText
 10
3800.0
 20
13280.0
 30
0.0
 40
80.0
  1
W-BAY-F
 11
3800.0
 21
13280.0
 31
0.0
100
AcDbText
  0
LWPOLYLINE
  5
4D
330
17
100
AcDbEntity
  8
A-UNCERTAIN
100
AcDbPolyline
 90
4
 70
1
 10
3700.0
 20
12950.0
 10
3800.0
 20
12950.0
 10
3800.0
 20
13400.0
 10
3700.0
 20
13400.0
  0
TEXT
  5
4E
330
17
100
AcDbEntity
  8
A-SOURCE-REF
100
AcDbText
 10
3700.0
 20
12830.0
 30
0.0
 40
80.0
  1
W-BAY-JW
 11
3700.0
 21
12830.0
 31
0.0
100
AcDbText
  0
LWPOLYLINE
  5
4F
330
17
100
AcDbEntity
  8
A-UNCERTAIN
100
AcDbPolyline
 90
4
 70
1
 10
6900.0
 20
12950.0
 10
7000.0
 20
12950.0
 10
7000.0
 20
13400.0
 10
6900.0
 20
13400.0
  0
TEXT
  5
50
330
17
100
AcDbEntity
  8
A-SOURCE-REF
100
AcDbText
 10
6900.0
 20
12830.0
 30
0.0
 40
80.0
  1
W-BAY-JE
 11
6900.0
 21
12830.0
 31
0.0
100
AcDbText
  0
LWPOLYLINE
  5
51
330
17
100
AcDbEntity
  8
A-WALL
100
AcDbPolyline
 90
4
 70
1
 10
7900.0
 20
13400.0
 10
13000.0
 20
13400.0
 10
13000.0
 20
13600.0
 10
7900.0
 20
13600.0
  0
TEXT
  5
52
330
17
100
AcDbEntity
  8
A-SOURCE-REF
100
AcDbText
 10
7900.0
 20
13280.0
 30
0.0
 40
80.0
  1
W-EXT-N-BAL
 11
7900.0
 21
13280.0
 31
0.0
100
AcDbText
  0
LWPOLYLINE
  5
53
330
17
100
AcDbEntity
  8
A-WALL
100
AcDbPolyline
 90
4
 70
1
 10
1300.0
 20
450.0
 10
1500.0
 20
450.0
 10
1500.0
 20
2400.0
 10
1300.0
 20
2400.0
  0
TEXT
  5
54
330
17
100
AcDbEntity
  8
A-SOURCE-REF
100
AcDbText
 10
1300.0
 20
330.0
 30
0.0
 40
80.0
  1
W-BALC-W
 11
1300.0
 21
330.0
 31
0.0
100
AcDbText
  0
LWPOLYLINE
  5
55
330
17
100
AcDbEntity
  8
A-WALL
100
AcDbPolyline
 90
4
 70
1
 10
1300.0
 20
450.0
 10
5800.0
 20
450.0
 10
5800.0
 20
650.0
 10
1300.0
 20
650.0
  0
TEXT
  5
56
330
17
100
AcDbEntity
  8
A-SOURCE-REF
100
AcDbText
 10
1300.0
 20
330.0
 30
0.0
 40
80.0
  1
W-BALC-S
 11
1300.0
 21
330.0
 31
0.0
100
AcDbText
  0
LWPOLYLINE
  5
57
330
17
100
AcDbEntity
  8
A-WALL
100
AcDbPolyline
 90
4
 70
1
 10
1300.0
 20
2400.0
 10
5800.0
 20
2400.0
 10
5800.0
 20
2560.0
 10
1300.0
 20
2560.0
  0
TEXT
  5
58
330
17
100
AcDbEntity
  8
A-SOURCE-REF
100
AcDbText
 10
1300.0
 20
2280.0
 30
0.0
 40
80.0
  1
W-BALC-N
 11
1300.0
 21
2280.0
 31
0.0
100
AcDbText
  0
LWPOLYLINE
  5
59
330
17
100
AcDbEntity
  8
A-WALL
100
AcDbPolyline
 90
4
 70
1
 10
5700.0
 20
-150.0
 10
5900.0
 20
-150.0
 10
5900.0
 20
4700.0
 10
5700.0
 20
4700.0
  0
TEXT
  5
5A
330
17
100
AcDbEntity
  8
A-SOURCE-REF
100
AcDbText
 10
5700.0
 20
-270.0
 30
0.0
 40
80.0
  1
W-INT-X5800
 11
5700.0
 21
-270.0
 31
0.0
100
AcDbText
  0
LWPOLYLINE
  5
5B
330
17
100
AcDbEntity
  8
A-UNCERTAIN
100
AcDbPolyline
 90
4
 70
1
 10
5650.0
 20
4700.0
 10
5750.0
 20
4700.0
 10
5750.0
 20
5950.0
 10
5650.0
 20
5950.0
  0
TEXT
  5
5C
330
17
100
AcDbEntity
  8
A-SOURCE-REF
100
AcDbText
 10
5650.0
 20
4580.0
 30
0.0
 40
80.0
  1
W-INT-X5800-STUB
 11
5650.0
 21
4580.0
 31
0.0
100
AcDbText
  0
LWPOLYLINE
  5
5D
330
17
100
AcDbEntity
  8
A-WALL
100
AcDbPolyline
 90
4
 70
1
 10
7800.0
 20
-150.0
 10
8000.0
 20
-150.0
 10
8000.0
 20
4670.0
 10
7800.0
 20
4670.0
  0
TEXT
  5
5E
330
17
100
AcDbEntity
  8
A-SOURCE-REF
100
AcDbText
 10
7800.0
 20
-270.0
 30
0.0
 40
80.0
  1
W-INT-X7900-L
 11
7800.0
 21
-270.0
 31
0.0
100
AcDbText
  0
LWPOLYLINE
  5
5F
330
17
100
AcDbEntity
  8
A-WALL
100
AcDbPolyline
 90
4
 70
1
 10
7800.0
 20
4670.0
 10
7900.0
 20
4670.0
 10
7900.0
 20
13550.0
 10
7800.0
 20
13550.0
  0
TEXT
  5
60
330
17
100
AcDbEntity
  8
A-SOURCE-REF
100
AcDbText
 10
7800.0
 20
4550.0
 30
0.0
 40
80.0
  1
W-INT-X7900-U
 11
7800.0
 21
4550.0
 31
0.0
100
AcDbText
  0
LWPOLYLINE
  5
61
330
17
100
AcDbEntity
  8
A-WALL
100
AcDbPolyline
 90
4
 70
1
 10
9700.0
 20
7700.0
 10
9900.0
 20
7700.0
 10
9900.0
 20
10900.0
 10
9700.0
 20
10900.0
  0
TEXT
  5
62
330
17
100
AcDbEntity
  8
A-SOURCE-REF
100
AcDbText
 10
9700.0
 20
7580.0
 30
0.0
 40
80.0
  1
W-INT-X9800
 11
9700.0
 21
7580.0
 31
0.0
100
AcDbText
  0
LWPOLYLINE
  5
63
330
17
100
AcDbEntity
  8
A-WALL
100
AcDbPolyline
 90
4
 70
1
 10
11400.0
 20
-200.0
 10
11600.0
 20
-200.0
 10
11600.0
 20
6500.0
 10
11400.0
 20
6500.0
  0
TEXT
  5
64
330
17
100
AcDbEntity
  8
A-SOURCE-REF
100
AcDbText
 10
11400.0
 20
-320.0
 30
0.0
 40
80.0
  1
W-INT-X11500
 11
11400.0
 21
-320.0
 31
0.0
100
AcDbText
  0
LWPOLYLINE
  5
65
330
17
100
AcDbEntity
  8
A-WALL
100
AcDbPolyline
 90
4
 70
1
 10
12900.0
 20
4630.0
 10
13100.0
 20
4630.0
 10
13100.0
 20
13600.0
 10
12900.0
 20
13600.0
  0
TEXT
  5
66
330
17
100
AcDbEntity
  8
A-SOURCE-REF
100
AcDbText
 10
12900.0
 20
4510.0
 30
0.0
 40
80.0
  1
W-INT-X13000
 11
12900.0
 21
4510.0
 31
0.0
100
AcDbText
  0
LWPOLYLINE
  5
67
330
17
100
AcDbEntity
  8
A-WALL
100
AcDbPolyline
 90
4
 70
1
 10
5700.0
 20
4450.0
 10
8236.0
 20
4450.0
 10
8236.0
 20
4700.0
 10
5700.0
 20
4700.0
  0
TEXT
  5
68
330
17
100
AcDbEntity
  8
A-SOURCE-REF
100
AcDbText
 10
5700.0
 20
4330.0
 30
0.0
 40
80.0
  1
W-INT-Y4500-a
 11
5700.0
 21
4330.0
 31
0.0
100
AcDbText
  0
LWPOLYLINE
  5
69
330
17
100
AcDbEntity
  8
A-UNCERTAIN
100
AcDbPolyline
 90
4
 70
1
 10
9050.0
 20
6300.0
 10
11400.0
 20
6300.0
 10
11400.0
 20
6500.0
 10
9050.0
 20
6500.0
  0
TEXT
  5
6A
330
17
100
AcDbEntity
  8
A-SOURCE-REF
100
AcDbText
 10
9050.0
 20
6180.0
 30
0.0
 40
80.0
  1
W-INT-CLK-N
 11
9050.0
 21
6180.0
 31
0.0
100
AcDbText
  0
LWPOLYLINE
  5
6B
330
17
100
AcDbEntity
  8
A-UNCERTAIN
100
AcDbPolyline
 90
4
 70
1
 10
11300.0
 20
4500.0
 10
11400.0
 20
4500.0
 10
11400.0
 20
6300.0
 10
11300.0
 20
6300.0
  0
TEXT
  5
6C
330
17
100
AcDbEntity
  8
A-SOURCE-REF
100
AcDbText
 10
11300.0
 20
4380.0
 30
0.0
 40
80.0
  1
W-INT-CLK-E
 11
11300.0
 21
4380.0
 31
0.0
100
AcDbText
  0
LWPOLYLINE
  5
6D
330
17
100
AcDbEntity
  8
A-UNCERTAIN
100
AcDbPolyline
 90
4
 70
1
 10
8950.0
 20
4500.0
 10
9050.0
 20
4500.0
 10
9050.0
 20
6300.0
 10
8950.0
 20
6300.0
  0
TEXT
  5
6E
330
17
100
AcDbEntity
  8
A-SOURCE-REF
100
AcDbText
 10
8950.0
 20
4380.0
 30
0.0
 40
80.0
  1
W-INT-CLK-W
 11
8950.0
 21
4380.0
 31
0.0
100
AcDbText
  0
LWPOLYLINE
  5
6F
330
17
100
AcDbEntity
  8
A-UNCERTAIN
100
AcDbPolyline
 90
4
 70
1
 10
11400.0
 20
6300.0
 10
12100.0
 20
6300.0
 10
12100.0
 20
6500.0
 10
11400.0
 20
6500.0
  0
TEXT
  5
70
330
17
100
AcDbEntity
  8
A-SOURCE-REF
100
AcDbText
 10
11400.0
 20
6180.0
 30
0.0
 40
80.0
  1
W-INT-COR-N-STUB
 11
11400.0
 21
6180.0
 31
0.0
100
AcDbText
  0
LWPOLYLINE
  5
71
330
17
100
AcDbEntity
  8
A-WALL
100
AcDbPolyline
 90
4
 70
1
 10
13100.0
 20
6300.0
 10
16300.0
 20
6300.0
 10
16300.0
 20
6500.0
 10
13100.0
 20
6500.0
  0
TEXT
  5
72
330
17
100
AcDbEntity
  8
A-SOURCE-REF
100
AcDbText
 10
13100.0
 20
6180.0
 30
0.0
 40
80.0
  1
W-INT-BEDN-S
 11
13100.0
 21
6180.0
 31
0.0
100
AcDbText
  0
LWPOLYLINE
  5
73
330
17
100
AcDbEntity
  8
A-WALL
100
AcDbPolyline
 90
4
 70
1
 10
7900.0
 20
7800.0
 10
9800.0
 20
7800.0
 10
9800.0
 20
8000.0
 10
7900.0
 20
8000.0
  0
TEXT
  5
74
330
17
100
AcDbEntity
  8
A-SOURCE-REF
100
AcDbText
 10
7900.0
 20
7680.0
 30
0.0
 40
80.0
  1
W-INT-WC-S
 11
7900.0
 21
7680.0
 31
0.0
100
AcDbText
  0
LWPOLYLINE
  5
75
330
17
100
AcDbEntity
  8
A-UNCERTAIN
100
AcDbPolyline
 90
4
 70
1
 10
9800.0
 20
7800.0
 10
13000.0
 20
7800.0
 10
13000.0
 20
8000.0
 10
9800.0
 20
8000.0
  0
TEXT
  5
76
330
17
100
AcDbEntity
  8
A-SOURCE-REF
100
AcDbText
 10
9800.0
 20
7680.0
 30
0.0
 40
80.0
  1
W-INT-STD-S
 11
9800.0
 21
7680.0
 31
0.0
100
AcDbText
  0
LWPOLYLINE
  5
77
330
17
100
AcDbEntity
  8
A-WALL
100
AcDbPolyline
 90
4
 70
1
 10
7900.0
 20
10700.0
 10
13000.0
 20
10700.0
 10
13000.0
 20
10900.0
 10
7900.0
 20
10900.0
  0
TEXT
  5
78
330
17
100
AcDbEntity
  8
A-SOURCE-REF
100
AcDbText
 10
7900.0
 20
10580.0
 30
0.0
 40
80.0
  1
W-INT-Y10800
 11
7900.0
 21
10580.0
 31
0.0
100
AcDbText
  0
LWPOLYLINE
  5
79
330
17
100
AcDbEntity
  8
A-UNCERTAIN
100
AcDbPolyline
 90
4
 70
1
 10
13000.0
 20
10700.0
 10
13700.0
 20
10700.0
 10
13700.0
 20
10900.0
 10
13000.0
 20
10900.0
  0
TEXT
  5
7A
330
17
100
AcDbEntity
  8
A-SOURCE-REF
100
AcDbText
 10
13000.0
 20
10580.0
 30
0.0
 40
80.0
  1
W-INT-Y10800-EXT
 11
13000.0
 21
10580.0
 31
0.0
100
AcDbText
  0
LWPOLYLINE
  5
7B
330
17
100
AcDbEntity
  8
A-UNCERTAIN
100
AcDbPolyline
 90
4
 70
1
 10
7150.0
 20
750.0
 10
7250.0
 20
750.0
 10
7250.0
 20
3650.0
 10
7150.0
 20
3650.0
  0
TEXT
  5
7C
330
17
100
AcDbEntity
  8
A-SOURCE-REF
100
AcDbText
 10
7150.0
 20
630.0
 30
0.0
 40
80.0
  1
W-SHAFT-K
 11
7150.0
 21
630.0
 31
0.0
100
AcDbText
  0
LWPOLYLINE
  5
7D
330
17
100
AcDbEntity
  8
A-UNCERTAIN
100
AcDbPolyline
 90
4
 70
1
 10
7150.0
 20
3870.0
 10
7250.0
 20
3870.0
 10
7250.0
 20
4670.0
 10
7150.0
 20
4670.0
  0
TEXT
  5
7E
330
17
100
AcDbEntity
  8
A-SOURCE-REF
100
AcDbText
 10
7150.0
 20
3750.0
 30
0.0
 40
80.0
  1
W-INT-DRY-STUB
 11
7150.0
 21
3750.0
 31
0.0
100
AcDbText
  0
LWPOLYLINE
  5
7F
330
17
100
AcDbEntity
  8
A-UNCERTAIN
100
AcDbPolyline
 90
4
 70
1
 10
7150.0
 20
4700.0
 10
7400.0
 20
4700.0
 10
7400.0
 20
7800.0
 10
7150.0
 20
7800.0
  0
TEXT
  5
80
330
17
100
AcDbEntity
  8
A-SOURCE-REF
100
AcDbText
 10
7150.0
 20
4580.0
 30
0.0
 40
80.0
  1
W-INT-NICHE
 11
7150.0
 21
4580.0
 31
0.0
100
AcDbText
  0
LWPOLYLINE
  5
81
330
17
100
AcDbEntity
  8
A-WALL
100
AcDbPolyline
 90
4
 70
1
 10
11400.0
 20
4450.0
 10
16500.0
 20
4450.0
 10
16500.0
 20
4650.0
 10
11400.0
 20
4650.0
  0
TEXT
  5
82
330
17
100
AcDbEntity
  8
A-SOURCE-REF
100
AcDbText
 10
11400.0
 20
4330.0
 30
0.0
 40
80.0
  1
W-INT-Y4500-bc
 11
11400.0
 21
4330.0
 31
0.0
100
AcDbText
  0
LWPOLYLINE
  5
83
330
17
100
AcDbEntity
  8
A-WALL
100
AcDbPolyline
 90
4
 70
1
 10
8236.0
 20
4450.0
 10
11400.0
 20
4450.0
 10
11400.0
 20
4650.0
 10
8236.0
 20
4650.0
  0
TEXT
  5
84
330
17
100
AcDbEntity
  8
A-SOURCE-REF
100
AcDbText
 10
8236.0
 20
4330.0
 30
0.0
 40
80.0
  1
W-INT-Y4500-b
 11
8236.0
 21
4330.0
 31
0.0
100
AcDbText
  0
LWPOLYLINE
  5
85
330
17
100
AcDbEntity
  8
A-UNCERTAIN
100
AcDbPolyline
 90
4
 70
1
 10
1500.0
 20
1650.0
 10
2050.0
 20
1650.0
 10
2050.0
 20
2200.0
 10
1500.0
 20
2200.0
  0
LWPOLYLINE
  5
86
330
17
100
AcDbEntity
  8
A-UNCERTAIN
100
AcDbPolyline
 90
4
 70
1
 10
1500.0
 20
750.0
 10
2050.0
 20
750.0
 10
2050.0
 20
1300.0
 10
1500.0
 20
1300.0
  0
LWPOLYLINE
  5
87
330
17
100
AcDbEntity
  8
A-UNCERTAIN
100
AcDbPolyline
 90
4
 70
1
 10
2700.0
 20
750.0
 10
2900.0
 20
750.0
 10
2900.0
 20
1100.0
 10
2700.0
 20
1100.0
  0
LWPOLYLINE
  5
88
330
17
100
AcDbEntity
  8
A-UNCERTAIN
100
AcDbPolyline
 90
4
 70
1
 10
3100.0
 20
13600.0
 10
3700.0
 20
13600.0
 10
3700.0
 20
14200.0
 10
3100.0
 20
14200.0
  0
LWPOLYLINE
  5
89
330
17
100
AcDbEntity
  8
A-UNCERTAIN
100
AcDbPolyline
 90
4
 70
1
 10
13100.0
 20
11400.0
 10
13700.0
 20
11400.0
 10
13700.0
 20
12700.0
 10
13100.0
 20
12700.0
  0
LWPOLYLINE
  5
8A
330
17
100
AcDbEntity
  8
A-UNCERTAIN
100
AcDbPolyline
 90
4
 70
1
 10
13600.0
 20
11550.0
 10
15800.0
 20
11550.0
 10
15800.0
 20
12900.0
 10
13600.0
 20
12900.0
  0
LWPOLYLINE
  5
8B
330
17
100
AcDbEntity
  8
A-UNCERTAIN
100
AcDbPolyline
 90
4
 70
1
 10
8500.0
 20
-700.0
 10
10800.0
 20
-700.0
 10
10800.0
 20
0.0
 10
8500.0
 20
0.0
  0
LWPOLYLINE
  5
8C
330
17
100
AcDbEntity
  8
A-UNCERTAIN
100
AcDbPolyline
 90
4
 70
1
 10
12050.0
 20
-700.0
 10
14800.0
 20
-700.0
 10
14800.0
 20
0.0
 10
12050.0
 20
0.0
  0
LWPOLYLINE
  5
8D
330
17
100
AcDbEntity
  8
A-UNCERTAIN
100
AcDbPolyline
 90
4
 70
1
 10
5900.0
 20
-700.0
 10
7200.0
 20
-700.0
 10
7200.0
 20
350.0
 10
5900.0
 20
350.0
  0
LWPOLYLINE
  5
8E
330
17
100
AcDbEntity
  8
A-DOOR
100
AcDbPolyline
 90
4
 70
1
 10
2700.0
 20
5400.0
 10
2900.0
 20
5400.0
 10
2900.0
 20
6530.0
 10
2700.0
 20
6530.0
  0
TEXT
  5
8F
330
17
100
AcDbEntity
  8
A-SOURCE-REF
100
AcDbText
 10
2800.0
 20
5965.0
 30
0.0
 40
90.0
  1
D-01
 11
2800.0
 21
5965.0
 31
0.0
100
AcDbText
  0
LWPOLYLINE
  5
90
330
17
100
AcDbEntity
  8
A-DOOR
100
AcDbPolyline
 90
4
 70
1
 10
7800.0
 20
11700.0
 10
7900.0
 20
11700.0
 10
7900.0
 20
12550.0
 10
7800.0
 20
12550.0
  0
TEXT
  5
91
330
17
100
AcDbEntity
  8
A-SOURCE-REF
100
AcDbText
 10
7850.0
 20
12125.0
 30
0.0
 40
90.0
  1
D-02
 11
7850.0
 21
12125.0
 31
0.0
100
AcDbText
  0
LWPOLYLINE
  5
92
330
17
100
AcDbEntity
  8
A-DOOR
100
AcDbPolyline
 90
4
 70
1
 10
8800.0
 20
7800.0
 10
9700.0
 20
7800.0
 10
9700.0
 20
8000.0
 10
8800.0
 20
8000.0
  0
TEXT
  5
93
330
17
100
AcDbEntity
  8
A-SOURCE-REF
100
AcDbText
 10
9250.0
 20
7900.0
 30
0.0
 40
90.0
  1
D-03
 11
9250.0
 21
7900.0
 31
0.0
100
AcDbText
  0
LWPOLYLINE
  5
94
330
17
100
AcDbEntity
  8
A-UNCERTAIN
100
AcDbPolyline
 90
4
 70
1
 10
9950.0
 20
7800.0
 10
10900.0
 20
7800.0
 10
10900.0
 20
8000.0
 10
9950.0
 20
8000.0
  0
TEXT
  5
95
330
17
100
AcDbEntity
  8
A-SOURCE-REF
100
AcDbText
 10
10425.0
 20
7900.0
 30
0.0
 40
90.0
  1
D-04
 11
10425.0
 21
7900.0
 31
0.0
100
AcDbText
  0
LWPOLYLINE
  5
96
330
17
100
AcDbEntity
  8
A-DOOR
100
AcDbPolyline
 90
4
 70
1
 10
12900.0
 20
6300.0
 10
13100.0
 20
6300.0
 10
13100.0
 20
7450.0
 10
12900.0
 20
7450.0
  0
TEXT
  5
97
330
17
100
AcDbEntity
  8
A-SOURCE-REF
100
AcDbText
 10
13000.0
 20
6875.0
 30
0.0
 40
90.0
  1
D-05
 11
13000.0
 21
6875.0
 31
0.0
100
AcDbText
  0
LWPOLYLINE
  5
98
330
17
100
AcDbEntity
  8
A-DOOR
100
AcDbPolyline
 90
4
 70
1
 10
12900.0
 20
4750.0
 10
13100.0
 20
4750.0
 10
13100.0
 20
5500.0
 10
12900.0
 20
5500.0
  0
TEXT
  5
99
330
17
100
AcDbEntity
  8
A-SOURCE-REF
100
AcDbText
 10
13000.0
 20
5125.0
 30
0.0
 40
90.0
  1
D-06
 11
13000.0
 21
5125.0
 31
0.0
100
AcDbText
  0
LWPOLYLINE
  5
9A
330
17
100
AcDbEntity
  8
A-UNCERTAIN
100
AcDbPolyline
 90
4
 70
1
 10
10500.0
 20
6300.0
 10
11240.0
 20
6300.0
 10
11240.0
 20
6500.0
 10
10500.0
 20
6500.0
  0
TEXT
  5
9B
330
17
100
AcDbEntity
  8
A-SOURCE-REF
100
AcDbText
 10
10870.0
 20
6400.0
 30
0.0
 40
90.0
  1
D-07
 11
10870.0
 21
6400.0
 31
0.0
100
AcDbText
  0
LWPOLYLINE
  5
9C
330
17
100
AcDbEntity
  8
A-DOOR
100
AcDbPolyline
 90
4
 70
1
 10
8250.0
 20
4450.0
 10
9000.0
 20
4450.0
 10
9000.0
 20
4650.0
 10
8250.0
 20
4650.0
  0
TEXT
  5
9D
330
17
100
AcDbEntity
  8
A-SOURCE-REF
100
AcDbText
 10
8625.0
 20
4550.0
 30
0.0
 40
90.0
  1
D-08
 11
8625.0
 21
4550.0
 31
0.0
100
AcDbText
  0
LWPOLYLINE
  5
9E
330
17
100
AcDbEntity
  8
A-DOOR
100
AcDbPolyline
 90
4
 70
1
 10
11600.0
 20
4450.0
 10
12900.0
 20
4450.0
 10
12900.0
 20
4650.0
 10
11600.0
 20
4650.0
  0
TEXT
  5
9F
330
17
100
AcDbEntity
  8
A-SOURCE-REF
100
AcDbText
 10
12250.0
 20
4550.0
 30
0.0
 40
90.0
  1
D-09
 11
12250.0
 21
4550.0
 31
0.0
100
AcDbText
  0
LWPOLYLINE
  5
A0
330
17
100
AcDbEntity
  8
A-UNCERTAIN
100
AcDbPolyline
 90
4
 70
1
 10
7800.0
 20
4670.0
 10
7900.0
 20
4670.0
 10
7900.0
 20
6450.0
 10
7800.0
 20
6450.0
  0
TEXT
  5
A1
330
17
100
AcDbEntity
  8
A-SOURCE-REF
100
AcDbText
 10
7850.0
 20
5560.0
 30
0.0
 40
90.0
  1
D-10
 11
7850.0
 21
5560.0
 31
0.0
100
AcDbText
  0
LWPOLYLINE
  5
A2
330
17
100
AcDbEntity
  8
A-DOOR
100
AcDbPolyline
 90
4
 70
1
 10
5700.0
 20
1400.0
 10
5900.0
 20
1400.0
 10
5900.0
 20
2300.0
 10
5700.0
 20
2300.0
  0
TEXT
  5
A3
330
17
100
AcDbEntity
  8
A-SOURCE-REF
100
AcDbText
 10
5800.0
 20
1850.0
 30
0.0
 40
90.0
  1
D-11
 11
5800.0
 21
1850.0
 31
0.0
100
AcDbText
  0
LWPOLYLINE
  5
A4
330
17
100
AcDbEntity
  8
A-UNCERTAIN
100
AcDbPolyline
 90
4
 70
1
 10
12900.0
 20
11000.0
 10
13100.0
 20
11000.0
 10
13100.0
 20
11800.0
 10
12900.0
 20
11800.0
  0
TEXT
  5
A5
330
17
100
AcDbEntity
  8
A-SOURCE-REF
100
AcDbText
 10
13000.0
 20
11400.0
 30
0.0
 40
90.0
  1
D-12
 11
13000.0
 21
11400.0
 31
0.0
100
AcDbText
  0
LWPOLYLINE
  5
A6
330
17
100
AcDbEntity
  8
A-DOOR
100
AcDbPolyline
 90
4
 70
1
 10
2900.0
 20
2400.0
 10
4830.0
 20
2400.0
 10
4830.0
 20
2560.0
 10
2900.0
 20
2560.0
  0
TEXT
  5
A7
330
17
100
AcDbEntity
  8
A-SOURCE-REF
100
AcDbText
 10
3865.0
 20
2480.0
 30
0.0
 40
90.0
  1
D-13
 11
3865.0
 21
2480.0
 31
0.0
100
AcDbText
  0
LWPOLYLINE
  5
A8
330
17
100
AcDbEntity
  8
A-WINDOW
100
AcDbPolyline
 90
4
 70
1
 10
3800.0
 20
12750.0
 10
6900.0
 20
12750.0
 10
6900.0
 20
12950.0
 10
3800.0
 20
12950.0
  0
TEXT
  5
A9
330
17
100
AcDbEntity
  8
A-SOURCE-REF
100
AcDbText
 10
5350.0
 20
12850.0
 30
0.0
 40
90.0
  1
WIN-N1
 11
5350.0
 21
12850.0
 31
0.0
100
AcDbText
  0
LWPOLYLINE
  5
AA
330
17
100
AcDbEntity
  8
A-UNCERTAIN
100
AcDbPolyline
 90
4
 70
1
 10
13700.0
 20
11350.0
 10
15600.0
 20
11350.0
 10
15600.0
 20
11550.0
 10
13700.0
 20
11550.0
  0
TEXT
  5
AB
330
17
100
AcDbEntity
  8
A-SOURCE-REF
100
AcDbText
 10
14650.0
 20
11450.0
 30
0.0
 40
90.0
  1
WIN-N2
 11
14650.0
 21
11450.0
 31
0.0
100
AcDbText
  0
LWPOLYLINE
  5
AC
330
17
100
AcDbEntity
  8
A-UNCERTAIN
100
AcDbPolyline
 90
4
 70
1
 10
10500.0
 20
13400.0
 10
12300.0
 20
13400.0
 10
12300.0
 20
13600.0
 10
10500.0
 20
13600.0
  0
TEXT
  5
AD
330
17
100
AcDbEntity
  8
A-SOURCE-REF
100
AcDbText
 10
11400.0
 20
13500.0
 30
0.0
 40
90.0
  1
WIN-N3
 11
11400.0
 21
13500.0
 31
0.0
100
AcDbText
  0
LWPOLYLINE
  5
AE
330
17
100
AcDbEntity
  8
A-WINDOW
100
AcDbPolyline
 90
4
 70
1
 10
15400.0
 20
500.0
 10
15600.0
 20
500.0
 10
15600.0
 20
2300.0
 10
15400.0
 20
2300.0
  0
TEXT
  5
AF
330
17
100
AcDbEntity
  8
A-SOURCE-REF
100
AcDbText
 10
15500.0
 20
1400.0
 30
0.0
 40
90.0
  1
WIN-E1
 11
15500.0
 21
1400.0
 31
0.0
100
AcDbText
  0
LWPOLYLINE
  5
B0
330
17
100
AcDbEntity
  8
A-WINDOW
100
AcDbPolyline
 90
4
 70
1
 10
16300.0
 20
7800.0
 10
16500.0
 20
7800.0
 10
16500.0
 20
10800.0
 10
16300.0
 20
10800.0
  0
TEXT
  5
B1
330
17
100
AcDbEntity
  8
A-SOURCE-REF
100
AcDbText
 10
16400.0
 20
9300.0
 30
0.0
 40
90.0
  1
WIN-E2
 11
16400.0
 21
9300.0
 31
0.0
100
AcDbText
  0
LWPOLYLINE
  5
B2
330
17
100
AcDbEntity
  8
A-UNCERTAIN
100
AcDbPolyline
 90
4
 70
1
 10
16300.0
 20
4500.0
 10
16500.0
 20
4500.0
 10
16500.0
 20
6400.0
 10
16300.0
 20
6400.0
  0
TEXT
  5
B3
330
17
100
AcDbEntity
  8
A-SOURCE-REF
100
AcDbText
 10
16400.0
 20
5450.0
 30
0.0
 40
90.0
  1
WIN-E3
 11
16400.0
 21
5450.0
 31
0.0
100
AcDbText
  0
LWPOLYLINE
  5
B4
330
17
100
AcDbEntity
  8
A-WINDOW
100
AcDbPolyline
 90
4
 70
1
 10
8600.0
 20
-200.0
 10
10800.0
 20
-200.0
 10
10800.0
 20
0.0
 10
8600.0
 20
0.0
  0
TEXT
  5
B5
330
17
100
AcDbEntity
  8
A-SOURCE-REF
100
AcDbText
 10
9700.0
 20
-100.0
 30
0.0
 40
90.0
  1
WIN-S1
 11
9700.0
 21
-100.0
 31
0.0
100
AcDbText
  0
LWPOLYLINE
  5
B6
330
17
100
AcDbEntity
  8
A-WINDOW
100
AcDbPolyline
 90
4
 70
1
 10
12200.0
 20
-200.0
 10
14700.0
 20
-200.0
 10
14700.0
 20
0.0
 10
12200.0
 20
0.0
  0
TEXT
  5
B7
330
17
100
AcDbEntity
  8
A-SOURCE-REF
100
AcDbText
 10
13450.0
 20
-100.0
 30
0.0
 40
90.0
  1
WIN-S2
 11
13450.0
 21
-100.0
 31
0.0
100
AcDbText
  0
LWPOLYLINE
  5
B8
330
17
100
AcDbEntity
  8
A-WINDOW
100
AcDbPolyline
 90
4
 70
1
 10
5800.0
 20
-200.0
 10
7200.0
 20
-200.0
 10
7200.0
 20
0.0
 10
5800.0
 20
0.0
  0
TEXT
  5
B9
330
17
100
AcDbEntity
  8
A-SOURCE-REF
100
AcDbText
 10
6500.0
 20
-100.0
 30
0.0
 40
90.0
  1
WIN-S3
 11
6500.0
 21
-100.0
 31
0.0
100
AcDbText
  0
LWPOLYLINE
  5
BA
330
17
100
AcDbEntity
  8
A-UNCERTAIN
100
AcDbPolyline
 90
4
 70
1
 10
2700.0
 20
6650.0
 10
2900.0
 20
6650.0
 10
2900.0
 20
10940.0
 10
2700.0
 20
10940.0
  0
TEXT
  5
BB
330
17
100
AcDbEntity
  8
A-SOURCE-REF
100
AcDbText
 10
2800.0
 20
8795.0
 30
0.0
 40
90.0
  1
WIN-W1
 11
2800.0
 21
8795.0
 31
0.0
100
AcDbText
  0
LWPOLYLINE
  5
BC
330
17
100
AcDbEntity
  8
A-UNCERTAIN
100
AcDbPolyline
 90
4
 70
1
 10
1400.0
 20
450.0
 10
2800.0
 20
450.0
 10
2800.0
 20
650.0
 10
1400.0
 20
650.0
  0
TEXT
  5
BD
330
17
100
AcDbEntity
  8
A-SOURCE-REF
100
AcDbText
 10
2100.0
 20
550.0
 30
0.0
 40
90.0
  1
WIN-BALC-S
 11
2100.0
 21
550.0
 31
0.0
100
AcDbText
  0
LWPOLYLINE
  5
BE
330
17
100
AcDbEntity
  8
A-ROOM
100
AcDbPolyline
 90
4
 70
1
 10
2900.0
 20
7900.0
 10
7750.0
 20
7900.0
 10
7750.0
 20
12750.0
 10
2900.0
 20
12750.0
  0
TEXT
  5
BF
330
17
100
AcDbEntity
  8
A-TEXT
100
AcDbText
 10
5025.0
 20
10325.0
 30
0.0
 40
300.0
  1
客厅
 11
5025.0
 21
10325.0
 31
0.0
100
AcDbText
  0
LWPOLYLINE
  5
C0
330
17
100
AcDbEntity
  8
A-UNCERTAIN
100
AcDbPolyline
 90
4
 70
1
 10
2900.0
 20
2560.0
 10
5700.0
 20
2560.0
 10
5700.0
 20
7900.0
 10
2900.0
 20
7900.0
  0
TEXT
  5
C1
330
17
100
AcDbEntity
  8
A-TEXT
100
AcDbText
 10
4000.0
 20
5230.0
 30
0.0
 40
300.0
  1
餐厅
 11
4000.0
 21
5230.0
 31
0.0
100
AcDbText
  0
LWPOLYLINE
  5
C2
330
17
100
AcDbEntity
  8
A-ROOM
100
AcDbPolyline
 90
4
 70
1
 10
1500.0
 20
650.0
 10
5700.0
 20
650.0
 10
5700.0
 20
2400.0
 10
1500.0
 20
2400.0
  0
TEXT
  5
C3
330
17
100
AcDbEntity
  8
A-TEXT
100
AcDbText
 10
3300.0
 20
1525.0
 30
0.0
 40
300.0
  1
生活阳台
 11
3300.0
 21
1525.0
 31
0.0
100
AcDbText
  0
LWPOLYLINE
  5
C4
330
17
100
AcDbEntity
  8
A-ROOM
100
AcDbPolyline
 90
4
 70
1
 10
5900.0
 20
0.0
 10
7750.0
 20
0.0
 10
7750.0
 20
4450.0
 10
5900.0
 20
4450.0
  0
TEXT
  5
C5
330
17
100
AcDbEntity
  8
A-TEXT
100
AcDbText
 10
6525.0
 20
2225.0
 30
0.0
 40
300.0
  1
厨房
 11
6525.0
 21
2225.0
 31
0.0
100
AcDbText
  0
LWPOLYLINE
  5
C6
330
17
100
AcDbEntity
  8
A-UNCERTAIN
100
AcDbPolyline
 90
8
 70
1
 10
5900.0
 20
4650.0
 10
8950.0
 20
4650.0
 10
8950.0
 20
6300.0
 10
9050.0
 20
6300.0
 10
9050.0
 20
6500.0
 10
12900.0
 20
6500.0
 10
12900.0
 20
7800.0
 10
5900.0
 20
7800.0
  0
TEXT
  5
C7
330
17
100
AcDbEntity
  8
A-TEXT
100
AcDbText
 10
9100.0
 20
6225.0
 30
0.0
 40
300.0
  1
休闲厅
 11
9100.0
 21
6225.0
 31
0.0
100
AcDbText
  0
LWPOLYLINE
  5
C8
330
17
100
AcDbEntity
  8
A-ROOM
100
AcDbPolyline
 90
4
 70
1
 10
8030.0
 20
0.0
 10
11400.0
 20
0.0
 10
11400.0
 20
4450.0
 10
8030.0
 20
4450.0
  0
TEXT
  5
C9
330
17
100
AcDbEntity
  8
A-TEXT
100
AcDbText
 10
9415.0
 20
2225.0
 30
0.0
 40
300.0
  1
卧室
 11
9415.0
 21
2225.0
 31
0.0
100
AcDbText
  0
LWPOLYLINE
  5
CA
330
17
100
AcDbEntity
  8
A-ROOM
100
AcDbPolyline
 90
4
 70
1
 10
11600.0
 20
0.0
 10
15300.0
 20
0.0
 10
15300.0
 20
4450.0
 10
11600.0
 20
4450.0
  0
TEXT
  5
CB
330
17
100
AcDbEntity
  8
A-TEXT
100
AcDbText
 10
13150.0
 20
2225.0
 30
0.0
 40
300.0
  1
主卧
 11
13150.0
 21
2225.0
 31
0.0
100
AcDbText
  0
LWPOLYLINE
  5
CC
330
17
100
AcDbEntity
  8
A-UNCERTAIN
100
AcDbPolyline
 90
4
 70
1
 10
9050.0
 20
4650.0
 10
11300.0
 20
4650.0
 10
11300.0
 20
6300.0
 10
9050.0
 20
6300.0
  0
TEXT
  5
CD
330
17
100
AcDbEntity
  8
A-TEXT
100
AcDbText
 10
9875.0
 20
5475.0
 30
0.0
 40
300.0
  1
衣帽间
 11
9875.0
 21
5475.0
 31
0.0
100
AcDbText
  0
LWPOLYLINE
  5
CE
330
17
100
AcDbEntity
  8
A-ROOM
100
AcDbPolyline
 90
4
 70
1
 10
13100.0
 20
4650.0
 10
16300.0
 20
4650.0
 10
16300.0
 20
6300.0
 10
13100.0
 20
6300.0
  0
TEXT
  5
CF
330
17
100
AcDbEntity
  8
A-TEXT
100
AcDbText
 10
14400.0
 20
5475.0
 30
0.0
 40
300.0
  1
主卫
 11
14400.0
 21
5475.0
 31
0.0
100
AcDbText
  0
LWPOLYLINE
  5
D0
330
17
100
AcDbEntity
  8
A-UNCERTAIN
100
AcDbPolyline
 90
4
 70
1
 10
13100.0
 20
6500.0
 10
16300.0
 20
6500.0
 10
16300.0
 20
11350.0
 10
13100.0
 20
11350.0
  0
TEXT
  5
D1
330
17
100
AcDbEntity
  8
A-TEXT
100
AcDbText
 10
14400.0
 20
8925.0
 30
0.0
 40
300.0
  1
卧室
 11
14400.0
 21
8925.0
 31
0.0
100
AcDbText
  0
LWPOLYLINE
  5
D2
330
17
100
AcDbEntity
  8
A-ROOM
100
AcDbPolyline
 90
4
 70
1
 10
9850.0
 20
8000.0
 10
12900.0
 20
8000.0
 10
12900.0
 20
10700.0
 10
9850.0
 20
10700.0
  0
TEXT
  5
D3
330
17
100
AcDbEntity
  8
A-TEXT
100
AcDbText
 10
11075.0
 20
9350.0
 30
0.0
 40
300.0
  1
书房
 11
11075.0
 21
9350.0
 31
0.0
100
AcDbText
  0
LWPOLYLINE
  5
D4
330
17
100
AcDbEntity
  8
A-ROOM
100
AcDbPolyline
 90
4
 70
1
 10
7900.0
 20
8000.0
 10
9650.0
 20
8000.0
 10
9650.0
 20
10700.0
 10
7900.0
 20
10700.0
  0
TEXT
  5
D5
330
17
100
AcDbEntity
  8
A-TEXT
100
AcDbText
 10
8475.0
 20
9350.0
 30
0.0
 40
300.0
  1
公卫
 11
8475.0
 21
9350.0
 31
0.0
100
AcDbText
  0
LWPOLYLINE
  5
D6
330
17
100
AcDbEntity
  8
A-ROOM
100
AcDbPolyline
 90
4
 70
1
 10
7900.0
 20
10900.0
 10
13000.0
 20
10900.0
 10
13000.0
 20
13400.0
 10
7900.0
 20
13400.0
  0
TEXT
  5
D7
330
17
100
AcDbEntity
  8
A-TEXT
100
AcDbText
 10
10150.0
 20
12150.0
 30
0.0
 40
300.0
  1
阳台
 11
10150.0
 21
12150.0
 31
0.0
100
AcDbText
  0
LINE
  5
D8
330
17
100
AcDbEntity
  8
A-DIMS
100
AcDbLine
 10
2831.455399061033
 20
15300.0
 30
0.0
 11
2831.455399061033
 21
15900.0
 31
0.0
  0
LINE
  5
D9
330
17
100
AcDbEntity
  8
A-DIMS
100
AcDbLine
 10
7882.159624413145
 20
15300.0
 30
0.0
 11
7882.159624413145
 21
15900.0
 31
0.0
  0
LINE
  5
DA
330
17
100
AcDbEntity
  8
A-DIMS
100
AcDbLine
 10
9757.042253521126
 20
15300.0
 30
0.0
 11
9757.042253521126
 21
15900.0
 31
0.0
  0
LINE
  5
DB
330
17
100
AcDbEntity
  8
A-DIMS
100
AcDbLine
 10
12932.863849765257
 20
15300.0
 30
0.0
 11
12932.863849765257
 21
15900.0
 31
0.0
  0
LINE
  5
DC
330
17
100
AcDbEntity
  8
A-DIMS
100
AcDbLine
 10
16242.605633802816
 20
15300.0
 30
0.0
 11
16242.605633802816
 21
15900.0
 31
0.0
  0
LINE
  5
DD
330
17
100
AcDbEntity
  8
A-DIMS
100
AcDbLine
 10
2831.455399061033
 20
15600.0
 30
0.0
 11
7882.159624413145
 21
15600.0
 31
0.0
  0
LINE
  5
DE
330
17
100
AcDbEntity
  8
A-DIMS
100
AcDbLine
 10
7882.159624413145
 20
15600.0
 30
0.0
 11
9757.042253521126
 21
15600.0
 31
0.0
  0
LINE
  5
DF
330
17
100
AcDbEntity
  8
A-DIMS
100
AcDbLine
 10
9757.042253521126
 20
15600.0
 30
0.0
 11
12932.863849765257
 21
15600.0
 31
0.0
  0
LINE
  5
E0
330
17
100
AcDbEntity
  8
A-DIMS
100
AcDbLine
 10
12932.863849765257
 20
15600.0
 30
0.0
 11
16242.605633802816
 21
15600.0
 31
0.0
  0
TEXT
  5
E1
330
17
100
AcDbEntity
  8
A-DIMS
100
AcDbText
 10
5156.807511737089
 20
15950.0
 30
0.0
 40
180.0
  1
5100
 11
5156.807511737089
 21
15950.0
 31
0.0
100
AcDbText
  0
TEXT
  5
E2
330
17
100
AcDbEntity
  8
A-DIMS
100
AcDbText
 10
8619.600938967134
 20
15950.0
 30
0.0
 40
180.0
  1
1900
 11
8619.600938967134
 21
15950.0
 31
0.0
100
AcDbText
  0
TEXT
  5
E3
330
17
100
AcDbEntity
  8
A-DIMS
100
AcDbText
 10
11144.953051643191
 20
15950.0
 30
0.0
 40
180.0
  1
3200
 11
11144.953051643191
 21
15950.0
 31
0.0
100
AcDbText
  0
TEXT
  5
E4
330
17
100
AcDbEntity
  8
A-DIMS
100
AcDbText
 10
14387.734741784036
 20
15950.0
 30
0.0
 40
180.0
  1
3300
 11
14387.734741784036
 21
15950.0
 31
0.0
100
AcDbText
  0
LINE
  5
E5
330
17
100
AcDbEntity
  8
A-DIMS
100
AcDbLine
 10
2831.455399061033
 20
15300.0
 30
0.0
 11
2831.455399061033
 21
15900.0
 31
0.0
  0
LINE
  5
E6
330
17
100
AcDbEntity
  8
A-DIMS
100
AcDbLine
 10
3807.1596244131456
 20
15300.0
 30
0.0
 11
3807.1596244131456
 21
15900.0
 31
0.0
  0
LINE
  5
E7
330
17
100
AcDbEntity
  8
A-DIMS
100
AcDbLine
 10
6887.3239436619715
 20
15300.0
 30
0.0
 11
6887.3239436619715
 21
15900.0
 31
0.0
  0
LINE
  5
E8
330
17
100
AcDbEntity
  8
A-DIMS
100
AcDbLine
 10
7882.159624413145
 20
15300.0
 30
0.0
 11
7882.159624413145
 21
15900.0
 31
0.0
  0
LINE
  5
E9
330
17
100
AcDbEntity
  8
A-DIMS
100
AcDbLine
 10
8857.863849765257
 20
15300.0
 30
0.0
 11
8857.863849765257
 21
15900.0
 31
0.0
  0
LINE
  5
EA
330
17
100
AcDbEntity
  8
A-DIMS
100
AcDbLine
 10
9757.042253521126
 20
15300.0
 30
0.0
 11
9757.042253521126
 21
15900.0
 31
0.0
  0
LINE
  5
EB
330
17
100
AcDbEntity
  8
A-DIMS
100
AcDbLine
 10
10445.774647887323
 20
15300.0
 30
0.0
 11
10445.774647887323
 21
15900.0
 31
0.0
  0
LINE
  5
EC
330
17
100
AcDbEntity
  8
A-DIMS
100
AcDbLine
 10
12225.0
 20
15300.0
 30
0.0
 11
12225.0
 21
15900.0
 31
0.0
  0
LINE
  5
ED
330
17
100
AcDbEntity
  8
A-DIMS
100
AcDbLine
 10
12932.863849765257
 20
15300.0
 30
0.0
 11
12932.863849765257
 21
15900.0
 31
0.0
  0
LINE
  5
EE
330
17
100
AcDbEntity
  8
A-DIMS
100
AcDbLine
 10
13640.727699530516
 20
15300.0
 30
0.0
 11
13640.727699530516
 21
15900.0
 31
0.0
  0
LINE
  5
EF
330
17
100
AcDbEntity
  8
A-DIMS
100
AcDbLine
 10
15553.87323943662
 20
15300.0
 30
0.0
 11
15553.87323943662
 21
15900.0
 31
0.0
  0
LINE
  5
F0
330
17
100
AcDbEntity
  8
A-DIMS
100
AcDbLine
 10
16242.605633802816
 20
15300.0
 30
0.0
 11
16242.605633802816
 21
15900.0
 31
0.0
  0
LINE
  5
F1
330
17
100
AcDbEntity
  8
A-DIMS
100
AcDbLine
 10
16338.262910798121
 20
15300.0
 30
0.0
 11
16338.262910798121
 21
15900.0
 31
0.0
  0
LINE
  5
F2
330
17
100
AcDbEntity
  8
A-DIMS
100
AcDbLine
 10
2831.455399061033
 20
15600.0
 30
0.0
 11
3807.1596244131456
 21
15600.0
 31
0.0
  0
LINE
  5
F3
330
17
100
AcDbEntity
  8
A-DIMS
100
AcDbLine
 10
3807.1596244131456
 20
15600.0
 30
0.0
 11
6887.3239436619715
 21
15600.0
 31
0.0
  0
LINE
  5
F4
330
17
100
AcDbEntity
  8
A-DIMS
100
AcDbLine
 10
6887.3239436619715
 20
15600.0
 30
0.0
 11
7882.159624413145
 21
15600.0
 31
0.0
  0
LINE
  5
F5
330
17
100
AcDbEntity
  8
A-DIMS
100
AcDbLine
 10
7882.159624413145
 20
15600.0
 30
0.0
 11
8857.863849765257
 21
15600.0
 31
0.0
  0
LINE
  5
F6
330
17
100
AcDbEntity
  8
A-DIMS
100
AcDbLine
 10
8857.863849765257
 20
15600.0
 30
0.0
 11
9757.042253521126
 21
15600.0
 31
0.0
  0
LINE
  5
F7
330
17
100
AcDbEntity
  8
A-DIMS
100
AcDbLine
 10
9757.042253521126
 20
15600.0
 30
0.0
 11
10445.774647887323
 21
15600.0
 31
0.0
  0
LINE
  5
F8
330
17
100
AcDbEntity
  8
A-DIMS
100
AcDbLine
 10
10445.774647887323
 20
15600.0
 30
0.0
 11
12225.0
 21
15600.0
 31
0.0
  0
LINE
  5
F9
330
17
100
AcDbEntity
  8
A-DIMS
100
AcDbLine
 10
12225.0
 20
15600.0
 30
0.0
 11
12932.863849765257
 21
15600.0
 31
0.0
  0
LINE
  5
FA
330
17
100
AcDbEntity
  8
A-DIMS
100
AcDbLine
 10
12932.863849765257
 20
15600.0
 30
0.0
 11
13640.727699530516
 21
15600.0
 31
0.0
  0
LINE
  5
FB
330
17
100
AcDbEntity
  8
A-DIMS
100
AcDbLine
 10
13640.727699530516
 20
15600.0
 30
0.0
 11
15553.87323943662
 21
15600.0
 31
0.0
  0
LINE
  5
FC
330
17
100
AcDbEntity
  8
A-DIMS
100
AcDbLine
 10
15553.87323943662
 20
15600.0
 30
0.0
 11
16242.605633802816
 21
15600.0
 31
0.0
  0
LINE
  5
FD
330
17
100
AcDbEntity
  8
A-DIMS
100
AcDbLine
 10
16242.605633802816
 20
15600.0
 30
0.0
 11
16338.262910798121
 21
15600.0
 31
0.0
  0
TEXT
  5
FE
330
17
100
AcDbEntity
  8
A-DIMS
100
AcDbText
 10
3119.307511737089
 20
15950.0
 30
0.0
 40
180.0
  1
1000
 11
3119.307511737089
 21
15950.0
 31
0.0
100
AcDbText
  0
TEXT
  5
FF
330
17
100
AcDbEntity
  8
A-DIMS
100
AcDbText
 10
5147.241784037558
 20
15950.0
 30
0.0
 40
180.0
  1
3100
 11
5147.241784037558
 21
15950.0
 31
0.0
100
AcDbText
  0
TEXT
  5
100
330
17
100
AcDbEntity
  8
A-DIMS
100
AcDbText
 10
7184.741784037558
 20
15950.0
 30
0.0
 40
180.0
  1
1000
 11
7184.741784037558
 21
15950.0
 31
0.0
100
AcDbText
  0
TEXT
  5
101
330
17
100
AcDbEntity
  8
A-DIMS
100
AcDbText
 10
8170.0117370892
 20
15950.0
 30
0.0
 40
180.0
  1
1000
 11
8170.0117370892
 21
15950.0
 31
0.0
100
AcDbText
  0
TEXT
  5
102
330
17
100
AcDbEntity
  8
A-DIMS
100
AcDbText
 10
9107.453051643191
 20
15950.0
 30
0.0
 40
180.0
  1
900
 11
9107.453051643191
 21
15950.0
 31
0.0
100
AcDbText
  0
TEXT
  5
103
330
17
100
AcDbEntity
  8
A-DIMS
100
AcDbText
 10
9901.408450704224
 20
15950.0
 30
0.0
 40
180.0
  1
700
 11
9901.408450704224
 21
15950.0
 31
0.0
100
AcDbText
  0
TEXT
  5
104
330
17
100
AcDbEntity
  8
A-DIMS
100
AcDbText
 10
11135.387323943662
 20
15950.0
 30
0.0
 40
180.0
  1
1800
 11
11135.387323943662
 21
15950.0
 31
0.0
100
AcDbText
  0
TEXT
  5
105
330
17
100
AcDbEntity
  8
A-DIMS
100
AcDbText
 10
12378.931924882629
 20
15950.0
 30
0.0
 40
180.0
  1
700
 11
12378.931924882629
 21
15950.0
 31
0.0
100
AcDbText
  0
TEXT
  5
106
330
17
100
AcDbEntity
  8
A-DIMS
100
AcDbText
 10
13086.795774647886
 20
15950.0
 30
0.0
 40
180.0
  1
700
 11
13086.795774647886
 21
15950.0
 31
0.0
100
AcDbText
  0
TEXT
  5
107
330
17
100
AcDbEntity
  8
A-DIMS
100
AcDbText
 10
14397.300469483569
 20
15950.0
 30
0.0
 40
180.0
  1
1900
 11
14397.300469483569
 21
15950.0
 31
0.0
100
AcDbText
  0
TEXT
  5
108
330
17
100
AcDbEntity
  8
A-DIMS
100
AcDbText
 10
15698.239436619719
 20
15950.0
 30
0.0
 40
180.0
  1
700
 11
15698.239436619719
 21
15950.0
 31
0.0
100
AcDbText
  0
TEXT
  5
109
330
17
100
AcDbEntity
  8
A-DIMS
100
AcDbText
 10
16090.434272300468
 20
15950.0
 30
0.0
 40
180.0
  1
100
 11
16090.434272300468
 21
15950.0
 31
0.0
100
AcDbText
  0
LINE
  5
10A
330
17
100
AcDbEntity
  8
A-DIMS
100
AcDbLine
 10
0.0
 20
-2700.0
 30
0.0
 11
0.0
 21
-2100.0
 31
0.0
  0
LINE
  5
10B
330
17
100
AcDbEntity
  8
A-DIMS
100
AcDbLine
 10
1396.5962441314553
 20
-2700.0
 30
0.0
 11
1396.5962441314553
 21
-2100.0
 31
0.0
  0
LINE
  5
10C
330
17
100
AcDbEntity
  8
A-DIMS
100
AcDbLine
 10
2793.1924882629105
 20
-2700.0
 30
0.0
 11
2793.1924882629105
 21
-2100.0
 31
0.0
  0
LINE
  5
10D
330
17
100
AcDbEntity
  8
A-DIMS
100
AcDbLine
 10
5777.699530516432
 20
-2700.0
 30
0.0
 11
5777.699530516432
 21
-2100.0
 31
0.0
  0
LINE
  5
10E
330
17
100
AcDbEntity
  8
A-DIMS
100
AcDbLine
 10
7863.028169014085
 20
-2700.0
 30
0.0
 11
7863.028169014085
 21
-2100.0
 31
0.0
  0
LINE
  5
10F
330
17
100
AcDbEntity
  8
A-DIMS
100
AcDbLine
 10
11421.478873239435
 20
-2700.0
 30
0.0
 11
11421.478873239435
 21
-2100.0
 31
0.0
  0
LINE
  5
110
330
17
100
AcDbEntity
  8
A-DIMS
100
AcDbLine
 10
15362.558685446009
 20
-2700.0
 30
0.0
 11
15362.558685446009
 21
-2100.0
 31
0.0
  0
LINE
  5
111
330
17
100
AcDbEntity
  8
A-DIMS
100
AcDbLine
 10
16300.0
 20
-2700.0
 30
0.0
 11
16300.0
 21
-2100.0
 31
0.0
  0
LINE
  5
112
330
17
100
AcDbEntity
  8
A-DIMS
100
AcDbLine
 10
0.0
 20
-2400.0
 30
0.0
 11
1396.5962441314553
 21
-2400.0
 31
0.0
  0
LINE
  5
113
330
17
100
AcDbEntity
  8
A-DIMS
100
AcDbLine
 10
1396.5962441314553
 20
-2400.0
 30
0.0
 11
2793.1924882629105
 21
-2400.0
 31
0.0
  0
LINE
  5
114
330
17
100
AcDbEntity
  8
A-DIMS
100
AcDbLine
 10
2793.1924882629105
 20
-2400.0
 30
0.0
 11
5777.699530516432
 21
-2400.0
 31
0.0
  0
LINE
  5
115
330
17
100
AcDbEntity
  8
A-DIMS
100
AcDbLine
 10
5777.699530516432
 20
-2400.0
 30
0.0
 11
7863.028169014085
 21
-2400.0
 31
0.0
  0
LINE
  5
116
330
17
100
AcDbEntity
  8
A-DIMS
100
AcDbLine
 10
7863.028169014085
 20
-2400.0
 30
0.0
 11
11421.478873239435
 21
-2400.0
 31
0.0
  0
LINE
  5
117
330
17
100
AcDbEntity
  8
A-DIMS
100
AcDbLine
 10
11421.478873239435
 20
-2400.0
 30
0.0
 11
15362.558685446009
 21
-2400.0
 31
0.0
  0
LINE
  5
118
330
17
100
AcDbEntity
  8
A-DIMS
100
AcDbLine
 10
15362.558685446009
 20
-2400.0
 30
0.0
 11
16300.0
 21
-2400.0
 31
0.0
  0
TEXT
  5
119
330
17
100
AcDbEntity
  8
A-DIMS
100
AcDbText
 10
498.2981220657276
 20
-2050.0
 30
0.0
 40
180.0
  1
1400
 11
498.2981220657276
 21
-2050.0
 31
0.0
100
AcDbText
  0
TEXT
  5
11A
330
17
100
AcDbEntity
  8
A-DIMS
100
AcDbText
 10
1894.894366197183
 20
-2050.0
 30
0.0
 40
180.0
  1
1400
 11
1894.894366197183
 21
-2050.0
 31
0.0
100
AcDbText
  0
TEXT
  5
11B
330
17
100
AcDbEntity
  8
A-DIMS
100
AcDbText
 10
4085.4460093896714
 20
-2050.0
 30
0.0
 40
180.0
  1
3000
 11
4085.4460093896714
 21
-2050.0
 31
0.0
100
AcDbText
  0
TEXT
  5
11C
330
17
100
AcDbEntity
  8
A-DIMS
100
AcDbText
 10
6620.363849765258
 20
-2050.0
 30
0.0
 40
180.0
  1
2100
 11
6620.363849765258
 21
-2050.0
 31
0.0
100
AcDbText
  0
TEXT
  5
11D
330
17
100
AcDbEntity
  8
A-DIMS
100
AcDbText
 10
9442.25352112676
 20
-2050.0
 30
0.0
 40
180.0
  1
3600
 11
9442.25352112676
 21
-2050.0
 31
0.0
100
AcDbText
  0
TEXT
  5
11E
330
17
100
AcDbEntity
  8
A-DIMS
100
AcDbText
 10
13192.018779342721
 20
-2050.0
 30
0.0
 40
180.0
  1
3900
 11
13192.018779342721
 21
-2050.0
 31
0.0
100
AcDbText
  0
TEXT
  5
11F
330
17
100
AcDbEntity
  8
A-DIMS
100
AcDbText
 10
15631.279342723004
 20
-2050.0
 30
0.0
 40
180.0
  1
900
 11
15631.279342723004
 21
-2050.0
 31
0.0
100
AcDbText
  0
LINE
  5
120
330
17
100
AcDbEntity
  8
A-DIMS
100
AcDbLine
 10
401.76056338028167
 20
-2700.0
 30
0.0
 11
401.76056338028167
 21
-2100.0
 31
0.0
  0
LINE
  5
121
330
17
100
AcDbEntity
  8
A-DIMS
100
AcDbLine
 10
1396.5962441314553
 20
-2700.0
 30
0.0
 11
1396.5962441314553
 21
-2100.0
 31
0.0
  0
LINE
  5
122
330
17
100
AcDbEntity
  8
A-DIMS
100
AcDbLine
 10
2391.431924882629
 20
-2700.0
 30
0.0
 11
2391.431924882629
 21
-2100.0
 31
0.0
  0
LINE
  5
123
330
17
100
AcDbEntity
  8
A-DIMS
100
AcDbLine
 10
2793.1924882629105
 20
-2700.0
 30
0.0
 11
2793.1924882629105
 21
-2100.0
 31
0.0
  0
LINE
  5
124
330
17
100
AcDbEntity
  8
A-DIMS
100
AcDbLine
 10
4878.521126760563
 20
-2700.0
 30
0.0
 11
4878.521126760563
 21
-2100.0
 31
0.0
  0
LINE
  5
125
330
17
100
AcDbEntity
  8
A-DIMS
100
AcDbLine
 10
5777.699530516432
 20
-2700.0
 30
0.0
 11
5777.699530516432
 21
-2100.0
 31
0.0
  0
LINE
  5
126
330
17
100
AcDbEntity
  8
A-DIMS
100
AcDbLine
 10
7174.295774647887
 20
-2700.0
 30
0.0
 11
7174.295774647887
 21
-2100.0
 31
0.0
  0
LINE
  5
127
330
17
100
AcDbEntity
  8
A-DIMS
100
AcDbLine
 10
7863.028169014085
 20
-2700.0
 30
0.0
 11
7863.028169014085
 21
-2100.0
 31
0.0
  0
LINE
  5
128
330
17
100
AcDbEntity
  8
A-DIMS
100
AcDbLine
 10
8551.760563380281
 20
-2700.0
 30
0.0
 11
8551.760563380281
 21
-2100.0
 31
0.0
  0
LINE
  5
129
330
17
100
AcDbEntity
  8
A-DIMS
100
AcDbLine
 10
10732.74647887324
 20
-2700.0
 30
0.0
 11
10732.74647887324
 21
-2100.0
 31
0.0
  0
LINE
  5
12A
330
17
100
AcDbEntity
  8
A-DIMS
100
AcDbLine
 10
11421.478873239435
 20
-2700.0
 30
0.0
 11
11421.478873239435
 21
-2100.0
 31
0.0
  0
LINE
  5
12B
330
17
100
AcDbEntity
  8
A-DIMS
100
AcDbLine
 10
12129.342723004695
 20
-2700.0
 30
0.0
 11
12129.342723004695
 21
-2100.0
 31
0.0
  0
LINE
  5
12C
330
17
100
AcDbEntity
  8
A-DIMS
100
AcDbLine
 10
14654.69483568075
 20
-2700.0
 30
0.0
 11
14654.69483568075
 21
-2100.0
 31
0.0
  0
LINE
  5
12D
330
17
100
AcDbEntity
  8
A-DIMS
100
AcDbLine
 10
15362.558685446009
 20
-2700.0
 30
0.0
 11
15362.558685446009
 21
-2100.0
 31
0.0
  0
LINE
  5
12E
330
17
100
AcDbEntity
  8
A-DIMS
100
AcDbLine
 10
16089.553990610328
 20
-2700.0
 30
0.0
 11
16089.553990610328
 21
-2100.0
 31
0.0
  0
LINE
  5
12F
330
17
100
AcDbEntity
  8
A-DIMS
100
AcDbLine
 10
16300.0
 20
-2700.0
 30
0.0
 11
16300.0
 21
-2100.0
 31
0.0
  0
LINE
  5
130
330
17
100
AcDbEntity
  8
A-DIMS
100
AcDbLine
 10
16386.091549295776
 20
-2700.0
 30
0.0
 11
16386.091549295776
 21
-2100.0
 31
0.0
  0
LINE
  5
131
330
17
100
AcDbEntity
  8
A-DIMS
100
AcDbLine
 10
401.76056338028167
 20
-2400.0
 30
0.0
 11
1396.5962441314553
 21
-2400.0
 31
0.0
  0
LINE
  5
132
330
17
100
AcDbEntity
  8
A-DIMS
100
AcDbLine
 10
1396.5962441314553
 20
-2400.0
 30
0.0
 11
2391.431924882629
 21
-2400.0
 31
0.0
  0
LINE
  5
133
330
17
100
AcDbEntity
  8
A-DIMS
100
AcDbLine
 10
2391.431924882629
 20
-2400.0
 30
0.0
 11
2793.1924882629105
 21
-2400.0
 31
0.0
  0
LINE
  5
134
330
17
100
AcDbEntity
  8
A-DIMS
100
AcDbLine
 10
2793.1924882629105
 20
-2400.0
 30
0.0
 11
4878.521126760563
 21
-2400.0
 31
0.0
  0
LINE
  5
135
330
17
100
AcDbEntity
  8
A-DIMS
100
AcDbLine
 10
4878.521126760563
 20
-2400.0
 30
0.0
 11
5777.699530516432
 21
-2400.0
 31
0.0
  0
LINE
  5
136
330
17
100
AcDbEntity
  8
A-DIMS
100
AcDbLine
 10
5777.699530516432
 20
-2400.0
 30
0.0
 11
7174.295774647887
 21
-2400.0
 31
0.0
  0
LINE
  5
137
330
17
100
AcDbEntity
  8
A-DIMS
100
AcDbLine
 10
7174.295774647887
 20
-2400.0
 30
0.0
 11
7863.028169014085
 21
-2400.0
 31
0.0
  0
LINE
  5
138
330
17
100
AcDbEntity
  8
A-DIMS
100
AcDbLine
 10
7863.028169014085
 20
-2400.0
 30
0.0
 11
8551.760563380281
 21
-2400.0
 31
0.0
  0
LINE
  5
139
330
17
100
AcDbEntity
  8
A-DIMS
100
AcDbLine
 10
8551.760563380281
 20
-2400.0
 30
0.0
 11
10732.74647887324
 21
-2400.0
 31
0.0
  0
LINE
  5
13A
330
17
100
AcDbEntity
  8
A-DIMS
100
AcDbLine
 10
10732.74647887324
 20
-2400.0
 30
0.0
 11
11421.478873239435
 21
-2400.0
 31
0.0
  0
LINE
  5
13B
330
17
100
AcDbEntity
  8
A-DIMS
100
AcDbLine
 10
11421.478873239435
 20
-2400.0
 30
0.0
 11
12129.342723004695
 21
-2400.0
 31
0.0
  0
LINE
  5
13C
330
17
100
AcDbEntity
  8
A-DIMS
100
AcDbLine
 10
12129.342723004695
 20
-2400.0
 30
0.0
 11
14654.69483568075
 21
-2400.0
 31
0.0
  0
LINE
  5
13D
330
17
100
AcDbEntity
  8
A-DIMS
100
AcDbLine
 10
14654.69483568075
 20
-2400.0
 30
0.0
 11
15362.558685446009
 21
-2400.0
 31
0.0
  0
LINE
  5
13E
330
17
100
AcDbEntity
  8
A-DIMS
100
AcDbLine
 10
15362.558685446009
 20
-2400.0
 30
0.0
 11
16089.553990610328
 21
-2400.0
 31
0.0
  0
LINE
  5
13F
330
17
100
AcDbEntity
  8
A-DIMS
100
AcDbLine
 10
16089.553990610328
 20
-2400.0
 30
0.0
 11
16300.0
 21
-2400.0
 31
0.0
  0
LINE
  5
140
330
17
100
AcDbEntity
  8
A-DIMS
100
AcDbLine
 10
16300.0
 20
-2400.0
 30
0.0
 11
16386.091549295776
 21
-2400.0
 31
0.0
  0
TEXT
  5
141
330
17
100
AcDbEntity
  8
A-DIMS
100
AcDbText
 10
699.1784037558684
 20
-2050.0
 30
0.0
 40
180.0
  1
1000
 11
699.1784037558684
 21
-2050.0
 31
0.0
100
AcDbText
  0
TEXT
  5
142
330
17
100
AcDbEntity
  8
A-DIMS
100
AcDbText
 10
1694.0140845070423
 20
-2050.0
 30
0.0
 40
180.0
  1
1000
 11
1694.0140845070423
 21
-2050.0
 31
0.0
100
AcDbText
  0
TEXT
  5
143
330
17
100
AcDbEntity
  8
A-DIMS
100
AcDbText
 10
2392.31220657277
 20
-2050.0
 30
0.0
 40
180.0
  1
400
 11
2392.31220657277
 21
-2050.0
 31
0.0
100
AcDbText
  0
TEXT
  5
144
330
17
100
AcDbEntity
  8
A-DIMS
100
AcDbText
 10
3635.8568075117364
 20
-2050.0
 30
0.0
 40
180.0
  1
2100
 11
3635.8568075117364
 21
-2050.0
 31
0.0
100
AcDbText
  0
TEXT
  5
145
330
17
100
AcDbEntity
  8
A-DIMS
100
AcDbText
 10
5128.110328638497
 20
-2050.0
 30
0.0
 40
180.0
  1
900
 11
5128.110328638497
 21
-2050.0
 31
0.0
100
AcDbText
  0
TEXT
  5
146
330
17
100
AcDbEntity
  8
A-DIMS
100
AcDbText
 10
6275.997652582159
 20
-2050.0
 30
0.0
 40
180.0
  1
1400
 11
6275.997652582159
 21
-2050.0
 31
0.0
100
AcDbText
  0
TEXT
  5
147
330
17
100
AcDbEntity
  8
A-DIMS
100
AcDbText
 10
7318.661971830986
 20
-2050.0
 30
0.0
 40
180.0
  1
700
 11
7318.661971830986
 21
-2050.0
 31
0.0
100
AcDbText
  0
TEXT
  5
148
330
17
100
AcDbEntity
  8
A-DIMS
100
AcDbText
 10
8007.3943661971825
 20
-2050.0
 30
0.0
 40
180.0
  1
700
 11
8007.3943661971825
 21
-2050.0
 31
0.0
100
AcDbText
  0
TEXT
  5
149
330
17
100
AcDbEntity
  8
A-DIMS
100
AcDbText
 10
9442.25352112676
 20
-2050.0
 30
0.0
 40
180.0
  1
2200
 11
9442.25352112676
 21
-2050.0
 31
0.0
100
AcDbText
  0
TEXT
  5
14A
330
17
100
AcDbEntity
  8
A-DIMS
100
AcDbText
 10
10877.112676056338
 20
-2050.0
 30
0.0
 40
180.0
  1
700
 11
10877.112676056338
 21
-2050.0
 31
0.0
100
AcDbText
  0
TEXT
  5
14B
330
17
100
AcDbEntity
  8
A-DIMS
100
AcDbText
 10
11575.410798122066
 20
-2050.0
 30
0.0
 40
180.0
  1
700
 11
11575.410798122066
 21
-2050.0
 31
0.0
100
AcDbText
  0
TEXT
  5
14C
330
17
100
AcDbEntity
  8
A-DIMS
100
AcDbText
 10
13192.018779342721
 20
-2050.0
 30
0.0
 40
180.0
  1
2500
 11
13192.018779342721
 21
-2050.0
 31
0.0
100
AcDbText
  0
TEXT
  5
14D
330
17
100
AcDbEntity
  8
A-DIMS
100
AcDbText
 10
14808.62676056338
 20
-2050.0
 30
0.0
 40
180.0
  1
700
 11
14808.62676056338
 21
-2050.0
 31
0.0
100
AcDbText
  0
TEXT
  5
14E
330
17
100
AcDbEntity
  8
A-DIMS
100
AcDbText
 10
15526.056338028167
 20
-2050.0
 30
0.0
 40
180.0
  1
700
 11
15526.056338028167
 21
-2050.0
 31
0.0
100
AcDbText
  0
TEXT
  5
14F
330
17
100
AcDbEntity
  8
A-DIMS
100
AcDbText
 10
15994.776995305165
 20
-2050.0
 30
0.0
 40
180.0
  1
200
 11
15994.776995305165
 21
-2050.0
 31
0.0
100
AcDbText
  0
TEXT
  5
150
330
17
100
AcDbEntity
  8
A-DIMS
100
AcDbText
 10
16143.045774647888
 20
-2050.0
 30
0.0
 40
180.0
  1
100
 11
16143.045774647888
 21
-2050.0
 31
0.0
100
AcDbText
  0
ENDSEC
  0
SECTION
  2
OBJECTS
  0
DICTIONARY
  5
A
330
0
100
AcDbDictionary
281
1
  3
ACAD_COLOR
350
B
  3
ACAD_GROUP
350
C
  3
ACAD_LAYOUT
350
D
  3
ACAD_MATERIAL
350
E
  3
ACAD_MLEADERSTYLE
350
F
  3
ACAD_MLINESTYLE
350
10
  3
ACAD_PLOTSETTINGS
350
11
  3
ACAD_PLOTSTYLENAME
350
12
  3
ACAD_SCALELIST
350
14
  3
ACAD_TABLESTYLE
350
15
  3
ACAD_VISUALSTYLE
350
16
  3
EZDXF_META
350
2D
  0
DICTIONARY
  5
B
330
A
100
AcDbDictionary
281
1
  0
DICTIONARY
  5
C
330
A
100
AcDbDictionary
281
1
  0
DICTIONARY
  5
D
330
A
100
AcDbDictionary
281
1
  3
Model
350
1A
  3
Layout1
350
1E
  0
DICTIONARY
  5
E
330
A
100
AcDbDictionary
281
1
  3
ByBlock
350
1F
  3
ByLayer
350
20
  3
Global
350
21
  0
DICTIONARY
  5
F
330
A
100
AcDbDictionary
281
1
  3
Standard
350
2C
  0
DICTIONARY
  5
10
330
A
100
AcDbDictionary
281
1
  3
Standard
350
22
  0
DICTIONARY
  5
11
330
A
100
AcDbDictionary
281
1
  0
ACDBDICTIONARYWDFLT
  5
12
330
A
100
AcDbDictionary
281
1
  3
Normal
350
13
100
AcDbDictionaryWithDefault
340
13
  0
ACDBPLACEHOLDER
  5
13
330
12
  0
DICTIONARY
  5
14
330
A
100
AcDbDictionary
281
1
  0
DICTIONARY
  5
15
330
A
100
AcDbDictionary
281
1
  0
DICTIONARY
  5
16
330
A
100
AcDbDictionary
281
1
  0
LAYOUT
  5
1A
330
D
100
AcDbPlotSettings
  1

  4
A3
  6

 40
7.5
 41
20.0
 42
7.5
 43
20.0
 44
420.0
 45
297.0
 46
0.0
 47
0.0
 48
0.0
 49
0.0
140
0.0
141
0.0
142
1.0
143
1.0
 70
1024
 72
1
 73
0
 74
5
  7

 75
16
 76
0
 77
2
 78
300
147
1.0
148
0.0
149
0.0
100
AcDbLayout
  1
Model
 70
1
 71
0
 10
0.0
 20
0.0
 11
420.0
 21
297.0
 12
0.0
 22
0.0
 32
0.0
 14
1e+20
 24
1e+20
 34
1e+20
 15
-1e+20
 25
-1e+20
 35
-1e+20
146
0.0
 13
0.0
 23
0.0
 33
0.0
 16
1.0
 26
0.0
 36
0.0
 17
0.0
 27
1.0
 37
0.0
 76
1
330
17
  0
LAYOUT
  5
1E
330
D
100
AcDbPlotSettings
  1

  4
A3
  6

 40
7.5
 41
20.0
 42
7.5
 43
20.0
 44
420.0
 45
297.0
 46
0.0
 47
0.0
 48
0.0
 49
0.0
140
0.0
141
0.0
142
1.0
143
1.0
 70
0
 72
1
 73
0
 74
5
  7

 75
16
 76
0
 77
2
 78
300
147
1.0
148
0.0
149
0.0
100
AcDbLayout
  1
Layout1
 70
1
 71
1
 10
0.0
 20
0.0
 11
420.0
 21
297.0
 12
0.0
 22
0.0
 32
0.0
 14
1e+20
 24
1e+20
 34
1e+20
 15
-1e+20
 25
-1e+20
 35
-1e+20
146
0.0
 13
0.0
 23
0.0
 33
0.0
 16
1.0
 26
0.0
 36
0.0
 17
0.0
 27
1.0
 37
0.0
 76
1
330
1B
  0
MATERIAL
  5
1F
102
{ACAD_REACTORS
330
E
102
}
330
E
100
AcDbMaterial
  1
ByBlock
  2

 70
0
 40
1.0
 71
1
 41
1.0
 91
-1023410177
 42
1.0
 72
1
  3

 73
1
 74
1
 75
1
 44
0.5
 73
0
 45
1.0
 46
1.0
 77
1
  4

 78
1
 79
1
170
1
 48
1.0
171
1
  6

172
1
173
1
174
1
140
1.0
141
1.0
175
1
  7

176
1
177
1
178
1
143
1.0
179
1
  8

270
1
271
1
272
1
145
1.0
146
1.0
273
1
  9

274
1
275
1
276
1
 42
1.0
 72
1
  3

 73
1
 74
1
 75
1
 94
63
  0
MATERIAL
  5
20
102
{ACAD_REACTORS
330
E
102
}
330
E
100
AcDbMaterial
  1
ByLayer
  2

 70
0
 40
1.0
 71
1
 41
1.0
 91
-1023410177
 42
1.0
 72
1
  3

 73
1
 74
1
 75
1
 44
0.5
 73
0
 45
1.0
 46
1.0
 77
1
  4

 78
1
 79
1
170
1
 48
1.0
171
1
  6

172
1
173
1
174
1
140
1.0
141
1.0
175
1
  7

176
1
177
1
178
1
143
1.0
179
1
  8

270
1
271
1
272
1
145
1.0
146
1.0
273
1
  9

274
1
275
1
276
1
 42
1.0
 72
1
  3

 73
1
 74
1
 75
1
 94
63
  0
MATERIAL
  5
21
102
{ACAD_REACTORS
330
E
102
}
330
E
100
AcDbMaterial
  1
Global
  2

 70
0
 40
1.0
 71
1
 41
1.0
 91
-1023410177
 42
1.0
 72
1
  3

 73
1
 74
1
 75
1
 44
0.5
 73
0
 45
1.0
 46
1.0
 77
1
  4

 78
1
 79
1
170
1
 48
1.0
171
1
  6

172
1
173
1
174
1
140
1.0
141
1.0
175
1
  7

176
1
177
1
178
1
143
1.0
179
1
  8

270
1
271
1
272
1
145
1.0
146
1.0
273
1
  9

274
1
275
1
276
1
 42
1.0
 72
1
  3

 73
1
 74
1
 75
1
 94
63
  0
MLINESTYLE
  5
22
102
{ACAD_REACTORS
330
10
102
}
330
10
100
AcDbMlineStyle
  2
Standard
 70
0
  3

 62
256
 51
90.0
 52
90.0
 71
2
 49
0.5
 62
256
  6
BYLAYER
 49
-0.5
 62
256
  6
BYLAYER
  0
MLEADERSTYLE
  5
2C
102
{ACAD_REACTORS
330
F
102
}
330
F
100
AcDbMLeaderStyle
179
2
170
2
171
1
172
0
 90
2
 40
0.0
 41
0.0
173
1
 91
-1056964608
 92
-2
290
1
 42
2.0
291
1
 43
8.0
  3
Standard
 44
4.0
300

342
29
174
1
175
1
176
0
178
1
 93
-1056964608
 45
4.0
292
0
297
0
 46
4.0
 94
-1056964608
 47
1.0
 49
1.0
140
1.0
294
1
141
0.0
177
0
142
1.0
295
0
296
0
143
3.75
271
0
272
9
273
9
  0
DICTIONARY
  5
2D
330
A
100
AcDbDictionary
280
1
281
1
  3
CREATED_BY_EZDXF
350
2E
  3
WRITTEN_BY_EZDXF
350
153
  0
DICTIONARYVAR
  5
2E
330
2D
100
DictionaryVariables
280
0
  1
1.4.4 @ 2026-09-23T14:28:08.535553+00:00
  0
DICTIONARYVAR
  5
153
330
2D
100
DictionaryVariables
280
0
  1
1.4.4 @ 2026-09-23T14:28:08.539719+00:00
  0
ENDSEC
  0
EOF
