  0
SECTION
  2
HEADER
  9
$ACADVER
  1
AC1032
  9
$ACADMAINTVER
 90
4
  9
$DWGCODEPAGE
  3
ANSI_1252
  9
$LASTSAVEDBY
  1
ezdxf
  9
$REQUIREDVERSIONS
160
0
  9
$INSBASE
 10
0.0
 20
0.0
 30
0.0
  9
$EXTMIN
 10
1e+20
 20
1e+20
 30
1e+20
  9
$EXTMAX
 10
-1e+20
 20
-1e+20
 30
-1e+20
  9
$LIMMIN
 10
0.0
 20
0.0
  9
$LIMMAX
 10
420.0
 20
297.0
  9
$ORTHOMODE
 70
0
  9
$REGENMODE
 70
1
  9
$FILLMODE
 70
1
  9
$QTEXTMODE
 70
0
  9
$MIRRTEXT
 70
1
  9
$LTSCALE
 40
1.0
  9
$ATTMODE
 70
1
  9
$TEXTSIZE
 40
2.5
  9
$TRACEWID
 40
1.0
  9
$TEXTSTYLE
  7
OpenSans
  9
$CLAYER
  8
0
  9
$CELTYPE
  6
ByLayer
  9
$CECOLOR
 62
256
  9
$CELTSCALE
 40
1.0
  9
$DISPSILH
 70
0
  9
$DIMSCALE
 40
1.0
  9
$DIMASZ
 40
0.175
  9
$DIMEXO
 40
0.125
  9
$DIMDLI
 40
3.75
  9
$DIMRND
 40
0.0
  9
$DIMDLE
 40
0.0
  9
$DIMEXE
 40
0.375
  9
$DIMTP
 40
0.0
  9
$DIMTM
 40
0.0
  9
$DIMTXT
 40
0.25
  9
$DIMCEN
 40
2.5
  9
$DIMTSZ
 40
0.0
  9
$DIMTOL
 70
0
  9
$DIMLIM
 70
0
  9
$DIMTIH
 70
0
  9
$DIMTOH
 70
0
  9
$DIMSE1
 70
0
  9
$DIMSE2
 70
0
  9
$DIMTAD
 70
1
  9
$DIMZIN
 70
12
  9
$DIMBLK
  1
ARCHTICK
  9
$DIMASO
 70
1
  9
$DIMSHO
 70
1
  9
$DIMPOST
  1

  9
$DIMAPOST
  1

  9
$DIMALT
 70
0
  9
$DIMALTD
 70
3
  9
$DIMALTF
 40
0.03937007874
  9
$DIMLFAC
 40
100.0
  9
$DIMTOFL
 70
1
  9
$DIMTVP
 40
0.0
  9
$DIMTIX
 70
0
  9
$DIMSOXD
 70
0
  9
$DIMSAH
 70
0
  9
$DIMBLK1
  1

  9
$DIMBLK2
  1

  9
$DIMSTYLE
  2
EZDXF
  9
$DIMCLRD
 70
0
  9
$DIMCLRE
 70
0
  9
$DIMCLRT
 70
0
  9
$DIMTFAC
 40
0.5
  9
$DIMGAP
 40
0.1
  9
$DIMJUST
 70
0
  9
$DIMSD1
 70
0
  9
$DIMSD2
 70
0
  9
$DIMTOLJ
 70
0
  9
$DIMTZIN
 70
8
  9
$DIMALTZ
 70
0
  9
$DIMALTTZ
 70
0
  9
$DIMUPT
 70
1
  9
$DIMDEC
 70
2
  9
$DIMTDEC
 70
2
  9
$DIMALTU
 70
2
  9
$DIMALTTD
 70
3
  9
$DIMTXSTY
  7
OpenSansCondensed-Light
  9
$DIMAUNIT
 70
0
  9
$DIMADEC
 70
2
  9
$DIMALTRND
 40
0.0
  9
$DIMAZIN
 70
3
  9
$DIMDSEP
 70
46
  9
$DIMATFIT
 70
3
  9
$DIMFRAC
 70
0
  9
$DIMLDRBLK
  1

  9
$DIMLUNIT
 70
2
  9
$DIMLWD
 70
-2
  9
$DIMLWE
 70
-2
  9
$DIMTMOVE
 70
2
  9
$DIMFXL
 40
1.0
  9
$DIMFXLON
 70
0
  9
$DIMJOGANG
 40
0.785398163397
  9
$DIMTFILL
 70
0
  9
$DIMTFILLCLR
 70
0
  9
$DIMARCSYM
 70
0
  9
$DIMLTYPE
  6

  9
$DIMLTEX1
  6

  9
$DIMLTEX2
  6

  9
$DIMTXTDIRECTION
 70
0
  9
$LUNITS
 70
2
  9
$LUPREC
 70
4
  9
$SKETCHINC
 40
1.0
  9
$FILLETRAD
 40
10.0
  9
$AUNITS
 70
0
  9
$AUPREC
 70
2
  9
$MENU
  1
.
  9
$ELEVATION
 40
0.0
  9
$PELEVATION
 40
0.0
  9
$THICKNESS
 40
0.0
  9
$LIMCHECK
 70
0
  9
$CHAMFERA
 40
0.0
  9
$CHAMFERB
 40
0.0
  9
$CHAMFERC
 40
0.0
  9
$CHAMFERD
 40
0.0
  9
$SKPOLY
 70
0
  9
$TDCREATE
 40
2461310.6975
  9
$TDUCREATE
 40
2458532.153996898
  9
$TDUPDATE
 40
2461310.6975
  9
$TDUUPDATE
 40
2458532.1544311
  9
$TDINDWG
 40
0.0
  9
$TDUSRTIMER
 40
0.0
  9
$USRTIMER
 70
1
  9
$ANGBASE
 50
0.0
  9
$ANGDIR
 70
0
  9
$PDMODE
 70
0
  9
$PDSIZE
 40
0.0
  9
$PLINEWID
 40
0.0
  9
$SPLFRAME
 70
0
  9
$SPLINETYPE
 70
6
  9
$SPLINESEGS
 70
8
  9
$HANDSEED
  5
B2
  9
$SURFTAB1
 70
6
  9
$SURFTAB2
 70
6
  9
$SURFTYPE
 70
6
  9
$SURFU
 70
6
  9
$SURFV
 70
6
  9
$UCSBASE
  2

  9
$UCSNAME
  2

  9
$UCSORG
 10
0.0
 20
0.0
 30
0.0
  9
$UCSXDIR
 10
1.0
 20
0.0
 30
0.0
  9
$UCSYDIR
 10
0.0
 20
1.0
 30
0.0
  9
$UCSORTHOREF
  2

  9
$UCSORTHOVIEW
 70
0
  9
$UCSORGTOP
 10
0.0
 20
0.0
 30
0.0
  9
$UCSORGBOTTOM
 10
0.0
 20
0.0
 30
0.0
  9
$UCSORGLEFT
 10
0.0
 20
0.0
 30
0.0
  9
$UCSORGRIGHT
 10
0.0
 20
0.0
 30
0.0
  9
$UCSORGFRONT
 10
0.0
 20
0.0
 30
0.0
  9
$UCSORGBACK
 10
0.0
 20
0.0
 30
0.0
  9
$PUCSBASE
  2

  9
$PUCSNAME
  2

  9
$PUCSORG
 10
0.0
 20
0.0
 30
0.0
  9
$PUCSXDIR
 10
1.0
 20
0.0
 30
0.0
  9
$PUCSYDIR
 10
0.0
 20
1.0
 30
0.0
  9
$PUCSORTHOREF
  2

  9
$PUCSORTHOVIEW
 70
0
  9
$PUCSORGTOP
 10
0.0
 20
0.0
 30
0.0
  9
$PUCSORGBOTTOM
 10
0.0
 20
0.0
 30
0.0
  9
$PUCSORGLEFT
 10
0.0
 20
0.0
 30
0.0
  9
$PUCSORGRIGHT
 10
0.0
 20
0.0
 30
0.0
  9
$PUCSORGFRONT
 10
0.0
 20
0.0
 30
0.0
  9
$PUCSORGBACK
 10
0.0
 20
0.0
 30
0.0
  9
$USERI1
 70
0
  9
$USERI2
 70
0
  9
$USERI3
 70
0
  9
$USERI4
 70
0
  9
$USERI5
 70
0
  9
$USERR1
 40
0.0
  9
$USERR2
 40
0.0
  9
$USERR3
 40
0.0
  9
$USERR4
 40
0.0
  9
$USERR5
 40
0.0
  9
$WORLDVIEW
 70
1
  9
$SHADEDGE
 70
3
  9
$SHADEDIF
 70
70
  9
$TILEMODE
 70
1
  9
$MAXACTVP
 70
64
  9
$PINSBASE
 10
0.0
 20
0.0
 30
0.0
  9
$PLIMCHECK
 70
0
  9
$PEXTMIN
 10
1e+20
 20
1e+20
 30
1e+20
  9
$PEXTMAX
 10
-1e+20
 20
-1e+20
 30
-1e+20
  9
$PLIMMIN
 10
0.0
 20
0.0
  9
$PLIMMAX
 10
420.0
 20
297.0
  9
$UNITMODE
 70
0
  9
$VISRETAIN
 70
1
  9
$PLINEGEN
 70
0
  9
$PSLTSCALE
 70
1
  9
$TREEDEPTH
 70
3020
  9
$CMLSTYLE
  2
Standard
  9
$CMLJUST
 70
0
  9
$CMLSCALE
 40
20.0
  9
$PROXYGRAPHICS
 70
1
  9
$MEASUREMENT
 70
1
  9
$CELWEIGHT
370
-1
  9
$ENDCAPS
280
0
  9
$JOINSTYLE
280
0
  9
$LWDISPLAY
290
0
  9
$INSUNITS
 70
4
  9
$HYPERLINKBASE
  1

  9
$STYLESHEET
  1

  9
$XEDIT
290
1
  9
$CEPSNTYPE
380
0
  9
$PSTYLEMODE
290
1
  9
$FINGERPRINTGUID
  2
{81FCBDCD-580D-4A97-B814-AF4A074A8771}
  9
$VERSIONGUID
  2
{C6ABBCA4-DF3B-4EFD-87BD-FD603DB063B2}
  9
$EXTNAMES
290
1
  9
$PSVPSCALE
 40
0.0
  9
$OLESTARTUP
290
0
  9
$SORTENTS
280
127
  9
$INDEXCTL
280
0
  9
$HIDETEXT
280
1
  9
$XCLIPFRAME
280
1
  9
$HALOGAP
280
0
  9
$OBSCOLOR
 70
257
  9
$OBSLTYPE
280
0
  9
$INTERSECTIONDISPLAY
280
0
  9
$INTERSECTIONCOLOR
 70
257
  9
$DIMASSOC
280
2
  9
$PROJECTNAME
  1

  9
$CAMERADISPLAY
290
0
  9
$LENSLENGTH
 40
50.0
  9
$CAMERAHEIGHT
 40
0.0
  9
$STEPSPERSEC
 40
24.0
  9
$STEPSIZE
 40
100.0
  9
$3DDWFPREC
 40
2.0
  9
$PSOLWIDTH
 40
0.005
  9
$PSOLHEIGHT
 40
0.08
  9
$LOFTANG1
 40
1.570796326795
  9
$LOFTANG2
 40
1.570796326795
  9
$LOFTMAG1
 40
0.0
  9
$LOFTMAG2
 40
0.0
  9
$LOFTPARAM
 70
7
  9
$LOFTNORMALS
280
1
  9
$LATITUDE
 40
37.795
  9
$LONGITUDE
 40
-122.394
  9
$NORTHDIRECTION
 40
0.0
  9
$TIMEZONE
 70
-8000
  9
$LIGHTGLYPHDISPLAY
280
1
  9
$TILEMODELIGHTSYNCH
280
1
  9
$CMATERIAL
347
20
  9
$SOLIDHIST
280
0
  9
$SHOWHIST
280
1
  9
$DWFFRAME
280
2
  9
$DGNFRAME
280
2
  9
$REALWORLDSCALE
290
1
  9
$INTERFERECOLOR
 62
256
  9
$CSHADOW
280
0
  9
$SHADOWPLANELOCATION
 40
0.0
  0
ENDSEC
  0
SECTION
  2
CLASSES
  0
CLASS
  1
ACDBDICTIONARYWDFLT
  2
AcDbDictionaryWithDefault
  3
ObjectDBX Classes
 90
0
 91
0
280
0
281
0
  0
CLASS
  1
SUN
  2
AcDbSun
  3
SCENEOE
 90
1153
 91
0
280
0
281
0
  0
CLASS
  1
VISUALSTYLE
  2
AcDbVisualStyle
  3
ObjectDBX Classes
 90
4095
 91
0
280
0
281
0
  0
CLASS
  1
MATERIAL
  2
AcDbMaterial
  3
ObjectDBX Classes
 90
1153
 91
0
280
0
281
0
  0
CLASS
  1
SCALE
  2
AcDbScale
  3
ObjectDBX Classes
 90
1153
 91
0
280
0
281
0
  0
CLASS
  1
TABLESTYLE
  2
AcDbTableStyle
  3
ObjectDBX Classes
 90
4095
 91
0
280
0
281
0
  0
CLASS
  1
MLEADERSTYLE
  2
AcDbMLeaderStyle
  3
ACDB_MLEADERSTYLE_CLASS
 90
4095
 91
0
280
0
281
0
  0
CLASS
  1
DICTIONARYVAR
  2
AcDbDictionaryVar
  3
ObjectDBX Classes
 90
0
 91
0
280
0
281
0
  0
CLASS
  1
CELLSTYLEMAP
  2
AcDbCellStyleMap
  3
ObjectDBX Classes
 90
1152
 91
0
280
0
281
0
  0
CLASS
  1
MENTALRAYRENDERSETTINGS
  2
AcDbMentalRayRenderSettings
  3
SCENEOE
 90
1024
 91
0
280
0
281
0
  0
CLASS
  1
ACDBDETAILVIEWSTYLE
  2
AcDbDetailViewStyle
  3
ObjectDBX Classes
 90
1025
 91
0
280
0
281
0
  0
CLASS
  1
ACDBSECTIONVIEWSTYLE
  2
AcDbSectionViewStyle
  3
ObjectDBX Classes
 90
1025
 91
0
280
0
281
0
  0
CLASS
  1
RASTERVARIABLES
  2
AcDbRasterVariables
  3
ISM
 90
0
 91
0
280
0
281
0
  0
CLASS
  1
LAYOUT
  2
AcDbLayout
  3
ObjectDBX Classes
 90
0
 91
0
280
0
281
0
  0
CLASS
  1
ACDBPLACEHOLDER
  2
AcDbPlaceHolder
  3
ObjectDBX Classes
 90
0
 91
0
280
0
281
0
  0
ENDSEC
  0
SECTION
  2
TABLES
  0
TABLE
  2
VPORT
  5
8
330
0
100
AcDbSymbolTable
 70
1
  0
VPORT
  5
23
330
8
100
AcDbSymbolTableRecord
100
AcDbViewportTableRecord
  2
*Active
 70
0
 10
0.0
 20
0.0
 11
1.0
 21
1.0
 12
0.0
 22
0.0
 13
0.0
 23
0.0
 14
0.5
 24
0.5
 15
0.5
 25
0.5
 16
0.0
 26
0.0
 36
1.0
 17
0.0
 27
0.0
 37
0.0
 40
1000.0
 41
1.34
 42
50.0
 43
0.0
 44
0.0
 50
0.0
 51
0.0
 71
0
 72
1000
 73
1
 74
3
 75
0
 76
0
 77
0
 78
0
281
0
 65
0
146
0.0
  0
ENDTAB
  0
TABLE
  2
LTYPE
  5
2
330
0
100
AcDbSymbolTable
 70
21
  0
LTYPE
  5
24
330
2
100
AcDbSymbolTableRecord
100
AcDbLinetypeTableRecord
  2
ByBlock
 70
0
  3

 72
65
 73
0
 40
0.0
  0
LTYPE
  5
25
330
2
100
AcDbSymbolTableRecord
100
AcDbLinetypeTableRecord
  2
ByLayer
 70
0
  3

 72
65
 73
0
 40
0.0
  0
LTYPE
  5
26
330
2
100
AcDbSymbolTableRecord
100
AcDbLinetypeTableRecord
  2
Continuous
 70
0
  3

 72
65
 73
0
 40
0.0
  0
LTYPE
  5
2F
330
2
100
AcDbSymbolTableRecord
100
AcDbLinetypeTableRecord
  2
CENTER
 70
0
  3
Center ____ _ ____ _ ____ _ ____ _ ____ _ ____
 72
65
 73
4
 40
5.08
 49
3.175
 74
0
 49
-0.635
 74
0
 49
0.635
 74
0
 49
-0.635
 74
0
  0
LTYPE
  5
30
330
2
100
AcDbSymbolTableRecord
100
AcDbLinetypeTableRecord
  2
CENTERX2
 70
0
  3
Center (2x) ________  __  ________  __  ________
 72
65
 73
4
 40
8.89
 49
6.35
 74
0
 49
-0.635
 74
0
 49
1.27
 74
0
 49
-0.635
 74
0
  0
LTYPE
  5
31
330
2
100
AcDbSymbolTableRecord
100
AcDbLinetypeTableRecord
  2
CENTER2
 70
0
  3
Center (.5x) ____ _ ____ _ ____ _ ____ _ ____
 72
65
 73
4
 40
2.54
 49
1.587
 74
0
 49
-0.318
 74
0
 49
0.318
 74
0
 49
-0.318
 74
0
  0
LTYPE
  5
32
330
2
100
AcDbSymbolTableRecord
100
AcDbLinetypeTableRecord
  2
DASHED
 70
0
  3
Dashed __ __ __ __ __ __ __ __ __ __ __ __ __ _
 72
65
 73
2
 40
1.524
 49
1.27
 74
0
 49
-0.254
 74
0
  0
LTYPE
  5
33
330
2
100
AcDbSymbolTableRecord
100
AcDbLinetypeTableRecord
  2
DASHEDX2
 70
0
  3
Dashed (2x) ____  ____  ____  ____  ____  ____
 72
65
 73
2
 40
3.048
 49
2.54
 74
0
 49
-0.508
 74
0
  0
LTYPE
  5
34
330
2
100
AcDbSymbolTableRecord
100
AcDbLinetypeTableRecord
  2
DASHED2
 70
0
  3
Dashed (.5x) _ _ _ _ _ _ _ _ _ _ _ _ _ _
 72
65
 73
2
 40
0.762
 49
0.635
 74
0
 49
-0.127
 74
0
  0
LTYPE
  5
35
330
2
100
AcDbSymbolTableRecord
100
AcDbLinetypeTableRecord
  2
PHANTOM
 70
0
  3
Phantom ______  __  __  ______  __  __  ______
 72
65
 73
6
 40
6.35
 49
3.175
 74
0
 49
-0.635
 74
0
 49
0.635
 74
0
 49
-0.635
 74
0
 49
0.635
 74
0
 49
-0.635
 74
0
  0
LTYPE
  5
36
330
2
100
AcDbSymbolTableRecord
100
AcDbLinetypeTableRecord
  2
PHANTOMX2
 70
0
  3
Phantom (2x)____________    ____    ____    ____________
 72
65
 73
6
 40
10.795
 49
6.35
 74
0
 49
-0.635
 74
0
 49
1.27
 74
0
 49
-0.635
 74
0
 49
1.27
 74
0
 49
-0.635
 74
0
  0
LTYPE
  5
37
330
2
100
AcDbSymbolTableRecord
100
AcDbLinetypeTableRecord
  2
PHANTOM2
 70
0
  3
Phantom (.5x) ___ _ _ ___ _ _ ___ _ _ ___ _ _ ___
 72
65
 73
6
 40
3.175
 49
1.587
 74
0
 49
-0.318
 74
0
 49
0.318
 74
0
 49
-0.318
 74
0
 49
0.318
 74
0
 49
-0.318
 74
0
  0
LTYPE
  5
38
330
2
100
AcDbSymbolTableRecord
100
AcDbLinetypeTableRecord
  2
DASHDOT
 70
0
  3
Dash dot __ . __ . __ . __ . __ . __ . __ . __
 72
65
 73
4
 40
3.556
 49
2.54
 74
0
 49
-0.508
 74
0
 49
0.0
 74
0
 49
-0.508
 74
0
  0
LTYPE
  5
39
330
2
100
AcDbSymbolTableRecord
100
AcDbLinetypeTableRecord
  2
DASHDOTX2
 70
0
  3
Dash dot (2x) ____  .  ____  .  ____  .  ____
 72
65
 73
4
 40
6.096
 49
5.08
 74
0
 49
-0.508
 74
0
 49
0.0
 74
0
 49
-0.508
 74
0
  0
LTYPE
  5
3A
330
2
100
AcDbSymbolTableRecord
100
AcDbLinetypeTableRecord
  2
DASHDOT2
 70
0
  3
Dash dot (.5x) _ . _ . _ . _ . _ . _ . _ . _
 72
65
 73
4
 40
1.778
 49
1.27
 74
0
 49
-0.254
 74
0
 49
0.0
 74
0
 49
-0.254
 74
0
  0
LTYPE
  5
3B
330
2
100
AcDbSymbolTableRecord
100
AcDbLinetypeTableRecord
  2
DOT
 70
0
  3
Dot .  .  .  .  .  .  .  .  .  .  .  .  .  .  .  .
 72
65
 73
2
 40
0.508
 49
0.0
 74
0
 49
-0.508
 74
0
  0
LTYPE
  5
3C
330
2
100
AcDbSymbolTableRecord
100
AcDbLinetypeTableRecord
  2
DOTX2
 70
0
  3
Dot (2x) .    .    .    .    .    .    .    . 
 72
65
 73
2
 40
1.016
 49
0.0
 74
0
 49
-1.016
 74
0
  0
LTYPE
  5
3D
330
2
100
AcDbSymbolTableRecord
100
AcDbLinetypeTableRecord
  2
DOT2
 70
0
  3
Dot (.5) . . . . . . . . . . . . . . . . . . . 
 72
65
 73
2
 40
0.254
 49
0.0
 74
0
 49
-0.254
 74
0
  0
LTYPE
  5
3E
330
2
100
AcDbSymbolTableRecord
100
AcDbLinetypeTableRecord
  2
DIVIDE
 70
0
  3
Divide __ . . __ . . __ . . __ . . __ . . __
 72
65
 73
6
 40
4.064
 49
2.54
 74
0
 49
-0.508
 74
0
 49
0.0
 74
0
 49
-0.508
 74
0
 49
0.0
 74
0
 49
-0.508
 74
0
  0
LTYPE
  5
3F
330
2
100
AcDbSymbolTableRecord
100
AcDbLinetypeTableRecord
  2
DIVIDEX2
 70
0
  3
Divide (2x) ____  . .  ____  . .  ____  . .  ____
 72
65
 73
6
 40
6.604
 49
5.08
 74
0
 49
-0.508
 74
0
 49
0.0
 74
0
 49
-0.508
 74
0
 49
0.0
 74
0
 49
-0.508
 74
0
  0
LTYPE
  5
40
330
2
100
AcDbSymbolTableRecord
100
AcDbLinetypeTableRecord
  2
DIVIDE2
 70
0
  3
Divide(.5x) _ . _ . _ . _ . _ . _ . _ . _
 72
65
 73
6
 40
2.032
 49
1.27
 74
0
 49
-0.254
 74
0
 49
0.0
 74
0
 49
-0.254
 74
0
 49
0.0
 74
0
 49
-0.254
 74
0
  0
ENDTAB
  0
TABLE
  2
LAYER
  5
1
330
0
100
AcDbSymbolTable
 70
4
  0
LAYER
  5
27
330
1
100
AcDbSymbolTableRecord
100
AcDbLayerTableRecord
  2
0
 70
0
 62
7
  6
Continuous
370
-3
390
13
347
21
  0
LAYER
  5
28
330
1
100
AcDbSymbolTableRecord
100
AcDbLayerTableRecord
  2
Defpoints
 70
0
 62
7
  6
Continuous
290
0
370
-3
390
13
347
21
  0
LAYER
  5
8A
330
1
100
AcDbSymbolTableRecord
100
AcDbLayerTableRecord
  2
LIB-PLAN
 70
0
 62
7
  6
Continuous
370
-3
390
13
347
21
  0
LAYER
  5
8B
330
1
100
AcDbSymbolTableRecord
100
AcDbLayerTableRecord
  2
LIB-ANNOTATION
 70
0
 62
8
  6
Continuous
370
-3
390
13
347
21
  0
ENDTAB
  0
TABLE
  2
STYLE
  5
5
330
0
100
AcDbSymbolTable
 70
26
  0
STYLE
  5
29
330
5
100
AcDbSymbolTableRecord
100
AcDbTextStyleTableRecord
  2
Standard
 70
0
 40
0.0
 41
1.0
 50
0.0
 71
0
 42
2.5
  3
txt
  4

  0
STYLE
  5
41
330
5
100
AcDbSymbolTableRecord
100
AcDbTextStyleTableRecord
  2
OpenSans-Light
 70
0
 40
0.0
 41
1.0
 50
0.0
 71
0
 42
2.5
  3
OpenSans-Light.ttf
  4

  0
STYLE
  5
42
330
5
100
AcDbSymbolTableRecord
100
AcDbTextStyleTableRecord
  2
OpenSans-Light-Italic
 70
0
 40
0.0
 41
1.0
 50
0.0
 71
0
 42
2.5
  3
OpenSans-LightItalic.ttf
  4

  0
STYLE
  5
43
330
5
100
AcDbSymbolTableRecord
100
AcDbTextStyleTableRecord
  2
OpenSans
 70
0
 40
0.0
 41
1.0
 50
0.0
 71
0
 42
2.5
  3
OpenSans-Regular.ttf
  4

  0
STYLE
  5
44
330
5
100
AcDbSymbolTableRecord
100
AcDbTextStyleTableRecord
  2
OpenSans-Italic
 70
0
 40
0.0
 41
1.0
 50
0.0
 71
0
 42
2.5
  3
OpenSans-Italic.ttf
  4

  0
STYLE
  5
45
330
5
100
AcDbSymbolTableRecord
100
AcDbTextStyleTableRecord
  2
OpenSans-SemiBold
 70
0
 40
0.0
 41
1.0
 50
0.0
 71
0
 42
2.5
  3
OpenSans-SemiBold.ttf
  4

  0
STYLE
  5
46
330
5
100
AcDbSymbolTableRecord
100
AcDbTextStyleTableRecord
  2
OpenSans-SemiBoldItalic
 70
0
 40
0.0
 41
1.0
 50
0.0
 71
0
 42
2.5
  3
OpenSans-SemiBoldItalic.ttf
  4

  0
STYLE
  5
47
330
5
100
AcDbSymbolTableRecord
100
AcDbTextStyleTableRecord
  2
OpenSans-Bold
 70
0
 40
0.0
 41
1.0
 50
0.0
 71
0
 42
2.5
  3
OpenSans-Bold.ttf
  4

  0
STYLE
  5
48
330
5
100
AcDbSymbolTableRecord
100
AcDbTextStyleTableRecord
  2
OpenSans-BoldItalic
 70
0
 40
0.0
 41
1.0
 50
0.0
 71
0
 42
2.5
  3
OpenSans-BoldItalic.ttf
  4

  0
STYLE
  5
49
330
5
100
AcDbSymbolTableRecord
100
AcDbTextStyleTableRecord
  2
OpenSans-ExtraBold
 70
0
 40
0.0
 41
1.0
 50
0.0
 71
0
 42
2.5
  3
OpenSans-ExtraBold.ttf
  4

  0
STYLE
  5
4A
330
5
100
AcDbSymbolTableRecord
100
AcDbTextStyleTableRecord
  2
OpenSans-ExtraBoldItalic
 70
0
 40
0.0
 41
1.0
 50
0.0
 71
0
 42
2.5
  3
OpenSans-ExtraBoldItalic.ttf
  4

  0
STYLE
  5
4B
330
5
100
AcDbSymbolTableRecord
100
AcDbTextStyleTableRecord
  2
OpenSansCondensed-Bold
 70
0
 40
0.0
 41
1.0
 50
0.0
 71
0
 42
2.5
  3
OpenSansCondensed-Bold.ttf
  4

  0
STYLE
  5
4C
330
5
100
AcDbSymbolTableRecord
100
AcDbTextStyleTableRecord
  2
OpenSansCondensed-Light
 70
0
 40
0.0
 41
1.0
 50
0.0
 71
0
 42
2.5
  3
OpenSansCondensed-Light.ttf
  4

  0
STYLE
  5
4D
330
5
100
AcDbSymbolTableRecord
100
AcDbTextStyleTableRecord
  2
OpenSansCondensed-Italic
 70
0
 40
0.0
 41
1.0
 50
0.0
 71
0
 42
2.5
  3
OpenSansCondensed-LightItalic.ttf
  4

  0
STYLE
  5
4E
330
5
100
AcDbSymbolTableRecord
100
AcDbTextStyleTableRecord
  2
LiberationSans
 70
0
 40
0.0
 41
1.0
 50
0.0
 71
0
 42
2.5
  3
LiberationSans-Regular.ttf
  4

  0
STYLE
  5
4F
330
5
100
AcDbSymbolTableRecord
100
AcDbTextStyleTableRecord
  2
LiberationSans-Bold
 70
0
 40
0.0
 41
1.0
 50
0.0
 71
0
 42
2.5
  3
LiberationSans-Bold.ttf
  4

  0
STYLE
  5
50
330
5
100
AcDbSymbolTableRecord
100
AcDbTextStyleTableRecord
  2
LiberationSans-BoldItalic
 70
0
 40
0.0
 41
1.0
 50
0.0
 71
0
 42
2.5
  3
LiberationSans-BoldItalic.ttf
  4

  0
STYLE
  5
51
330
5
100
AcDbSymbolTableRecord
100
AcDbTextStyleTableRecord
  2
LiberationSans-Italic
 70
0
 40
0.0
 41
1.0
 50
0.0
 71
0
 42
2.5
  3
LiberationSans-Italic.ttf
  4

  0
STYLE
  5
52
330
5
100
AcDbSymbolTableRecord
100
AcDbTextStyleTableRecord
  2
LiberationSerif
 70
0
 40
0.0
 41
1.0
 50
0.0
 71
0
 42
2.5
  3
LiberationSerif-Regular.ttf
  4

  0
STYLE
  5
53
330
5
100
AcDbSymbolTableRecord
100
AcDbTextStyleTableRecord
  2
LiberationSerif-Bold
 70
0
 40
0.0
 41
1.0
 50
0.0
 71
0
 42
2.5
  3
LiberationSerif-Bold.ttf
  4

  0
STYLE
  5
54
330
5
100
AcDbSymbolTableRecord
100
AcDbTextStyleTableRecord
  2
LiberationSerif-BoldItalic
 70
0
 40
0.0
 41
1.0
 50
0.0
 71
0
 42
2.5
  3
LiberationSerif-BoldItalic.ttf
  4

  0
STYLE
  5
55
330
5
100
AcDbSymbolTableRecord
100
AcDbTextStyleTableRecord
  2
LiberationSerif-Italic
 70
0
 40
0.0
 41
1.0
 50
0.0
 71
0
 42
2.5
  3
LiberationSerif-Italic.ttf
  4

  0
STYLE
  5
56
330
5
100
AcDbSymbolTableRecord
100
AcDbTextStyleTableRecord
  2
LiberationMono
 70
0
 40
0.0
 41
1.0
 50
0.0
 71
0
 42
2.5
  3
LiberationMono-Regular.ttf
  4

  0
STYLE
  5
57
330
5
100
AcDbSymbolTableRecord
100
AcDbTextStyleTableRecord
  2
LiberationMono-Bold
 70
0
 40
0.0
 41
1.0
 50
0.0
 71
0
 42
2.5
  3
LiberationMono-Bold.ttf
  4

  0
STYLE
  5
58
330
5
100
AcDbSymbolTableRecord
100
AcDbTextStyleTableRecord
  2
LiberationMono-BoldItalic
 70
0
 40
0.0
 41
1.0
 50
0.0
 71
0
 42
2.5
  3
LiberationMono-BoldItalic.ttf
  4

  0
STYLE
  5
59
330
5
100
AcDbSymbolTableRecord
100
AcDbTextStyleTableRecord
  2
LiberationMono-Italic
 70
0
 40
0.0
 41
1.0
 50
0.0
 71
0
 42
2.5
  3
LiberationMono-Italic.ttf
  4

  0
ENDTAB
  0
TABLE
  2
VIEW
  5
7
330
0
100
AcDbSymbolTable
 70
0
  0
ENDTAB
  0
TABLE
  2
UCS
  5
6
330
0
100
AcDbSymbolTable
 70
0
  0
ENDTAB
  0
TABLE
  2
APPID
  5
3
330
0
100
AcDbSymbolTable
 70
3
  0
APPID
  5
2A
330
3
100
AcDbSymbolTableRecord
100
AcDbRegAppTableRecord
  2
ACAD
 70
0
  0
APPID
  5
AF
330
3
100
AcDbSymbolTableRecord
100
AcDbRegAppTableRecord
  2
HATCHBACKGROUNDCOLOR
 70
0
  0
APPID
  5
B0
330
3
100
AcDbSymbolTableRecord
100
AcDbRegAppTableRecord
  2
EZDXF
 70
0
  0
ENDTAB
  0
TABLE
  2
DIMSTYLE
  5
4
330
0
100
AcDbSymbolTable
 70
12
100
AcDbDimStyleTable
  0
DIMSTYLE
105
2B
330
4
100
AcDbSymbolTableRecord
100
AcDbDimStyleTableRecord
  2
Standard
 70
0
 40
1.0
 41
2.5
 42
0.625
 43
3.75
 44
1.25
 45
0.0
 46
0.0
 47
0.0
 48
0.0
 49
2.5
140
2.5
141
2.5
142
0.0
143
0.03937007874
144
1.0
145
0.0
146
1.0
147
0.625
148
0.0
 69
0
 70
0
 71
0
 72
0
 73
0
 74
0
 75
0
 76
0
 77
1
 78
8
 79
3
170
0
171
3
172
1
173
0
174
0
175
0
176
0
177
0
178
0
179
2
271
2
272
2
273
2
274
3
275
0
276
0
277
2
278
44
279
0
280
0
281
0
282
0
283
0
284
8
285
0
286
0
288
0
289
3
290
0
371
-2
372
-2
  0
DIMSTYLE
105
73
330
4
100
AcDbSymbolTableRecord
100
AcDbDimStyleTableRecord
  2
EZDXF
 70
0
 40
1.0
 41
0.175
 42
0.125
 43
3.75
 44
0.375
 45
0.0
 46
0.0
 47
0.0
 48
0.0
 49
2.5
140
0.25
141
2.5
142
0.0
143
0.03937007874
144
100.0
145
0.0
146
0.5
147
0.1
148
0.0
 69
0
 70
0
 71
0
 72
0
 73
0
 74
0
 75
0
 76
0
 77
1
 78
12
 79
3
170
0
171
3
172
1
173
0
174
0
175
0
176
0
177
0
178
0
179
2
271
2
272
2
273
2
274
3
275
0
276
0
277
2
278
46
279
2
280
0
281
0
282
0
283
0
284
8
285
0
286
0
288
1
289
3
290
0
340
4C
342
74
371
-2
372
-2
  0
DIMSTYLE
105
7C
330
4
100
AcDbSymbolTableRecord
100
AcDbDimStyleTableRecord
  2
EZ_M_100_H25_CM
 70
0
 40
1.0
 41
0.25
 42
0.125
 43
3.75
 44
0.375
 45
0.0
 46
0.0
 47
0.0
 48
0.0
 49
2.5
140
0.25
141
2.5
142
0.125
143
0.03937007874
144
100.0
145
0.0
146
0.5
147
0.1
148
0.0
 69
0
 70
0
 71
0
 72
0
 73
0
 74
0
 75
0
 76
0
 77
1
 78
12
 79
3
170
0
171
3
172
1
173
0
174
0
175
0
176
0
177
0
178
0
179
2
271
2
272
2
273
2
274
3
275
0
276
0
277
2
278
46
279
2
280
0
281
0
282
0
283
0
284
8
285
0
286
0
288
1
289
3
290
0
340
4C
371
-2
372
-2
  0
DIMSTYLE
105
7D
330
4
100
AcDbSymbolTableRecord
100
AcDbDimStyleTableRecord
  2
EZ_M_50_H25_CM
 70
0
 40
1.0
 41
0.125
 42
0.0625
 43
3.75
 44
0.1875
 45
0.0
 46
0.0
 47
0.0
 48
0.0
 49
2.5
140
0.125
141
2.5
142
0.0625
143
0.03937007874
144
100.0
145
0.0
146
0.5
147
0.05
148
0.0
 69
0
 70
0
 71
0
 72
0
 73
0
 74
0
 75
0
 76
0
 77
1
 78
12
 79
3
170
0
171
3
172
1
173
0
174
0
175
0
176
0
177
0
178
0
179
2
271
2
272
2
273
2
274
3
275
0
276
0
277
2
278
46
279
2
280
0
281
0
282
0
283
0
284
8
285
0
286
0
288
1
289
3
290
0
340
4C
371
-2
372
-2
  0
DIMSTYLE
105
7E
330
4
100
AcDbSymbolTableRecord
100
AcDbDimStyleTableRecord
  2
EZ_M_25_H25_CM
 70
0
 40
1.0
 41
0.0625
 42
0.03125
 43
3.75
 44
0.09375
 45
0.0
 46
0.0
 47
0.0
 48
0.0
 49
2.5
140
0.0625
141
2.5
142
0.03125
143
0.03937007874
144
100.0
145
0.0
146
0.5
147
0.025
148
0.0
 69
0
 70
0
 71
0
 72
0
 73
0
 74
0
 75
0
 76
0
 77
1
 78
12
 79
3
170
0
171
3
172
1
173
0
174
0
175
0
176
0
177
0
178
0
179
2
271
2
272
2
273
2
274
3
275
0
276
0
277
2
278
46
279
2
280
0
281
0
282
0
283
0
284
8
285
0
286
0
288
1
289
3
290
0
340
4C
371
-2
372
-2
  0
DIMSTYLE
105
7F
330
4
100
AcDbSymbolTableRecord
100
AcDbDimStyleTableRecord
  2
EZ_M_20_H25_CM
 70
0
 40
1.0
 41
0.05
 42
0.025
 43
3.75
 44
0.07500000000000001
 45
0.0
 46
0.0
 47
0.0
 48
0.0
 49
2.5
140
0.05
141
2.5
142
0.025
143
0.03937007874
144
100.0
145
0.0
146
0.5
147
0.020000000000000004
148
0.0
 69
0
 70
0
 71
0
 72
0
 73
0
 74
0
 75
0
 76
0
 77
1
 78
12
 79
3
170
0
171
3
172
1
173
0
174
0
175
0
176
0
177
0
178
0
179
2
271
2
272
2
273
2
274
3
275
0
276
0
277
2
278
46
279
2
280
0
281
0
282
0
283
0
284
8
285
0
286
0
288
1
289
3
290
0
340
4C
371
-2
372
-2
  0
DIMSTYLE
105
80
330
4
100
AcDbSymbolTableRecord
100
AcDbDimStyleTableRecord
  2
EZ_M_10_H25_CM
 70
0
 40
1.0
 41
0.025
 42
0.0125
 43
3.75
 44
0.037500000000000006
 45
0.0
 46
0.0
 47
0.0
 48
0.0
 49
2.5
140
0.025
141
2.5
142
0.0125
143
0.03937007874
144
100.0
145
0.0
146
0.5
147
0.010000000000000002
148
0.0
 69
0
 70
0
 71
0
 72
0
 73
0
 74
0
 75
0
 76
0
 77
1
 78
12
 79
3
170
0
171
3
172
1
173
0
174
0
175
0
176
0
177
0
178
0
179
2
271
2
272
2
273
2
274
3
275
0
276
0
277
2
278
46
279
2
280
0
281
0
282
0
283
0
284
8
285
0
286
0
288
1
289
3
290
0
340
4C
371
-2
372
-2
  0
DIMSTYLE
105
81
330
4
100
AcDbSymbolTableRecord
100
AcDbDimStyleTableRecord
  2
EZ_M_5_H25_CM
 70
0
 40
1.0
 41
0.0125
 42
0.00625
 43
3.75
 44
0.018750000000000003
 45
0.0
 46
0.0
 47
0.0
 48
0.0
 49
2.5
140
0.0125
141
2.5
142
0.00625
143
0.03937007874
144
100.0
145
0.0
146
0.5
147
0.005000000000000001
148
0.0
 69
0
 70
0
 71
0
 72
0
 73
0
 74
0
 75
0
 76
0
 77
1
 78
12
 79
3
170
0
171
3
172
1
173
0
174
0
175
0
176
0
177
0
178
0
179
2
271
2
272
2
273
2
274
3
275
0
276
0
277
2
278
46
279
2
280
0
281
0
282
0
283
0
284
8
285
0
286
0
288
1
289
3
290
0
340
4C
371
-2
372
-2
  0
DIMSTYLE
105
82
330
4
100
AcDbSymbolTableRecord
100
AcDbDimStyleTableRecord
  2
EZ_M_1_H25_CM
 70
0
 40
1.0
 41
0.0025
 42
0.00125
 43
3.75
 44
0.00375
 45
0.0
 46
0.0
 47
0.0
 48
0.0
 49
2.5
140
0.0025
141
2.5
142
0.00125
143
0.03937007874
144
100.0
145
0.0
146
0.5
147
0.001
148
0.0
 69
0
 70
0
 71
0
 72
0
 73
0
 74
0
 75
0
 76
0
 77
1
 78
12
 79
3
170
0
171
3
172
1
173
0
174
0
175
0
176
0
177
0
178
0
179
2
271
2
272
2
273
2
274
3
275
0
276
0
277
2
278
46
279
2
280
0
281
0
282
0
283
0
284
8
285
0
286
0
288
1
289
3
290
0
340
4C
371
-2
372
-2
  0
DIMSTYLE
105
83
330
4
100
AcDbSymbolTableRecord
100
AcDbDimStyleTableRecord
  2
EZ_RADIUS
 70
0
 40
1.0
 41
0.25
 42
0.125
 43
3.75
 44
0.375
 45
0.0
 46
0.0
 47
0.0
 48
0.0
 49
2.5
140
0.25
141
0.0
142
0.0
143
0.03937007874
144
100.0
145
0.0
146
0.5
147
0.1
148
0.0
 69
0
 70
0
 71
0
 72
0
 73
0
 74
0
 75
0
 76
0
 77
1
 78
12
 79
3
170
0
171
3
172
0
173
0
174
0
175
0
176
0
177
0
178
0
179
2
271
2
272
2
273
2
274
3
275
0
276
0
277
2
278
46
279
1
280
0
281
0
282
0
283
0
284
8
285
0
286
0
288
1
289
3
290
0
340
4C
342
84
371
-2
372
-2
  0
DIMSTYLE
105
88
330
4
100
AcDbSymbolTableRecord
100
AcDbDimStyleTableRecord
  2
EZ_RADIUS_INSIDE
 70
0
 40
1.0
 41
0.25
 42
0.125
 43
3.75
 44
0.375
 45
0.0
 46
0.0
 47
0.0
 48
0.0
 49
2.5
140
0.25
141
0.0
142
0.0
143
0.03937007874
144
100.0
145
0.0
146
0.5
147
0.1
148
0.0
 69
0
 70
0
 71
0
 72
0
 73
0
 74
0
 75
0
 76
0
 77
0
 78
12
 79
3
170
0
171
3
172
0
173
0
174
1
175
0
176
0
177
0
178
0
179
2
271
2
272
2
273
2
274
3
275
0
276
0
277
2
278
46
279
0
280
0
281
0
282
0
283
0
284
8
285
0
286
0
288
1
289
0
290
0
340
4C
342
84
371
-2
372
-2
  0
DIMSTYLE
105
89
330
4
100
AcDbSymbolTableRecord
100
AcDbDimStyleTableRecord
  2
EZ_CURVED
 70
0
 40
1.0
 41
0.25
 42
0.125
 43
3.75
 44
0.375
 45
0.0
 46
0.0
 47
0.0
 48
0.0
 49
2.5
140
0.25
141
2.5
142
0.0
143
0.03937007874
144
100.0
145
0.0
146
0.5
147
0.1
148
0.0
 69
0
 70
0
 71
0
 72
0
 73
0
 74
0
 75
0
 76
0
 77
1
 78
12
 79
2
 90
2
170
0
171
3
172
1
173
0
174
0
175
0
176
0
177
0
178
0
179
2
271
2
272
2
273
2
274
3
275
0
276
0
277
2
278
46
279
2
280
0
281
0
282
0
283
0
284
8
285
0
286
0
288
1
289
3
290
0
340
4C
371
-2
372
-2
  0
ENDTAB
  0
TABLE
  2
BLOCK_RECORD
  5
9
330
0
100
AcDbSymbolTable
 70
6
  0
BLOCK_RECORD
  5
17
330
9
100
AcDbSymbolTableRecord
100
AcDbBlockTableRecord
  2
*Model_Space
340
1A
 70
0
280
1
281
0
  0
BLOCK_RECORD
  5
1B
330
9
100
AcDbSymbolTableRecord
100
AcDbBlockTableRecord
  2
*Paper_Space
340
1E
 70
0
280
1
281
0
  0
BLOCK_RECORD
  5
74
330
9
100
AcDbSymbolTableRecord
100
AcDbBlockTableRecord
  2
_ARCHTICK
340
0
 70
0
280
1
281
0
  0
BLOCK_RECORD
  5
78
330
9
100
AcDbSymbolTableRecord
100
AcDbBlockTableRecord
  2
_CLOSEDFILLED
340
0
 70
0
280
1
281
0
  0
BLOCK_RECORD
  5
84
330
9
100
AcDbSymbolTableRecord
100
AcDbBlockTableRecord
  2
_CLOSEDBLANK
340
0
 70
0
280
1
281
0
  0
BLOCK_RECORD
  5
8C
330
9
100
AcDbSymbolTableRecord
100
AcDbBlockTableRecord
  2
LOUNGE_CHAIR_900x900_PLAN
340
0
 70
0
280
1
281
0
  0
ENDTAB
  0
ENDSEC
  0
SECTION
  2
BLOCKS
  0
BLOCK
  5
18
330
17
100
AcDbEntity
  8
0
100
AcDbBlockBegin
  2
*Model_Space
 70
0
 10
0.0
 20
0.0
 30
0.0
  3
*Model_Space
  1

  0
ENDBLK
  5
19
330
17
100
AcDbEntity
  8
0
100
AcDbBlockEnd
  0
BLOCK
  5
1C
330
1B
100
AcDbEntity
  8
0
100
AcDbBlockBegin
  2
*Paper_Space
 70
0
 10
0.0
 20
0.0
 30
0.0
  3
*Paper_Space
  1

  0
ENDBLK
  5
1D
330
1B
100
AcDbEntity
  8
0
100
AcDbBlockEnd
  0
BLOCK
  5
75
330
74
100
AcDbEntity
  8
0
100
AcDbBlockBegin
  2
_ARCHTICK
 70
0
 10
0.0
 20
0.0
 30
0.0
  3
_ARCHTICK
  1

  0
LWPOLYLINE
  5
77
330
74
100
AcDbEntity
  8
0
  6
BYBLOCK
 62
0
100
AcDbPolyline
 90
2
 70
0
 43
0.15
 10
-0.5
 20
-0.5
 10
0.5
 20
0.5
  0
ENDBLK
  5
76
330
74
100
AcDbEntity
  8
0
100
AcDbBlockEnd
  0
BLOCK
  5
79
330
78
100
AcDbEntity
  8
0
100
AcDbBlockBegin
  2
_CLOSEDFILLED
 70
0
 10
0.0
 20
0.0
 30
0.0
  3
_CLOSEDFILLED
  1

  0
SOLID
  5
7B
330
78
100
AcDbEntity
  8
0
  6
BYBLOCK
 62
0
100
AcDbTrace
 10
-1.0
 20
0.16439898372402537
 30
0.0
 11
0.0
 21
0.0
 31
0.0
 12
-1.0
 22
-0.16439898372402537
 32
0.0
 13
-1.0
 23
-0.16439898372402537
 33
0.0
  0
ENDBLK
  5
7A
330
78
100
AcDbEntity
  8
0
100
AcDbBlockEnd
  0
BLOCK
  5
85
330
84
100
AcDbEntity
  8
0
100
AcDbBlockBegin
  2
_CLOSEDBLANK
 70
0
 10
0.0
 20
0.0
 30
0.0
  3
_CLOSEDBLANK
  1

  0
LWPOLYLINE
  5
87
330
84
100
AcDbEntity
  8
0
  6
BYBLOCK
 62
0
100
AcDbPolyline
 90
3
 70
1
 10
-1.0
 20
0.16439898372402537
 10
0.0
 20
0.0
 10
-1.0
 20
-0.16439898372402537
  0
ENDBLK
  5
86
330
84
100
AcDbEntity
  8
0
100
AcDbBlockEnd
  0
BLOCK
  5
8D
330
8C
100
AcDbEntity
  8
0
100
AcDbBlockBegin
  2
LOUNGE_CHAIR_900x900_PLAN
 70
0
 10
0.0
 20
0.0
 30
0.0
  3
LOUNGE_CHAIR_900x900_PLAN
  1

  0
LWPOLYLINE
  5
8F
330
8C
100
AcDbEntity
  8
LIB-PLAN
100
AcDbPolyline
 90
33
 70
0
 10
-360.07902040654636
 20
338.01078513649173
 10
-360.00361967175587
 20
335.28762005169017
 10
-359.78183279020527
 20
332.5745779564631
 10
-359.4144727416619
 20
329.8816037506879
 10
-358.9028861174329
 20
327.2185687735876
 10
-358.2489481843141
 20
324.5952346194494
 10
-357.4550560106304
 20
322.02121735562196
 10
-356.5241196795665
 20
319.50595227395587
 10
-355.4595516219953
 20
317.0586593048924
 10
-354.26525410790475
 20
314.68830922097885
 10
-352.94560494227727
 20
312.40359075369514
 10
-351.5054414178509
 20
310.2128787441265
 10
-349.9500425835879
 20
308.12420344423015
 10
-348.28510989384586
 20
306.14522108122424
 10
-346.5167463091837
 20
304.28318579299855
 10
-344.6514339254109
 20
302.5449230374189
 10
-342.69601021288196
 20
300.9368045729978
 10
-340.6576429531337
 20
299.46472510264
 10
-338.54380396473726
 20
298.1340806660789
 10
-336.36224171467495
 20
296.9497488602073
 10
-334.1209529156375
 20
295.9160709598075
 10
-331.82815321335386
 20
295.03683600421755
 10
-329.49224707140326
 20
294.3152669082672
 10
-327.1217969638975
 20
293.754008648393
 10
-324.7254919889619
 20
293.3551185672399
 10
-322.3121160180643
 20
293.1200588322863
 10
-319.89051549794385
 20
293.0496910761377
 10
-317.46956702316515
 20
293.1442732381348
 10
-315.0581447981617
 20
293.40345861885385
 10
-312.6650881080416
 20
293.8262971509643
 10
-310.29916891739225
 20
294.41123888178623
 10
-307.9690597158557
 20
295.1561396547815
 10
-305.6833017283371
 20
296.058268969152
  0
LWPOLYLINE
  5
90
330
8C
100
AcDbEntity
  8
LIB-PLAN
100
AcDbPolyline
 90
33
 70
0
 10
305.6833017283367
 20
296.0582689691521
 10
287.368160611091
 20
303.72429469165684
 10
268.90120160207096
 20
310.91485994639135
 10
250.29218087878132
 20
317.6261659253899
 10
231.55092967056993
 20
323.85466701551786
 10
212.68734906474455
 20
329.5970726716344
 10
193.71140477578393
 20
334.8503491550035
 10
174.63312188040547
 20
339.6117211360307
 10
155.46257952127323
 20
343.878673160483
 10
136.20990558214095
 20
347.64895097841367
 10
116.88527133724492
 20
350.9205627350935
 10
97.49888607777518
 20
353.69178002331665
 10
78.06099171826038
 20
355.96113879652535
 10
58.581857385718486
 20
357.72744014227237
 10
39.07177399443022
 20
358.98975091561266
 10
19.541048809203794
 20
359.74740423208664
 10
-1.9011838867989255e-14
 20
359.9999998200398
 10
-19.54104880920402
 20
359.74740423208664
 10
-39.07177399443045
 20
358.98975091561266
 10
-58.5818573857187
 20
357.72744014227237
 10
-78.06099171826078
 20
355.96113879652535
 10
-97.49888607777541
 20
353.69178002331665
 10
-116.88527133724514
 20
350.9205627350935
 10
-136.20990558214098
 20
347.64895097841367
 10
-155.46257952127343
 20
343.8786731604828
 10
-174.63312188040567
 20
339.6117211360307
 10
-193.71140477578413
 20
334.8503491550035
 10
-212.687349064745
 20
329.5970726716344
 10
-231.55092967057027
 20
323.85466701551786
 10
-250.29218087878158
 20
317.6261659253899
 10
-268.901201602071
 20
310.91485994639135
 10
-287.36816061109124
 20
303.72429469165684
 10
-305.6833017283369
 20
296.05826896915204
  0
LWPOLYLINE
  5
91
330
8C
100
AcDbEntity
  8
LIB-PLAN
100
AcDbPolyline
 90
33
 70
0
 10
-359.4801876858427
 20
-450.0
 10
-359.4801876858427
 20
-450.0
 10
-359.4801876858427
 20
-450.0
 10
-359.4801876858427
 20
-450.0
 10
-359.4801876858427
 20
-450.0
 10
-359.4801876858427
 20
-450.0
 10
-359.4801876858427
 20
-450.0
 10
-359.4801876858427
 20
-450.0
 10
-359.4801876858427
 20
-450.0
 10
-359.4801876858427
 20
-450.0
 10
-359.4801876858427
 20
-450.0
 10
-359.4801876858427
 20
-450.0
 10
-359.4801876858427
 20
-450.0
 10
-359.4801876858427
 20
-450.0
 10
-359.4801876858427
 20
-450.0
 10
-359.4801876858427
 20
-450.0
 10
-359.4801876858427
 20
-450.0
 10
-359.4801876858427
 20
-450.0
 10
-359.4801876858427
 20
-450.0
 10
-359.4801876858427
 20
-450.0
 10
-359.4801876858427
 20
-450.0
 10
-359.4801876858427
 20
-450.0
 10
-359.4801876858427
 20
-450.0
 10
-359.4801876858427
 20
-450.0
 10
-359.4801876858427
 20
-450.0
 10
-359.4801876858427
 20
-450.0
 10
-359.4801876858427
 20
-450.0
 10
-359.4801876858427
 20
-450.0
 10
-359.4801876858427
 20
-450.0
 10
-359.4801876858427
 20
-450.0
 10
-359.4801876858427
 20
-450.0
 10
-359.4801876858427
 20
-450.0
 10
-359.4801876858427
 20
-450.0
  0
LWPOLYLINE
  5
92
330
8C
100
AcDbEntity
  8
LIB-PLAN
100
AcDbPolyline
 90
33
 70
0
 10
-359.4972714879378
 20
-427.51923060219144
 10
-359.472361902533
 20
-428.62262949963605
 10
-359.3993701365518
 20
-429.72332682603655
 10
-359.27847184228426
 20
-430.81867378939216
 10
-359.1099579575085
 20
-431.90603447317505
 10
-358.8942340053593
 20
-432.98279217957736
 10
-358.63181911844924
 20
-434.04635572650824
 10
-358.3233447895936
 20
-435.0941656831887
 10
-357.96955335214324
 20
-436.1237005293379
 10
-357.57129619358426
 20
-437.1324827231287
 10
-357.12953170670136
 20
-438.1180846633111
 10
-356.6453229832375
 20
-439.07813453115483
 10
-356.11983525559816
 20
-440.0103219981532
 10
-355.55433309275804
 20
-440.91240378575304
 10
-354.95017735711735
 20
-441.78220906373076
 10
-354.3088219296308
 20
-442.61764467422427
 10
-353.6318102110911
 20
-443.41670016884854
 10
-352.9207714079852
 20
-444.17745264677365
 10
-352.17741661186307
 20
-444.8980713821226
 10
-351.40353468165097
 20
-445.5768222295532
 10
-350.6009879388222
 20
-446.21207179742163
 10
-349.7717076857808
 20
-446.8022913784861
 10
-348.9176895582461
 20
-447.34606062869045
 10
-348.0409887228207
 20
-447.8420709851759
 10
-347.1437149312995
 20
-448.28912881529413
 10
-346.2280274436212
 20
-448.6861582890456
 10
-345.2961298316802
 20
-449.0322039680285
 10
-344.35026467650295
 20
-449.3264331046707
 10
-343.3927081715505
 20
-449.56813764620875
 10
-342.4257646451335
 20
-449.7567359385941
 10
-341.4517610151217
 20
-449.89177412622416
 10
-340.47304118929253
 20
-449.97292724413137
 10
-339.491960424794
 20
-449.9999999999999
  0
LINE
  5
93
330
8C
100
AcDbEntity
  8
LIB-PLAN
100
AcDbLine
 10
339.4919604247939
 20
-450.0
 30
0.0
 11
-339.491960424794
 21
-450.0
 31
0.0
  0
LWPOLYLINE
  5
94
330
8C
100
AcDbEntity
  8
LIB-PLAN
100
AcDbPolyline
 90
33
 70
0
 10
339.4919604247939
 20
-449.9999999999999
 10
340.4730411892924
 20
-449.97292724413137
 10
341.4517610151215
 20
-449.89177412622416
 10
342.4257646451333
 20
-449.7567359385941
 10
343.3927081715504
 20
-449.56813764620875
 10
344.35026467650283
 20
-449.3264331046707
 10
345.29612983168005
 20
-449.0322039680285
 10
346.2280274436211
 20
-448.6861582890456
 10
347.14371493129937
 20
-448.28912881529413
 10
348.04098872282054
 20
-447.8420709851759
 10
348.9176895582459
 20
-447.34606062869045
 10
349.7717076857806
 20
-446.8022913784861
 10
350.600987938822
 20
-446.21207179742163
 10
351.40353468165085
 20
-445.5768222295532
 10
352.1774166118629
 20
-444.8980713821227
 10
352.9207714079851
 20
-444.17745264677365
 10
353.63181021109096
 20
-443.41670016884854
 10
354.3088219296307
 20
-442.61764467422427
 10
354.95017735711724
 20
-441.78220906373076
 10
355.55433309275793
 20
-440.91240378575304
 10
356.119835255598
 20
-440.0103219981532
 10
356.6453229832373
 20
-439.07813453115483
 10
357.12953170670124
 20
-438.1180846633111
 10
357.57129619358415
 20
-437.1324827231287
 10
357.9695533521431
 20
-436.1237005293379
 10
358.3233447895934
 20
-435.0941656831887
 10
358.63181911844913
 20
-434.04635572650824
 10
358.8942340053591
 20
-432.9827921795774
 10
359.1099579575084
 20
-431.9060344731751
 10
359.2784718422841
 20
-430.81867378939216
 10
359.3993701365517
 20
-429.7233268260366
 10
359.47236190253284
 20
-428.62262949963605
 10
359.49727148793767
 20
-427.51923060219144
  0
LWPOLYLINE
  5
95
330
8C
100
AcDbEntity
  8
LIB-PLAN
100
AcDbPolyline
 90
33
 70
0
 10
305.683301728337
 20
296.0582689691519
 10
308.4164314399216
 20
294.9997451141524
 10
311.21037960168763
 20
294.16592185957165
 10
314.0505629592013
 20
293.56115141811017
 10
316.92215692942
 20
293.18859044147064
 10
319.8101729788873
 20
293.05018354394053
 10
322.69953685768184
 20
293.1466531523102
 10
325.57516728077024
 20
293.4774957351026
 10
328.4220546460807
 20
294.04098443080034
 10
331.22533937842127
 20
294.83417806134855
 10
333.97038949031935
 20
295.8529364838886
 10
336.64287695494795
 20
297.09194220059214
 10
339.2288524925026
 20
298.54472811380197
 10
341.71481837967565
 20
300.2037112816081
 10
344.0877989021921
 20
302.06023249767003
 10
346.3354080826743
 20
304.10460148869436
 10
348.4459143303236
 20
306.3261474936553
 10
350.4083016749746
 20
308.71327496075634
 10
352.21232726590597
 20
311.2535240714171
 10
353.8485748352864
 20
313.9336357753758
 10
355.3085038472009
 20
316.7396209974505
 10
356.5844940757169
 20
319.65683365472853
 10
357.6698853793144
 20
322.67004710306503
 10
358.5590124640709
 20
325.76353361387106
 10
359.247234454154
 20
328.92114646635486
 10
359.7309591152747
 20
332.12640422673
 10
360.0076616046656
 20
335.3625767744865
 10
360.0758976497161
 20
338.6127726267038
 10
359.93531108647875
 20
341.8600271046091
 10
359.58663571869744
 20
345.08739088218755
 10
359.0316914876556
 20
348.27801845465757
 10
358.27337497283474
 20
351.4152560650421
 10
357.31564427296706
 20
354.4827286298957
  0
LWPOLYLINE
  5
96
330
8C
100
AcDbEntity
  8
LIB-PLAN
100
AcDbPolyline
 90
33
 70
0
 10
357.3156442729666
 20
354.48272862989546
 10
357.13284096868875
 20
354.9886889983325
 10
356.93917290309275
 20
355.489510220483
 10
356.7347541794203
 20
355.98489722795335
 10
356.51970523486875
 20
356.47455815402145
 10
356.2941527696334
 20
356.9582045055956
 10
356.05822967225924
 20
357.4355513331853
 10
355.8120749413476
 20
357.90631739878523
 10
355.555833603662
 20
358.37022534157177
 10
355.2896566286833
 20
358.8270018413153
 10
355.0137008396628
 20
359.2763777794122
 10
354.7281288212271
 20
359.7180883974411
 10
354.4331088235878
 20
360.1518734531504
 10
354.12881466341446
 20
360.57747737378526
 10
353.81542562142636
 20
360.9946494066626
 10
353.49312633676635
 20
361.4031437669073
 10
353.16210669821703
 20
361.8027197822608
 10
352.822561732324
 20
362.193142034878
 10
352.4746914884927
 20
362.5741805000279
 10
352.1187009211247
 20
362.9456106816173
 10
351.75479976886567
 20
363.3072137444568
 10
351.38320243103357
 20
363.65877664319197
 10
351.004127841301
 20
364.0000922478226
 10
350.6177993387064
 20
364.33095946573786
 10
350.2244445360697
 20
364.65118336019367
 10
349.82429518588975
 20
364.9605752651632
 10
349.41758704380294
 20
365.25895289649327
 10
349.0045597296831
 20
365.5461404593006
 10
348.58545658646517
 20
365.82196875154443
 10
348.16052453677486
 20
366.0862752637154
 10
347.7300139374496
 20
366.3389042745811
 10
347.29417843203584
 20
366.57970694293226
 10
346.85327480135015
 20
366.80854139527503
  0
LWPOLYLINE
  5
97
330
8C
100
AcDbEntity
  8
LIB-PLAN
100
AcDbPolyline
 90
33
 70
0
 10
346.85327480135015
 20
366.80854139527503
 10
326.30399880321494
 20
376.7727441216076
 10
305.5286829128839
 20
386.1252523341831
 10
284.5417187718367
 20
394.85958728938834
 10
263.35764463620677
 20
402.9696984694889
 10
241.99113530572524
 20
410.4499677739906
 10
220.4569919580771
 20
417.2952134114554
 10
198.77013189571278
 20
423.50069348907294
 10
176.94557821221514
 20
429.0621092975019
 10
154.99844938538394
 20
433.9756082887061
 10
132.9439488042435
 20
438.23778674472214
 10
110.79735423723095
 20
441.8456921355096
 10
88.57400724885905
 20
444.7968251642516
 10
66.2893025721865
 20
447.089141498687
 10
43.95867744445531
 20
448.72105318727677
 10
21.59760091328764
 20
449.6914297592222
 10
-0.7784368791583498
 20
449.9995990075732
 10
-23.153935426639475
 20
449.6453474548861
 10
-45.51339459646412
 20
448.62892050110383
 10
-67.84132536686396
 20
446.951022253562
 10
-90.12226055667492
 20
444.6128150392324
 10
-112.34076553988247
 20
441.6159185995484
 10
-134.48144893762108
 20
437.96240896836395
 10
-156.52897328020924
 20
433.65481703382676
 10
-178.4680656318457
 20
428.69612678516177
 10
-200.28352817059664
 20
423.0897732455787
 10
-221.9602487163523
 20
416.8396400927346
 10
-243.48321119945584
 20
409.95005696840366
 10
-264.83750606275424
 20
402.42579647921104
 10
-286.0083405898649
 20
394.272070890517
 10
-306.98104915250315
 20
385.49452851573443
 10
-327.741103369773
 20
376.09924980358403
 10
-348.2741221723817
 20
366.0927431259983
  0
LINE
  5
98
330
8C
100
AcDbEntity
  8
LIB-PLAN
100
AcDbLine
 10
-360.07902040654636
 20
338.01078513649173
 30
0.0
 11
-360.0847480079402
 21
345.54780092613487
 31
0.0
  0
LWPOLYLINE
  5
99
330
8C
100
AcDbEntity
  8
LIB-PLAN
100
AcDbPolyline
 90
33
 70
0
 10
-348.27412217238196
 20
366.0927431259981
 10
-348.9243266757069
 20
365.748462796057
 10
-349.5631169893903
 20
365.37813864976647
 10
-350.18966876468363
 20
364.98224858455234
 10
-350.80317344647756
 20
364.5613034902526
 10
-351.4028393167295
 20
364.1158465898221
 10
-351.9878925161634
 20
363.646452738312
 10
-352.55757804292267
 20
363.1537276810284
 10
-353.1111607268879
 20
362.6383072718277
 10
-353.6479261784026
 20
362.1008566525574
 10
-354.1671817101814
 20
361.5420693947007
 10
-354.6682572312123
 20
360.9626666043343
 10
-355.1505061114981
 20
360.36339599155156
 10
-355.6133060165222
 20
359.74503090555515
 10
-356.0560597103617
 20
359.108369336662
 10
-356.4781958264106
 20
358.4542328865095
 10
-356.87916960471944
 20
357.7834657077913
 10
-357.2584635949992
 20
357.0969334148924
 10
-357.615588324383
 20
356.39552196682695
 10
-357.9500829290826
 20
355.6801365239223
 10
-358.26151574912626
 20
354.95170027972415
 10
-358.54948488540873
 20
354.2111532696299
 10
-358.8136187183359
 20
353.45945115778784
 10
-359.0535763873936
 20
352.6975640038279
 10
-359.2690482310233
 20
351.9264750110149
 10
-359.45975618623487
 20
351.1471792574405
 10
-359.62545414744267
 20
350.36068241189065
 10
-359.765928284061
 20
349.56799943604614
 10
-359.8809973164487
 20
348.77015327469064
 10
-359.97051274984824
 20
347.96817353561664
 10
-360.0343590660152
 20
347.16309516093287
 10
-360.0724538722933
 20
346.3559570914883
 10
-360.0847480079402
 20
345.54780092613487
  0
LINE
  5
9A
330
8C
100
AcDbEntity
  8
LIB-PLAN
100
AcDbLine
 10
-359.4972714879378
 20
-427.5192306021916
 30
0.0
 11
-360.00783464970453
 21
244.33663841726425
 31
0.0
  0
LWPOLYLINE
  5
9B
330
8C
100
AcDbEntity
  8
LIB-PLAN
100
AcDbPolyline
 90
33
 70
0
 10
-348.19535548021275
 20
264.88251645974526
 10
-348.8456480124274
 20
264.53827883139974
 10
-349.4845266170835
 20
264.16799152281527
 10
-350.11116668584566
 20
263.7721324682957
 10
-350.72475940680476
 20
263.35121260790635
 10
-351.3245128084211
 20
262.9057752279974
 10
-351.90965278173167
 20
262.436395259978
 10
-352.4794240795019
 20
261.9436785382448
 10
-353.0330912910326
 20
261.42826101822476
 10
-353.56993979136314
 20
260.8908079555393
 10
-354.08927666364684
 20
260.33201304735115
 10
-354.59043159350693
 20
259.75259753700084
 10
-355.07275773421924
 20
259.15330928308947
 10
-355.53563254160554
 20
258.5349217942081
 10
-355.9784585775584
 20
257.8982332305615
 10
-356.40066428116205
 20
257.2440653737726
 10
-356.8017047064128
 20
256.5732625661993
 10
-357.1810622255876
 20
255.88669062113127
 10
-357.5382471973521
 20
255.18523570527483
 10
-357.8727985987471
 20
254.46980319496637
 10
-358.1842846202359
 20
253.74131650759233
 10
-358.47230322304665
 20
253.0007159097233
 10
-358.73648265808805
 20
252.24895730350056
 10
-358.97648194577107
 20
251.4870109928415
 10
-359.19199131611475
 20
250.71586043105685
 10
-359.3827326085706
 20
249.9365009514954
 10
-359.54845963104754
 20
249.14993848285536
 10
-359.68895847767493
 20
248.35718825081992
 10
-359.80404780489357
 20
247.55927346769346
 10
-359.8935790655181
 20
246.75722401172862
 10
-359.9574367004686
 20
245.95207509785038
 10
-359.9955382879238
 20
245.14486594149136
 10
-360.0078346497045
 20
244.33663841726425
  0
LWPOLYLINE
  5
9C
330
8C
100
AcDbEntity
  8
LIB-PLAN
100
AcDbPolyline
 90
33
 70
0
 10
348.19535548021275
 20
264.8825164597452
 10
327.6215180693303
 20
274.90542562106356
 10
306.8198499159891
 20
284.31470267284936
 10
285.80481667411686
 20
293.1038043251829
 10
264.5910323735078
 20
301.2666185633016
 10
243.19324925710387
 20
308.79746889794615
 10
221.62634752216195
 20
315.6911183128384
 10
199.90532497243973
 20
321.9427729065472
 10
178.04528658859752
 20
327.5480852262068
 10
156.06143402406948
 20
332.5031572907713
 10
133.96905503370598
 20
336.8045433017049
 10
111.78351284254077
 20
340.44925203921713
 10
89.52023546207623
 20
343.4347489423841
 10
67.19470496151561
 20
345.75895787170134
 10
44.8224467014023
 20
347.4202625528498
 10
22.41901853715392
 20
348.41750770066653
 10
-1.9011838867989255e-14
 20
348.7499998225392
 10
-22.419018537153956
 20
348.41750770066653
 10
-44.822446701402335
 20
347.4202625528498
 10
-67.19470496151565
 20
345.75895787170134
 10
-89.52023546207626
 20
343.4347489423841
 10
-111.7835128425408
 20
340.44925203921713
 10
-133.969055033706
 20
336.8045433017049
 10
-156.06143402406954
 20
332.5031572907713
 10
-178.04528658859758
 20
327.5480852262068
 10
-199.90532497243973
 20
321.9427729065474
 10
-221.62634752216206
 20
315.6911183128384
 10
-243.19324925710396
 20
308.79746889794615
 10
-264.59103237350786
 20
301.2666185633016
 10
-285.804816674117
 20
293.1038043251829
 10
-306.8198499159892
 20
284.3147026728496
 10
-327.6215180693304
 20
274.9054256210636
 10
-348.1953554802128
 20
264.8825164597452
  0
LINE
  5
9D
330
8C
100
AcDbEntity
  8
LIB-PLAN
100
AcDbLine
 10
359.49727148793767
 20
-427.5192306021916
 30
0.0
 11
360.00783464970453
 21
244.33663841726425
 31
0.0
  0
LWPOLYLINE
  5
9E
330
8C
100
AcDbEntity
  8
LIB-PLAN
100
AcDbPolyline
 90
33
 70
0
 10
360.0078346497045
 20
244.33663841726425
 10
359.9955382879238
 20
245.14486594149136
 10
359.9574367004686
 20
245.95207509785033
 10
359.8935790655181
 20
246.75722401172857
 10
359.80404780489357
 20
247.5592734676934
 10
359.68895847767493
 20
248.35718825081992
 10
359.54845963104754
 20
249.1499384828553
 10
359.3827326085706
 20
249.93650095149533
 10
359.19199131611475
 20
250.7158604310568
 10
358.97648194577107
 20
251.4870109928415
 10
358.73648265808805
 20
252.2489573035005
 10
358.47230322304665
 20
253.0007159097233
 10
358.1842846202359
 20
253.74131650759227
 10
357.8727985987471
 20
254.46980319496632
 10
357.5382471973521
 20
255.18523570527478
 10
357.18106222558754
 20
255.8866906211312
 10
356.8017047064128
 20
256.5732625661992
 10
356.40066428116205
 20
257.24406537377257
 10
355.9784585775584
 20
257.89823323056146
 10
355.53563254160554
 20
258.5349217942081
 10
355.07275773421924
 20
259.1533092830894
 10
354.59043159350693
 20
259.75259753700084
 10
354.08927666364684
 20
260.3320130473511
 10
353.56993979136314
 20
260.89080795553923
 10
353.0330912910326
 20
261.4282610182247
 10
352.4794240795019
 20
261.9436785382448
 10
351.90965278173167
 20
262.4363952599779
 10
351.3245128084211
 20
262.90577522799737
 10
350.72475940680476
 20
263.3512126079063
 10
350.1111666858456
 20
263.77213246829564
 10
349.4845266170834
 20
264.1679915228152
 10
348.8456480124273
 20
264.5382788313997
 10
348.19535548021275
 20
264.8825164597452
  0
LWPOLYLINE
  5
9F
330
8C
100
AcDbEntity
  8
LIB-PLAN
100
AcDbPolyline
 90
33
 70
0
 10
-429.9946816193522
 20
224.99999985003313
 10
-430.9768297473534
 20
224.97286811911482
 10
-431.95660921946694
 20
224.89153836021086
 10
-432.93165709231477
 20
224.75620671706653
 10
-433.8996218337614
 20
224.56719957027983
 10
-434.8581689941259
 20
224.3249727501662
 10
-435.80498683619663
 20
224.0301104374285
 10
-436.73779191046896
 20
223.68332375428258
 10
-437.6543345621624
 20
223.2854490494373
 10
-438.5524043567343
 20
222.83744588106458
 10
-439.4298354108052
 20
222.3403947026238
 10
-440.28451161564067
 20
221.7954942571219
 10
-441.11437174059023
 20
221.20405868609384
 10
-441.91741440417707
 20
220.56751436027494
 10
-442.6917029008482
 20
219.88739643960915
 10
-443.4353698717461
 20
219.1653451708894
 10
-444.14662180823495
 20
218.40310193195887
 10
-444.82374337732267
 20
217.60250503201385
 10
-445.46510155854577
 20
216.76548527813597
 10
-446.0691495823399
 20
215.89406131874654
 10
-446.6344306603985
 20
214.99033477521337
 10
-447.1595814990235
 20
214.0564851733505
 10
-447.6433355869925
 20
213.0947646870354
 10
-448.084526250017
 20
212.10749270662
 10
-448.48208946442077
 20
211.09705024523512
 10
-448.8350664232566
 20
210.06587419647872
 10
-449.1426058486693
 20
209.01645145733656
 10
-449.40396604493094
 20
207.95131293050952
 10
-449.6185166871954
 20
206.87302742061155
 10
-449.7857403416586
 20
205.78419543895944
 10
-449.9052337134586
 20
204.68744293189525
 10
-449.97670861930555
 20
203.58541494776674
 10
-449.999992682496
 20
202.4807692578393
  0
LINE
  5
A0
330
8C
100
AcDbEntity
  8
LIB-PLAN
100
AcDbLine
 10
-429.9946816193522
 20
224.9999998500331
 30
0.0
 11
-389.9840302652644
 21
224.9999998500331
 31
0.0
  0
LWPOLYLINE
  5
A1
330
8C
100
AcDbEntity
  8
LIB-PLAN
100
AcDbPolyline
 90
33
 70
0
 10
-369.9787192021206
 20
202.51923045222458
 10
-370.0036287875254
 20
203.62262934966918
 10
-370.07662055350653
 20
204.7233266760697
 10
-370.1975188477741
 20
205.81867363942527
 10
-370.36603273254985
 20
206.90603432320822
 10
-370.58175668469903
 20
207.9827920296105
 10
-370.84417157160914
 20
209.04635557654137
 10
-371.1526459004648
 20
210.09416553322185
 10
-371.5064373379151
 20
211.123700379371
 10
-371.9046944964741
 20
212.13248257316184
 10
-372.34645898335697
 20
213.1180845133443
 10
-372.83066770682086
 20
214.078134381188
 10
-373.3561554344602
 20
215.01032184818635
 10
-373.9216575973003
 20
215.91240363578618
 10
-374.52581333294097
 20
216.78220891376392
 10
-375.1671687604275
 20
217.61764452425746
 10
-375.84418047896725
 20
218.41670001888173
 10
-376.5552192820731
 20
219.17745249680684
 10
-377.2985740781953
 20
219.89807123215581
 10
-378.07245600840736
 20
220.5768220795864
 10
-378.87500275123614
 20
221.2120716474548
 10
-379.70428300427756
 20
221.8022912285192
 10
-380.5583011318123
 20
222.34606047872362
 10
-381.43500196723767
 20
222.84207083520906
 10
-382.3322757587589
 20
223.28912866532735
 10
-383.24796324643717
 20
223.68615813907874
 10
-384.17986085837816
 20
224.0322038180617
 10
-385.12572601355544
 20
224.32643295470388
 10
-386.0832825185079
 20
224.56813749624195
 10
-387.0502260449249
 20
224.75673578862728
 10
-388.0242296749367
 20
224.8917739762574
 10
-389.00294950076585
 20
224.97292709416453
 10
-389.9840302652644
 20
224.99999985003313
  0
LINE
  5
A2
330
8C
100
AcDbEntity
  8
LIB-PLAN
100
AcDbLine
 10
-369.67094771421006
 20
-202.480769457795
 30
0.0
 11
-369.97871920212066
 21
202.51923045222455
 31
0.0
  0
LWPOLYLINE
  5
A3
330
8C
100
AcDbEntity
  8
LIB-PLAN
100
AcDbPolyline
 90
33
 70
0
 10
-389.67625877735384
 20
-225.0000000499889
 10
-388.69411064935264
 20
-224.97286831907059
 10
-387.71433117723905
 20
-224.89153856016662
 10
-386.7392833043912
 20
-224.7562069170223
 10
-385.77131856294466
 20
-224.56719977023556
 10
-384.81277140258015
 20
-224.32497295012197
 10
-383.8659535605094
 20
-224.03011063738427
 10
-382.93314848623714
 20
-223.68332395423832
 10
-382.01660583454367
 20
-223.28544924939305
 10
-381.11853603997173
 20
-222.83744608102037
 10
-380.2411049859008
 20
-222.34039490257956
 10
-379.3864287810653
 20
-221.79549445707767
 10
-378.55656865611576
 20
-221.2040588860496
 10
-377.753525992529
 20
-220.56751456023073
 10
-376.97923749585783
 20
-219.88739663956494
 10
-376.23557052495994
 20
-219.16534537084516
 10
-375.52431858847115
 20
-218.40310213191466
 10
-374.84719701938343
 20
-217.60250523196964
 10
-374.2058388381603
 20
-216.76548547809173
 10
-373.6017908143662
 20
-215.89406151870233
 10
-373.03650973630755
 20
-214.99033497516913
 10
-372.5113588976826
 20
-214.0564853733063
 10
-372.0276048097136
 20
-213.0947648869912
 10
-371.5864141466891
 20
-212.10749290657577
 10
-371.1888509322852
 20
-211.09705044519092
 10
-370.8358739734494
 20
-210.06587439643448
 10
-370.52833454803675
 20
-209.01645165729238
 10
-370.26697435177505
 20
-207.95131313046534
 10
-370.0524237095106
 20
-206.87302762056734
 10
-369.88520005504745
 20
-205.78419563891526
 10
-369.76570668324746
 20
-204.68744313185107
 10
-369.69423177740055
 20
-203.58541514772253
 10
-369.67094771421006
 20
-202.48076945779516
  0
LINE
  5
A4
330
8C
100
AcDbEntity
  8
LIB-PLAN
100
AcDbLine
 10
-429.68691013144144
 20
-225.00000004998898
 30
0.0
 11
-389.67625877735384
 21
-225.00000004998898
 31
0.0
  0
LINE
  5
A5
330
8C
100
AcDbEntity
  8
LIB-PLAN
100
AcDbLine
 10
-449.6922211945854
 20
-202.51923065218057
 30
0.0
 11
-449.9999926824957
 21
202.48076925783928
 31
0.0
  0
LWPOLYLINE
  5
A6
330
8C
100
AcDbEntity
  8
LIB-PLAN
100
AcDbPolyline
 90
33
 70
0
 10
-449.6922211945852
 20
-202.51923065218043
 10
-449.6673116091804
 20
-203.62262954962503
 10
-449.5943198431993
 20
-204.72332687602554
 10
-449.47342154893164
 20
-205.81867383938112
 10
-449.3049076641559
 20
-206.90603452316404
 10
-449.08918371200673
 20
-207.98279222956634
 10
-448.8267688250967
 20
-209.04635577649717
 10
-448.51829449624097
 20
-210.09416573317765
 10
-448.16450305879073
 20
-211.12370057932682
 10
-447.7662459002317
 20
-212.13248277311763
 10
-447.32448141334885
 20
-213.11808471330008
 10
-446.8402726898849
 20
-214.0781345811438
 10
-446.31478496224554
 20
-215.01032204814214
 10
-445.74928279940553
 20
-215.91240383574194
 10
-445.14512706376485
 20
-216.78220911371972
 10
-444.5037716362783
 20
-217.61764472421325
 10
-443.8267599177385
 20
-218.41670021883752
 10
-443.1157211146327
 20
-219.1774526967626
 10
-442.37236631851044
 20
-219.8980714321116
 10
-441.59848438829846
 20
-220.57682227954217
 10
-440.7959376454696
 20
-221.21207184741056
 10
-439.9666573924282
 20
-221.802291428475
 10
-439.1126392648935
 20
-222.34606067867938
 10
-438.2359384294681
 20
-222.84207103516485
 10
-437.3386646379469
 20
-223.28912886528312
 10
-436.42297715026865
 20
-223.6861583390345
 10
-435.49107953832765
 20
-224.03220401801747
 10
-434.5452143831504
 20
-224.32643315465964
 10
-433.5876578781979
 20
-224.5681376961977
 10
-432.6207143517809
 20
-224.75673598858305
 10
-431.64671072176907
 20
-224.89177417621315
 10
-430.66799089593997
 20
-224.97292729412027
 10
-429.68691013144144
 20
-225.0000000499889
  0
LWPOLYLINE
  5
A7
330
8C
100
AcDbEntity
  8
LIB-PLAN
100
AcDbPolyline
 90
33
 70
0
 10
369.67094771420994
 20
-202.48076945779516
 10
369.69423177740043
 20
-203.58541514772253
 10
369.7657066832474
 20
-204.68744313185107
 10
369.88520005504733
 20
-205.78419563891526
 10
370.05242370951055
 20
-206.87302762056737
 10
370.266974351775
 20
-207.95131313046534
 10
370.52833454803664
 20
-209.01645165729238
 10
370.8358739734493
 20
-210.06587439643448
 10
371.18885093228516
 20
-211.09705044519092
 10
371.586414146689
 20
-212.10749290657577
 10
372.02760480971347
 20
-213.0947648869912
 10
372.5113588976825
 20
-214.0564853733063
 10
373.03650973630744
 20
-214.99033497516913
 10
373.6017908143661
 20
-215.89406151870233
 10
374.20583883816016
 20
-216.76548547809173
 10
374.84719701938326
 20
-217.60250523196964
 10
375.52431858847103
 20
-218.40310213191466
 10
376.2355705249599
 20
-219.16534537084516
 10
376.9792374958578
 20
-219.88739663956494
 10
377.7535259925289
 20
-220.56751456023073
 10
378.55656865611564
 20
-221.2040588860496
 10
379.38642878106526
 20
-221.79549445707767
 10
380.2411049859007
 20
-222.34039490257956
 10
381.1185360399717
 20
-222.83744608102035
 10
382.0166058345435
 20
-223.28544924939305
 10
382.93314848623703
 20
-223.68332395423832
 10
383.86595356050935
 20
-224.03011063738427
 10
384.81277140258
 20
-224.32497295012197
 10
385.77131856294454
 20
-224.56719977023556
 10
386.73928330439117
 20
-224.7562069170223
 10
387.714331177239
 20
-224.89153856016662
 10
388.69411064935247
 20
-224.97286831907059
 10
389.6762587773537
 20
-225.0000000499889
  0
LINE
  5
A8
330
8C
100
AcDbEntity
  8
LIB-PLAN
100
AcDbLine
 10
389.6762587773537
 20
-225.00000004998898
 30
0.0
 11
429.68691013144144
 21
-225.00000004998898
 31
0.0
  0
LWPOLYLINE
  5
A9
330
8C
100
AcDbEntity
  8
LIB-PLAN
100
AcDbPolyline
 90
33
 70
0
 10
429.68691013144144
 20
-225.0000000499889
 10
430.66799089593997
 20
-224.97292729412027
 10
431.64671072176907
 20
-224.89177417621315
 10
432.6207143517809
 20
-224.75673598858305
 10
433.5876578781979
 20
-224.5681376961977
 10
434.5452143831504
 20
-224.32643315465964
 10
435.49107953832765
 20
-224.03220401801747
 10
436.42297715026865
 20
-223.68615833903453
 10
437.3386646379469
 20
-223.28912886528312
 10
438.2359384294681
 20
-222.84207103516485
 10
439.1126392648935
 20
-222.3460606786794
 10
439.9666573924282
 20
-221.802291428475
 10
440.7959376454696
 20
-221.21207184741056
 10
441.59848438829835
 20
-220.5768222795422
 10
442.37236631851044
 20
-219.8980714321116
 10
443.1157211146327
 20
-219.17745269676263
 10
443.8267599177385
 20
-218.41670021883752
 10
444.5037716362783
 20
-217.61764472421325
 10
445.14512706376485
 20
-216.78220911371972
 10
445.74928279940553
 20
-215.91240383574197
 10
446.31478496224554
 20
-215.01032204814217
 10
446.8402726898849
 20
-214.0781345811438
 10
447.32448141334885
 20
-213.11808471330008
 10
447.7662459002317
 20
-212.13248277311766
 10
448.1645030587906
 20
-211.12370057932682
 10
448.51829449624097
 20
-210.09416573317768
 10
448.8267688250967
 20
-209.0463557764972
 10
449.08918371200673
 20
-207.98279222956634
 10
449.3049076641559
 20
-206.90603452316407
 10
449.47342154893164
 20
-205.81867383938115
 10
449.5943198431993
 20
-204.72332687602557
 10
449.6673116091804
 20
-203.62262954962503
 10
449.6922211945852
 20
-202.51923065218045
  0
LINE
  5
AA
330
8C
100
AcDbEntity
  8
LIB-PLAN
100
AcDbLine
 10
369.67094771421
 20
-202.480769457795
 30
0.0
 11
369.97871920212066
 21
202.51923045222466
 31
0.0
  0
LWPOLYLINE
  5
AB
330
8C
100
AcDbEntity
  8
LIB-PLAN
100
AcDbPolyline
 90
33
 70
0
 10
389.98403026526444
 20
224.99999985003313
 10
389.0029495007659
 20
224.97292709416453
 10
388.0242296749368
 20
224.8917739762574
 10
387.050226044925
 20
224.75673578862728
 10
386.08328251850793
 20
224.56813749624195
 10
385.1257260135555
 20
224.32643295470388
 10
384.1798608583783
 20
224.0322038180617
 10
383.2479632464372
 20
223.68615813907874
 10
382.33227575875895
 20
223.28912866532735
 10
381.4350019672378
 20
222.84207083520909
 10
380.55830113181236
 20
222.34606047872362
 10
379.70428300427767
 20
221.80229122851924
 10
378.8750027512363
 20
221.2120716474548
 10
378.07245600840747
 20
220.5768220795864
 10
377.29857407819543
 20
219.89807123215584
 10
376.5552192820732
 20
219.17745249680686
 10
375.84418047896736
 20
218.41670001888176
 10
375.1671687604276
 20
217.61764452425749
 10
374.5258133329411
 20
216.78220891376398
 10
373.9216575973004
 20
215.91240363578623
 10
373.35615543446033
 20
215.01032184818638
 10
372.830667706821
 20
214.07813438118805
 10
372.3464589833571
 20
213.11808451334431
 10
371.9046944964742
 20
212.1324825731619
 10
371.5064373379152
 20
211.1237003793711
 10
371.1526459004649
 20
210.09416553322188
 10
370.84417157160925
 20
209.04635557654143
 10
370.5817566846992
 20
207.98279202961058
 10
370.3660327325499
 20
206.9060343232083
 10
370.19751884777423
 20
205.81867363942536
 10
370.07662055350664
 20
204.72332667606977
 10
370.0036287875255
 20
203.62262934966927
 10
369.97871920212066
 20
202.51923045222466
  0
LINE
  5
AC
330
8C
100
AcDbEntity
  8
LIB-PLAN
100
AcDbLine
 10
389.98403026526444
 20
224.9999998500331
 30
0.0
 11
429.9946816193522
 21
224.9999998500331
 31
0.0
  0
LINE
  5
AD
330
8C
100
AcDbEntity
  8
LIB-PLAN
100
AcDbLine
 10
449.69222119458504
 20
-202.51923065218057
 30
0.0
 11
449.9999926824957
 21
202.4807692578394
 31
0.0
  0
LWPOLYLINE
  5
AE
330
8C
100
AcDbEntity
  8
LIB-PLAN
100
AcDbPolyline
 90
33
 70
0
 10
449.999992682496
 20
202.48076925783937
 10
449.97670861930544
 20
203.58541494776676
 10
449.9052337134586
 20
204.6874429318953
 10
449.7857403416586
 20
205.78419543895947
 10
449.6185166871954
 20
206.8730274206116
 10
449.40396604493094
 20
207.95131293050957
 10
449.1426058486693
 20
209.0164514573366
 10
448.8350664232566
 20
210.06587419647875
 10
448.48208946442077
 20
211.09705024523515
 10
448.084526250017
 20
212.10749270662004
 10
447.6433355869925
 20
213.09476468703542
 10
447.1595814990234
 20
214.05648517335052
 10
446.6344306603985
 20
214.9903347752134
 10
446.0691495823399
 20
215.89406131874654
 10
445.46510155854577
 20
216.765485278136
 10
444.82374337732267
 20
217.60250503201388
 10
444.14662180823495
 20
218.4031019319589
 10
443.4353698717461
 20
219.1653451708894
 10
442.6917029008482
 20
219.88739643960915
 10
441.91741440417707
 20
220.56751436027494
 10
441.11437174059023
 20
221.20405868609384
 10
440.28451161564067
 20
221.7954942571219
 10
439.4298354108052
 20
222.3403947026238
 10
438.5524043567343
 20
222.8374458810646
 10
437.6543345621624
 20
223.2854490494373
 10
436.73779191046896
 20
223.68332375428258
 10
435.8049868361966
 20
224.0301104374285
 10
434.8581689941259
 20
224.3249727501662
 10
433.8996218337614
 20
224.56719957027983
 10
432.93165709231477
 20
224.75620671706653
 10
431.956609219467
 20
224.89153836021086
 10
430.9768297473534
 20
224.97286811911482
 10
429.9946816193522
 20
224.99999985003313
  0
ENDBLK
  5
8E
330
8C
100
AcDbEntity
  8
0
100
AcDbBlockEnd
  0
ENDSEC
  0
SECTION
  2
ENTITIES
  0
ENDSEC
  0
SECTION
  2
OBJECTS
  0
DICTIONARY
  5
A
330
0
100
AcDbDictionary
281
1
  3
ACAD_COLOR
350
B
  3
ACAD_GROUP
350
C
  3
ACAD_LAYOUT
350
D
  3
ACAD_MATERIAL
350
E
  3
ACAD_MLEADERSTYLE
350
F
  3
ACAD_MLINESTYLE
350
10
  3
ACAD_PLOTSETTINGS
350
11
  3
ACAD_PLOTSTYLENAME
350
12
  3
ACAD_SCALELIST
350
14
  3
ACAD_TABLESTYLE
350
15
  3
ACAD_VISUALSTYLE
350
16
  3
EZDXF_META
350
2D
  0
DICTIONARY
  5
B
330
A
100
AcDbDictionary
281
1
  0
DICTIONARY
  5
C
330
A
100
AcDbDictionary
281
1
  0
DICTIONARY
  5
D
330
A
100
AcDbDictionary
281
1
  3
Model
350
1A
  3
Layout1
350
1E
  0
DICTIONARY
  5
E
330
A
100
AcDbDictionary
281
1
  3
ByBlock
350
1F
  3
ByLayer
350
20
  3
Global
350
21
  0
DICTIONARY
  5
F
330
A
100
AcDbDictionary
281
1
  3
Standard
350
2C
  0
DICTIONARY
  5
10
330
A
100
AcDbDictionary
281
1
  3
Standard
350
22
  0
DICTIONARY
  5
11
330
A
100
AcDbDictionary
281
1
  0
ACDBDICTIONARYWDFLT
  5
12
330
A
100
AcDbDictionary
281
1
  3
Normal
350
13
100
AcDbDictionaryWithDefault
340
13
  0
ACDBPLACEHOLDER
  5
13
330
12
  0
DICTIONARY
  5
14
330
A
100
AcDbDictionary
281
1
  0
DICTIONARY
  5
15
330
A
100
AcDbDictionary
281
1
  0
DICTIONARY
  5
16
330
A
100
AcDbDictionary
281
1
  3
2dWireframe
350
5A
  3
Basic
350
5B
  3
Brighten
350
5C
  3
ColorChange
350
5D
  3
Conceptual
350
5E
  3
Dim
350
5F
  3
EdgeColorOff
350
60
  3
Facepattern
350
61
  3
Flat
350
62
  3
FlatWithEdges
350
63
  3
Gouraud
350
64
  3
GouraudWithEdges
350
65
  3
Hidden
350
66
  3
JitterOff
350
67
  3
Linepattern
350
68
  3
Modeling
350
69
  3
OverhangOff
350
6A
  3
Realistic
350
6B
  3
Shaded
350
6C
  3
Shaded with edges
350
6D
  3
Shades of Gray
350
6E
  3
Sketchy
350
6F
  3
Thicken
350
70
  3
Wireframe
350
71
  3
X-Ray
350
72
  0
LAYOUT
  5
1A
330
D
100
AcDbPlotSettings
  1

  4
A3
  6

 40
7.5
 41
20.0
 42
7.5
 43
20.0
 44
420.0
 45
297.0
 46
0.0
 47
0.0
 48
0.0
 49
0.0
140
0.0
141
0.0
142
1.0
143
1.0
 70
1024
 72
1
 73
0
 74
5
  7

 75
16
 76
0
 77
2
 78
300
147
1.0
148
0.0
149
0.0
100
AcDbLayout
  1
Model
 70
1
 71
0
 10
0.0
 20
0.0
 11
420.0
 21
297.0
 12
0.0
 22
0.0
 32
0.0
 14
1e+20
 24
1e+20
 34
1e+20
 15
-1e+20
 25
-1e+20
 35
-1e+20
146
0.0
 13
0.0
 23
0.0
 33
0.0
 16
1.0
 26
0.0
 36
0.0
 17
0.0
 27
1.0
 37
0.0
 76
1
330
17
  0
LAYOUT
  5
1E
330
D
100
AcDbPlotSettings
  1

  4
A3
  6

 40
7.5
 41
20.0
 42
7.5
 43
20.0
 44
420.0
 45
297.0
 46
0.0
 47
0.0
 48
0.0
 49
0.0
140
0.0
141
0.0
142
1.0
143
1.0
 70
0
 72
1
 73
0
 74
5
  7

 75
16
 76
0
 77
2
 78
300
147
1.0
148
0.0
149
0.0
100
AcDbLayout
  1
Layout1
 70
1
 71
1
 10
0.0
 20
0.0
 11
420.0
 21
297.0
 12
0.0
 22
0.0
 32
0.0
 14
1e+20
 24
1e+20
 34
1e+20
 15
-1e+20
 25
-1e+20
 35
-1e+20
146
0.0
 13
0.0
 23
0.0
 33
0.0
 16
1.0
 26
0.0
 36
0.0
 17
0.0
 27
1.0
 37
0.0
 76
1
330
1B
  0
MATERIAL
  5
1F
102
{ACAD_REACTORS
330
E
102
}
330
E
100
AcDbMaterial
  1
ByBlock
  2

 70
0
 40
1.0
 71
1
 41
1.0
 91
-1023410177
 42
1.0
 72
1
  3

 73
1
 74
1
 75
1
 44
0.5
 73
0
 45
1.0
 46
1.0
 77
1
  4

 78
1
 79
1
170
1
 48
1.0
171
1
  6

172
1
173
1
174
1
140
1.0
141
1.0
175
1
  7

176
1
177
1
178
1
143
1.0
179
1
  8

270
1
271
1
272
1
145
1.0
146
1.0
273
1
  9

274
1
275
1
276
1
 42
1.0
 72
1
  3

 73
1
 74
1
 75
1
 94
63
  0
MATERIAL
  5
20
102
{ACAD_REACTORS
330
E
102
}
330
E
100
AcDbMaterial
  1
ByLayer
  2

 70
0
 40
1.0
 71
1
 41
1.0
 91
-1023410177
 42
1.0
 72
1
  3

 73
1
 74
1
 75
1
 44
0.5
 73
0
 45
1.0
 46
1.0
 77
1
  4

 78
1
 79
1
170
1
 48
1.0
171
1
  6

172
1
173
1
174
1
140
1.0
141
1.0
175
1
  7

176
1
177
1
178
1
143
1.0
179
1
  8

270
1
271
1
272
1
145
1.0
146
1.0
273
1
  9

274
1
275
1
276
1
 42
1.0
 72
1
  3

 73
1
 74
1
 75
1
 94
63
  0
MATERIAL
  5
21
102
{ACAD_REACTORS
330
E
102
}
330
E
100
AcDbMaterial
  1
Global
  2

 70
0
 40
1.0
 71
1
 41
1.0
 91
-1023410177
 42
1.0
 72
1
  3

 73
1
 74
1
 75
1
 44
0.5
 73
0
 45
1.0
 46
1.0
 77
1
  4

 78
1
 79
1
170
1
 48
1.0
171
1
  6

172
1
173
1
174
1
140
1.0
141
1.0
175
1
  7

176
1
177
1
178
1
143
1.0
179
1
  8

270
1
271
1
272
1
145
1.0
146
1.0
273
1
  9

274
1
275
1
276
1
 42
1.0
 72
1
  3

 73
1
 74
1
 75
1
 94
63
  0
MLINESTYLE
  5
22
102
{ACAD_REACTORS
330
10
102
}
330
10
100
AcDbMlineStyle
  2
Standard
 70
0
  3

 62
256
 51
90.0
 52
90.0
 71
2
 49
0.5
 62
256
  6
BYLAYER
 49
-0.5
 62
256
  6
BYLAYER
  0
MLEADERSTYLE
  5
2C
102
{ACAD_REACTORS
330
F
102
}
330
F
100
AcDbMLeaderStyle
179
2
170
2
171
1
172
0
 90
2
 40
0.0
 41
0.0
173
1
 91
-1056964608
 92
-2
290
1
 42
2.0
291
1
 43
8.0
  3
Standard
 44
4.0
300

342
29
174
1
175
1
176
0
178
1
 93
-1056964608
 45
4.0
292
0
297
0
 46
4.0
 94
-1056964608
 47
1.0
 49
1.0
140
1.0
294
1
141
0.0
177
0
142
1.0
295
0
296
0
143
3.75
271
0
272
9
273
9
  0
DICTIONARY
  5
2D
330
A
100
AcDbDictionary
280
1
281
1
  3
CREATED_BY_EZDXF
350
2E
  3
WRITTEN_BY_EZDXF
350
B1
  0
DICTIONARYVAR
  5
2E
330
2D
100
DictionaryVariables
280
0
  1
1.4.4 @ 2026-09-26T08:44:24.600699+00:00
  0
VISUALSTYLE
  5
5A
102
{ACAD_REACTORS
330
16
102
}
330
16
100
AcDbVisualStyle
  2
2dWireframe
 70
4
177
3
291
0
 70
58
 90
2
176
1
 90
2
176
1
 90
0
176
1
 90
0
176
1
 40
0.6
176
1
 40
30.0
176
1
 62
7
420
16777215
176
1
 90
1
176
1
 90
4
176
1
 62
7
176
1
 62
257
176
1
 90
1
176
1
 90
1
176
1
 40
1.0
176
1
 90
8
176
1
 62
7
176
1
 40
1.0
176
1
 90
1
176
1
 90
6
176
1
 90
2
176
1
 62
7
176
1
 90
5
176
1
 90
0
176
1
 90
0
176
1
290
0
176
1
 90
1
176
1
 40
0.0
176
1
 90
0
176
1
290
1
176
1
290
1
176
1
290
0
176
1
290
0
176
1
290
0
176
1
290
0
176
1
290
0
176
1
290
0
176
1
290
0
176
1
 90
50
176
1
 40
0.0
176
1
 40
1.0
176
1
 90
0
176
1
 62
18
420
0
176
1
 90
50
176
1
 90
3
176
1
 62
5
420
255
176
1
290
0
176
1
 90
50
176
1
 90
50
176
1
 90
50
176
1
290
0
176
1
 90
50
176
1
 62
256
176
0
 40
1.0
176
0
 90
2
176
1
  1
strokes_ogs.tif
176
1
290
0
176
1
 40
1.0
176
1
 40
1.0
176
1
  0
VISUALSTYLE
  5
5B
102
{ACAD_REACTORS
330
16
102
}
330
16
100
AcDbVisualStyle
  2
Basic
 70
7
177
3
291
1
 70
58
 90
2
176
1
 90
2
176
1
 90
0
176
1
 90
1
176
1
 40
0.6
176
1
 40
30.0
176
1
 62
7
420
16777215
176
1
 90
1
176
1
 90
4
176
1
 62
7
176
1
 62
257
176
1
 90
1
176
1
 90
1
176
1
 40
1.0
176
1
 90
8
176
1
 62
7
176
1
 40
1.0
176
1
 90
1
176
1
 90
6
176
1
 90
2
176
1
 62
7
176
1
 90
5
176
1
 90
0
176
1
 90
0
176
1
290
0
176
1
 90
1
176
1
 40
0.0
176
1
 90
0
176
1
290
0
176
1
290
1
176
1
290
1
176
1
290
0
176
1
290
0
176
1
290
0
176
1
290
0
176
1
290
0
176
1
290
0
176
1
 90
50
176
1
 40
0.0
176
1
 40
1.0
176
1
 90
0
176
1
 62
18
420
0
176
1
 90
50
176
1
 90
3
176
1
 62
5
420
255
176
1
290
0
176
1
 90
50
176
1
 90
50
176
1
 90
50
176
1
290
0
176
1
 90
50
176
1
 62
256
176
0
 40
1.0
176
0
 90
2
176
1
  1
strokes_ogs.tif
176
1
290
0
176
1
 40
1.0
176
1
 40
1.0
176
1
  0
VISUALSTYLE
  5
5C
102
{ACAD_REACTORS
330
16
102
}
330
16
100
AcDbVisualStyle
  2
Brighten
 70
12
177
3
291
1
 70
58
 90
2
176
1
 90
2
176
1
 90
0
176
1
 90
2
176
1
 40
0.6
176
1
 40
30.0
176
1
 62
7
420
16777215
176
1
 90
1
176
1
 90
4
176
1
 62
7
176
1
 62
257
176
1
 90
1
176
1
 90
1
176
1
 40
1.0
176
1
 90
8
176
1
 62
7
176
1
 40
1.0
176
1
 90
1
176
1
 90
6
176
1
 90
2
176
1
 62
7
176
1
 90
5
176
1
 90
0
176
1
 90
0
176
1
290
0
176
1
 90
1
176
1
 40
0.0
176
1
 90
0
176
1
290
0
176
1
290
1
176
1
290
1
176
1
290
0
176
1
290
0
176
1
290
0
176
1
290
0
176
1
290
0
176
1
290
0
176
1
 90
50
176
1
 40
0.0
176
1
 40
1.0
176
1
 90
0
176
1
 62
18
420
0
176
1
 90
50
176
1
 90
3
176
1
 62
5
420
255
176
1
290
0
176
1
 90
50
176
1
 90
50
176
1
 90
50
176
1
290
0
176
1
 90
50
176
1
 62
256
176
0
 40
1.0
176
0
 90
2
176
1
  1
strokes_ogs.tif
176
1
290
0
176
1
 40
1.0
176
1
 40
1.0
176
1
  0
VISUALSTYLE
  5
5D
102
{ACAD_REACTORS
330
16
102
}
330
16
100
AcDbVisualStyle
  2
ColorChange
 70
16
177
3
291
1
 70
58
 90
2
176
1
 90
2
176
1
 90
0
176
1
 90
2
176
1
 40
0.6
176
1
 40
30.0
176
1
 62
7
420
16777215
176
1
 90
1
176
1
 90
4
176
1
 62
7
176
1
 62
257
176
1
 90
1
176
1
 90
1
176
1
 40
1.0
176
1
 90
8
176
1
 62
7
176
1
 40
1.0
176
1
 90
1
176
1
 90
6
176
1
 90
2
176
1
 62
7
176
1
 90
5
176
1
 90
0
176
1
 90
0
176
1
290
0
176
1
 90
1
176
1
 40
0.0
176
1
 90
0
176
1
290
0
176
1
290
1
176
1
290
1
176
1
290
0
176
1
290
0
176
1
290
0
176
1
290
0
176
1
290
0
176
1
290
0
176
1
 90
50
176
1
 40
0.0
176
1
 40
1.0
176
1
 90
0
176
1
 62
18
420
0
176
1
 90
50
176
1
 90
3
176
1
 62
5
420
255
176
1
290
0
176
1
 90
50
176
1
 90
50
176
1
 90
50
176
1
290
0
176
1
 90
50
176
1
 62
256
176
0
 40
1.0
176
0
 90
2
176
1
  1
strokes_ogs.tif
176
1
290
0
176
1
 40
1.0
176
1
 40
1.0
176
1
  0
VISUALSTYLE
  5
5E
102
{ACAD_REACTORS
330
16
102
}
330
16
100
AcDbVisualStyle
  2
Conceptual
 70
9
177
3
291
0
 70
58
 90
2
176
1
 90
2
176
1
 90
0
176
1
 90
3
176
1
 40
0.6
176
1
 40
30.0
176
1
 62
7
420
16777215
176
1
 90
1
176
1
 90
4
176
1
 62
7
176
1
 62
257
176
1
 90
1
176
1
 90
1
176
1
 40
1.0
176
1
 90
8
176
1
 62
7
176
1
 40
1.0
176
1
 90
1
176
1
 90
6
176
1
 90
2
176
1
 62
7
176
1
 90
5
176
1
 90
0
176
1
 90
0
176
1
290
0
176
1
 90
1
176
1
 40
0.0
176
1
 90
0
176
1
290
0
176
1
290
1
176
1
290
1
176
1
290
0
176
1
290
0
176
1
290
0
176
1
290
0
176
1
290
0
176
1
290
0
176
1
 90
50
176
1
 40
0.0
176
1
 40
1.0
176
1
 90
0
176
1
 62
18
420
0
176
1
 90
50
176
1
 90
3
176
1
 62
5
420
255
176
1
290
0
176
1
 90
50
176
1
 90
50
176
1
 90
50
176
1
290
0
176
1
 90
50
176
1
 62
256
176
0
 40
1.0
176
0
 90
2
176
1
  1
strokes_ogs.tif
176
1
290
0
176
1
 40
1.0
176
1
 40
1.0
176
1
  0
VISUALSTYLE
  5
5F
102
{ACAD_REACTORS
330
16
102
}
330
16
100
AcDbVisualStyle
  2
Dim
 70
11
177
3
291
1
 70
58
 90
2
176
1
 90
2
176
1
 90
0
176
1
 90
2
176
1
 40
0.6
176
1
 40
30.0
176
1
 62
7
420
16777215
176
1
 90
1
176
1
 90
4
176
1
 62
7
176
1
 62
257
176
1
 90
1
176
1
 90
1
176
1
 40
1.0
176
1
 90
8
176
1
 62
7
176
1
 40
1.0
176
1
 90
1
176
1
 90
6
176
1
 90
2
176
1
 62
7
176
1
 90
5
176
1
 90
0
176
1
 90
0
176
1
290
0
176
1
 90
1
176
1
 40
0.0
176
1
 90
0
176
1
290
0
176
1
290
1
176
1
290
1
176
1
290
0
176
1
290
0
176
1
290
0
176
1
290
0
176
1
290
0
176
1
290
0
176
1
 90
50
176
1
 40
0.0
176
1
 40
1.0
176
1
 90
0
176
1
 62
18
420
0
176
1
 90
50
176
1
 90
3
176
1
 62
5
420
255
176
1
290
0
176
1
 90
50
176
1
 90
50
176
1
 90
50
176
1
290
0
176
1
 90
50
176
1
 62
256
176
0
 40
1.0
176
0
 90
2
176
1
  1
strokes_ogs.tif
176
1
290
0
176
1
 40
1.0
176
1
 40
1.0
176
1
  0
VISUALSTYLE
  5
60
102
{ACAD_REACTORS
330
16
102
}
330
16
100
AcDbVisualStyle
  2
EdgeColorOff
 70
22
177
3
291
1
 70
58
 90
2
176
1
 90
2
176
1
 90
0
176
1
 90
2
176
1
 40
0.6
176
1
 40
30.0
176
1
 62
7
420
16777215
176
1
 90
1
176
1
 90
4
176
1
 62
7
176
1
 62
257
176
1
 90
1
176
1
 90
1
176
1
 40
1.0
176
1
 90
8
176
1
 62
7
176
1
 40
1.0
176
1
 90
1
176
1
 90
6
176
1
 90
2
176
1
 62
7
176
1
 90
5
176
1
 90
0
176
1
 90
0
176
1
290
0
176
1
 90
1
176
1
 40
0.0
176
1
 90
0
176
1
290
0
176
1
290
1
176
1
290
1
176
1
290
0
176
1
290
0
176
1
290
0
176
1
290
0
176
1
290
0
176
1
290
0
176
1
 90
50
176
1
 40
0.0
176
1
 40
1.0
176
1
 90
0
176
1
 62
18
420
0
176
1
 90
50
176
1
 90
3
176
1
 62
5
420
255
176
1
290
0
176
1
 90
50
176
1
 90
50
176
1
 90
50
176
1
290
0
176
1
 90
50
176
1
 62
256
176
0
 40
1.0
176
0
 90
2
176
1
  1
strokes_ogs.tif
176
1
290
0
176
1
 40
1.0
176
1
 40
1.0
176
1
  0
VISUALSTYLE
  5
61
102
{ACAD_REACTORS
330
16
102
}
330
16
100
AcDbVisualStyle
  2
Facepattern
 70
15
177
3
291
1
 70
58
 90
2
176
1
 90
2
176
1
 90
0
176
1
 90
2
176
1
 40
0.6
176
1
 40
30.0
176
1
 62
7
420
16777215
176
1
 90
1
176
1
 90
4
176
1
 62
7
176
1
 62
257
176
1
 90
1
176
1
 90
1
176
1
 40
1.0
176
1
 90
8
176
1
 62
7
176
1
 40
1.0
176
1
 90
1
176
1
 90
6
176
1
 90
2
176
1
 62
7
176
1
 90
5
176
1
 90
0
176
1
 90
0
176
1
290
0
176
1
 90
1
176
1
 40
0.0
176
1
 90
0
176
1
290
0
176
1
290
1
176
1
290
1
176
1
290
0
176
1
290
0
176
1
290
0
176
1
290
0
176
1
290
0
176
1
290
0
176
1
 90
50
176
1
 40
0.0
176
1
 40
1.0
176
1
 90
0
176
1
 62
18
420
0
176
1
 90
50
176
1
 90
3
176
1
 62
5
420
255
176
1
290
0
176
1
 90
50
176
1
 90
50
176
1
 90
50
176
1
290
0
176
1
 90
50
176
1
 62
256
176
0
 40
1.0
176
0
 90
2
176
1
  1
strokes_ogs.tif
176
1
290
0
176
1
 40
1.0
176
1
 40
1.0
176
1
  0
VISUALSTYLE
  5
62
102
{ACAD_REACTORS
330
16
102
}
330
16
100
AcDbVisualStyle
  2
Flat
 70
0
177
3
291
1
 70
58
 90
2
176
1
 90
2
176
1
 90
0
176
1
 90
2
176
1
 40
0.6
176
1
 40
30.0
176
1
 62
7
420
16777215
176
1
 90
1
176
1
 90
4
176
1
 62
7
176
1
 62
257
176
1
 90
1
176
1
 90
1
176
1
 40
1.0
176
1
 90
8
176
1
 62
7
176
1
 40
1.0
176
1
 90
1
176
1
 90
6
176
1
 90
2
176
1
 62
7
176
1
 90
5
176
1
 90
0
176
1
 90
0
176
1
290
0
176
1
 90
1
176
1
 40
0.0
176
1
 90
0
176
1
290
0
176
1
290
1
176
1
290
1
176
1
290
0
176
1
290
0
176
1
290
0
176
1
290
0
176
1
290
0
176
1
290
0
176
1
 90
50
176
1
 40
0.0
176
1
 40
1.0
176
1
 90
0
176
1
 62
18
420
0
176
1
 90
50
176
1
 90
3
176
1
 62
5
420
255
176
1
290
0
176
1
 90
50
176
1
 90
50
176
1
 90
50
176
1
290
0
176
1
 90
50
176
1
 62
256
176
0
 40
1.0
176
0
 90
2
176
1
  1
strokes_ogs.tif
176
1
290
0
176
1
 40
1.0
176
1
 40
1.0
176
1
  0
VISUALSTYLE
  5
63
102
{ACAD_REACTORS
330
16
102
}
330
16
100
AcDbVisualStyle
  2
FlatWithEdges
 70
1
177
3
291
1
 70
58
 90
2
176
1
 90
2
176
1
 90
0
176
1
 90
2
176
1
 40
0.6
176
1
 40
30.0
176
1
 62
7
420
16777215
176
1
 90
1
176
1
 90
4
176
1
 62
7
176
1
 62
257
176
1
 90
1
176
1
 90
1
176
1
 40
1.0
176
1
 90
8
176
1
 62
7
176
1
 40
1.0
176
1
 90
1
176
1
 90
6
176
1
 90
2
176
1
 62
7
176
1
 90
5
176
1
 90
0
176
1
 90
0
176
1
290
0
176
1
 90
1
176
1
 40
0.0
176
1
 90
0
176
1
290
0
176
1
290
1
176
1
290
1
176
1
290
0
176
1
290
0
176
1
290
0
176
1
290
0
176
1
290
0
176
1
290
0
176
1
 90
50
176
1
 40
0.0
176
1
 40
1.0
176
1
 90
0
176
1
 62
18
420
0
176
1
 90
50
176
1
 90
3
176
1
 62
5
420
255
176
1
290
0
176
1
 90
50
176
1
 90
50
176
1
 90
50
176
1
290
0
176
1
 90
50
176
1
 62
256
176
0
 40
1.0
176
0
 90
2
176
1
  1
strokes_ogs.tif
176
1
290
0
176
1
 40
1.0
176
1
 40
1.0
176
1
  0
VISUALSTYLE
  5
64
102
{ACAD_REACTORS
330
16
102
}
330
16
100
AcDbVisualStyle
  2
Gouraud
 70
2
177
3
291
1
 70
58
 90
2
176
1
 90
2
176
1
 90
0
176
1
 90
2
176
1
 40
0.6
176
1
 40
30.0
176
1
 62
7
420
16777215
176
1
 90
1
176
1
 90
4
176
1
 62
7
176
1
 62
257
176
1
 90
1
176
1
 90
1
176
1
 40
1.0
176
1
 90
8
176
1
 62
7
176
1
 40
1.0
176
1
 90
1
176
1
 90
6
176
1
 90
2
176
1
 62
7
176
1
 90
5
176
1
 90
0
176
1
 90
0
176
1
290
0
176
1
 90
1
176
1
 40
0.0
176
1
 90
0
176
1
290
0
176
1
290
1
176
1
290
1
176
1
290
0
176
1
290
0
176
1
290
0
176
1
290
0
176
1
290
0
176
1
290
0
176
1
 90
50
176
1
 40
0.0
176
1
 40
1.0
176
1
 90
0
176
1
 62
18
420
0
176
1
 90
50
176
1
 90
3
176
1
 62
5
420
255
176
1
290
0
176
1
 90
50
176
1
 90
50
176
1
 90
50
176
1
290
0
176
1
 90
50
176
1
 62
256
176
0
 40
1.0
176
0
 90
2
176
1
  1
strokes_ogs.tif
176
1
290
0
176
1
 40
1.0
176
1
 40
1.0
176
1
  0
VISUALSTYLE
  5
65
102
{ACAD_REACTORS
330
16
102
}
330
16
100
AcDbVisualStyle
  2
GouraudWithEdges
 70
3
177
3
291
1
 70
58
 90
2
176
1
 90
2
176
1
 90
0
176
1
 90
2
176
1
 40
0.6
176
1
 40
30.0
176
1
 62
7
420
16777215
176
1
 90
1
176
1
 90
4
176
1
 62
7
176
1
 62
257
176
1
 90
1
176
1
 90
1
176
1
 40
1.0
176
1
 90
8
176
1
 62
7
176
1
 40
1.0
176
1
 90
1
176
1
 90
6
176
1
 90
2
176
1
 62
7
176
1
 90
5
176
1
 90
0
176
1
 90
0
176
1
290
0
176
1
 90
1
176
1
 40
0.0
176
1
 90
0
176
1
290
0
176
1
290
1
176
1
290
1
176
1
290
0
176
1
290
0
176
1
290
0
176
1
290
0
176
1
290
0
176
1
290
0
176
1
 90
50
176
1
 40
0.0
176
1
 40
1.0
176
1
 90
0
176
1
 62
18
420
0
176
1
 90
50
176
1
 90
3
176
1
 62
5
420
255
176
1
290
0
176
1
 90
50
176
1
 90
50
176
1
 90
50
176
1
290
0
176
1
 90
50
176
1
 62
256
176
0
 40
1.0
176
0
 90
2
176
1
  1
strokes_ogs.tif
176
1
290
0
176
1
 40
1.0
176
1
 40
1.0
176
1
  0
VISUALSTYLE
  5
66
102
{ACAD_REACTORS
330
16
102
}
330
16
100
AcDbVisualStyle
  2
Hidden
 70
6
177
3
291
0
 70
58
 90
2
176
1
 90
2
176
1
 90
0
176
1
 90
1
176
1
 40
0.6
176
1
 40
30.0
176
1
 62
7
420
16777215
176
1
 90
1
176
1
 90
4
176
1
 62
7
176
1
 62
257
176
1
 90
1
176
1
 90
1
176
1
 40
1.0
176
1
 90
8
176
1
 62
7
176
1
 40
1.0
176
1
 90
1
176
1
 90
6
176
1
 90
2
176
1
 62
7
176
1
 90
5
176
1
 90
0
176
1
 90
0
176
1
290
0
176
1
 90
1
176
1
 40
0.0
176
1
 90
0
176
1
290
0
176
1
290
1
176
1
290
1
176
1
290
0
176
1
290
0
176
1
290
0
176
1
290
0
176
1
290
0
176
1
290
0
176
1
 90
50
176
1
 40
0.0
176
1
 40
1.0
176
1
 90
0
176
1
 62
18
420
0
176
1
 90
50
176
1
 90
3
176
1
 62
5
420
255
176
1
290
0
176
1
 90
50
176
1
 90
50
176
1
 90
50
176
1
290
0
176
1
 90
50
176
1
 62
256
176
0
 40
1.0
176
0
 90
2
176
1
  1
strokes_ogs.tif
176
1
290
0
176
1
 40
1.0
176
1
 40
1.0
176
1
  0
VISUALSTYLE
  5
67
102
{ACAD_REACTORS
330
16
102
}
330
16
100
AcDbVisualStyle
  2
JitterOff
 70
20
177
3
291
1
 70
58
 90
2
176
1
 90
2
176
1
 90
0
176
1
 90
2
176
1
 40
0.6
176
1
 40
30.0
176
1
 62
7
420
16777215
176
1
 90
1
176
1
 90
4
176
1
 62
7
176
1
 62
257
176
1
 90
1
176
1
 90
1
176
1
 40
1.0
176
1
 90
8
176
1
 62
7
176
1
 40
1.0
176
1
 90
1
176
1
 90
6
176
1
 90
2
176
1
 62
7
176
1
 90
5
176
1
 90
0
176
1
 90
0
176
1
290
0
176
1
 90
1
176
1
 40
0.0
176
1
 90
0
176
1
290
0
176
1
290
1
176
1
290
1
176
1
290
0
176
1
290
0
176
1
290
0
176
1
290
0
176
1
290
0
176
1
290
0
176
1
 90
50
176
1
 40
0.0
176
1
 40
1.0
176
1
 90
0
176
1
 62
18
420
0
176
1
 90
50
176
1
 90
3
176
1
 62
5
420
255
176
1
290
0
176
1
 90
50
176
1
 90
50
176
1
 90
50
176
1
290
0
176
1
 90
50
176
1
 62
256
176
0
 40
1.0
176
0
 90
2
176
1
  1
strokes_ogs.tif
176
1
290
0
176
1
 40
1.0
176
1
 40
1.0
176
1
  0
VISUALSTYLE
  5
68
102
{ACAD_REACTORS
330
16
102
}
330
16
100
AcDbVisualStyle
  2
Linepattern
 70
14
177
3
291
1
 70
58
 90
2
176
1
 90
2
176
1
 90
0
176
1
 90
2
176
1
 40
0.6
176
1
 40
30.0
176
1
 62
7
420
16777215
176
1
 90
1
176
1
 90
4
176
1
 62
7
176
1
 62
257
176
1
 90
1
176
1
 90
1
176
1
 40
1.0
176
1
 90
8
176
1
 62
7
176
1
 40
1.0
176
1
 90
1
176
1
 90
6
176
1
 90
2
176
1
 62
7
176
1
 90
5
176
1
 90
0
176
1
 90
0
176
1
290
0
176
1
 90
1
176
1
 40
0.0
176
1
 90
0
176
1
290
0
176
1
290
1
176
1
290
1
176
1
290
0
176
1
290
0
176
1
290
0
176
1
290
0
176
1
290
0
176
1
290
0
176
1
 90
50
176
1
 40
0.0
176
1
 40
1.0
176
1
 90
0
176
1
 62
18
420
0
176
1
 90
50
176
1
 90
3
176
1
 62
5
420
255
176
1
290
0
176
1
 90
50
176
1
 90
50
176
1
 90
50
176
1
290
0
176
1
 90
50
176
1
 62
256
176
0
 40
1.0
176
0
 90
2
176
1
  1
strokes_ogs.tif
176
1
290
0
176
1
 40
1.0
176
1
 40
1.0
176
1
  0
VISUALSTYLE
  5
69
102
{ACAD_REACTORS
330
16
102
}
330
16
100
AcDbVisualStyle
  2
Modeling
 70
10
177
3
291
0
 70
58
 90
2
176
1
 90
2
176
1
 90
0
176
1
 90
2
176
1
 40
0.6
176
1
 40
30.0
176
1
 62
7
420
16777215
176
1
 90
1
176
1
 90
4
176
1
 62
7
176
1
 62
257
176
1
 90
1
176
1
 90
1
176
1
 40
1.0
176
1
 90
8
176
1
 62
7
176
1
 40
1.0
176
1
 90
1
176
1
 90
6
176
1
 90
2
176
1
 62
7
176
1
 90
5
176
1
 90
0
176
1
 90
0
176
1
290
0
176
1
 90
1
176
1
 40
0.0
176
1
 90
0
176
1
290
0
176
1
290
1
176
1
290
1
176
1
290
0
176
1
290
0
176
1
290
0
176
1
290
0
176
1
290
0
176
1
290
0
176
1
 90
50
176
1
 40
0.0
176
1
 40
1.0
176
1
 90
0
176
1
 62
18
420
0
176
1
 90
50
176
1
 90
3
176
1
 62
5
420
255
176
1
290
0
176
1
 90
50
176
1
 90
50
176
1
 90
50
176
1
290
0
176
1
 90
50
176
1
 62
256
176
0
 40
1.0
176
0
 90
2
176
1
  1
strokes_ogs.tif
176
1
290
0
176
1
 40
1.0
176
1
 40
1.0
176
1
  0
VISUALSTYLE
  5
6A
102
{ACAD_REACTORS
330
16
102
}
330
16
100
AcDbVisualStyle
  2
OverhangOff
 70
21
177
3
291
1
 70
58
 90
2
176
1
 90
2
176
1
 90
0
176
1
 90
2
176
1
 40
0.6
176
1
 40
30.0
176
1
 62
7
420
16777215
176
1
 90
1
176
1
 90
4
176
1
 62
7
176
1
 62
257
176
1
 90
1
176
1
 90
1
176
1
 40
1.0
176
1
 90
8
176
1
 62
7
176
1
 40
1.0
176
1
 90
1
176
1
 90
6
176
1
 90
2
176
1
 62
7
176
1
 90
5
176
1
 90
0
176
1
 90
0
176
1
290
0
176
1
 90
1
176
1
 40
0.0
176
1
 90
0
176
1
290
0
176
1
290
1
176
1
290
1
176
1
290
0
176
1
290
0
176
1
290
0
176
1
290
0
176
1
290
0
176
1
290
0
176
1
 90
50
176
1
 40
0.0
176
1
 40
1.0
176
1
 90
0
176
1
 62
18
420
0
176
1
 90
50
176
1
 90
3
176
1
 62
5
420
255
176
1
290
0
176
1
 90
50
176
1
 90
50
176
1
 90
50
176
1
290
0
176
1
 90
50
176
1
 62
256
176
0
 40
1.0
176
0
 90
2
176
1
  1
strokes_ogs.tif
176
1
290
0
176
1
 40
1.0
176
1
 40
1.0
176
1
  0
VISUALSTYLE
  5
6B
102
{ACAD_REACTORS
330
16
102
}
330
16
100
AcDbVisualStyle
  2
Realistic
 70
8
177
3
291
0
 70
58
 90
2
176
1
 90
2
176
1
 90
0
176
1
 90
2
176
1
 40
0.6
176
1
 40
30.0
176
1
 62
7
420
16777215
176
1
 90
1
176
1
 90
4
176
1
 62
7
176
1
 62
257
176
1
 90
1
176
1
 90
1
176
1
 40
1.0
176
1
 90
8
176
1
 62
7
176
1
 40
1.0
176
1
 90
1
176
1
 90
6
176
1
 90
2
176
1
 62
7
176
1
 90
5
176
1
 90
0
176
1
 90
0
176
1
290
0
176
1
 90
1
176
1
 40
0.0
176
1
 90
0
176
1
290
0
176
1
290
1
176
1
290
1
176
1
290
0
176
1
290
0
176
1
290
0
176
1
290
0
176
1
290
0
176
1
290
0
176
1
 90
50
176
1
 40
0.0
176
1
 40
1.0
176
1
 90
0
176
1
 62
18
420
0
176
1
 90
50
176
1
 90
3
176
1
 62
5
420
255
176
1
290
0
176
1
 90
50
176
1
 90
50
176
1
 90
50
176
1
290
0
176
1
 90
50
176
1
 62
256
176
0
 40
1.0
176
0
 90
2
176
1
  1
strokes_ogs.tif
176
1
290
0
176
1
 40
1.0
176
1
 40
1.0
176
1
  0
VISUALSTYLE
  5
6C
102
{ACAD_REACTORS
330
16
102
}
330
16
100
AcDbVisualStyle
  2
Shaded
 70
27
177
3
291
0
 70
58
 90
2
176
1
 90
2
176
1
 90
0
176
1
 90
2
176
1
 40
0.6
176
1
 40
30.0
176
1
 62
7
420
16777215
176
1
 90
1
176
1
 90
4
176
1
 62
7
176
1
 62
257
176
1
 90
1
176
1
 90
1
176
1
 40
1.0
176
1
 90
8
176
1
 62
7
176
1
 40
1.0
176
1
 90
1
176
1
 90
6
176
1
 90
2
176
1
 62
7
176
1
 90
5
176
1
 90
0
176
1
 90
0
176
1
290
0
176
1
 90
1
176
1
 40
0.0
176
1
 90
0
176
1
290
0
176
1
290
1
176
1
290
1
176
1
290
0
176
1
290
0
176
1
290
0
176
1
290
0
176
1
290
0
176
1
290
0
176
1
 90
50
176
1
 40
0.0
176
1
 40
1.0
176
1
 90
0
176
1
 62
18
420
0
176
1
 90
50
176
1
 90
3
176
1
 62
5
420
255
176
1
290
0
176
1
 90
50
176
1
 90
50
176
1
 90
50
176
1
290
0
176
1
 90
50
176
1
 62
256
176
0
 40
1.0
176
0
 90
2
176
1
  1
strokes_ogs.tif
176
1
290
0
176
1
 40
1.0
176
1
 40
1.0
176
1
  0
VISUALSTYLE
  5
6D
102
{ACAD_REACTORS
330
16
102
}
330
16
100
AcDbVisualStyle
  2
Shaded with edges
 70
26
177
3
291
0
 70
58
 90
2
176
1
 90
2
176
1
 90
0
176
1
 90
2
176
1
 40
0.6
176
1
 40
30.0
176
1
 62
7
420
16777215
176
1
 90
1
176
1
 90
4
176
1
 62
7
176
1
 62
257
176
1
 90
1
176
1
 90
1
176
1
 40
1.0
176
1
 90
8
176
1
 62
7
176
1
 40
1.0
176
1
 90
1
176
1
 90
6
176
1
 90
2
176
1
 62
7
176
1
 90
5
176
1
 90
0
176
1
 90
0
176
1
290
0
176
1
 90
1
176
1
 40
0.0
176
1
 90
0
176
1
290
0
176
1
290
1
176
1
290
1
176
1
290
0
176
1
290
0
176
1
290
0
176
1
290
0
176
1
290
0
176
1
290
0
176
1
 90
50
176
1
 40
0.0
176
1
 40
1.0
176
1
 90
0
176
1
 62
18
420
0
176
1
 90
50
176
1
 90
3
176
1
 62
5
420
255
176
1
290
0
176
1
 90
50
176
1
 90
50
176
1
 90
50
176
1
290
0
176
1
 90
50
176
1
 62
256
176
0
 40
1.0
176
0
 90
2
176
1
  1
strokes_ogs.tif
176
1
290
0
176
1
 40
1.0
176
1
 40
1.0
176
1
  0
VISUALSTYLE
  5
6E
102
{ACAD_REACTORS
330
16
102
}
330
16
100
AcDbVisualStyle
  2
Shades of Gray
 70
23
177
3
291
0
 70
58
 90
2
176
1
 90
2
176
1
 90
0
176
1
 90
2
176
1
 40
0.6
176
1
 40
30.0
176
1
 62
7
420
16777215
176
1
 90
1
176
1
 90
4
176
1
 62
7
176
1
 62
257
176
1
 90
1
176
1
 90
1
176
1
 40
1.0
176
1
 90
8
176
1
 62
7
176
1
 40
1.0
176
1
 90
1
176
1
 90
6
176
1
 90
2
176
1
 62
7
176
1
 90
5
176
1
 90
0
176
1
 90
0
176
1
290
0
176
1
 90
1
176
1
 40
0.0
176
1
 90
0
176
1
290
0
176
1
290
1
176
1
290
1
176
1
290
0
176
1
290
0
176
1
290
0
176
1
290
0
176
1
290
0
176
1
290
0
176
1
 90
50
176
1
 40
0.0
176
1
 40
1.0
176
1
 90
0
176
1
 62
18
420
0
176
1
 90
50
176
1
 90
3
176
1
 62
5
420
255
176
1
290
0
176
1
 90
50
176
1
 90
50
176
1
 90
50
176
1
290
0
176
1
 90
50
176
1
 62
256
176
0
 40
1.0
176
0
 90
2
176
1
  1
strokes_ogs.tif
176
1
290
0
176
1
 40
1.0
176
1
 40
1.0
176
1
  0
VISUALSTYLE
  5
6F
102
{ACAD_REACTORS
330
16
102
}
330
16
100
AcDbVisualStyle
  2
Sketchy
 70
24
177
3
291
0
 70
58
 90
2
176
1
 90
2
176
1
 90
0
176
1
 90
1
176
1
 40
0.6
176
1
 40
30.0
176
1
 62
7
420
16777215
176
1
 90
1
176
1
 90
4
176
1
 62
7
176
1
 62
257
176
1
 90
1
176
1
 90
1
176
1
 40
1.0
176
1
 90
8
176
1
 62
7
176
1
 40
1.0
176
1
 90
1
176
1
 90
6
176
1
 90
2
176
1
 62
7
176
1
 90
5
176
1
 90
0
176
1
 90
0
176
1
290
0
176
1
 90
1
176
1
 40
0.0
176
1
 90
0
176
1
290
0
176
1
290
1
176
1
290
1
176
1
290
0
176
1
290
0
176
1
290
0
176
1
290
0
176
1
290
0
176
1
290
0
176
1
 90
50
176
1
 40
0.0
176
1
 40
1.0
176
1
 90
0
176
1
 62
18
420
0
176
1
 90
50
176
1
 90
3
176
1
 62
5
420
255
176
1
290
0
176
1
 90
50
176
1
 90
50
176
1
 90
50
176
1
290
0
176
1
 90
50
176
1
 62
256
176
0
 40
1.0
176
0
 90
2
176
1
  1
strokes_ogs.tif
176
1
290
0
176
1
 40
1.0
176
1
 40
1.0
176
1
  0
VISUALSTYLE
  5
70
102
{ACAD_REACTORS
330
16
102
}
330
16
100
AcDbVisualStyle
  2
Thicken
 70
13
177
3
291
1
 70
58
 90
2
176
1
 90
2
176
1
 90
0
176
1
 90
2
176
1
 40
0.6
176
1
 40
30.0
176
1
 62
7
420
16777215
176
1
 90
1
176
1
 90
4
176
1
 62
7
176
1
 62
257
176
1
 90
1
176
1
 90
1
176
1
 40
1.0
176
1
 90
8
176
1
 62
7
176
1
 40
1.0
176
1
 90
1
176
1
 90
6
176
1
 90
2
176
1
 62
7
176
1
 90
5
176
1
 90
0
176
1
 90
0
176
1
290
0
176
1
 90
1
176
1
 40
0.0
176
1
 90
0
176
1
290
0
176
1
290
1
176
1
290
1
176
1
290
0
176
1
290
0
176
1
290
0
176
1
290
0
176
1
290
0
176
1
290
0
176
1
 90
50
176
1
 40
0.0
176
1
 40
1.0
176
1
 90
0
176
1
 62
18
420
0
176
1
 90
50
176
1
 90
3
176
1
 62
5
420
255
176
1
290
0
176
1
 90
50
176
1
 90
50
176
1
 90
50
176
1
290
0
176
1
 90
50
176
1
 62
256
176
0
 40
1.0
176
0
 90
2
176
1
  1
strokes_ogs.tif
176
1
290
0
176
1
 40
1.0
176
1
 40
1.0
176
1
  0
VISUALSTYLE
  5
71
102
{ACAD_REACTORS
330
16
102
}
330
16
100
AcDbVisualStyle
  2
Wireframe
 70
5
177
3
291
0
 70
58
 90
2
176
1
 90
2
176
1
 90
0
176
1
 90
0
176
1
 40
0.6
176
1
 40
30.0
176
1
 62
7
420
16777215
176
1
 90
1
176
1
 90
4
176
1
 62
7
176
1
 62
257
176
1
 90
1
176
1
 90
1
176
1
 40
1.0
176
1
 90
8
176
1
 62
7
176
1
 40
1.0
176
1
 90
1
176
1
 90
6
176
1
 90
2
176
1
 62
7
176
1
 90
5
176
1
 90
0
176
1
 90
0
176
1
290
0
176
1
 90
1
176
1
 40
0.0
176
1
 90
0
176
1
290
0
176
1
290
1
176
1
290
1
176
1
290
0
176
1
290
0
176
1
290
0
176
1
290
0
176
1
290
0
176
1
290
0
176
1
 90
50
176
1
 40
0.0
176
1
 40
1.0
176
1
 90
0
176
1
 62
18
420
0
176
1
 90
50
176
1
 90
3
176
1
 62
5
420
255
176
1
290
0
176
1
 90
50
176
1
 90
50
176
1
 90
50
176
1
290
0
176
1
 90
50
176
1
 62
256
176
0
 40
1.0
176
0
 90
2
176
1
  1
strokes_ogs.tif
176
1
290
0
176
1
 40
1.0
176
1
 40
1.0
176
1
  0
VISUALSTYLE
  5
72
102
{ACAD_REACTORS
330
16
102
}
330
16
100
AcDbVisualStyle
  2
X-Ray
 70
25
177
3
291
0
 70
58
 90
2
176
1
 90
2
176
1
 90
0
176
1
 90
2
176
1
 40
0.5
176
1
 40
30.0
176
1
 62
7
420
16777215
176
1
 90
1
176
1
 90
4
176
1
 62
7
176
1
 62
257
176
1
 90
1
176
1
 90
1
176
1
 40
1.0
176
1
 90
8
176
1
 62
7
176
1
 40
1.0
176
1
 90
1
176
1
 90
6
176
1
 90
2
176
1
 62
7
176
1
 90
5
176
1
 90
0
176
1
 90
0
176
1
290
0
176
1
 90
1
176
1
 40
0.0
176
1
 90
0
176
1
290
0
176
1
290
1
176
1
290
1
176
1
290
0
176
1
290
0
176
1
290
0
176
1
290
0
176
1
290
0
176
1
290
0
176
1
 90
50
176
1
 40
0.0
176
1
 40
1.0
176
1
 90
0
176
1
 62
18
420
0
176
1
 90
50
176
1
 90
3
176
1
 62
5
420
255
176
1
290
0
176
1
 90
50
176
1
 90
50
176
1
 90
50
176
1
290
0
176
1
 90
50
176
1
 62
256
176
0
 40
1.0
176
0
 90
2
176
1
  1
strokes_ogs.tif
176
1
290
0
176
1
 40
1.0
176
1
 40
1.0
176
1
  0
DICTIONARYVAR
  5
B1
330
2D
100
DictionaryVariables
280
0
  1
1.4.4 @ 2026-09-26T08:44:24.603425+00:00
  0
ENDSEC
  0
EOF
